<?xml version="1.0" encoding="UTF-8" standalone="no"?>
<svg
   xmlns:dc="http://purl.org/dc/elements/1.1/"
   xmlns:cc="http://creativecommons.org/ns#"
   xmlns:rdf="http://www.w3.org/1999/02/22-rdf-syntax-ns#"
   xmlns:svg="http://www.w3.org/2000/svg"
   xmlns="http://www.w3.org/2000/svg"
   xmlns:sodipodi="http://sodipodi.sourceforge.net/DTD/sodipodi-0.dtd"
   xmlns:inkscape="http://www.inkscape.org/namespaces/inkscape"
   version="1.1"
   id="svg10"
   width="546.22461"
   height="195.11725"
   viewBox="0 0 546.22461 195.11725"
   sodipodi:docname="BT_Categorie-FT.svg"
   inkscape:version="1.0.1 (3bc2e813f5, 2020-09-07)">
  <metadata
     id="metadata16">
    <rdf:RDF>
      <cc:Work
         rdf:about="">
        <dc:format>image/svg+xml</dc:format>
        <dc:type
           rdf:resource="http://purl.org/dc/dcmitype/StillImage" />
        <dc:title></dc:title>
      </cc:Work>
    </rdf:RDF>
  </metadata>
  <defs
     id="defs14" />
  <sodipodi:namedview
     pagecolor="#ffffff"
     bordercolor="#666666"
     borderopacity="1"
     objecttolerance="10"
     gridtolerance="10"
     guidetolerance="10"
     inkscape:pageopacity="0"
     inkscape:pageshadow="2"
     inkscape:window-width="1801"
     inkscape:window-height="1191"
     id="namedview12"
     showgrid="false"
     inkscape:zoom="0.5"
     inkscape:cx="338.30953"
     inkscape:cy="-432.8598"
     inkscape:window-x="2159"
     inkscape:window-y="2"
     inkscape:window-maximized="0"
     inkscape:current-layer="g18" />
  <g
     inkscape:groupmode="layer"
     inkscape:label="Image"
     id="g18"
     transform="translate(-0.70532799,-433.52186)">
    <g
       id="g22"
       transform="translate(1.0900919,-341.19878)">
      <path
         id="path34"
         style="fill:#fc881c;stroke-width:0.727273"
         d="m 54.152344,774.76562 c -10.233695,-0.50155 -20.222755,3.19014 -27.576172,11.14649 -6.459643,6.98924 -10.350922,16.95415 -10.386719,26.56641 -0.03638,9.76727 4.313214,22.18599 10.572266,30.29882 1.566916,2.03103 2.523823,3.22709 3.621093,3.88868 0.274318,0.16539 0.58523,0.31896 1.027344,0.34179 0.442115,0.0228 1.010652,-0.2056 1.314453,-0.54492 0.607603,-0.67864 0.552548,-1.26991 0.552735,-1.91797 -1.4e-5,0.0483 0.126805,-0.78887 0.378906,-1.67187 0.252101,-0.88301 0.607856,-1.95438 0.994141,-2.97071 0.887369,-2.33471 1.395348,-4.06286 1.470703,-5.45703 0.03768,-0.69708 -0.01096,-1.35926 -0.404297,-1.98828 -0.346409,-0.55397 -1.02384,-0.86513 -1.646485,-0.94336 -0.006,-0.0112 -0.01328,-0.0838 -0.02539,-0.12109 0.44843,0.10186 0.831086,0.20697 1.517578,0.3125 1.053072,0.16187 2.353362,0.33188 3.667969,0.47265 l 4.708984,0.50586 a 1.2784231,1.2784231 0 0 0 0.708985,-0.1289 c 0.503185,0.55509 1.150702,0.78456 1.80664,0.91015 1.776761,0.34015 2.844011,0.55107 3.90625,0.33789 0.222522,-0.0447 0.390345,-0.27903 0.613281,-0.40039 0.256973,0.26498 0.525385,0.56919 0.839844,0.61133 0.444781,0.0596 0.76011,-0.0512 1.023438,-0.16797 0.0982,-0.0435 0.162969,-0.14023 0.255859,-0.1914 0.244076,0.52465 0.825173,1.07812 1.474609,1.07812 0.734586,0 1.284774,-0.45913 1.572266,-0.9043 0.02687,-0.0416 0.01501,-0.0943 0.03906,-0.13671 l -0.002,0.2832 a 1.2784231,1.2784231 0 0 0 1.074219,1.26562 l 4.544922,0.72852 a 1.2784231,1.2784231 0 0 0 0.002,0 c 1.247441,0.19966 2.421454,0.39283 3.306641,0.54102 0.442593,0.0741 0.814043,0.13637 1.082031,0.18359 0.267988,0.0472 0.551523,0.11446 0.392578,0.0723 a 1.2784231,1.2784231 0 0 0 0.002,0 c 0.806449,0.21291 1.013386,-0.12186 1.171875,-0.23242 0.158489,-0.11055 0.256096,-0.20477 0.359375,-0.30859 0.206559,-0.20764 0.409484,-0.44829 0.640625,-0.74219 0.462283,-0.58779 1.013598,-1.37266 1.578125,-2.25 l 1.986328,-3.08594 a 1.2784231,1.2784231 0 0 0 -0.580078,-1.86914 l -2.203125,-0.92578 h -0.002 c -1.409232,-0.59199 -4.263112,-1.42683 -6.669922,-1.98828 -2.078436,-0.48489 -3.077912,-0.80689 -4.185547,-0.67383 -0.554042,0.0666 -1.214988,0.44271 -1.52539,0.9043 -0.310403,0.46159 -0.388323,0.84978 -0.494141,1.24414 -0.269614,1.00489 -0.379202,2.57168 -0.416015,3.98828 -0.02513,-0.0501 -0.02388,-0.0846 -0.05859,-0.14062 -0.08056,-0.12993 -0.251263,-0.31094 -0.488282,-0.46289 0.545858,-1.23852 0.902865,-2.38603 0.832032,-3.43555 -0.04453,-0.65983 -0.262765,-1.34499 -0.771485,-1.85938 -0.508719,-0.51438 -1.24384,-0.75 -1.9375,-0.75 -0.381009,0 -0.774892,0.0278 -1.197265,0.19727 -0.20213,0.0811 -0.33382,0.29245 -0.513672,0.44336 -0.370851,-0.29298 -0.780654,-0.52764 -1.132813,-0.57813 -0.448663,-0.0643 -0.891988,-0.0625 -1.447265,-0.0625 -0.611068,0 -1.162097,0.009 -1.746094,0.16993 -0.432067,0.1192 -0.80956,0.44767 -1.173828,0.76367 a 1.2784231,1.2784231 0 0 0 -1.115234,-0.33008 l -2.681641,0.50195 a 1.2784231,1.2784231 0 0 0 -0.002,0 c -1.58711,0.2975 -4.072255,0.96784 -5.742188,1.54297 -0.489899,0.1687 -0.864735,0.27611 -1.273437,0.40039 0.01638,-0.0997 0.01591,-0.14246 0.03516,-0.25 0.200285,-1.11887 0.547946,-2.64875 0.972656,-4.28906 0.84942,-3.28062 2.025386,-7.05557 2.871094,-8.98242 1.194866,-2.72239 1.876169,-4.36887 2.150391,-5.58594 0.137111,-0.60854 0.25383,-1.17231 -0.08984,-1.86523 -0.07962,-0.16054 -0.256696,-0.24131 -0.390625,-0.375 1.312088,0.24592 3.88257,0.60733 6.236328,0.87304 l 4.449219,0.50196 a 1.2784231,1.2784231 0 0 0 1.351562,-0.85743 l 0.285156,-0.83593 c 0.04516,0.33864 0.0911,0.67166 0.208985,0.99414 0.148915,0.40735 0.373213,0.86299 0.900391,1.1914 0.338923,0.21116 0.861429,0.39361 1.410156,0.26563 0.548727,-0.12798 0.925424,-0.50576 1.148437,-0.8418 0.217045,-0.32704 0.267873,-0.79532 0.384766,-1.17383 0.144989,0.8357 0.678347,1.74922 1.501953,2.22657 1.674167,0.97031 4.001507,1.08315 9.144531,1.82031 1.822974,0.26131 2.972241,0.50984 3.917969,0.74805 -0.216047,0.16273 -0.463266,0.28229 -0.568359,0.51953 -0.171886,0.38801 -0.161737,0.70113 -0.140625,0.97265 0.08445,1.08608 0.549072,2.29224 1.451172,5.21289 l 1.515624,4.91016 a 1.2784231,1.2784231 0 0 0 2.289063,0.32422 l 1.3125,-2.00195 c 0.572152,-0.87223 0.980262,-1.69528 1.109375,-2.62305 0.0411,-0.29533 -0.08969,-0.62794 -0.101562,-0.92578 0.09877,0.0271 0.104955,0.0864 0.24414,0.0898 a 1.2784231,1.2784231 0 0 0 0.01172,0 c 0.594478,0.009 0.762555,-0.19671 0.917969,-0.31055 0.155413,-0.11383 0.263962,-0.22048 0.375,-0.33593 0.09037,-0.094 0.186691,-0.22623 0.277343,-0.33399 -1.009419,1.81585 -1.658254,3.61912 -1.904297,5.22461 -0.427931,-0.0357 -0.724003,0.0977 -0.916015,0.20703 -0.392167,0.22331 -0.574895,0.43879 -0.820313,0.69727 -0.611422,0.64399 -0.920509,1.53141 -1.03125,2.55078 -0.110741,1.01937 -0.06032,2.24279 0.09766,3.88086 l 0.3125,3.24414 c -0.0217,-0.0189 -0.02878,-0.0397 -0.05078,-0.0586 -0.578005,-0.49712 -1.144401,-0.94648 -1.61914,-1.28907 -0.23737,-0.17129 -0.44938,-0.31532 -0.652344,-0.43554 -0.101482,-0.0601 -0.199229,-0.11515 -0.322266,-0.16993 -0.123036,-0.0548 -0.221232,-0.14354 -0.634765,-0.14453 -0.518424,-10e-4 -0.690154,0.17011 -0.832032,0.26758 -0.141877,0.0975 -0.233941,0.18404 -0.324218,0.27344 -0.180555,0.1788 -0.341161,0.37267 -0.515625,0.59961 -0.348928,0.45388 -0.736458,1.03263 -1.115235,1.67383 -0.355122,0.60116 -0.637287,1.07895 -0.828125,1.62304 -0.190838,0.5441 -0.243391,1.41694 0.234375,2.03125 0.477766,0.61432 1.054579,0.78016 1.66211,0.94532 0.607531,0.16516 1.327925,0.2898 2.257812,0.44336 0.991052,0.16369 2.086408,0.35856 2.228516,0.38867 0.509411,0.10788 0.901521,-0.0624 1.148437,-0.21289 0.246916,-0.15047 0.407326,-0.31362 0.552735,-0.48438 0.290817,-0.3415 0.506682,-0.73005 0.677734,-1.17578 0.04467,-0.11641 0.01393,-0.23533 0.03906,-0.35352 a 1.2784231,1.2784231 0 0 0 1.021484,-0.36914 l 2.847656,-2.84375 c -0.73805,0.80959 -1.61547,1.72661 -2.164062,2.38086 -0.524556,0.62559 -0.94445,1.15896 -1.253907,1.61329 -0.154728,0.22716 -0.282289,0.42861 -0.392578,0.66406 -0.08501,0.18147 -0.202485,0.44393 -0.146484,0.88476 -0.09122,0.0907 -0.352758,0.28751 -0.783203,0.45118 -0.483951,0.18399 -0.908889,0.33471 -1.353516,0.63476 -0.444627,0.30005 -0.869006,0.84365 -1.029297,1.41406 -0.32058,1.14083 -0.0864,2.19059 0.1875,4.23438 0.695781,5.19156 0.710444,6.12718 0.08984,9.06054 l -0.509766,2.40235 a 1.2784231,1.2784231 0 0 0 1.876954,1.38086 l 2.9375,-1.65039 c 4.669937,-2.62466 10.706977,-9.31134 13.371093,-14.65625 2.503864,-5.0235 3.629205,-9.16161 4.373047,-16.02344 a 1.2784231,1.2784231 0 0 0 0,-0.002 l 0.511719,-4.72852 a 1.2784231,1.2784231 0 0 0 -1.097656,-1.40234 1.2784231,1.2784231 0 0 0 0.310547,-1.01563 l -0.472657,-3.5664 C 95.784538,806.14325 90.325942,795.63506 83.378906,788.57617 74.87215,779.93238 64.386044,775.26718 54.152344,774.76562 Z m 4.492187,13.66993 c 0.287408,0.97681 0.85492,1.83328 1.941407,2.11718 0.747957,0.19546 1.314135,0.33886 1.802734,0.41407 0.244299,0.0376 0.459243,0.07 0.77539,0.0351 0.158074,-0.0174 0.35398,-0.049 0.601563,-0.18554 0.124935,-0.0689 0.212045,-0.25979 0.332031,-0.39844 0.155092,0.10114 0.316892,0.22616 0.46875,0.30859 0.338015,0.18348 0.61571,0.36914 1.216797,0.36914 -0.287948,0 -0.299801,-0.20448 -0.306641,-0.0684 -0.0392,0.7803 0.174779,1.02751 0.398438,1.5625 0.223659,0.53499 0.530404,1.17103 0.908203,1.89454 0.54087,1.03579 1.337405,2.34212 2.103516,3.60937 a 1.2784231,1.2784231 0 0 0 -0.308594,0.99023 l 0.460937,3.94532 c -1.120844,-1.13461 -2.55199,-2.22307 -4.091796,-3.11719 -1.80944,-1.05069 -3.508612,-1.87238 -5.107422,-1.90039 -0.5891,-0.0104 -1.181187,0.37443 -1.458985,0.75781 -0.08729,0.12047 -0.09416,0.25028 -0.154297,0.37109 -0.07721,-0.15316 -0.04686,-0.3236 -0.171874,-0.46679 -0.423494,-0.48506 -1.098783,-0.67774 -1.591797,-0.67774 -0.399808,0 -0.59071,0.25073 -0.857422,0.43164 a 1.2784231,1.2784231 0 0 0 -1.335938,-0.58593 l -2.349609,0.46289 c -0.888238,0.17476 -1.858108,0.53984 -2.794922,0.98047 0.7635,-1.23606 1.555413,-2.49464 2.185547,-3.79102 0.444981,-0.91546 0.827747,-1.78295 1.109375,-2.53516 0.281628,-0.7522 0.49414,-1.29389 0.49414,-2.02148 0,-0.43565 -0.256682,-0.77565 -0.464843,-1.13281 0.325113,0.0213 0.423268,-0.008 0.818359,0.0332 1.139313,0.11759 2.014749,0.2251 2.845703,0.17969 0.830955,-0.0454 1.758538,-0.35463 2.335938,-1.0586 0.117528,-0.14329 0.105648,-0.36917 0.195312,-0.52343 z m -7.007812,59.01367 c -0.812062,0 -1.510651,0.0807 -2.16211,0.38867 -0.413151,0.19529 -0.756314,0.60472 -1.001953,1.07227 -0.397024,-0.40578 -0.907071,-0.73617 -1.449218,-0.70704 -0.768017,0.0413 -1.315433,0.41856 -1.820313,0.88282 -0.169289,0.15567 -0.315158,0.42525 -0.476563,0.61328 -0.117354,-0.16303 -0.144634,-0.3654 -0.310546,-0.46875 -0.783565,-0.48812 -1.35455,-0.26962 -1.908204,-0.11524 -0.553653,0.15439 -1.161261,0.404 -1.912109,0.7461 -0.592264,0.26986 -1.079663,0.52951 -1.5,0.84961 -0.420337,0.32009 -0.842266,0.7366 -0.984375,1.40625 -0.142109,0.66964 0.16019,1.35804 0.515625,1.76562 0.355435,0.40758 0.774039,0.69042 1.275391,0.98242 0.3628,0.21131 0.708202,0.40374 0.988281,0.55274 0.14004,0.0745 0.262039,0.13818 0.373047,0.19141 0.0555,0.0266 0.108236,0.0499 0.171875,0.0762 0.06364,0.0262 0.06446,0.0614 0.369141,0.10351 a 1.2784231,1.2784231 0 0 0 0.0039,0.002 c 0.612811,0.0829 0.819755,-0.15102 0.943359,-0.24024 0.123604,-0.0892 0.175725,-0.14857 0.222656,-0.19922 0.04836,-0.0522 0.07138,-0.0875 0.103516,-0.1289 0.204395,0.11055 0.3755,0.16592 0.501953,0.1875 0.2952,0.0504 0.505556,0.0388 0.746094,0.0195 0.481075,-0.0385 1.030381,-0.14334 1.638672,-0.30469 0.860328,-0.22826 1.63734,-0.59255 2.21289,-1.22852 0.221179,0.14293 0.435036,0.35986 0.613282,0.38477 0.62093,0.0868 0.921624,-0.0546 1.386718,-0.19141 0.465095,-0.13684 1.029496,-0.33187 1.769532,-0.58984 1.844839,-0.64311 3.196132,-1.73246 3.246093,-3.35938 0.02498,-0.81345 -0.45471,-1.63635 -1.126953,-2.07812 -0.672242,-0.44177 -1.485577,-0.61328 -2.429687,-0.61328 z m 13.304687,2.64062 c -0.231747,-0.0463 -0.499722,-0.11594 -0.951172,0.043 -0.451449,0.15892 -0.924902,0.82737 -0.953125,1.26367 -0.0565,0.87348 0.24843,1.08205 0.513672,1.50391 0.265242,0.42186 0.621753,0.90666 1.087891,1.50977 0.332967,0.43075 0.749441,0.74985 1.246094,0.93554 0.243113,0.0909 0.527847,0.15048 0.826172,0.14649 0.0057,0.044 -0.01844,0.0916 -0.0098,0.13476 0.154397,0.76838 0.548254,1.38034 1.09375,2.12891 0.772417,1.05994 1.118504,1.78991 2.177734,2.1875 0.529615,0.19879 1.154398,0.12056 1.576172,-0.0449 0.421774,-0.16548 0.747737,-0.3796 1.136719,-0.62696 0.300768,-0.19123 0.623168,-0.40514 0.890625,-0.84375 0.267457,-0.4386 0.314233,-1.11663 0.162109,-1.57226 -0.304247,-0.91127 -0.867429,-1.38635 -1.732422,-2.25391 -0.780969,-0.78327 -1.372955,-1.32681 -2.140625,-1.64844 -0.346281,-0.14506 -0.771116,-0.19619 -1.195312,-0.14648 -0.0333,-0.12503 0.04668,-0.27454 -0.0078,-0.38086 -0.489104,-0.95423 -1.295055,-1.35596 -2.361328,-1.8418 -0.512331,-0.23342 -0.89588,-0.40146 -1.359375,-0.49414 z" />
      <path
         id="path30"
         style="fill:#fc881c;fill-opacity:1;stroke-width:0.727273"
         sodipodi:type="inkscape:offset"
         inkscape:radius="0.15234883"
         inkscape:original="M 59.279297 777.83398 C 59.227717 777.98873 59.283234 778.36192 59.441406 778.9668 C 59.698577 779.95022 60.027422 780.28106 60.208984 779.73633 C 60.38388 779.21168 60.182386 778.43636 59.759766 778.01367 C 59.489923 777.74386 59.330877 777.67924 59.279297 777.83398 z M 58.404297 783.71094 C 58.33781 783.87571 58.296875 784.22656 58.296875 784.72656 C 58.296875 785.72656 58.462308 786.13672 58.664062 785.63672 C 58.865817 785.13672 58.865817 784.31836 58.664062 783.81836 C 58.563185 783.56836 58.470784 783.54616 58.404297 783.71094 z M 60.316406 785.41797 C 60.079254 785.29444 60.072924 785.41836 60.355469 785.81836 C 60.920559 786.61836 61.870712 787.68164 62.466797 788.18164 C 63.550953 789.09102 64 789.2907 64 788.86328 C 64 788.73811 62.948785 787.67484 61.664062 786.5 C 61.021701 785.91258 60.553558 785.5415 60.316406 785.41797 z M 53.681641 788.59375 C 53.101471 788.8259 53.273863 788.9983 54.121094 789.0332 C 54.88776 789.06477 55.317838 788.89401 55.076172 788.65234 C 54.834505 788.41055 54.206641 788.38364 53.681641 788.59375 z M 60.226562 789.32227 C 59.646393 789.55441 59.818785 789.72682 60.666016 789.76172 C 61.432682 789.79329 61.86276 789.62058 61.621094 789.37891 C 61.379427 789.13712 60.751562 789.11216 60.226562 789.32227 z M 68.769531 795.72656 C 68.565402 795.65344 68.572597 796.05289 68.736328 796.9082 C 68.87033 797.6082 69.004556 798.58095 69.035156 799.06836 C 69.06576 799.55555 69.569335 799.7713 70.154297 799.54688 C 71.076135 799.19312 71.064644 798.90432 70.070312 797.38672 C 69.388247 796.34577 68.97366 795.79968 68.769531 795.72656 z M 55.863281 798.77539 C 55.283111 799.00754 55.455503 799.17994 56.302734 799.21484 C 57.0694 799.2464 57.499479 799.07566 57.257812 798.83398 C 57.016145 798.59219 56.388281 798.56528 55.863281 798.77539 z M 46.587891 801.45508 C 46.164284 801.45508 45.818359 801.78164 45.818359 802.18164 C 45.818359 802.58164 45.962279 802.9082 46.138672 802.9082 C 46.315066 802.9082 46.660989 802.58164 46.908203 802.18164 C 47.155416 801.78164 47.011497 801.45508 46.587891 801.45508 z M 72.015625 801.45508 C 71.644501 801.45508 71.898682 802.43341 72.580078 803.63086 C 74.195691 806.47148 75.286565 806.47595 73.818359 803.63672 C 73.197813 802.43672 72.386749 801.45508 72.015625 801.45508 z M 54.837891 802.00391 C 54.608434 802.50638 54.157151 802.75448 53.833984 802.55469 C 53.510818 802.35498 53.046063 802.98555 52.802734 803.95508 C 52.559404 804.92453 51.789183 805.86033 51.089844 806.03516 C 50.390503 806.20687 50.731998 806.28743 51.849609 806.20703 C 52.96722 806.1266 54.049865 806.33271 54.255859 806.66602 C 54.461855 806.99933 55.021653 807.26872 55.498047 807.26172 C 56.07757 807.25423 56.037205 807.04332 55.376953 806.625 C 54.706839 806.20041 54.528359 805.21169 54.822266 803.54492 C 55.060312 802.19496 55.067347 801.50144 54.837891 802.00391 z M 66.908203 802.18164 C 66.870664 802.21918 67.090652 802.51503 67.542969 803.0918 C 68.091947 803.7918 68.665383 804.36328 68.816406 804.36328 C 69.414976 804.36328 69.029812 803.76652 67.818359 802.81641 C 67.241612 802.36412 66.945742 802.1441 66.908203 802.18164 z M 56.986328 803.56445 C 56.920677 803.72672 56.876551 804.12656 56.869141 804.72656 C 56.854319 805.92661 57.005861 806.50611 57.205078 806.01367 C 57.404296 805.52131 57.414863 804.53967 57.230469 803.83203 C 57.138271 803.47825 57.051979 803.40219 56.986328 803.56445 z M 39.818359 804.60938 C 39.318359 804.81111 39.726562 804.97656 40.726562 804.97656 C 41.726563 804.97656 42.136719 804.81111 41.636719 804.60938 C 41.136719 804.40762 40.318359 804.40763 39.818359 804.60938 z M 45.681641 805.32227 C 45.101471 805.55441 45.273863 805.72682 46.121094 805.76172 C 46.88776 805.79329 47.317839 805.62058 47.076172 805.37891 C 46.834506 805.13712 46.206641 805.11216 45.681641 805.32227 z M 58.384766 805.36719 C 58.308299 805.44365 58.255726 805.69746 58.238281 806.12109 C 58.206702 806.88771 58.379427 807.31785 58.621094 807.07617 C 58.862764 806.8345 58.887822 806.20666 58.677734 805.68164 C 58.561652 805.39157 58.461232 805.29072 58.384766 805.36719 z M 74.861328 806.54492 C 74.513015 806.54492 74.428098 807.06861 74.673828 807.70898 C 74.919559 808.34934 74.663753 809.19832 74.105469 809.5957 C 73.309425 810.16225 73.365179 810.23125 74.363281 809.91016 C 75.063281 809.685 75.636719 809.81759 75.636719 810.20508 C 75.636719 810.59249 75.946979 810.9082 76.326172 810.9082 C 76.74478 810.9082 76.715695 810.05129 76.253906 808.72656 C 75.835578 807.52656 75.209641 806.54492 74.861328 806.54492 z M 64.591797 808.23047 C 64.011628 808.46261 64.184019 808.63502 65.03125 808.66992 C 65.797917 808.70148 66.226041 808.52878 65.984375 808.28711 C 65.742708 808.04532 65.116797 808.02037 64.591797 808.23047 z M 77.134766 811.63672 C 76.822119 811.63672 76.914735 812.94492 77.341797 814.54492 C 78.118314 817.45415 78.791774 818.09369 79.636719 816.72656 C 79.883934 816.32656 79.764873 816 79.373047 816 C 78.981222 816 78.445205 815.01836 78.181641 813.81836 C 77.918077 812.61836 77.447406 811.63672 77.134766 811.63672 z M 79.486328 820.86719 C 79.303908 820.93415 79.050156 821.26129 78.673828 821.86914 C 78.144294 822.72449 78.062653 823.20686 78.492188 822.94141 C 78.931461 822.66992 79.309932 823.03539 79.357422 823.77539 C 79.435393 824.99124 79.466055 824.99458 79.773438 823.81836 C 79.956367 823.11836 80.000425 822.04315 79.871094 821.42969 C 79.779181 820.99369 79.668748 820.80022 79.486328 820.86719 z M 93.091797 821.0918 C 93.054258 821.05426 92.75839 821.27232 92.181641 821.72461 C 91.481641 822.27363 90.908203 822.84707 90.908203 822.99805 C 90.908203 823.59667 91.506943 823.21142 92.457031 822 C 92.909347 821.42324 93.129336 821.12933 93.091797 821.0918 z M 35.130859 823.71094 C 35.064372 823.87571 35.023438 824.22656 35.023438 824.72656 C 35.023438 825.72656 35.18887 826.13672 35.390625 825.63672 C 35.592379 825.13672 35.592379 824.31836 35.390625 823.81836 C 35.289747 823.56836 35.197347 823.54616 35.130859 823.71094 z M 52.300781 825.0918 L 51.509766 828.13867 C 51.075409 829.81503 50.91695 831.69667 51.15625 832.32031 C 51.395549 832.94387 51.905079 833.45508 52.289062 833.45508 C 53.428779 833.45508 55.275521 831.26255 55.244141 829.94727 C 55.224647 829.12997 54.855295 829.38766 54.128906 830.72656 C 52.493452 833.74118 51.824238 833.14893 52.074219 828.9082 L 52.300781 825.0918 z M 90.875 825.45508 C 90.675 825.45508 87.907792 828.07344 84.726562 831.27344 C 81.545333 834.47344 79.106641 837.0918 79.306641 837.0918 C 79.506641 837.0918 82.273849 834.47344 85.455078 831.27344 C 88.636307 828.07344 91.075 825.45508 90.875 825.45508 z M 46.228516 825.69727 C 45.763497 825.69727 45.33649 826.29787 45.28125 827.03125 C 45.22601 827.76456 45.450809 828.36328 45.779297 828.36328 C 46.107785 828.36328 46.532838 827.76456 46.724609 827.03125 C 46.91638 826.29787 46.693534 825.69727 46.228516 825.69727 z M 79.779297 825.71875 C 79.560934 825.50042 79.159344 826.90515 78.886719 828.8418 C 78.614101 830.77853 77.872114 832.77344 77.238281 833.27344 C 76.42919 833.91169 76.366475 834.18164 77.029297 834.18164 C 77.612425 834.18164 77.805018 834.66897 77.53125 835.45508 C 77.141105 836.57538 77.213973 836.5649 78.138672 835.37305 C 79.212882 833.98847 80.496308 826.43576 79.779297 825.71875 z M 55.476562 825.73047 C 55.400096 825.80693 55.347523 826.06074 55.330078 826.48438 C 55.298499 827.251 55.471224 827.68112 55.712891 827.43945 C 55.954561 827.19778 55.979619 826.56993 55.769531 826.04492 C 55.653449 825.75485 55.553029 825.65401 55.476562 825.73047 z M 57.658203 825.73047 C 57.581736 825.80693 57.529164 826.06074 57.511719 826.48438 C 57.48014 827.251 57.652864 827.68112 57.894531 827.43945 C 58.136201 827.19778 58.16126 826.56993 57.951172 826.04492 C 57.83509 825.75485 57.73467 825.65401 57.658203 825.73047 z M 86.466797 826.9082 C 86.266797 826.9082 84.99365 828.05508 83.636719 829.45508 C 82.279788 830.85508 81.333203 832 81.533203 832 C 81.733203 832 83.00635 830.85508 84.363281 829.45508 C 85.720212 828.05508 86.666797 826.9082 86.466797 826.9082 z M 34.394531 827.9082 C 34.262713 827.96633 34.181641 828.10849 34.181641 828.32031 C 34.181641 828.74387 34.508203 829.0918 34.908203 829.0918 C 35.308203 829.0918 35.636719 828.94597 35.636719 828.76953 C 35.636719 828.59317 35.308203 828.2472 34.908203 828 C 34.708203 827.8764 34.52635 827.85008 34.394531 827.9082 z M 45.167969 829.08984 C 44.725173 829.08984 44.363281 829.55872 44.363281 830.13086 C 44.363281 830.70308 43.626562 831.31295 42.726562 831.48633 C 41.323546 831.75651 41.377001 831.81549 43.091797 831.90039 C 44.191797 831.95486 45.091797 831.86258 45.091797 831.69531 C 45.091797 831.52804 45.290408 830.87296 45.533203 830.24023 C 45.775999 829.60751 45.610765 829.08984 45.167969 829.08984 z M 73.455078 830.54492 C 73.417539 830.58246 73.637527 830.87831 74.089844 831.45508 C 74.638826 832.15508 75.21031 832.72656 75.361328 832.72656 C 75.959903 832.72656 75.574736 832.1298 74.363281 831.17969 C 73.786532 830.7274 73.492617 830.50739 73.455078 830.54492 z M 37.681641 830.77539 C 37.101472 831.00754 37.273863 831.17994 38.121094 831.21484 C 38.88776 831.2464 39.317838 831.07566 39.076172 830.83398 C 38.834505 830.59219 38.206641 830.56528 37.681641 830.77539 z M 60.226562 834.41211 C 59.646394 834.64425 59.818785 834.81666 60.666016 834.85156 C 61.432682 834.88313 61.86276 834.71237 61.621094 834.4707 C 61.379427 834.22891 60.751562 834.202 60.226562 834.41211 z M 74.044922 836.59375 C 73.464755 836.8259 73.637138 836.9983 74.484375 837.0332 C 75.251037 837.06477 75.681119 836.89401 75.439453 836.65234 C 75.197781 836.41055 74.569919 836.38364 74.044922 836.59375 z M 76.566406 844.63867 C 76.489943 844.71514 76.43933 844.97089 76.421875 845.39453 C 76.390297 846.16114 76.561061 846.58933 76.802734 846.34766 C 77.044369 846.10599 77.071416 845.4801 76.861328 844.95508 C 76.745248 844.665 76.64287 844.56221 76.566406 844.63867 z M 47.818359 848.73828 C 46.595973 848.74665 46.437921 848.91151 47.191406 849.38867 C 47.84119 849.80024 48.058805 850.76053 47.804688 852.08984 C 47.437512 854.01064 47.480193 854.05703 48.431641 852.75586 C 50.012115 850.59441 49.727258 848.72518 47.818359 848.73828 z M 44.121094 849.45508 C 43.721094 849.45508 43.600922 849.66148 43.853516 849.91406 C 44.106108 850.16664 43.985937 850.985 43.585938 851.73242 C 42.632924 853.51298 43.759629 853.49774 44.873047 851.71484 C 45.741881 850.32364 45.452771 849.45508 44.121094 849.45508 z M 77.294922 849.73047 C 77.218458 849.80693 77.165892 850.06074 77.148438 850.48438 C 77.11686 851.251 77.289578 851.68112 77.53125 851.43945 C 77.772885 851.19778 77.797978 850.56993 77.587891 850.04492 C 77.471811 849.75485 77.371385 849.65401 77.294922 849.73047 z M 68.173828 852.74219 C 67.63518 852.87671 66.936392 853.87812 66.919922 854.81641 C 66.913797 855.16543 67.396591 855.04706 67.992188 854.55273 C 68.58778 854.05848 68.874502 853.32902 68.628906 852.93164 C 68.516224 852.74933 68.353377 852.69735 68.173828 852.74219 z "
         d="m 59.277344,777.61914 c -0.07515,0.0327 -0.12125,0.10203 -0.142578,0.16602 -0.04259,0.12778 -0.03248,0.27103 -0.0039,0.46875 0.02857,0.19771 0.08414,0.44631 0.164063,0.75195 0.131549,0.50304 0.266812,0.84037 0.451172,1.02539 0.04609,0.0463 0.09868,0.0853 0.164062,0.10547 0.06538,0.0202 0.144283,0.0158 0.207032,-0.0156 0.125496,-0.0628 0.185112,-0.18227 0.236328,-0.33593 0.200239,-0.60068 -0.01497,-1.40747 -0.486328,-1.87891 -0.141205,-0.14119 -0.250892,-0.23579 -0.375,-0.2832 -0.06206,-0.0237 -0.139693,-0.0366 -0.214844,-0.004 z m -0.703125,5.84766 c -0.06994,-0.0257 -0.167461,-0.002 -0.216797,0.041 -0.04934,0.0433 -0.0721,0.0928 -0.09375,0.14649 -0.08645,0.21424 -0.119141,0.56395 -0.119141,1.07226 0,0.5084 0.03259,0.85968 0.119141,1.07422 0.02164,0.0536 0.04645,0.10315 0.0957,0.14649 0.04925,0.0433 0.144888,0.0669 0.214844,0.041 0.06996,-0.0259 0.109145,-0.0705 0.142578,-0.11914 0.03343,-0.0487 0.05997,-0.10658 0.08789,-0.17578 0.22334,-0.55349 0.22334,-1.37815 0,-1.93164 -0.02795,-0.0693 -0.0563,-0.1271 -0.08984,-0.17578 -0.03355,-0.0487 -0.07069,-0.0934 -0.140625,-0.11914 z m 1.605469,1.7539 c -0.04256,7.2e-4 -0.105441,0.0179 -0.146485,0.0664 -0.04104,0.0485 -0.04741,0.1047 -0.04492,0.14453 0.005,0.0797 0.03419,0.13646 0.07422,0.21094 0.04002,0.0745 0.09504,0.16042 0.167969,0.26367 0.574819,0.81377 1.522182,1.87546 2.138672,2.39258 0.545806,0.45782 0.927788,0.73826 1.208984,0.86328 0.140598,0.0625 0.268811,0.10069 0.398437,0.041 0.06481,-0.0298 0.116513,-0.0875 0.142579,-0.14843 0.02607,-0.061 0.0332,-0.12464 0.0332,-0.19141 0,-0.0611 -0.01617,-0.081 -0.0293,-0.10547 -0.01313,-0.0245 -0.0288,-0.0472 -0.04687,-0.0723 -0.03614,-0.0501 -0.08536,-0.1098 -0.146484,-0.17969 -0.122241,-0.13977 -0.294814,-0.32163 -0.507813,-0.53711 -0.425999,-0.43095 -1.010316,-0.99313 -1.654297,-1.58203 -0.645984,-0.59073 -1.105695,-0.96019 -1.380859,-1.10352 -0.06879,-0.0358 -0.121906,-0.0639 -0.207031,-0.0625 z m -5.6875,3.08008 c -0.276034,-0.0117 -0.583155,0.0387 -0.867188,0.15234 -0.153497,0.0614 -0.262912,0.11496 -0.34375,0.19141 -0.04042,0.0382 -0.07904,0.0868 -0.08984,0.1582 -0.0108,0.0715 0.02345,0.15041 0.06641,0.19336 0.08592,0.0859 0.187866,0.10966 0.326172,0.13672 0.138306,0.0271 0.314501,0.0438 0.53125,0.0527 0.395786,0.0163 0.705149,-0.0149 0.917969,-0.0996 0.10641,-0.0424 0.203263,-0.0991 0.246094,-0.21485 0.04283,-0.11576 -0.01297,-0.24343 -0.0957,-0.32617 -0.165471,-0.16555 -0.415373,-0.23247 -0.691406,-0.24414 z m 6.544921,0.72852 c -0.276011,-0.0111 -0.583305,0.0387 -0.867187,0.15234 -0.153497,0.0614 -0.262912,0.11496 -0.34375,0.19141 -0.04042,0.0382 -0.07904,0.0868 -0.08984,0.1582 -0.0108,0.0714 0.02345,0.1504 0.06641,0.19336 0.08591,0.0859 0.187866,0.10966 0.326172,0.13672 0.138306,0.0271 0.314501,0.0438 0.53125,0.0527 0.395914,0.0163 0.705098,-0.0142 0.917969,-0.0996 0.106436,-0.0427 0.20343,-0.10106 0.246094,-0.21679 0.04266,-0.11574 -0.0129,-0.24337 -0.0957,-0.32618 -0.165616,-0.1657 -0.415395,-0.23105 -0.691407,-0.24218 z m 7.623047,6.54492 c -0.05811,0.0171 -0.107332,0.0618 -0.134765,0.10547 -0.05487,0.0873 -0.06067,0.17599 -0.0625,0.28711 -0.0037,0.22223 0.04044,0.53915 0.123047,0.9707 0.132633,0.69285 0.267226,1.66837 0.296874,2.14062 0.01849,0.29438 0.194371,0.5302 0.44336,0.63672 0.248989,0.10653 0.561438,0.0979 0.882812,-0.0254 0.237032,-0.091 0.423717,-0.17928 0.5625,-0.30273 0.138784,-0.12345 0.218414,-0.29847 0.210938,-0.49024 -0.01495,-0.38353 -0.28571,-0.83147 -0.785156,-1.59375 -0.342095,-0.52209 -0.616682,-0.92112 -0.835938,-1.20312 -0.109628,-0.141 -0.205397,-0.25281 -0.291016,-0.33789 -0.08562,-0.0851 -0.157704,-0.14467 -0.25,-0.17774 -0.04611,-0.0165 -0.102044,-0.0269 -0.160156,-0.01 z m -11.986328,2.9082 c -0.276033,-0.0117 -0.583154,0.0387 -0.867187,0.15235 -0.153497,0.0614 -0.262913,0.11495 -0.34375,0.1914 -0.04042,0.0382 -0.07904,0.0868 -0.08984,0.15821 -0.0108,0.0714 0.02345,0.1504 0.06641,0.19335 0.08591,0.0859 0.187866,0.10966 0.326172,0.13672 0.138306,0.0271 0.314501,0.0438 0.53125,0.0527 0.395784,0.0163 0.705149,-0.0149 0.917969,-0.0996 0.10641,-0.0424 0.203263,-0.0991 0.246094,-0.21485 0.04283,-0.11576 -0.01297,-0.24343 -0.0957,-0.32617 -0.16547,-0.16555 -0.415373,-0.23247 -0.691406,-0.24414 z m -10.085937,2.82031 c -0.501905,0 -0.921875,0.39108 -0.921875,0.87891 0,0.21827 0.0379,0.41652 0.107422,0.57422 0.03476,0.0788 0.07655,0.14904 0.134765,0.20508 0.05822,0.056 0.139363,0.0996 0.230469,0.0996 0.182212,0 0.311797,-0.11126 0.46289,-0.25391 0.151094,-0.14265 0.304981,-0.33366 0.435547,-0.54492 0.140305,-0.22702 0.187185,-0.46006 0.101563,-0.6543 -0.08562,-0.19423 -0.29983,-0.30469 -0.550781,-0.30469 z m 25.427734,0 c -0.07986,0 -0.165101,0.0324 -0.220703,0.0918 -0.0556,0.0594 -0.08178,0.13239 -0.09375,0.20703 -0.02395,0.14929 7.12e-4,0.32329 0.05469,0.53125 0.107951,0.41593 0.345915,0.96707 0.691407,1.57422 0.407537,0.71655 0.783631,1.25461 1.099609,1.62109 0.157989,0.18325 0.299987,0.32316 0.429687,0.42188 0.129701,0.0987 0.244352,0.16542 0.378907,0.16602 0.06728,2.9e-4 0.140611,-0.0236 0.193359,-0.0723 0.05275,-0.0487 0.08259,-0.11314 0.09766,-0.17773 0.03013,-0.12919 0.01672,-0.27777 -0.02539,-0.4668 -0.08421,-0.37807 -0.297389,-0.91618 -0.667969,-1.63281 -0.314927,-0.609 -0.675974,-1.16204 -1.011719,-1.56836 -0.167872,-0.20317 -0.32829,-0.36958 -0.478515,-0.49024 -0.150226,-0.12066 -0.287323,-0.20508 -0.447266,-0.20508 z m -17.144531,0.40625 c -0.03951,0.0204 -0.05786,0.0436 -0.07617,0.0664 -0.03662,0.0455 -0.06433,0.0973 -0.0957,0.16602 -0.102988,0.22552 -0.255879,0.38639 -0.402344,0.46679 -0.146465,0.0804 -0.2722,0.086 -0.382813,0.0176 -0.125181,-0.0774 -0.28581,-0.0726 -0.412109,-0.01 -0.126299,0.0628 -0.23339,0.17133 -0.335937,0.31054 -0.205095,0.27844 -0.386378,0.692 -0.511719,1.19141 -0.115243,0.45914 -0.358072,0.91756 -0.654297,1.27734 -0.296225,0.35978 -0.646876,0.61631 -0.947266,0.69141 -0.180302,0.0443 -0.288483,0.0738 -0.376953,0.1289 -0.02212,0.0138 -0.04573,0.0289 -0.07031,0.0645 -0.02458,0.0355 -0.04197,0.11594 -0.01563,0.17187 0.02635,0.0559 0.06336,0.0749 0.08984,0.0879 0.02648,0.013 0.04987,0.0179 0.07422,0.0234 0.09738,0.0223 0.225021,0.0285 0.408203,0.0273 0.183182,-0.001 0.417446,-0.011 0.699219,-0.0312 0.546,-0.0393 1.084006,-0.008 1.503906,0.0723 0.20995,0.04 0.390647,0.0921 0.523438,0.15039 0.132791,0.0583 0.214467,0.12553 0.238281,0.16406 0.251589,0.40708 0.837485,0.67584 1.373047,0.66797 0.154142,-0.002 0.271481,-0.0134 0.373047,-0.0547 0.05078,-0.0206 0.101039,-0.0508 0.138672,-0.10352 0.03763,-0.0527 0.05234,-0.12803 0.04102,-0.1875 -0.02266,-0.11894 -0.09728,-0.19313 -0.195312,-0.28125 -0.09804,-0.0881 -0.229078,-0.18371 -0.398438,-0.29102 -0.29506,-0.18695 -0.483759,-0.49232 -0.570312,-0.97265 -0.08655,-0.48034 -0.06116,-1.12806 0.08398,-1.95117 0.119753,-0.67913 0.182508,-1.19053 0.185547,-1.49024 7.6e-4,-0.0749 -0.0026,-0.1363 -0.01172,-0.19141 -0.0046,-0.0276 -0.01091,-0.0547 -0.02344,-0.084 -0.01252,-0.0293 -0.03164,-0.0687 -0.08398,-0.0977 -0.05235,-0.029 -0.128463,-0.0204 -0.167968,0 z m 12.035156,0.31641 c -0.02922,0.002 -0.07228,0.0156 -0.105469,0.0488 -0.03319,0.0332 -0.04655,0.0763 -0.04883,0.10547 -0.0023,0.0292 0.0015,0.0495 0.0059,0.0664 0.0087,0.0338 0.02089,0.0572 0.03516,0.084 0.02853,0.0535 0.06983,0.11552 0.125,0.19336 0.110334,0.15567 0.279296,0.37321 0.505859,0.66211 0.277961,0.35442 0.560108,0.67584 0.796875,0.91211 0.118384,0.11813 0.224509,0.21421 0.316406,0.28515 0.04595,0.0355 0.08875,0.065 0.13086,0.0879 0.04211,0.0229 0.08152,0.0449 0.148437,0.0449 0.08748,0 0.164708,-0.01 0.236328,-0.0391 0.07162,-0.0293 0.140308,-0.0874 0.171875,-0.16406 0.06313,-0.1534 -0.0023,-0.29842 -0.09961,-0.44922 -0.194611,-0.3016 -0.601146,-0.68624 -1.212891,-1.16601 -0.288888,-0.22655 -0.506432,-0.39553 -0.662109,-0.50586 -0.07784,-0.0552 -0.13987,-0.0965 -0.193359,-0.125 -0.02675,-0.0143 -0.05015,-0.0264 -0.08398,-0.0352 -0.01692,-0.004 -0.03719,-0.008 -0.06641,-0.006 z m -9.796875,1.3125 c -0.04561,-0.0127 -0.103594,-0.005 -0.142578,0.0156 -0.07797,0.0422 -0.09878,0.0991 -0.121094,0.15429 -0.08938,0.22093 -0.121414,0.61017 -0.128906,1.2168 -0.0075,0.60674 0.02242,1.0527 0.0918,1.31836 0.01734,0.0664 0.03792,0.12239 0.06836,0.17383 0.03044,0.0514 0.08266,0.11455 0.175781,0.12304 0.09312,0.009 0.160356,-0.0472 0.199219,-0.0957 0.03886,-0.0485 0.06564,-0.10435 0.09375,-0.17383 0.224924,-0.55589 0.224671,-1.53506 0.03125,-2.27734 -0.04835,-0.18554 -0.07667,-0.29959 -0.167969,-0.39453 -0.02282,-0.0237 -0.054,-0.0478 -0.09961,-0.0606 z m -16.382813,0.96289 c -0.34472,0 -0.688097,0.0563 -0.964843,0.16797 -0.138372,0.0558 -0.242773,0.0911 -0.294922,0.23047 -0.02607,0.0697 -0.0022,0.16537 0.04102,0.21484 0.04324,0.0495 0.09097,0.074 0.144532,0.0957 0.21425,0.0867 0.565816,0.11914 1.074218,0.11914 0.508403,0 0.859676,-0.0326 1.074219,-0.11914 0.05364,-0.0216 0.10315,-0.0465 0.146485,-0.0957 0.04333,-0.0492 0.0669,-0.14488 0.04102,-0.21484 -0.02588,-0.07 -0.07048,-0.10915 -0.11914,-0.14258 -0.04866,-0.0334 -0.10658,-0.06 -0.175782,-0.0879 -0.276748,-0.11167 -0.622076,-0.16797 -0.966797,-0.16797 z m 5.765626,0.72852 c -0.276012,-0.0111 -0.583305,0.0387 -0.867188,0.15234 -0.153497,0.0614 -0.262912,0.11496 -0.34375,0.19141 -0.04042,0.0382 -0.07904,0.0868 -0.08984,0.1582 -0.0108,0.0714 0.02345,0.1504 0.06641,0.19336 0.08591,0.0859 0.187866,0.10966 0.326172,0.13672 0.138307,0.0271 0.314501,0.0438 0.53125,0.0527 0.395915,0.0163 0.705098,-0.0142 0.917969,-0.0996 0.106436,-0.0427 0.203431,-0.10106 0.246094,-0.21679 0.04266,-0.11574 -0.0129,-0.24337 -0.0957,-0.32618 -0.165615,-0.1657 -0.415395,-0.23105 -0.691406,-0.24218 z m 11.976562,0.16406 c -0.0715,-0.0105 -0.148662,0.0237 -0.191406,0.0664 -0.08549,0.0855 -0.109438,0.18611 -0.136719,0.32421 -0.02728,0.13811 -0.04576,0.3144 -0.05469,0.53125 -0.01631,0.3959 0.01423,0.7051 0.09961,0.91797 0.04269,0.10644 0.101062,0.20343 0.216797,0.2461 0.115734,0.0427 0.243362,-0.0129 0.326172,-0.0957 0.165617,-0.16561 0.231037,-0.4154 0.242187,-0.6914 0.01115,-0.276 -0.03874,-0.58329 -0.152344,-0.86719 -0.06141,-0.15345 -0.114966,-0.26305 -0.191406,-0.34375 -0.03822,-0.0403 -0.0867,-0.0774 -0.158203,-0.0879 z m 16.392578,1.19922 c -0.125254,0 -0.244928,0.0543 -0.324219,0.14258 -0.07929,0.0882 -0.122293,0.20245 -0.142578,0.32812 -0.04057,0.25135 0.0068,0.56176 0.136719,0.90039 0.216925,0.56529 -0.02099,1.35635 -0.513672,1.70703 -0.200886,0.14297 -0.349163,0.25468 -0.449219,0.34375 -0.05003,0.0445 -0.08775,0.0817 -0.11914,0.12696 -0.01569,0.0226 -0.03214,0.0475 -0.04102,0.0879 -0.0089,0.0403 -0.0014,0.10764 0.03516,0.15234 0.03655,0.0447 0.0798,0.0597 0.111329,0.0664 0.03153,0.007 0.05881,0.007 0.08594,0.006 0.05426,-0.002 0.112349,-0.0133 0.183594,-0.0293 0.142489,-0.0319 0.334504,-0.089 0.585937,-0.16992 0.330158,-0.1062 0.626894,-0.12245 0.81836,-0.0781 0.09573,0.0222 0.162679,0.058 0.201172,0.0957 0.03849,0.0377 0.05469,0.0735 0.05469,0.13281 0,0.46875 0.378042,0.85547 0.841797,0.85547 0.156629,0 0.300256,-0.10202 0.367187,-0.24024 0.06693,-0.13822 0.08492,-0.30785 0.07813,-0.51172 -0.0136,-0.40772 -0.139118,-0.96174 -0.373046,-1.63281 -0.212689,-0.61011 -0.477428,-1.16347 -0.738282,-1.57226 -0.130426,-0.2044 -0.25938,-0.37257 -0.386718,-0.4961 -0.127339,-0.12352 -0.253472,-0.21484 -0.41211,-0.21484 z m -9.460937,1.54492 c -0.275569,-0.0111 -0.581414,0.0388 -0.865235,0.15234 -0.153497,0.0614 -0.262912,0.11496 -0.34375,0.19141 -0.04042,0.0382 -0.07904,0.0868 -0.08984,0.1582 -0.0108,0.0715 0.02345,0.1504 0.06641,0.19336 0.08591,0.0859 0.187866,0.10966 0.326172,0.13672 0.138306,0.0271 0.3145,0.0438 0.53125,0.0527 0.395908,0.0163 0.705453,-0.0141 0.917968,-0.0996 0.106258,-0.0427 0.20187,-0.10097 0.244141,-0.2168 0.04227,-0.11583 -0.01297,-0.24344 -0.0957,-0.32617 -0.165471,-0.16556 -0.415838,-0.23105 -0.691406,-0.24219 z m 11.734375,3.54688 c -0.0922,0 -0.179182,0.0584 -0.22461,0.125 -0.04543,0.0665 -0.06735,0.14265 -0.08398,0.22851 -0.03328,0.17172 -0.03684,0.39306 -0.01758,0.66406 0.03852,0.54202 0.171227,1.27469 0.386718,2.08203 0.390372,1.46253 0.736443,2.35922 1.164063,2.76563 0.21381,0.20321 0.489879,0.26955 0.734375,0.16016 0.244496,-0.1094 0.453088,-0.34913 0.671875,-0.70313 0.139106,-0.22508 0.193714,-0.45008 0.123047,-0.64453 -0.07067,-0.19445 -0.277388,-0.31445 -0.515625,-0.31445 -0.03434,0 -0.110717,-0.0315 -0.205078,-0.12696 -0.09436,-0.0955 -0.201368,-0.24439 -0.304688,-0.43359 -0.206639,-0.3784 -0.404196,-0.91459 -0.533203,-1.50195 -0.133991,-0.61006 -0.318878,-1.16411 -0.515625,-1.57422 -0.09837,-0.20506 -0.19967,-0.37383 -0.304687,-0.5 -0.105018,-0.12617 -0.217115,-0.22656 -0.375,-0.22656 z m 2.298828,9.24023 c -0.145101,0.0533 -0.260126,0.17086 -0.400391,0.3457 -0.140264,0.17484 -0.298489,0.4122 -0.488281,0.71875 -0.269669,0.4356 -0.431589,0.76922 -0.472656,1.01172 -0.01027,0.0606 -0.01376,0.11707 0,0.17774 0.01376,0.0607 0.05802,0.13306 0.126953,0.16601 0.06893,0.0329 0.138403,0.0262 0.197265,0.01 0.05886,-0.0164 0.114231,-0.046 0.175782,-0.084 0.176985,-0.10938 0.28138,-0.0915 0.394531,0.0176 0.113151,0.10913 0.21609,0.35148 0.238281,0.69727 0.01953,0.30459 0.0371,0.53311 0.05664,0.69336 0.0098,0.0801 0.01794,0.14333 0.0332,0.19726 0.0076,0.027 0.01663,0.0517 0.03516,0.082 0.01853,0.0303 0.05826,0.0802 0.132813,0.0879 0.07455,0.008 0.126111,-0.0343 0.15039,-0.0605 0.02428,-0.0263 0.03812,-0.0492 0.05078,-0.0742 0.02532,-0.05 0.04551,-0.10897 0.07031,-0.18555 0.04961,-0.15317 0.10854,-0.3733 0.185547,-0.66797 0.191065,-0.73113 0.237793,-1.80353 0.09961,-2.45898 -0.04756,-0.2256 -0.09615,-0.39396 -0.179687,-0.52149 -0.04177,-0.0638 -0.09699,-0.12127 -0.171875,-0.15234 -0.07489,-0.0311 -0.161825,-0.0266 -0.234375,0 z m 13.660156,0.21094 c -0.02214,0.002 -0.122396,0.0293 -0.150391,0.041 -0.05357,0.0283 -0.113516,0.0681 -0.191406,0.12305 -0.15578,0.1099 -0.375089,0.27924 -0.664062,0.50586 -0.354372,0.27794 -0.677332,0.56014 -0.914063,0.79687 -0.118365,0.11837 -0.214029,0.22453 -0.285156,0.31641 -0.03556,0.0459 -0.06489,0.0888 -0.08789,0.13086 -0.02301,0.0421 -0.04492,0.0813 -0.04492,0.14844 0,0.0875 0.0096,0.16466 0.03906,0.23633 0.02943,0.0717 0.08734,0.14037 0.164062,0.17187 0.153454,0.063 0.298163,-0.002 0.449219,-0.0996 0.302112,-0.1946 0.688174,-0.60112 1.167969,-1.21289 0.226511,-0.28883 0.395554,-0.50698 0.505859,-0.66211 0.05515,-0.0776 0.09645,-0.13809 0.125,-0.19141 0.01428,-0.0267 0.02638,-0.0501 0.03516,-0.084 0.0044,-0.0169 0.0081,-0.0371 0.0059,-0.0664 -0.0023,-0.0293 -0.01575,-0.0724 -0.04883,-0.10546 -0.03307,-0.0331 -0.07635,-0.0465 -0.105469,-0.0488 z m -57.792969,2.53125 c -0.06994,-0.0257 -0.167461,-0.002 -0.216797,0.041 -0.04933,0.0433 -0.0721,0.0928 -0.09375,0.14649 -0.08645,0.21424 -0.11914,0.56395 -0.11914,1.07226 0,0.5084 0.03259,0.85968 0.11914,1.07422 0.02164,0.0536 0.04645,0.10315 0.0957,0.14649 0.04925,0.0433 0.144887,0.0669 0.214843,0.041 0.06996,-0.0259 0.109146,-0.0705 0.142578,-0.11914 0.03343,-0.0487 0.05997,-0.10658 0.08789,-0.17578 0.223339,-0.55349 0.223339,-1.37815 0,-1.93164 -0.02795,-0.0693 -0.0563,-0.1271 -0.08984,-0.17578 -0.03355,-0.0487 -0.07069,-0.0934 -0.140625,-0.11914 z m 16.986328,1.47265 a 0.15236407,0.15236407 0 0 0 -0.132812,0.11328 l -0.791016,3.04688 a 0.15236407,0.15236407 0 0 0 -0.002,0 c -0.219522,0.84722 -0.368778,1.74412 -0.433594,2.51172 -0.06482,0.7676 -0.0561,1.3935 0.08594,1.76367 0.127619,0.33255 0.324834,0.63098 0.546875,0.85352 0.222041,0.22253 0.468915,0.3789 0.728515,0.3789 0.667553,0 1.417673,-0.58374 2.033204,-1.31445 0.61553,-0.73071 1.091656,-1.61871 1.074218,-2.34961 -0.0052,-0.21598 -0.02015,-0.369 -0.107422,-0.49414 -0.04364,-0.0626 -0.1248,-0.11611 -0.208984,-0.11914 -0.08418,-0.003 -0.152784,0.0309 -0.214844,0.0742 -0.248238,0.17339 -0.504691,0.57463 -0.871093,1.25 -0.40579,0.74799 -0.751655,1.2685 -1.021485,1.55078 -0.134915,0.14114 -0.250675,0.21915 -0.326172,0.24414 -0.0755,0.025 -0.100203,0.019 -0.15039,-0.0254 -0.100375,-0.0888 -0.233157,-0.43946 -0.285156,-1.03125 -0.052,-0.5918 -0.04662,-1.41862 0.01562,-2.47461 l 0.226563,-3.81641 a 0.15236407,0.15236407 0 0 0 -0.166016,-0.16211 z M 90.875,825.30273 c -0.09561,0 -0.109022,0.0282 -0.148438,0.0527 -0.03942,0.0246 -0.08194,0.057 -0.134765,0.0977 -0.105649,0.0814 -0.244106,0.19681 -0.414063,0.34571 -0.339913,0.2978 -0.805226,0.72583 -1.363281,1.2539 -1.11611,1.05616 -2.603773,2.51236 -4.195312,4.11329 -1.591539,1.60093 -2.998336,3.0568 -3.982422,4.11328 -0.492043,0.52824 -0.87759,0.95677 -1.13086,1.25586 -0.126635,0.14954 -0.219506,0.26497 -0.279297,0.35156 -0.02989,0.0433 -0.051,0.0758 -0.06836,0.12109 -0.0087,0.0226 -0.02602,0.0468 -0.01172,0.10938 0.0036,0.0156 0.02088,0.0518 0.02148,0.0527 6.04e-4,9.5e-4 0.044,0.0443 0.04492,0.0449 9.22e-4,6.4e-4 0.03467,0.0193 0.05078,0.0234 0.01611,0.004 0.03102,0.006 0.04297,0.006 0.09561,0 0.109021,-0.0282 0.148437,-0.0527 0.03942,-0.0246 0.08194,-0.057 0.134766,-0.0977 0.105648,-0.0814 0.244105,-0.1968 0.414062,-0.3457 0.339914,-0.2978 0.805227,-0.72583 1.363282,-1.25391 1.116109,-1.05615 2.603773,-2.51235 4.195312,-4.11328 1.591539,-1.60093 2.998335,-3.0568 3.982422,-4.11328 0.492043,-0.52824 0.877589,-0.95678 1.130859,-1.25586 0.126635,-0.14954 0.219507,-0.26498 0.279297,-0.35156 0.02989,-0.0433 0.051,-0.0758 0.06836,-0.1211 0.0087,-0.0226 0.02602,-0.0468 0.01172,-0.10937 -0.0036,-0.0157 -0.02088,-0.0518 -0.02148,-0.0527 -6.04e-4,-9.5e-4 -0.044,-0.0443 -0.04492,-0.0449 -9.22e-4,-6.3e-4 -0.03467,-0.0193 -0.05078,-0.0234 -0.01611,-0.004 -0.03102,-0.006 -0.04297,-0.006 z m -44.646484,0.24219 c -0.298099,0 -0.561362,0.18873 -0.751954,0.45703 -0.190591,0.2683 -0.318061,0.62468 -0.347656,1.01758 -0.02902,0.38519 0.01423,0.73607 0.115235,1.00586 0.0505,0.13489 0.115886,0.25105 0.203125,0.33984 0.08724,0.0888 0.203629,0.15039 0.332031,0.15039 0.256804,0 0.463835,-0.19498 0.648437,-0.45507 0.184602,-0.26009 0.343071,-0.60675 0.44336,-0.99024 0.102114,-0.39051 0.09894,-0.75119 -0.0059,-1.0332 -0.104801,-0.28201 -0.33862,-0.49219 -0.636718,-0.49219 z m 33.519531,0 c -0.05606,-0.005 -0.106483,0.0153 -0.142578,0.0391 -0.07219,0.0474 -0.110283,0.10757 -0.152344,0.1836 -0.08412,0.15205 -0.163608,0.37352 -0.246094,0.66211 -0.164972,0.57717 -0.33366,1.41711 -0.470703,2.39062 -0.134656,0.95663 -0.387172,1.93099 -0.68164,2.72266 -0.294469,0.79166 -0.647897,1.40444 -0.910157,1.61133 -0.205621,0.1622 -0.366791,0.302 -0.484375,0.42578 -0.117583,0.12378 -0.197398,0.22705 -0.226562,0.35351 -0.01458,0.0632 -0.01035,0.13803 0.02344,0.20118 0.03379,0.0631 0.08904,0.10567 0.146485,0.13281 0.114881,0.0543 0.249734,0.0664 0.425781,0.0664 0.249124,0 0.364244,0.0802 0.429687,0.2461 0.06544,0.16591 0.05775,0.45087 -0.07227,0.82422 -0.098,0.28139 -0.166645,0.49274 -0.203125,0.64258 -0.01824,0.0749 -0.03022,0.13066 -0.02734,0.19531 0.0014,0.0323 0.0036,0.073 0.03906,0.12109 0.03547,0.0481 0.118606,0.0751 0.167969,0.0684 0.09873,-0.0134 0.127529,-0.0554 0.177735,-0.10156 0.05021,-0.0461 0.106422,-0.10572 0.173828,-0.1836 0.134811,-0.15574 0.313219,-0.38104 0.544922,-0.67968 0.300666,-0.38754 0.573694,-1.12174 0.835937,-2.04297 0.262243,-0.92123 0.501988,-2.02333 0.685547,-3.10352 0.183559,-1.08018 0.31095,-2.13814 0.347656,-2.97851 0.01835,-0.42019 0.01336,-0.78537 -0.01953,-1.07618 -0.03289,-0.2908 -0.07771,-0.50935 -0.222656,-0.65429 -0.03222,-0.0322 -0.08261,-0.0618 -0.138672,-0.0664 z m -24.1875,0.0117 c -0.0715,-0.0105 -0.148659,0.0237 -0.191406,0.0664 -0.08549,0.0855 -0.109438,0.18611 -0.136719,0.32422 -0.02728,0.1381 -0.04576,0.31439 -0.05469,0.53125 -0.01631,0.39589 0.01423,0.70509 0.09961,0.91796 0.04269,0.10644 0.101064,0.20343 0.216797,0.2461 0.115733,0.0427 0.243361,-0.0129 0.326171,-0.0957 0.165619,-0.16562 0.231038,-0.41541 0.242188,-0.69141 0.01115,-0.276 -0.03874,-0.5833 -0.152344,-0.86719 -0.06141,-0.15345 -0.114966,-0.26305 -0.191406,-0.34375 -0.03822,-0.0403 -0.08671,-0.0774 -0.158203,-0.0879 z m 2.181641,0 c -0.0715,-0.0105 -0.14866,0.0237 -0.191407,0.0664 -0.08549,0.0855 -0.109438,0.18611 -0.136719,0.32422 -0.02728,0.1381 -0.04576,0.31439 -0.05469,0.53125 -0.01631,0.39589 0.01423,0.70509 0.09961,0.91796 0.04269,0.10644 0.101064,0.20343 0.216797,0.2461 0.115733,0.0427 0.243362,-0.0129 0.326172,-0.0957 0.165619,-0.16562 0.231038,-0.41541 0.242188,-0.69141 0.01115,-0.276 -0.03874,-0.5833 -0.152344,-0.86719 -0.06141,-0.15345 -0.114966,-0.26305 -0.191406,-0.34375 -0.03822,-0.0403 -0.08671,-0.0774 -0.158203,-0.0879 z m 28.724609,1.19922 c -0.0978,0 -0.136405,0.0352 -0.201172,0.0742 -0.06477,0.039 -0.139495,0.0914 -0.226563,0.1582 -0.174135,0.13358 -0.397976,0.32219 -0.65625,0.55469 -0.516546,0.465 -1.1749,1.10447 -1.855468,1.80664 -0.680589,0.70219 -1.259105,1.34037 -1.644532,1.80664 -0.192713,0.23313 -0.336862,0.42012 -0.425781,0.56055 -0.04446,0.0702 -0.07549,0.12523 -0.09375,0.1914 -0.0091,0.0331 -0.02148,0.0746 0.0059,0.13868 0.02734,0.0641 0.115223,0.10546 0.164062,0.10546 0.09768,0 0.136405,-0.0353 0.201172,-0.0742 0.06477,-0.0389 0.139491,-0.0915 0.226563,-0.1582 0.174142,-0.13339 0.397968,-0.32243 0.65625,-0.55469 0.516562,-0.46452 1.174875,-1.10249 1.855468,-1.80468 0.680614,-0.70222 1.259096,-1.33987 1.644532,-1.80664 0.192717,-0.23339 0.33687,-0.42189 0.425781,-0.5625 0.04445,-0.0703 0.07552,-0.12523 0.09375,-0.19141 0.0091,-0.0331 0.02142,-0.0746 -0.0059,-0.13867 -0.02728,-0.0641 -0.115161,-0.10547 -0.164062,-0.10547 z m -51.818359,0.97852 c -0.111109,-0.0186 -0.217113,-0.008 -0.314454,0.0352 -0.194621,0.0858 -0.304687,0.30009 -0.304687,0.55078 0,0.50187 0.390562,0.92383 0.878906,0.92383 0.218514,0 0.418072,-0.0374 0.576172,-0.10742 0.07905,-0.035 0.148944,-0.0784 0.205078,-0.13672 0.05613,-0.0583 0.09961,-0.13908 0.09961,-0.23047 0,-0.18278 -0.112746,-0.31186 -0.255859,-0.46289 -0.143113,-0.15103 -0.33375,-0.30504 -0.544922,-0.43555 -0.113452,-0.0701 -0.228735,-0.11811 -0.339843,-0.13671 z m 10.519531,1.20312 c -0.275173,0 -0.520843,0.147 -0.689453,0.36523 -0.16861,0.21824 -0.267579,0.50994 -0.267578,0.82813 0,0.22073 -0.151472,0.48184 -0.425782,0.70898 -0.274309,0.22715 -0.66289,0.41422 -1.08789,0.4961 -0.351941,0.0678 -0.612763,0.12267 -0.78711,0.16992 -0.08717,0.0236 -0.150679,0.0433 -0.207031,0.0723 -0.02818,0.0145 -0.05676,0.0278 -0.08984,0.0762 -0.01654,0.0242 -0.03385,0.062 -0.03125,0.10547 0.0026,0.0435 0.02333,0.0813 0.04297,0.10351 0.03928,0.0444 0.07149,0.0537 0.101562,0.0644 0.03007,0.0108 0.06006,0.0183 0.0957,0.0254 0.07129,0.0142 0.162588,0.026 0.277343,0.0371 0.229512,0.0222 0.554845,0.0412 0.984375,0.0625 0.556295,0.0276 1.061513,0.0188 1.435547,-0.0195 0.187017,-0.0192 0.340159,-0.0454 0.458985,-0.082 0.05941,-0.0183 0.110124,-0.0392 0.158203,-0.0723 0.04808,-0.0331 0.107422,-0.0944 0.107422,-0.1836 0,-0.0117 0.0099,-0.0836 0.03125,-0.17383 0.02132,-0.0902 0.05244,-0.20424 0.0918,-0.33398 0.0787,-0.25948 0.188518,-0.57966 0.308593,-0.89258 0.130519,-0.34013 0.157342,-0.65882 0.07617,-0.91406 -0.08117,-0.25524 -0.303216,-0.44336 -0.583984,-0.44336 z m 28.285156,1.45117 c -0.02928,0.002 -0.07239,0.0158 -0.105469,0.0488 -0.03319,0.0332 -0.04655,0.0762 -0.04883,0.10547 -0.0023,0.0292 0.0015,0.0495 0.0059,0.0664 0.0087,0.0338 0.02089,0.0572 0.03516,0.084 0.02853,0.0535 0.06983,0.11552 0.125,0.19336 0.110334,0.15567 0.279296,0.37321 0.505859,0.66211 0.277909,0.35436 0.560619,0.67585 0.796875,0.91211 0.118128,0.11813 0.222733,0.2142 0.314453,0.28515 0.04586,0.0355 0.08878,0.0649 0.13086,0.0879 0.04207,0.023 0.08152,0.0449 0.148437,0.0449 0.08748,0 0.164708,-0.01 0.236328,-0.0391 0.07162,-0.0293 0.140308,-0.0874 0.171875,-0.16406 0.06314,-0.1534 -0.0023,-0.29842 -0.09961,-0.44922 -0.194611,-0.3016 -0.601145,-0.68624 -1.212891,-1.16601 -0.288824,-0.2265 -0.506978,-0.39555 -0.662109,-0.50586 -0.07757,-0.0552 -0.138095,-0.0965 -0.191406,-0.125 -0.02666,-0.0143 -0.05012,-0.0264 -0.08398,-0.0352 -0.01693,-0.004 -0.03713,-0.008 -0.06641,-0.006 z m -34.960937,0.0937 c -0.276034,-0.0117 -0.583155,0.0387 -0.867188,0.15235 -0.153497,0.0614 -0.262912,0.11495 -0.34375,0.1914 -0.04042,0.0382 -0.07904,0.0868 -0.08984,0.15821 -0.0108,0.0714 0.02345,0.1504 0.06641,0.19335 0.08592,0.0859 0.187867,0.10966 0.326172,0.13672 0.138306,0.0271 0.314501,0.0438 0.53125,0.0527 0.395784,0.0163 0.705149,-0.0149 0.917969,-0.0996 0.10641,-0.0424 0.203263,-0.0991 0.246094,-0.21485 0.04283,-0.11576 -0.01297,-0.24343 -0.0957,-0.32617 -0.165471,-0.16555 -0.415373,-0.23247 -0.691406,-0.24414 z m 22.544921,3.63672 c -0.276033,-0.0117 -0.583154,0.0387 -0.867187,0.15234 -0.153497,0.0614 -0.262912,0.11496 -0.34375,0.19141 -0.04042,0.0382 -0.07904,0.0868 -0.08984,0.1582 -0.0108,0.0715 0.02345,0.1504 0.06641,0.19336 0.08591,0.0859 0.187866,0.10966 0.326172,0.13672 0.138306,0.0271 0.314501,0.0438 0.53125,0.0527 0.395786,0.0163 0.705149,-0.0149 0.917969,-0.0996 0.10641,-0.0424 0.203263,-0.0991 0.246094,-0.21485 0.04283,-0.11576 -0.01297,-0.24343 -0.0957,-0.32617 -0.165471,-0.16555 -0.415373,-0.23247 -0.691407,-0.24414 z m 13.81836,2.18164 c -0.276033,-0.0117 -0.583156,0.0387 -0.867188,0.15234 -0.153496,0.0614 -0.262912,0.11496 -0.34375,0.19141 -0.04042,0.0382 -0.07904,0.0868 -0.08984,0.1582 -0.01081,0.0715 0.02345,0.15041 0.06641,0.19336 0.08591,0.0859 0.187866,0.10966 0.326172,0.13672 0.138306,0.0271 0.314499,0.0438 0.53125,0.0527 0.395783,0.0163 0.705148,-0.0149 0.917968,-0.0996 0.106411,-0.0424 0.203263,-0.0991 0.246094,-0.21485 0.04283,-0.11576 -0.01297,-0.24343 -0.0957,-0.32617 -0.165472,-0.16555 -0.415373,-0.23247 -0.691406,-0.24414 z m 1.796875,8.16406 c -0.07131,-0.011 -0.150155,0.0232 -0.19336,0.0664 -0.08639,0.0864 -0.110016,0.18775 -0.136718,0.32617 -0.0267,0.13843 -0.04381,0.31464 -0.05273,0.53125 -0.0163,0.39576 0.01476,0.7055 0.09961,0.91797 0.04242,0.10624 0.09899,0.20169 0.214843,0.24414 0.115853,0.0424 0.243505,-0.013 0.326172,-0.0957 0.165304,-0.16533 0.232448,-0.41583 0.244141,-0.69141 0.01169,-0.27558 -0.0387,-0.58124 -0.152344,-0.86523 -0.06147,-0.15362 -0.114721,-0.26284 -0.191406,-0.34375 -0.03834,-0.0405 -0.0869,-0.0789 -0.158203,-0.0899 z m -28.835938,4.1211 c -0.308998,0.002 -0.55146,0.0133 -0.738281,0.0391 -0.186821,0.0257 -0.320347,0.0488 -0.423828,0.15625 -0.05174,0.0537 -0.08209,0.1455 -0.06836,0.2207 0.01373,0.0752 0.05339,0.1325 0.09961,0.18555 0.09244,0.1061 0.230073,0.20738 0.423828,0.33008 0.286138,0.18124 0.480756,0.48304 0.578125,0.91211 0.09737,0.42907 0.09108,0.98072 -0.0332,1.63086 -0.09192,0.48084 -0.157666,0.84574 -0.191406,1.10742 -0.01687,0.13084 -0.02497,0.23513 -0.02344,0.32226 0.0015,0.0871 -0.005,0.1639 0.07227,0.2461 0.03863,0.0411 0.110411,0.0651 0.164062,0.0606 0.05365,-0.005 0.09158,-0.0237 0.125,-0.0449 0.06685,-0.0425 0.123124,-0.10064 0.19336,-0.17968 0.140471,-0.15808 0.32211,-0.40049 0.560547,-0.72657 0.805161,-1.10113 1.151281,-2.13796 1.029296,-2.9375 -0.06099,-0.39977 -0.245792,-0.74052 -0.548828,-0.97265 -0.303035,-0.23214 -0.716637,-0.35306 -1.21875,-0.34961 z m -3.695312,0.71679 c -0.226204,0 -0.415412,0.049 -0.509766,0.21094 -0.04718,0.081 -0.0519,0.18279 -0.02344,0.26953 0.02847,0.0868 0.08345,0.16353 0.158203,0.23828 0.05958,0.0596 0.113647,0.28579 0.06836,0.59375 -0.04529,0.30797 -0.171202,0.68602 -0.363281,1.04493 -0.244105,0.45607 -0.361921,0.80137 -0.375,1.06445 -0.0065,0.13154 0.01234,0.24886 0.08008,0.34375 0.06774,0.0949 0.188171,0.14606 0.300781,0.14453 0.225222,-0.003 0.451893,-0.14412 0.712891,-0.38086 0.260998,-0.23674 0.547613,-0.58167 0.832031,-1.03711 0.445984,-0.71412 0.619559,-1.31439 0.464844,-1.7793 -0.07736,-0.23245 -0.244169,-0.42066 -0.474609,-0.53906 -0.230441,-0.11839 -0.521614,-0.17383 -0.871094,-0.17383 z m 33.257812,0.25391 c -0.0715,-0.0105 -0.148659,0.0237 -0.191406,0.0664 -0.08549,0.0855 -0.109439,0.18611 -0.136719,0.32422 -0.02728,0.1381 -0.04575,0.31439 -0.05469,0.53125 -0.01631,0.39589 0.01424,0.70509 0.09961,0.91796 0.04269,0.10644 0.101064,0.20343 0.216797,0.2461 0.115733,0.0427 0.24336,-0.0129 0.326172,-0.0957 0.165595,-0.16562 0.231033,-0.41541 0.242187,-0.69141 0.01116,-0.276 -0.03874,-0.58329 -0.152343,-0.86719 -0.06141,-0.15345 -0.114966,-0.26305 -0.191407,-0.34375 -0.03822,-0.0403 -0.0867,-0.0774 -0.158203,-0.0879 z m -9.242187,3.03711 c -0.34052,0.085 -0.656951,0.39777 -0.914063,0.80273 -0.257111,0.40497 -0.446196,0.91198 -0.455078,1.41797 -0.0021,0.12221 0.05236,0.25092 0.158203,0.31055 0.105843,0.0596 0.223804,0.0524 0.341797,0.0234 0.235986,-0.058 0.513499,-0.22225 0.822266,-0.47852 0.316895,-0.26297 0.551311,-0.5864 0.677734,-0.9082 0.126423,-0.3218 0.148889,-0.65345 -0.0098,-0.91016 -0.140386,-0.22713 -0.393682,-0.3146 -0.621093,-0.25781 z" />
      <path
         style="fill:#583058;stroke-width:0.727273"
         d="m 66.499701,855.09091 -2.136066,-2.36364 2.363636,2.13608 c 2.20324,1.99112 2.697928,2.5912 2.136066,2.5912 -0.125164,0 -1.1888,-1.06364 -2.363636,-2.36364 z m -12.880665,-4.43484 c 0.294962,-1.54298 0.03389,-1.86967 -1.726675,-2.16043 l -2.074181,-0.34255 2.1756,0.10531 c 2.265717,0.1096 3.391205,2.10204 1.982915,3.51033 -0.455372,0.45542 -0.582067,0.0611 -0.357659,-1.11266 z m 9.653689,0.25302 c 0,-0.4 0.346588,-0.72727 0.770195,-0.72727 0.423606,0 0.567928,0.32727 0.320715,0.72727 -0.247214,0.4 -0.593801,0.72728 -0.770195,0.72728 -0.176393,0 -0.320715,-0.32728 -0.320715,-0.72728 z m -7.215311,-1.15149 c 0.03489,-0.84727 0.20723,-1.01956 0.439395,-0.43942 0.210088,0.52502 0.18425,1.15229 -0.05742,1.39397 -0.241667,0.24167 -0.413557,-0.18793 -0.381978,-0.95455 z m 1.807525,0.21106 c 0.273113,-0.71724 0.679776,-1.12088 0.903694,-0.89702 0.223917,0.22393 4.61e-4,0.81076 -0.496571,1.30414 -0.718266,0.71288 -0.801803,0.62939 -0.407123,-0.40712 z m 19.057568,-10.09113 c 0.422618,-0.42269 1.197687,-0.62531 1.722371,-0.45047 0.544691,0.1816 0.215018,0.51127 -0.7684,0.76843 -1.209709,0.31637 -1.493658,0.22168 -0.953971,-0.31796 z m 0.1684,-3.01418 c 0,-0.12517 1.063636,-1.1888 2.363636,-2.36364 l 2.363636,-2.13607 -2.136065,2.36363 c -1.991113,2.20328 -2.591207,2.69797 -2.591207,2.13608 z M 34.90909,833.99273 c 0,-0.63731 -0.572727,-1.30844 -1.272727,-1.49142 -1.192792,-0.31171 -1.191359,-0.33789 0.02283,-0.41694 1.314891,-0.0856 2.533242,1.78378 1.703384,2.61367 -0.249419,0.24938 -0.453486,-0.068 -0.453487,-0.70531 z m 18.550602,-0.52982 c -0.254792,-0.41229 0.03714,-0.53425 0.684352,-0.28589 1.259939,0.48349 1.490463,1.0048 0.44433,1.0048 -0.376393,0 -0.8843,-0.32349 -1.128682,-0.71891 z M 56.896001,832 c 0,-1.4 0.149669,-1.97273 0.332598,-1.27273 0.182929,0.7 0.182929,1.84546 0,2.54546 -0.182929,0.7 -0.332598,0.12727 -0.332598,-1.27273 z m -6.850548,0.95775 c 0.525,-0.21011 1.152273,-0.18429 1.39394,0.0575 0.241666,0.24167 -0.18788,0.4136 -0.954546,0.38204 -0.847231,-0.0349 -1.019563,-0.20727 -0.439394,-0.43942 z m 38.681817,-7.86684 c 0.939455,-1 1.871731,-1.81818 2.071731,-1.81818 0.2,0 -0.405004,0.81818 -1.344458,1.81818 -0.939455,1 -1.871731,1.81818 -2.071731,1.81818 -0.2,0 0.405004,-0.81818 1.344458,-1.81818 z m -37.626362,-0.15825 c 1.105499,-0.16713 2.741863,-0.16269 3.636363,0.0102 0.8945,0.17258 -0.01,0.30938 -2.01,0.30393 -2,-0.007 -2.731864,-0.1467 -1.626363,-0.3139 z m 39.80818,0.24727 c 0,-0.15098 0.572728,-0.72371 1.272728,-1.27273 1.153498,-0.90458 1.179221,-0.87891 0.274589,0.27462 -0.950088,1.21142 -1.547317,1.59673 -1.547317,0.99811 z m -55.215309,-3.78596 c 0.03489,-0.84728 0.207229,-1.01957 0.439394,-0.43942 0.210088,0.52502 0.18425,1.15229 -0.05742,1.39396 -0.241667,0.24167 -0.413557,-0.18793 -0.381979,-0.95454 z m 39.653863,0.54545 c -0.206015,-0.33338 0.08755,-0.60611 0.652356,-0.60611 0.564807,0 0.858371,0.27273 0.652356,0.60611 -0.206007,0.33331 -0.499571,0.60604 -0.652356,0.60604 -0.152786,0 -0.446349,-0.27273 -0.652356,-0.60604 z m -2.788771,-10.42553 c 0.422618,-0.42269 1.197687,-0.62531 1.722371,-0.45047 0.54469,0.1816 0.215018,0.51127 -0.7684,0.76844 -1.209707,0.31636 -1.493657,0.22167 -0.953971,-0.31797 z m -5.058873,-2.55614 c 0.525,-0.21011 1.152273,-0.18429 1.39394,0.0575 0.241666,0.24167 -0.18788,0.4136 -0.954546,0.38204 -0.847231,-0.0349 -1.019563,-0.20727 -0.439394,-0.43942 z m -27.426987,-2.6272 c -0.919941,-1.53186 -0.904443,-1.54735 0.347877,-0.34786 0.720892,0.69048 1.154168,1.41193 0.962835,1.60328 -0.191332,0.19134 -0.781153,-0.3736 -1.310712,-1.25542 z m 3.426988,-1.00917 c 0.525,-0.21011 1.152272,-0.18429 1.393939,0.0575 0.241667,0.24167 -0.187879,0.4136 -0.954545,0.38203 -0.847231,-0.0349 -1.019564,-0.20727 -0.439394,-0.43941 z m 26.045454,-0.0833 c -0.197214,-0.31913 -0.05791,-1.05549 0.309578,-1.63637 0.521662,-0.82465 0.67059,-0.69745 0.679285,0.58015 0.01145,1.68218 -0.358051,2.07687 -0.988863,1.05622 z m -11.24138,-0.96531 c -0.06724,-0.64996 -0.312472,-2.13287 -0.544959,-3.29535 -0.365088,-1.82545 -0.192866,-2.13083 1.263558,-2.24051 0.942509,-0.0713 1.313232,0.1035 0.840518,0.39564 -0.465159,0.28749 -0.978744,1.82756 -1.141301,3.4224 -0.162558,1.59476 -0.350574,2.36786 -0.417816,1.71782 z m -4.42364,-2.09091 c 0.02199,-0.6 0.321248,-1.74545 0.66502,-2.54545 l 0.625039,-1.45455 0.03998,1.45455 c 0.02199,0.8 -0.277269,1.94545 -0.665019,2.54545 -0.626666,0.96967 -0.700557,0.96967 -0.66502,0 z m -7.33498,-1.01309 c 0,-0.15724 0.507907,-0.48073 1.128682,-0.71898 0.647219,-0.24837 0.939144,-0.1264 0.684352,0.28589 -0.427097,0.69105 -1.813034,1.02211 -1.813034,0.43309 z m 21.42464,-4.85346 c -0.26366,-0.42661 -0.323405,-0.93163 -0.132767,-1.12232 0.190639,-0.19062 0.540412,0.15847 0.777274,0.77571 0.49177,1.28152 0.07262,1.50691 -0.644507,0.34661 z m -4.790135,-7.04254 c -0.923284,-1.17731 -0.889055,-1.19273 0.456404,-0.20582 0.8,0.58684 1.590909,1.15956 1.757576,1.27273 0.166666,0.11323 -0.03871,0.20582 -0.456405,0.20582 -0.417688,0 -1.208597,-0.57273 -1.757575,-1.27273 z m -13.266425,-0.0276 c -0.194769,-0.31512 0.52228,-0.63912 1.593442,-0.72007 1.499066,-0.11324 1.696345,0.016 0.85666,0.56189 -1.333799,0.86676 -1.986148,0.90887 -2.450102,0.15818 z m 8.899362,-1.08072 c -0.489268,-2.26379 0.508924,-3.35208 1.795927,-1.95804 0.644028,0.6976 0.64072,0.80094 -0.01387,0.43338 -0.552166,-0.31004 -0.946581,0.23709 -1.102818,1.52967 l -0.243227,2.01237 -0.436009,-2.01738 z m 0.304204,-6.7099 c 0.0055,-2 0.146701,-2.73185 0.313867,-1.6264 0.167168,1.10553 0.1627,2.7419 -0.0099,3.63637 -0.172627,0.89454 -0.309399,-0.0102 -0.30394,-2.00997 z"
         id="path28" />
      <path
         id="path24"
         style="fill:#06057a;stroke-width:0.727273"
         d="m 58.716797,786.16016 a 0.38478544,0.38478544 0 0 0 -0.382813,0.3125 l -0.314453,1.63672 c -0.06814,0.35379 -0.140916,0.60542 -0.21875,0.7539 -0.07783,0.14849 -0.13445,0.19907 -0.271484,0.25 -0.274068,0.10186 -0.974449,0.0705 -2.246094,-0.13281 -1.331356,-0.21291 -2.053963,-0.35476 -2.642578,-0.0937 -0.294307,0.1305 -0.497994,0.41345 -0.580078,0.71094 -0.08208,0.29748 -0.09258,0.62586 -0.0957,1.03515 -0.0026,0.34753 -0.229922,1.22716 -0.613282,2.22657 -0.383359,0.9994 -0.914489,2.15354 -1.49414,3.20507 -0.830393,1.50636 -1.299472,2.4289 -1.462891,3.03516 -0.04085,0.15156 -0.06626,0.28659 -0.05469,0.43555 0.01158,0.14895 0.08945,0.34649 0.253906,0.45117 0.164456,0.10468 0.330565,0.0977 0.464844,0.0742 0.134279,-0.0235 0.259311,-0.0696 0.396484,-0.13086 0.407026,-0.18168 1.26751,-0.36461 2.324219,-0.48633 1.056709,-0.12172 2.323617,-0.1952 3.619141,-0.2168 2.591047,-0.0432 5.324252,0.13463 6.675781,0.50782 1.34309,0.37081 3.578875,1.63547 4.796875,2.72851 0.656301,0.58897 1.280577,1.04589 1.789062,1.32227 0.254243,0.13818 0.474441,0.23503 0.701172,0.27148 0.113366,0.0182 0.233627,0.0254 0.371094,-0.0234 0.137467,-0.0489 0.27814,-0.18492 0.330078,-0.33008 0.09571,-0.26744 0.07334,-0.51899 0.03516,-0.85937 -0.03819,-0.34038 -0.114801,-0.7504 -0.21875,-1.21094 -0.207896,-0.92108 -0.529248,-2.04719 -0.90039,-3.18554 -0.371143,-1.13835 -0.791367,-2.28719 -1.195313,-3.24415 -0.403946,-0.95695 -0.767337,-1.70565 -1.132812,-2.13476 -0.255244,-0.29969 -0.448067,-0.64599 -0.542969,-0.93555 -0.0949,-0.28955 -0.05685,-0.50339 -0.04687,-0.51953 0.08636,-0.13973 0.09687,-0.3546 0.03711,-0.49805 -0.05976,-0.14344 -0.150733,-0.23148 -0.248047,-0.30859 -0.194628,-0.15422 -0.440795,-0.26788 -0.751953,-0.38086 -0.622315,-0.22595 -1.49861,-0.42369 -2.515625,-0.55859 -1.523184,-0.20206 -2.409674,-0.39765 -2.841797,-0.64063 -0.216061,-0.12149 -0.321416,-0.23722 -0.40039,-0.39648 -0.07897,-0.15927 -0.125154,-0.38203 -0.144532,-0.69727 l -0.09961,-1.61133 a 0.38478544,0.38478544 0 0 0 -0.378906,-0.36132 z m 131.308593,1.10351 c -21.14196,-0.0205 -38.40658,3.60388 -58.7832,12.33594 -20.84815,8.93408 -33.062387,16.7092 -46.064456,29.33203 l -8.591796,8.3418 -2.917969,-0.53321 c -0.844693,-0.15447 -1.660269,-0.34102 -2.285157,-0.51562 -0.312443,-0.0873 -0.576648,-0.1718 -0.767578,-0.24414 -0.141676,-0.0537 -0.17758,-0.0779 -0.203125,-0.0879 0.0023,-0.0226 0.0011,-0.0292 0.0078,-0.0625 0.02896,-0.14336 0.101729,-0.36713 0.208984,-0.62696 0.214511,-0.51965 0.561654,-1.19118 0.947266,-1.84765 0.385611,-0.65647 0.81107,-1.3002 1.175781,-1.76563 0.182356,-0.23271 0.35067,-0.42246 0.478516,-0.53906 0.127845,-0.1166 0.240226,-0.11914 0.121093,-0.11914 -0.05486,0 0.0565,0.0131 0.185547,0.0664 0.129052,0.0533 0.300853,0.13581 0.494141,0.24023 0.386575,0.20885 0.862474,0.50216 1.322266,0.82422 l 1.714843,1.20312 a 0.38478544,0.38478544 0 0 0 0.603516,-0.3457 l -0.349609,-4.22461 c -0.170176,-2.05211 -0.225651,-3.06745 0.248046,-4.43359 0.473698,-1.36614 1.514644,-3.12428 3.570313,-6.50391 1.165075,-1.91541 2.181829,-3.69779 2.884766,-5.03515 0.351468,-0.66869 0.62379,-1.22356 0.800781,-1.63868 0.0885,-0.20755 0.15474,-0.37894 0.195312,-0.52734 0.02029,-0.0742 0.03477,-0.14153 0.03906,-0.22461 0.0043,-0.0831 0.02168,-0.21464 -0.128906,-0.36523 -0.135957,-0.13596 -0.347341,-0.19192 -0.513672,-0.17188 -0.166331,0.02 -0.301531,0.0877 -0.427735,0.17383 -0.252407,0.1723 -0.477583,0.43414 -0.675781,0.76563 -1.999877,3.34464 -3.863273,6.23449 -5.285156,8.24023 -0.710942,1.00287 -1.313541,1.78737 -1.755859,2.28516 -0.211146,0.23762 -0.381954,0.39837 -0.498047,0.49023 -0.0329,-0.0396 -0.02878,-0.0282 -0.07422,-0.10352 -0.09784,-0.16206 -0.216049,-0.39652 -0.345703,-0.68164 -0.259309,-0.57022 -0.562964,-1.3486 -0.873047,-2.23632 -0.620167,-1.77544 -1.271129,-3.99196 -1.69336,-5.90235 -0.168513,-0.76244 -0.168729,-1.22218 -0.113281,-1.36328 0.02773,-0.0706 0.03583,-0.0791 0.103516,-0.10937 0.06769,-0.0303 0.209007,-0.0586 0.419922,-0.0586 0.36644,0 0.659569,-0.0321 0.904297,-0.12695 0.122363,-0.0474 0.25705,-0.10019 0.355468,-0.28906 0.04921,-0.0944 0.06773,-0.23051 0.03906,-0.33985 -0.02867,-0.10934 -0.08784,-0.18549 -0.144531,-0.24218 -0.12853,-0.12853 -0.154217,-0.10278 -0.205078,-0.1211 -0.05086,-0.0183 -0.105628,-0.0353 -0.169922,-0.0527 -0.12859,-0.035 -0.296223,-0.0739 -0.503907,-0.11914 -0.415366,-0.0904 -0.987336,-0.20298 -1.669921,-0.33008 -1.365172,-0.25421 -3.169888,-0.56708 -5.009766,-0.8711 -1.839878,-0.30401 -3.71382,-0.59861 -5.216797,-0.81835 -0.751488,-0.10988 -1.410866,-0.20182 -1.927734,-0.26563 -0.412254,-0.0509 -0.653473,-0.0701 -0.876953,-0.082 -0.0024,-0.008 -0.0035,-0.005 -0.0059,-0.0137 -0.04159,-0.14439 -0.08928,-0.38835 -0.132812,-0.69141 -0.08707,-0.60613 -0.160786,-1.45965 -0.195313,-2.39844 L 58.3125,801.07812 a 0.38478544,0.38478544 0 0 0 -0.767578,-0.0215 l -0.279297,3.0918 c -0.08202,0.91062 -0.140604,1.57405 -0.289063,1.96289 -0.148458,0.38884 -0.303529,0.54194 -0.849609,0.64844 -1.092159,0.21298 -3.634813,-0.15857 -8.765625,-0.93946 -1.897454,-0.28878 -3.65946,-0.51396 -4.976562,-0.64453 -0.658551,-0.0653 -1.205458,-0.10713 -1.609375,-0.12109 -0.201959,-0.007 -0.367231,-0.007 -0.503907,0.002 -0.06834,0.005 -0.128458,0.0113 -0.193359,0.0254 -0.0649,0.0141 -0.137813,0.0109 -0.259766,0.13281 -0.09318,0.0932 -0.189479,0.24452 -0.173828,0.4336 0.01565,0.18908 0.142041,0.32646 0.25,0.39648 0.215918,0.14005 0.436126,0.16016 0.710938,0.16016 0.248845,0 0.281259,0.0248 0.34375,0.16406 0.06249,0.13931 0.09447,0.48932 -0.0078,1.03711 -0.204565,1.09558 -0.880826,2.936 -2.064453,5.63281 -1.24137,2.82834 -2.665282,7.32087 -3.191406,10.08203 l -0.939453,4.92774 A 0.38478544,0.38478544 0 0 0 35.25,828.48438 l 2.734375,-0.94336 c 3.438595,-1.18474 11.03547,-2.41502 14.980469,-2.42188 l 2.734375,-0.006 -0.294922,3.97461 c -0.0889,1.20109 -0.200863,2.32286 -0.308594,3.1543 -0.05387,0.41572 -0.107495,0.75904 -0.154297,0.99804 -0.01747,0.0892 -0.03263,0.14594 -0.04687,0.20118 -0.08894,0.007 -0.224749,0.009 -0.433593,-0.002 -0.449673,-0.0245 -1.17835,-0.10074 -2.292969,-0.24609 -2.22924,-0.2907 -6.009653,-0.8565 -12.31836,-1.82227 -1.766832,-0.27046 -3.408927,-0.45503 -4.642578,-0.53711 -0.616825,-0.041 -1.130154,-0.0576 -1.517578,-0.043 -0.193712,0.007 -0.354512,0.0224 -0.496094,0.0508 -0.141582,0.0283 -0.295079,0.0104 -0.449218,0.25976 -0.108166,0.17501 -0.111238,0.41609 -0.04102,0.58594 0.07022,0.16985 0.184712,0.29171 0.318359,0.40039 0.267295,0.21736 0.632088,0.38346 1.070313,0.49805 0.432796,0.11318 0.693382,0.24512 0.839844,0.41797 0.146461,0.17285 0.235967,0.43091 0.216797,0.9414 -0.03834,1.02098 -0.565519,2.90674 -1.625,6.15235 -1.813166,5.5545 -1.736695,10.06181 0.298828,13.86523 0.279071,0.52145 0.4725,0.92733 0.564453,1.20313 0.09195,0.27579 0.04835,0.37363 0.07227,0.33789 0.01196,-0.0179 0.03299,-0.0224 -0.0039,-0.0117 -0.0369,0.0106 -0.123787,0.0219 -0.251953,0.0156 -0.256332,-0.0126 -0.66549,-0.0902 -1.201172,-0.22461 l -2,-0.50195 a 0.38478544,0.38478544 0 0 0 -0.375,0.63672 l 1.716797,1.82617 c 2.52251,2.68596 6.641754,3.19018 11.755859,1.57813 1.834662,-0.57835 2.905985,-0.86042 3.806641,-0.89063 0.900656,-0.0302 1.677799,0.17851 2.990234,0.64844 0.785617,0.28133 1.470423,0.62011 1.919922,0.91797 0.22475,0.14893 0.391011,0.29052 0.470703,0.38476 0.07969,0.0942 0.02684,0.0887 0.0625,-0.0117 -0.07046,0.19846 -0.267477,0.28885 -0.476562,0.20313 -2.713541,-1.11265 -6.034705,-0.77937 -10.355469,0.94922 -2.683358,1.07353 -4.478726,1.63707 -5.908203,1.75586 -1.429477,0.11878 -2.509434,-0.18192 -3.886719,-0.90039 -0.545295,-0.28445 -0.985912,-0.469 -1.365234,-0.54688 -0.189661,-0.0389 -0.36614,-0.0539 -0.544922,-0.0176 -0.178782,0.0364 -0.364497,0.1433 -0.474609,0.30469 -0.220224,0.32278 -0.163548,0.68914 -0.04297,1.10156 0.120579,0.41242 0.341894,0.90585 0.664062,1.50782 0.294963,0.55114 0.787151,0.96622 1.423828,1.22265 0.636678,0.25643 1.41763,0.36694 2.353516,0.35742 1.871772,-0.019 4.37652,-0.52568 7.603516,-1.50586 2.076153,-0.63059 3.411518,-0.9667 4.455078,-1.0625 1.04356,-0.0958 1.801958,0.035 2.820312,0.3711 1.184014,0.39074 2.310619,1.03429 3.025391,1.63672 0.357386,0.30121 0.609864,0.59738 0.714844,0.80078 0.04555,0.0883 0.05352,0.14196 0.05664,0.17773 -0.0078,-6.7e-4 -0.0071,9.8e-4 -0.01563,0 -0.12382,-0.0142 -0.320919,-0.0589 -0.554687,-0.13086 -0.467537,-0.14383 -1.090209,-0.39545 -1.730469,-0.71484 -1.147783,-0.57258 -1.887938,-0.89712 -2.833984,-0.81836 -0.946046,0.0788 -2.012138,0.52014 -3.970703,1.34961 -2.883436,1.22106 -5.352282,1.70312 -8.742188,1.70312 -2.197073,0 -3.350828,6.3e-4 -4.037109,0.21875 -0.171571,0.0545 -0.326245,0.1263 -0.453125,0.25586 -0.12688,0.12957 -0.200214,0.32583 -0.199219,0.4961 0.002,0.34054 0.165694,0.58581 0.355469,0.89062 0.345763,0.55536 0.897327,0.9439 1.683593,1.16016 0.786267,0.21626 1.819196,0.29297 3.261719,0.29297 1.434989,0 2.37662,0.0732 2.892578,0.21875 0.257979,0.0728 0.398915,0.16126 0.462891,0.22851 0.06398,0.0673 0.08398,0.11569 0.08398,0.2461 0,0.13673 -0.105676,0.35472 -0.345703,0.55859 -0.240026,0.20387 -0.59381,0.38119 -0.978515,0.45508 -0.892406,0.17142 -5.525871,1.03174 -10.28125,1.91016 -9.292396,1.71644 -20.9085802,5.0703 -25.4570316,7.38671 l -2.72656252,1.38868 a 0.38478544,0.38478544 0 0 0 -0.2109375,0.34375 v 42.89453 42.89257 A 0.38478544,0.38478544 0 0 0 0,969.83789 h 272.72656 272.72852 a 0.38478544,0.38478544 0 0 0 0.38476,-0.38477 v -52.91796 -52.91797 a 0.38478544,0.38478544 0 0 0 -0.28906,-0.37305 l -22.36328,-5.70117 c -12.29515,-3.13382 -26.3007,-6.961 -31.07031,-8.48828 -23.57754,-7.54989 -37.5018,-10.87651 -55,-13.14063 -21.29126,-2.75483 -42.40895,-1.18926 -65.57813,4.85742 -18.13172,4.732 -54.73611,17.73173 -69.55859,24.70508 -6.23518,2.93347 -29.76688,11.68798 -38.22461,14.2168 -1.46875,0.43918 -2.88665,0.90006 -3.99024,1.28906 -0.55179,0.1945 -1.02456,0.37056 -1.39062,0.51953 -0.36606,0.14897 -0.59735,0.2437 -0.78516,0.38282 -0.009,0.007 -0.29554,0.153 -0.6875,0.30078 -0.39195,0.14777 -0.91911,0.3292 -1.54882,0.5332 -1.25944,0.40799 -2.92634,0.90699 -4.7461,1.42578 -3.63952,1.03759 -7.90153,2.15465 -10.79297,2.7832 -2.71541,0.59027 -4.54717,0.71954 -5.72461,0.38477 -1.17744,-0.33477 -1.77497,-1.06742 -2.18359,-2.49219 -0.27488,-0.95845 -0.58279,-1.6748 -0.98437,-2.16406 -0.40159,-0.48926 -0.97338,-0.73871 -1.54102,-0.60742 -0.56765,0.13128 -1.08847,0.55059 -1.64648,1.20117 -0.55802,0.65058 -1.15236,1.54923 -1.80469,2.70508 -0.61585,1.09125 -1.29685,2.08539 -1.88672,2.79297 -0.29494,0.35379 -0.56957,0.63674 -0.78711,0.81836 -0.21754,0.18161 -0.39949,0.22851 -0.35352,0.22851 -0.79779,0 -1.46875,0.6346 -1.46875,1.42578 0,0.29132 -0.11414,0.51484 -0.33593,0.71485 -0.22179,0.20001 -0.55844,0.358 -0.94727,0.43554 -0.77766,0.15509 -1.73611,-0.0215 -2.35547,-0.58203 -0.46925,-0.42465 -0.8866,-0.70121 -1.33398,-0.78515 -0.44738,-0.084 -0.89736,0.0888 -1.22656,0.41797 -0.16883,0.1688 -0.29602,0.20266 -0.67774,0.0625 -0.38172,-0.14017 -0.94405,-0.51122 -1.66211,-1.13282 l -2.09765,-1.81445 a 0.38478544,0.38478544 0 0 0 -0.54688,0.0449 l -1.63281,1.94727 -1.3418,1.59765 -1.0957,-1.28906 c -0.40773,-0.47928 -0.89244,-0.90693 -1.36328,-1.22461 -0.47084,-0.31768 -0.90204,-0.54492 -1.35157,-0.54492 -0.15497,0 -0.4811,-0.112 -0.85937,-0.35938 -0.37827,-0.24737 -0.81335,-0.61479 -1.25391,-1.06054 -0.88112,-0.8915 -1.78732,-2.09604 -2.39844,-3.28125 -0.24863,-0.48222 -0.55586,-0.91717 -0.86914,-1.2461 -0.31327,-0.32892 -0.59429,-0.59961 -1.03125,-0.59961 -0.17568,0 -0.28234,0.0538 -0.40429,0.11524 -0.12196,0.0615 -0.24856,0.14193 -0.39063,0.24023 -0.28412,0.19661 -0.62153,0.46653 -1,0.79102 -0.75693,0.64897 -1.674,1.5152 -2.56445,2.41211 -0.89045,0.89691 -1.75445,1.82384 -2.40625,2.59375 -0.3259,0.38495 -0.59845,0.72859 -0.79883,1.01953 -0.20037,0.29093 -0.35191,0.4697 -0.37305,0.79492 0.008,-0.12301 0.0555,-0.097 -0.0508,-0.0391 -0.10632,0.058 -0.30004,0.12908 -0.54101,0.1914 -0.48196,0.12466 -1.15411,0.22246 -1.82032,0.26954 -0.6662,0.0471 -1.3329,0.0447 -1.80468,-0.0117 -0.20728,-0.0248 -0.35341,-0.063 -0.45313,-0.0977 0.001,-0.002 6.3e-4,3.1e-4 0.002,-0.002 0.0596,-0.10189 0.15716,-0.23987 0.28125,-0.39453 0.24816,-0.30934 0.60167,-0.6853 0.98828,-1.03516 0.56678,-0.51246 0.93844,-0.88581 1.14648,-1.21094 0.10402,-0.16256 0.22351,-0.33351 0.13086,-0.61132 -0.0463,-0.13891 -0.17125,-0.2552 -0.28125,-0.30274 -0.10999,-0.0475 -0.20631,-0.0549 -0.30078,-0.0547 -0.3779,9.7e-4 -0.82408,0.14597 -1.50781,0.4043 -0.68374,0.25833 -1.57345,0.64109 -2.68164,1.14844 l -3.91797,1.79297 -7.71289,-1.08204 c -11.14791,-1.56489 -18.90164,-3.54644 -28.16211,-7.19531 -11.83405,-4.66301 -16.58651,-5.97538 -29.0293,-8.01367 -12.17772,-1.99494 -22.475539,-3.08323 -35.808593,-3.7832 -4.184303,-0.21964 -6.353739,-0.35391 -7.310547,-0.58985 -0.239202,-0.059 -0.397405,-0.12446 -0.484375,-0.17773 -0.08697,-0.0533 -0.09982,-0.0805 -0.111328,-0.10938 -0.02301,-0.0578 -0.0068,-0.27248 0.101562,-0.64257 0.955095,-3.26186 1.333487,-5.51143 0.892579,-7.58789 -0.440909,-2.07647 -1.689587,-3.90875 -3.857422,-6.34961 -1.551986,-1.74742 -2.529334,-3.0165 -2.931641,-3.7793 -0.196234,-0.37207 -0.213758,-0.60412 -0.210937,-0.63086 0.019,-0.008 0.06947,-0.0273 0.177734,-0.0273 0.04262,0 0.253913,0.0448 0.517578,0.15625 0.263665,0.11142 0.59362,0.27997 0.964844,0.49023 0.742447,0.42052 1.648845,1.00993 2.564453,1.66016 1.831216,1.30046 3.721346,2.87889 4.433594,3.78515 0.677066,0.86075 1.092905,1.36487 1.595703,1.58399 0.251399,0.10956 0.568617,0.1018 0.800781,-0.0312 0.232164,-0.13305 0.387699,-0.33281 0.542969,-0.57422 1.644671,-2.55714 2.135546,-6.47687 1.480468,-11.08203 -0.351291,-2.46955 -0.362086,-4.27235 -0.07227,-5.38672 0.14491,-0.55719 0.357639,-0.93192 0.613281,-1.16406 0.255642,-0.23215 0.559736,-0.34571 0.986328,-0.34571 0.442658,0 0.858164,-0.13257 1.06836,-0.48242 0.210195,-0.34985 0.154734,-0.7674 -0.01172,-1.20117 -0.01145,-0.0298 -0.01761,-0.22943 0.15625,-0.58203 0.173858,-0.35261 0.496497,-0.83285 0.970703,-1.42969 0.948412,-1.19368 2.505119,-2.85638 4.724609,-5.05273 11.144142,-11.028 21.660977,-18.31506 36.789057,-25.48633 26.53766,-12.5798 45.92199,-17.12021 70.3711,-16.49024 7.09061,0.18272 11.43203,0.46795 14.83203,1.26953 3.39999,0.80159 5.88089,2.11343 9.31445,4.40626 8.36948,5.58891 12.02637,14.04166 11.23828,26.09374 -0.5377,8.22299 -3.90525,21.62587 -7.5,29.81836 -1.38656,3.16001 -2.11283,4.75222 -2.74414,5.49805 -0.31565,0.37292 -0.58494,0.54181 -0.96094,0.6582 -0.37599,0.1164 -0.87218,0.16413 -1.55859,0.2168 -3.65428,0.28046 -6.55532,1.79935 -9.00195,4.70703 -0.86147,1.02372 -1.42633,1.91282 -1.70899,2.68164 -0.28265,0.76883 -0.28072,1.47788 0.12695,1.97266 0.40768,0.49478 1.10409,0.67363 1.97657,0.64258 0.87248,-0.0311 1.96394,-0.27351 3.28125,-0.73828 0.89959,-0.31739 1.60956,-0.53197 2.14453,-0.62696 0.53496,-0.095 0.87575,-0.0625 1.06836,0.0312 0.19261,0.0938 0.31383,0.24831 0.4082,0.61914 0.0944,0.37084 0.127,0.93093 0.10938,1.66993 -0.0515,2.1591 -0.46221,3.93799 -1.13868,5.21093 -0.67646,1.27294 -1.59238,2.03488 -2.7207,2.26563 -1.33819,0.27372 -3.26972,1.08779 -4.44336,1.87304 l -2.01758,1.35157 a 0.38478544,0.38478544 0 0 0 0.16211,0.70117 l 3.10742,0.43164 c 2.22116,0.30931 3.68235,1.10089 5.78321,3.15234 l 2.89258,2.82227 a 0.38478544,0.38478544 0 0 0 0.65429,-0.27539 v -3.28125 c 0,-0.93423 -0.11429,-1.92982 -0.30078,-2.79883 -0.18648,-0.86901 -0.42463,-1.59865 -0.76953,-2.07031 -0.20689,-0.28294 -0.32252,-0.49946 -0.36523,-0.71485 -0.0427,-0.21538 -0.0243,-0.45583 0.10937,-0.82617 0.26736,-0.74068 1.01608,-1.92965 2.41211,-3.96875 1.90765,-2.78641 3.08611,-5.04259 3.56641,-6.98828 0.4803,-1.94569 0.23381,-3.60038 -0.70117,-5.02734 -0.29832,-0.45529 -0.50371,-0.7898 -0.60938,-1.09571 -0.10567,-0.30591 -0.13153,-0.59228 -0.0527,-1.03125 0.15758,-0.87792 0.78782,-2.31752 2.04882,-5.07617 5.29226,-11.57752 8.91544,-27.81807 8.26758,-37.25976 -0.7351,-10.71289 -5.69346,-18.8151 -14.37695,-23.44336 -6.59029,-3.51261 -12.18493,-4.5286 -24.86133,-4.54102 z M 58.125,825.4082 l 3.992188,0.82032 c 2.381183,0.48853 5.607708,1.41929 7.072265,2.03125 l 2.355469,0.98437 -0.994141,1.68359 c -1.471628,2.49127 -2.234667,3.68051 -3.191406,4.14258 -0.956739,0.46207 -2.322438,0.30397 -5.119141,-0.125 -1.422294,-0.21815 -2.501047,-0.41326 -3.27539,-0.66406 -0.774344,-0.2508 -1.221459,-0.5416 -1.486328,-0.93945 -0.264869,-0.39785 -0.379444,-0.95965 -0.34375,-1.82618 0.03569,-0.86652 0.223331,-2.01507 0.503906,-3.51367 z m -3.964844,22.84961 v 1.44922 c 0,0.55492 -0.05581,0.95115 -0.222656,1.27149 -0.166848,0.32033 -0.45454,0.60285 -1.023438,0.9082 -1.137795,0.6107 -3.349691,1.23048 -7.316406,2.19922 -2.41391,0.58954 -4.363006,1.00598 -5.865234,1.24609 -1.502228,0.24011 -2.568098,0.29519 -3.144531,0.19727 -0.288217,-0.049 -0.432774,-0.13862 -0.472657,-0.1836 -0.03988,-0.045 -0.05582,-0.0623 -0.01172,-0.2207 0.0882,-0.31672 0.569242,-0.98367 1.4375,-1.81836 2.439557,-2.34525 6.817218,-4.02795 12.134765,-4.58203 z m 3.355469,0.85352 c 0.17794,0.0423 0.727172,0.80671 0.847656,0.40429 -0.170649,0.51253 -0.713946,0.83105 -1.203125,0.87305 -0.244589,0.021 -0.459008,-0.0311 -0.583984,-0.11523 -0.124976,-0.0842 -0.191406,-0.1771 -0.191406,-0.40235 0,-0.21901 0.08456,-0.37789 0.269531,-0.51757 0.184972,-0.13969 0.482121,-0.24219 0.861328,-0.24219 z m 142.896485,5.2832 c -1.45927,0.62749 -0.68386,0.28132 -1.55469,0.85352 -0.80803,0.56001 -1.86898,1.36417 -3.00195,2.28711 -1.93834,1.57893 -3.14688,2.71897 -3.76172,3.68554 -0.30742,0.48329 -0.47191,0.93859 -0.45117,1.38672 0.0207,0.44814 0.24033,0.84971 0.57031,1.17969 0.5136,0.5136 1.2813,0.55453 2.02734,0.36719 0.74605,-0.18735 1.52616,-0.60168 2.23438,-1.13086 0.70821,-0.52918 1.3413,-1.17153 1.75977,-1.84961 0.41846,-0.67808 0.64301,-1.42621 0.38085,-2.10938 -0.0429,-0.11194 -0.0315,-0.10328 -0.0449,-0.17968 0.12984,-0.005 0.25446,-0.0361 0.34961,-0.0879 0.17492,-0.0952 0.32062,-0.22922 0.46875,-0.39063 0.29626,-0.32282 0.59075,-0.76437 0.85156,-1.23633 0.26082,-0.47196 0.48381,-0.96938 0.61329,-1.41211 0.0647,-0.22136 0.10698,-0.42787 0.11132,-0.6289 0.004,-0.20104 -0.0221,-0.42635 -0.20507,-0.60938 -0.12732,-0.12729 -0.26755,-0.13033 -0.34766,-0.125 z m 41.00195,14.28711 c -0.15919,0.0539 -0.26516,0.16794 -0.33398,0.2793 -0.27673,0.44774 -0.45138,1.17422 -0.63672,2.12304 -0.18534,0.94883 -0.34726,2.08952 -0.4668,3.21875 -0.11953,1.12924 -0.19657,2.24665 -0.20703,3.15039 -0.005,0.45188 0.007,0.84986 0.0391,1.17774 0.0325,0.32788 0.0587,0.57179 0.20508,0.80859 0.27495,0.44488 0.75874,0.66065 1.21875,0.63282 0.46001,-0.0278 0.90526,-0.24323 1.3086,-0.5586 0.80667,-0.63073 1.48046,-1.69211 1.48046,-2.85351 0,-1.63062 -0.40622,-3.76965 -0.89453,-5.41211 -0.24415,-0.82123 -0.50383,-1.51024 -0.77343,-1.97461 -0.13481,-0.23219 -0.25178,-0.42041 -0.48633,-0.54688 -0.11728,-0.0632 -0.29394,-0.0988 -0.45313,-0.0449 z m -198.548826,2.24805 c 0.577371,0 1.104012,0.081 1.453125,0.19531 0.168086,0.055 0.287135,0.11828 0.34961,0.16406 -0.04354,0.0385 -0.123432,0.0913 -0.244141,0.14063 -0.258646,0.1058 -0.662118,0.18554 -1.107422,0.18554 -0.445303,0 -0.90601,-0.076 -1.265625,-0.19335 -0.308227,-0.10064 -0.46678,-0.2322 -0.541015,-0.30079 0.0177,-0.01 0.0043,-0.005 0.0293,-0.0156 0.227765,-0.0937 0.707251,-0.17578 1.326172,-0.17578 z m 182.302736,3.82617 c -0.0939,-0.3412 -2.53923,2.53444 -0.76367,0.67187 -0.43041,0.66599 -0.76944,1.54594 -0.77735,2.20508 -0.008,0.66719 0.43786,1.29688 1.09961,1.29688 0.24428,0 0.44289,-0.13862 0.57422,-0.29297 0.13133,-0.15435 0.22327,-0.33806 0.29883,-0.54883 0.15112,-0.42155 0.23172,-0.95672 0.22851,-1.54492 -0.002,-0.39591 -0.014,-0.70991 -0.041,-0.95899 -0.027,-0.24907 -0.0328,-0.4285 -0.19531,-0.63476 -0.0815,-0.10345 -0.26196,-0.20405 -0.42383,-0.19336 z" />
    </g>
    <path
       style="fill:#fc881c;fill-opacity:1;stroke-width:0.0681307"
       d="m 57.825527,509.1098 c -0.110957,-0.0706 -0.135825,-0.79899 -0.03157,-0.92462 0.04604,-0.0555 0.234464,-0.13703 0.418722,-0.18123 0.302907,-0.0727 0.353768,-0.067 0.53069,0.059 0.331203,0.23583 0.349088,0.28748 0.21068,0.60838 -0.09221,0.21379 -0.190026,0.31907 -0.363971,0.39175 -0.254452,0.10632 -0.634405,0.12955 -0.764555,0.0468 z"
       id="path46" />
    <path
       style="fill:#fc881c;fill-opacity:1;stroke-width:0.0120439"
       d="m 57.702769,508.51372 c -0.0048,-0.0331 -0.02014,-0.10617 -0.03415,-0.16232 l -0.02547,-0.1021 0.05265,-0.0462 c 0.177119,-0.15551 0.472903,-0.26012 0.793372,-0.2806 l 0.12648,-0.008 0.0602,0.0458 c 0.07726,0.0588 0.235406,0.20166 0.229644,0.20742 -0.0024,0.002 -0.05238,-0.0312 -0.111016,-0.0748 -0.139279,-0.10345 -0.197895,-0.13122 -0.289332,-0.1371 -0.137109,-0.009 -0.463712,0.077 -0.624213,0.16401 -0.117962,0.064 -0.124708,0.0798 -0.160126,0.37587 l -0.0094,0.0783 z"
       id="path53" />
    <path
       style="fill:#fc881c;fill-opacity:1;stroke-width:0.0120439"
       d="m 58.035539,509.18013 c -0.0675,-0.005 -0.149362,-0.022 -0.210769,-0.0426 -0.09383,-0.0315 -0.100356,-0.0358 -0.09965,-0.0668 4.14e-4,-0.0182 0.0023,-0.0778 0.0041,-0.13248 l 0.0033,-0.0994 0.01558,0.0843 c 0.0238,0.12877 0.04831,0.17927 0.09869,0.20329 0.155179,0.074 0.551577,0.0347 0.783999,-0.0777 0.14202,-0.0687 0.215466,-0.14694 0.298075,-0.31756 0.08531,-0.1762 0.106044,-0.23925 0.107168,-0.32591 7.23e-4,-0.0558 -0.0055,-0.0826 -0.02707,-0.11743 -0.01541,-0.0248 -0.02462,-0.0452 -0.02048,-0.0452 0.0041,0 0.03869,0.0259 0.07677,0.0576 l 0.06923,0.0576 -0.0732,0.15224 c -0.04026,0.0837 -0.100106,0.22554 -0.132993,0.31512 l -0.05979,0.16287 -0.114417,0.054 c -0.234547,0.11075 -0.477637,0.1574 -0.718582,0.13791 z"
       id="path55" />
    <path
       style="fill:#fc881c;fill-opacity:1;stroke-width:0.00390625"
       d="m 58.966133,508.24041 c -0.01412,-0.0156 -0.04156,-0.0415 -0.06098,-0.0575 -0.03599,-0.0297 -0.04313,-0.0386 -0.01914,-0.0237 0.01803,0.0111 0.02589,0.0107 0.01507,-7.8e-4 -0.0047,-0.005 -0.0085,-0.0104 -0.0085,-0.0121 0,-0.003 0.04527,0.0372 0.09152,0.081 0.01435,0.0136 0.01739,0.0181 0.01102,0.0163 -0.0098,-0.003 -0.01122,0.002 -0.0046,0.0143 0.0085,0.0158 6.8e-4,0.0103 -0.02443,-0.0175 z"
       id="path57" />
    <path
       style="fill:#fc881c;fill-opacity:1;stroke-width:0.00390625"
       d=""
       id="path59" />
    <path
       style="fill:#fc881c;fill-opacity:1;stroke-width:0.00390625"
       d=""
       id="path61" />
    <path
       style="fill:#fc881c;fill-opacity:1;stroke-width:0.00390625"
       d=""
       id="path63" />
    <path
       style="fill:#fc881c;fill-opacity:1;stroke-width:0.00390625"
       d="m 57.724621,508.70941 c 0,-0.009 -0.0026,-0.0387 -0.0057,-0.0658 -0.0075,-0.0638 -0.0075,-0.0627 7e-4,-0.12656 l 0.007,-0.0547 2.22e-4,0.13182 c 1.23e-4,0.0725 -3.17e-4,0.13181 -9.76e-4,0.13181 -6.6e-4,0 -0.0012,-0.007 -0.0012,-0.0166 z"
       id="path65" />
    <path
       style="fill:#fc881c;fill-opacity:1;stroke-width:0.00390625"
       d="m 58.035168,509.15532 c -0.06561,-0.003 -0.112877,-0.01 -0.154638,-0.0235 -0.06647,-0.0218 -0.08521,-0.0455 -0.109243,-0.13826 -0.05786,-0.22321 -0.05447,-0.642 0.0063,-0.77504 0.01229,-0.0269 0.03115,-0.0471 0.06425,-0.0687 0.09935,-0.0649 0.279424,-0.1273 0.496811,-0.1721 0.09122,-0.0188 0.172277,-0.0226 0.220963,-0.0102 0.05883,0.0149 0.119112,0.0498 0.23786,0.13761 0.157637,0.11664 0.216456,0.18165 0.232051,0.25648 0.01092,0.0524 -0.0033,0.12452 -0.04574,0.23146 -0.06766,0.17063 -0.118665,0.25799 -0.196543,0.33664 -0.06904,0.0697 -0.145102,0.11513 -0.256853,0.1533 -0.157184,0.0537 -0.329372,0.0788 -0.495194,0.0723 z"
       id="path67" />
    <path
       style="fill:#fc881c;fill-opacity:1;stroke-width:0.00390625"
       d="m 58.031262,509.15527 c -0.10913,-0.005 -0.186316,-0.0264 -0.216651,-0.0609 -0.09153,-0.10398 -0.116791,-0.7012 -0.03705,-0.87584 0.01721,-0.0377 0.05135,-0.0661 0.121966,-0.10151 0.109678,-0.055 0.257281,-0.10183 0.439094,-0.1393 0.09175,-0.0189 0.17223,-0.0226 0.221604,-0.0101 0.06105,0.0154 0.119356,0.0495 0.245233,0.14335 0.227916,0.16988 0.261751,0.23987 0.202146,0.41812 -0.01837,0.0549 -0.06008,0.15414 -0.09018,0.21447 -0.07294,0.14622 -0.166189,0.24171 -0.295683,0.30279 -0.129916,0.0613 -0.317165,0.10285 -0.496732,0.11028 -0.01719,7.1e-4 -0.05937,7e-5 -0.09375,-0.001 z"
       id="path69" />
    <path
       style="fill:#fc881c;fill-opacity:1;stroke-width:0.00390625"
       d=""
       id="path71" />
    <path
       style="fill:#fc881c;fill-opacity:1;stroke-width:0.00390625"
       d="m 58.043346,509.17899 c -0.103268,-0.009 -0.255787,-0.0474 -0.30017,-0.0763 l -0.01465,-0.01 v -0.0403 c 0,-0.0222 0.0012,-0.0753 0.0027,-0.11811 l 0.0027,-0.0778 0.0053,0.0293 c 0.02688,0.14923 0.04991,0.20669 0.09409,0.23472 0.05345,0.0339 0.178194,0.051 0.311991,0.0427 0.233301,-0.0144 0.441548,-0.0738 0.575341,-0.16411 0.100573,-0.0679 0.160673,-0.15315 0.252729,-0.35865 0.05109,-0.11404 0.06625,-0.1761 0.06297,-0.25778 -0.002,-0.0501 -0.0056,-0.0622 -0.03161,-0.10744 -0.0084,-0.0146 -0.01463,-0.0272 -0.01382,-0.028 0.0022,-0.002 0.0992,0.0736 0.137692,0.10769 0.0019,0.002 -0.01502,0.0415 -0.03855,0.0902 -0.07479,0.15505 -0.123931,0.27135 -0.185856,0.43991 -0.01949,0.053 -0.03752,0.0984 -0.04007,0.10084 -0.0063,0.006 -0.150971,0.0728 -0.202198,0.0934 -0.111686,0.0449 -0.231912,0.0761 -0.355168,0.0919 -0.07021,0.009 -0.199913,0.0127 -0.263307,0.007 z"
       id="path73" />
    <path
       style="fill:#fc881c;fill-opacity:1;stroke-width:0.00390625"
       d="m 58.02345,509.18661 c -0.100979,-0.0104 -0.200532,-0.036 -0.276368,-0.071 -0.02293,-0.0106 -0.03407,-0.0178 -0.03384,-0.022 1.85e-4,-0.003 0.0026,-0.0221 0.0054,-0.0414 l 0.005,-0.0352 4.91e-4,0.0378 c 5.4e-4,0.0417 0.002,0.0448 0.02726,0.0576 0.02385,0.0121 0.10613,0.0382 0.155148,0.0491 0.128245,0.0288 0.277078,0.0321 0.431771,0.01 0.143925,-0.0209 0.283723,-0.0642 0.427953,-0.13269 0.02733,-0.013 0.05133,-0.0231 0.05332,-0.0224 0.0048,0.002 -0.08788,0.0456 -0.140851,0.0669 -0.132602,0.0532 -0.282321,0.0904 -0.418395,0.10384 -0.04681,0.005 -0.191146,0.004 -0.23689,-2.7e-4 z"
       id="path75" />
    <path
       style="fill:#fc881c;fill-opacity:1;stroke-width:0.015625"
       d="m 54.646621,465.49021 c -0.15039,-0.0169 -0.275655,-0.0329 -0.278366,-0.0354 -0.0041,-0.004 0.08579,-0.19321 0.09869,-0.20784 0.0078,-0.009 0.219293,0.0446 0.359494,0.091 0.140096,0.0463 0.140879,0.0469 0.166033,0.11683 l 0.02527,0.0703 -0.04885,-0.002 c -0.02687,-10e-4 -0.171892,-0.0159 -0.322283,-0.0328 z"
       id="path77" />
  </g>
</svg>
