<?xml version="1.0" encoding="UTF-8" standalone="no"?>
<svg
   xmlns:dc="http://purl.org/dc/elements/1.1/"
   xmlns:cc="http://creativecommons.org/ns#"
   xmlns:rdf="http://www.w3.org/1999/02/22-rdf-syntax-ns#"
   xmlns:svg="http://www.w3.org/2000/svg"
   xmlns="http://www.w3.org/2000/svg"
   xmlns:sodipodi="http://sodipodi.sourceforge.net/DTD/sodipodi-0.dtd"
   xmlns:inkscape="http://www.inkscape.org/namespaces/inkscape"
   width="633.3634mm"
   height="182.92326mm"
   viewBox="0 0 633.36341 182.92327"
   version="1.1"
   id="svg8"
   inkscape:version="1.0.1 (3bc2e813f5, 2020-09-07)"
   sodipodi:docname="bar-icone.svg">
  <defs
     id="defs2" />
  <sodipodi:namedview
     id="base"
     pagecolor="#000000"
     bordercolor="#666666"
     borderopacity="1.0"
     inkscape:pageopacity="0"
     inkscape:pageshadow="2"
     inkscape:zoom="0.175"
     inkscape:cx="1247.3121"
     inkscape:cy="495.24731"
     inkscape:document-units="mm"
     inkscape:current-layer="layer1"
     inkscape:document-rotation="0"
     showgrid="false"
     inkscape:window-width="1425"
     inkscape:window-height="1080"
     inkscape:window-x="2433"
     inkscape:window-y="216"
     inkscape:window-maximized="0" />
  <metadata
     id="metadata5">
    <rdf:RDF>
      <cc:Work
         rdf:about="">
        <dc:format>image/svg+xml</dc:format>
        <dc:type
           rdf:resource="http://purl.org/dc/dcmitype/StillImage" />
        <dc:title></dc:title>
      </cc:Work>
    </rdf:RDF>
  </metadata>
  <g
     inkscape:label="Calque 1"
     inkscape:groupmode="layer"
     id="layer1"
     transform="translate(236.01164,-60.415323)">
    <g
       id="g134"
       transform="translate(4.5357145,102.80952)"
       inkscape:export-xdpi="96"
       inkscape:export-ydpi="96">
      <path
         style="fill:#e4e5e5;stroke-width:0.264583"
         d="m 142.63402,140.45257 c 3.32053,-0.042 8.67834,-0.042 11.90625,1e-4 3.2279,0.0421 0.5111,0.0764 -6.03734,0.0764 -6.54844,-8e-5 -9.18945,-0.0345 -5.86891,-0.0765 z m -19.33265,-0.26258 c 0.98226,-0.0509 2.58961,-0.0509 3.57187,0 0.98227,0.0509 0.1786,0.0926 -1.78593,0.0926 -1.96453,0 -2.76821,-0.0416 -1.78594,-0.0926 z m 46.96354,-2.3e-4 c 1.05503,-0.0502 2.78143,-0.0502 3.83646,0 1.05503,0.0502 0.19182,0.0913 -1.91823,0.0913 -2.11005,0 -2.97325,-0.0411 -1.91823,-0.0913 z m -56.74513,-0.26295 c 0.69561,-0.0547 1.76717,-0.054 2.38125,0.003 0.61407,0.0555 0.0449,0.10022 -1.26477,0.0994 -1.30968,0 -1.8121,-0.0462 -1.11648,-0.10088 z m 68.25451,0 c 0.69122,-0.0545 1.82232,-0.0545 2.51354,0 0.69122,0.0545 0.12568,0.0991 -1.25677,0.0991 -1.38245,0 -1.948,-0.0446 -1.25677,-0.0991 z m -75.67084,-0.26286 c 0.54571,-0.0571 1.43867,-0.0571 1.98438,0 0.5457,0.0571 0.0992,0.10379 -0.99219,0.10379 -1.09141,0 -1.53789,-0.0467 -0.99219,-0.10379 z m 83.87292,0 c 0.5457,-0.0571 1.43867,-0.0571 1.98438,0 0.5457,0.0571 0.0992,0.10379 -0.99219,0.10379 -1.09141,0 -1.53789,-0.0467 -0.99219,-0.10379 z m -89.82131,-0.26358 c 0.47556,-0.0589 1.18994,-0.0577 1.5875,0.003 0.39759,0.0603 0.008,0.10853 -0.86463,0.10705 -0.87312,-0.003 -1.198403,-0.0509 -0.72287,-0.10975 z m 96.56819,0 c 0.47294,-0.0587 1.24685,-0.0587 1.71979,0 0.47294,0.0587 0.086,0.10671 -0.8599,0.10671 -0.94588,0 -1.33284,-0.048 -0.85989,-0.10671 z M 94.729993,139.13732 c 0.402193,-0.0608 0.997506,-0.0592 1.322917,0.004 0.325437,0.0628 -0.0037,0.11255 -0.731229,0.11057 -0.727604,-0.003 -0.993855,-0.0534 -0.591688,-0.1142 z m 107.549507,-0.003 c 0.47294,-0.0587 1.24685,-0.0587 1.71979,0 0.47294,0.0587 0.086,0.1067 -0.8599,0.1067 -0.94588,0 -1.33284,-0.048 -0.85989,-0.1067 z M 89.967493,138.87163 c 0.402193,-0.0608 0.997505,-0.0592 1.322917,0.004 0.325437,0.0628 -0.0037,0.11256 -0.731229,0.11057 -0.727605,-0.003 -0.993855,-0.0534 -0.591688,-0.11419 z m 117.735967,0 c 0.40018,-0.0606 1.05502,-0.0606 1.4552,0 0.40019,0.0606 0.0728,0.11022 -0.7276,0.11022 -0.80036,0 -1.12779,-0.0496 -0.7276,-0.11022 z M 85.862826,138.60985 c 0.327422,-0.0631 0.863203,-0.0631 1.190625,0 0.327422,0.0631 0.05953,0.11464 -0.595312,0.11464 -0.654844,0 -0.922735,-0.0516 -0.595313,-0.11464 z m 126.606754,-0.003 c 0.40219,-0.0608 0.99751,-0.0592 1.32292,0.004 0.32543,0.0628 -0.004,0.11255 -0.73123,0.11057 -0.72761,-0.003 -0.99386,-0.0534 -0.59169,-0.1142 z M 81.629493,138.34524 c 0.327422,-0.0631 0.863203,-0.0631 1.190625,0 0.327422,0.0631 0.05953,0.11464 -0.595313,0.11464 -0.654844,0 -0.922734,-0.0516 -0.595312,-0.11464 z m 135.202087,0 c 0.32742,-0.0631 0.8632,-0.0631 1.19063,0 0.32742,0.0631 0.0595,0.11464 -0.59532,0.11464 -0.65484,0 -0.92273,-0.0516 -0.59531,-0.11464 z M 78.193005,138.08023 c 0.329115,-0.0633 0.805365,-0.0609 1.058333,0.005 0.252942,0.0662 -0.0164,0.11801 -0.598408,0.11507 -0.582083,-0.003 -0.789067,-0.0571 -0.459925,-0.12041 z m 142.875005,0 c 0.32912,-0.0633 0.80537,-0.0609 1.05833,0.005 0.25295,0.0662 -0.0164,0.11801 -0.5984,0.11507 -0.58209,-0.003 -0.78907,-0.0571 -0.45993,-0.12041 z M 74.753421,137.81565 c 0.329116,-0.0633 0.805366,-0.0609 1.058334,0.005 0.252941,0.0662 -0.0164,0.118 -0.598408,0.11507 -0.582084,-0.003 -0.789067,-0.0571 -0.459926,-0.12041 z m 150.015659,0 c 0.32742,-0.0631 0.8632,-0.0631 1.19063,0 0.32742,0.0631 0.0595,0.11464 -0.59532,0.11464 -0.65484,0 -0.92273,-0.0516 -0.59531,-0.11464 z m -457.20002,-0.2531 c 0.18191,-0.0734 0.47956,-0.0734 0.66146,0 0.1819,0.0734 0.0331,0.13345 -0.33073,0.13345 -0.3638,0 -0.51263,-0.0601 -0.33073,-0.13345 z m 304.138557,-0.007 c 0.254662,-0.0666 0.671381,-0.0666 0.926042,0 0.254662,0.0666 0.0463,0.121 -0.463021,0.121 -0.509323,0 -0.717682,-0.0545 -0.463021,-0.121 z m 156.504143,-0.005 c 0.32912,-0.0633 0.80537,-0.0609 1.05833,0.005 0.25295,0.0662 -0.0164,0.11801 -0.5984,0.11507 -0.58209,-0.003 -0.78907,-0.0571 -0.45993,-0.12041 z m -457.20003,-0.26458 c 0.32912,-0.0633 0.80537,-0.0609 1.05834,0.005 0.25296,0.0662 -0.0163,0.118 -0.5984,0.11507 -0.58208,-0.003 -0.78906,-0.0571 -0.45994,-0.12041 z m 297.520887,0.005 c 0.254662,-0.0666 0.67138,-0.0666 0.926042,0 0.254661,0.0665 0.0463,0.121 -0.463021,0.121 -0.509323,0 -0.717682,-0.0545 -0.463021,-0.121 z m 163.247923,0 c 0.25466,-0.0666 0.67138,-0.0666 0.92604,0 0.25466,0.0665 0.0463,0.121 -0.46302,0.121 -0.50932,0 -0.71768,-0.0545 -0.46302,-0.121 z m -457.59689,-0.25744 c 0.1819,-0.0734 0.47956,-0.0734 0.66146,0 0.1819,0.0734 0.0331,0.13346 -0.33073,0.13346 -0.3638,0 -0.51263,-0.0601 -0.33073,-0.13346 z m 291.708161,-0.008 c 0.25744,-0.0671 0.614627,-0.0627 0.79375,0.01 0.179149,0.0725 -0.03149,0.12734 -0.468048,0.12197 -0.436562,-0.005 -0.583115,-0.0647 -0.325702,-0.13179 z m 169.063729,0 c 0.25466,-0.0666 0.67138,-0.0666 0.92604,0 0.25466,0.0665 0.0463,0.12099 -0.46302,0.12099 -0.50932,0 -0.71768,-0.0545 -0.46302,-0.12099 z m -473.75852,-0.25495 c -0.23895,-0.23895 -0.22387,-1.08596 0.022,-1.23794 0.10914,-0.0674 0.19844,0.22318 0.19844,0.64585 0,0.42267 -0.01,0.76848 -0.022,0.76848 -0.0121,0 -0.10142,-0.0794 -0.19843,-0.17639 z m 15.63555,-0.0109 c 0.32911,-0.0633 0.80536,-0.0609 1.05833,0.005 0.25297,0.0662 -0.0163,0.11801 -0.5984,0.11507 -0.58208,-0.003 -0.78905,-0.0571 -0.45993,-0.12041 z m 286.413407,0.004 c 0.25744,-0.0671 0.614628,-0.0627 0.793751,0.01 0.179149,0.0725 -0.03149,0.12735 -0.468048,0.12198 -0.436563,-0.005 -0.583116,-0.0647 -0.325703,-0.13179 z m 174.889593,0 c 0.25744,-0.0671 0.61462,-0.0627 0.79375,0.01 0.17915,0.0725 -0.0315,0.12735 -0.46805,0.12198 -0.43656,-0.005 -0.58312,-0.0647 -0.3257,-0.13179 z m -456.80509,-0.26836 c 0.32912,-0.0633 0.80537,-0.0609 1.05834,0.005 0.25296,0.0662 -0.0163,0.118 -0.5984,0.11507 -0.58208,-0.003 -0.78905,-0.0571 -0.45994,-0.12042 z m 279.264637,0.005 c 0.254661,-0.0666 0.67138,-0.0666 0.926042,0 0.254661,0.0665 0.0463,0.12099 -0.463021,0.12099 -0.509323,0 -0.717682,-0.0545 -0.463021,-0.12099 z m 180.450863,0 c 0.25744,-0.0671 0.61463,-0.0627 0.79375,0.01 0.17915,0.0725 -0.0315,0.12734 -0.46804,0.12197 -0.43657,-0.005 -0.58312,-0.0647 -0.32571,-0.13179 z m -182.699821,-0.2573 c 0.181901,-0.0734 0.479557,-0.0734 0.661458,0 0.181901,0.0734 0.03307,0.13345 -0.330729,0.13345 -0.363802,0 -0.51263,-0.0601 -0.330729,-0.13345 z m 185.610241,-0.008 c 0.25744,-0.0671 0.61463,-0.0627 0.79375,0.01 0.17915,0.0725 -0.0315,0.12734 -0.46805,0.12197 -0.43656,-0.005 -0.58311,-0.0647 -0.3257,-0.13179 z M 55.837644,135.97023 c 0.257439,-0.0671 0.614627,-0.0627 0.79375,0.01 0.179149,0.0725 -0.03149,0.12735 -0.468048,0.12198 -0.436563,-0.005 -0.583115,-0.0647 -0.325702,-0.13179 z m 190.627276,0.008 c 0.1819,-0.0734 0.47955,-0.0734 0.66145,0 0.1819,0.0734 0.0331,0.13345 -0.33073,0.13345 -0.3638,0 -0.51263,-0.0601 -0.33072,-0.13345 z m -192.743943,-0.2725 c 0.25744,-0.0671 0.614627,-0.0627 0.79375,0.01 0.17915,0.0725 -0.03149,0.12734 -0.468048,0.12197 -0.436562,-0.005 -0.583115,-0.0647 -0.325702,-0.13179 z m 195.389773,0.008 c 0.1819,-0.0734 0.47956,-0.0734 0.66146,0 0.1819,0.0734 0.0331,0.13346 -0.33073,0.13346 -0.3638,0 -0.51263,-0.0601 -0.33073,-0.13346 z M 51.731575,135.44935 c 0.181901,-0.0734 0.479557,-0.0734 0.661458,0 0.181901,0.0734 0.03307,0.13345 -0.330729,0.13345 -0.363802,0 -0.51263,-0.0601 -0.330729,-0.13345 z m 199.760425,0 c 0.1819,-0.0734 0.47956,-0.0734 0.66146,0 0.1819,0.0734 0.0331,0.13345 -0.33073,0.13345 -0.3638,0 -0.51263,-0.0601 -0.33073,-0.13345 z M 49.614908,135.18476 c 0.181901,-0.0734 0.479558,-0.0734 0.661459,0 0.181901,0.0734 0.03307,0.13346 -0.33073,0.13346 -0.363802,0 -0.51263,-0.0601 -0.330729,-0.13346 z m 204.258342,0 c 0.1819,-0.0734 0.47956,-0.0734 0.66146,0 0.1819,0.0734 0.0331,0.13346 -0.33073,0.13346 -0.3638,0 -0.51263,-0.0601 -0.33073,-0.13346 z m -206.23769,-0.2727 c 0.25744,-0.0671 0.614627,-0.0627 0.79375,0.01 0.17915,0.0725 -0.03149,0.12734 -0.468048,0.12197 -0.436562,-0.005 -0.583115,-0.0647 -0.325702,-0.13179 z m 208.35436,0.008 c 0.1819,-0.0734 0.47955,-0.0734 0.66145,0 0.18191,0.0734 0.0331,0.13346 -0.33073,0.13346 -0.3638,0 -0.51263,-0.0601 -0.33072,-0.13346 z M 45.927278,134.65017 c 0.191003,-0.0764 0.419206,-0.067 0.507127,0.0209 0.08792,0.0879 -0.06837,0.15046 -0.347266,0.13898 -0.308239,-0.0127 -0.370919,-0.0754 -0.159861,-0.15986 z m 212.443892,0.006 c 0.1819,-0.0734 0.47955,-0.0734 0.66145,0 0.18191,0.0734 0.0331,0.13346 -0.33073,0.13346 -0.3638,0 -0.51263,-0.0601 -0.33072,-0.13346 z m 2.1332,-0.27009 c 0.191,-0.0764 0.4192,-0.067 0.50713,0.0209 0.0879,0.0879 -0.0684,0.15046 -0.34727,0.13898 -0.30824,-0.0127 -0.37092,-0.0754 -0.15986,-0.15986 z M 42.487694,134.12106 c 0.191003,-0.0764 0.419206,-0.067 0.507127,0.0209 0.08792,0.0879 -0.06837,0.15047 -0.347265,0.13899 -0.30824,-0.0127 -0.37092,-0.0754 -0.159862,-0.15986 z m 220.133346,0 c 0.191,-0.0764 0.4192,-0.067 0.50712,0.0209 0.0879,0.0879 -0.0684,0.15047 -0.34726,0.13899 -0.30824,-0.0127 -0.37092,-0.0754 -0.15986,-0.15986 z m 1.85208,-0.26458 c 0.191,-0.0764 0.4192,-0.067 0.50713,0.0209 0.0879,0.0879 -0.0684,0.15047 -0.34727,0.13898 -0.30824,-0.0127 -0.37092,-0.0754 -0.15986,-0.15986 z m 1.83555,-0.25908 c 0.1819,-0.0734 0.47955,-0.0734 0.66145,0 0.18191,0.0734 0.0331,0.13345 -0.33072,0.13345 -0.36381,0 -0.51264,-0.0601 -0.33073,-0.13345 z m -503.70054,-0.19027 c 0,-0.0549 0.20836,-0.26328 0.46302,-0.46302 0.41964,-0.32908 0.429,-0.31974 0.0999,0.0999 -0.34564,0.44072 -0.56291,0.58089 -0.56291,0.36311 z m 505.55262,-0.0753 c 0.1819,-0.0734 0.47956,-0.0734 0.66146,0 0.1819,0.0734 0.0331,0.13345 -0.33073,0.13345 -0.3638,0 -0.51263,-0.0601 -0.33073,-0.13345 z m 1.86862,-0.27009 c 0.191,-0.0764 0.41921,-0.067 0.50713,0.0209 0.0879,0.0879 -0.0684,0.15047 -0.34727,0.13899 -0.30824,-0.0127 -0.37092,-0.0754 -0.15986,-0.15986 z m -510.57535,-1.03193 c 0.0127,-0.30824 0.0754,-0.37092 0.15985,-0.15986 0.0764,0.191 0.067,0.41921 -0.0209,0.50713 -0.0879,0.0879 -0.15045,-0.0684 -0.13897,-0.34727 z M 2.1221982,129.09133 c 0.2546615,-0.0666 0.6713803,-0.0666 0.9260417,0 0.2546615,0.0665 0.046302,0.12099 -0.4630208,0.12099 -0.5093229,0 -0.7176823,-0.0545 -0.4630209,-0.12099 z m -3.1750001,-0.26458 c 0.25466149,-0.0666 0.67138026,-0.0666 0.92604173,0 0.25466146,0.0665 0.04630208,0.12099 -0.46302085,0.12099 -0.50932298,0 -0.71768228,-0.0545 -0.46302088,-0.12099 z m 5.9487146,-0.11504 c 0.1794775,-0.18082 0.3929698,-0.26213 0.4744324,-0.18066 0.081463,0.0815 -0.065381,0.22942 -0.3263186,0.32877 -0.3770842,0.14359 -0.4074742,0.11319 -0.1481138,-0.14811 z m -9.388298,-0.14955 c 0.2546614,-0.0666 0.6713802,-0.0666 0.9260417,0 0.2546614,0.0666 0.046302,0.121 -0.4630209,0.121 -0.5093229,0 -0.7176823,-0.0544 -0.4630208,-0.121 z m -3.1750001,-0.26458 c 0.2546614,-0.0666 0.6713802,-0.0666 0.9260417,0 0.2546614,0.0665 0.046302,0.12099 -0.4630209,0.12099 -0.5093229,0 -0.7176823,-0.0544 -0.4630208,-0.12099 z m -3.3042066,-0.26934 c 0.329118,-0.0633 0.805368,-0.0609 1.0583332,0.005 0.2529655,0.0662 -0.016325,0.118 -0.5983972,0.11506 -0.582084,-0.003 -0.789054,-0.0571 -0.459936,-0.12041 z m -3.310377,-0.25983 c 0.254661,-0.0666 0.67138,-0.0666 0.926042,0 0.254661,0.0665 0.0463,0.121 -0.463021,0.121 -0.509323,0 -0.717682,-0.0545 -0.463021,-0.121 z m -3.175,-0.26458 c 0.254661,-0.0666 0.67138,-0.0666 0.926042,0 0.254661,0.0665 0.0463,0.12099 -0.463021,0.12099 -0.509323,0 -0.717683,-0.0545 -0.463021,-0.12099 z m -3.439584,-0.26458 c 0.254662,-0.0666 0.671381,-0.0666 0.926042,0 0.254662,0.0665 0.0463,0.12099 -0.463021,0.12099 -0.509323,0 -0.717682,-0.0545 -0.463021,-0.12099 z m -3.175,-0.26459 c 0.254662,-0.0666 0.671381,-0.0666 0.926042,0 0.254661,0.0666 0.0463,0.121 -0.463021,0.121 -0.509323,0 -0.717682,-0.0544 -0.463021,-0.121 z m -3.175,-0.26458 c 0.254662,-0.0666 0.67138,-0.0666 0.926042,0 0.254661,0.0665 0.0463,0.12099 -0.463021,0.12099 -0.509323,0 -0.717682,-0.0545 -0.463021,-0.12099 z m -3.304207,-0.26934 c 0.329118,-0.0633 0.805368,-0.0609 1.058334,0.005 0.252965,0.0662 -0.01633,0.118 -0.598398,0.11506 -0.582083,-0.003 -0.789053,-0.0571 -0.459936,-0.12041 z m -3.040758,-0.2608 c 0.257432,-0.0671 0.614619,-0.0627 0.79375,0.01 0.179131,0.0725 -0.03149,0.12735 -0.468056,0.12198 -0.436562,-0.005 -0.583126,-0.0647 -0.325694,-0.13179 z m -3.444618,-0.26361 c 0.254661,-0.0666 0.67138,-0.0666 0.926041,0 0.254662,0.0665 0.0463,0.12099 -0.463021,0.12099 -0.509323,0 -0.717682,-0.0544 -0.46302,-0.12099 z m -3.175001,-0.26458 c 0.254662,-0.0666 0.671381,-0.0666 0.926042,0 0.254662,0.0665 0.0463,0.12099 -0.463021,0.12099 -0.509323,0 -0.717682,-0.0545 -0.463021,-0.12099 z m -3.439583,-0.26459 c 0.254661,-0.0666 0.67138,-0.0666 0.926042,0 0.254661,0.0666 0.0463,0.121 -0.463021,0.121 -0.509323,0 -0.717683,-0.0545 -0.463021,-0.121 z m -3.304207,-0.26934 c 0.329118,-0.0633 0.805368,-0.0609 1.058334,0.005 0.252965,0.0662 -0.01632,0.118 -0.598398,0.11507 -0.582083,-0.003 -0.789054,-0.0571 -0.459936,-0.12041 z M -50.00072,124.858 c 0.254661,-0.0666 0.67138,-0.0666 0.926041,0 0.254662,0.0665 0.0463,0.12099 -0.46302,0.12099 -0.509323,0 -0.717683,-0.0545 -0.463021,-0.12099 z m -3.439584,-0.26459 c 0.254662,-0.0666 0.67138,-0.0666 0.926042,0 0.254661,0.0665 0.0463,0.121 -0.463021,0.121 -0.509323,0 -0.717682,-0.0545 -0.463021,-0.121 z m -3.175,-0.26458 c 0.254662,-0.0666 0.67138,-0.0666 0.926042,0 0.254661,0.0665 0.0463,0.12099 -0.463021,0.12099 -0.509323,0 -0.717682,-0.0545 -0.463021,-0.12099 z m -3.304207,-0.26934 c 0.329118,-0.0633 0.805368,-0.0609 1.058334,0.005 0.252965,0.0662 -0.01633,0.118 -0.598398,0.11506 -0.582083,-0.003 -0.789053,-0.0571 -0.459936,-0.12041 z m -3.040758,-0.2608 c 0.257432,-0.0671 0.614619,-0.0627 0.79375,0.01 0.179131,0.0725 -0.03149,0.12735 -0.468056,0.12198 -0.436562,-0.005 -0.583126,-0.0647 -0.325694,-0.13179 z m -3.444619,-0.26361 c 0.254662,-0.0666 0.671381,-0.0666 0.926042,0 0.254662,0.0665 0.0463,0.12099 -0.463021,0.12099 -0.509323,0 -0.717682,-0.0545 -0.463021,-0.12099 z m -3.169965,-0.26556 c 0.257432,-0.0671 0.61462,-0.0627 0.79375,0.01 0.179131,0.0725 -0.03149,0.12734 -0.468055,0.12197 -0.436563,-0.005 -0.583126,-0.0647 -0.325695,-0.13179 z m -3.444618,-0.26361 c 0.254661,-0.0666 0.67138,-0.0666 0.926042,0 0.254661,0.0666 0.0463,0.121 -0.463021,0.121 -0.509323,0 -0.717683,-0.0544 -0.463021,-0.121 z m 388.805221,-1.31577 c 0.1819,-0.0734 0.47956,-0.0734 0.66146,0 0.1819,0.0734 0.0331,0.13346 -0.33073,0.13346 -0.3638,0 -0.51263,-0.0601 -0.33073,-0.13346 z m -5.01055,-1.06384 c 0.19101,-0.0764 0.41921,-0.067 0.50713,0.0209 0.0879,0.0879 -0.0684,0.15047 -0.34726,0.13898 -0.30824,-0.0127 -0.37092,-0.0754 -0.15987,-0.15986 z m -386.572796,-1.31741 c 0.181901,-0.0734 0.479557,-0.0734 0.661458,0 0.181901,0.0734 0.03307,0.13346 -0.330729,0.13346 -0.363802,0 -0.51263,-0.0601 -0.330729,-0.13346 z m -151.143234,-6.45747 c -0.72832,-0.1687 -0.70105,-0.18643 0.33073,-0.21516 1.12155,-0.0312 1.42045,0.0772 0.79375,0.28784 -0.1819,0.0611 -0.68792,0.0284 -1.12448,-0.0727 z m 0.66146,-11.72345 c 0,-0.0549 0.20836,-0.26329 0.46302,-0.46302 0.41964,-0.32909 0.429,-0.31975 0.0999,0.0999 -0.34564,0.44072 -0.56291,0.5809 -0.56291,0.36312 z m 150.21719,-1.927412 c 0.181902,-0.0734 0.479558,-0.0734 0.661459,0 0.181901,0.0734 0.03307,0.133456 -0.330729,0.133456 -0.363802,0 -0.512631,-0.06006 -0.33073,-0.133456 z m -1.835546,-0.270087 c 0.190994,-0.07644 0.4192,-0.06704 0.507118,0.0209 0.08792,0.08792 -0.06835,0.150468 -0.347265,0.138985 -0.308227,-0.0127 -0.37092,-0.07541 -0.159853,-0.159861 z m -1.852084,-0.264583 c 0.190995,-0.07644 0.419201,-0.06704 0.507119,0.0209 0.08792,0.08792 -0.06835,0.150469 -0.347266,0.138986 -0.308226,-0.0127 -0.370919,-0.07541 -0.159853,-0.159861 z m -2.133203,-0.25908 c 0.181901,-0.0734 0.479557,-0.0734 0.661458,0 0.181901,0.0734 0.03307,0.133456 -0.330729,0.133456 -0.363802,0 -0.51263,-0.06006 -0.330729,-0.133456 z M -223.10437,97.423802 c 0,-0.05493 0.20836,-0.263287 0.46302,-0.463021 0.41964,-0.329089 0.429,-0.319749 0.0999,0.09991 -0.34564,0.440716 -0.56291,0.580892 -0.56291,0.363114 z m 135.41706,-0.08083 c 0.190995,-0.07644 0.4192,-0.06705 0.507119,0.0209 0.08792,0.08792 -0.06835,0.150468 -0.347266,0.138985 -0.308226,-0.0127 -0.370919,-0.07541 -0.159853,-0.159861 z m -2.133203,-0.25908 c 0.181901,-0.0734 0.479557,-0.0734 0.661458,0 0.181901,0.07339 0.03307,0.133455 -0.330729,0.133455 -0.363802,0 -0.51263,-0.06006 -0.330729,-0.133455 z m -2.248959,-0.271728 c 0.254662,-0.06657 0.67138,-0.06657 0.926042,0 0.254661,0.06654 0.0463,0.120994 -0.463021,0.120994 -0.509323,0 -0.717682,-0.05445 -0.463021,-0.120994 z m -25.532288,-0.257439 c 0.1819,-0.0734 0.47955,-0.0734 0.66145,0 0.18191,0.07339 0.0331,0.133456 -0.33073,0.133456 -0.3638,0 -0.51263,-0.06006 -0.33072,-0.133456 z m 17.721179,-0.01561 c 0.469697,-0.05845 1.303134,-0.05943 1.852084,-0.0026 0.548947,0.05728 0.16465,0.105092 -0.853996,0.106283 -1.018646,0 -1.467787,-0.04569 -0.998088,-0.10414 z m -14.807679,-0.260773 c 0.32912,-0.06329 0.80537,-0.06088 1.05833,0.0053 0.25297,0.06623 -0.0163,0.118004 -0.5984,0.115067 -0.58208,-0.0029 -0.78905,-0.05712 -0.45993,-0.120412 z m 8.98685,-0.0037 c 0.46969,-0.05845 1.30313,-0.05943 1.85208,-0.0026 0.54895,0.05728 0.16465,0.105093 -0.854,0.106283 -1.01864,0 -1.46778,-0.04569 -0.99808,-0.10414 z m -5.15348,-0.263155 c 0.40018,-0.06062 1.05503,-0.06062 1.45521,0 0.40018,0.06064 0.0728,0.110226 -0.7276,0.110226 -0.80037,0 -1.12779,-0.04958 -0.72761,-0.110226 z m 503.51525,-11.71694 c 0,-0.800365 0.0496,-1.127787 0.11023,-0.727604 0.0606,0.400182 0.0606,1.055026 0,1.455208 -0.0607,0.400182 -0.11023,0.07276 -0.11023,-0.727604 z m -14.15182,-2.03282 c 0.191,-0.07644 0.41921,-0.06705 0.50713,0.0209 0.0879,0.08792 -0.0684,0.150468 -0.34727,0.138985 -0.30824,-0.0127 -0.37092,-0.07541 -0.15986,-0.159861 z m 2.49701,-0.266224 c 0.25466,-0.06657 0.67138,-0.06657 0.92604,0 0.25466,0.06654 0.0463,0.120994 -0.46302,0.120994 -0.50933,0 -0.71769,-0.05445 -0.46302,-0.120994 z m 3.175,-0.264584 c 0.25466,-0.06657 0.67138,-0.06657 0.92604,0 0.25466,0.06654 0.0463,0.120994 -0.46302,0.120994 -0.50933,0 -0.71769,-0.05445 -0.46302,-0.120994 z m 3.44461,-0.265562 c 0.25744,-0.06707 0.61462,-0.06268 0.79375,0.0098 0.17915,0.07247 -0.0315,0.127344 -0.46805,0.121973 -0.43656,-0.0053 -0.58312,-0.06469 -0.3257,-0.131789 z m 2.90539,-0.263604 c 0.25466,-0.06657 0.67138,-0.06657 0.92604,0 0.25466,0.06654 0.0463,0.120994 -0.46302,0.120994 -0.50933,0 -0.71769,-0.05445 -0.46302,-0.120994 z M -214.10854,80.22589 c 0,-0.05493 0.20836,-0.263287 0.46302,-0.463021 0.41965,-0.329088 0.42901,-0.319749 0.0999,0.09991 -0.34565,0.440716 -0.56292,0.580893 -0.56292,0.363114 z m 1.85208,-1.852083 c 0,-0.05493 0.20836,-0.263287 0.46303,-0.463021 0.41964,-0.329089 0.429,-0.319749 0.0999,0.09991 -0.34564,0.440716 -0.56292,0.580892 -0.56292,0.363114 z m 602.80016,-5.19176 c 0,-0.800365 0.0496,-1.127787 0.11022,-0.727604 0.0606,0.400182 0.0606,1.055026 0,1.455208 -0.0606,0.400182 -0.11022,0.07276 -0.11022,-0.727604 z m -593.06018,0.34843 c 0.19099,-0.07644 0.4192,-0.06705 0.50712,0.0209 0.0879,0.08792 -0.0684,0.150468 -0.34727,0.138985 -0.30822,-0.0127 -0.37092,-0.07541 -0.15985,-0.159861 z m 1.85208,-0.264584 c 0.191,-0.07644 0.4192,-0.06705 0.50712,0.0209 0.0879,0.08792 -0.0684,0.150469 -0.34726,0.138986 -0.30823,-0.0127 -0.37092,-0.07541 -0.15986,-0.159861 z m 2.11667,-0.264583 c 0.19099,-0.07644 0.4192,-0.06705 0.50712,0.0209 0.0879,0.08792 -0.0684,0.150469 -0.34727,0.138986 -0.30822,-0.0127 -0.37092,-0.07541 -0.15985,-0.159862 z m 1.85208,-0.264583 c 0.191,-0.07644 0.4192,-0.06705 0.50712,0.0209 0.0879,0.08792 -0.0684,0.150468 -0.34726,0.138985 -0.30823,-0.0127 -0.37092,-0.07541 -0.15986,-0.159861 z m 1.85209,-0.264584 c 0.19099,-0.07644 0.41919,-0.06705 0.50711,0.0209 0.0879,0.08792 -0.0683,0.150469 -0.34726,0.138986 -0.30823,-0.0127 -0.37092,-0.07541 -0.15985,-0.159861 z m 1.50481,-0.34843 c -0.10018,-0.16211 0.27805,-0.25437 0.97658,-0.238204 0.96344,0.02223 1.0376,0.05919 0.47863,0.238204 -0.94184,0.301625 -1.26879,0.301625 -1.45521,0 z m -3.37035,-0.451723 c 0.32912,-0.06329 0.80537,-0.06088 1.05833,0.0053 0.25297,0.06623 -0.0163,0.118004 -0.59839,0.115067 -0.58209,-0.0029 -0.78906,-0.05712 -0.45994,-0.120412 z m -3.70417,-0.264583 c 0.32912,-0.06329 0.80537,-0.06088 1.05834,0.0053 0.25296,0.06623 -0.0163,0.118004 -0.5984,0.115067 -0.58208,-0.0029 -0.78905,-0.05712 -0.45994,-0.120412 z m -3.96875,-0.264583 c 0.32912,-0.06329 0.80537,-0.06088 1.05834,0.0053 0.25296,0.06623 -0.0163,0.118005 -0.5984,0.115068 -0.58208,-0.0029 -0.78905,-0.05712 -0.45994,-0.120412 z m -6.70046,-3.583173 -0.7771,-0.859896 0.8599,0.777108 c 0.80154,0.724376 0.98151,0.942684 0.7771,0.942684 -0.0455,0 -0.43249,-0.386953 -0.8599,-0.859896 z m 104.59322,-31.341404 c 0.32742,-0.06308 0.8632,-0.06308 1.19062,0 0.32742,0.06305 0.0595,0.114644 -0.59531,0.114644 -0.65485,0 -0.92274,-0.05159 -0.59531,-0.114644 z m -6.35,-0.269266 c 0.47294,-0.05869 1.24684,-0.05869 1.71979,0 0.47294,0.05868 0.086,0.106706 -0.8599,0.106706 -0.94588,0 -1.33284,-0.04802 -0.85989,-0.106706 z m 10.58333,0.01614 c 0.1819,-0.07339 0.47956,-0.07339 0.66146,0 0.1819,0.0734 0.0331,0.133456 -0.33073,0.133456 -0.3638,0 -0.51263,-0.06006 -0.33073,-0.133456 z m -14.81667,-0.276066 c 0.32742,-0.06308 0.86321,-0.06308 1.19063,0 0.32742,0.06305 0.0595,0.114644 -0.59532,0.114644 -0.65484,0 -0.92273,-0.05159 -0.59531,-0.114644 z m 17.19792,0.01138 c 0.181901,-0.07339 0.479557,-0.07339 0.661458,0 0.181901,0.0734 0.03307,0.133456 -0.330729,0.133456 -0.363802,0 -0.512629,-0.06006 -0.330729,-0.133456 z m -20.50017,-0.272706 c 0.25743,-0.06707 0.61461,-0.06268 0.79375,0.0098 0.17913,0.07247 -0.0315,0.127344 -0.46806,0.121973 -0.43656,-0.0053 -0.58313,-0.06469 -0.32569,-0.131789 z m 22.897956,0.0026 c 0.190995,-0.07644 0.419201,-0.06705 0.507119,0.0209 0.08792,0.08792 -0.06835,0.150469 -0.347266,0.138986 -0.308226,-0.0127 -0.370919,-0.07541 -0.159853,-0.159862 z m -25.681116,-0.25908 c 0.1819,-0.0734 0.47955,-0.0734 0.66145,0 0.1819,0.07339 0.0331,0.133456 -0.33073,0.133456 -0.3638,0 -0.51263,-0.06006 -0.33072,-0.133456 z m 27.5332,-0.0056 c 0.190994,-0.07644 0.4192,-0.06705 0.507119,0.0209 0.08792,0.08792 -0.06835,0.150468 -0.347266,0.138985 -0.308226,-0.0127 -0.37092,-0.07541 -0.159853,-0.159861 z m -29.64987,-0.258922 c 0.1819,-0.07339 0.47956,-0.07339 0.66146,0 0.1819,0.0734 0.0331,0.133456 -0.33073,0.133456 -0.3638,0 -0.51263,-0.06006 -0.33073,-0.133456 z m 31.766536,-0.0056 c 0.190995,-0.07644 0.419201,-0.06705 0.507119,0.0209 0.08792,0.08792 -0.06835,0.150469 -0.347265,0.138986 -0.308227,-0.0127 -0.37092,-0.07541 -0.159854,-0.159861 z m -33.602086,-0.264583 c 0.191,-0.07644 0.4192,-0.06705 0.50712,0.0209 0.0879,0.08792 -0.0683,0.150468 -0.34726,0.138986 -0.30823,-0.0127 -0.37092,-0.07541 -0.15986,-0.159862 z m 35.718753,0 c 0.190995,-0.07644 0.419201,-0.06705 0.507119,0.0209 0.08792,0.08792 -0.06835,0.150468 -0.347266,0.138986 -0.308226,-0.0127 -0.370919,-0.07541 -0.159853,-0.159862 z m 1.5875,-0.264584 c 0.190995,-0.07644 0.419201,-0.06705 0.507119,0.0209 0.08792,0.08792 -0.06835,0.150468 -0.347266,0.138985 -0.308226,-0.0127 -0.370919,-0.07541 -0.159853,-0.159861 z m 1.852083,-0.264583 c 0.190995,-0.07644 0.419201,-0.06704 0.507119,0.0209 0.08792,0.08792 -0.06835,0.150469 -0.347265,0.138986 -0.308227,-0.0127 -0.37092,-0.07541 -0.159854,-0.159861 z m 4.233334,-0.529167 c 0.190995,-0.07644 0.419201,-0.06705 0.507119,0.0209 0.08792,0.08792 -0.06835,0.150468 -0.347266,0.138985 -0.308226,-0.0127 -0.370919,-0.07541 -0.159853,-0.159861 z m 2.116667,-0.264583 c 0.190994,-0.07644 0.4192,-0.06705 0.507119,0.0209 0.08792,0.08792 -0.06835,0.150469 -0.347266,0.138986 -0.308226,-0.0127 -0.370919,-0.07541 -0.159853,-0.159861 z M -220.98771,30.833098 c 0,-0.15412 0.11907,-0.206613 0.26459,-0.116681 0.14552,0.08993 0.26458,0.216032 0.26458,0.280194 0,0.06419 -0.11906,0.116681 -0.26458,0.116681 -0.14552,0 -0.26459,-0.1261 -0.26459,-0.280194 z m -14.58583,-6.268244 c -0.32911,-0.419655 -0.31975,-0.428995 0.0999,-0.09991 0.44073,0.345651 0.58088,0.562927 0.36312,0.562927 -0.0549,0 -0.2633,-0.208359 -0.46302,-0.463021 z M -52.646554,22.71846 c 0.545703,-0.05707 1.438672,-0.05707 1.984375,0 0.545704,0.0571 0.09922,0.103796 -0.992187,0.103796 -1.091406,0 -1.537891,-0.0467 -0.992188,-0.103796 z m 10.252605,-0.07885 c -1.687492,-0.163116 -1.672998,-0.167085 0.771702,-0.211905 1.37032,-0.02513 2.441882,-0.0029 2.38125,0.0494 -0.285787,0.246459 -1.589413,0.313663 -3.152952,0.162507 z M -239.22307,16.406877 c 0.0127,-0.308239 0.0754,-0.370919 0.15985,-0.159861 0.0764,0.191003 0.067,0.419206 -0.0209,0.507127 -0.0879,0.08792 -0.15046,-0.06837 -0.13897,-0.347266 z m 25.06492,-4.259739 c 0.191,-0.07644 0.4192,-0.06705 0.50712,0.0209 0.0879,0.08792 -0.0684,0.150468 -0.34726,0.138985 -0.30823,-0.0127 -0.37092,-0.07541 -0.15986,-0.159861 z m -3.70416,-0.529166 c 0.19099,-0.07644 0.41919,-0.06705 0.50711,0.0209 0.0879,0.08792 -0.0684,0.150468 -0.34726,0.138986 -0.30823,-0.0127 -0.37092,-0.07541 -0.15985,-0.159862 z m -1.85209,-0.264584 c 0.191,-0.07644 0.4192,-0.06705 0.50712,0.0209 0.0879,0.08792 -0.0684,0.150468 -0.34726,0.138985 -0.30823,-0.0127 -0.37092,-0.07541 -0.15986,-0.159861 z m -1.85208,-0.264583 c 0.19099,-0.07644 0.4192,-0.06705 0.50712,0.0209 0.0879,0.08792 -0.0684,0.150469 -0.34727,0.138986 -0.30822,-0.0127 -0.37092,-0.07541 -0.15985,-0.159861 z m -3.43959,-0.529167 c 0.191,-0.07644 0.4192,-0.06705 0.50712,0.0209 0.0879,0.08792 -0.0683,0.150468 -0.34726,0.138985 -0.30823,-0.0127 -0.37092,-0.07541 -0.15986,-0.159861 z m -6.63112,-0.25908 c 0.18191,-0.0734 0.47956,-0.0734 0.66146,0 0.1819,0.0734 0.0331,0.133456 -0.33073,0.133456 -0.3638,0 -0.51263,-0.06006 -0.33073,-0.133456 z m 3.97184,-0.01191 c 0.32912,-0.06329 0.80537,-0.06088 1.05833,0.0053 0.25297,0.06623 -0.0163,0.118004 -0.59839,0.115067 -0.58209,-0.0029 -0.78906,-0.05712 -0.45994,-0.120412 z M -40.856058,3.1513052 c 0.190994,-0.076438 0.4192,-0.067045 0.507118,0.020902 0.08792,0.087921 -0.06835,0.1504685 -0.347265,0.1389856 -0.308227,-0.0127 -0.37092,-0.075406 -0.159853,-0.1598613 z m 3.426132,-0.2709863 c 0.329117,-0.063288 0.805367,-0.060881 1.058333,0.00529 0.252965,0.066225 -0.01633,0.1180042 -0.598398,0.1150673 -0.582083,-0.00291 -0.789053,-0.057124 -0.459935,-0.1204119 z m 4.097956,-0.2598208 c 0.254662,-0.066569 0.671381,-0.066569 0.926042,0 0.254661,0.066543 0.0463,0.1209939 -0.463021,0.1209939 -0.509323,0 -0.717682,-0.054451 -0.463021,-0.1209939 z M 207.5877,0.24088852 c 0.191,-0.0764381 0.41921,-0.0670454 0.50713,0.0209021 0.0879,0.087921 -0.0684,0.15046854 -0.34727,0.13898562 -0.30824,-0.0127 -0.37092,-0.0754063 -0.15986,-0.15986125 z m -2.91042,-0.52916667 c 0.19101,-0.0764381 0.41921,-0.0670454 0.50713,0.0209021 0.0879,0.0879211 -0.0684,0.15046855 -0.34727,0.13898563 -0.30823,-0.0127 -0.37091,-0.0754063 -0.15986,-0.15986125 z m -3.19153,-0.52366333 c 0.1819,-0.0733954 0.47955,-0.0733954 0.66146,0 0.1819,0.0733954 0.0331,0.13345583 -0.33073,0.13345583 -0.36381,0 -0.51263,-0.0600604 -0.33073,-0.13345583 z M 107.5752,-1.8757781 c 0.191,-0.076438 0.4192,-0.067046 0.50712,0.020902 0.0879,0.087921 -0.0684,0.1504686 -0.34726,0.1389857 -0.30824,-0.0127 -0.37092,-0.075406 -0.15986,-0.1598613 z m -6.23425,-0.5308071 c 0.25466,-0.066569 0.67138,-0.066569 0.92604,0 0.25466,0.066543 0.0463,0.1209939 -0.46302,0.1209939 -0.50932,0 -0.71768,-0.054451 -0.46302,-0.1209939 z m -9.115556,-0.2792677 c 1.207453,-0.049133 3.112453,-0.048842 4.233334,0 1.120881,0.049477 0.132953,0.089694 -2.195381,0.08935 -2.328333,0 -3.245405,-0.040799 -2.037953,-0.089958 z M 78.189909,-2.9471025 c 0.618464,-0.055695 1.630495,-0.055695 2.248959,0 0.618463,0.055695 0.112448,0.1012825 -1.12448,0.1012825 -1.236927,0 -1.742942,-0.045588 -1.124479,-0.1012825 z m -13.21263,-0.2515923 c 0.191002,-0.076438 0.419205,-0.067045 0.507126,0.020902 0.08792,0.087921 -0.06837,0.1504685 -0.347265,0.1389856 -0.30824,-0.0127 -0.37092,-0.075406 -0.159861,-0.1598612 z M 195.96188,-3.7455621 c -0.32909,-0.4196556 -0.31975,-0.4289954 0.0999,-0.099907 0.25466,0.199734 0.46302,0.4080934 0.46302,0.4630209 0,0.2177785 -0.21728,0.077602 -0.56293,-0.3631142 z m -76.62423,-8.7161689 c 0.25744,-0.06707 0.61462,-0.06268 0.79375,0.0098 0.17915,0.07247 -0.0315,0.127344 -0.46805,0.121973 -0.43656,-0.0053 -0.58312,-0.06469 -0.3257,-0.131789 z m 3.05421,0.0026 c 0.19101,-0.07644 0.41921,-0.06705 0.50713,0.0209 0.0879,0.08792 -0.0684,0.150469 -0.34726,0.138986 -0.30824,-0.0127 -0.37092,-0.07541 -0.15987,-0.159862 z m -12.62951,-2.884011 c 0.0127,-0.30824 0.0754,-0.37092 0.15986,-0.159861 0.0764,0.191002 0.067,0.419205 -0.0209,0.507126 -0.0879,0.08792 -0.15047,-0.06837 -0.13899,-0.347265 z m 19.95517,-0.374862 c 0.26339,-0.291042 0.53842,-0.529167 0.61118,-0.529167 0.0728,0 -0.0832,0.238125 -0.3466,0.529167 -0.26339,0.291042 -0.53843,0.529167 -0.61119,0.529167 -0.0728,0 0.0832,-0.238125 0.34661,-0.529167 z m -158.485427,-0.264583 c 0.26339,-0.291042 0.538422,-0.529167 0.611182,-0.529167 0.07276,0 -0.08321,0.238125 -0.346599,0.529167 -0.26339,0.291041 -0.538421,0.529166 -0.611182,0.529166 -0.07276,0 0.08321,-0.238125 0.346599,-0.529166 z m 139.518107,-0.44532 c 0.191,-0.07644 0.4192,-0.06705 0.50712,0.0209 0.0879,0.08792 -0.0684,0.150468 -0.34726,0.138985 -0.30824,-0.0127 -0.37092,-0.07541 -0.15986,-0.159861 z m 21.82474,-5.90468 c 0,-0.800365 0.0496,-1.127787 0.11022,-0.727604 0.0606,0.400182 0.0606,1.055026 0,1.455208 -0.0606,0.400182 -0.11022,0.07276 -0.11022,-0.727604 z m -156.183472,0.958426 c 0,-0.05493 0.20836,-0.263286 0.463021,-0.46302 0.419645,-0.329089 0.429003,-0.319749 0.0999,0.09991 -0.345644,0.440717 -0.562917,0.580893 -0.562917,0.363114 z M 188.3984,-22.994 c 0.003,-0.727604 0.0534,-0.993854 0.11419,-0.591687 0.0608,0.402193 0.0592,0.997505 -0.004,1.322916 -0.0628,0.325438 -0.11256,-0.0037 -0.11057,-0.731229 z m -7.54706,-1.377764 c 0.32912,-0.06329 0.80537,-0.06088 1.05834,0.0053 0.25294,0.06623 -0.0164,0.118005 -0.59841,0.115068 -0.58209,-0.0029 -0.78907,-0.05712 -0.45993,-0.120412 z m -200.887997,-0.606611 c 0.26339,-0.291041 0.538422,-0.529166 0.611183,-0.529166 0.07276,0 -0.08321,0.238125 -0.346599,0.529166 -0.26339,0.291042 -0.538422,0.529167 -0.611183,0.529167 -0.07276,0 0.08321,-0.238125 0.346599,-0.529167 z m 159.097267,-0.44532 c 0.19101,-0.07644 0.41921,-0.06705 0.50713,0.0209 0.0879,0.08792 -0.0684,0.150469 -0.34726,0.138986 -0.30824,-0.0127 -0.37092,-0.07541 -0.15987,-0.159861 z M 1.4772763,-26.482028 c 0.1909948,-0.07644 0.4192006,-0.06705 0.507119,0.0209 0.087918,0.08792 -0.068353,0.150469 -0.3472656,0.138986 -0.3082264,-0.0127 -0.3709194,-0.07541 -0.1598534,-0.159862 z m -2.3977865,-0.25908 c 0.18190105,-0.07339 0.47955731,-0.07339 0.66145835,0 0.18190105,0.0734 0.0330729,0.133456 -0.33072917,0.133456 -0.3638021,0 -0.51263028,-0.06006 -0.33072918,-0.133456 z m -2.1001303,-0.270087 c 0.1909948,-0.07644 0.4192006,-0.06705 0.507119,0.0209 0.087918,0.08792 -0.068353,0.150469 -0.3472657,0.138986 -0.3082263,-0.0127 -0.3709194,-0.07541 -0.1598533,-0.159861 z m -3.9687501,-0.529166 c 0.1909948,-0.07644 0.4192005,-0.06705 0.5071189,0.0209 0.087918,0.08792 -0.068352,0.150468 -0.3472656,0.138985 -0.3082264,-0.0127 -0.3709194,-0.07541 -0.1598533,-0.159861 z m -1.8520834,-0.264584 c 0.1909948,-0.07644 0.4192005,-0.06705 0.5071189,0.0209 0.087918,0.08792 -0.068352,0.150469 -0.3472656,0.138986 -0.3082264,-0.0127 -0.3709194,-0.07541 -0.1598533,-0.159861 z m -5.572787,-0.788246 c 0.181901,-0.0734 0.479558,-0.0734 0.661459,0 0.181901,0.0734 0.03307,0.133455 -0.33073,0.133455 -0.363802,0 -0.51263,-0.06006 -0.330729,-0.133455 z m 147.017061,-0.420079 -0.50403,-0.595313 0.59531,0.504031 c 0.55943,0.473657 0.71575,0.686594 0.50403,0.686594 -0.0502,0 -0.31811,-0.26789 -0.59531,-0.595312 z m 36.78557,-1.322917 -0.7771,-0.859896 0.85989,0.777108 c 0.47295,0.427408 0.8599,0.814361 0.8599,0.859896 0,0.204417 -0.21831,0.02434 -0.94269,-0.777108 z m -25.18433,-0.330729 c 0.003,-0.582083 0.0571,-0.789067 0.12041,-0.459925 0.0633,0.329115 0.0609,0.805365 -0.005,1.058333 -0.0662,0.252942 -0.11801,-0.0164 -0.11507,-0.598408 z m -17.26465,-1.439598 c 0,-0.282443 0.10186,-0.576501 0.22635,-0.653442 0.12451,-0.07694 0.17015,0.154147 0.10147,0.513557 -0.14925,0.780626 -0.32782,0.856853 -0.32782,0.139885 z m 19.16565,-2.72759 -0.77711,-0.859895 0.8599,0.777107 c 0.47294,0.427408 0.85989,0.814361 0.85989,0.859896 0,0.204417 -0.2183,0.02434 -0.94268,-0.777108 z m 10.73227,0.777108 c 0,-0.04554 0.38695,-0.432488 0.85989,-0.859896 l 0.8599,-0.777107 -0.77711,0.859895 c -0.72437,0.801556 -0.94268,0.981525 -0.94268,0.777108 z m -16.17335,-4.084399 c -0.32909,-0.419656 -0.31975,-0.428996 0.0999,-0.09991 0.25466,0.199734 0.46302,0.408093 0.46302,0.463021 0,0.217778 -0.21728,0.0776 -0.56293,-0.363114 z m 2.38125,-0.529167 c -0.32909,-0.419656 -0.31975,-0.428995 0.0999,-0.09991 0.25466,0.199734 0.46302,0.408094 0.46302,0.463021 0,0.217779 -0.21728,0.0776 -0.56293,-0.363114 z m 17.28325,-2.050521 c 0.005,-0.436562 0.0647,-0.583115 0.13179,-0.325702 0.0671,0.25744 0.0627,0.614627 -0.01,0.79375 -0.0725,0.179149 -0.12735,-0.03149 -0.12197,-0.468048 z"
         id="path148" />
      <path
         style="fill:#cfd0d1;stroke-width:0.264583"
         d="m 128.72533,140.21097 c 0.1819,-0.0734 0.47956,-0.0734 0.66146,0 0.1819,0.0734 0.0331,0.13346 -0.33073,0.13346 -0.36381,0 -0.51263,-0.0601 -0.33073,-0.13346 z m 39.17487,-0.006 c 0.191,-0.0764 0.4192,-0.067 0.50713,0.0209 0.0879,0.0879 -0.0684,0.15047 -0.34727,0.13899 -0.30824,-0.0127 -0.37092,-0.0754 -0.15986,-0.15987 z m -50.8,-0.26458 c 0.191,-0.0764 0.4192,-0.067 0.50712,0.0209 0.0879,0.0879 -0.0684,0.15047 -0.34726,0.13898 -0.30824,-0.0127 -0.37092,-0.0754 -0.15986,-0.15986 z m 62.68971,0.006 c 0.1819,-0.0734 0.47956,-0.0734 0.66146,0 0.1819,0.0734 0.0331,0.13346 -0.33073,0.13346 -0.3638,0 -0.51263,-0.0601 -0.33073,-0.13346 z m 8.74779,-0.27009 c 0.191,-0.0764 0.41921,-0.067 0.50713,0.0209 0.0879,0.0879 -0.0684,0.15047 -0.34727,0.13898 -0.30824,-0.0127 -0.37092,-0.0754 -0.15986,-0.15986 z m 6.87917,-0.26458 c 0.191,-0.0764 0.4192,-0.067 0.50712,0.0209 0.0879,0.0879 -0.0684,0.15047 -0.34726,0.13899 -0.30824,-0.0127 -0.37092,-0.0754 -0.15986,-0.15986 z m -98.68959,-0.26458 c 0.191002,-0.0764 0.419206,-0.067 0.507127,0.0209 0.08792,0.0879 -0.06837,0.15047 -0.347266,0.13899 -0.30824,-0.0127 -0.370919,-0.0754 -0.159861,-0.15987 z M 3.5939431,129.09297 c 0.1909948,-0.0764 0.4192005,-0.067 0.5071189,0.0209 0.087918,0.0879 -0.068352,0.15047 -0.3472656,0.13899 C 3.44557,129.24016 3.382877,129.17745 3.5939431,129.093 Z m 10.7041159,-2.64845 c 0.25744,-0.0671 0.614627,-0.0627 0.79375,0.01 0.179149,0.0725 -0.03148,0.12734 -0.468048,0.12197 -0.436562,-0.005 -0.583115,-0.0647 -0.325702,-0.13179 z M 389.67065,90.015468 c 0,-0.05493 0.20836,-0.263286 0.46302,-0.46302 0.41966,-0.329089 0.429,-0.319749 0.0999,0.09991 -0.34565,0.440717 -0.56293,0.580893 -0.56293,0.363114 z m -0.79375,-13.49375 c 0,-0.05493 0.20836,-0.263286 0.46302,-0.46302 0.41966,-0.329089 0.429,-0.319749 0.0999,0.09991 -0.34565,0.440717 -0.56293,0.580893 -0.56293,0.363114 z m -593.38926,-2.729282 c 0.25743,-0.06707 0.61462,-0.06268 0.79375,0.0098 0.17913,0.07247 -0.0315,0.127344 -0.46805,0.121973 -0.43657,-0.0053 -0.58313,-0.06469 -0.3257,-0.131789 z m 591.50342,-6.629665 c -0.32909,-0.419656 -0.31975,-0.428995 0.0999,-0.09991 0.25466,0.199734 0.46302,0.408094 0.46302,0.463021 0,0.217779 -0.21727,0.0776 -0.56292,-0.363114 z M -107.53106,36.224222 c 0.19099,-0.07644 0.4192,-0.06705 0.50712,0.0209 0.0879,0.08792 -0.0684,0.150468 -0.34727,0.138985 -0.30822,-0.0127 -0.37092,-0.07541 -0.15985,-0.159861 z m 2.91042,0 c 0.19099,-0.07644 0.4192,-0.06705 0.50711,0.0209 0.0879,0.08792 -0.0684,0.150468 -0.34726,0.138985 -0.30823,-0.0127 -0.37092,-0.07541 -0.15985,-0.159861 z m 59.779295,-13.75283 c 0.181901,-0.0734 0.479557,-0.0734 0.661458,0 0.181901,0.07339 0.03307,0.133456 -0.330729,0.133456 -0.363802,0 -0.51263,-0.06006 -0.330729,-0.133456 z M 106.50033,-1.8702748 c 0.1819,-0.073395 0.47955,-0.073395 0.66146,0 0.1819,0.073395 0.0331,0.1334558 -0.33073,0.1334558 -0.36381,0 -0.51263,-0.06006 -0.33073,-0.1334558 z M 87.192728,-2.6828631 c 0.622326,-0.05588 1.574826,-0.055113 2.116667,0.00265 0.541866,0.056859 0.0327,0.102579 -1.131465,0.1016265 -1.164166,0 -1.607502,-0.047493 -0.985202,-0.1033728 z M 73.956576,-2.9471025 c 0.618463,-0.055695 1.630495,-0.055695 2.248958,0 0.618464,0.055695 0.112448,0.1012825 -1.124479,0.1012825 -1.236927,0 -1.742943,-0.045588 -1.124479,-0.1012825 z m 39.224484,-1.2290954 c 0,-0.054927 0.20836,-0.2632869 0.46302,-0.4630209 0.41965,-0.3290887 0.42899,-0.3197489 0.0999,0.099907 -0.34565,0.4407165 -0.56292,0.5808927 -0.56292,0.3631139 z M -26.783532,-17.966916 c 0.790422,-0.800365 1.496663,-1.455209 1.569424,-1.455209 0.07276,0 -0.514419,0.654844 -1.304841,1.455209 -0.790421,0.800364 -1.496663,1.455208 -1.569423,1.455208 -0.07276,0 0.514418,-0.654844 1.30484,-1.455208 z m 5.016027,-5.225521 c 1.096422,-1.168188 1.333973,-1.378241 1.333973,-1.179565 0,0.04246 -0.565547,0.608012 -1.256771,1.25677 l -1.25677,1.179566 z M 142.6821,-27.095041 c 0.26339,-0.291042 0.53843,-0.529167 0.61119,-0.529167 0.0728,0 -0.0832,0.238125 -0.34661,0.529167 -0.26339,0.291041 -0.53842,0.529166 -0.61119,0.529166 -0.0728,0 0.0832,-0.238125 0.34661,-0.529166 z m -13.92439,-3.108854 c -0.32909,-0.419656 -0.31975,-0.428996 0.0999,-0.09991 0.25466,0.199734 0.46302,0.408093 0.46302,0.463021 0,0.217778 -0.21728,0.0776 -0.56293,-0.363114 z m 22.73832,-2.098966 c 0.191,-0.07644 0.41921,-0.06705 0.50713,0.0209 0.0879,0.08792 -0.0684,0.150468 -0.34727,0.138985 -0.30824,-0.0127 -0.37092,-0.07541 -0.15986,-0.159861 z"
         id="path146" />
      <path
         style="fill:#bebec0;stroke-width:0.264583"
         d="m 129.91595,140.20383 c 0.25466,-0.0666 0.67138,-0.0666 0.92604,0 0.25467,0.0665 0.0463,0.12099 -0.46302,0.12099 -0.50932,0 -0.71768,-0.0544 -0.46302,-0.12099 z m 36.5125,0 c 0.25467,-0.0666 0.67138,-0.0666 0.92605,0 0.25466,0.0665 0.0463,0.12099 -0.46303,0.12099 -0.50932,0 -0.71768,-0.0544 -0.46302,-0.12099 z m -48.5345,-0.26294 c 0.191,-0.0764 0.4192,-0.067 0.50712,0.0209 0.0879,0.0879 -0.0684,0.15047 -0.34726,0.13899 -0.30824,-0.0127 -0.37092,-0.0754 -0.15986,-0.15987 z m -8.20209,-0.26459 c 0.19101,-0.0764 0.41921,-0.067 0.50713,0.0209 0.0879,0.0879 -0.0684,0.15047 -0.34727,0.13898 -0.30823,-0.0127 -0.37091,-0.0754 -0.15986,-0.15986 z m 78.05209,0 c 0.191,-0.0764 0.41921,-0.067 0.50713,0.0209 0.0879,0.0879 -0.0684,0.15047 -0.34727,0.13898 -0.30824,-0.0127 -0.37092,-0.0754 -0.15986,-0.15986 z m -427.3021,-6.87916 c 0.191,-0.0764 0.4192,-0.0671 0.50712,0.0209 0.0879,0.0879 -0.0684,0.15047 -0.34727,0.13899 -0.30822,-0.0127 -0.37092,-0.0754 -0.15985,-0.15987 z m 20.57007,-101.394579 c -0.0815,-0.131948 0.09,-0.177615 0.38126,-0.101441 0.6178,0.161554 0.69589,0.341339 0.14827,0.341339 -0.20969,0 -0.44798,-0.10795 -0.52953,-0.239898 z m 173.088402,-8.931169 c 0.181901,-0.0734 0.479557,-0.0734 0.661458,0 0.181901,0.07339 0.03307,0.133456 -0.330729,0.133456 -0.363802,0 -0.512631,-0.06006 -0.330729,-0.133456 z M -229.91739,10.293415 c 0.25466,-0.06657 0.67138,-0.06657 0.92604,0 0.25466,0.06654 0.0463,0.120994 -0.46302,0.120994 -0.50933,0 -0.71768,-0.05445 -0.46302,-0.120994 z M 85.206395,-2.6721475 c 0.25744,-0.067072 0.614627,-0.06268 0.79375,0.00979 0.179149,0.072469 -0.03149,0.1273439 -0.468048,0.1219729 -0.436562,-0.00529 -0.583115,-0.064691 -0.325702,-0.131789 z M 68.532617,-2.9357519 c 0.254662,-0.066569 0.67138,-0.066569 0.926042,0 0.254661,0.066543 0.0463,0.120994 -0.463021,0.120994 -0.509323,0 -0.717682,-0.054451 -0.463021,-0.120994 z m 3.852995,0.00265 c 0.191003,-0.076438 0.419206,-0.067045 0.507127,0.020902 0.08792,0.087921 -0.06837,0.1504686 -0.347266,0.1389857 -0.308239,-0.0127 -0.370919,-0.075406 -0.159861,-0.1598613 z m 43.197568,-6.0590112 c 0.0127,-0.3082396 0.0754,-0.3709194 0.15986,-0.1598612 0.0764,0.1910027 0.0671,0.4192058 -0.0209,0.5071268 -0.0879,0.087921 -0.15047,-0.068368 -0.13898,-0.3472656 z"
         id="path144" />
      <path
         style="fill:#adaeb0;stroke-width:0.264583"
         d="m 131.63884,140.19907 c 0.32912,-0.0633 0.80537,-0.0609 1.05833,0.005 0.25295,0.0662 -0.0164,0.118 -0.5984,0.11507 -0.58209,-0.003 -0.78907,-0.0571 -0.45993,-0.12041 z m 32.80524,0 c 0.32742,-0.0631 0.8632,-0.0631 1.19062,0 0.32743,0.0631 0.0595,0.11464 -0.59531,0.11464 -0.65484,0 -0.92273,-0.0516 -0.59531,-0.11464 z m -45.77292,-0.2531 c 0.1819,-0.0734 0.47956,-0.0734 0.66146,0 0.1819,0.0734 0.0331,0.13345 -0.33073,0.13345 -0.3638,0 -0.51263,-0.0601 -0.33073,-0.13345 z m 59.40399,-0.008 c 0.25744,-0.0671 0.61463,-0.0627 0.79375,0.01 0.17915,0.0725 -0.0315,0.12734 -0.46805,0.12197 -0.43656,-0.005 -0.58311,-0.0647 -0.3257,-0.13179 z M 110.48561,139.676 c 0.19101,-0.0764 0.41921,-0.067 0.50713,0.0209 0.0879,0.0879 -0.0684,0.15047 -0.34727,0.13899 -0.30823,-0.0127 -0.37091,-0.0754 -0.15986,-0.15986 z m 76.18347,0.006 c 0.1819,-0.0734 0.47956,-0.0734 0.66146,0 0.1819,0.0734 0.0331,0.13345 -0.33073,0.13345 -0.3638,0 -0.51263,-0.0601 -0.33073,-0.13345 z m -83.06263,-0.27009 c 0.191,-0.0764 0.4192,-0.067 0.50712,0.0209 0.0879,0.0879 -0.0684,0.15047 -0.34726,0.13899 -0.30824,-0.0127 -0.37092,-0.0754 -0.15986,-0.15986 z m 90.4875,0 c 0.191,-0.0764 0.41921,-0.067 0.50713,0.0209 0.0879,0.0879 -0.0684,0.15047 -0.34727,0.13899 -0.30824,-0.0127 -0.37092,-0.0754 -0.15986,-0.15986 z m 6.08542,-0.26458 c 0.191,-0.0764 0.4192,-0.067 0.50712,0.0209 0.0879,0.0879 -0.0684,0.15047 -0.34726,0.13899 -0.30824,-0.0127 -0.37092,-0.0754 -0.15986,-0.15987 z m -420.68752,-2.64584 c 0.191,-0.0764 0.4192,-0.067 0.50712,0.0209 0.0879,0.0879 -0.0684,0.15047 -0.34726,0.13898 -0.30823,-0.0127 -0.37092,-0.0754 -0.15986,-0.15986 z m 527.89338,-13.94163 c 0,-0.0549 0.20836,-0.26329 0.46302,-0.46302 0.41966,-0.32909 0.429,-0.31975 0.0999,0.0999 -0.34565,0.44072 -0.56293,0.5809 -0.56293,0.36312 z M -67.243895,109.01104 c 0.0127,-0.30824 0.07539,-0.37092 0.159851,-0.15986 0.07643,0.19101 0.06703,0.41921 -0.02087,0.50713 -0.08792,0.0879 -0.150453,-0.0684 -0.138965,-0.34727 z m -6.750754,-7.33155 c 0.09936,-0.26093 0.247304,-0.40777 0.328766,-0.32633 0.08146,0.0815 1.7e-4,0.29495 -0.180652,0.47445 -0.261308,0.25934 -0.291698,0.22897 -0.148114,-0.14812 z m -21.77899,-5.131909 c 0.254662,-0.06657 0.671381,-0.06657 0.926042,0 0.254662,0.06654 0.0463,0.120994 -0.463021,0.120994 -0.509323,0 -0.717682,-0.05445 -0.463021,-0.120994 z M -205.95606,70.884638 c 0.19099,-0.07644 0.41919,-0.06704 0.50711,0.0209 0.0879,0.08792 -0.0684,0.150469 -0.34726,0.138986 -0.30823,-0.0127 -0.37092,-0.07541 -0.15985,-0.159861 z m 590.56587,-5.57395 c -0.32909,-0.419656 -0.31975,-0.428996 0.0999,-0.09991 0.25466,0.199734 0.46302,0.408093 0.46302,0.463021 0,0.217778 -0.21727,0.0776 -0.56292,-0.363114 z M -108.85398,36.224222 c 0.191,-0.07644 0.4192,-0.06705 0.50712,0.0209 0.0879,0.08792 -0.0683,0.150468 -0.34726,0.138985 -0.30823,-0.0127 -0.37092,-0.07541 -0.15986,-0.159861 z m 61.499093,-13.759974 c 0.254662,-0.06657 0.67138,-0.06657 0.926042,0 0.254661,0.06654 0.0463,0.120994 -0.463021,0.120994 -0.509323,0 -0.717682,-0.05445 -0.463021,-0.120994 z M -239.20218,14.709125 c 0,-0.363802 0.06,-0.51263 0.13345,-0.330729 0.0734,0.181901 0.0734,0.479557 0,0.661459 -0.0734,0.181901 -0.13345,0.03307 -0.13345,-0.33073 z M 83.883478,-2.6721475 c 0.25744,-0.067072 0.614627,-0.06268 0.79375,0.00979 0.17915,0.072469 -0.03149,0.1273439 -0.468048,0.1219729 -0.436562,-0.00529 -0.583115,-0.064691 -0.325702,-0.131789 z m -16.260366,-0.261964 c 0.191003,-0.076438 0.419206,-0.067045 0.507127,0.020902 0.08792,0.087921 -0.06837,0.1504686 -0.347266,0.1389856 -0.308239,-0.0127 -0.370919,-0.075406 -0.159861,-0.1598612 z m 2.765213,-0.009 c 0.402194,-0.060801 0.997506,-0.059187 1.322917,0.0037 0.325438,0.062786 -0.0037,0.1125537 -0.731229,0.1105693 -0.727604,-0.00265 -0.993854,-0.053366 -0.591688,-0.1141941 z m 124.264375,-1.8606558 -0.64143,-0.7276042 0.7276,0.6414294 c 0.68006,0.5995193 0.84894,0.8137789 0.64143,0.8137789 -0.0474,0 -0.37481,-0.3274218 -0.7276,-0.7276041 z M 115.26396,-13.7996 c -0.32909,-0.419656 -0.31975,-0.428996 0.0999,-0.09991 0.25466,0.199734 0.46302,0.408093 0.46302,0.463021 0,0.217778 -0.21728,0.0776 -0.56293,-0.363114 z m 23.62346,-27.582945 c 0,-0.363802 0.0601,-0.51263 0.13345,-0.330729 0.0734,0.181901 0.0734,0.479557 0,0.661458 -0.0734,0.181901 -0.13345,0.03307 -0.13345,-0.330729 z"
         id="path142" />
      <path
         style="fill:#9c9da0;stroke-width:0.264583"
         d="m 133.62374,140.19634 c 0.4022,-0.0608 0.99751,-0.0592 1.32292,0.004 0.32544,0.0628 -0.004,0.11255 -0.73123,0.11057 -0.7276,-0.003 -0.99385,-0.0534 -0.59169,-0.1142 z m 28.70367,0.003 c 0.32742,-0.0631 0.86321,-0.0631 1.19063,0 0.32742,0.0631 0.0595,0.11464 -0.59532,0.11464 -0.65484,0 -0.92273,-0.0516 -0.59531,-0.11464 z m -42.4606,-0.26122 c 0.25744,-0.0671 0.61463,-0.0627 0.79375,0.01 0.17915,0.0725 -0.0315,0.12735 -0.46805,0.12198 -0.43656,-0.005 -0.58311,-0.0647 -0.3257,-0.13179 z m 56.88542,0 c 0.25744,-0.0671 0.61463,-0.0627 0.79375,0.01 0.17915,0.0725 -0.0315,0.12735 -0.46805,0.12198 -0.43656,-0.005 -0.58311,-0.0647 -0.3257,-0.13179 z m -65.47287,-0.26197 c 0.19101,-0.0764 0.41921,-0.067 0.50713,0.0209 0.0879,0.0879 -0.0684,0.15047 -0.34727,0.13899 -0.30823,-0.0127 -0.37091,-0.0754 -0.15986,-0.15986 z m 74.61251,0 c 0.191,-0.0764 0.4192,-0.067 0.50712,0.0209 0.0879,0.0879 -0.0684,0.15047 -0.34726,0.13899 -0.30824,-0.0127 -0.37092,-0.0754 -0.15986,-0.15986 z m -81.49167,-0.26458 c 0.191,-0.0764 0.4192,-0.0671 0.50712,0.0209 0.0879,0.0879 -0.0684,0.15047 -0.34726,0.13899 -0.30824,-0.0127 -0.37092,-0.0754 -0.15986,-0.15987 z m 88.9,0 c 0.191,-0.0764 0.41921,-0.0671 0.50713,0.0209 0.0879,0.0879 -0.0684,0.15047 -0.34727,0.13899 -0.30824,-0.0127 -0.37092,-0.0754 -0.15986,-0.15987 z m -94.720837,-0.26459 c 0.191003,-0.0764 0.419206,-0.067 0.507127,0.0209 0.08792,0.0879 -0.06837,0.15047 -0.347266,0.13898 -0.308239,-0.0127 -0.370919,-0.0754 -0.159861,-0.15986 z M 204.94187,138.8824 c 0.191,-0.0764 0.4192,-0.067 0.50712,0.0209 0.0879,0.0879 -0.0684,0.15047 -0.34726,0.13899 -0.30824,-0.0127 -0.37092,-0.0754 -0.15986,-0.15986 z M 89.054363,138.618 c 0.191003,-0.0764 0.419206,-0.067 0.507127,0.0209 0.08792,0.0879 -0.06837,0.15047 -0.347266,0.13899 -0.30824,-0.0127 -0.370919,-0.0754 -0.159861,-0.15987 z m 120.914587,0 c 0.191,-0.0764 0.41921,-0.067 0.50713,0.0209 0.0879,0.0879 -0.0684,0.15047 -0.34727,0.13899 -0.30824,-0.0127 -0.37092,-0.0754 -0.15986,-0.15987 z m -443.97085,-1.32292 c 0.191,-0.0764 0.4192,-0.067 0.50712,0.0209 0.0879,0.0879 -0.0684,0.15047 -0.34727,0.13899 -0.30822,-0.0127 -0.37092,-0.0754 -0.15985,-0.15986 z m 12.7,-0.79375 c 0.191,-0.0764 0.4192,-0.067 0.50712,0.0209 0.0879,0.0879 -0.0684,0.15047 -0.34726,0.13899 -0.30823,-0.0127 -0.37092,-0.0754 -0.15986,-0.15986 z m -9.96278,-26.01304 c 0,-0.3638 0.06,-0.51263 0.13345,-0.33073 0.0734,0.1819 0.0734,0.47956 0,0.66146 -0.0734,0.1819 -0.13345,0.0331 -0.13345,-0.33073 z m 137.74,-13.933565 c 0.181901,-0.0734 0.479557,-0.0734 0.661458,0 0.181901,0.07339 0.03307,0.133456 -0.330729,0.133456 -0.363802,0 -0.51263,-0.06006 -0.330729,-0.133456 z m -7.92096,-0.270087 c 0.19099,-0.07644 0.4192,-0.06705 0.50711,0.0209 0.0879,0.08792 -0.0683,0.150469 -0.34726,0.138986 -0.30823,-0.0127 -0.37092,-0.07541 -0.15985,-0.159861 z m -5.55625,-0.264583 c 0.19099,-0.07644 0.4192,-0.06705 0.50711,0.0209 0.0879,0.08792 -0.0683,0.150468 -0.34726,0.138986 -0.30823,-0.0127 -0.37092,-0.07541 -0.15985,-0.159862 z m -2.64584,-59.795833 c 0.191,-0.07644 0.4192,-0.06705 0.50712,0.0209 0.0879,0.08792 -0.0684,0.150468 -0.34726,0.138985 -0.30823,-0.0127 -0.37092,-0.07541 -0.15986,-0.159861 z m 60.576136,-13.764736 c 0.329118,-0.06329 0.805368,-0.06088 1.058334,0.0053 0.252965,0.06622 -0.01632,0.118004 -0.598398,0.115067 -0.582083,-0.0029 -0.789053,-0.05712 -0.459936,-0.120411 z M 198.34313,-1.8934788 c -0.32909,-0.4196556 -0.31975,-0.4289954 0.0999,-0.099907 0.25466,0.1997339 0.46302,0.4080933 0.46302,0.4630208 0,0.2177785 -0.21728,0.077602 -0.56293,-0.3631142 z m -99.2346,-0.511466 c 0.191003,-0.076438 0.419206,-0.067045 0.507127,0.020902 0.08792,0.087921 -0.06837,0.1504685 -0.347266,0.1389856 -0.30824,-0.0127 -0.370919,-0.075406 -0.159861,-0.1598612 z M 82.560562,-2.6721475 c 0.257439,-0.067072 0.614627,-0.06268 0.79375,0.00979 0.179149,0.072469 -0.03149,0.1273439 -0.468048,0.1219729 -0.436563,-0.00529 -0.583116,-0.064691 -0.325702,-0.131789 z m -16.01232,-0.2564606 c 0.181901,-0.073396 0.479558,-0.073396 0.661459,0 0.181901,0.073395 0.03307,0.1334558 -0.33073,0.1334558 -0.363802,0 -0.51263,-0.06006 -0.330729,-0.1334558 z m 54.520708,-9.2659199 c 0.191,-0.07644 0.4192,-0.06705 0.50712,0.0209 0.0879,0.08792 -0.0684,0.150469 -0.34726,0.138986 -0.30824,-0.0127 -0.37092,-0.07541 -0.15986,-0.159862 z m 36.29752,-22.14417 c 0,-0.05493 0.20836,-0.263287 0.46303,-0.463021 0.41965,-0.329088 0.42899,-0.319749 0.0999,0.09991 -0.34565,0.440716 -0.56293,0.580893 -0.56293,0.363114 z m -16.17334,-3.538114 c -0.32909,-0.419656 -0.31975,-0.428995 0.0999,-0.09991 0.25466,0.199734 0.46302,0.408094 0.46302,0.463021 0,0.217779 -0.21728,0.0776 -0.56293,-0.363114 z"
         id="path140" />
      <path
         style="fill:#9a9a9a;stroke-width:0.264583"
         d="m 136.1384,140.19446 c 0.47556,-0.0589 1.18993,-0.0577 1.5875,0.003 0.39759,0.0603 0.008,0.10853 -0.86463,0.10705 -0.87313,-0.003 -1.19841,-0.0509 -0.72287,-0.10975 z m 21.96454,-0.004 c 0.76888,-0.0536 1.95951,-0.0531 2.64584,0 0.68635,0.0543 0.0573,0.0982 -1.39793,0.0975 -1.45521,0 -2.01676,-0.0451 -1.24791,-0.0987 z m -36.91321,-0.25257 c 0.25744,-0.0671 0.61463,-0.0627 0.79375,0.01 0.17915,0.0725 -0.0315,0.12734 -0.46805,0.12197 -0.43656,-0.005 -0.58311,-0.0647 -0.3257,-0.13179 z m 53.96997,0 c 0.25467,-0.0666 0.67138,-0.0666 0.92605,0 0.25466,0.0665 0.0463,0.12099 -0.46302,0.12099 -0.50933,0 -0.71769,-0.0545 -0.46303,-0.12099 z m -63.10312,-0.25744 c 0.1819,-0.0734 0.47955,-0.0734 0.66146,0 0.1819,0.0734 0.0331,0.13346 -0.33073,0.13346 -0.36381,0 -0.51263,-0.0601 -0.33073,-0.13346 z m 72.63315,-0.008 c 0.25744,-0.0671 0.61463,-0.0627 0.79375,0.01 0.17915,0.0725 -0.0315,0.12734 -0.46805,0.12197 -0.43656,-0.005 -0.58311,-0.0647 -0.3257,-0.13179 z m -79.49578,-0.26197 c 0.191,-0.0764 0.4192,-0.067 0.50712,0.0209 0.0879,0.0879 -0.0684,0.15046 -0.34726,0.13898 -0.30824,-0.0127 -0.37092,-0.0754 -0.15986,-0.15986 z m 86.90412,-0.003 c 0.25744,-0.0671 0.61462,-0.0627 0.79375,0.01 0.17914,0.0725 -0.0315,0.12734 -0.46805,0.12197 -0.43657,-0.005 -0.58312,-0.0647 -0.3257,-0.13179 z m -92.724957,-0.26197 c 0.191003,-0.0764 0.419206,-0.067 0.507127,0.0209 0.08792,0.0879 -0.06837,0.15046 -0.347266,0.13898 -0.308239,-0.0127 -0.370919,-0.0754 -0.159861,-0.15986 z m 99.483337,0 c 0.191,-0.0764 0.41921,-0.067 0.50713,0.0209 0.0879,0.0879 -0.0684,0.15046 -0.34727,0.13898 -0.30824,-0.0127 -0.37092,-0.0754 -0.15986,-0.15986 z m 10.31875,-0.52916 c 0.191,-0.0764 0.41921,-0.067 0.50713,0.0209 0.0879,0.0879 -0.0684,0.15047 -0.34727,0.13898 -0.30824,-0.0127 -0.37092,-0.0754 -0.15986,-0.15986 z M 85.614779,138.35222 c 0.191003,-0.0764 0.419206,-0.067 0.507127,0.0209 0.08792,0.0879 -0.06837,0.15046 -0.347265,0.13898 -0.30824,-0.0127 -0.37092,-0.0754 -0.159862,-0.15986 z m 41.835281,-0.10086 c -48.179248,-0.89542 -88.374485,-5.00914 -104.7963,-10.7252 -2.611226,-0.90889 -3.819896,-1.47008 -6.254301,-2.90383 -0.967449,-0.56978 -1.259998,-0.62849 -1.984375,-0.3983 -0.467307,0.14851 -1.98075,0.44635 -3.363198,0.66188 -3.2368491,0.50467 -6.0135004,1.36824 -6.4026046,1.99131 -0.1684629,0.26974 -0.4339008,0.44445 -0.5898648,0.38825 -0.1559666,-0.0562 -12.1302916,-1.05852 -26.6096146,-2.22734 -14.479324,-1.16885 -29.897918,-2.41721 -34.263543,-2.77413 -4.365626,-0.35695 -9.068594,-0.73078 -10.451042,-0.83077 -2.282836,-0.1651 -4.449811,-0.54882 -3.414446,-0.6046 0.713058,-0.0384 1.378752,-0.98703 1.198018,-1.70714 -0.12826,-0.51102 -0.441344,-0.71882 -1.486567,-0.98671 -0.72825,-0.18664 -1.324089,-0.47146 -1.324089,-0.63291 0,-0.16145 0.47625,-0.7892 1.058333,-1.39497 0.582084,-0.60579 1.058334,-1.26256 1.058334,-1.45952 0,-0.19693 0.406543,-0.55194 0.90343,-0.78891 0.496888,-0.23693 0.980813,-0.6746 1.075391,-0.9726 0.125767,-0.39624 0.682654,-0.69419 2.073132,-1.10911 1.045644,-0.31205 2.109531,-0.74832 2.364193,-0.96949 0.59205,-0.51421 0.59205,-1.25124 0,-1.69743 -0.254662,-0.19193 -0.624181,-0.63352 -0.821156,-0.98134 -0.310176,-0.54769 -0.30132,-0.66416 0.06615,-0.86982 0.657649,-0.36803 0.502457,-1.17776 -0.34081,-1.77824 -0.420801,-0.29964 -1.760254,-0.80422 -2.976562,-1.12133 -2.657195,-0.69273 -3.816274,-1.61443 -3.199088,-2.54397 0.320305,-0.48241 0.302638,-0.61195 -0.144436,-1.05902 -0.494194,-0.49419 -0.494774,-0.5185 -0.01939,-0.81539 0.598908,-0.374015 0.639942,-1.435179 0.07367,-1.905159 -0.228973,-0.190023 -2.044676,-0.558244 -4.034896,-0.81825 -5.139624,-0.67146 -8.456636,-1.172977 -11.952954,-1.807237 -3.541856,-0.642514 -13.525884,-1.149111 -22.754174,-1.154535 -6.97628,-0.004 -10.08193,0.370549 -16.33351,1.970405 -13.14188,3.363145 -15.74891,4.493286 -34.73106,15.055846 -1.23693,0.68826 -3.26099,1.78933 -4.49792,2.44679 -6.5759,3.49523 -9.80369,5.24288 -11.11251,6.01678 -2.93863,1.7376 -9.764,5.0224 -13.62603,6.55773 -7.54904,3.00106 -11.10486,4.15965 -19.61246,6.39019 -5.39918,1.4156 -7.2314,1.74381 -11.2115,2.0084 -1.38245,0.0919 -4.12089,0.33541 -6.08542,0.54112 -3.80067,0.39802 -7.7525,0.46739 -8.55843,0.15026 -0.42103,-0.16568 -0.19225,-0.52813 1.65365,-2.61967 1.17825,-1.33389 2.14228,-2.60402 2.14228,-2.82135 0,-0.86897 -0.92177,-0.95208 -3.20326,-0.28877 -1.21246,0.35248 -2.2491,0.59627 -2.30365,0.54171 -0.0545,-0.0545 0.3114,-0.85193 0.81322,-1.772 0.50182,-0.92006 1.94078,-3.69689 3.19768,-6.17074 l 2.28529,-4.49792 5.1804,-2.49687 c 4.07139,-1.96236 5.26094,-2.65263 5.55661,-3.2244 0.40377,-0.78078 0.29292,-1.43002 -0.28181,-1.65057 -0.19596,-0.0752 -1.76432,-0.0277 -3.48528,0.10556 -4.94261,0.38272 -5.37796,0.3574 -5.37796,-0.31273 0,-0.31216 0.41353,-1.41349 0.91897,-2.4474 0.84985,-1.73844 1.93858,-3.12703 6.92752,-8.835494 3.20121,-3.662892 4.78207,-6.434905 5.76552,-10.109782 0.85062,-3.178466 2.20179,-5.893753 3.84781,-7.732475 1.53867,-1.718812 5.60151,-4.554775 7.08379,-4.944692 0.89414,-0.235188 3.96128,-0.667835 17.12827,-2.416095 2.32833,-0.30914 4.51044,-0.696119 4.84914,-0.859976 1.2161,-0.588274 1.34673,-1.910794 0.21491,-2.175668 -0.31138,-0.07287 -5.56983,-0.470906 -11.68547,-0.884476 -6.11564,-0.413597 -11.35438,-0.870717 -11.64168,-1.015815 -1.69971,-0.858546 -2.15446,-1.18229 -3.48597,-2.481765 -1.2685,-1.237932 -1.80761,-2.129393 -3.94293,-6.519862 -1.36043,-2.797228 -3.11408,-6.130978 -3.897,-7.408334 -0.78293,-1.277382 -2.17094,-3.632173 -3.08448,-5.232902 -1.71475,-3.004662 -4.21609,-6.75521 -6.35251,-9.525 -0.67347,-0.873125 -1.82784,-2.483935 -2.56528,-3.579601 -0.73743,-1.09564 -1.53351,-2.152015 -1.76903,-2.347489 -0.61117,-0.507233 -0.52892,-0.851826 0.16707,-0.700009 0.32742,0.07144 2.38124,0.494957 4.56406,0.94115 2.18281,0.44622 5.04031,1.041612 6.35,1.323075 9.03776,1.942465 15.55149,3.184631 15.98244,3.047842 0.85718,-0.272045 0.88144,-0.928 0.0624,-1.686481 -0.58518,-0.541893 -4.00533,-1.781863 -14.94968,-5.419937 l -14.1909,-4.717309 -0.89469,-1.103524 c -2.13922,-2.638584 -3.7772,-7.723743 -3.07923,-9.559555 0.22956,-0.603779 0.39867,-0.685879 1.30281,-0.632539 0.57145,0.03371 1.20143,-0.07347 1.39994,-0.238231 0.19851,-0.164756 1.3501,-0.423598 2.55909,-0.575178 2.33256,-0.29247 5.5761,-0.07427 9.2943,0.625264 1.09141,0.205343 2.99641,0.505804 4.23334,0.667676 5.48273,0.717497 20.37926,3.599868 24.77598,4.793932 5.64586,1.53334 10.47926,3.015139 15.04381,4.612058 7.62405,2.667318 12.61754,4.313846 15.30159,5.045525 4.88187,1.330775 9.37058,2.561431 12.08279,3.312663 5.42221,1.501881 19.97007,4.71969 24.34166,5.384059 3.21607,0.488765 7.37903,0.863838 13.32467,1.200494 8.93679,0.506015 9.08523,0.494876 29.537841,-2.219087 5.705118,-0.757052 12.668208,-1.956779 16.801042,-2.89478 1.600729,-0.363299 3.624792,-0.795893 4.497917,-0.961337 3.319076,-0.628862 14.427822,-4.008517 18.31402,-5.571728 1.778024,-0.715195 4.344069,-1.527387 5.702321,-1.804855 2.585276,-0.528161 5.27036,-1.789933 5.761377,-2.707402 0.202271,-0.377957 0.143851,-0.615209 -0.247947,-1.007004 -0.485092,-0.485087 -0.850574,-0.506492 -6.819082,-0.39923 -3.468587,0.06234 -7.524163,0.158221 -9.012389,0.213095 -3.053982,0.112607 -3.023341,0.155417 -1.402625,-1.959266 0.39035,-0.509323 1.483175,-2.057135 2.428494,-3.439583 0.945322,-1.382448 2.342793,-3.40651 3.105491,-4.497917 0.762699,-1.0914059 1.930676,-2.7880465 2.595507,-3.7703121 1.159495,-1.7131242 1.253199,-1.7864138 2.29806,-1.7977379 3.708797,-0.040137 11.82972,-0.7377642 12.203981,-1.0483586 1.007176,-0.8358981 0.402931,-1.3838766 -3.838665,-3.48130809 -2.255573,-1.11535104 -4.200031,-2.07107891 -4.321017,-2.12383691 -0.120986,-0.052758 -0.01503,-0.5094287 0.235469,-1.0147829 0.250494,-0.5053806 0.656384,-1.321435 0.901978,-1.8134541 0.245594,-0.4920457 1.806506,-2.7481742 3.468698,-5.0136425 3.47676,-4.7386349 12.532911,-14.4678929 15.071736,-16.1919709 1.667846,-1.132602 1.968992,-1.188879 4.206375,-0.785839 1.581484,0.284877 7.1828983,1.072542 12.31905368,1.732254 8.69233012,1.116515 16.74484432,3.792669 27.31838932,9.078939 5.270711,2.635091 11.149092,5.207582 16.734737,7.3234546 2.401094,0.9095317 5.652268,2.2051962 7.224819,2.8792223 6.263931,2.6848858 11.425555,4.65029016 12.212797,4.65029016 0.456221,0 0.96266,-0.13319125 1.125484,-0.29601583 0.218202,-0.21820183 3.517742,-0.21888983 12.55448,-0.002646 6.742139,0.16131645 14.877839,0.34980562 18.079297,0.41883541 3.201459,0.0690298 6.832861,0.24825854 8.069791,0.39830375 1.23692,0.15001875 3.8563,0.46341771 5.82083,0.69643625 1.96453,0.233045 4.46484,0.53220936 5.55625,0.66481846 1.09141,0.1326357 6.92547,0.3032919 12.96458,0.3792273 7.47464,0.094033 12.17698,0.2733411 14.72875,0.5616311 2.06171,0.2329656 4.38343,0.3547798 5.15937,0.2707216 3.93875,-0.4266141 5.96398,-0.7853097 9.34834,-1.65576242 9.44825,-2.43003918 8.57647,-2.28398918 14.44157,-2.41982628 34.76342,-0.8051535 121.7865,23.3333136 178.57198,49.5322756 5.40361,2.493036 14.83299,7.239317 18.35711,9.240017 1.6382,0.930037 3.38741,1.911086 3.8871,2.180114 4.27731,2.302801 11.61669,7.581185 14.23887,10.240354 1.52413,1.545669 1.70257,1.841182 1.81441,3.005005 0.1071,1.11469 0.0271,1.405969 -0.58677,2.135505 -1.27757,1.518285 -9.92161,5.962518 -13.77712,7.083346 -1.89269,0.550227 -2.81741,1.350962 -2.49481,2.16027 0.12878,0.323056 0.50718,0.650848 0.8409,0.728397 0.33372,0.07752 4.5656,-0.190235 9.40417,-0.595021 l 8.79739,-0.736018 v 1.069472 c 0,3.102637 -5.02975,6.983069 -12.86703,9.926902 -2.9442,1.105879 -8.02952,3.662363 -10.15172,5.103442 -4.14732,2.816254 -15.94128,7.925754 -21.82812,9.456584 -6.85618,1.78292 -22.01519,7.10935 -24.49166,8.60565 -3.87594,2.34185 -5.09024,2.58641 -8.43108,1.69801 -1.08157,-0.28762 -2.47494,-0.52295 -3.0964,-0.52295 -1.16393,0 -2.47774,0.44368 -2.47774,0.83672 0,0.58666 -2.49492,2.49129 -4.63021,3.53473 -20.25163,9.89611 -97.94478,16.62845 -175.30496,15.19071 z m -360.27423,-0.96543 c 0.40218,-0.0608 0.99749,-0.0592 1.32291,0.004 0.32543,0.0628 -0.004,0.11255 -0.73124,0.11057 -0.7276,-0.003 -0.99386,-0.0534 -0.59167,-0.11419 z m 304.151449,0.009 c 0.191003,-0.0764 0.419206,-0.067 0.507127,0.0209 0.08792,0.0879 -0.06837,0.15047 -0.347266,0.13899 -0.30824,-0.0127 -0.370919,-0.0754 -0.159861,-0.15986 z m -79.375003,-9.26041 c 0.1909948,-0.0764 0.4192006,-0.0671 0.507119,0.0209 0.087918,0.0879 -0.068352,0.15047 -0.3472657,0.13898 -0.3082263,-0.0127 -0.3709194,-0.0754 -0.1598533,-0.15986 z m -48.947918,-3.96875 c 0.190994,-0.0764 0.4192,-0.067 0.507119,0.0209 0.08792,0.0879 -0.06835,0.15047 -0.347266,0.13898 -0.308226,-0.0127 -0.370919,-0.0754 -0.159853,-0.15986 z M -92.44981,96.549089 c 0.190994,-0.07644 0.4192,-0.06704 0.507119,0.0209 0.08792,0.08792 -0.06835,0.150469 -0.347266,0.138986 -0.308226,-0.0127 -0.370919,-0.07541 -0.159853,-0.159861 z m -8.21862,-0.25908 c 0.1819,-0.07339 0.47956,-0.07339 0.66146,0 0.181899,0.0734 0.03307,0.133456 -0.33073,0.133456 -0.3638,0 -0.51263,-0.06006 -0.33073,-0.133456 z m -5.53971,-0.270086 c 0.19099,-0.07644 0.4192,-0.06705 0.50711,0.0209 0.0879,0.08792 -0.0683,0.150468 -0.34726,0.138985 -0.30823,-0.0127 -0.37092,-0.07541 -0.15985,-0.159861 z M -213.84396,80.225885 c 0,-0.05493 0.20836,-0.263287 0.46303,-0.463021 0.41964,-0.329088 0.429,-0.319749 0.0999,0.09991 -0.34564,0.440716 -0.56292,0.580893 -0.56292,0.363114 z m 6.84542,-9.888114 c -0.32911,-0.419656 -0.31975,-0.428995 0.0999,-0.09991 0.25466,0.199734 0.46302,0.408094 0.46302,0.463021 0,0.217779 -0.21727,0.0776 -0.56292,-0.363114 z m 595.5771,-1.322917 c -0.32909,-0.419655 -0.31975,-0.428995 0.0999,-0.09991 0.25466,0.199734 0.46302,0.408093 0.46302,0.46302 0,0.217779 -0.21727,0.0776 -0.56292,-0.363114 z m -599.40494,-1.455208 -0.50403,-0.595313 0.59531,0.504032 c 0.55944,0.473657 0.71576,0.686593 0.50403,0.686593 -0.0502,0 -0.3181,-0.26789 -0.59531,-0.595312 z m 100.3849,-31.335424 c 0.191,-0.07644 0.4192,-0.06705 0.50712,0.0209 0.0879,0.08792 -0.0683,0.150468 -0.34726,0.138985 -0.30823,-0.0127 -0.37092,-0.07541 -0.15986,-0.159861 z m 59.64701,-13.759974 c 0.254661,-0.06657 0.67138,-0.06657 0.926041,0 0.254662,0.06654 0.0463,0.120994 -0.46302,0.120994 -0.509323,0 -0.717683,-0.05445 -0.463021,-0.120994 z m 12.793401,-0.0381 c -0.07495,-0.121285 0.03185,-0.220504 0.237328,-0.220504 0.205478,0 0.312277,0.09922 0.237329,0.220504 -0.07495,0.121259 -0.181745,0.220477 -0.237329,0.220477 -0.05558,0 -0.162382,-0.09922 -0.237328,-0.220477 z M 143.7847,0.25454102 c -0.12118,-0.12620625 -5.3004,-0.30781625 -11.50938,-0.4035425 -10.41887,-0.16068146 -19.54085,-0.58152771 -19.87637,-0.91701942 -0.0767,-0.076756 0.0976,-0.2654829 0.38743,-0.4194175 0.28982,-0.1539345 1.25076,-1.0111316 2.13542,-1.9048941 1.86775,-1.8869819 2.49259,-3.3571127 2.49259,-5.8645954 v -1.6448091 l 0.99219,0.230426 c 1.66714,0.387138 4.37303,0.270219 6.53327,-0.282258 4.0049,-1.024281 6.89394,-3.323404 8.55554,-6.808575 0.93584,-1.962865 0.98108,-2.183474 0.97026,-4.731809 l -0.0114,-2.672953 1.46807,0.672227 c 3.1864,1.458992 6.01594,0.903817 8.43616,-1.655207 1.06304,-1.124003 1.36782,-1.664441 1.61782,-2.868692 0.16941,-0.81608 0.229,-1.905026 0.13242,-2.419905 l -0.17563,-0.936096 1.68178,0.852831 c 1.5613,0.79174 1.87129,0.852832 4.3276,0.852832 2.31886,0 2.83337,-0.08789 4.16343,-0.711253 2.05126,-0.961337 3.9824,-2.953279 5.07648,-5.23621 l 0.88905,-1.855126 0.962,2.025729 c 2.39551,5.044255 6.93365,9.843611 11.43429,12.092438 2.45917,1.228777 4.29969,1.736751 6.98886,1.928891 1.95638,0.13978 2.43467,0.08525 3.53939,-0.40341 0.70252,-0.310753 1.30479,-0.565018 1.33839,-0.565018 0.0336,0 0.20458,1.101329 0.37994,2.447396 1.03376,7.934934 4.17166,15.7860738 7.37968,18.4642392 0.87072,0.7269162 0.90448,0.7981685 0.31412,0.6629929 -1.82042,-0.4167981 -12.4324,-1.5051881 -17.36215,-1.7806987 -4.30308,-0.2405063 -6.46311,-0.2401623 -9.39271,0.00265 -3.28665,0.2710656 -5.96492,0.7084483 -5.12744,0.8373533 0.40479,0.062309 -3.57957,1.2416102 -7.27604,2.15357606 -2.68769,0.66309875 -4.0508,0.84148083 -7.27604,0.95226187 -2.18281,0.0749565 -4.06789,0.0330465 -4.18907,-0.0931598 z M 98.31478,-2.4049448 c 0.191002,-0.076438 0.419206,-0.067045 0.507127,0.020902 0.08792,0.087921 -0.06837,0.1504685 -0.347266,0.1389856 -0.30824,-0.0127 -0.370919,-0.075406 -0.159861,-0.1598612 z M 81.646029,-2.6695281 c 0.191003,-0.076438 0.419206,-0.067045 0.507127,0.020902 0.08792,0.087921 -0.06837,0.1504686 -0.347266,0.1389857 -0.308239,-0.0127 -0.370919,-0.075406 -0.159861,-0.1598613 z m -16.15612,-0.25908 c 0.181901,-0.073396 0.479557,-0.073396 0.661458,0 0.181901,0.073395 0.03307,0.1334558 -0.330729,0.1334558 -0.363802,0 -0.51263,-0.06006 -0.330729,-0.1334558 z M 129.58522,-15.288698 c 0,-0.05493 0.20836,-0.263287 0.46302,-0.463021 0.41966,-0.329088 0.429,-0.319749 0.0999,0.09991 -0.34565,0.440716 -0.56293,0.580893 -0.56293,0.363114 z m 52.72326,-8.814699 c 0.25744,-0.06707 0.61463,-0.06268 0.79375,0.0098 0.17915,0.07247 -0.0315,0.127344 -0.46805,0.121973 -0.43656,-0.0053 -0.58311,-0.06469 -0.3257,-0.131789 z m -13.06952,-6.100498 c -0.32908,-0.419656 -0.31974,-0.428996 0.0999,-0.09991 0.25466,0.199734 0.46302,0.408093 0.46302,0.463021 0,0.217778 -0.21727,0.0776 -0.56293,-0.363114 z"
         id="path138" />
      <path
         style="fill:#909294;stroke-width:0.264583"
         d="m 138.29375,140.27527 c -0.0764,-0.0764 -3.64461,-0.16193 -7.92943,-0.19013 -21.33775,-0.14042 -48.652621,-1.61158 -68.363419,-3.68197 -14.413812,-1.514 -25.369521,-3.25575 -34.015681,-5.40784 -5.33699,-1.3284 -7.775549,-2.1531 -10.645379,-3.60016 -1.450498,-0.73139 -2.384213,-1.03188 -3.206485,-1.03188 -1.679575,0 -5.5069213,0.71215 -7.1177074,1.32437 -0.7632462,0.29009 -1.5531888,0.5275 -1.7554284,0.52758 -0.2022369,8e-5 -0.5066004,0.19008 -0.6763597,0.42225 -0.2812653,0.38465 -1.199478,0.34941 -10.347918,-0.39703 -14.1371195,-1.15351 -47.6752405,-3.87115 -58.9328835,-4.77544 -5.94404,-0.47747 -9.614075,-0.87977 -9.85573,-1.08032 -0.211767,-0.17574 -0.385029,-0.66702 -0.385029,-1.09175 0,-0.65672 0.168134,-0.84402 1.124479,-1.25251 l 1.124479,-0.48033 -0.79375,-0.15613 c -0.436562,-0.0859 -1.329531,-0.23071 -1.984375,-0.32189 -1.920494,-0.26741 -2.155346,-0.38219 -2.065946,-1.00976 0.06259,-0.43934 0.43752,-0.6882 1.61108,-1.06936 1.731301,-0.56232 2.914848,-1.54019 3.620823,-2.99159 0.425751,-0.8753 0.435713,-1.02616 0.08471,-1.28281 -0.218784,-0.15999 -0.354259,-0.51691 -0.301054,-0.79317 0.102402,-0.53173 0.342707,-0.61685 3.731605,-1.32151 2.020178,-0.42008 2.048449,-0.43715 1.881007,-1.13594 -0.0935,-0.3902 -0.197651,-0.74393 -0.231455,-0.78607 -0.0338,-0.0421 -0.880255,-0.22776 -1.881007,-0.41246 -1.661052,-0.30657 -1.819551,-0.39209 -1.819551,-0.98171 0,-0.52639 0.18356,-0.69123 0.992188,-0.89099 0.545703,-0.1348 0.992188,-0.31858 0.992188,-0.40843 0,-0.0898 -0.73405,-0.32618 -1.631223,-0.52523 -1.247831,-0.27683 -1.869689,-0.5933 -2.645833,-1.34654 -0.980229,-0.95126 -1.297832,-1.89863 -0.750028,-2.23719 0.469863,-0.29038 0.283099,-0.60325 -0.529167,-0.8864 -0.876972,-0.3057 -1.043966,-0.98896 -0.363349,-1.486645 0.349625,-0.25564 -0.208992,-0.400632 -2.976563,-0.772556 -1.873829,-0.251831 -5.014307,-0.743771 -6.978838,-1.093232 -5.125638,-0.911754 -7.769268,-1.13202 -17.72709,-1.47709 -12.52651,-0.434075 -16.18417,-0.09157 -25.62666,2.399692 -8.05255,2.124551 -14.46151,4.617081 -20.54313,7.989541 -6.05982,3.36037 -13.38416,7.36174 -17.59479,9.61229 -2.4011,1.28336 -6.34351,3.43731 -8.76091,4.78655 -11.15426,6.22559 -21.28958,10.15071 -35.78648,13.85906 -4.54767,1.16332 -5.81464,1.38102 -9.3927,1.6139 -2.27478,0.14807 -5.14799,0.38243 -6.38492,0.52084 -4.31604,0.48283 -11.30046,0.15615 -12.01879,-0.56216 -0.17499,-0.175 0.79026,-2.25396 1.1496,-2.47605 0.13597,-0.084 0.61671,-0.61931 1.06832,-1.18952 l 0.8211,-1.03674 -2.01311,0.54724 c -1.79524,0.48799 -2.05635,0.50398 -2.41258,0.14777 -0.35623,-0.35624 0.0287,-1.24069 3.5562,-8.17195 l 3.95567,-7.77245 3.93898,-2.06087 c 3.55436,-1.85962 3.82273,-2.04742 2.74836,-1.92334 -0.65484,0.0756 -1.8887,0.16077 -2.74192,0.18913 -1.3623,0.0453 -1.6114,-0.0266 -2.04463,-0.59021 -0.99064,-1.28873 -0.38546,-4.00264 1.54056,-6.90864 0.54837,-0.82738 2.36009,-3.08459 4.02605,-5.016 4.94829,-5.736718 6.50137,-8.250153 7.4544,-12.063884 1.02094,-4.085458 3.48926,-8.095245 6.25696,-10.164419 3.26441,-2.440543 5.95681,-3.927395 7.11169,-3.927395 0.92895,0 14.20351,-1.851766 14.35411,-2.00234 0.0629,-0.06289 -0.23295,-0.114909 -0.65739,-0.115597 -0.42443,0 -4.15593,-0.23913 -8.29222,-0.529828 -5.38607,-0.378539 -7.63887,-0.632116 -7.9375,-0.893471 -0.22934,-0.200713 -0.70439,-0.452755 -1.05567,-0.560097 -0.35128,-0.107368 -1.61651,-1.163241 -2.81162,-2.346404 -2.068,-2.047346 -2.28234,-2.374794 -4.43903,-6.78143 -2.01983,-4.127024 -5.08095,-9.585007 -8.5802,-15.298552 -0.6525,-1.065424 -2.20324,-3.327612 -3.44607,-5.027083 -1.24283,-1.699498 -2.80074,-3.861409 -3.46201,-4.804252 -0.66127,-0.942869 -1.95237,-2.650913 -2.86912,-3.795686 -0.91674,-1.144772 -1.6668,-2.166302 -1.6668,-2.270072 0,-0.103743 0.15816,-0.404945 0.35147,-0.66929 0.33513,-0.458311 0.74884,-0.398674 8.89728,1.2827 4.7002,0.969857 8.59103,1.718152 8.64629,1.66288 0.0553,-0.05524 -3.6211,-1.321435 -8.16968,-2.813738 -9.11948,-2.991908 -8.83845,-2.840064 -11.01492,-5.95204 -1.43658,-2.05404 -2.67919,-5.866077 -2.67919,-8.21907 0,-1.513046 0.0887,-1.811734 0.76198,-2.565267 0.71396,-0.799042 0.95992,-0.882148 3.90261,-1.318472 4.08486,-0.605658 6.65493,-0.598646 10.54895,0.02881 1.74625,0.281385 4.60375,0.705591 6.35,0.942684 1.74625,0.237093 5.42697,0.845661 8.17937,1.352391 13.27808,2.444565 21.79289,4.682358 33.57958,8.825072 8.43479,2.964603 10.37713,3.554571 22.13793,6.724226 8.10928,2.185538 20.62941,5.078942 25.79687,5.961671 4.38105,0.748401 16.09108,1.611419 21.86469,1.611419 1.56949,0 4.73341,-0.238734 7.030927,-0.530543 15.318277,-1.945534 24.097266,-3.246834 28.783559,-4.266591 1.309687,-0.28501 3.81,-0.813065 5.55625,-1.173507 5.629481,-1.16197 15.973669,-4.298976 20.762363,-6.296448 1.232839,-0.514271 3.078308,-1.078283 4.101041,-1.253384 1.022731,-0.175102 1.969837,-0.416534 2.104674,-0.536496 0.135823,-0.120862 0.01452,-0.173725 -0.272005,-0.11856 -1.094941,0.210873 -15.601689,0.260932 -15.929793,0.05498 -0.235355,-0.147744 -0.288126,-0.484611 -0.164801,-1.052037 0.183996,-0.84656 10.709897,-16.2923268 11.735059,-17.2200882 0.443667,-0.4015052 1.19312,-0.5512065 3.662717,-0.7316258 1.707701,-0.1247246 3.997881,-0.2966773 5.089287,-0.3820848 l 1.984376,-0.155284 -3.384664,-1.6976196 c -1.861566,-0.93368808 -3.450262,-1.86856683 -3.530434,-2.0774818 -0.08017,-0.208915 0.08057,-0.7115175 0.357201,-1.1168592 0.276635,-0.4053417 0.87907,-1.5109031 1.338744,-2.4567885 2.373633,-4.8842877 14.216666,-18.5196951 19.125904,-22.0205031 2.536643,-1.808904 2.864671,-1.892671 5.52808,-1.411923 1.243553,0.224473 4.225534,0.653838 6.6266278,0.954167 10.8575611,1.358027 13.7078249,1.925002 19.7114592,3.921072 3.988329,1.326012 10.306923,4.025212 13.909014,5.941695 3.591216,1.910689 10.738935,5.038513 17.047237,7.4598477 2.764896,1.0612702 6.039115,2.3674123 7.276042,2.9025586 6.538436,2.8287926 10.736792,4.3885379 11.376078,4.2264012 0.741707,-0.1881452 2.855833,-0.1867958 19.31559,0.012171 12.585727,0.1522148 15.414096,0.2462213 21.170367,0.7036594 3.5006,0.2781829 3.96854,0.2627312 5.29167,-0.1748102 4.46913,-1.4778831 7.07578,-5.4439873 5.71632,-8.6976217 -0.25098,-0.600683 -0.81023,-1.127892 -1.78594,-1.683597 -1.85407,-1.056005 -3.6695,-2.391463 -3.6695,-2.699305 0,-0.134223 0.1783,-0.422355 0.39624,-0.640265 0.35192,-0.351949 0.57451,-0.319326 1.99038,0.291597 0.8768,0.378301 2.05438,1.081775 2.61691,1.563264 1.2704,1.087411 1.97617,1.359694 4.39724,1.696429 5.08244,0.706914 10.3608,-1.802977 12.48823,-5.93815 0.5606,-1.08966 0.71888,-1.823137 0.80643,-3.737001 0.16182,-3.537188 -0.41871,-4.906566 -3.2856,-7.750254 -1.21655,-1.206712 -2.21192,-2.30386 -2.21192,-2.438083 0,-0.134249 0.22453,-0.364252 0.49895,-0.511122 0.62921,-0.336735 1.89807,0.553244 4.05961,2.847419 2.70619,2.872264 5.45235,4.552315 7.41918,4.538927 1.2382,-0.0085 2.81639,-0.828013 4.02956,-2.092695 l 1.05833,-1.103286 v -2.433981 c 0,-2.127621 -0.0928,-2.623053 -0.73753,-3.935836 -0.73615,-1.499103 -2.54674,-3.579336 -3.99864,-4.594146 -0.7193,-0.502761 -0.7519,-0.602139 -0.51967,-1.58406 0.14094,-0.596001 0.42555,-1.081881 0.66019,-1.127046 0.38592,-0.07432 1.91357,1.700953 5.31214,6.173258 1.38687,1.825043 2.71301,2.834005 4.5456,3.458422 2.71978,0.92673 6.60757,-0.165021 8.55548,-2.402496 1.23722,-1.421103 2.45383,-4.009099 2.45409,-5.220361 1.4e-4,-0.656194 0.21215,-1.221423 0.64503,-1.719792 0.56806,-0.654024 0.68879,-0.69514 1.01436,-0.345493 0.20328,0.218281 0.82309,1.565619 1.37739,2.994078 2.23208,5.752095 6.40689,10.589128 11.38323,13.188818 2.46689,1.288759 4.37435,1.808612 6.90184,1.881055 1.85727,0.05323 2.23983,-0.02223 3.3841,-0.667597 1.40787,-0.794041 2.28177,-0.933106 2.28177,-0.363114 0,0.200448 0.16057,0.497734 0.35687,0.660638 0.22971,0.190659 0.41735,1.215469 0.52673,2.876656 0.30657,4.657011 1.90013,10.370529 3.79489,13.6060922 1.09336,1.8670587 3.1278,4.1156466 4.63079,5.1182587 0.62796,0.4189148 1.43941,1.0288587 1.80322,1.3554339 0.5235,0.4699265 1.50132,0.73575338 4.68825,1.27441858 29.36423,4.96337162 72.63631,17.08761162 108.15654,30.30397262 27.22923,10.131425 46.61736,18.79645 61.18355,27.344396 5.79366,3.399922 9.36527,5.848059 13.51936,9.266767 1.95289,1.607185 3.96373,4.009416 4.1134,4.91408 0.60772,3.673263 -0.45432,4.862168 -7.39383,8.277119 -1.88352,0.926862 -3.84128,1.880658 -4.3506,2.119524 l -0.92604,0.434313 0.9502,0.01693 c 0.5226,0.0093 3.78745,-0.226298 7.25524,-0.523558 5.14734,-0.441272 6.36246,-0.477705 6.61771,-0.198437 0.21825,0.23876 0.25842,0.950357 0.13306,2.356776 -0.20098,2.254408 -0.85098,3.625109 -2.54474,5.366252 -1.99583,2.051659 -7.63207,5.290238 -11.32163,6.50539 -2.22162,0.731705 -6.62633,2.974472 -10.87943,5.539579 -6.62596,3.99621 -14.58701,7.30996 -23.18742,9.65168 -2.38109,0.64831 -5.51987,1.592 -6.97508,2.09706 -8.85388,3.07303 -13.54574,4.88614 -15.90114,6.14482 -4.09128,2.18628 -5.93349,2.48124 -9.19475,1.47219 -2.38892,-0.73916 -4.14057,-0.64407 -4.14057,0.22477 0,1.01777 -2.98974,3.01821 -6.74687,4.51429 -18.30785,7.29017 -63.24481,12.55017 -121.97292,14.27729 -10.57302,0.31094 -41.22876,0.62293 -41.43002,0.42164 z m 29.52377,-2.00613 c 65.54631,-1.22105 118.53683,-7.19301 134.9375,-15.20732 2.13529,-1.04344 4.63021,-2.94807 4.63021,-3.53473 0,-0.39304 1.31381,-0.83672 2.47774,-0.83672 0.62146,0 2.01483,0.23533 3.0964,0.52295 3.34084,0.8884 4.55514,0.64384 8.43108,-1.69801 2.47647,-1.4963 17.63548,-6.82273 24.49166,-8.60565 5.88684,-1.53083 17.6808,-6.64033 21.82812,-9.456584 2.1222,-1.441079 7.20752,-3.997563 10.15172,-5.103442 7.83728,-2.943833 12.86703,-6.824265 12.86703,-9.926902 V 83.35326 l -8.79739,0.736018 c -4.83857,0.404786 -9.07045,0.672544 -9.40417,0.595021 -0.33372,-0.07755 -0.71212,-0.405341 -0.8409,-0.728397 -0.3226,-0.809308 0.60212,-1.610043 2.49481,-2.16027 3.85551,-1.120828 12.49955,-5.565061 13.77712,-7.083346 0.61383,-0.729536 0.69387,-1.020815 0.58677,-2.135505 -0.11184,-1.163823 -0.29028,-1.459336 -1.81441,-3.005005 -2.62218,-2.659169 -9.96156,-7.937553 -14.23887,-10.240354 -0.49969,-0.269028 -2.2489,-1.250077 -3.8871,-2.180114 -3.52412,-2.0007 -12.9535,-6.746981 -18.35711,-9.240017 C 307.58819,28.229572 246.17962,8.9534324 201.94877,1.3602877 c -13.34791,-2.29145043 -22.24151,-3.1672742 -30.27302,-2.9812721 -5.8651,0.1358371 -4.99332,-0.010319 -14.44157,2.41982625 -3.38436,0.87045275 -5.40959,1.22914835 -9.34834,1.65576245 -0.77594,0.084058 -3.09766,-0.037756 -5.15937,-0.2707216 -2.55177,-0.28829 -7.25411,-0.4675981 -14.72875,-0.5616311 -6.03911,-0.075935 -11.87317,-0.2465916 -12.96458,-0.3792273 -1.09141,-0.1326091 -3.59172,-0.43177349 -5.55625,-0.66481849 -1.96453,-0.23301854 -4.58391,-0.5464175 -5.82083,-0.69643625 -1.23693,-0.15004521 -4.868337,-0.32927396 -8.069796,-0.39830375 -3.201458,-0.0690298 -11.337158,-0.25751896 -18.079297,-0.41883541 -9.036738,-0.216244 -12.336278,-0.215556 -12.55448,0.002646 -0.162824,0.16282458 -0.669263,0.29601583 -1.125484,0.29601583 -0.787242,0 -5.948866,-1.96540433 -12.212797,-4.65029013 C 50.041655,-5.9610242 46.790481,-7.2566887 44.389387,-8.1662204 38.803742,-10.282093 32.925361,-12.854584 27.65465,-15.489675 17.081105,-20.775945 9.0285908,-23.452099 0.33626068,-24.568614 -4.7998947,-25.228326 -10.401309,-26.015991 -11.982793,-26.300868 c -2.237383,-0.40304 -2.538529,-0.346763 -4.206375,0.785839 -2.538825,1.724078 -11.594976,11.453336 -15.071736,16.1919709 -1.662192,2.2654683 -3.223104,4.5215968 -3.468698,5.0136425 -0.245594,0.4920191 -0.651484,1.3080735 -0.901978,1.8134541 -0.250492,0.5053542 -0.356455,0.962025 -0.235469,1.0147829 0.120986,0.052758 2.065444,1.00848587 4.321017,2.12383691 4.241596,2.09743149 4.845841,2.64540999 3.838665,3.48130809 -0.374261,0.3105944 -8.495184,1.0082213 -12.203981,1.0483586 -1.044861,0.011377 -1.138565,0.084614 -2.29806,1.7977379 -0.664831,0.9822656 -1.832808,2.6789062 -2.595507,3.7703121 -0.762698,1.091407 -2.160169,3.115469 -3.105491,4.497917 -0.945319,1.382448 -2.038144,2.93026 -2.428494,3.439583 -1.620716,2.114683 -1.651357,2.071873 1.402625,1.959266 1.488226,-0.05487 5.543802,-0.150759 9.012389,-0.213095 5.968508,-0.107262 6.33399,-0.08586 6.819082,0.39923 0.391798,0.391795 0.450218,0.629047 0.247947,1.007004 -0.491017,0.917469 -3.176101,2.179241 -5.761377,2.707402 -1.358252,0.277468 -3.924297,1.08966 -5.702321,1.804855 -3.886198,1.563211 -14.994944,4.942866 -18.31402,5.571728 -0.873125,0.165444 -2.897188,0.598038 -4.497917,0.961337 -4.132834,0.938001 -11.095924,2.137728 -16.801042,2.89478 -20.452606,2.713963 -20.601046,2.725102 -29.537836,2.219087 -5.94564,-0.336656 -10.1086,-0.711729 -13.32467,-1.200494 -4.37159,-0.664369 -18.91945,-3.882178 -24.34166,-5.384059 -2.71221,-0.751232 -7.20092,-1.981888 -12.08279,-3.312663 -2.68405,-0.731679 -7.67754,-2.378207 -15.30159,-5.045525 -4.56455,-1.596919 -9.39795,-3.078718 -15.04381,-4.612058 -4.39672,-1.194064 -19.29325,-4.076435 -24.77598,-4.793932 -1.23693,-0.161872 -3.14193,-0.462333 -4.23334,-0.667676 -3.7182,-0.699532 -6.96174,-0.917734 -9.2943,-0.625264 -1.20899,0.15158 -2.36058,0.410422 -2.55909,0.575178 -0.19851,0.164756 -0.82849,0.271939 -1.39994,0.238231 -0.90414,-0.05334 -1.07325,0.02876 -1.30281,0.632539 -0.69797,1.835812 0.94001,6.920971 3.07923,9.559555 l 0.89469,1.103524 14.1909,4.717309 c 10.94435,3.638074 14.3645,4.878044 14.94968,5.419937 0.81907,0.758481 0.79481,1.414436 -0.0624,1.686481 -0.43095,0.136789 -6.94468,-1.105377 -15.98244,-3.047842 -1.30969,-0.281463 -4.16719,-0.876855 -6.35,-1.323075 -2.18282,-0.446193 -4.23664,-0.869712 -4.56407,-0.94115 -0.69599,-0.151817 -0.77824,0.192776 -0.16707,0.700009 0.23553,0.195474 1.0316,1.251849 1.76904,2.347489 0.73744,1.095666 1.89181,2.706476 2.56528,3.579601 2.13642,2.76979 4.63776,6.520338 6.35251,9.525 0.91353,1.600729 2.30154,3.95552 3.08447,5.232902 0.78293,1.277356 2.53658,4.611106 3.89701,7.408334 2.13531,4.390469 2.67443,5.28193 3.94293,6.519862 1.33151,1.299475 1.78626,1.623219 3.48597,2.481765 0.28729,0.145098 5.52604,0.602218 11.64167,1.015815 6.11564,0.41357 11.3741,0.811609 11.68547,0.884476 1.13182,0.264874 1.00119,1.587394 -0.21491,2.175668 -0.33869,0.163857 -2.5208,0.550836 -4.84914,0.859976 -13.16698,1.74826 -16.23412,2.180907 -17.12826,2.416095 -1.48228,0.389917 -5.54512,3.22588 -7.08379,4.944692 -1.64602,1.838722 -2.99719,4.554009 -3.84781,7.732475 -0.98345,3.674877 -2.56431,6.44689 -5.76552,10.109782 -4.98894,5.708464 -6.07767,7.097054 -6.92752,8.835494 -0.50544,1.03391 -0.91897,2.13524 -0.91897,2.4474 0,0.67013 0.43535,0.69545 5.37796,0.31273 1.72095,-0.13324 3.28932,-0.18076 3.48527,-0.10556 0.57473,0.22055 0.68558,0.86979 0.28181,1.65057 -0.29567,0.57177 -1.48522,1.26204 -5.55661,3.2244 l -5.1804,2.49687 -2.28529,4.49792 c -1.2569,2.47385 -2.69586,5.25068 -3.19768,6.17074 -0.50182,0.92007 -0.86777,1.71747 -0.81322,1.772 0.0546,0.0546 1.09119,-0.18923 2.30365,-0.54171 2.28149,-0.66331 3.20326,-0.5802 3.20326,0.28877 0,0.21733 -0.96403,1.48746 -2.14228,2.82252 -1.8459,2.09153 -2.07468,2.45398 -1.65365,2.61967 0.80592,0.31712 4.75775,0.24775 8.55843,-0.15026 1.96453,-0.20572 4.70297,-0.44924 6.08541,-0.54113 3.98011,-0.26458 5.81233,-0.5928 11.2115,-2.0084 8.50761,-2.23054 12.06343,-3.38912 19.61246,-6.39019 3.86204,-1.53532 10.68741,-4.82012 13.62605,-6.55772 1.30882,-0.77391 4.5366,-2.52156 11.1125,-6.01679 1.23692,-0.65746 3.26099,-1.75852 4.49791,-2.44678 18.98216,-10.56257 21.58918,-11.692707 34.73108,-15.055852 6.25158,-1.599856 9.35723,-1.974506 16.33351,-1.970405 9.22829,0.0056 19.21231,0.512021 22.754166,1.154536 3.496318,0.634259 6.813331,1.135776 11.952955,1.807236 1.990219,0.260006 3.805922,0.628227 4.034896,0.81825 0.566269,0.46998 0.525235,1.531144 -0.07367,1.905159 -0.475377,0.296886 -0.474797,0.321206 0.01939,0.815396 0.447075,0.44706 0.464741,0.5766 0.144436,1.05902 -0.617185,0.92953 0.541893,1.85124 3.199088,2.54397 1.216308,0.3171 2.555761,0.82169 2.976563,1.12133 0.843267,0.60047 0.998458,1.4102 0.34081,1.77824 -0.367467,0.20566 -0.376323,0.32213 -0.06615,0.86981 0.196974,0.34782 0.566494,0.78941 0.821155,0.98134 0.59205,0.4462 0.59205,1.18322 0,1.69744 -0.254661,0.22116 -1.318548,0.65743 -2.364192,0.96948 -1.390478,0.41492 -1.947365,0.71287 -2.073132,1.10911 -0.09458,0.298 -0.578504,0.73567 -1.075391,0.97261 -0.496888,0.23696 -0.903431,0.59198 -0.903431,0.78891 0,0.19695 -0.47625,0.85373 -1.058333,1.45952 -0.582084,0.60576 -1.058334,1.23351 -1.058334,1.39496 0,0.16145 0.595839,0.44627 1.324089,0.63291 1.045224,0.26789 1.358308,0.47569 1.486567,0.98671 0.180734,0.72012 -0.48496,1.6687 -1.198017,1.70715 -1.035365,0.0558 1.131609,0.4395 3.414445,0.6046 1.382448,0.1 6.085417,0.47381 10.451042,0.83076 4.365625,0.35692 19.784219,1.60528 34.263543,2.77413 14.4793233,1.16882 26.4536484,2.17114 26.609615,2.22734 0.1559639,0.0562 0.4214019,-0.1185 0.5898647,-0.38825 0.3891042,-0.62306 3.1657556,-1.48664 6.4026043,-1.9913 1.382448,-0.21553 2.895892,-0.51338 3.363199,-0.66189 0.724376,-0.23018 1.016926,-0.17147 1.984375,0.39831 2.434405,1.43375 3.643074,1.99493 6.2543,2.90383 21.373598,7.43966 81.919877,11.91995 145.163757,10.74181 z M 155.24981,-0.60456106 c 3.69647,-0.91196584 7.68083,-2.09126664 7.27604,-2.15357604 -0.83749,-0.128905 1.84079,-0.5662877 5.12744,-0.8373533 2.9296,-0.2416175 5.08963,-0.2419615 9.39271,-0.00265 4.92974,0.2755107 15.54173,1.3639007 17.36214,1.7806988 0.59037,0.1351756 0.55661,0.063923 -0.31411,-0.6629929 -3.20802,-2.6781654 -6.34593,-10.5293055 -7.37968,-18.4642385 -0.17537,-1.346068 -0.34634,-2.447396 -0.37994,-2.447396 -0.0336,0 -0.63587,0.254264 -1.3384,0.565018 -1.10471,0.488659 -1.583,0.543189 -3.53938,0.40341 -2.68917,-0.192141 -4.52969,-0.700114 -6.98886,-1.928892 -4.50065,-2.248826 -9.03878,-7.048183 -11.43429,-12.092437 l -0.962,-2.02573 -0.88905,1.855126 c -1.09408,2.282931 -3.02522,4.274873 -5.07648,5.23621 -1.33006,0.623359 -1.84457,0.711253 -4.16343,0.711253 -2.45632,0 -2.7663,-0.06109 -4.32761,-0.852831 l -1.68177,-0.852832 0.17563,0.936096 c 0.0966,0.514879 0.037,1.603825 -0.13242,2.419906 -0.25001,1.204251 -0.55478,1.744689 -1.61782,2.868692 -2.42023,2.559023 -5.24976,3.114198 -8.43616,1.655206 l -1.46807,-0.672226 0.0114,2.672953 c 0.0108,2.548334 -0.0344,2.768944 -0.97026,4.731808 -1.66161,3.485171 -4.55065,5.784294 -8.55554,6.808576 -2.16024,0.552476 -4.86614,0.669396 -6.53328,0.282257 l -0.99218,-0.230425 v 1.6448084 c 0,2.5074827 -0.62484,3.9776135 -2.49259,5.8645954 -0.88466,0.8937625 -1.8456,1.7509595 -2.13543,1.9048941 -0.28982,0.1539346 -0.46415,0.3426619 -0.38743,0.4194175 0.33552,0.33549169 9.45751,0.75633793 19.87638,0.91701939 6.20898,0.09572625 11.38819,0.27733625 11.50937,0.4035425 0.12118,0.12620625 2.00626,0.16811625 4.18907,0.0931598 3.22525,-0.11078104 4.58835,-0.28916312 7.27604,-0.95226187 z"
         id="path136" />
    </g>
  </g>
</svg>
