<?xml version="1.0" encoding="UTF-8" standalone="no"?>
<svg
   xmlns:dc="http://purl.org/dc/elements/1.1/"
   xmlns:cc="http://creativecommons.org/ns#"
   xmlns:rdf="http://www.w3.org/1999/02/22-rdf-syntax-ns#"
   xmlns:svg="http://www.w3.org/2000/svg"
   xmlns="http://www.w3.org/2000/svg"
   xmlns:sodipodi="http://sodipodi.sourceforge.net/DTD/sodipodi-0.dtd"
   xmlns:inkscape="http://www.inkscape.org/namespaces/inkscape"
   width="198.44142mm"
   height="40.452076mm"
   viewBox="0 0 198.44142 40.452076"
   version="1.1"
   id="svg23"
   inkscape:version="1.0.1 (3bc2e813f5, 2020-09-07)"
   sodipodi:docname="bg-produits.svg">
  <defs
     id="defs17" />
  <sodipodi:namedview
     id="base"
     pagecolor="#ffffff"
     bordercolor="#666666"
     borderopacity="1.0"
     inkscape:pageopacity="0.0"
     inkscape:pageshadow="2"
     inkscape:zoom="0.98994949"
     inkscape:cx="420.09325"
     inkscape:cy="36.868572"
     inkscape:document-units="mm"
     inkscape:current-layer="layer1"
     inkscape:document-rotation="0"
     showgrid="false"
     fit-margin-top="0"
     fit-margin-left="0"
     fit-margin-right="0"
     fit-margin-bottom="0"
     inkscape:window-width="1425"
     inkscape:window-height="1080"
     inkscape:window-x="1946"
     inkscape:window-y="26"
     inkscape:window-maximized="0" />
  <metadata
     id="metadata20">
    <rdf:RDF>
      <cc:Work
         rdf:about="">
        <dc:format>image/svg+xml</dc:format>
        <dc:type
           rdf:resource="http://purl.org/dc/dcmitype/StillImage" />
        <dc:title></dc:title>
      </cc:Work>
    </rdf:RDF>
  </metadata>
  <g
     inkscape:label="Calque 1"
     inkscape:groupmode="layer"
     id="layer1"
     transform="translate(-153.50649,-113.14839)">
    <g
       id="g39"
       transform="translate(8.5526286,-140.04923)"
       inkscape:export-xdpi="96"
       inkscape:export-ydpi="96">
      <path
         style="fill:#b5b5d9;stroke-width:0.264583"
         d="m 229.68668,265.14653 c 0.54571,-0.0571 1.43867,-0.0571 1.98438,0 0.5457,0.0571 0.0992,0.1038 -0.99219,0.1038 -1.09141,0 -1.53789,-0.0467 -0.99219,-0.1038 z m 7.41197,0.003 c 0.40219,-0.0608 0.9975,-0.0592 1.32292,0.004 0.32542,0.0628 -0.004,0.11255 -0.73124,0.11057 -0.72761,-0.003 -0.99386,-0.0534 -0.59168,-0.1142 z m -12.7,-0.26458 c 0.40219,-0.0608 0.9975,-0.0592 1.32292,0.004 0.32542,0.0628 -0.004,0.11256 -0.73124,0.11057 -0.72761,-0.003 -0.99386,-0.0534 -0.59168,-0.11419 z m 16.67015,0.007 c 0.25743,-0.0671 0.61462,-0.0627 0.79375,0.01 0.17913,0.0725 -0.0315,0.12735 -0.46806,0.12198 -0.43656,-0.005 -0.58312,-0.0647 -0.32569,-0.13179 z m -20.37795,-0.26373 c 0.25466,-0.0666 0.67138,-0.0666 0.92604,0 0.25466,0.0665 0.0463,0.12099 -0.46302,0.12099 -0.50932,0 -0.71768,-0.0545 -0.46302,-0.12099 z m 23.16758,0.003 c 0.19099,-0.0764 0.4192,-0.067 0.50712,0.0209 0.0879,0.0879 -0.0684,0.15046 -0.34727,0.13898 -0.30823,-0.0127 -0.37092,-0.0754 -0.15985,-0.15986 z m -26.73637,-0.27098 c 0.32912,-0.0633 0.80537,-0.0609 1.05833,0.005 0.25297,0.0662 -0.0163,0.118 -0.5984,0.11507 -0.58208,-0.003 -0.78905,-0.0571 -0.45993,-0.12042 z m -3.96875,-0.26459 c 0.32912,-0.0633 0.80537,-0.0609 1.05833,0.005 0.25297,0.0662 -0.0163,0.118 -0.5984,0.11506 -0.58208,-0.003 -0.78905,-0.0571 -0.45993,-0.12041 z m -2.9135,-0.25267 c 0.1819,-0.0734 0.47955,-0.0734 0.66146,0 0.1819,0.0734 0.0331,0.13345 -0.33073,0.13345 -0.36381,0 -0.51263,-0.0601 -0.33073,-0.13345 z m -46.83125,-7.67292 c 0.1819,-0.0734 0.47955,-0.0734 0.66146,0 0.1819,0.0734 0.0331,0.13346 -0.33073,0.13346 -0.36381,0 -0.51263,-0.0601 -0.33073,-0.13346 z m 10.0707,-0.006 c 0.191,-0.0764 0.4192,-0.067 0.50712,0.0209 0.0879,0.0879 -0.0684,0.15046 -0.34727,0.13898 -0.30822,-0.0127 -0.37092,-0.0754 -0.15985,-0.15986 z m -5.83737,-0.27985 c 0.76399,-0.0534 2.01414,-0.0534 2.77813,0 0.76398,0.0534 0.1389,0.0972 -1.38907,0.0972 -1.52797,0 -2.15304,-0.0437 -1.38906,-0.0972 z m 121.72487,-1.57318 c 0.191,-0.0764 0.4192,-0.067 0.50712,0.0209 0.0879,0.0879 -0.0684,0.15047 -0.34727,0.13899 -0.30822,-0.0127 -0.37092,-0.0754 -0.15985,-0.15987 z m 2.11667,-0.26458 c 0.19099,-0.0764 0.4192,-0.067 0.50712,0.0209 0.0879,0.0879 -0.0684,0.15047 -0.34727,0.13898 -0.30823,-0.0127 -0.37092,-0.0754 -0.15985,-0.15986 z m 2.76662,-0.26721 c 0.25743,-0.0671 0.61462,-0.0627 0.79375,0.01 0.17913,0.0725 -0.0315,0.12735 -0.46806,0.12198 -0.43656,-0.005 -0.58312,-0.0647 -0.32569,-0.13179 z m 21.55851,0.008 c 0.1819,-0.0734 0.47955,-0.0734 0.66146,0 0.1819,0.0734 0.0331,0.13346 -0.33073,0.13346 -0.36381,0 -0.51263,-0.0601 -0.33073,-0.13346 z m -18.12032,-0.27921 c 0.40218,-0.0608 0.99749,-0.0592 1.32291,0.004 0.32543,0.0628 -0.004,0.11256 -0.73124,0.11057 -0.7276,-0.003 -0.99386,-0.0534 -0.59167,-0.11419 z m 14.28386,0 c 0.40018,-0.0606 1.05503,-0.0606 1.45521,0 0.40018,0.0606 0.0728,0.11023 -0.72761,0.11023 -0.80036,0 -1.12778,-0.0496 -0.7276,-0.11023 z m -7.67292,-0.26953 c 0.69123,-0.0545 1.82232,-0.0545 2.51354,0 0.69123,0.0545 0.12568,0.0991 -1.25677,0.0991 -1.38244,0 -1.94799,-0.0446 -1.25677,-0.0991 z"
         id="path49" />
      <path
         style="fill:#5d5cac;stroke-width:0.264583"
         d="m 227.71884,265.15854 c 0.191,-0.0764 0.4192,-0.067 0.50712,0.0209 0.0879,0.0879 -0.0683,0.15047 -0.34726,0.13898 -0.30823,-0.0127 -0.37092,-0.0754 -0.15986,-0.15986 z m 72.49584,-11.64166 c 0.19099,-0.0764 0.4192,-0.067 0.50712,0.0209 0.0879,0.0879 -0.0684,0.15047 -0.34727,0.13899 -0.30823,-0.0127 -0.37092,-0.0754 -0.15985,-0.15986 z m 9.77304,0.006 c 0.18191,-0.0734 0.47956,-0.0734 0.66146,0 0.1819,0.0734 0.0331,0.13346 -0.33073,0.13346 -0.3638,0 -0.51263,-0.0601 -0.33073,-0.13346 z"
         id="path47" />
      <path
         style="fill:#2d2c94;stroke-width:0.264583"
         d="m 233.52314,265.41247 c 0.47294,-0.0587 1.24685,-0.0587 1.71979,0 0.47295,0.0587 0.086,0.1067 -0.85989,0.1067 -0.94589,0 -1.33284,-0.048 -0.8599,-0.1067 z m -6.87917,-0.24842 c 0.18191,-0.0734 0.47956,-0.0734 0.66146,0 0.1819,0.0734 0.0331,0.13345 -0.33073,0.13345 -0.3638,0 -0.51263,-0.0601 -0.33073,-0.13345 z m 13.24571,-0.006 c 0.19099,-0.0764 0.4192,-0.067 0.50712,0.0209 0.0879,0.0879 -0.0684,0.15047 -0.34727,0.13899 -0.30823,-0.0127 -0.37092,-0.0754 -0.15985,-0.15986 z m -17.4625,-0.26458 c 0.19099,-0.0764 0.4192,-0.067 0.50712,0.0209 0.0879,0.0879 -0.0684,0.15047 -0.34727,0.13899 -0.30823,-0.0127 -0.37092,-0.0754 -0.15985,-0.15986 z m -7.40834,-0.52917 c 0.191,-0.0764 0.4192,-0.067 0.50712,0.0209 0.0879,0.0879 -0.0684,0.15047 -0.34726,0.13899 -0.30823,-0.0127 -0.37092,-0.0754 -0.15986,-0.15986 z m -3.43958,-0.26458 c 0.191,-0.0764 0.4192,-0.067 0.50712,0.0209 0.0879,0.0879 -0.0683,0.15047 -0.34727,0.13899 -0.30822,-0.0127 -0.37092,-0.0754 -0.15985,-0.15986 z m -46.31862,-7.93194 c 0.1819,-0.0734 0.47956,-0.0734 0.66146,0 0.1819,0.0734 0.0331,0.13345 -0.33073,0.13345 -0.3638,0 -0.51263,-0.0601 -0.33073,-0.13345 z m 6.8957,-0.006 c 0.191,-0.0764 0.4192,-0.067 0.50712,0.0209 0.0879,0.0879 -0.0683,0.15047 -0.34726,0.13899 -0.30823,-0.0127 -0.37092,-0.0754 -0.15986,-0.15986 z m 120.91459,-2.11667 c 0.19099,-0.0764 0.4192,-0.067 0.50712,0.0209 0.0879,0.0879 -0.0684,0.15047 -0.34727,0.13899 -0.30823,-0.0127 -0.37092,-0.0754 -0.15985,-0.15986 z m 3.175,-0.26458 c 0.19099,-0.0764 0.4192,-0.067 0.50712,0.0209 0.0879,0.0879 -0.0684,0.15047 -0.34727,0.13899 -0.30823,-0.0127 -0.37092,-0.0754 -0.15985,-0.15986 z m 18.25625,0 c 0.19099,-0.0764 0.4192,-0.067 0.50712,0.0209 0.0879,0.0879 -0.0684,0.15047 -0.34727,0.13899 -0.30823,-0.0127 -0.37092,-0.0754 -0.15985,-0.15986 z m -13.24262,-0.27099 c 0.32912,-0.0633 0.80537,-0.0609 1.05833,0.005 0.25297,0.0662 -0.0163,0.11801 -0.5984,0.11507 -0.58208,-0.003 -0.78905,-0.0571 -0.45993,-0.12041 z m 7.27296,0.005 c 0.25466,-0.0666 0.67138,-0.0666 0.92604,0 0.25466,0.0665 0.0463,0.12099 -0.46302,0.12099 -0.50933,0 -0.71769,-0.0545 -0.46302,-0.12099 z"
         id="path45" />
      <path
         style="fill:#060580;stroke-width:0.264583"
         d="m 144.95387,277.95387 v -15.69582 l 2.3151,-1.21039 c 2.92114,-1.52725 5.43663,-2.42514 9.45886,-3.37627 4.95448,-1.17157 7.05851,-1.42229 12.03854,-1.43452 6.4263,-0.0159 8.27528,0.33513 31.88257,6.05071 5.87809,1.42317 6.96115,1.57506 16.01643,2.24642 17.52879,1.29955 24.09537,1.19385 32.40204,-0.5215 2.38247,-0.49199 23.1755,-5.69632 27.91354,-6.98653 11.47946,-3.12597 27.3221,-4.28244 39.81979,-2.90674 4.55166,0.50104 12.29331,2.0974 20.10834,4.14647 l 6.35,1.66492 0.0681,16.85954 0.0681,16.85954 h -99.22071 -99.22071 z m 160.79501,-22.82862 c -0.0879,-0.0879 -0.31612,-0.0973 -0.50712,-0.0209 -0.21107,0.0845 -0.14837,0.14716 0.15985,0.15986 0.27892,0.0114 0.43519,-0.0511 0.34727,-0.13898 z"
         id="path43" />
      <path
         style="fill:#06057f;stroke-width:0.264583"
         d="m 305.24176,255.10438 c 0.191,-0.0764 0.4192,-0.067 0.50712,0.0209 0.0879,0.0879 -0.0684,0.15047 -0.34727,0.13899 -0.30822,-0.0127 -0.37092,-0.0754 -0.15985,-0.15987 z"
         id="path41" />
    </g>
  </g>
</svg>
