<?xml version="1.0" encoding="UTF-8" standalone="no"?>
<svg
   xmlns:dc="http://purl.org/dc/elements/1.1/"
   xmlns:cc="http://creativecommons.org/ns#"
   xmlns:rdf="http://www.w3.org/1999/02/22-rdf-syntax-ns#"
   xmlns:svg="http://www.w3.org/2000/svg"
   xmlns="http://www.w3.org/2000/svg"
   xmlns:sodipodi="http://sodipodi.sourceforge.net/DTD/sodipodi-0.dtd"
   xmlns:inkscape="http://www.inkscape.org/namespaces/inkscape"
   width="369.19492mm"
   height="372.19452mm"
   viewBox="0 0 369.19491 372.19452"
   version="1.1"
   id="svg8"
   inkscape:version="1.0.1 (3bc2e813f5, 2020-09-07)"
   sodipodi:docname="coquillage-icone.svg">
  <defs
     id="defs2" />
  <sodipodi:namedview
     id="base"
     pagecolor="#000000"
     bordercolor="#666666"
     borderopacity="1.0"
     inkscape:pageopacity="0"
     inkscape:pageshadow="2"
     inkscape:zoom="0.175"
     inkscape:cx="698.0855"
     inkscape:cy="330.75192"
     inkscape:document-units="mm"
     inkscape:current-layer="layer1"
     inkscape:document-rotation="0"
     showgrid="false"
     inkscape:window-width="1425"
     inkscape:window-height="1080"
     inkscape:window-x="2433"
     inkscape:window-y="216"
     inkscape:window-maximized="0" />
  <metadata
     id="metadata5">
    <rdf:RDF>
      <cc:Work
         rdf:about="">
        <dc:format>image/svg+xml</dc:format>
        <dc:type
           rdf:resource="http://purl.org/dc/dcmitype/StillImage" />
        <dc:title></dc:title>
      </cc:Work>
    </rdf:RDF>
  </metadata>
  <g
     inkscape:label="Calque 1"
     inkscape:groupmode="layer"
     id="layer1"
     transform="translate(90.695445,-103.93806)">
    <path
       style="fill:#fefefe;stroke-width:0.264583"
       d="m 105.33944,475.98399 c -0.71231,-0.11758 -2.89367,-0.78441 -3.96875,-1.21322 -0.3638,-0.14512 -0.89959,-0.35941 -1.19063,-0.47622 -0.291041,-0.11681 -1.481661,-0.2872 -2.645831,-0.3787 -1.16417,-0.0915 -2.86213,-0.28011 -3.77325,-0.41923 -1.81076,-0.27644 -7.40997,-1.90257 -8.63666,-2.5083 -0.42254,-0.20863 -0.86961,-0.37934 -0.99349,-0.37934 -0.12387,0 -0.84225,-0.29765 -1.59639,-0.66145 -0.75411,-0.36381 -1.52744,-0.66146 -1.71849,-0.66146 -0.19103,0 -0.34735,-0.11906 -0.34735,-0.26459 0,-0.14552 -0.1802,-0.26458 -0.40047,-0.26458 -0.22024,0 -0.60719,-0.11321 -0.8599,-0.25162 -0.25267,-0.13837 -1.82864,-0.91239 -3.50213,-1.72003 -2.8113,-1.35675 -4.90373,-2.45258 -7.9375,-4.15687 -0.65484,-0.36787 -1.905,-1.06934 -2.77812,-1.55882 -0.87313,-0.48945 -1.62719,-0.98409 -1.67569,-1.09921 -0.0485,-0.11509 -0.19891,-0.20928 -0.33422,-0.20928 -0.32306,0 -8.01793,-4.80772 -8.13245,-5.08111 -0.0485,-0.11581 -0.19161,-0.21056 -0.31802,-0.21056 -0.19267,0 -3.70576,-2.30788 -9.25108,-6.07743 -0.65485,-0.44513 -1.41245,-0.95646 -1.68357,-1.13627 -0.27109,-0.17982 -0.88913,-0.62458 -1.373401,-0.98838 -0.48424,-0.3638 -2.134949,-1.55443 -3.66821,-2.64584 -1.533252,-1.0914 -3.191864,-2.28203 -3.685799,-2.64583 -1.809504,-1.33276 -5.343544,-3.99706 -5.758974,-4.34165 -0.234985,-0.19492 -1.366078,-1.05334 -2.513542,-1.9076 -1.147463,-0.85423 -2.145829,-1.62438 -2.218589,-1.7114 -0.07276,-0.087 -0.668073,-0.56446 -1.322917,-1.06098 -0.654844,-0.49652 -2.666162,-2.0928 -4.469593,-3.54732 -3.205084,-2.58501 -4.241446,-3.41249 -6.294353,-5.02584 -0.555506,-0.43656 -1.137748,-0.91281 -1.293868,-1.05833 -0.156121,-0.14552 -0.864955,-0.74084 -1.5751889,-1.32292 -0.710235,-0.58208 -2.130312,-1.77951 -3.155728,-2.66094 -1.025417,-0.88143 -2.148346,-1.83393 -2.495397,-2.11667 -1.779884,-1.45002 -8.944494,-7.63696 -11.142266,-9.62176 -3.2125711,-2.90131 -2.8547621,-2.5822 -4.6606651,-4.15657 -0.856753,-0.74692 -1.987907,-1.75895 -2.513674,-2.24896 -0.525764,-0.49001 -2.06841,-1.90296 -3.428095,-3.13989 -12.163706,-11.06551 -28.546122,-27.21465 -39.723948,-39.15834 -1.838563,-1.96453 -3.560622,-3.82293 -3.826804,-4.12977 -0.457911,-0.52787 -3.510632,-3.89464 -5.255606,-5.79631 -2.714321,-2.95801 -5.059397,-5.60157 -6.562268,-7.39751 -0.60583,-0.72395 -1.528019,-1.79551 -2.049312,-2.38125 -2.001461,-2.24882 -2.955888,-3.38095 -3.946988,-4.68185 -0.363802,-0.4775 -1.457904,-1.62997 -2.431338,-2.56104 -1.769481,-1.69246 -4.021315,-4.70291 -4.73011,-6.32362 -0.206833,-0.47294 -0.466058,-0.8599 -0.576056,-0.8599 -0.109998,0 -0.199996,-0.1584 -0.199996,-0.35202 0,-0.19363 -0.297159,-0.93777 -0.66035,-1.65365 -0.363193,-0.71588 -0.66085,-1.45206 -0.661458,-1.63594 -5.29e-4,-0.18386 -0.107111,-0.54105 -0.23667,-0.79375 -0.564044,-1.10009 -1.383887,-4.3496 -1.651243,-6.54484 -0.444577,-3.65041 -0.135523,-12.45884 0.524502,-14.94896 0.577384,-2.17834 1.164098,-3.85874 1.445556,-4.1402 0.09973,-0.0997 0.18133,-0.3996 0.18133,-0.66641 0,-0.26678 0.119062,-0.48506 0.264583,-0.48506 0.145521,0 0.264583,-0.1665 0.264583,-0.37002 0,-0.54649 1.464019,-3.23236 2.446941,-4.48908 0.470617,-0.60171 0.975786,-1.24933 1.122593,-1.43915 0.457539,-0.59158 1.912832,-2.00623 2.775119,-2.69758 0.453747,-0.3638 0.989256,-0.81029 1.190022,-0.99219 0.200766,-0.1819 0.492596,-0.33073 0.64851,-0.33073 0.346567,0 0.354303,-0.1375 0.04114,-0.7312 -0.549539,-1.0418 -1.080576,-2.41731 -1.080576,-2.7989 0,-0.22407 -0.105567,-0.47267 -0.234591,-0.55239 -0.129024,-0.0798 -0.318272,-0.5928 -0.42055,-1.14012 -0.10228,-0.54729 -0.279691,-1.11416 -0.394247,-1.25968 -0.294743,-0.37441 -1.240079,-4.64058 -1.773034,-8.00145 -0.556456,-3.50909 -0.641633,-14.99433 -0.139824,-18.85376 0.637272,-4.90127 2.515113,-12.86094 3.661026,-15.5181 0.197755,-0.45858 0.359553,-0.96621 0.359553,-1.12808 0,-0.16187 0.106839,-0.50107 0.237421,-0.75377 0.130583,-0.25268 0.44151,-0.9952 0.690949,-1.65005 0.249439,-0.65484 0.678378,-1.64835 0.953201,-2.20781 0.274823,-0.55947 0.499679,-1.18454 0.499679,-1.38907 0,-0.20452 0.119062,-0.37187 0.264583,-0.37187 0.145521,0 0.264584,-0.23812 0.264584,-0.52916 0,-0.29105 0.119062,-0.52917 0.264583,-0.52917 0.145521,0 0.264583,-0.16904 0.264583,-0.37563 0,-0.20659 0.42009,-1.12932 0.933532,-2.05052 0.513446,-0.9212 1.136844,-2.12138 1.385332,-2.66708 0.248492,-0.5457 0.542777,-0.99219 0.653968,-0.99219 0.111194,0 0.202168,-0.11377 0.202168,-0.25283 0,-0.13907 0.29984,-0.70462 0.666311,-1.25677 0.366469,-0.55216 0.812954,-1.22772 0.992188,-1.50125 0.756192,-1.15395 3.279169,-4.58893 3.893669,-5.30111 3.473098,-4.02524 6.55369,-7.01149 10.190541,-9.87846 0.943293,-0.74361 3.611849,-2.44708 3.833466,-2.44708 0.147167,0 0.267576,-0.10517 0.267576,-0.23373 0,-0.12854 0.20836,-0.29999 0.463021,-0.38097 0.254661,-0.081 1.321811,-0.62122 2.371445,-1.20052 1.049633,-0.57934 2.170356,-1.13644 2.490494,-1.23804 0.32014,-0.10163 1.009163,-0.37066 1.531162,-0.59788 0.521996,-0.2272 1.836401,-0.71903 2.920899,-1.09297 l 1.97181,-0.67985 0.567177,-2.38125 c 0.659159,-2.76743 1.481976,-5.27367 2.345352,-7.14375 0.33592,-0.7276 0.769506,-1.73963 0.963525,-2.24895 0.405659,-1.0649 1.912443,-3.87178 3.195743,-5.95313 0.269174,-0.43656 0.568804,-0.97234 0.665845,-1.19062 0.314582,-0.70761 4.192673,-6.05187 5.648945,-7.78463 2.385184,-2.838 7.28486,-7.55512 10.445019,-10.05583 3.34648,-2.64814 10.4520501,-7.03038 11.3994021,-7.03038 0.20932,0 0.38058,-0.11906 0.38058,-0.26458 0,-0.14552 0.18021,-0.26458 0.400465,-0.26458 0.220255,0 0.607208,-0.11489 0.859896,-0.2553 0.923964,-0.51345 2.953594,-1.3322 3.302415,-1.3322 0.19716,0 0.47158298,-0.10115 0.60982798,-0.22479 0.32549,-0.2911 3.47599502,-1.2572 5.67531302,-1.74036 2.667778,-0.58605 8.3516709,-1.00547 10.9140619,-0.80534 2.031966,0.1587 2.315105,0.12841 2.315105,-0.24773 0,-0.23571 0.104793,-0.63529 0.232873,-0.88799 0.128082,-0.25268 1.102037,-2.24536 2.16435,-4.42817 1.062312,-2.18282 2.33009,-4.56407 2.817283,-5.29167 0.487196,-0.7276 1.031285,-1.54532 1.209088,-1.81718 0.501737,-0.76711 1.73033,-2.4832 2.150917,-3.0044 2.231152,-2.76492 3.340738,-4.01302 5.347647,-6.0153 2.559019,-2.5531 6.533918,-5.82851 8.832724,-7.2784 0.799967,-0.50453 1.514022,-0.98078 1.586782,-1.05833 0.0728,-0.0775 0.41651,-0.30099 0.76385,-0.49657 0.34738,-0.19561 1.06175,-0.5995 1.5875,-0.8976 2.01848,-1.14435 5.39364,-2.84784 5.64254,-2.84784 0.14329,0 0.69521,-0.19074 1.22655,-0.42387 1.49101,-0.65418 1.93191,-0.82682 3.21498,-1.25888 2.49891,-0.84146 4.97594,-1.5031 7.14375,-1.90815 2.98392,-0.55756 11.87585,-0.79838 15.16322,-0.41069 2.66922,0.3148 7.27708,1.28275 7.72324,1.6224 0.14552,0.11078 0.67739,0.28982 1.18195,0.39791 0.50453,0.10805 1.09985,0.2904 1.32292,0.40518 0.22304,0.11478 0.8818,0.40534 1.46388,0.64571 2.0506,0.84675 2.25552,0.93335 2.97657,1.25791 0.40018,0.18016 1.53249,0.835 2.51624,1.45521 0.98377,0.62024 1.9065,1.12768 2.05052,1.12768 0.14404,0 0.26188,0.11105 0.26188,0.24675 0,0.13571 0.21453,0.31483 0.4767,0.39807 0.26218,0.0832 1.24444,0.80362 2.18281,1.60091 1.881561,1.59869 1.601131,1.62341 2.964081,-0.26135 1.74072,-2.40721 6.04351,-6.03811 8.33318,-7.03197 0.47295,-0.20529 0.8599,-0.46326 0.8599,-0.57324 0,-0.11002 0.18021,-0.2 0.40047,-0.2 0.22024,0 0.60719,-0.1133 0.8599,-0.25178 1.69121,-0.92678 5.1799,-1.97146 8.06812,-2.41599 2.64896,-0.40767 11.48075,-0.15653 14.21943,0.40436 2.41104,0.49382 7.44482,1.97763 7.79198,2.29685 0.13824,0.12713 0.39782,0.23114 0.57684,0.23114 0.47173,0 7.13782,3.05028 7.50618,3.43466 0.0728,0.0759 0.48948,0.3138 0.92604,0.52862 1.60435,0.78941 6.77047,4.28619 9.04076,6.11944 2.14498,1.73204 8.37745,7.81015 9.8284,9.58498 2.36116,2.88822 5.82356,8.05661 7.12438,10.63474 1.70397,3.37709 2.4502,4.9231 2.45814,5.09257 0.005,0.1053 0.23902,0.6677 0.52019,1.24978 0.28118,0.58209 0.51525,1.21764 0.5202,1.41232 0.007,0.25758 0.27919,0.3146 1.00116,0.20931 2.57887,-0.37597 5.48936,-0.43923 8.26823,-0.17965 3.27467,0.30592 5.79257,0.73933 6.21771,1.07033 0.14552,0.11329 0.76996,0.28934 1.38768,0.39121 0.6177,0.10189 1.19026,0.29395 1.27238,0.4268 0.0821,0.13287 0.43993,0.24156 0.79513,0.24156 0.35523,0 0.64585,0.10581 0.64585,0.23514 0,0.12933 0.43138,0.31607 0.95861,0.41497 0.52724,0.0989 1.15231,0.28017 1.38906,0.4028 0.23675,0.12264 1.56155,0.77116 2.944,1.44119 2.14503,1.0396 3.73544,1.88264 6.48229,3.43606 0.56898,0.32179 3.53221,2.2705 3.96875,2.60998 0.14552,0.11317 0.97896,0.74959 1.85208,1.41428 0.87313,0.66469 2.18281,1.69916 2.91042,2.29883 1.70712,1.40698 8.16869,7.87059 9.53219,9.53524 0.57812,0.70578 1.22974,1.49836 1.44802,1.76125 0.21828,0.26289 0.57547,0.74182 0.79375,1.06426 0.21828,0.32243 0.51593,0.72226 0.66145,0.8885 0.50711,0.57931 3.25972,4.8019 3.9864,6.11521 1.75146,3.16548 2.97974,5.80795 3.68943,7.9375 0.24249,0.7276 0.54123,1.51662 0.66392,1.75337 0.12266,0.23675 0.3062,0.89159 0.40791,1.45521 0.10168,0.56361 0.28191,1.14818 0.40053,1.29902 0.11858,0.15087 0.34491,1.31472 0.50292,2.58638 0.16438,1.32273 0.51022,2.70894 0.80822,3.23951 0.29083,0.51779 0.52088,1.42377 0.52088,2.05126 v 1.1239 l 2.05052,0.64685 c 2.52969,0.79804 6.79392,2.92081 8.76488,4.36324 1.24677,0.91247 5.87423,5.65751 6.6471,6.81607 0.50933,0.76345 1.00153,1.44764 1.09382,1.5204 0.38936,0.30702 3.52613,6.26343 4.18007,7.9375 0.19897,0.50932 0.50853,1.28323 0.68794,1.71979 1.07707,2.62091 2.26658,7.25199 2.95627,11.50938 0.35169,2.17095 0.45273,4.57073 0.46234,10.9802 0.0116,7.7624 -0.19921,11.11224 -0.92411,14.68438 -1.03998,5.12453 -2.57601,11.05747 -3.15331,12.17951 -0.11475,0.22307 -0.29247,0.78724 -0.39494,1.25375 -0.10245,0.46649 -0.2962,0.9161 -0.43051,0.9991 -0.13432,0.083 -0.24423,0.34041 -0.24423,0.57197 0,0.23159 -0.28372,1.02823 -0.63048,1.77033 -1.01886,2.18054 -1.75077,3.84747 -1.75077,3.98743 0,0.0717 0.41373,0.55639 0.91942,1.07712 2.00782,2.06751 7.01808,9.26394 7.01808,10.08033 0,0.17354 0.10107,0.35521 0.2246,0.40373 0.27229,0.10692 2.2352,4.16994 2.72693,5.64444 0.19413,0.58208 0.42222,1.11786 0.50689,1.19062 0.22267,0.19135 1.46084,4.23754 2.14556,7.01146 0.53263,2.15789 0.58854,3.05133 0.59595,9.525 l 0.008,7.14375 -0.85543,3.175 c -0.85664,3.17944 -2.1559,6.21773 -3.50745,8.20208 -0.39645,0.58209 -1.53275,2.30849 -2.5251,3.83646 -0.99235,1.52797 -1.87039,2.83766 -1.95125,2.91042 -0.0808,0.0728 -0.62262,0.84666 -1.20398,1.71979 -0.58135,0.87312 -1.20643,1.74482 -1.38907,1.93712 -0.18261,0.1923 -0.33218,0.43042 -0.33237,0.52917 -1.8e-4,0.0987 -0.29784,0.52549 -0.66146,0.94829 -0.36361,0.42283 -0.66304,0.83955 -0.66537,0.92604 -0.003,0.0865 -0.35952,0.56039 -0.79375,1.05304 -0.43423,0.49266 -0.78965,0.96891 -0.78983,1.05834 -1.9e-4,0.0894 -0.29552,0.51977 -0.65628,0.95633 -0.36076,0.43657 -0.75541,0.91409 -0.87698,1.06117 -0.12158,0.14705 -0.91993,1.21862 -1.77411,2.38125 -0.85419,1.1626 -1.62312,2.17336 -1.70871,2.24612 -0.0856,0.0728 -0.80478,0.96573 -1.59819,1.98438 -0.79341,1.01865 -1.50519,1.91161 -1.58176,1.98437 -0.0766,0.0728 -0.85307,1.02527 -1.72553,2.11667 -0.87247,1.09141 -1.64642,2.04391 -1.71993,2.11667 -0.11752,0.11636 -3.93123,4.55758 -5.45279,6.35 -1.48416,1.74836 -4.85347,5.56392 -5.95784,6.74687 -0.67924,0.72761 -1.61105,1.73964 -2.07068,2.24896 -10.34838,11.46744 -29.9843,30.97416 -39.28452,39.02604 -0.16806,0.14552 -1.13442,1.03849 -2.14743,1.98438 -1.01301,0.94588 -2.66309,2.43416 -3.66681,3.30729 -1.00372,0.87312 -2.03036,1.76609 -2.28142,1.98437 -0.25104,0.21829 -0.97716,0.83222 -1.61357,1.36433 -0.6364,0.5321 -1.51428,1.28135 -1.95085,1.66502 -0.43656,0.38365 -1.1276,0.96033 -1.53564,1.28151 -0.40804,0.32115 -1.13022,0.94112 -1.60488,1.37769 -0.47466,0.43656 -1.25241,1.0914 -1.72837,1.4552 -0.95662,0.73123 -1.0297,0.79193 -2.54838,2.11667 -0.58386,0.50932 -1.45609,1.2237 -1.93824,1.5875 -0.48215,0.3638 -1.0152,0.78298 -1.18454,0.93149 -0.16933,0.14854 -0.90302,0.74385 -1.63044,1.32292 -0.72739,0.57909 -1.4674,1.17195 -1.64446,1.31747 -0.17703,0.14552 -0.47609,0.38364 -0.66456,0.52916 -0.83698,0.64625 -3.01043,2.39517 -3.28131,2.64039 -0.16406,0.14851 -0.5656,0.44862 -0.8923,0.6669 -0.32671,0.21829 -0.72824,0.52232 -0.89231,0.67567 -0.16407,0.15333 -2.26285,1.72572 -4.66394,3.49422 -2.4011,1.7685 -4.48469,3.30994 -4.63021,3.4254 -0.14552,0.11547 -0.80037,0.56677 -1.45521,1.00293 -0.65484,0.43614 -1.25016,0.85286 -1.32292,0.92604 -1.04055,1.0464 -16.57344,11.11324 -17.14748,11.11324 -0.11505,0 -0.35023,0.14105 -0.52261,0.31343 -0.50109,0.50109 -3.54896,2.15135 -8.39137,4.54348 -5.37458,2.65501 -6.31399,3.08059 -6.80008,3.08059 -0.20357,0 -0.48323,0.1092 -0.62148,0.24263 -0.49429,0.47712 -5.71733,2.12809 -7.99028,2.52568 -2.11574,0.3701 -7.6412,0.50366 -9.3267,0.22545 z m 18.25625,-17.86718 c 2.11005,-1.05142 3.89599,-1.98098 3.96875,-2.06573 0.0728,-0.0847 0.54901,-0.36388 1.05833,-0.62034 2.48381,-1.25066 11.86305,-6.97069 12.43542,-7.58386 0.0728,-0.0779 0.78714,-0.55205 1.5875,-1.05357 0.80036,-0.50149 2.34818,-1.54128 3.43958,-2.31063 1.09141,-0.76936 2.20168,-1.54575 2.46724,-1.72532 0.26559,-0.17958 0.68231,-0.47705 0.92604,-0.66104 0.84011,-0.63418 3.17043,-2.31222 3.76087,-2.70817 0.55105,-0.36952 10.54613,-7.95531 11.3062,-8.58089 0.18889,-0.15547 0.48813,-0.40417 0.66498,-0.55268 0.17685,-0.14854 0.91686,-0.74385 1.64447,-1.32292 0.7276,-0.57909 1.38244,-1.11548 1.4552,-1.192 0.0728,-0.0765 0.66808,-0.5528 1.32292,-1.05834 0.65484,-0.50556 1.48828,-1.17866 1.85208,-1.49576 0.86821,-0.75674 1.65376,-1.40727 2.56498,-2.12405 0.40828,-0.32118 1.05505,-0.85696 1.4373,-1.19063 0.38224,-0.33369 1.21568,-1.04185 1.85208,-1.57374 2.05269,-1.71553 15.45524,-13.53079 15.84148,-13.96537 0.0728,-0.0819 1.73389,-1.63711 3.69144,-3.45612 10.64776,-9.89433 25.71866,-25.12152 32.33134,-32.66662 0.63315,-0.72245 1.74649,-1.97686 2.47409,-2.78762 4.77282,-5.31834 5.45495,-6.10825 10.16699,-11.77388 2.71357,-3.26271 1.81369,-2.14937 8.55406,-10.58334 0.23405,-0.29284 2.87586,-3.87395 3.58375,-4.85796 0.24715,-0.34356 0.57275,-0.76028 0.72351,-0.92604 0.15078,-0.16579 0.63711,-0.83719 1.08071,-1.49204 1.58877,-2.34524 3.36627,-4.9085 3.94476,-5.68854 0.32374,-0.43656 0.9902,-1.56766 1.48098,-2.51354 0.49077,-0.94589 0.96644,-1.77932 1.05703,-1.85209 0.34856,-0.27998 1.54829,-2.85305 2.07322,-4.4464 1.40862,-4.27574 1.3783,-9.20879 -0.0917,-14.91959 -0.51297,-1.99281 -1.04716,-3.83828 -1.18708,-4.10104 -0.13993,-0.26276 -0.50225,-1.0433 -0.8052,-1.73453 -1.06778,-2.43647 -1.71384,-3.77174 -1.8882,-3.9026 -0.0969,-0.0728 -0.38529,-0.5401 -0.6408,-1.03852 -0.2555,-0.49845 -1.06764,-1.73543 -1.80477,-2.74889 l -1.34022,-1.84263 -0.54727,0.64947 c -0.30096,0.35721 -1.79739,2.17567 -3.32536,4.04101 -1.52797,1.86534 -2.99998,3.64349 -3.27115,3.95147 -0.27114,0.30797 -0.80693,0.97668 -1.19062,1.486 -0.38368,0.50933 -0.81667,1.05516 -0.96219,1.21299 -0.6841,0.74194 -2.68703,3.15552 -3.03189,3.6535 -0.21232,0.30662 -0.50998,0.68659 -0.66145,0.84441 -0.56867,0.59254 -2.67145,3.1174 -3.04271,3.6535 -0.21233,0.30663 -0.50999,0.6866 -0.66146,0.84442 -0.58446,0.60897 -2.67518,3.12309 -3.03818,3.6535 -0.20987,0.30663 -0.4507,0.61701 -0.53518,0.68977 -0.0845,0.0728 -1.08243,1.26338 -2.21768,2.64583 -1.13522,1.38245 -2.53286,3.07298 -3.10584,3.75674 -0.57298,0.68376 -1.77565,2.17204 -2.67258,3.30729 -0.89694,1.13525 -1.70355,2.12363 -1.7925,2.19639 -0.0889,0.0728 -0.92702,1.08479 -1.8624,2.24896 -0.93539,1.16416 -1.76882,2.17619 -1.85209,2.24895 -0.0833,0.0728 -0.91831,1.0848 -1.85571,2.24896 -0.93736,1.16417 -1.82604,2.24891 -1.97482,2.41052 -0.77877,0.84603 -1.65092,1.88547 -1.99713,2.38029 -0.36885,0.52716 -1.89145,2.35215 -3.17717,3.80815 -0.32125,0.3638 -1.06973,1.3163 -1.66333,2.11667 -0.59359,0.80036 -1.20427,1.58745 -1.3571,1.74905 -0.61571,0.65117 -1.69002,1.92866 -3.31295,3.93949 -0.93956,1.16417 -1.77644,2.1762 -1.8597,2.24896 -0.0833,0.0728 -0.91671,1.08479 -1.85209,2.24896 -0.93538,1.16416 -1.76823,2.17619 -1.85081,2.24895 -0.11851,0.10446 -3.25795,3.95005 -6.34622,7.77367 -0.52803,0.65376 -2.29484,2.76681 -3.01297,3.60342 -0.31229,0.3638 -1.33654,1.61396 -2.27613,2.77812 -0.93956,1.16417 -1.77644,2.1762 -1.8597,2.24896 -0.0833,0.0728 -0.9167,1.08479 -1.85209,2.24896 -0.93538,1.16417 -1.77289,2.1762 -1.86113,2.24896 -0.0882,0.0728 -1.10032,1.32291 -2.24904,2.77812 -1.14874,1.45521 -2.21194,2.77495 -2.36265,2.93278 -0.57925,0.60653 -2.67348,3.12227 -3.04135,3.6535 -0.21233,0.30662 -0.50999,0.68971 -0.66146,0.85132 -0.63924,0.68207 -1.70651,1.95212 -3.3105,3.93949 -0.93956,1.16416 -1.78051,2.17619 -1.86875,2.24895 -0.0882,0.0728 -1.06757,1.26339 -2.17625,2.64584 -3.90297,4.86664 -6.71859,8.29617 -7.4758,9.10577 -0.14761,0.15782 -0.68339,0.82272 -1.19063,1.47756 -0.84015,1.08466 -1.81406,2.25129 -2.51565,3.01345 -0.14878,0.1616 -1.03746,1.24634 -1.97483,2.41051 -0.93739,1.16417 -1.77652,2.1762 -1.86476,2.24896 -0.0882,0.0728 -1.09831,1.32291 -2.24459,2.77812 -1.14628,1.45521 -2.15424,2.70537 -2.23988,2.77813 -0.0857,0.0728 -0.92271,1.08479 -1.8601,2.24896 -0.93737,1.16416 -1.82605,2.2489 -1.97483,2.41051 -0.77877,0.84603 -1.65092,1.88547 -1.99712,2.3803 -0.36497,0.5216 -1.84529,2.29703 -3.17521,3.80814 -0.32018,0.36381 -0.89604,1.07818 -1.27974,1.5875 -0.38367,0.50933 -0.81666,1.05828 -0.96219,1.21989 -1.0465,1.16232 -1.86555,2.15175 -3.69911,4.46866 -1.15162,1.4552 -2.16397,2.70536 -2.24962,2.77812 -0.0857,0.0728 -0.92109,1.08479 -1.85647,2.24896 -0.93539,1.16417 -1.76882,2.1762 -1.85209,2.24896 -0.0833,0.0728 -0.92014,1.08479 -1.8597,2.24896 -1.60398,1.98736 -2.67126,3.25741 -3.31049,3.93948 -0.15148,0.16161 -0.44913,0.5447 -0.66146,0.85133 -0.40992,0.59192 -2.54238,3.13925 -3.09804,3.70072 -0.3733,0.37722 -0.42693,0.6359 -0.13229,0.63799 0.10914,0 1.92485,-0.85883 4.0349,-1.91024 z M 80.988669,453.7418 c -0.62418,-0.69123 -1.68159,-1.85209 -2.34985,-2.57969 -1.06653,-1.16128 -6.05425,-6.63469 -6.76918,-7.42836 -1.09698,-1.21783 -4.38192,-4.82061 -5.02708,-5.51352 -0.43656,-0.46887 -1.80578,-1.95972 -3.04271,-3.31298 -1.23692,-1.35327 -2.60614,-2.8461 -3.04271,-3.3174 -0.43656,-0.4713 -1.32178,-1.43957 -1.96712,-2.1517 -0.64537,-0.71213 -1.89698,-2.0687 -2.78138,-3.01458 -1.55832,-1.66669 -5.42322,-5.91019 -6.40847,-7.03625 -0.26657,-0.30467 -1.5176,-1.67389 -2.78006,-3.04271 -1.26243,-1.36882 -2.51611,-2.74458 -2.7859,-3.05726 -0.49636,-0.57526 -3.778227,-4.18708 -5.237483,-5.76408 -0.436563,-0.47178 -1.984375,-2.14453 -3.439584,-3.71718 -1.455208,-1.57269 -2.86349,-3.11 -3.129515,-3.41628 -0.70407,-0.8106 -2.425531,-2.69073 -4.264811,-4.65791 -1.670339,-1.78649 -5.543823,-6.04366 -6.436091,-7.07366 -0.281762,-0.32523 -1.214249,-1.3435 -2.07219,-2.26277 -0.85794,-0.91929 -2.452862,-2.66779 -3.544268,-3.88557 -1.091407,-1.21777 -2.341563,-2.60103 -2.778125,-3.0739 -3.125545,-3.38547 -5.3506009,-5.808 -5.6885419,-6.19339 -0.404649,-0.46143 -4.305851,-4.70829 -7.40833402,-8.06469 -2.07958798,-2.24977 -5.84747998,-6.39535 -6.55437498,-7.21135 -0.281763,-0.32522 -1.21425,-1.3435 -2.072191,-2.26277 -0.85794,-0.91929 -2.4104491,-2.6177 -3.4500181,-3.77425 -1.039569,-1.15657 -2.289726,-2.53572 -2.778125,-3.06475 -0.4884,-0.52903 -1.857243,-2.01732 -3.04187,-3.30729 -1.18463,-1.28998 -2.434786,-2.65128 -2.778125,-3.02514 -0.343342,-0.37383 -1.755349,-1.91558 -3.137797,-3.42606 -1.382448,-1.51051 -2.692136,-2.93661 -2.910417,-3.16918 -0.329948,-0.3515 -4.809974,-5.26786 -5.688541,-6.24256 -0.145521,-0.16142 -1.336146,-1.45938 -2.645834,-2.88435 -1.309687,-1.42494 -2.559844,-2.7953 -2.778125,-3.0452 -0.66403,-0.76022 -4.120142,-4.5689 -5.065125,-5.58183 -0.4884,-0.52351 -1.856521,-2.01179 -3.040269,-3.30729 -1.183749,-1.29551 -2.433905,-2.66134 -2.778125,-3.0352 -0.344221,-0.37383 -1.75695,-1.92066 -3.139398,-3.43733 -1.382448,-1.5167 -3.168386,-3.4688 -3.96875,-4.338 -0.800365,-0.86921 -1.574271,-1.7176 -1.719792,-1.88532 -0.145521,-0.16772 -0.865796,-0.94583 -1.600613,-1.72916 -0.734817,-0.7833 -2.518807,-2.73388 -3.964424,-4.33461 -1.445617,-1.60073 -3.111236,-3.42429 -3.701375,-4.05234 l -1.072981,-1.14191 -0.872625,0.76189 c -0.479944,0.41902 -1.487329,0.99243 -2.238637,1.27421 -2.674689,1.00314 -4.53979,3.5555 -5.78789,7.92065 -0.513012,1.79422 -0.601517,2.7011 -0.580991,5.95312 0.01656,2.62197 0.158933,4.33901 0.44977,5.42396 1.164641,4.34459 2.208589,6.37212 4.489795,8.71993 0.76242,0.78467 1.683877,1.8003 2.047679,2.25694 0.363802,0.45665 0.899583,1.09226 1.190625,1.41246 0.291042,0.32019 1.422135,1.64978 2.513542,2.95462 2.450655,2.92992 2.705912,3.22594 5.737148,6.65324 0.754338,0.85289 1.627291,1.84838 1.939899,2.21218 0.312605,0.36381 1.540888,1.72146 2.729518,3.01702 1.188628,1.29556 2.339737,2.55895 2.558018,2.80752 0.218282,0.24858 1.647032,1.79737 3.175001,3.44176 1.527968,1.64438 2.897187,3.12282 3.042708,3.28541 2.846105,3.17981 18.569793,19.061 24.473959,24.71912 7.016642,6.72422 15.0791841,14.2961 16.6687511,15.65433 0.55386,0.47324 1.489194,1.31165 4.863658,4.35965 1.49805798,1.35313 9.233983,8.11242 9.953009,8.69646 0.509323,0.4137 1.402292,1.18626 1.9843749,1.71677 0.582083,0.53052 1.713177,1.49688 2.513542,2.14752 0.800364,0.65061 2.297226,1.90005 3.32636,2.77651 1.029134,0.87646 3.041973,2.54606 4.472972,3.71023 1.431002,1.16416 2.732106,2.23573 2.891348,2.38125 0.15924,0.14552 0.725707,0.5902 1.258814,0.98819 0.533106,0.39796 1.128419,0.87421 1.322916,1.05833 0.194498,0.1841 0.789811,0.66035 1.322917,1.05834 0.533107,0.39795 1.128419,0.8742 1.322917,1.05833 0.194498,0.1841 1.068006,0.87021 1.941131,1.52469 0.873126,0.65447 1.647032,1.25581 1.719792,1.33633 0.07276,0.0805 1.084792,0.85137 2.248959,1.71302 1.164166,0.86166 2.176198,1.63988 2.248958,1.72937 0.07276,0.0895 1.084792,0.86129 2.248958,1.71513 1.164167,0.85384 2.273988,1.7067 2.466288,1.89524 0.192299,0.18854 0.437753,0.34282 0.545438,0.34282 0.107686,0 0.426591,0.21283 0.708691,0.47299 0.28209,0.26014 1.88214,1.45013 3.55562,2.64443 1.67349,1.19428 3.16178,2.2623 3.3073,2.37337 0.14552,0.11105 0.62177,0.43116 1.05833,0.71139 0.43656,0.28019 0.928,0.63645 1.09207,0.79165 0.32358,0.30613 0.60883,0.50181 2.6121,1.79195 0.7276,0.46858 1.38244,0.9198 1.45521,1.00272 0.0728,0.0829 0.78713,0.56168 1.5875,1.06397 0.80036,0.50225 1.57427,1.01303 1.71979,1.13506 0.14552,0.12202 1.27661,0.86333 2.51354,1.64737 1.23693,0.78402 2.36802,1.52249 2.51354,1.64105 0.44926,0.36603 3.8155,2.45113 3.95714,2.45113 0.0735,0 0.76102,0.39936 1.52783,0.88744 1.37427,0.87477 3.8512,2.29082 7.47961,4.27604 1.01865,0.55734 2.4474,1.33961 3.175,1.73839 0.72761,0.39875 1.36785,0.73538 1.42277,0.74803 0.0549,0.0127 -0.41084,-0.54253 -1.03499,-1.23375 z m -6.70243,-28.17813 c -1.62348,-2.96547 -6.67424,-12.65698 -9.27296,-17.79323 -0.88352,-1.74625 -1.69658,-3.21468 -1.80681,-3.26318 -0.1102,-0.0485 -0.20037,-0.3065 -0.20037,-0.57328 0,-0.26677 -0.0908,-0.52474 -0.20172,-0.57327 -0.11094,-0.0485 -0.8519,-1.39787 -1.64655,-2.9986 -0.79465,-1.60073 -1.50754,-2.96995 -1.58419,-3.04271 -0.0767,-0.0728 -0.60241,-1.02526 -1.16827,-2.11667 -0.56587,-1.0914 -1.53427,-2.93687 -2.15199,-4.10104 -1.33363,-2.5133 -5.22372,-10.03572 -7.11491,-13.75833 -0.73927,-1.45521 -1.43383,-2.68552 -1.54347,-2.73402 -0.10962,-0.0485 -0.19932,-0.30649 -0.19932,-0.57327 0,-0.26678 -0.0908,-0.52475 -0.20171,-0.57327 -0.11094,-0.0485 -0.85191,-1.39788 -1.64656,-2.99861 -0.79465,-1.60073 -1.50913,-2.96994 -1.58776,-3.04271 -0.0786,-0.0728 -0.43903,-0.72736 -0.80087,-1.45467 -0.36184,-0.72732 -1.203404,-2.33466 -1.870128,-3.57188 -1.280663,-2.37646 -5.49751,-10.50062 -7.759489,-14.94949 -0.739888,-1.45521 -1.434946,-2.68552 -1.544574,-2.73402 -0.109627,-0.0485 -0.199321,-0.30649 -0.199321,-0.57327 0,-0.26678 -0.09078,-0.52475 -0.201721,-0.57327 -0.110948,-0.0485 -0.853612,-1.39787 -1.650362,-2.9986 -0.796751,-1.60073 -1.539415,-2.95011 -1.650363,-2.99861 -0.110945,-0.0485 -0.201721,-0.30649 -0.201721,-0.57327 0,-0.26678 -0.0893,-0.52475 -0.198437,-0.57327 -0.109141,-0.0485 -0.721709,-1.10022 -1.361263,-2.33715 -0.639553,-1.23692 -1.487527,-2.84427 -1.884386,-3.57187 -0.74562,-1.36702 -4.883431,-9.37313 -7.247486,-14.02292 -0.739862,-1.45521 -1.434896,-2.68552 -1.544524,-2.73402 -0.109627,-0.0485 -0.199321,-0.30649 -0.199321,-0.57327 0,-0.26678 -0.09078,-0.52475 -0.201721,-0.57327 -0.110947,-0.0485 -0.851892,-1.39787 -1.646542,-2.9986 -0.794649,-1.60073 -1.509154,-2.96995 -1.587783,-3.04271 -0.07863,-0.0728 -0.439018,-0.72737 -0.800856,-1.45468 -0.361839,-0.72731 -1.202992,-2.33466 -1.8692309,-3.57188 -1.425901,-2.64792 -6.387675,-12.22507 -8.293405,-16.00782 -0.73312602,-1.4552 -1.39798402,-2.70536 -1.47746302,-2.77812 -0.07947,-0.0728 -0.79466998,-1.44198 -1.58931998,-3.04271 -0.79465,-1.60073 -1.535594,-2.9501 -1.646542,-2.9986 -0.110945,-0.0485 -0.201721,-0.3065 -0.201721,-0.57327 0,-0.26678 -0.0893,-0.52475 -0.198437,-0.57328 -0.109141,-0.0485 -0.718916,-1.10021 -1.355056,-2.33714 -0.636138,-1.23693 -1.483368,-2.84427 -1.88273,-3.57188 -0.810649,-1.47693 -5.1968541,-9.94846 -7.2604881,-14.02291 -0.737036,-1.45521 -1.429758,-2.68552 -1.539385,-2.73402 -0.109628,-0.0485 -0.199321,-0.3065 -0.199321,-0.57327 0,-0.26678 -0.09078,-0.52475 -0.201721,-0.57328 -0.110948,-0.0485 -0.851893,-1.39787 -1.646542,-2.9986 -0.79465,-1.60073 -1.507546,-2.96995 -1.584214,-3.04271 -0.07667,-0.0728 -0.510148,-0.84666 -0.963287,-1.71979 -0.453139,-0.87312 -1.540627,-2.95672 -2.416638,-4.63021 -2.61964,-5.00443 -5.62641,-10.81101 -7.055848,-13.62604 -0.738938,-1.45521 -1.433218,-2.68552 -1.542846,-2.73402 -0.109627,-0.0485 -0.199321,-0.30649 -0.199321,-0.57327 0,-0.26678 -0.09309,-0.52475 -0.206859,-0.57327 -0.113774,-0.0485 -0.891834,-1.45741 -1.729023,-3.1309 -0.837187,-1.67349 -1.79386,-3.51896 -2.125935,-4.10104 -0.332074,-0.58208 -1.411505,-2.60615 -2.398732,-4.49792 -0.987226,-1.89177 -1.827082,-3.47379 -1.866347,-3.51562 -0.340227,-0.36245 -7.647077,3.51983 -9.018868,4.79189 -0.184589,0.17119 -0.732853,0.60712 -1.218364,0.96872 -1.103072,0.82161 -5.340694,5.02698 -6.669297,6.61856 -1.32684,1.58945 -5.458243,7.76234 -5.458243,8.15538 0,0.17121 -0.119062,0.31128 -0.264583,0.31128 -0.145521,0 -0.264584,0.22821 -0.264584,0.50713 0,0.2789 -0.0893,0.54679 -0.198437,0.59531 -0.285811,0.12703 -1.389063,2.31836 -1.389063,2.75902 0,0.20453 -0.119062,0.37188 -0.264583,0.37188 -0.145521,0 -0.264583,0.23812 -0.264583,0.52916 0,0.29104 -0.10418,0.52917 -0.231511,0.52917 -0.12733,0 -0.301196,0.34843 -0.386365,0.77428 -0.08517,0.42584 -0.386742,1.28905 -0.670158,1.91822 -0.476528,1.05789 -0.997651,2.6905 -2.39203,7.49396 -0.716671,2.46885 -1.504889,7.185 -1.879361,11.24479 -0.302253,3.27681 -0.194522,7.11795 0.285689,10.18646 0.632293,4.04026 0.84754,4.74707 1.732343,5.68854 1.138828,1.21174 2.137312,2.29447 4.864309,5.27468 1.236928,1.35176 2.606146,2.84102 3.042709,3.30946 0.436562,0.46842 1.376119,1.49683 2.087906,2.28534 1.451946,1.60843 5.494716,6.01964 8.098553,8.83658 2.079588,2.24978 5.847479,6.39535 6.554375,7.21135 0.281762,0.32523 1.214249,1.3435 2.07219,2.26277 0.85794,0.91929 2.452862,2.66779 3.544268,3.88556 1.091407,1.21778 2.341563,2.59837 2.778125,3.06798 0.789549,0.84931 4.53997,4.92075 5.727637,6.21789 0.3423,0.37383 1.753457,1.91559 3.135905,3.42607 1.382448,1.5105 2.692135,2.93661 2.910417,3.16918 0.329948,0.3515 4.809974,5.26785 5.688542,6.24255 0.14552,0.16142 1.336145,1.45939 2.645833,2.88435 1.309688,1.42494 2.559844,2.7953 2.778125,3.0452 0.66403,0.76023 4.1201421,4.5689 5.0651251,5.58184 0.4884,0.5235 1.856521,2.01178 3.04027,3.30729 2.513841,2.75116 2.796495,3.05884 6.153751,6.69914 3.118038,3.38087 2.587389,2.80032 5.584605,6.10994 1.382448,1.52654 2.573073,2.83507 2.645834,2.90783 0.07276,0.0728 1.3229159,1.43994 2.7781249,3.03816 3.094209,3.3983 2.680377,2.94208 5.065125,5.58374 1.039569,1.15154 2.289726,2.52206 2.778125,3.04556 0.4884,0.52351 1.856521,2.01179 3.040269,3.30729 2.513841,2.75117 2.796495,3.05885 6.153751,6.69915 3.118038,3.38087 2.58739,2.80032 5.584606,6.10994 1.382448,1.52654 2.573073,2.83506 2.645833,2.90782 0.07276,0.0728 1.322917,1.43995 2.778125,3.03816 1.455209,1.59822 2.7649,3.03652 2.91042,3.1962 0.14552,0.1597 1.15755,1.27608 2.24895,2.48083 1.09141,1.20476 2.34157,2.57583 2.77813,3.04681 0.85471,0.92213 4.88662,5.31794 5.92476,6.45951 0.34822,0.38291 1.77697,1.93649 3.175,3.45239 3.11804,3.38088 2.58739,2.80033 5.58462,6.10995 1.38244,1.52654 2.57997,2.83506 2.6612,2.90782 0.0812,0.0728 1.33088,1.44198 2.77702,3.04271 1.44613,1.60073 3.06707,3.38667 3.60209,3.96875 0.53498,0.58208 1.24986,1.37845 1.58861,1.76969 0.91482,1.05667 1.08291,0.8912 0.38663,-0.38063 z m 47.588891,-5.15334 c 1.80798,-3.69417 8.63759,-17.56825 15.27392,-31.02843 2.61877,-5.31151 5.0161,-10.19307 5.32744,-10.84792 0.31133,-0.65484 0.65537,-1.23031 0.76451,-1.27881 0.10914,-0.0485 0.19844,-0.30649 0.19844,-0.57327 0,-0.26678 0.0929,-0.52475 0.20635,-0.57327 0.11348,-0.0485 1.46894,-2.64803 3.01212,-5.77673 1.54316,-3.1287 5.09532,-10.33198 7.89369,-16.00729 2.79836,-5.67531 7.3366,-14.84313 10.08499,-20.37292 2.74838,-5.52979 4.99697,-10.20299 4.99684,-10.38489 -1.3e-4,-0.1819 0.11882,-0.33073 0.26434,-0.33073 0.14552,0 0.26459,-0.2282 0.26459,-0.50713 0,-0.2789 0.0929,-0.54679 0.20635,-0.59531 0.20433,-0.0873 1.66793,-3.01189 10.23982,-20.4611 4.10022,-8.34658 6.50886,-13.18893 9.87047,-19.84375 0.73506,-1.45521 3.68123,-7.40834 6.54701,-13.22917 2.86578,-5.82083 7.26569,-14.75052 9.77759,-19.84375 2.51191,-5.09323 5.26289,-10.68917 6.11334,-12.43542 0.85045,-1.74625 1.63938,-3.21468 1.75315,-3.26318 0.11377,-0.0485 0.20685,-0.31642 0.20685,-0.59531 0,-0.27893 0.11906,-0.50713 0.26459,-0.50713 0.14552,0 0.26458,-0.18021 0.26458,-0.40047 0,-0.37828 0.49244,-1.42815 0.80499,-1.7162 0.079,-0.0728 0.92954,-1.73963 1.89021,-3.70416 0.96065,-1.96454 4.09083,-8.33438 6.95593,-14.15521 2.86509,-5.82084 5.33603,-10.84639 5.49092,-11.16788 0.60362,-1.2527 -0.25233,-6.49282 -1.55334,-9.5096 -0.19775,-0.45858 -0.35954,-0.91255 -0.35954,-1.00886 0,-0.3329 -1.69426,-3.71395 -1.90511,-3.80185 -0.11636,-0.0485 -0.21156,-0.2036 -0.21156,-0.34462 0,-0.59174 -4.04937,-6.39532 -6.33693,-9.08214 -1.46312,-1.71844 -5.46849,-5.71532 -6.61083,-6.59678 -0.6641,-0.51244 -1.56464,-1.23203 -2.0012,-1.59906 -1.22806,-1.03251 -1.21785,-1.02481 -3.06689,-2.31463 -0.95917,-0.6691 -2.09026,-1.41107 -2.51354,-1.6488 -0.42326,-0.23775 -1.24582,-0.72811 -1.8279,-1.08969 -0.58209,-0.36158 -1.50482,-0.86283 -2.05052,-1.11387 -0.54571,-0.25103 -0.99219,-0.54739 -0.99219,-0.6586 0,-0.1112 -0.15624,-0.20216 -0.34719,-0.20216 -0.19095,0 -0.81603,-0.22355 -1.38906,-0.49676 -0.57303,-0.27323 -1.87531,-0.75951 -2.89396,-1.08064 -1.01865,-0.3211 -2.05684,-0.69164 -2.30711,-0.82338 -0.75756,-0.39883 -4.9261,-1.03881 -6.76627,-1.03881 -1.59023,0 -4.03159,0.51591 -5.14438,1.0871 -0.2527,0.12969 -0.66997,0.23582 -0.92731,0.23582 -0.40367,0 -1.31545,3.67538 -6.6457,26.78906 -3.3978,14.73399 -12.06725,52.20891 -19.26545,83.27761 -12.94429,55.86999 -35.03562,151.43413 -35.4058,153.1607 -0.32644,1.52268 0.24331,0.73967 1.84875,-2.54061 z M 95.984859,389.97721 c -0.0987,-13.93362 -0.29583,-39.56182 -0.43807,-56.95156 -0.54904,-67.11852 -0.79664,-98.31827 -1.19571,-150.68021 l -0.41338,-54.23958 -1.44934,-1.38359 c -2.23017,-2.12899 -4.93355,-3.8518 -8.31559,-5.29931 -2.13098,-0.91205 -2.73754,-1.1063 -5.68854,-1.82187 -6.26155,-1.51831 -15.11747,-0.6785 -21.16667,2.00724 -6.9197,3.07223 -10.87678,5.69878 -15.349299,10.1882 -3.018684,3.03011 -3.461465,3.53938 -5.302631,6.09891 -2.089918,2.90531 -3.158469,4.75544 -5.138034,8.8962 l -0.584809,1.22324 2.274266,9.49238 c 1.250844,5.22078 2.510269,10.38532 2.79872,11.47673 0.288449,1.0914 1.660139,6.8064 3.048209,12.7 1.388058,5.89359 2.764817,11.52728 3.059483,12.51934 0.294667,0.99205 1.830865,7.24283 3.413785,13.89062 1.58292,6.64779 3.58926,14.94441 4.45855,18.43691 0.86929,3.4925 2.42594,9.86234 3.45924,14.15521 4.45643,18.51469 5.98723,24.8181 8.48156,34.925 1.45452,5.89359 3.31134,13.57312 4.12629,17.06562 0.81494,3.4925 2.06364,8.61219 2.77487,11.37709 0.71122,2.76489 2.25647,9.13474 3.43389,14.1552 1.17742,5.02047 2.42906,10.14016 2.78143,11.37709 0.35238,1.23693 1.78306,7.13052 3.17932,13.09687 1.39623,5.96636 2.82588,11.85995 3.17698,13.09688 0.3511,1.23693 1.77163,7.07099 3.15669,12.96458 1.38507,5.8936 2.81618,11.78719 3.18022,13.09688 0.36404,1.30968 1.67185,6.6675 2.90623,11.90625 2.54627,10.8064 5.241,21.56063 5.40301,21.56237 0.0598,0 0.028,-11.39907 -0.0707,-25.33269 z m 47.088931,19.71146 c 1.36667,-1.69569 2.2697,-2.77026 3.14377,-3.74105 0.14553,-0.1616 0.57852,-0.71056 0.96219,-1.21989 0.3837,-0.50932 0.95956,-1.22369 1.27974,-1.5875 1.40975,-1.60184 2.81445,-3.29414 3.16097,-3.80814 0.2067,-0.30663 0.9861,-1.27186 1.73202,-2.14498 0.74594,-0.87313 2.12034,-2.54 3.05424,-3.70417 0.9339,-1.16416 1.76612,-2.17619 1.84939,-2.24896 0.0833,-0.0728 0.91831,-1.08479 1.85571,-2.24895 0.93736,-1.16417 1.82604,-2.24891 1.97482,-2.41052 0.67133,-0.72929 1.65103,-1.90632 2.29103,-2.75254 0.38369,-0.50731 0.96054,-1.22002 1.2819,-1.58382 0.76589,-0.86704 1.92027,-2.2733 4.1266,-5.02708 0.99103,-1.23693 1.87233,-2.30849 1.95848,-2.38125 0.0861,-0.0728 0.92191,-1.08479 1.85729,-2.24896 0.93538,-1.16417 1.76882,-2.1762 1.85208,-2.24896 0.0833,-0.0728 0.91832,-1.08479 1.85571,-2.24896 0.93737,-1.16416 1.82605,-2.2489 1.97483,-2.41051 0.74303,-0.80719 1.6715,-1.93577 2.37331,-2.88483 0.70461,-0.95285 3.24596,-4.03614 3.59529,-4.36195 0.078,-0.0728 0.90715,-1.08479 1.84253,-2.24896 0.93538,-1.16416 1.76882,-2.17619 1.85208,-2.24896 0.0833,-0.0728 0.91671,-1.08479 1.85209,-2.24895 0.93538,-1.16417 1.76882,-2.1762 1.85208,-2.24896 0.0833,-0.0728 0.91901,-1.08479 1.85722,-2.24896 0.93821,-1.16417 1.92487,-2.35479 2.19255,-2.64583 0.26768,-0.29105 0.74591,-0.86768 1.06272,-1.28141 1.06421,-1.38969 2.94013,-3.74306 3.21456,-4.03262 0.59743,-0.63047 2.67655,-3.12981 3.03921,-3.6535 0.21233,-0.30662 0.50999,-0.68971 0.66146,-0.85132 0.63924,-0.68207 1.70651,-1.95212 3.3105,-3.93949 0.93956,-1.16416 1.77778,-2.17619 1.86269,-2.24896 0.15041,-0.1289 3.29022,-3.97147 5.95013,-7.28194 2.04846,-2.54947 5.77337,-7.10467 6.07709,-7.43169 0.73586,-0.79232 1.64928,-1.87968 1.99953,-2.3803 0.37899,-0.54166 2.49225,-3.07578 3.04671,-3.6535 0.15147,-0.15782 0.44913,-0.53779 0.66145,-0.84442 0.37127,-0.5361 2.47404,-3.06096 3.04271,-3.6535 0.15148,-0.15782 0.44913,-0.53779 0.66146,-0.84441 0.37126,-0.5361 2.47404,-3.06097 3.04271,-3.6535 0.15147,-0.15783 0.44913,-0.53779 0.66146,-0.84442 0.34486,-0.49797 2.34778,-2.91155 3.03188,-3.6535 0.14553,-0.15782 0.59021,-0.72311 0.9882,-1.25621 0.39796,-0.53311 0.87688,-1.12843 1.06423,-1.32292 0.18738,-0.1945 1.10763,-1.30614 2.04499,-2.47031 0.93739,-1.16417 1.77245,-2.1762 1.85571,-2.24896 0.0833,-0.0728 0.919,-1.08479 1.85722,-2.24896 0.93821,-1.16416 1.92743,-2.35479 2.19829,-2.64583 0.73654,-0.79147 2.02991,-2.70433 2.02991,-3.00217 0,-0.14357 0.0908,-0.3007 0.20172,-0.34923 0.50061,-0.21886 4.56078,-9.15961 4.56078,-10.0431 0,-0.15614 0.17079,-0.65903 0.37952,-1.1176 1.08249,-2.37797 2.77008,-10.42708 3.33502,-15.90668 0.39912,-3.87133 0.19817,-10.98711 -0.40371,-14.2958 -0.5575,-3.06467 -1.65317,-7.54147 -1.99035,-8.13234 -0.14417,-0.25271 -0.26215,-0.58666 -0.26215,-0.74213 0,-0.29745 -0.69789,-1.95808 -1.66333,-3.95782 -2.78678,-5.77237 -7.5339,-9.99379 -12.17226,-10.82427 -0.84286,-0.15092 -1.72945,-0.38462 -1.97025,-0.51937 -0.37407,-0.20934 -1.04603,0.98586 -4.61909,8.21615 -2.29974,4.65363 -4.18132,8.57076 -4.18132,8.70472 0,0.13398 -0.11906,0.2436 -0.26458,0.2436 -0.14552,0 -0.26459,0.23812 -0.26459,0.52917 0,0.29104 -0.11906,0.52916 -0.26458,0.52916 -0.14552,0 -0.26458,0.23813 -0.26458,0.52917 0,0.29104 -0.11907,0.52917 -0.26459,0.52917 -0.14552,0 -0.26458,0.23812 -0.26458,0.52916 0,0.29104 -0.11906,0.52917 -0.26458,0.52917 -0.14552,0 -0.26459,0.23812 -0.26459,0.52917 0,0.29104 -0.11906,0.52916 -0.26458,0.52916 -0.14552,0 -0.26458,0.23813 -0.26458,0.52917 0,0.29104 -0.11907,0.52917 -0.26459,0.52917 -0.14552,0 -0.26458,0.23812 -0.26458,0.52916 0,0.29104 -0.11906,0.52917 -0.26458,0.52917 -0.14552,0 -0.26459,0.23812 -0.26459,0.52917 0,0.29104 -0.11906,0.52916 -0.26458,0.52916 -0.14552,0 -0.26255,0.14883 -0.26006,0.33073 0.003,0.1819 -2.3068,4.97417 -5.1317,10.64948 -2.82493,5.67531 -6.66155,13.41438 -8.52585,17.19792 -1.86431,3.78354 -3.48412,6.91885 -3.59955,6.96735 -0.11547,0.0485 -0.20992,0.24521 -0.20992,0.43714 0,0.19191 -1.36922,3.09534 -3.04271,6.45205 -1.67349,3.35672 -3.04271,6.22586 -3.04271,6.37588 0,0.15004 -0.11906,0.27279 -0.26458,0.27279 -0.14553,0 -0.26459,0.23812 -0.26459,0.52916 0,0.29104 -0.11906,0.52917 -0.26458,0.52917 -0.14552,0 -0.26458,0.23812 -0.26458,0.52917 0,0.29104 -0.11907,0.52916 -0.26459,0.52916 -0.14552,0 -0.26458,0.23813 -0.26458,0.52917 0,0.29104 -0.11906,0.52917 -0.26458,0.52917 -0.14553,0 -0.26459,0.23812 -0.26459,0.52916 0,0.29104 -0.11906,0.52917 -0.26458,0.52917 -0.14552,0 -0.26458,0.23812 -0.26458,0.52917 0,0.29104 -0.11907,0.52916 -0.26459,0.52916 -0.14552,0 -0.26458,0.23813 -0.26458,0.52917 0,0.29104 -0.11906,0.52917 -0.26458,0.52917 -0.14553,0 -0.26401,0.14882 -0.26329,0.33072 0,0.18191 -2.24682,4.85511 -4.99454,10.3849 -2.74773,5.52979 -5.98789,12.07823 -7.20037,14.55208 -1.21248,2.47386 -2.29868,4.53761 -2.41377,4.58611 -0.11512,0.0485 -0.20929,0.31641 -0.20929,0.59531 0,0.27892 -0.11906,0.50712 -0.26458,0.50712 -0.14552,0 -0.26458,0.23813 -0.26458,0.52917 0,0.29104 -0.11906,0.52917 -0.26459,0.52917 -0.14552,0 -0.26458,0.23812 -0.26458,0.52916 0,0.29105 -0.11906,0.52917 -0.26458,0.52917 -0.14552,0 -0.26459,0.18783 -0.26459,0.41738 0,0.22955 -1.36921,3.10595 -3.0427,6.39199 -1.67349,3.28607 -3.04271,6.12442 -3.04271,6.30746 0,0.18306 -0.0904,0.3725 -0.20087,0.42103 -0.11049,0.0485 -0.69604,1.10021 -1.30125,2.33714 -0.60521,1.23693 -3.89215,7.90443 -7.30433,14.81667 -3.41217,6.91224 -6.77907,13.75833 -7.48199,15.21354 -0.70292,1.45521 -1.37372,2.68552 -1.49064,2.73402 -0.11692,0.0485 -0.21259,0.31641 -0.21259,0.59531 0,0.27892 -0.11906,0.50713 -0.26458,0.50713 -0.14552,0 -0.26459,0.23812 -0.26459,0.52916 0,0.29105 -0.11906,0.52917 -0.26458,0.52917 -0.14552,0 -0.26458,0.23813 -0.26458,0.52917 0,0.29104 -0.11907,0.52916 -0.26459,0.52916 -0.14552,0 -0.26458,0.23813 -0.26458,0.52917 0,0.29104 -0.11906,0.52917 -0.26458,0.52917 -0.14552,0 -0.26459,0.23812 -0.26459,0.52916 0,0.29105 -0.11906,0.52917 -0.26458,0.52917 -0.14552,0 -0.26458,0.17957 -0.26458,0.39907 0,0.2195 -1.60735,3.57632 -3.57188,7.45961 -1.96453,3.88329 -3.57187,7.21606 -3.57187,7.40614 0,0.19008 -0.11907,0.3456 -0.26459,0.3456 -0.14552,0 -0.26458,0.2282 -0.26458,0.50712 0,0.2789 -0.0934,0.54679 -0.20749,0.59532 -0.11411,0.0485 -0.66529,1.04068 -1.22486,2.20485 -0.55954,1.16417 -2.16283,4.43444 -3.56282,7.26726 -1.39999,2.83281 -2.58514,5.24383 -2.63364,5.35781 -0.24686,0.57997 0.3117,0.0201 1.70691,-1.71101 z m -22.67488,-48.61719 c 5.96117,-25.82994 14.60392,-63.21557 19.20608,-83.07916 4.60216,-19.8636 13.11667,-56.68568 18.92112,-81.82684 l 10.55355,-45.71122 -1.1384,-2.71719 c -0.62611,-1.49445 -1.43724,-3.24861 -1.8025,-3.89814 -1.96959,-3.5026 -1.72209,-3.12216 -4.29511,-6.60241 -2.55998,-3.46263 -6.40038,-7.30324 -10.20213,-10.20273 -2.7473,-2.09529 -6.65257,-4.61647 -7.15086,-4.61647 -0.14161,0 -0.25747,-0.11907 -0.25747,-0.26459 0,-0.14552 -0.11202,-0.26458 -0.24892,-0.26458 -0.1369,0 -1.2858,-0.48123 -2.5531,-1.06942 -4.39253,-2.03867 -11.12395,-3.69308 -15.02637,-3.69308 -2.5568,0 -5.69979,0.76303 -8.23307,1.99874 -2.50365,1.22124 -3.49628,1.9916 -4.77594,3.70647 -0.42751,0.5729 -0.8522,1.1012 -0.94374,1.17396 -0.31541,0.25069 -3.06189,4.63454 -4.17298,6.66078 l -1.11348,2.03059 0.27546,32.10066 c 0.25993,30.28915 0.42699,50.93163 1.07778,133.17151 0.1497,18.91771 0.38809,48.08802 0.52975,64.82292 0.14166,16.73489 0.26741,33.87989 0.27948,38.1 0.0119,4.2201 0.0693,7.55385 0.12713,7.40833 0.0579,-0.14552 4.98256,-21.39818 10.94372,-47.22813 z m -43.224791,34.63023 c -1.38436,-5.87698 -2.76839,-11.5784 -3.07563,-12.66981 -0.30723,-1.0914 -1.78731,-7.16359 -3.28908,-13.49375 -1.50178,-6.33015 -3.09415,-12.87859 -3.53859,-14.55208 -0.44445,-1.67349 -1.87413,-7.56709 -3.17704,-13.09688 -1.30292,-5.52979 -2.61922,-10.94713 -2.9251,-12.03854 -0.30586,-1.0914 -1.74038,-6.985 -3.18776,-13.09687 -1.4474,-6.11188 -2.81572,-11.76735 -3.04069,-12.56771 -0.22498,-0.80037 -1.59706,-6.45583 -3.04909,-12.56771 -1.45203,-6.11187 -3.05369,-12.66031 -3.55923,-14.55208 -0.50556,-1.89177 -1.94151,-7.78537 -3.191,-13.09688 -1.24953,-5.31151 -2.856181,-11.91948 -3.570371,-14.68437 -0.71419,-2.7649 -2.202947,-8.89662 -3.308347,-13.62604 -1.105398,-4.72943 -2.593827,-10.86115 -3.307623,-13.62605 -0.713793,-2.76489 -2.250501,-9.08849 -3.414906,-14.05241 -1.164404,-4.96396 -2.712315,-11.3338 -3.439805,-14.15521 -0.727488,-2.82144 -2.292464,-9.23753 -3.477723,-14.258 -1.18526,-5.02047 -2.253687,-9.48531 -2.374284,-9.92188 -0.120597,-0.43656 -0.811099,-3.16124 -1.534449,-6.05485 -0.723352,-2.89362 -1.468821,-5.35607 -1.656598,-5.47212 -0.18778,-0.11604 -1.071618,-0.33816 -1.964087,-0.49358 -5.142439,-0.8955 -11.0084029,0.33968 -18.2793279,3.84903 -1.146976,0.55359 -2.144945,1.084 -2.217705,1.17867 -0.07276,0.0947 -0.549011,0.38481 -1.058334,0.64471 -0.944327,0.48191 -5.159214,3.53009 -6.6838251,4.83375 -5.375228,4.59615 -10.53255,11.19933 -13.478445,17.2571 -1.929587,3.96791 -2.729578,6.37157 -3.775619,11.34428 l -0.401355,1.90796 2.555542,4.9494 c 1.405546,2.72217 3.354178,6.49722 4.33029,8.38899 3.964141,7.68276 5.237578,10.10946 8.400015,16.00729 0.663247,1.23693 2.153688,4.09443 3.312092,6.35 5.2213721,10.16672 8.7158281,16.89555 10.03055808,19.31458 1.39669102,2.56982 3.73145402,7.02583 6.16907902,11.77396 4.3837699,8.53895 8.5491819,16.53643 9.4397009,18.12396 0.743611,1.32564 3.205131,6.03004 6.29902,12.03854 4.101635,7.9656 8.454099,16.33717 9.973041,19.18229 3.222363,6.03576 3.644066,6.84422 9.867831,18.91771 2.606705,5.0568 4.681665,9.02557 5.948205,11.37708 1.51294,2.80906 3.69416,6.97164 5.96172,11.37709 2.00745,3.90009 4.1982,8.13286 7.32629,14.1552 0.86923,1.67349 2.00104,3.81662 2.51513,4.7625 1.75069,3.2212 3.57814,6.72714 9.99866,19.1823 1.12519,2.18281 2.73364,5.27843 3.57428,6.87916 0.84063,1.60073 1.77922,3.4044 2.08571,4.00818 0.30652,0.60375 0.59071,1.06643 0.63156,1.02814 0.0409,-0.0383 -1.05836,-4.87804 -2.44271,-10.75505 z"
       id="path62"
       inkscape:export-xdpi="96"
       inkscape:export-ydpi="96" />
  </g>
</svg>
