<?xml version="1.0" encoding="UTF-8" standalone="no"?>
<svg
   xmlns:dc="http://purl.org/dc/elements/1.1/"
   xmlns:cc="http://creativecommons.org/ns#"
   xmlns:rdf="http://www.w3.org/1999/02/22-rdf-syntax-ns#"
   xmlns:svg="http://www.w3.org/2000/svg"
   xmlns="http://www.w3.org/2000/svg"
   xmlns:sodipodi="http://sodipodi.sourceforge.net/DTD/sodipodi-0.dtd"
   xmlns:inkscape="http://www.inkscape.org/namespaces/inkscape"
   width="434.62183mm"
   height="673.07135mm"
   viewBox="0 0 434.62182 673.07135"
   version="1.1"
   id="svg8"
   inkscape:version="1.0.1 (3bc2e813f5, 2020-09-07)"
   sodipodi:docname="homard-icone.svg"
   inkscape:export-filename="C:\Users\Eric\Desktop\Wireframe\homard-icone.png"
   inkscape:export-xdpi="96"
   inkscape:export-ydpi="96">
  <defs
     id="defs2" />
  <sodipodi:namedview
     id="base"
     pagecolor="#000000"
     bordercolor="#666666"
     borderopacity="1.0"
     inkscape:pageopacity="0"
     inkscape:pageshadow="2"
     inkscape:zoom="0.175"
     inkscape:cx="844.65694"
     inkscape:cy="1151.7519"
     inkscape:document-units="mm"
     inkscape:current-layer="layer1"
     inkscape:document-rotation="0"
     showgrid="false"
     inkscape:window-width="1425"
     inkscape:window-height="1080"
     inkscape:window-x="2433"
     inkscape:window-y="216"
     inkscape:window-maximized="0" />
  <metadata
     id="metadata5">
    <rdf:RDF>
      <cc:Work
         rdf:about="">
        <dc:format>image/svg+xml</dc:format>
        <dc:type
           rdf:resource="http://purl.org/dc/dcmitype/StillImage" />
        <dc:title />
      </cc:Work>
    </rdf:RDF>
  </metadata>
  <g
     inkscape:label="Calque 1"
     inkscape:groupmode="layer"
     id="layer1"
     transform="translate(129.47581,113.28485)">
    <path
       style="fill:#fefefe;stroke-width:0.264583"
       d="m 13.663778,559.676 c -0.21828,-0.0428 -1.28985,-0.22228 -2.38125,-0.39891 -4.0338698,-0.65289 -9.0225298,-2.67954 -12.5677098,-5.10567 -9.8962702,-6.77246 -16.4967402,-17.94965 -19.0882802,-32.32398 -0.68302,-3.78849 -0.6893,-14.22866 -0.0108,-17.99167 0.59056,-3.27538 2.08603,-8.63362 2.96319,-10.61704 0.36178,-0.81804 0.65778,-1.54723 0.65778,-1.62042 0,-0.0732 -0.50602,0.33076 -1.12448,0.89763 -4.80279,4.40216 -13.8332,9.69134 -20.04219,11.73887 -6.42475,2.11865 -10.7877,2.77268 -17.13948,2.56927 -6.38497,-0.20447 -10.58379,-1.34718 -15.38879,-4.18807 -7.40795,-4.37983 -11.73436,-11.6909 -12.76411,-21.56968 -0.63453,-6.08737 0.84377,-14.45879 3.6512,-20.6762 0.34692,-0.7683 0.63076,-1.46812 0.63076,-1.55515 0,-0.31014 3.54132,-6.59098 4.45037,-7.89315 3.79129,-5.43081 7.57613,-9.5903 12.59779,-13.8448 1.54897,-1.31233 5.11413,-3.85943 6.49351,-4.63921 l 1.44896,-0.81912 -1.31667,-0.35438 c -7.82612,-2.10638 -13.97803,-4.98978 -19.05502,-8.93109 -9.68957,-7.52211 -12.71231,-18.31076 -7.94366,-28.35217 1.92519,-4.05389 6.23131,-8.7 10.94113,-11.80497 2.28027,-1.50328 6.43207,-3.70705 8.66051,-4.59695 5.53804,-2.21157 11.58379,-3.72073 17.85271,-4.45645 3.81651,-0.44792 13.00672,-0.51263 16.53808,-0.1165 12.60298,1.41383 24.0175402,5.84838 30.5893602,11.88397 1.04229,0.95724 1.57496,1.2722 1.9825,1.17219 0.55132,-0.13526 1.4271,0.47344 1.4271,0.99192 0,0.32496 -0.76378,1.81523 -1.15878,2.26094 -0.67192,0.75822 -0.92642,1.14308 -2.6509,4.00881 -4.81023,7.99367 -7.91361,16.53746 -9.33971,25.71279 -0.66212,4.26003 -0.6651,14.79082 -0.005,18.89085 1.30672,8.12041 3.43591,14.56016 7.13852004,21.5904 1.27354,2.41811 4.83707996,7.94962 6.07888996,9.43594 6.4987298,7.77843 11.2561898,12.00148 18.4367598,16.3657 8.14034,4.94752 15.89885,7.69644 26.61201,9.42888 2.84081,0.45936 14.30745,0.46757 17.4625,0.0124 8.9476,-1.29069 17.12617,-3.89776 24.18237,-7.70866 3.28157,-1.77231 5.30111,-2.92407 5.71555,-3.25961 0.14553,-0.11782 1.37494,-0.98793 2.732012,-1.93358 1.35708,-0.94565 2.78461,-2.01345 3.1723,-2.37294 0.45001,-0.4173 1.01674,-0.6536 1.56748,-0.6536 0.81036,0 0.86259,0.0564 0.86259,0.9313 0,0.51404 0.27498,1.37348 0.61373,1.91823 1.03904,1.67085 3.54261,6.9523 4.41859,9.3213 2.73423,7.39458 3.8698,12.73768 4.13298,19.44688 0.79174,20.1818 -10.93063,33.22989 -29.044402,32.32912 -8.60211,-0.42776 -18.2865,-4.2499 -26.48681,-10.45356 -3.43069,-2.59535 -4.30654,-3.35846 -7.49326,-6.52873 l -2.39771,-2.38529 -0.30856,2.2657 c -0.90032,6.61054 -3.60262,13.80697 -7.24762,19.30088 -1.81391,2.73405 -6.04652,7.21426 -8.46054,8.95551 -5.09829,3.67742 -11.96741,5.91114 -17.9298,5.83047 -1.24767,-0.0169 -2.44708,-0.0657 -2.66536,-0.10846 z m 38.18697,-87.44299 c -14.59601,-1.41968 -26.55401,-7.14785 -33.12966,-15.86995 -2.29911,-3.04959 -2.8255,-3.90231 -4.0832,-6.61458 -2.36251,-5.09485 -3.29064,-9.06944 -3.5217,-15.08125 -0.4867,-12.66317 4.46708,-26.27464 14.18634,-38.97969 2.6174,-3.42148 3.78149,-4.73892 7.95844,-9.00692 l 3.07276,-3.1397 1.61041,0.1869 c 1.08895,0.12639 1.66177,0.32075 1.769,0.60021 0.0872,0.22733 0.0193,1.3775 -0.15089,2.55592 -0.40605,2.81115 -0.40175,10.31225 0.007,12.99057 1.45386,9.51579 4.65593,17.2502 10.1871,24.60625 8.94585,11.89739 22.43849,19.58941 37.85804,21.58254 3.0431,0.39335 10.41072,0.39092 13.493752,-0.005 7.85251,-1.00703 15.16181,-3.46842 22.19034,-7.47255 3.90091,-2.22231 6.44228,-4.08739 10.35341,-7.5982 1.94207,-1.74328 2.53984,-2.13791 3.24114,-2.1396 0.78486,-0.003 0.8599,0.0692 0.8599,0.81452 0,0.82185 -1.64428,3.22389 -4.67048,6.82297 -1.66822,1.984 -8.51844,8.87182 -10.23506,10.29123 -0.7515,0.6214 -1.78305,1.48333 -2.29238,1.91542 -2.02438,1.71742 -6.34627,4.90898 -8.99583,6.64311 -13.519282,8.8483 -28.654722,14.56923 -43.656252,16.50122 -3.95806,0.50974 -12.67299,0.72474 -16.05262,0.39605 z m 38.80678,-44.74853 c -13.59331,-1.40991 -25.25157,-7.15632 -31.85959,-15.70371 -2.65716,-3.43699 -4.19653,-6.25147 -5.55707,-10.16016 -1.46513,-4.20923 -2.01015,-7.24879 -2.18707,-12.19713 -0.2236,-6.25459 0.42425,-11.17148 2.29758,-17.43753 2.06973,-6.92303 6.66705,-16.49761 8.09337,-16.85559 0.3824,-0.096 0.63778,-0.35336 0.63778,-0.64273 0,-0.53935 0.75978,-0.88085 1.40708,-0.63246 0.23283,0.0893 1.1612,1.37197 2.06306,2.85028 2.76828,4.53768 7.20413,10.56907 10.53875,14.32949 3.22996,3.64238 8.91768,8.94524 13.33792,12.43541 8.64481,6.82586 20.314652,12.6777 30.332362,15.21013 9.29783,2.35048 17.20517,2.86869 25.79687,1.69064 11.70803,-1.60534 22.52941,-6.79683 30.77584,-14.76452 2.25351,-2.17734 2.52603,-2.35749 3.22847,-2.13455 0.38095,0.12091 0.52382,0.40155 0.52382,1.02901 0,1.05958 -2.43165,4.08125 -7.55885,9.39292 -9.25439,9.58739 -19.61325,17.10508 -31.86407,23.12456 -12.0174,5.90479 -24.19855,9.4678 -35.85104,10.4865 -3.70708,0.32408 -10.933672,0.31358 -14.155212,-0.0206 z m 34.263542,-37.97009 c -9.08285,-1.07995 -15.72421,-3.07832 -22.88646,-6.8865 -3.905592,-2.07661 -4.939322,-2.76024 -8.866952,-5.86398 -8.25421,-6.52278 -14.82405,-16.13355 -18.33422,-26.82039 -2.37633,-7.23477 -3.18868,-12.23592 -3.38654,-20.84835 -0.13729,-5.9767 0.15018,-8.28045 1.64439,-13.17797 0.6043,-1.98064 0.83738,-2.42311 1.34347,-2.55011 1.05479,-0.26474 1.79179,0.10872 2.60469,1.31985 0.4322,0.64392 0.87572,1.17335 0.98563,1.17655 0.10988,0.003 0.82425,0.67807 1.5875,1.49974 3.44646,3.7103 6.51452,6.43697 10.11891,8.99289 16.571572,11.75121 40.392642,17.19014 63.012372,14.38723 13.87375,-1.71913 25.70626,-6.12921 35.67097,-13.29484 3.25634,-2.34162 7.89533,-6.98347 10.26306,-10.26933 2.00988,-2.78926 4.00518,-6.58553 4.7262,-8.9921 0.17285,-0.57695 0.42984,-1.04902 0.57107,-1.04902 0.15428,0 0.18852,-0.51472 0.0858,-1.28918 -0.23119,-1.74278 -0.0344,-2.1504 1.03815,-2.1504 0.86812,0 0.88132,0.0183 1.09617,1.52135 0.41851,2.92764 0.24519,14.21614 -0.26914,17.52865 -1.8882,12.16099 -5.90801,22.60962 -12.57117,32.67604 -0.84334,1.27407 -0.57589,0.91085 -3.4095,4.63021 -2.71426,3.56267 -9.18351,10.1555 -12.76917,13.01311 -11.12612,8.86695 -24.22842,14.48527 -37.79353,16.20602 -2.95899,0.37533 -12.05542,0.52665 -14.46168,0.24053 z m 9.26042,-63.90606 c -4.39997,-0.21719 -16.42449,-0.94771 -19.05,-1.15728 -2.04306,-0.16309 -3.94446,-0.59108 -7.14375,-1.60796 -3.2852,-1.04417 -12.923102,-4.82137 -16.139582,-6.32528 -3.27594,-1.5317 -9.42817,-5.93215 -12.00399,-8.586 -1.53062,-1.57699 -5.33337,-6.98127 -6.20591,-8.81949 -1.28013,-2.69695 -3.2675,-8.58872 -3.75298,-11.12612 -0.56153,-2.93479 -0.51277,-8.27247 0.097,-10.61376 0.5897,-2.26441 1.13604,-3.35259 2.18789,-4.35782 1.16102,-1.10953 1.94445,-1.19296 3.86683,-0.41183 0.90498,0.36775 1.86807,0.66861 2.14016,0.66861 0.2721,0 1.61391,0.61219 2.98181,1.36043 21.806452,11.92813 47.510512,14.82736 69.558982,7.84572 6.50155,-2.05873 13.79855,-5.43653 18.65313,-8.63463 8.28847,-5.46023 14.80325,-11.63878 20.13148,-19.09236 2.09709,-2.93357 4.32917,-6.67647 4.62891,-7.76203 0.17992,-0.65161 0.4658,-0.94358 1.17507,-1.20004 0.87633,-0.31689 1.03574,-0.28342 2.44988,0.51419 6.76955,3.81826 12.25048,10.51981 14.59897,17.85019 1.35025,4.21453 1.67008,6.61501 1.53215,11.49977 -0.21728,7.69562 -2.10828,13.19589 -7.12166,20.71439 -1.96048,2.94011 -7.39055,8.77737 -9.47676,10.18741 -0.79788,0.53928 -1.57179,1.0754 -1.7198,1.1914 -0.58554,0.45894 -3.03302,1.99038 -4.51987,2.82821 -0.86352,0.48659 -2.90743,1.69706 -4.54203,2.68996 -4.44963,2.70283 -10.13872,5.60533 -13.61934,6.94844 -9.54715,3.68408 -26.24082,6.01125 -38.70659,5.39588 z M -30.521642,288.74031 c -12.78403,-1.44063 -24.72558,-4.68987 -33.99896,-9.25094 -5.5469,-2.72823 -13.08261,-7.77735 -14.68438,-9.8389 -3.85299,-4.95906 -8.71644,-12.24426 -11.97807,-17.94262 -3.36378,-5.87679 -9.256978,-19.37236 -11.798338,-27.01848 -2.98229,-8.97273 -6.02538,-24.40969 -7.58277,-38.46589 -0.90031,-8.12581 -0.7685,-23.5308 0.28979,-33.86667 1.08449,-10.59188 4.26138,-27.21604 6.63113,-34.69978 2.19282,-6.92499 10.970708,-25.035192 17.095838,-35.271472 0.86712,-1.44912 1.66983,-2.87787 1.78378,-3.175 0.31264,-0.81516 2.88042,-4.32417 6.30052,-8.60999 5.90834,-7.40393 16.64108,-17.38624 23.54118,-21.89519 4.68753,-3.06313 8.88749,-4.70419 13.71729,-5.3598 2.78958,-0.37867 4.38579,-0.18277 8.77706,1.07723 3.50166,1.00474 4.12369,1.39675 3.91018,2.46431 -0.21098,1.05493 -0.43169,1.1613 -2.78517,1.34233 -4.77132,0.367 -7.17259,1.0036 -10.52335,2.78985 -11.02347,5.87651 -19.77894,20.78857 -23.45872,39.95418 -1.62749,8.47659 -2.12131,13.932412 -2.10739,23.283342 0.0331,22.24894 5.23352,42.75859 14.99409,59.13437 3.28883,5.51783 7.95298,11.0803 12.23565,14.59224 5.82338,4.77539 12.28832,7.21694 18.2396,6.88835 3.35542,-0.18526 5.16033,-0.67641 8.46666,-2.30394 7.5228202,-3.70305 13.70084024,-10.93665 18.5249902,-21.69019 3.99762,-8.91112 6.6306298,-20.18255 7.5558598,-32.34529 0.34034,-4.47403 0.17467,-18.92353 -0.25542,-22.2781 -0.28513,-2.22385 -0.19112,-2.52661 0.78453,-2.52661 0.80542,0 2.6265,0.75711 2.6265,1.09194 0,0.11009 0.60572,0.89172 1.34603,1.73693 0.74032,0.84521 1.76913,2.31066 2.28626,3.25654 0.51712,0.94589 1.6236,2.91042 2.45882,4.36563 0.83524,1.45521 1.90668,3.47927 2.38099,4.49791 1.85981,3.99421 2.91699,6.23086 4.62718,9.78959 3.18893,6.63583 5.33728,12.56366 8.43831,23.28333 3.15764,10.91539 3.98473,14.94507 4.91469,23.94479 0.76848,7.43704 1.06265,12.82563 1.06161,19.44688 0,4.79554 -0.0894,6.19365 -0.50331,7.9375 -0.27631,1.16416 -0.76507,3.42635 -1.08614,5.02708 -0.67562,3.36841 -2.29661,9.80562 -2.62517,10.42498 -0.1234,0.23262 -1.26063,3.16137 -2.52718,6.50835 -5.06168,13.37596 -12.24492,24.96429 -20.70137,33.3964 -6.8700898,6.8503 -12.6538098,10.8232 -24.5446798,16.85996 -6.2161402,3.15582 -8.0644802,3.6449 -14.1552002,3.74547 -2.52941,0.0417 -5.75671,-0.0847 -7.67292,-0.30062 z M 103.81209,276.70005 c -1.71453,-0.10805 -3.44094,-0.32165 -3.836462,-0.47466 -0.39553,-0.15301 -1.43352,-0.41704 -2.30664,-0.58672 -6.72865,-1.30759 -12.7272,-4.62573 -18.13409,-10.03098 -1.67908,-1.67855 -3.34595,-3.45729 -3.70417,-3.95272 -0.5587,-0.77266 -0.92752,-1.26429 -2.30182,-3.06795 -2.10786,-2.76646 -5.87084,-9.84184 -7.75145,-14.57476 -5.39313,-13.57296 -8.61076,-29.06773 -10.04985,-48.39607 -0.46469,-6.24115 -0.62183,-23.44468 -0.28274,-30.95625 1.02624,-22.73393 4.32663,-46.56577 9.69161,-69.982292 3.35526,-14.64474 9.57877,-36.98102 10.47049,-37.57884 0.11509,-0.0772 0.56714,-0.67248 1.00452,-1.32292 0.60835,-0.90468 0.72006,-1.24863 0.47532,-1.46351 -1.33628,-1.1733 -4.25542,-3.61867 -5.34699,-4.47914 -0.7276,-0.57357 -1.38245,-1.11965 -1.45521,-1.21352 -0.14557,-0.1878 -11.88392,-9.31737 -13.07097,-10.16603 -0.75023,-0.53635 -2.45219,-1.80427 -2.93632,-2.18749 -0.14552,-0.11518 -0.85709,-0.62262 -1.58126,-1.12763 -0.72416,-0.50502 -1.43854,-1.0109 -1.5875,-1.12418 -0.78673,-0.59833 -4.66468,-3.34016 -5.69507,-4.02662 -0.65469,-0.43615 -1.24987,-0.85334 -1.32263,-0.92707 -0.3035,-0.30757 -10.89617,-7.21145 -13.59894,-8.86326 C 19.872388,13.707288 12.811978,9.7509377 3.8741882,5.2819977 -21.567952,-7.4392123 -45.107122,-14.838232 -66.488412,-16.834962 c -5.65194,-0.52781 -15.53758,-0.52825 -20.55918,-7.9e-4 -11.52559,1.21036 -21.504848,4.55153 -29.595928,9.9090697 -3.66915,2.42954 -4.88004,3.41448 -8.36098,6.80089001 -1.5426,1.50058999 -2.99261,2.72843999 -3.22225,2.72843999 -0.5114,0 -1.24906,-0.70231 -1.24906,-1.18922 0,-0.48029999 1.06869,-1.74704999 3.30517,-3.91772 12.4025,-12.0375597 31.177008,-17.8731497 54.153228,-16.8321997 16.33017,0.73985 33.05893,4.48958 52.57329,11.7842197 18.93447024,7.07787001 42.95004,19.7053203 61.55061,32.3634603 1.01864,0.69322 2.99119,2.03488 4.38343,2.98147 1.39224,0.9466 3.25649,2.24429 4.14276,2.88377 0.88628,0.63947 1.87397,1.34127 2.19491,1.55955 0.32094,0.21828 0.97332,0.69453 1.44973,1.05834 0.47641,0.3638 1.12633,0.84005 1.44423,1.05833 1.42862,0.98093 6.93526,5.18733 11.74035,8.96822 7.24752,5.70271 7.45649,5.87188 10.62792,8.60367 0.9597,0.82665 0.9802,0.82817 1.61264,0.1199 0.27723,-0.31045 1.10426,-1.01023 1.8379,-1.55507 6.48811,-4.81849 15.67834,-5.05045 25.389052,-0.64083 0.17399,0.079 0.26641,-3.57293 0.26992,-10.66443 0.006,-11.51256 0.22345,-14.7439 1.60002,-23.74917 3.1042,-20.3066803 10.17389,-40.91724 20.28383,-59.13437 2.9994,-5.40466 7.15746,-12.05894 10.11116,-16.1813 0.58992,-0.8233 1.25116,-1.76114 1.46944,-2.08409 1.11922,-1.65584 4.96652,-6.58994 7.40823,-9.5009 0.80031,-0.95412 1.69328,-2.01934 1.98438,-2.36717 2.81008,-3.357736 7.43063,-8.138 13.20188,-13.658255 0.49112,-0.46974 3.88591,-3.46664 6.11281,-5.39632 0.43656,-0.37829 1.62718,-1.33938 2.64583,-2.13575 1.01864,-0.79636 1.91161,-1.52066 1.98437,-1.60954 0.15254,-0.18634 3.4199,-2.59312 5.55625,-4.092803 3.32013,-2.33067 8.33412,-5.5889 9.92188,-6.44751 0.58208,-0.31477 1.6337,-0.92801 2.33691,-1.36276 3.13383,-1.93739 8.96416,-4.74902 9.84781,-4.74902 0.85622,0 0.91216,0.0537 0.91216,0.87631 0,0.85881 -0.07,0.91171 -3.50573,2.6478 -3.14614,1.58977 -8.29795,4.50951 -10.78178,6.11048 -5.95428,3.837863 -12.80456,8.773343 -16.16374,11.645653 -0.5226,0.44685 -1.64999,1.40778 -2.50531,2.13538 -0.85534,0.72761 -2.11352,1.79917 -2.79598,2.38125 -2.14757,1.83174 -11.91176,11.783805 -14.40712,14.684375 -6.68451,7.76997 -11.7475,14.64314 -17.24861,23.41563 -3.36812,5.37106 -7.8463,13.77403 -10.53058,19.7599 -0.67326,1.50132 -1.43904,3.20593 -1.70177,3.78801 -2.01928,4.47365 -4.81894,12.2447 -7.0281,19.5079697 -2.78924,9.17042 -4.93297,20.0265103 -6.07465,30.7628703 -0.49922,4.69478 -0.80621,18.07128 -0.53218,23.18797 l 0.19327,3.60873 1.8927,1.27935 c 1.04098,0.70364 1.95223,1.34473 2.02499,1.42464 0.0728,0.0799 0.9198,0.76491 1.88227,1.52221 1.78835,1.40707 4.95689,4.62866 6.7654,6.87863 0.55528,0.69085 1.16652,1.42166 1.35832,1.62403 0.19177,0.20237 1.07471,1.45268 1.96207,2.77848 0.88736,1.3258 1.68605,2.47007 1.77485,2.54283 0.18854,0.15447 4.1938,5.47539 4.77792,6.34741 0.21828,0.32586 0.76457,1.08484 1.21399,1.68661 3.02501,4.05056 10.29851,15.03516 15.32247,23.140332 22.4463,36.21261 40.84154,76.63679 45.35178,99.6621 1.11144,5.67413 1.33813,11.44006 0.53242,13.54339 -0.16438,0.42915 -0.31197,3.20802 -0.34869,6.56495 -0.0526,4.8056 -0.16613,6.31764 -0.65109,8.6692 -2.2583,10.95082 -8.74564,20.98352 -18.56052,28.70399 -1.5268,1.20097 -2.90777,2.29105 -3.06882,2.42242 -1.14874,0.93691 -7.45821,4.64317 -10.41302,6.11677 -16.123,8.0406 -36.92107,11.86219 -57.49896,10.56523 z m 141.89128,-80.18677 c -5.16686,-0.58555 -13.11733,-2.77929 -18.76885,-5.17885 -2.73188,-1.1599 -8.35859,-4.01441 -10.46761,-5.31031 -2.17233,-1.33485 -6.68697,-4.31353 -7.40833,-4.88794 -0.29403,-0.23413 -1.70244,-1.3085 -3.04271,-2.32103 -6.16167,-4.655 -14.38781,-12.72874 -19.89146,-19.52292 -0.90913,-1.12234 -1.72169,-2.10016 -1.80567,-2.17292 -0.19749,-0.1711 -3.90443,-5.13254 -4.74134,-6.34587 -3.84397,-5.57297 -5.86623,-8.7888 -8.82086,-14.02704 -9.85621,-17.47401 -16.69439,-38.227562 -18.83061,-57.150002 -0.63751,-5.64698 -1.08103,-13.04685 -1.01494,-16.93333 0.0692,-4.06713 0.15917,-4.63798 0.76798,-4.87161 0.97028,-0.37232 1.37626,0.10813 2.2125,2.61822 0.45529,1.3666 0.93448,2.52197 1.06484,2.56749 0.13039,0.0455 0.60426,1.51152 1.05302,3.25777 3.63032,14.12611 11.57631,29.27639 20.86221,39.776962 9.35064,10.57375 20.13281,17.53089 29.77547,19.21242 8.89206,1.55067 16.62144,-0.90228 22.67135,-7.19481 6.06695,-6.31023 9.43761,-15.10342 10.34071,-26.976252 0.92644,-12.17957 -2.07952,-27.56533 -8.02791,-41.09019 -2.01557,-4.58282 -6.5981,-12.88527 -8.92746,-16.17449 -0.37431,-0.52852 -0.85913,-1.22903 -1.07741,-1.55669 -0.46739,-0.70159 -3.21615,-4.3017 -3.43112,-4.49382 -0.0814,-0.0728 -0.68106,-0.78714 -1.33255,-1.5875 -3.48903,-4.28639 -9.21816,-9.52815 -14.11777,-12.91678 -6.22758,-4.3070703 -13.05107,-7.0314003 -19.00976,-7.5897703 -1.0927,-0.1024 -2.13796,-0.27965 -2.32283,-0.39389 -0.40042,-0.24749 -0.16348,-2.33893 0.33893,-2.9915 0.39921,-0.51852 4.20799,-2.09340999 7.55272,-3.12297999 14.82696,-4.56403001 32.6807,-1.52616001 49.73265,8.46216999 4.26289,2.4970203 4.4256,2.6009303 7.47892,4.7760503 5.60705,3.99438 8.9598,6.8776 14.9401,12.84784 4.26474,4.25756 6.21226,6.38472 8.72323,9.52782 0.58126,0.7276 1.13091,1.38244 1.22145,1.4552 0.0905,0.0728 1.19121,1.50151 2.44597,3.175 1.25473,1.67349 2.38143,3.16551 2.50378,3.3156 0.73649,0.90361 6.10028,9.21258 7.59526,11.76565 16.23904,27.73281 23.89166,60.847952 20.34955,88.058202 -3.3647,25.8473 -15.90101,44.51424 -34.50029,51.37203 -2.72764,1.00571 -8.08593,2.31151 -10.85506,2.64533 -2.61543,0.31528 -10.36886,0.30168 -13.2361,-0.0233 z m -368.4928,-8.71484 c -0.66068,-3.40913 -1.02551,-6.28423 -0.76748,-6.0483 0.21999,0.20114 1.53129,8.16163 1.43058,8.68458 -0.0417,0.21664 -0.34011,-0.9697 -0.6631,-2.63628 z m 4.52509,-12.81975 c 5.3e-4,-1.60073 0.0442,-2.22147 0.0968,-1.37941 0.0527,0.84206 0.0522,2.15175 -10e-4,2.91042 -0.0533,0.75866 -0.0964,0.0697 -0.0958,-1.53101 z"
       id="path78" />
  </g>
</svg>
