<?xml version="1.0" encoding="UTF-8" standalone="no"?>
<svg
   xmlns:dc="http://purl.org/dc/elements/1.1/"
   xmlns:cc="http://creativecommons.org/ns#"
   xmlns:rdf="http://www.w3.org/1999/02/22-rdf-syntax-ns#"
   xmlns:svg="http://www.w3.org/2000/svg"
   xmlns="http://www.w3.org/2000/svg"
   xmlns:sodipodi="http://sodipodi.sourceforge.net/DTD/sodipodi-0.dtd"
   xmlns:inkscape="http://www.inkscape.org/namespaces/inkscape"
   width="579.65033mm"
   height="150.74132mm"
   viewBox="0 0 579.65033 150.74132"
   version="1.1"
   id="svg8"
   inkscape:version="1.0.1 (3bc2e813f5, 2020-09-07)"
   sodipodi:docname="lieu-icone.svg"
   inkscape:export-filename="C:\Users\Eric\crabe-icone.png"
   inkscape:export-xdpi="96"
   inkscape:export-ydpi="96">
  <defs
     id="defs2" />
  <sodipodi:namedview
     id="base"
     pagecolor="#000000"
     bordercolor="#666666"
     borderopacity="1.0"
     inkscape:pageopacity="0"
     inkscape:pageshadow="2"
     inkscape:zoom="0.24748737"
     inkscape:cx="906.99826"
     inkscape:cy="324.58954"
     inkscape:document-units="mm"
     inkscape:current-layer="layer1"
     inkscape:document-rotation="0"
     showgrid="false"
     inkscape:window-width="1425"
     inkscape:window-height="1080"
     inkscape:window-x="2433"
     inkscape:window-y="216"
     inkscape:window-maximized="0" />
  <metadata
     id="metadata5">
    <rdf:RDF>
      <cc:Work
         rdf:about="">
        <dc:format>image/svg+xml</dc:format>
        <dc:type
           rdf:resource="http://purl.org/dc/dcmitype/StillImage" />
        <dc:title></dc:title>
      </cc:Work>
    </rdf:RDF>
  </metadata>
  <g
     inkscape:label="Calque 1"
     inkscape:groupmode="layer"
     id="layer1"
     transform="translate(66.563437,-132.38112)">
    <g
       id="g284"
       transform="translate(-19.654762,48.380955)"
       inkscape:export-xdpi="96"
       inkscape:export-ydpi="96">
      <path
         style="fill:#e7e7e7;stroke-width:0.264583"
         d="m 218.25046,234.60088 c 0.25466,-0.0666 0.67138,-0.0666 0.92604,0 0.25466,0.0666 0.0463,0.121 -0.46302,0.121 -0.50933,0 -0.71769,-0.0545 -0.46302,-0.121 z m 2.77812,-0.25744 c 0.1819,-0.0734 0.47956,-0.0734 0.66146,0 0.1819,0.0734 0.0331,0.13346 -0.33073,0.13346 -0.3638,0 -0.51263,-0.0601 -0.33073,-0.13346 z m -18.48845,-7.43153 c -0.32909,-0.41966 -0.31975,-0.429 0.0999,-0.0999 0.44072,0.34565 0.58089,0.56293 0.36311,0.56293 -0.0549,0 -0.26328,-0.20836 -0.46302,-0.46302 z m 72.74457,-3.68647 c 0.19101,-0.0764 0.41921,-0.067 0.50713,0.0209 0.0879,0.0879 -0.0684,0.15047 -0.34727,0.13899 -0.30824,-0.0127 -0.37092,-0.0754 -0.15986,-0.15986 z m -80.86132,-3.12655 c 0.005,-0.43657 0.0647,-0.58312 0.13179,-0.32571 0.0671,0.25744 0.0627,0.61463 -0.01,0.79375 -0.0725,0.17915 -0.12735,-0.0315 -0.12198,-0.46804 z m 215.65503,0.4781 c 0.25744,-0.0671 0.61462,-0.0627 0.79375,0.01 0.17915,0.0725 -0.0315,0.12734 -0.46805,0.12197 -0.43656,-0.005 -0.58312,-0.0647 -0.3257,-0.13179 z m -218.94775,-1.0617 c 0.32743,-0.0631 0.86321,-0.0631 1.19063,0 0.32742,0.0631 0.0595,0.11465 -0.59531,0.11465 -0.65485,0 -0.92274,-0.0516 -0.59532,-0.11465 z m 221.32455,-1.79765 c 0.003,-0.58209 0.0571,-0.78907 0.12041,-0.45993 0.0633,0.32912 0.0609,0.80537 -0.005,1.05833 -0.0662,0.25295 -0.118,-0.0164 -0.11507,-0.5984 z m -224.94168,-0.022 c 0.0127,-0.30824 0.0754,-0.37092 0.15985,-0.15987 0.0764,0.19101 0.067,0.41921 -0.0209,0.50713 -0.0879,0.0879 -0.15046,-0.0684 -0.13897,-0.34726 z m 125.59005,-2.13757 c 0.18191,-0.0734 0.47956,-0.0734 0.66146,0 0.1819,0.0734 0.0331,0.13345 -0.33073,0.13345 -0.3638,0 -0.51263,-0.0601 -0.33073,-0.13345 z m 2.51857,-0.27271 c 0.25744,-0.0671 0.61463,-0.0627 0.79375,0.01 0.17915,0.0725 -0.0315,0.12734 -0.46804,0.12197 -0.43657,-0.005 -0.58312,-0.0647 -0.32571,-0.13179 z m 4.09602,-0.26794 c 0.32742,-0.0631 0.8632,-0.0631 1.19062,0 0.32742,0.0631 0.0595,0.11464 -0.59531,0.11464 -0.65484,0 -0.92273,-0.0516 -0.59531,-0.11464 z m 3.45612,-0.25861 c 0.191,-0.0764 0.4192,-0.067 0.50712,0.0209 0.0879,0.0879 -0.0684,0.15046 -0.34726,0.13898 -0.30824,-0.0127 -0.37092,-0.0754 -0.15986,-0.15986 z m 2.11666,-0.26458 c 0.19101,-0.0764 0.41921,-0.067 0.50713,0.0209 0.0879,0.0879 -0.0684,0.15047 -0.34726,0.13899 -0.30824,-0.0127 -0.37092,-0.0754 -0.15987,-0.15986 z m 6.59805,-0.80441 c 0.47294,-0.0587 1.24685,-0.0587 1.71979,0 0.47295,0.0587 0.086,0.1067 -0.85989,0.1067 -0.94589,0 -1.33284,-0.048 -0.8599,-0.1067 z m 5.03018,-0.26033 c 0.32912,-0.0633 0.80537,-0.0609 1.05833,0.005 0.25295,0.0662 -0.0164,0.118 -0.5984,0.11506 -0.58209,-0.003 -0.78907,-0.0571 -0.45993,-0.12041 z m 5.67386,-0.009 c 0.97591,-0.0507 2.64279,-0.0511 3.70417,0 1.0614,0.0503 0.26294,0.0919 -1.77435,0.0923 -2.0373,0 -2.90571,-0.0408 -1.92982,-0.0916 z m 8.47825,-0.25101 c 0.25467,-0.0666 0.67138,-0.0666 0.92605,0 0.25466,0.0666 0.0463,0.121 -0.46302,0.121 -0.50933,0 -0.71769,-0.0544 -0.46303,-0.121 z m 3.31039,-0.26934 c 0.32912,-0.0633 0.80537,-0.0609 1.05833,0.005 0.25295,0.0662 -0.0164,0.118 -0.5984,0.11507 -0.58209,-0.003 -0.78907,-0.0571 -0.45993,-0.12042 z m 3.56878,-0.25982 c 0.25466,-0.0666 0.67138,-0.0666 0.92604,0 0.25466,0.0665 0.0463,0.12099 -0.46302,0.12099 -0.50932,0 -0.71768,-0.0545 -0.46302,-0.12099 z m 3.83646,-0.26893 c 0.32742,-0.0631 0.8632,-0.0631 1.19062,0 0.32743,0.0631 0.0595,0.11465 -0.59531,0.11465 -0.65484,0 -0.92273,-0.0516 -0.59531,-0.11465 z m 3.84149,-0.26122 c 0.25743,-0.0671 0.61462,-0.0627 0.79375,0.01 0.17914,0.0725 -0.0315,0.12734 -0.46805,0.12197 -0.43657,-0.005 -0.58312,-0.0647 -0.3257,-0.13179 z m 3.16997,-0.27075 c 0.40018,-0.0606 1.05502,-0.0606 1.45521,0 0.40018,0.0607 0.0728,0.11023 -0.72761,0.11023 -0.80036,0 -1.12778,-0.0496 -0.7276,-0.11023 z m 4.49791,-0.25744 c 0.25467,-0.0666 0.67139,-0.0666 0.92605,0 0.25466,0.0666 0.0463,0.121 -0.46302,0.121 -0.50933,0 -0.71769,-0.0545 -0.46303,-0.121 z m 2.79467,-0.26294 c 0.191,-0.0764 0.4192,-0.067 0.50712,0.0209 0.0879,0.0879 -0.0684,0.15047 -0.34726,0.13899 -0.30824,-0.0127 -0.37092,-0.0754 -0.15986,-0.15986 z M 178.5177,210.28742 c 0.0127,-0.30824 0.0754,-0.37092 0.15985,-0.15986 0.0764,0.191 0.067,0.41921 -0.0209,0.50713 -0.0879,0.0879 -0.15045,-0.0684 -0.13896,-0.34727 z m 203.50355,0 c 0.25119,-0.26225 0.51366,-0.41989 0.58327,-0.35028 0.0696,0.0696 -0.13591,0.28419 -0.45672,0.47683 -0.55729,0.33467 -0.56293,0.32904 -0.12655,-0.12655 z m -206.48447,-3.4672 c 0.191,-0.0764 0.4192,-0.067 0.50712,0.0209 0.0879,0.0879 -0.0684,0.15047 -0.34726,0.13898 -0.30823,-0.0127 -0.37092,-0.0754 -0.15986,-0.15986 z M 407.82,206.43895 c 0.1795,-0.18081 0.39299,-0.26212 0.47445,-0.18066 0.0814,0.0815 -0.0654,0.22942 -0.32633,0.32878 -0.37709,0.14358 -0.40746,0.11318 -0.14812,-0.14812 z m 4.90424,-0.4151 c 0.25744,-0.0671 0.61463,-0.0627 0.79375,0.01 0.17915,0.0725 -0.0315,0.12734 -0.46805,0.12197 -0.43656,-0.005 -0.58311,-0.0647 -0.3257,-0.13179 z M 168.9222,205.76188 c 0.19099,-0.0764 0.4192,-0.067 0.50712,0.0209 0.0879,0.0879 -0.0683,0.15046 -0.34727,0.13898 -0.30822,-0.0127 -0.37092,-0.0754 -0.15985,-0.15986 z m -1.85208,-0.26458 c 0.19099,-0.0764 0.4192,-0.067 0.50711,0.0209 0.0879,0.0879 -0.0683,0.15047 -0.34726,0.13899 -0.30823,-0.0127 -0.37092,-0.0754 -0.15985,-0.15986 z m -208.366263,-0.80883 c 0.842057,-0.0526 2.151745,-0.0522 2.910417,0 0.758671,0.0533 0.06971,0.0964 -1.531015,0.0958 -1.600729,0 -2.22146,-0.0442 -1.379402,-0.0968 z m 5.960002,-0.2495 c 0.190994,-0.0764 0.419197,-0.0671 0.507119,0.0209 0.08792,0.0879 -0.06835,0.15047 -0.347266,0.13898 -0.308226,-0.0127 -0.37092,-0.0754 -0.159853,-0.15986 z m -10.691155,-0.94269 -0.504028,-0.59531 0.595312,0.50403 c 0.559447,0.47366 0.715762,0.68659 0.504028,0.68659 -0.05021,0 -0.318097,-0.26789 -0.595312,-0.59531 z m -0.880015,-1.4111 c 0.0127,-0.30824 0.07539,-0.37092 0.159852,-0.15986 0.07643,0.191 0.06703,0.4192 -0.02089,0.50713 -0.08792,0.0879 -0.150453,-0.0684 -0.138965,-0.34727 z m 0.772862,-2.06224 c 0,-0.0549 0.208359,-0.26329 0.463021,-0.46302 0.419644,-0.32909 0.429002,-0.31975 0.09989,0.0999 -0.345643,0.44072 -0.562915,0.5809 -0.562915,0.36312 z m 178.395319,-4.31581 c 0.25466,-0.0666 0.67138,-0.0666 0.92604,0 0.25466,0.0666 0.0463,0.121 -0.46302,0.121 -0.50932,0 -0.71768,-0.0544 -0.46302,-0.121 z m 3.57496,-0.26934 c 0.32912,-0.0633 0.80537,-0.0609 1.05833,0.005 0.25297,0.0662 -0.0163,0.118 -0.59839,0.11507 -0.58209,-0.003 -0.78906,-0.0571 -0.45994,-0.12041 z m -11.44444,-0.60357 c -0.0927,-0.14999 0.0135,-0.19436 0.24897,-0.10401 0.45837,0.1759 0.54223,0.36555 0.16165,0.36555 -0.13694,0 -0.32172,-0.11769 -0.41062,-0.26154 z m -25.05461,-0.44836 c 0.190995,-0.0764 0.419201,-0.067 0.507119,0.0209 0.08792,0.0879 -0.06835,0.15047 -0.347266,0.13899 -0.308226,-0.0127 -0.370919,-0.0754 -0.159853,-0.15987 z m 20.22409,-0.79539 c 0.25466,-0.0666 0.67138,-0.0666 0.92604,0 0.25466,0.0665 0.0463,0.12099 -0.46302,0.12099 -0.50932,0 -0.71768,-0.0544 -0.46302,-0.12099 z M -41.901116,189.4396 c 0,-0.0549 0.20836,-0.26328 0.463021,-0.46302 0.419645,-0.32908 0.429004,-0.31974 0.0999,0.0999 -0.345643,0.44072 -0.562917,0.58089 -0.562917,0.36311 z m 106.144818,-3.68003 c -0.217815,-0.26247 -0.119237,-0.34655 0.430623,-0.36735 0.392208,-0.0148 0.503288,0.0283 0.246845,0.0958 -0.256444,0.0675 -0.398245,0.23283 -0.315116,0.36734 0.225515,0.36489 -0.03778,0.29528 -0.362352,-0.0958 z m -105.299487,-1.9086 c 0.0054,-0.43656 0.06469,-0.58312 0.131773,-0.3257 0.06708,0.25744 0.06267,0.61462 -0.0098,0.79375 -0.07248,0.17915 -0.127362,-0.0315 -0.12197,-0.46805 z m 3.652586,-3.05102 c 0,-0.14094 0.178594,-0.25627 0.396875,-0.25627 0.218281,0 0.396875,0.0468 0.396875,0.10398 0,0.0572 -0.178594,0.17251 -0.396875,0.25627 -0.218281,0.0838 -0.396875,0.037 -0.396875,-0.10398 z m 81.177477,-1.23076 c 0.190995,-0.0764 0.419201,-0.067 0.507119,0.0209 0.08792,0.0879 -0.06835,0.15047 -0.347266,0.13899 -0.308226,-0.0127 -0.370919,-0.0754 -0.159853,-0.15986 z m 7.408334,-0.26458 c 0.190994,-0.0764 0.4192,-0.067 0.507119,0.0209 0.08792,0.0879 -0.06835,0.15047 -0.347266,0.13899 -0.308226,-0.0127 -0.370919,-0.0754 -0.159853,-0.15987 z m -2.659285,-0.27099 c 0.329118,-0.0633 0.805368,-0.0609 1.058333,0.005 0.252966,0.0662 -0.01633,0.11801 -0.598397,0.11507 -0.582084,-0.003 -0.789054,-0.0571 -0.459936,-0.12041 z m -84.053554,-5.52344 c 0.0127,-0.30824 0.07539,-0.37092 0.159851,-0.15986 0.07643,0.191 0.06703,0.4192 -0.02088,0.50713 -0.08792,0.0879 -0.150452,-0.0684 -0.138964,-0.34727 z M 532.5707,167.04993 c 0,-0.50932 0.0545,-0.71768 0.121,-0.46302 0.0666,0.25466 0.0666,0.67138 0,0.92604 -0.0665,0.25466 -0.121,0.0463 -0.121,-0.46302 z m -561.292258,-4.14949 c 0.190995,-0.0764 0.419198,-0.067 0.507119,0.0209 0.08792,0.0879 -0.06835,0.15047 -0.347266,0.13899 -0.308226,-0.0127 -0.370919,-0.0754 -0.159853,-0.15986 z m 536.624628,-1.27447 c 0.34176,-0.3638 0.68093,-0.66146 0.75369,-0.66146 0.0728,0 -0.14734,0.29766 -0.48911,0.66146 -0.34176,0.3638 -0.68093,0.66146 -0.75369,0.66146 -0.0728,0 0.14735,-0.29766 0.48911,-0.66146 z m -536.55413,-0.81579 c 0.0127,-0.30824 0.07539,-0.37092 0.159851,-0.15986 0.07643,0.191 0.06703,0.4192 -0.02088,0.50713 -0.08792,0.0879 -0.150452,-0.0684 -0.138964,-0.34727 z m 6.329112,-2.06378 c 0,-0.0558 0.238289,-0.16375 0.529532,-0.23989 0.291242,-0.0762 0.462809,-0.0305 0.381259,0.10144 -0.142412,0.23042 -0.910791,0.34724 -0.910791,0.13845 z M 47.99416,145.43154 c 0.329118,-0.0633 0.805368,-0.0609 1.058333,0.005 0.252966,0.0662 -0.01632,0.118 -0.598397,0.11507 -0.582083,-0.003 -0.789054,-0.0571 -0.459936,-0.12041 z m 13.556811,-2.82318 c 0,-0.0549 0.20836,-0.26329 0.463021,-0.46303 0.419645,-0.32908 0.429004,-0.31974 0.0999,0.0999 -0.345643,0.44072 -0.562917,0.58089 -0.562917,0.36312 z m 453.462089,-1.95062 c -0.32909,-0.41965 -0.31975,-0.42899 0.0999,-0.0999 0.25466,0.19974 0.46302,0.4081 0.46302,0.46303 0,0.21777 -0.21728,0.0776 -0.56293,-0.36312 z m -549.241259,-3.34513 c 0,-0.25098 0.791999,-0.37748 0.933183,-0.14904 0.08601,0.13917 -0.08877,0.25303 -0.3884,0.25303 -0.29963,0 -0.544783,-0.0468 -0.544783,-0.10399 z m -5.622396,-10.1369 c 0.327422,-0.0631 0.863203,-0.0631 1.190625,0 0.327422,0.0631 0.05953,0.11465 -0.595312,0.11465 -0.654844,0 -0.922735,-0.0516 -0.595313,-0.11465 z M 90.60553,122.94836 c 0.190994,-0.0764 0.4192,-0.067 0.507119,0.0209 0.08792,0.0879 -0.06835,0.15047 -0.347266,0.13899 -0.308226,-0.0127 -0.370919,-0.0754 -0.159853,-0.15987 z m 1.852083,-0.26459 c 0.190995,-0.0764 0.419201,-0.067 0.507119,0.0209 0.08792,0.0879 -0.06835,0.15047 -0.347266,0.13898 -0.308226,-0.0127 -0.370919,-0.0754 -0.159853,-0.15986 z m 2.629297,-0.27056 c 0.327422,-0.0631 0.863203,-0.0631 1.190625,0 0.327422,0.063 0.05953,0.11465 -0.595312,0.11465 -0.654844,0 -0.922735,-0.0516 -0.595313,-0.11465 z m 4.899827,-0.26122 c 0.257433,-0.0671 0.614623,-0.0627 0.793753,0.01 0.17913,0.0725 -0.0315,0.12734 -0.46806,0.12197 -0.436561,-0.005 -0.583125,-0.0647 -0.325693,-0.13179 z m 20.184693,-3.76071 c -0.0816,-0.13195 0.09,-0.17761 0.38126,-0.10144 0.6178,0.16155 0.6959,0.34134 0.14827,0.34134 -0.20969,0 -0.44798,-0.10795 -0.52953,-0.2399 z m -152.738,-2.86533 c 0.695616,-0.0547 1.767178,-0.054 2.38125,0.003 0.614074,0.0555 0.04493,0.10023 -1.264754,0.0994 -1.309687,0 -1.81211,-0.0462 -1.116496,-0.10089 z m 168.92848,-0.77417 c 0.1819,-0.0734 0.47956,-0.0734 0.66146,0 0.1819,0.0734 0.0331,0.13345 -0.33073,0.13345 -0.3638,0 -0.51263,-0.0601 -0.33073,-0.13345 z m 48.4849,-20.446658 c 0,-0.136922 0.1177,-0.321707 0.26155,-0.410607 0.14998,-0.09271 0.19434,0.01349 0.10399,0.248973 -0.1759,0.458365 -0.36554,0.542211 -0.36554,0.161634 z m 60.78802,-3.365844 c 0.1819,-0.0734 0.47956,-0.0734 0.66146,0 0.1819,0.0734 0.0331,0.133456 -0.33073,0.133456 -0.3638,0 -0.51263,-0.06006 -0.33073,-0.133456 z m -2.10013,-0.270086 c 0.191,-0.07644 0.41921,-0.06705 0.50713,0.0209 0.0879,0.08792 -0.0684,0.150468 -0.34727,0.138985 -0.30824,-0.0127 -0.37092,-0.07541 -0.15986,-0.159861 z m -1.85208,-0.264584 c 0.191,-0.07644 0.4192,-0.06704 0.50713,0.0209 0.0879,0.08792 -0.0684,0.150469 -0.34727,0.138986 -0.30824,-0.0127 -0.37092,-0.07541 -0.15986,-0.159861 z m -1.85208,-0.264583 c 0.191,-0.07644 0.4192,-0.06704 0.50712,0.0209 0.0879,0.08792 -0.0684,0.150469 -0.34726,0.138986 -0.30824,-0.0127 -0.37092,-0.07541 -0.15986,-0.159862 z m -2.11667,-0.264583 c 0.191,-0.07644 0.4192,-0.06705 0.50713,0.0209 0.0879,0.08792 -0.0684,0.150468 -0.34727,0.138985 -0.30824,-0.0127 -0.37092,-0.07541 -0.15986,-0.159861 z m -1.85209,-0.264584 c 0.19101,-0.07644 0.41921,-0.06704 0.50713,0.0209 0.0879,0.08792 -0.0684,0.150469 -0.34726,0.138986 -0.30824,-0.0127 -0.37092,-0.07541 -0.15987,-0.159861 z m -8.21862,-1.317413 c 0.18191,-0.0734 0.47956,-0.0734 0.66146,0 0.1819,0.07339 0.0331,0.133456 -0.33073,0.133456 -0.3638,0 -0.51263,-0.06006 -0.33073,-0.133456 z m -3.03768,-0.272706 c 0.25744,-0.06707 0.61463,-0.06268 0.79375,0.0098 0.17915,0.07247 -0.0315,0.127344 -0.46804,0.121972 -0.43657,-0.0053 -0.58312,-0.06469 -0.32571,-0.131788 z m -5.55328,-0.27604 c 0.69561,-0.05466 1.76718,-0.05403 2.38125,0.0026 0.61407,0.05548 0.0449,0.100224 -1.26476,0.0994 -1.30969,0 -1.81211,-0.0462 -1.11649,-0.100886 z m 103.06375,0.01402 c 0.19101,-0.07644 0.41921,-0.06705 0.50713,0.0209 0.0879,0.08792 -0.0684,0.150469 -0.34726,0.138986 -0.30824,-0.0127 -0.37092,-0.07541 -0.15987,-0.159861 z m -107.82922,-0.2672 c 0.25744,-0.06707 0.61463,-0.06268 0.79375,0.0098 0.17915,0.07247 -0.0315,0.127344 -0.46804,0.121973 -0.43657,-0.0053 -0.58312,-0.06469 -0.32571,-0.131789 z m -19.18732,-0.25646 c 0.1819,-0.0734 0.47956,-0.0734 0.66146,0 0.1819,0.07339 0.0331,0.133456 -0.33073,0.133456 -0.3638,0 -0.51263,-0.06006 -0.33073,-0.133456 z m 15.61352,-0.01191 c 0.32911,-0.06329 0.80536,-0.06088 1.05833,0.0053 0.25294,0.06623 -0.0164,0.118004 -0.59841,0.115067 -0.58208,-0.0029 -0.78907,-0.05712 -0.45992,-0.120411 z m -11.91525,-0.268394 c 0.46969,-0.05845 1.30313,-0.05942 1.85208,-0.0026 0.54896,0.05728 0.16465,0.105093 -0.85399,0.106283 -1.01865,0 -1.46778,-0.04569 -0.99809,-0.10414 z m 7.9465,0.0037 c 0.32911,-0.06329 0.80536,-0.06088 1.05833,0.0053 0.25294,0.06622 -0.0164,0.118004 -0.59841,0.115067 -0.58208,-0.0029 -0.78907,-0.05712 -0.45992,-0.120412 z m 109.81552,0.0064 c 0.19101,-0.07644 0.41921,-0.06705 0.50713,0.0209 0.0879,0.08792 -0.0684,0.150469 -0.34726,0.138986 -0.30824,-0.0127 -0.37092,-0.07541 -0.15987,-0.159861 z m -2.66237,-0.25908 c 0.18191,-0.07339 0.47956,-0.07339 0.66146,0 0.1819,0.0734 0.0331,0.133456 -0.33073,0.133456 -0.3638,0 -0.51263,-0.06006 -0.33073,-0.133456 z M 311.2515,86.44115 c 0.1819,-0.07339 0.47956,-0.07339 0.66146,0 0.1819,0.0734 0.0331,0.133456 -0.33073,0.133456 -0.3638,0 -0.51263,-0.06006 -0.33073,-0.133456 z m -2.38125,-0.264583 c 0.1819,-0.0734 0.47956,-0.0734 0.66146,0 0.1819,0.07339 0.0331,0.133456 -0.33073,0.133456 -0.3638,0 -0.51263,-0.06006 -0.33073,-0.133456 z m -2.10013,-0.270087 c 0.191,-0.07644 0.41921,-0.06705 0.50713,0.0209 0.0879,0.08792 -0.0684,0.150469 -0.34727,0.138986 -0.30824,-0.0127 -0.37092,-0.07541 -0.15986,-0.159862 z m -2.1332,-0.25908 c 0.1819,-0.0734 0.47955,-0.0734 0.66146,0 0.1819,0.07339 0.0331,0.133456 -0.33073,0.133456 -0.36381,0 -0.51263,-0.06006 -0.33073,-0.133456 z m -2.38125,-0.264583 c 0.1819,-0.0734 0.47955,-0.0734 0.66146,0 0.1819,0.07339 0.0331,0.133456 -0.33073,0.133456 -0.36381,0 -0.51263,-0.06006 -0.33073,-0.133456 z m -45.4918,-0.270087 c 0.191,-0.07644 0.4192,-0.06704 0.50713,0.0209 0.0879,0.08792 -0.0684,0.150469 -0.34727,0.138986 -0.30824,-0.0127 -0.37092,-0.07541 -0.15986,-0.159861 z m 43.11055,0.0056 c 0.1819,-0.07339 0.47955,-0.07339 0.66146,0 0.1819,0.0734 0.0331,0.133456 -0.33073,0.133456 -0.36381,0 -0.51263,-0.06006 -0.33073,-0.133456 z m -40.61355,-0.271727 c 0.25467,-0.06657 0.67138,-0.06657 0.92605,0 0.25466,0.06654 0.0463,0.120994 -0.46302,0.120994 -0.50933,0 -0.71769,-0.05445 -0.46303,-0.120994 z m 37.17396,-0.0042 c 0.32743,-0.06308 0.86321,-0.06308 1.19063,0 0.32742,0.06305 0.0595,0.114644 -0.59531,0.114644 -0.65485,0 -0.92274,-0.05159 -0.59532,-0.114644 z m -32.27218,-0.271939 c 0.62233,-0.05588 1.57483,-0.05511 2.11667,0.0026 0.54186,0.05686 0.0327,0.102579 -1.13147,0.101626 -1.16416,0 -1.6075,-0.04749 -0.9852,-0.103372 z m 27.64198,0.0045 c 0.40018,-0.06062 1.05502,-0.06062 1.4552,0 0.40019,0.06064 0.0728,0.110225 -0.7276,0.110225 -0.80037,0 -1.12779,-0.04958 -0.7276,-0.110225 z m -21.29896,-0.261779 c 0.32742,-0.06308 0.8632,-0.06308 1.19062,0 0.32742,0.06305 0.0595,0.114644 -0.59531,0.114644 -0.65484,0 -0.92274,-0.05159 -0.59531,-0.114644 z m 13.22916,-0.0085 c 0.76399,-0.05345 2.01414,-0.05345 2.77813,0 0.76398,0.05344 0.1389,0.09716 -1.38906,0.09716 -1.52797,0 -2.15305,-0.04371 -1.38907,-0.09716 z m -8.33437,-0.259054 c 0.40018,-0.06062 1.05502,-0.06062 1.45521,0 0.40018,0.06064 0.0728,0.110226 -0.72761,0.110226 -0.80036,0 -1.12778,-0.04958 -0.7276,-0.110226 z"
         id="path298" />
      <path
         style="fill:#d8d8d8;stroke-width:0.264583"
         d="m 179.39771,211.96295 -0.50403,-0.59531 0.59532,0.50403 c 0.32742,0.2772 0.59531,0.54509 0.59531,0.59531 0,0.21172 -0.21294,0.0554 -0.6866,-0.50403 z m 229.50158,-5.93543 c 0.191,-0.0764 0.41921,-0.067 0.50713,0.0209 0.0879,0.0879 -0.0684,0.15047 -0.34727,0.13898 -0.30824,-0.0127 -0.37092,-0.0754 -0.15986,-0.15986 z M 131.0309,195.58156 c 0.0673,-0.10895 0.29722,-0.13105 0.51084,-0.049 0.53865,0.20669 0.4852,0.33142 -0.12244,0.28564 -0.28096,-0.0212 -0.45574,-0.12763 -0.3884,-0.23659 z m -9.46912,-1.98945 c 0.191,-0.0764 0.4192,-0.067 0.50712,0.0209 0.0879,0.0879 -0.0683,0.15047 -0.34727,0.13899 -0.30822,-0.0127 -0.37092,-0.0754 -0.15985,-0.15987 z M 508.69682,160.8646 c 0,-0.0549 0.20836,-0.26328 0.46302,-0.46302 0.41966,-0.32908 0.429,-0.31974 0.0999,0.0999 -0.34565,0.44072 -0.56293,0.58089 -0.56293,0.36311 z m 7.38831,-18.88394 -0.64143,-0.72761 0.7276,0.64143 c 0.68006,0.59952 0.84894,0.81378 0.64143,0.81378 -0.0474,0 -0.37481,-0.32742 -0.7276,-0.7276 z m -397.4503,-21.9487 c 0.32742,-0.0631 0.8632,-0.0631 1.19062,0 0.32742,0.0631 0.0595,0.11465 -0.59531,0.11465 -0.65484,0 -0.92273,-0.0516 -0.59531,-0.11465 z m 0.59531,-1.50222 c 0,-0.0558 0.29405,-0.15767 0.65345,-0.22638 0.3594,-0.0687 0.5905,-0.023 0.51355,0.10147 -0.13548,0.2192 -1.167,0.32962 -1.167,0.12491 z M 253.13019,89.108097 c 0.0127,-0.308239 0.0754,-0.370919 0.15986,-0.159861 0.0764,0.191003 0.067,0.419206 -0.0209,0.507127 -0.0879,0.08792 -0.15047,-0.06837 -0.13899,-0.347266 z m -35.78924,-1.349322 c 0.191,-0.07644 0.41921,-0.06704 0.50713,0.0209 0.0879,0.08792 -0.0684,0.150469 -0.34727,0.138986 -0.30824,-0.0127 -0.37092,-0.07541 -0.15986,-0.159862 z m 64.55834,-3.439583 c 0.191,-0.07644 0.4192,-0.06705 0.50712,0.0209 0.0879,0.08792 -0.0684,0.150468 -0.34726,0.138985 -0.30824,-0.0127 -0.37092,-0.07541 -0.15986,-0.159861 z"
         id="path296" />
      <path
         style="fill:#c7c7c7;stroke-width:0.264583"
         d="m 216.79525,234.60803 c 0.1819,-0.0734 0.47956,-0.0734 0.66146,0 0.1819,0.0734 0.0331,0.13345 -0.33073,0.13345 -0.36381,0 -0.51263,-0.0601 -0.33073,-0.13345 z m 164.05821,-24.08259 c 0.191,-0.0764 0.4192,-0.067 0.50712,0.0209 0.0879,0.0879 -0.0684,0.15047 -0.34726,0.13899 -0.30824,-0.0127 -0.37092,-0.0754 -0.15986,-0.15986 z M 410.077,206.0184 c 0.4022,-0.0608 0.99751,-0.0592 1.32292,0.004 0.32544,0.0628 -0.004,0.11255 -0.73123,0.11057 -0.7276,-0.003 -0.99385,-0.0534 -0.59169,-0.11419 z m -453.615225,-8.19296 c 0.190995,-0.0764 0.419198,-0.067 0.507119,0.0209 0.08792,0.0879 -0.06835,0.15047 -0.347266,0.13899 -0.308226,-0.0127 -0.370919,-0.0754 -0.159853,-0.15986 z m 114.812634,-7.66741 c 0.181901,-0.0734 0.479558,-0.0734 0.661459,0 0.181901,0.0734 0.03307,0.13345 -0.33073,0.13345 -0.363802,0 -0.51263,-0.0601 -0.330729,-0.13345 z m 2.468285,-1.03743 c 0.0127,-0.30824 0.07539,-0.37092 0.159851,-0.15986 0.07643,0.191 0.06703,0.4192 -0.02088,0.50712 -0.08792,0.0879 -0.150453,-0.0684 -0.138964,-0.34726 z m -114.564587,-3.43959 c 0.0127,-0.30824 0.07539,-0.37092 0.15985,-0.15986 0.07643,0.191 0.06703,0.41921 -0.02088,0.50713 -0.08792,0.0879 -0.150453,-0.0684 -0.138965,-0.34727 z M 531.15264,164.20566 c -0.32908,-0.41966 -0.31975,-0.429 0.0999,-0.0999 0.44072,0.34565 0.58089,0.56293 0.36311,0.56293 -0.0549,0 -0.26328,-0.20836 -0.46302,-0.46302 z m -17.16415,-8.63272 c 0,-0.0549 0.20836,-0.26329 0.46302,-0.46302 0.41965,-0.32909 0.42899,-0.31975 0.0999,0.0999 -0.34565,0.44072 -0.56292,0.5809 -0.56292,0.36312 z M -37.436949,141.71607 c -0.329107,-0.41965 -0.319749,-0.42899 0.0999,-0.0999 0.44073,0.34565 0.580887,0.56293 0.363125,0.56293 -0.05494,0 -0.2633,-0.20836 -0.463021,-0.46303 z m 115.607062,-9.5073 c 0.190994,-0.0764 0.4192,-0.067 0.507119,0.0209 0.08792,0.0879 -0.06835,0.15047 -0.347266,0.13898 -0.308226,-0.0127 -0.370919,-0.0754 -0.159853,-0.15986 z m 1.504817,-1.93592 c 0.26339,-0.29105 0.538422,-0.52917 0.611183,-0.52917 0.07276,0 -0.08321,0.23812 -0.346599,0.52917 -0.26339,0.29104 -0.538422,0.52916 -0.611183,0.52916 -0.07276,0 0.08321,-0.23812 0.346599,-0.52916 z M 188.83645,92.812264 c 0.0127,-0.30824 0.0754,-0.37092 0.15985,-0.159861 0.0764,0.191002 0.067,0.419205 -0.0209,0.507126 -0.0879,0.08792 -0.15045,-0.06837 -0.13896,-0.347265 z m 78.77534,-8.228489 c 0.191,-0.07644 0.4192,-0.06705 0.50712,0.0209 0.0879,0.08792 -0.0684,0.150469 -0.34726,0.138986 -0.30824,-0.0127 -0.37092,-0.07541 -0.15986,-0.159861 z m 13.49375,-0.264583 c 0.191,-0.07644 0.4192,-0.06705 0.50712,0.0209 0.0879,0.08792 -0.0684,0.150468 -0.34726,0.138985 -0.30824,-0.0127 -0.37092,-0.07541 -0.15986,-0.159861 z"
         id="path294" />
      <path
         style="fill:#b7b7b7;stroke-width:0.264583"
         d="m 195.39638,222.94316 c -0.32909,-0.41966 -0.31975,-0.429 0.0999,-0.0999 0.44072,0.34565 0.58089,0.56293 0.36311,0.56293 -0.0549,0 -0.26328,-0.20836 -0.46302,-0.46302 z m 122.22166,-7.9198 c 0.191,-0.0764 0.4192,-0.067 0.50712,0.0209 0.0879,0.0879 -0.0684,0.15047 -0.34726,0.13899 -0.30824,-0.0127 -0.37092,-0.0754 -0.15986,-0.15987 z m 17.4625,-1.5875 c 0.191,-0.0764 0.4192,-0.067 0.50713,0.0209 0.0879,0.0879 -0.0684,0.15047 -0.34727,0.13899 -0.30824,-0.0127 -0.37092,-0.0754 -0.15986,-0.15987 z m 14.2875,-0.26459 c 0.191,-0.0764 0.4192,-0.067 0.50713,0.0209 0.0879,0.0879 -0.0684,0.15047 -0.34727,0.13898 -0.30824,-0.0127 -0.37092,-0.0754 -0.15986,-0.15986 z M 76.032499,196.65043 c 0.179477,-0.18082 0.39297,-0.26213 0.474432,-0.18066 0.08146,0.0815 -0.06538,0.22942 -0.326318,0.32877 -0.377085,0.14359 -0.407475,0.11319 -0.148114,-0.14811 z m 17.748031,-0.94166 c 0.190995,-0.0764 0.4192,-0.067 0.507119,0.0209 0.08792,0.0879 -0.06835,0.15047 -0.347266,0.13898 -0.308226,-0.0127 -0.370919,-0.0754 -0.159853,-0.15986 z m 6.66419,-0.71699 c 0,-0.0572 0.18478,-0.17489 0.41062,-0.26157 0.23546,-0.0904 0.34166,-0.046 0.24897,0.10401 -0.15538,0.25141 -0.65959,0.37185 -0.65959,0.15756 z m -12.485024,-1.13509 c 0.190995,-0.0764 0.419201,-0.067 0.507119,0.0209 0.08792,0.0879 -0.06835,0.15047 -0.347265,0.13899 -0.308227,-0.0127 -0.37092,-0.0754 -0.159854,-0.15986 z m 42.333334,0 c 0.191,-0.0764 0.4192,-0.067 0.50712,0.0209 0.0879,0.0879 -0.0684,0.15047 -0.34727,0.13899 -0.30822,-0.0127 -0.37091,-0.0754 -0.15985,-0.15986 z m -12.17083,-0.26458 c 0.19099,-0.0764 0.4192,-0.067 0.50712,0.0209 0.0879,0.0879 -0.0684,0.15047 -0.34727,0.13899 -0.30823,-0.0127 -0.37092,-0.0754 -0.15985,-0.15987 z m -45.508338,-5.55625 c 0.190995,-0.0764 0.419201,-0.0671 0.507119,0.0209 0.08792,0.0879 -0.06835,0.15047 -0.347265,0.13899 -0.308227,-0.0127 -0.37092,-0.0754 -0.159854,-0.15987 z M -31.582365,170.91877 c 0,-0.0549 0.208359,-0.26329 0.463021,-0.46302 0.419645,-0.32909 0.429003,-0.31975 0.0999,0.0999 -0.345644,0.44071 -0.562917,0.58089 -0.562917,0.36311 z m 538.162515,-8.20208 c 0,-0.0549 0.20836,-0.26329 0.46302,-0.46302 0.41966,-0.32909 0.429,-0.31975 0.0999,0.0999 -0.34565,0.44072 -0.56293,0.5809 -0.56293,0.36312 z m 3.43959,-3.14786 c 0,-0.04 0.92273,-0.96276 2.05052,-2.05052 l 2.05052,-1.97776 -1.97776,2.05052 c -1.8369,1.90447 -2.12328,2.17125 -2.12328,1.97776 z M -39.553616,134.57232 c -0.329107,-0.41965 -0.319749,-0.42899 0.0999,-0.0999 0.44073,0.34565 0.580888,0.56293 0.363125,0.56293 -0.05494,0 -0.2633,-0.20836 -0.463021,-0.46303 z m 120.104979,-4.7448 c 0.190994,-0.0764 0.4192,-0.067 0.507119,0.0209 0.08792,0.0879 -0.06835,0.15047 -0.347266,0.13898 -0.308226,-0.0127 -0.370919,-0.0754 -0.159853,-0.15986 z m 1.443707,-1.59011 c 0.257431,-0.0671 0.614619,-0.0627 0.79375,0.01 0.179131,0.0725 -0.03149,0.12734 -0.468056,0.12197 -0.436563,-0.005 -0.583126,-0.0647 -0.325694,-0.13179 z m 2.111631,-1.58653 c 0.254662,-0.0666 0.671381,-0.0666 0.926042,0 0.254662,0.0665 0.0463,0.121 -0.463021,0.121 -0.509323,0 -0.717682,-0.0545 -0.463021,-0.121 z m 1.207162,-1.85044 c 0.190995,-0.0764 0.4192,-0.067 0.507119,0.0209 0.08792,0.0879 -0.06835,0.15047 -0.347266,0.13899 -0.308226,-0.0127 -0.370919,-0.0754 -0.159853,-0.15986 z m 20.885547,-2.11116 c 0.1819,-0.0734 0.47956,-0.0734 0.66146,0 0.1819,0.0734 0.0331,0.13345 -0.33073,0.13345 -0.3638,0 -0.51263,-0.0601 -0.33073,-0.13345 z m -8.202083,-0.26459 c 0.181901,-0.0734 0.479557,-0.0734 0.661458,0 0.181901,0.0734 0.03307,0.13346 -0.330729,0.13346 -0.363802,0 -0.51263,-0.0601 -0.330729,-0.13346 z m 5.820833,0 c 0.1819,-0.0734 0.47956,-0.0734 0.66146,0 0.1819,0.0734 0.0331,0.13346 -0.33073,0.13346 -0.3638,0 -0.51263,-0.0601 -0.33073,-0.13346 z m -2.10013,-0.27008 c 0.19099,-0.0764 0.4192,-0.0671 0.50712,0.0209 0.0879,0.0879 -0.0683,0.15047 -0.34727,0.13899 -0.30822,-0.0127 -0.37092,-0.0754 -0.15985,-0.15987 z m 14.53863,-2.12307 c 0.32912,-0.0633 0.80537,-0.0609 1.05834,0.005 0.25296,0.0662 -0.0163,0.118 -0.5984,0.11507 -0.58209,-0.003 -0.78906,-0.0571 -0.45994,-0.12041 z m 4.49483,0.0119 c 0.18191,-0.0734 0.47956,-0.0734 0.66146,0 0.1819,0.0734 0.0331,0.13346 -0.33073,0.13346 -0.3638,0 -0.51263,-0.0601 -0.33073,-0.13346 z m 1.93912,-1.03743 c 0.0127,-0.30824 0.0754,-0.37092 0.15985,-0.15986 0.0764,0.19101 0.067,0.41921 -0.0209,0.50713 -0.0879,0.0879 -0.15046,-0.0684 -0.13897,-0.34727 z m -0.86425,-0.82015 c 0.191,-0.0764 0.4192,-0.0671 0.50712,0.0209 0.0879,0.0879 -0.0683,0.15047 -0.34726,0.13899 -0.30823,-0.0127 -0.37092,-0.0754 -0.15986,-0.15987 z m 49.98972,-14.81117 c 0.1819,-0.0734 0.47956,-0.0734 0.66146,0 0.1819,0.0734 0.0331,0.13346 -0.33073,0.13346 -0.3638,0 -0.51263,-0.0601 -0.33073,-0.13346 z m 11.12904,-5.826332 c 0.19099,-0.07644 0.4192,-0.06704 0.50712,0.0209 0.0879,0.08792 -0.0684,0.150469 -0.34727,0.138986 -0.30823,-0.0127 -0.37092,-0.07541 -0.15985,-0.159861 z m 8.46666,-5.820833 c 0.191,-0.07644 0.4192,-0.06704 0.50712,0.0209 0.0879,0.08792 -0.0684,0.150469 -0.34726,0.138986 -0.30823,-0.0127 -0.37092,-0.07541 -0.15986,-0.159862 z m 60.90378,-0.977503 c 0,-0.05493 0.20836,-0.263287 0.46302,-0.463021 0.41966,-0.329089 0.429,-0.319749 0.0999,0.09991 -0.34565,0.440716 -0.56293,0.580892 -0.56293,0.363114 z m -36.03294,-2.991247 c 0.191,-0.07644 0.4192,-0.06704 0.50712,0.0209 0.0879,0.08792 -0.0684,0.150469 -0.34726,0.138986 -0.30824,-0.0127 -0.37092,-0.07541 -0.15986,-0.159862 z m -12.97639,-0.804757 c 0.47557,-0.0589 1.18994,-0.05768 1.5875,0.0026 0.39759,0.06035 0.008,0.108532 -0.86463,0.107051 -0.87312,-0.0026 -1.1984,-0.05088 -0.72287,-0.10975 z m 48.16597,-0.253576 c 0.191,-0.07644 0.41921,-0.06705 0.50713,0.0209 0.0879,0.08792 -0.0684,0.150468 -0.34727,0.138985 -0.30824,-0.0127 -0.37092,-0.07541 -0.15986,-0.159861 z m 10.05417,-1.852084 c 0.191,-0.07644 0.4192,-0.06705 0.50713,0.0209 0.0879,0.08792 -0.0684,0.150469 -0.34727,0.138986 -0.30824,-0.0127 -0.37092,-0.07541 -0.15986,-0.159861 z m 33.3375,0 c 0.191,-0.07644 0.41921,-0.06705 0.50713,0.0209 0.0879,0.08792 -0.0684,0.150469 -0.34727,0.138986 -0.30824,-0.0127 -0.37092,-0.07541 -0.15986,-0.159861 z m -5.29167,-0.264583 c 0.19101,-0.07644 0.41921,-0.06705 0.50713,0.0209 0.0879,0.08792 -0.0684,0.150469 -0.34727,0.138986 -0.30823,-0.0127 -0.37091,-0.07541 -0.15986,-0.159861 z m -9.6688,-0.267203 c 0.25744,-0.06707 0.61463,-0.06268 0.79375,0.0098 0.17915,0.07247 -0.0315,0.127344 -0.46805,0.121973 -0.43656,-0.0053 -0.58311,-0.06469 -0.3257,-0.131789 z"
         id="path292" />
      <path
         style="fill:#a5a5a5;stroke-width:0.264583"
         d="m 202.54013,226.64732 c -0.32909,-0.41965 -0.31975,-0.42899 0.0999,-0.0999 0.44072,0.34565 0.58089,0.56292 0.36311,0.56292 -0.0549,0 -0.26328,-0.20835 -0.46302,-0.46302 z m -9.54085,-7.39063 c 0.191,-0.0764 0.4192,-0.067 0.50712,0.0209 0.0879,0.0879 -0.0684,0.15047 -0.34726,0.13899 -0.30823,-0.0127 -0.37092,-0.0754 -0.15986,-0.15986 z m 123.54389,-4.22783 c 0.1819,-0.0734 0.47956,-0.0734 0.66146,0 0.1819,0.0734 0.0331,0.13346 -0.33073,0.13346 -0.3638,0 -0.51263,-0.0601 -0.33073,-0.13346 z m 4.77903,-0.27009 c 0.19101,-0.0764 0.41921,-0.067 0.50713,0.0209 0.0879,0.0879 -0.0684,0.15047 -0.34726,0.13898 -0.30824,-0.0127 -0.37092,-0.0754 -0.15987,-0.15986 z m 12.96459,-1.32291 c 0.191,-0.0764 0.4192,-0.067 0.50713,0.0209 0.0879,0.0879 -0.0684,0.15047 -0.34727,0.13899 -0.30824,-0.0127 -0.37092,-0.0754 -0.15986,-0.15987 z m 4.7507,-0.27559 c 0.47556,-0.0589 1.18994,-0.0577 1.5875,0.003 0.39759,0.0604 0.008,0.10854 -0.86463,0.10705 -0.87313,-0.003 -1.19841,-0.0509 -0.72287,-0.10975 z m 9.12841,0.008 c 0.25744,-0.0671 0.61463,-0.0627 0.79375,0.01 0.17915,0.0725 -0.0315,0.12735 -0.46804,0.12198 -0.43657,-0.005 -0.58312,-0.0647 -0.32571,-0.13179 z m 11.25631,-0.79113 c 0.191,-0.0764 0.4192,-0.067 0.50712,0.0209 0.0879,0.0879 -0.0684,0.15046 -0.34726,0.13898 -0.30824,-0.0127 -0.37092,-0.0754 -0.15986,-0.15986 z m 3.96875,-0.26458 c 0.191,-0.0764 0.4192,-0.067 0.50712,0.0209 0.0879,0.0879 -0.0684,0.15047 -0.34726,0.13899 -0.30824,-0.0127 -0.37092,-0.0754 -0.15986,-0.15986 z m 7.40833,-0.52917 c 0.191,-0.0764 0.41921,-0.067 0.50713,0.0209 0.0879,0.0879 -0.0684,0.15046 -0.34727,0.13898 -0.30824,-0.0127 -0.37092,-0.0754 -0.15986,-0.15986 z m -416.826586,-8.35215 -0.504028,-0.59531 0.595312,0.50403 c 0.327422,0.2772 0.595313,0.54509 0.595313,0.59531 0,0.21172 -0.212935,0.0554 -0.686597,-0.50403 z m -0.107153,-2.94418 c 0,-0.0549 0.208359,-0.26329 0.463021,-0.46302 0.419644,-0.32909 0.429002,-0.31975 0.09989,0.0999 -0.345643,0.44071 -0.562915,0.58089 -0.562915,0.36311 z M 86.319436,197.9573 c 0.07641,-0.12364 0.249769,-0.15629 0.385236,-0.0726 0.346175,0.21395 0.307197,0.2974 -0.138936,0.2974 -0.211881,0 -0.322715,-0.10118 -0.2463,-0.22482 z m -8.078825,-2.75175 c 0.0127,-0.30824 0.07539,-0.37092 0.15985,-0.15986 0.07643,0.191 0.06703,0.41921 -0.02088,0.50713 -0.08792,0.0879 -0.150453,-0.0684 -0.138965,-0.34727 z m 29.215569,-0.37483 c 0.26339,-0.29104 0.53842,-0.52917 0.61118,-0.52917 0.0728,0 -0.0832,0.23813 -0.3466,0.52917 -0.26339,0.29104 -0.53842,0.52916 -0.61118,0.52916 -0.0728,0 0.0832,-0.23812 0.3466,-0.52916 z m 23.68021,-0.79375 c -0.23847,-0.15412 -0.2711,-0.2581 -0.0818,-0.26054 0.17331,-0.003 0.3887,0.11502 0.47864,0.26054 0.20301,0.32848 0.11142,0.32848 -0.39688,0 z M 507.3739,161.92294 c 0,-0.0549 0.20836,-0.26329 0.46302,-0.46302 0.41966,-0.32909 0.429,-0.31975 0.0999,0.0999 -0.34565,0.44072 -0.56293,0.5809 -0.56293,0.36312 z m 12.91498,-1.40375 c 0.191,-0.0764 0.4192,-0.067 0.50713,0.0209 0.0879,0.0879 -0.0684,0.15047 -0.34727,0.13899 -0.30824,-0.0127 -0.37092,-0.0754 -0.15986,-0.15986 z m 1.57096,0.006 c 0.1819,-0.0734 0.47956,-0.0734 0.66146,0 0.1819,0.0734 0.0331,0.13345 -0.33073,0.13345 -0.3638,0 -0.51263,-0.0601 -0.33073,-0.13345 z m -542.594288,-1.9571 c 0,-0.15412 0.119062,-0.20661 0.264583,-0.11668 0.145521,0.0899 0.264583,0.21603 0.264583,0.28019 0,0.0642 -0.119062,0.11668 -0.264583,0.11668 -0.145521,0 -0.264583,-0.1261 -0.264583,-0.28019 z m 539.272418,-11.4942 c 0.005,-0.43657 0.0647,-0.58312 0.13179,-0.32571 0.0671,0.25744 0.0627,0.61463 -0.01,0.79375 -0.0725,0.17915 -0.12734,-0.0315 -0.12197,-0.46804 z M 46.276318,145.69991 c 0.257432,-0.0671 0.61462,-0.0627 0.79375,0.01 0.179131,0.0725 -0.03149,0.12734 -0.468055,0.12197 -0.436563,-0.005 -0.583126,-0.0647 -0.325695,-0.13179 z m 15.539237,-3.09155 c 0,-0.0549 0.208359,-0.26329 0.463021,-0.46303 0.419645,-0.32908 0.429003,-0.31974 0.0999,0.0999 -0.345644,0.44072 -0.562917,0.58089 -0.562917,0.36312 z m 452.932925,-1.95062 c -0.32909,-0.41965 -0.31975,-0.42899 0.0999,-0.0999 0.44072,0.34566 0.5809,0.56293 0.36312,0.56293 -0.0549,0 -0.26329,-0.20836 -0.46302,-0.46302 z m -553.189123,-1.01423 c 0.0127,-0.30824 0.07539,-0.37092 0.15985,-0.15986 0.07643,0.19101 0.06703,0.41921 -0.02087,0.50713 -0.08792,0.0879 -0.150453,-0.0684 -0.138965,-0.34727 z m 115.358337,-4.7625 c 0.0127,-0.30824 0.07539,-0.37092 0.159851,-0.15986 0.07643,0.19101 0.06703,0.41921 -0.02088,0.50713 -0.08792,0.0879 -0.150453,-0.0684 -0.138964,-0.34727 z m -118.268754,-6.35 c 0.0127,-0.30824 0.07539,-0.37092 0.159851,-0.15986 0.07643,0.19101 0.06703,0.41921 -0.02088,0.50713 -0.08792,0.0879 -0.150453,-0.0684 -0.138965,-0.34727 z m 127.922167,-2.03988 c 0.09936,-0.26093 0.247304,-0.40778 0.328766,-0.32634 0.08146,0.0815 1.7e-4,0.29496 -0.180652,0.47445 -0.261308,0.25935 -0.291698,0.22897 -0.148114,-0.14811 z m 7.738589,-3.80736 c 0.190995,-0.0764 0.419201,-0.067 0.507119,0.0209 0.08792,0.0879 -0.06835,0.15047 -0.347265,0.13898 -0.308227,-0.0127 -0.37092,-0.0754 -0.159854,-0.15986 z m 4.745964,-0.25908 c 0.181901,-0.0734 0.479558,-0.0734 0.661459,0 0.181901,0.0734 0.03307,0.13346 -0.33073,0.13346 -0.363802,0 -0.51263,-0.0601 -0.330729,-0.13346 z m -141.99422,-0.50826 c 0.0127,-0.30824 0.07539,-0.37092 0.159851,-0.15986 0.07643,0.191 0.06703,0.4192 -0.02088,0.50713 -0.08792,0.0879 -0.150453,-0.0684 -0.138965,-0.34727 z m 171.29683,-3.81442 c -0.0899,-0.14552 -0.0374,-0.26458 0.11667,-0.26458 0.15411,0 0.2802,0.11906 0.2802,0.26458 0,0.14552 -0.0525,0.26459 -0.11668,0.26459 -0.0642,0 -0.19026,-0.11907 -0.28019,-0.26459 z m 1.12936,-0.30914 c 0.15375,-0.15377 0.43572,-0.22749 0.6266,-0.16388 0.19816,0.0661 0.0782,0.186 -0.27955,0.27956 -0.44009,0.11509 -0.54339,0.0806 -0.34705,-0.11568 z m 6.36165,-2.78201 c 0.191,-0.0764 0.4192,-0.067 0.50712,0.0209 0.0879,0.0879 -0.0684,0.15047 -0.34727,0.13899 -0.30822,-0.0127 -0.37091,-0.0754 -0.15985,-0.15987 z M 339.96382,92.254072 c 0.25744,-0.06707 0.61463,-0.06268 0.79375,0.0098 0.17915,0.07247 -0.0315,0.127344 -0.46805,0.121973 -0.43656,-0.0053 -0.58311,-0.06469 -0.3257,-0.131789 z m -93.5187,-1.055714 c 0.191,-0.07644 0.4192,-0.06704 0.50713,0.0209 0.0879,0.08792 -0.0684,0.150469 -0.34727,0.138986 -0.30824,-0.0127 -0.37092,-0.07541 -0.15986,-0.159861 z m -20.6375,-2.910416 c 0.191,-0.07644 0.4192,-0.06705 0.50712,0.0209 0.0879,0.08792 -0.0684,0.150468 -0.34726,0.138985 -0.30824,-0.0127 -0.37092,-0.07541 -0.15986,-0.159861 z m -3.45612,-0.25908 c 0.1819,-0.0734 0.47956,-0.0734 0.66146,0 0.1819,0.07339 0.0331,0.133456 -0.33073,0.133456 -0.3638,0 -0.51263,-0.06006 -0.33073,-0.133456 z m -7.14375,-0.264584 c 0.1819,-0.0734 0.47955,-0.0734 0.66146,0 0.1819,0.0734 0.0331,0.133456 -0.33073,0.133456 -0.36381,0 -0.51263,-0.06006 -0.33073,-0.133456 z m -3.15847,-0.270086 c 0.19101,-0.07644 0.41921,-0.06705 0.50713,0.0209 0.0879,0.08792 -0.0684,0.150468 -0.34726,0.138985 -0.30824,-0.0127 -0.37092,-0.07541 -0.15987,-0.159861 z m -14.4313,-0.267203 c 0.25744,-0.06707 0.61463,-0.06268 0.79375,0.0098 0.17915,0.07247 -0.0315,0.127344 -0.46805,0.121972 -0.43656,-0.0053 -0.58311,-0.06469 -0.3257,-0.131788 z m 10.44602,0.0082 c 0.1819,-0.0734 0.47955,-0.0734 0.66146,0 0.1819,0.0734 0.0331,0.133456 -0.33073,0.133456 -0.36381,0 -0.51263,-0.06006 -0.33073,-0.133456 z m 106.9082,-0.270087 c 0.19101,-0.07644 0.41921,-0.06704 0.50713,0.0209 0.0879,0.08792 -0.0684,0.150469 -0.34726,0.138986 -0.30824,-0.0127 -0.37092,-0.07541 -0.15987,-0.159861 z m -2.91041,-0.264583 c 0.191,-0.07644 0.4192,-0.06704 0.50712,0.0209 0.0879,0.08792 -0.0684,0.150469 -0.34726,0.138986 -0.30824,-0.0127 -0.37092,-0.07541 -0.15986,-0.159861 z m -2.38125,-0.264583 c 0.191,-0.07644 0.4192,-0.06705 0.50712,0.0209 0.0879,0.08792 -0.0684,0.150468 -0.34726,0.138985 -0.30824,-0.0127 -0.37092,-0.07541 -0.15986,-0.159861 z m -6.61459,-0.79375 c 0.19101,-0.07644 0.41921,-0.06705 0.50713,0.0209 0.0879,0.08792 -0.0684,0.150468 -0.34726,0.138985 -0.30824,-0.0127 -0.37092,-0.07541 -0.15987,-0.159861 z m -2.38125,-0.264584 c 0.19101,-0.07644 0.41921,-0.06705 0.50713,0.0209 0.0879,0.08792 -0.0684,0.150469 -0.34726,0.138986 -0.30824,-0.0127 -0.37092,-0.07541 -0.15987,-0.159861 z m -42.06875,-0.264583 c 0.19101,-0.07644 0.41921,-0.06705 0.50713,0.0209 0.0879,0.08792 -0.0684,0.150469 -0.34727,0.138986 -0.30824,-0.0127 -0.37092,-0.07541 -0.15986,-0.159861 z m 3.82495,-0.267203 c 0.25744,-0.06707 0.61463,-0.06268 0.79375,0.0098 0.17915,0.07247 -0.0315,0.127344 -0.46805,0.121973 -0.43656,-0.0053 -0.58311,-0.06469 -0.3257,-0.131789 z m 31.62922,0.0026 c 0.191,-0.07644 0.41921,-0.06705 0.50713,0.0209 0.0879,0.08792 -0.0684,0.150469 -0.34727,0.138986 -0.30824,-0.0127 -0.37092,-0.07541 -0.15986,-0.159861 z m -25.01464,-0.267202 c 0.25744,-0.06707 0.61463,-0.06268 0.79376,0.0098 0.17914,0.07247 -0.0315,0.127344 -0.46805,0.121973 -0.43657,-0.0053 -0.58312,-0.06469 -0.32571,-0.131789 z m 18.91578,-0.0037 c 0.32912,-0.06329 0.80537,-0.06088 1.05834,0.0053 0.25294,0.06623 -0.0164,0.118004 -0.59841,0.115067 -0.58209,-0.0029 -0.78907,-0.05712 -0.45993,-0.120412 z m -12.95731,-0.273605 c 0.9152,-0.05181 2.34395,-0.05138 3.175,0 0.83103,0.05233 0.0822,0.09472 -1.66401,0.09419 -1.74625,0 -2.42621,-0.04334 -1.51099,-0.09514 z"
         id="path290" />
      <path
         style="fill:#9d9d9d;stroke-width:0.264583"
         d="m 216.59681,232.56933 c -0.80036,-0.1911 -2.22911,-0.72355 -3.175,-1.18321 -0.94589,-0.45969 -1.92815,-0.83587 -2.18281,-0.83598 -0.25466,-1.1e-4 -0.46302,-0.11927 -0.46302,-0.2648 0,-0.14552 -0.13153,-0.26458 -0.29231,-0.26458 -0.64585,0 -2.96847,-1.37417 -4.07406,-2.41043 -0.64603,-0.6055 -1.44595,-1.28887 -1.77755,-1.51855 -0.33163,-0.22971 -0.82055,-0.69056 -1.08651,-1.02412 -0.64281,-0.80627 -1.20378,-1.08371 -3.44829,-1.70561 -1.03894,-0.28787 -2.29148,-0.83032 -2.78344,-1.20547 -0.88667,-0.6762 -0.89308,-0.69647 -0.73965,-2.33969 0.20339,-2.17794 0.0596,-2.28295 -3.04701,-2.22538 -3.90845,0.0725 -3.88715,0.076 -4.07561,-0.6749 -0.26265,-1.04648 -2.7891,-2.92896 -6.26409,-4.66746 -2.62492,-1.31323 -3.21123,-2.08328 -1.97867,-2.59882 1.04006,-0.435 1.52135,-0.96644 1.52135,-1.67992 0,-0.53475 -0.22664,-0.80835 -0.99219,-1.19779 -1.38466,-0.7044 -4.19218,-1.5399 -5.90244,-1.75654 -0.79186,-0.10031 -1.5042,-0.22196 -1.58298,-0.27036 -0.0788,-0.0484 -3.17441,-0.51715 -6.87917,-1.04174 -3.70476,-0.52456 -6.91452,-1.00634 -7.1328,-1.07061 -0.21828,-0.0642 -0.84021,-0.186 -1.38206,-0.27056 -1.00623,-0.15701 -6.60642,-1.99959 -9.16691,-3.01612 -0.78147,-0.31025 -3.46037,-1.5853 -5.95313,-2.83342 -4.77193,-2.38935 -6.54409,-3.0707 -7.4326,-2.85766 -0.29659,0.0711 -1.90848,0.17703 -3.58197,0.2354 -4.36806,0.15227 -7.4152,0.45042 -7.25486,0.70985 0.23859,0.38605 -0.79898,-0.11248 -1.11664,-0.53652 -0.22462,-0.29983 -0.98372,-0.43014 -2.97074,-0.50996 -3.40126,-0.13661 -4.4705,0.0569 -4.84405,0.87677 -0.20293,0.44538 -0.58702,0.68046 -1.31187,0.80294 -0.56371,0.0952 -0.9593,0.27932 -0.87909,0.40909 0.0802,0.12978 -0.20708,0.0334 -0.6384,-0.21412 -0.64671,-0.37116 -0.73773,-0.53695 -0.51908,-0.94549 0.43524,-0.81325 0.0492,-1.76906 -0.71453,-1.76906 -0.363,0 -0.86675,0.10793 -1.11943,0.23982 -0.25269,0.13189 -0.93569,0.36679 -1.51777,0.522 -0.58208,0.1552 -1.63684,0.76168 -2.34391,1.34768 -1.4448,1.19748 -2.03384,1.30249 -3.00785,0.53633 -0.37,-0.29104 -0.89479,-0.52916 -1.16621,-0.52916 -0.27142,0 -0.49349,-0.10634 -0.49349,-0.23627 0,-0.46916 -0.88197,-0.56052 -1.50022,-0.15545 -0.56938,0.37309 -0.67228,0.37367 -1.03995,0.006 -0.22442,-0.22442 -0.450071,-0.40804 -0.501443,-0.40804 -0.05137,0 -1.025131,0.37676 -2.163913,0.83725 -1.138783,0.4605 -2.487232,0.82346 -2.996555,0.8066 -1.307057,-0.0432 -3.508274,0.62593 -3.914055,1.18989 -0.262935,0.36541 -0.616739,0.45371 -1.527683,0.38126 -0.686557,-0.0546 -1.350698,0.0428 -1.57801,0.23146 -0.345506,0.28676 -0.347874,0.23971 -0.01979,-0.39267 0.205,-0.39515 0.629291,-0.89815 0.942872,-1.11778 0.41919,-0.29361 0.548696,-0.62029 0.48913,-1.23383 -0.128492,-1.32353 -0.949968,-1.22802 -3.008627,0.34985 -2.347101,1.79896 -3.970767,2.58895 -5.516465,2.68399 -1.111808,0.0684 -1.357916,-0.0145 -1.894287,-0.6381 -0.339053,-0.39417 -0.754425,-0.71667 -0.923047,-0.71667 -0.168621,0 -0.02979,-0.22413 0.308526,-0.49808 0.542888,-0.43961 0.578059,-0.57941 0.299566,-1.19063 -0.265454,-0.58261 -0.487243,-0.69254 -1.397201,-0.69254 -0.745572,0 -1.350603,-0.20513 -1.947217,-0.66019 -0.476057,-0.36311 -0.963451,-0.57147 -1.083098,-0.46302 -0.11965,0.10845 -0.127252,0.0408 -0.01691,-0.15026 0.130995,-0.22683 -0.186262,-0.70461 -0.913943,-1.37641 l -1.114591,-1.02899 0.757925,-0.16704 c 1.342306,-0.29583 1.419384,-0.35856 1.419384,-1.15503 0,-0.90607 -0.277342,-1.02836 -2.326079,-1.02556 -1.271913,0.003 -1.547411,-0.11387 -3.010347,-1.26322 -0.885669,-0.69583 -1.771809,-1.26513 -1.969199,-1.26513 -0.262377,0 -0.28299,-0.0915 -0.07665,-0.3401 0.555271,-0.66905 0.0095,-1.3625 -1.324094,-1.68241 -1.127741,-0.27056 -2.370114,-1.01875 -4.838713,-2.91401 -2.73117,-2.09688 -9.656178,-3.5605 -13.970959,-2.9528 -1.256352,0.17692 -2.076145,0.18698 -2.235729,0.0274 -0.737068,-0.73708 -3.153725,-0.0254 -7.860136,2.31492 -1.550559,0.77102 -2.890467,1.40184 -2.977576,1.40184 -0.08711,0 -1.270717,0.5303 -2.630241,1.17845 -3.247806,1.5484 -7.904557,3.37484 -9.465493,3.7125 -0.236503,0.0512 -1.605722,0.45125 -3.042709,0.88908 -1.436986,0.43786 -3.878591,1.0967 -5.425789,1.46415 -1.547199,0.36746 -4.7023553,1.21674 -7.0114588,1.88736 -2.3091035,0.67058 -4.4960277,1.27452 -4.85982984,1.34204 -2.18204796,0.40505 -9.17517356,2.48648 -15.21354236,4.52816 -1.891771,0.63966 -3.618177,1.21007 -3.836458,1.26759 -0.218282,0.0575 -2.004219,0.65191 -3.96875,1.32083 -7.691242,2.61892 -10.81553,3.43675 -14.745786,3.8599 -4.636225,0.49919 -8.008382,-0.0116 -8.008382,-1.21298 0,-0.33732 2.10217,-1.8206 3.850069,-2.71659 1.335495,-0.68458 2.235348,-1.47132 2.235348,-1.95434 0,-0.78068 -0.579573,-1.00068 -2.192131,-0.83214 -1.487628,0.15549 -1.560111,0.13676 -1.313842,-0.33941 0.487193,-0.94202 1.041421,-2.3522 1.521164,-3.87046 0.477409,-1.51085 0.481957,-1.51534 1.959269,-1.92968 2.79881,-0.78502 3.854074,-1.34432 3.945718,-2.09127 0.09333,-0.7607 0.157345,-0.74377 -2.597261,-0.68717 l -1.719792,0.0353 -0.05456,-1.96803 -0.05456,-1.96799 1.642057,-0.45969 c 0.903131,-0.25284 2.442758,-0.86238 3.421391,-1.35454 0.978633,-0.49217 2.071936,-0.89484 2.429565,-0.89484 0.43519,0 0.710605,-0.19021 0.832779,-0.57515 0.30643,-0.96547 -0.483801,-1.29313 -2.826801,-1.17208 -1.126558,0.0582 -2.105239,0.0489 -2.174845,-0.0206 -0.06961,-0.0696 0.355274,-0.89503 0.944178,-1.83428 0.588907,-0.93927 1.144667,-2.0692 1.235023,-2.51097 0.140155,-0.6853 0.368202,-0.87231 1.552829,-1.27333 1.635035,-0.55351 2.208064,-1.02511 3.104742,-2.55519 0.898327,-1.53287 0.898483,-3.23477 5.29e-4,-4.55639 l -0.663403,-0.97629 0.597258,-0.15965 c 0.32849,-0.0878 1.488043,-0.24741 2.576785,-0.35467 2.433074,-0.23966 3.709014,-0.73089 3.709014,-1.42788 0,-0.6327 -0.381191,-0.94501 -1.653646,-1.35485 -0.884068,-0.28477 -1.373786,-0.80772 -0.756378,-0.80772 0.129696,0 2.004931,-0.23728 4.167188,-0.52726 2.162257,-0.29001 4.288565,-0.53192 4.725128,-0.53758 0.436562,-0.006 1.029245,-0.18833 1.317074,-0.4059 0.932836,-0.70511 0.198014,-1.24981 -2.536491,-1.88018 -2.689226,-0.61992 -6.542575,-1.70318 -7.710271,-2.16749 -0.705313,-0.28046 -0.869138,-0.71771 -0.738767,-1.97184 0.07633,-0.73432 -0.428535,-1.16967 -2.063462,-1.77932 -1.533948,-0.57198 -2.687876,-1.42481 -2.687876,-1.98647 0,-0.35546 2.122718,-0.97948 4.894792,-1.43893 2.663,-0.44138 3.158403,-0.61794 3.263387,-1.16308 0.170709,-0.88641 -0.193611,-1.01839 -4.057137,-1.46971 -2.527856,-0.29528 -4.328814,-0.67315 -5.986156,-1.25598 -1.001543,-0.35221 -1.322506,-0.63378 -1.768226,-1.5512 -0.299511,-0.61648 -0.927425,-1.55694 -1.395365,-2.08989 -0.483248,-0.55039 -0.748078,-1.06246 -0.613024,-1.18536 0.130773,-0.11898 1.634472,-0.35309 3.341553,-0.5202 3.38767,-0.33165 4.365228,-0.59388 4.612095,-1.23719 0.291071,-0.75853 -0.63437,-1.25828 -5.131954,-2.77143 -4.787437,-1.61065 -4.884523,-1.68018 -5.200097,-3.72435 -0.08118,-0.52586 -0.265472,-1.26614 -0.409546,-1.64508 l -0.261948,-0.68897 3.099041,0.0575 3.099044,0.0576 v -0.65331 c 0,-0.66326 -0.11243,-0.73724 -6.73521,-4.43251 -1.123913,-0.62712 -1.523511,-1.8392 -1.08684,-3.29668 0.37361,-1.24701 1.239893,-1.85881 3.724379,-2.63039 1.721792,-0.53469 2.500312,-0.61227 5.949754,-0.59272 3.828071,0.0217 4.067225,0.056 6.746875,0.96801 1.527969,0.52004 3.909219,1.4138 5.291667,1.98615 4.02086,1.66468 8.227621,3.47194 9.6572921,4.14885 4.2931743,2.03269 11.1094233,4.905 17.5947923,7.41431 2.1100522,0.8164 4.0745836,1.5933 4.3656256,1.72643 0.291041,0.13314 1.124479,0.47059 1.852083,0.74989 0.727604,0.27932 2.096823,0.86267 3.042708,1.29635 0.945886,0.43368 2.969948,1.29347 4.497917,1.91063 1.527969,0.61717 3.552032,1.48008 4.497917,1.9176 4.145661,1.91754 9.484141,3.94176 10.407426,3.94623 1.902012,0.009 2.87338,0.29983 3.780634,1.13096 0.830894,0.76121 0.913487,0.94351 0.650266,1.43534 -0.165833,0.30988 -0.625501,0.64966 -1.021482,0.7551 -0.663115,0.17658 -0.625949,0.20661 0.470657,0.38039 0.654843,0.10377 2.083593,0.20034 3.175,0.2146 1.091406,0.0143 2.460625,0.13862 3.042708,0.27633 0.582083,0.13774 1.954366,0.32261 3.049519,0.41082 1.820267,0.14663 2.036024,0.11086 2.513542,-0.41677 0.287295,-0.31747 0.47422,-0.654 0.415385,-0.74787 -0.05883,-0.0939 0.523785,-0.26144 1.294704,-0.37238 2.38619,-0.3434 6.915195,-1.76368 9.077733,-2.84675 1.134859,-0.56838 2.489679,-1.1134 3.010707,-1.21113 0.580536,-0.10891 0.994431,-0.35785 1.068983,-0.64294 0.140819,-0.53848 2.69906,-1.60523 8.012136,-3.3409 1.964532,-0.64174 3.810001,-1.27172 4.101042,-1.39991 0.291042,-0.12816 1.481667,-0.55321 2.645834,-0.94456 1.164166,-0.39132 2.354791,-0.81227 2.645833,-0.93546 0.291042,-0.12316 1.064948,-0.39825 1.719792,-0.61132 0.654844,-0.21307 2.678906,-0.94768 4.497917,-1.6325 1.81901,-0.68483 6.283854,-2.23536 9.921876,-3.44567 3.63802,-1.21029 8.34099,-2.81091 10.45104,-3.55693 2.11005,-0.74602 4.84849,-1.69243 6.08542,-2.10315 1.23692,-0.41074 4.33255,-1.47843 6.87916,-2.37267 2.54662,-0.89427 5.58271,-1.91747 6.74688,-2.27381 1.16416,-0.35634 3.00963,-0.95668 4.10104,-1.33413 1.09141,-0.37746 2.16297,-0.72708 2.38125,-0.77695 0.5343,-0.12211 1.75776,-0.62648 1.57068,-0.64751 -0.3394,-0.0382 -6.04285,0.76853 -7.07809,1.00113 -0.61653,0.13853 -1.37461,0.18552 -1.68461,0.10445 -0.34444,-0.0901 -0.49922,-0.0431 -0.39798,0.12065 0.10232,0.16558 -0.095,0.21823 -0.51594,0.13775 -0.39076,-0.0747 -0.76887,0.0108 -0.88613,0.20066 -0.11249,0.182 -1.20116,0.66569 -2.41925,1.07481 -1.2181,0.40913 -4.29832,1.47413 -6.84493,2.36665 -2.54662,0.89252 -5.88037,2.03978 -7.40833,2.54944 -1.52797,0.50967 -3.01625,1.03193 -3.3073,1.1606 -0.57755,0.25529 -9.957133,3.37198 -12.303119,4.0881 -0.800365,0.24432 -3.955521,1.37909 -7.011459,2.52169 -3.055938,1.14263 -7.163594,2.64705 -9.128125,3.3432 -1.964532,0.69612 -3.667088,1.42002 -3.78346,1.60864 -0.273053,0.44259 -1.530496,0.45408 -1.442061,0.0132 0.09977,-0.49739 0.790257,-0.97528 1.422812,-0.98473 1.15247,-0.0172 1.517907,-1.69706 0.416838,-1.91614 -0.823756,-0.16388 0.82531,-1.53114 1.852491,-1.5359 1.186238,-0.006 1.631011,-0.33711 1.483969,-1.10631 -0.130001,-0.68006 0.308237,-1.2709 0.942647,-1.2709 0.788947,0 1.22343,-0.33893 1.22343,-0.95435 0,-0.494 0.141214,-0.63315 0.64256,-0.63315 0.756618,0 1.561975,-0.71231 1.37025,-1.21192 -0.09973,-0.2599 0.253765,-0.37028 1.373847,-0.42892 1.481772,-0.0776 1.508135,-0.0928 1.508135,-0.8727 0,-0.66947 -0.141009,-0.83934 -0.900552,-1.08482 -0.89322,-0.28871 -0.881372,-0.29567 1.455209,-0.85447 3.618889,-0.86545 5.162127,-1.07712 10.028677,-1.37538 3.263631,-0.20005 5.260371,-0.19315 7.276431,0.0251 3.61299,0.39119 4.06088,0.32229 4.23124,-0.65098 0.12284,-0.70178 0.30885,-0.81592 2.23525,-1.37149 1.9165,-0.55274 2.46322,-0.59338 6.21771,-0.46215 4.63065,0.16185 5.57166,-0.0214 5.57166,-1.08535 0,-0.36015 -0.19633,-0.76472 -0.43629,-0.899 -0.74075,-0.41455 8.26692,-2.44107 13.79014,-3.10245 1.75043,-0.20963 3.89698,-0.60716 4.77011,-0.88347 1.57419,-0.49813 1.58917,-0.49794 1.78645,0.023 0.10942,0.28898 0.13216,0.63347 0.0505,0.76557 -0.22237,0.35981 0.4701,0.29054 1.76777,-0.17685 0.63676,-0.22931 1.33634,-0.45857 1.55462,-0.50945 0.21828,-0.0508 1.94469,-0.56364 3.83646,-1.13951 1.89177,-0.57586 5.28505,-1.4868 7.54063,-2.02427 2.25557,-0.53748 4.3987,-1.08659 4.7625,-1.22026 0.64507,-0.23699 8.07244,-1.88566 15.44197,-3.4277 2.01741,-0.42212 5.47022,-1.0195 7.67292,-1.32747 5.41241,-0.75676 11.11931,-1.76385 16.96948,-2.99453 1.01865,-0.21429 2.20927,-0.44966 2.64584,-0.52303 0.98015,-0.16473 6.54124,-1.29675 9.92187,-2.019695 1.38245,-0.295645 2.87073,-0.600366 3.30729,-0.677122 0.43657,-0.07678 1.89852,-0.375443 3.24877,-0.663681 1.35028,-0.288263 2.89809,-0.587401 3.43958,-0.664792 0.54153,-0.07736 1.57988,-0.256434 2.30749,-0.397933 0.7276,-0.141526 1.62057,-0.314933 1.98437,-0.385392 0.36381,-0.07043 2.92365,-0.544063 5.68855,-1.052486 2.76489,-0.508423 5.92005,-1.106567 7.01145,-1.32924 1.09141,-0.222674 2.72852,-0.538877 3.63802,-0.702681 1.89847,-0.341921 2.18152,-0.745807 0.52917,-0.755094 -0.61846,-0.0034 -1.5412,-0.10324 -2.05052,-0.221721 -0.58351,-0.135731 -1.56215,-0.08437 -2.64583,0.138827 -0.94589,0.194839 -2.85089,0.542687 -4.23334,0.773033 -1.38244,0.23032 -2.6326,0.449236 -2.77812,0.486463 -0.14552,0.0372 -0.74083,0.156342 -1.32292,0.264716 -10.46419,1.948286 -14.1855,2.674673 -23.01875,4.49326 -5.3898,1.109658 -19.09592,3.748938 -20.76979,3.999498 -0.65485,0.098 -1.60735,0.23272 -2.11667,0.29935 -5.61959,0.73522 -9.13446,1.39247 -16.66875,3.11692 -1.67349,0.38304 -3.42487,0.7116 -3.89197,0.73014 -0.4974,0.0198 -0.78087,0.14436 -0.6842,0.30078 0.10197,0.165 -0.0204,0.1959 -0.32021,0.0809 -0.2669,-0.10242 -0.55432,-0.0866 -0.63872,0.0352 -0.20624,0.29755 -10.08164,3.57198 -13.3236,4.41778 -1.42275,0.37115 -2.81207,0.81552 -3.08737,0.98745 -0.39393,0.24601 -0.59475,0.23442 -0.9428,-0.0545 -0.41209,-0.342 -0.41011,-0.39053 0.0291,-0.71168 0.25924,-0.18955 0.63663,-0.34465 0.83866,-0.34465 0.39594,0 2.77884,-0.88106 5.74925,-2.12576 1.01864,-0.42686 4.23333,-1.59946 7.14375,-2.60581 2.91041,-1.00634 6.24416,-2.21313 7.40833,-2.68179 1.16417,-0.46863 2.65245,-0.87466 3.30729,-0.90228 0.65485,-0.0276 1.60735,-0.24249 2.11667,-0.47749 0.50932,-0.235 1.82694,-0.83516 2.92805,-1.33369 1.55452,-0.70382 2.07437,-1.08114 2.32578,-1.688092 0.21565,-0.52062 0.60738,-0.865214 1.173,-1.031822 0.46706,-0.137583 0.95392,-0.488262 1.08191,-0.779304 0.18252,-0.415051 0.48665,-0.529166 1.41039,-0.529166 0.81624,0 1.2816,-0.142108 1.51626,-0.463021 0.18621,-0.254661 0.5945,-0.463021 0.9073,-0.463021 0.31281,0 0.77263,-0.238125 1.02182,-0.529166 0.2492,-0.291042 0.66858,-0.529167 0.93195,-0.529167 0.26338,0 0.89176,-0.172508 1.39641,-0.383381 0.68989,-0.288237 0.91755,-0.542793 0.91755,-1.025922 0,-0.353404 -0.1786,-0.790787 -0.39688,-0.971947 -0.21828,-0.18116 -0.39687,-0.42463 -0.39687,-0.541047 0,-0.302604 1.46848,-0.722735 3.25625,-0.93165 1.19629,-0.139806 1.62515,-0.314908 1.93704,-0.790893 0.57732,-0.881115 0.0941,-1.61798 -1.29519,-1.975009 -0.61599,-0.1583 -1.23904,-0.321283 -1.38456,-0.362188 -0.14552,-0.0409 0.3419,-0.276013 1.08316,-0.522473 2.67633,-0.889793 10.75567,-1.214516 17.17309,-0.690245 1.74625,0.142664 5.73484,0.374889 8.86354,0.51607 6.79135,0.306414 10.07629,0.624417 13.62604,1.319107 2.51309,0.491807 4.83584,0.829733 11.77396,1.712939 1.67349,0.213042 4.45267,0.388832 6.17596,0.390684 2.72066,0.0029 3.09094,-0.04765 2.81188,-0.383884 -0.24667,-0.297207 -0.2491,-0.474345 -0.0106,-0.761789 0.18328,-0.220847 0.278,-1.007401 0.23082,-1.916694 -0.0768,-1.479286 -0.11234,-1.548368 -0.87376,-1.695953 l -0.79375,-0.153855 1.05834,-0.299006 c 3.53623,-0.999066 10.8857,-1.452615 24.07708,-1.485794 13.173,-0.03313 18.62492,0.184891 26.06146,1.042194 3.1287,0.36068 7.83167,0.887703 10.45104,1.171151 10.78087,1.166681 14.6966,1.977814 20.00983,4.144963 4.19904,1.712727 5.11712,1.977681 5.53032,1.596099 0.18391,-0.169836 0.26525,-0.184071 0.18077,-0.03164 -0.0921,0.166185 0.76615,0.528875 2.14399,0.906012 1.26368,0.345864 3.84541,1.160437 5.73718,1.810147 5.64107,1.937359 6.7877,2.223056 7.47294,1.862006 0.48234,-0.254133 1.27709,-0.174282 4.23333,0.42537 3.26168,0.661564 9.36813,2.168181 14.48748,3.574357 1.01864,0.27982 3.2213,0.8844 4.89479,1.34356 2.87538,0.78888 10.51613,2.9869 13.32569,3.83341 0.70794,0.21328 1.44594,0.3878 1.63999,0.3878 0.53205,0 10.15225,2.94415 11.62494,3.55767 0.43657,0.18187 1.86532,0.65339 3.17501,1.0478 1.30968,0.39441 2.61937,0.81706 2.91041,0.93924 0.29104,0.12216 1.77932,0.52266 3.30729,0.88998 1.52797,0.36732 3.13532,0.75518 3.57188,0.86191 0.43656,0.10673 1.03187,0.23738 1.32292,0.2903 0.29104,0.0529 1.18401,0.27109 1.98437,0.4848 0.80037,0.21373 3.18162,0.84886 5.29167,1.41144 2.11005,0.56259 4.01505,1.09194 4.23333,1.17631 0.21828,0.0844 1.28984,0.34404 2.38125,0.57701 2.15157,0.45929 5.51662,1.39292 8.86354,2.45919 1.16417,0.3709 2.12813,0.62601 2.14215,0.56695 0.014,-0.059 0.19262,0.0262 0.39687,0.18955 0.20426,0.16333 1.62156,0.67347 3.14952,1.13363 4.84918,1.46037 6.94773,2.08122 9.39271,2.77876 4.51213,1.28731 8.47291,2.5077 10.84792,3.34249 2.44692,0.86008 5.93169,1.86459 8.73125,2.51687 0.87313,0.20344 2.18281,0.56047 2.91042,0.79338 3.62214,1.15956 9.58061,2.6484 14.81666,3.70224 6.01949,1.2115 11.22138,2.45771 12.8323,3.07422 2.04163,0.78131 5.00695,2.63969 6.46424,4.05114 0.84733,0.82068 1.69286,1.43372 1.87894,1.36231 0.84249,-0.32329 2.08913,2.25092 1.81658,3.75103 -0.23524,1.29468 -1.28752,3.36065 -2.41028,4.73209 -1.32593,1.61965 -6.94758,7.11171 -11.86553,11.59198 -1.43761,1.30969 -3.15346,2.90722 -3.81296,3.55008 -0.65953,0.64288 -2.02988,1.95257 -3.04528,2.91041 -3.08901,2.91404 -3.69271,3.66559 -3.31245,4.12377 0.55854,0.67297 1.19666,0.44588 2.41864,-0.86082 0.64643,-0.69122 2.64083,-2.62289 4.43203,-4.29257 2.84753,-2.65438 3.37797,-3.04067 4.22191,-3.07452 0.53086,-0.0214 2.15611,-0.4654 3.61169,-0.98689 2.32707,-0.83373 4.57814,-1.47614 6.74622,-1.92522 0.3638,-0.0754 1.70198,-0.36808 2.97376,-0.65053 2.73483,-0.60735 5.87636,-0.66116 7.88471,-0.13507 2.66634,0.69842 6.07655,3.13418 6.07388,4.33822 -0.003,0.99388 -1.7568,3.05419 -3.96777,4.65913 -1.71804,1.24711 -4.358,2.97939 -5.55625,3.64587 -0.65484,0.36423 -1.78594,1.01103 -2.51354,1.43733 -2.18625,1.2809 -7.3002,3.56925 -8.73125,3.90699 -0.69853,0.16487 -4.00926,1.27987 -6.74688,2.27224 -4.89989,1.77623 -7.65627,2.50564 -15.4332,4.08409 -4.03566,0.81909 -9.03049,1.91053 -11.09958,2.42538 -2.0691,0.51485 -4.23826,1.04484 -4.82034,1.17777 -0.58209,0.1329 -3.02287,0.78279 -5.42396,1.4442 -4.63513,1.2768 -13.92981,3.69956 -15.1474,3.94835 -0.40018,0.0817 -1.05502,0.21405 -1.45521,0.29398 -0.40018,0.0799 -1.6801,0.37285 -2.84427,0.651 -1.16416,0.27813 -3.78354,0.86059 -5.82083,1.29435 -2.03729,0.43373 -5.6687,1.2764 -8.06979,1.87256 -3.80733,0.9453 -9.34487,2.19265 -11.37709,2.56273 -0.3638,0.0662 -1.43536,0.28178 -2.38125,0.47894 -1.75831,0.36653 -4.00701,0.80706 -5.42395,1.06257 -0.43657,0.0787 -2.5558,0.19735 -4.7094,0.26363 -2.15363,0.0662 -4.02154,0.1859 -4.15095,0.26588 -0.44415,0.27451 -0.04,1.14753 1.79602,3.87969 2.52736,3.76087 3.48983,5.91013 3.68403,8.22661 l 0.15632,1.86452 -1.16615,-0.1524 c -0.64138,-0.0838 -1.40425,-0.21889 -1.69529,-0.30017 -2.16585,-0.60484 -3.45094,-1.01666 -5.29167,-1.69579 -5.74889,-2.12111 -7.76078,-2.97371 -12.6874,-5.37671 -1.44828,-0.70641 -2.82345,-1.28439 -3.05594,-1.28439 -0.23249,0 -0.53581,-0.10589 -0.67405,-0.23532 -0.13825,-0.12943 -1.00055,-0.50443 -1.91628,-0.83331 -1.4818,-0.53223 -1.81641,-0.56467 -3.0427,-0.29514 -4.20172,0.92353 -8.22765,1.32848 -22.80905,2.29426 -1.16416,0.0771 -2.65244,0.19362 -3.30729,0.25889 -3.60569,0.35944 -6.35828,0.4771 -12.56771,0.53719 -7.99057,0.0773 -11.71651,0.26746 -15.21354,0.77631 -2.73621,0.39814 -6.60442,0.77936 -12.17083,1.19949 -1.96453,0.14827 -3.81,0.31435 -4.10105,0.36907 -0.29104,0.0547 -1.06494,0.18208 -1.71979,0.28305 -0.65484,0.10093 -2.61937,0.47805 -4.36562,0.83801 -1.74625,0.35999 -3.84173,0.7674 -4.65662,0.90538 -1.3893,0.23524 -7.12594,1.56265 -10.68922,2.4734 -2.65258,0.67797 -6.27433,1.50509 -7.67291,1.75231 -5.74755,1.01595 -10.46856,1.83626 -11.24479,1.95384 -0.50933,0.0772 -1.52136,0.25387 -2.24896,0.3927 -0.72761,0.13883 -1.8587,0.327 -2.51355,0.4182 -0.65484,0.0912 -4.70296,0.82023 -8.99583,1.6201 -9.17207,1.70899 -15.35774,3.11613 -26.52731,6.03448 -3.741,0.97745 -8.79414,1.97533 -10.77894,2.12863 -0.99282,0.0767 -2.33492,-0.014 -3.175,-0.21463 z M 342.996,95.981734 c -0.0879,-0.08792 -0.31613,-0.09731 -0.50713,-0.0209 -0.21106,0.08446 -0.14838,0.147161 0.15986,0.159861 0.2789,0.01138 0.43519,-0.05106 0.34727,-0.138985 z m -4.29398,-1.197398 c -1.89177,-0.58674 -3.47951,-1.176973 -3.52832,-1.311619 -0.0488,-0.134673 -0.17836,-0.189442 -0.28787,-0.121762 -0.10954,0.06768 -1.3793,-0.05315 -2.82167,-0.268552 -9.47005,-1.414198 -19.5248,-2.63353 -24.97985,-3.029294 -2.25557,-0.163644 -5.82744,-0.458073 -7.9375,-0.654288 -4.54956,-0.423016 -32.59037,-0.33139 -37.57083,0.122793 -2.86851,0.261567 -3.43927,0.329512 -5.66452,0.674344 l -0.90204,0.139779 0.39727,0.796343 c 0.26829,0.537792 0.53967,0.753269 0.8359,0.663681 0.67027,-0.202724 5.59339,-0.64217 9.43443,-0.842142 4.69577,-0.244475 29.36293,-0.254953 32.14688,-0.01376 1.23692,0.10721 3.26099,0.305753 4.49791,0.441246 1.23693,0.135467 3.43959,0.315198 4.8948,0.399415 1.4552,0.08419 3.00302,0.197855 3.43958,0.252545 0.43656,0.05469 1.62719,0.174387 2.64583,0.265985 1.74054,0.156528 6.29105,0.753931 15.21354,1.997287 2.11006,0.294058 5.44381,0.710671 7.40834,0.92583 1.96453,0.215159 3.75047,0.436668 3.96875,0.492257 0.21828,0.05559 0.81359,0.109062 1.32291,0.118825 0.60688,0.01164 -0.25947,-0.349938 -2.51354,-1.049047 z m -133.37514,134.111944 -0.50403,-0.59531 0.59531,0.50403 c 0.55944,0.47366 0.71575,0.68659 0.50404,0.68659 -0.0502,0 -0.31811,-0.26789 -0.59532,-0.59531 z m -1.19925,-1.19062 c -0.32909,-0.41966 -0.31975,-0.429 0.0999,-0.0999 0.44072,0.34565 0.58089,0.56293 0.36311,0.56293 -0.0549,0 -0.26328,-0.20836 -0.46302,-0.46302 z m -8.45293,-4.7625 -0.64143,-0.72761 0.7276,0.64143 c 0.40018,0.3528 0.72761,0.68022 0.72761,0.72761 0,0.20751 -0.21426,0.0386 -0.81378,-0.64143 z m -1.01743,-3.1309 c 0.0127,-0.30824 0.0754,-0.37092 0.15986,-0.15986 0.0764,0.191 0.067,0.41921 -0.0209,0.50713 -0.0879,0.0879 -0.15047,-0.0684 -0.13899,-0.34727 z m -3.25894,-0.56197 c 0.32912,-0.0633 0.80537,-0.0609 1.05834,0.005 0.25296,0.0662 -0.0163,0.118 -0.5984,0.11507 -0.58209,-0.003 -0.78906,-0.0571 -0.45994,-0.12041 z m 220.79764,-1.66495 c 0,-0.65484 0.0516,-0.92273 0.11465,-0.59531 0.0631,0.32742 0.0631,0.86321 0,1.19063 -0.063,0.32742 -0.11465,0.0595 -0.11465,-0.59532 z m -224.41786,-0.15433 c 0.0127,-0.30824 0.0754,-0.37092 0.15986,-0.15986 0.0764,0.191 0.067,0.41921 -0.0209,0.50713 -0.0879,0.0879 -0.15045,-0.0684 -0.13896,-0.34727 z m 123.22534,-1.87849 c 0.19101,-0.0764 0.41921,-0.067 0.50713,0.0209 0.0879,0.0879 -0.0684,0.15047 -0.34726,0.13898 -0.30824,-0.0127 -0.37092,-0.0754 -0.15987,-0.15986 z m 9.11662,-0.79636 c 0.25744,-0.0671 0.61463,-0.0627 0.79375,0.01 0.17915,0.0725 -0.0315,0.12735 -0.46805,0.12198 -0.43656,-0.005 -0.58311,-0.0647 -0.3257,-0.13179 z m 3.05422,-0.26197 c 0.191,-0.0764 0.4192,-0.067 0.50712,0.0209 0.0879,0.0879 -0.0684,0.15047 -0.34726,0.13899 -0.30824,-0.0127 -0.37092,-0.0754 -0.15986,-0.15986 z m 3.96875,-0.52917 c 0.191,-0.0764 0.4192,-0.067 0.50713,0.0209 0.0879,0.0879 -0.0684,0.15047 -0.34727,0.13898 -0.30824,-0.0127 -0.37092,-0.0754 -0.15986,-0.15986 z m 4.74596,-0.52366 c 0.1819,-0.0734 0.47956,-0.0734 0.66146,0 0.1819,0.0734 0.0331,0.13346 -0.33073,0.13346 -0.3638,0 -0.51263,-0.0601 -0.33073,-0.13346 z m 1.32292,0 c 0.1819,-0.0734 0.47956,-0.0734 0.66146,0 0.1819,0.0734 0.0331,0.13346 -0.33073,0.13346 -0.3638,0 -0.51263,-0.0601 -0.33073,-0.13346 z m 4.23333,-0.26458 c 0.1819,-0.0734 0.47956,-0.0734 0.66146,0 0.1819,0.0734 0.0331,0.13345 -0.33073,0.13345 -0.3638,0 -0.51263,-0.0601 -0.33073,-0.13345 z m 3.96875,0 c 0.1819,-0.0734 0.47956,-0.0734 0.66146,0 0.1819,0.0734 0.0331,0.13345 -0.33073,0.13345 -0.3638,0 -0.51263,-0.0601 -0.33073,-0.13345 z m 2.25259,-0.0146 c 0.40219,-0.0608 0.9975,-0.0592 1.32291,0.004 0.32544,0.0628 -0.004,0.11255 -0.73123,0.11057 -0.7276,-0.003 -0.99385,-0.0534 -0.59168,-0.11419 z m 2.90679,0.007 c 0.25466,-0.0666 0.67138,-0.0666 0.92604,0 0.25466,0.0665 0.0463,0.121 -0.46302,0.121 -0.50932,0 -0.71768,-0.0545 -0.46302,-0.121 z m 7.9375,-0.52916 c 0.25466,-0.0666 0.67138,-0.0666 0.92604,0 0.25466,0.0665 0.0463,0.12099 -0.46302,0.12099 -0.50932,0 -0.71768,-0.0545 -0.46302,-0.12099 z m -174.97576,-0.80981 -0.64144,-0.72761 0.72761,0.64143 c 0.40018,0.3528 0.7276,0.68022 0.7276,0.72761 0,0.20751 -0.21426,0.0386 -0.81377,-0.64143 z m 179.09334,0.54686 c 0.191,-0.0764 0.4192,-0.067 0.50712,0.0209 0.0879,0.0879 -0.0684,0.15047 -0.34726,0.13898 -0.30824,-0.0127 -0.37092,-0.0754 -0.15986,-0.15986 z m 3.56036,-0.2672 c 0.25744,-0.0671 0.61463,-0.0627 0.79375,0.01 0.17915,0.0725 -0.0315,0.12735 -0.46805,0.12197 -0.43656,-0.005 -0.58311,-0.0647 -0.3257,-0.13178 z m 3.56685,-0.25646 c 0.1819,-0.0734 0.47956,-0.0734 0.66146,0 0.1819,0.0734 0.0331,0.13346 -0.33073,0.13346 -0.3638,0 -0.51263,-0.0601 -0.33073,-0.13346 z m 3.44268,-0.27649 c 0.32911,-0.0633 0.80536,-0.0609 1.05833,0.005 0.25294,0.0662 -0.0164,0.11801 -0.59841,0.11507 -0.58208,-0.003 -0.78906,-0.0571 -0.45992,-0.12041 z m 38.37802,-5.54985 c 0.19101,-0.0764 0.41921,-0.067 0.50713,0.0209 0.0879,0.0879 -0.0684,0.15047 -0.34726,0.13898 -0.30824,-0.0127 -0.37092,-0.0754 -0.15987,-0.15986 z m 5.55625,-0.26458 c 0.19101,-0.0764 0.41921,-0.067 0.50713,0.0209 0.0879,0.0879 -0.0684,0.15047 -0.34726,0.13899 -0.30824,-0.0127 -0.37092,-0.0754 -0.15987,-0.15986 z m -246.0625,-0.52917 c 0.19099,-0.0764 0.4192,-0.067 0.50711,0.0209 0.0879,0.0879 -0.0683,0.15047 -0.34726,0.13898 -0.30823,-0.0127 -0.37092,-0.0754 -0.15985,-0.15986 z m -208.772798,-0.78824 c 0.181901,-0.0734 0.479557,-0.0734 0.661458,0 0.181901,0.0734 0.03307,0.13345 -0.330729,0.13345 -0.363802,0 -0.51263,-0.0601 -0.330729,-0.13345 z m -4.94005,-2.36035 c 0.0127,-0.30824 0.07539,-0.37092 0.159853,-0.15986 0.07643,0.191 0.06703,0.4192 -0.02089,0.50713 -0.08792,0.0879 -0.150453,-0.0684 -0.138965,-0.34727 z m 0.243696,-1.15297 c 0,-0.13693 0.117698,-0.32171 0.261552,-0.41061 0.149982,-0.0927 0.194339,0.0135 0.103985,0.24897 -0.175893,0.45837 -0.365537,0.54221 -0.365537,0.16164 z m 178.929522,-5.49064 c 0.25743,-0.0671 0.61462,-0.0627 0.79375,0.01 0.17913,0.0725 -0.0315,0.12735 -0.46806,0.12197 -0.43656,-0.005 -0.58312,-0.0647 -0.32569,-0.13178 z m 3.56684,-0.25646 c 0.1819,-0.0734 0.47956,-0.0734 0.66146,0 0.1819,0.0734 0.0331,0.13346 -0.33073,0.13346 -0.3638,0 -0.51263,-0.0601 -0.33073,-0.13346 z M -40.471045,188.15 l -0.504029,-0.59531 0.595313,0.50403 c 0.559445,0.47365 0.715761,0.68659 0.504028,0.68659 -0.05021,0 -0.318098,-0.26789 -0.595312,-0.59531 z m -0.350848,-4.05694 c 0.0127,-0.30824 0.07539,-0.37092 0.15985,-0.15986 0.07643,0.191 0.06703,0.41921 -0.02088,0.50713 -0.08792,0.0879 -0.150453,-0.0684 -0.138965,-0.34727 z m 73.935463,-0.9997 c -0.782016,-0.57182 -0.143508,-1.16588 2.860103,-2.66099 3.589639,-1.78681 4.307504,-1.95165 5.204381,-1.19502 0.363802,0.30694 0.507415,0.47794 0.31914,0.38002 -0.188277,-0.0979 -0.516022,-0.0339 -0.728321,0.14232 -0.212301,0.17619 -1.924621,1.06926 -3.805161,1.98459 -2.811775,1.36858 -3.49572,1.60824 -3.850142,1.34908 z m -69.193852,-2.55013 c -0.319291,-0.20635 -0.277447,-0.25728 0.214053,-0.26054 0.34067,-0.003 0.538589,0.11301 0.447405,0.26054 -0.196635,0.31816 -0.169137,0.31816 -0.661458,0 z m -1.322917,-3.01033 c 0,-0.0549 0.20836,-0.26328 0.463021,-0.46302 0.419645,-0.32908 0.429003,-0.31974 0.0999,0.0999 -0.345644,0.44072 -0.562917,0.58089 -0.562917,0.36311 z M 528.0114,172.7704 c 0,-0.0549 0.20836,-0.26328 0.46303,-0.46302 0.41965,-0.32908 0.42899,-0.31974 0.0999,0.0999 -0.34565,0.44072 -0.56293,0.58089 -0.56293,0.36311 z m -22.50064,-9.22665 c 1.09643,-1.16819 1.33398,-1.37824 1.33398,-1.17957 0,0.0425 -0.56555,0.60802 -1.25677,1.25677 l -1.25677,1.17957 z m -532.462917,-0.72761 c 0.08994,-0.14552 0.216027,-0.26458 0.280199,-0.26458 0.06417,0 0.116676,0.11906 0.116676,0.26458 0,0.14553 -0.12609,0.26459 -0.280199,0.26459 -0.154109,0 -0.206613,-0.11906 -0.116676,-0.26459 z m 536.310437,-2.91041 c 0.71665,-0.72761 1.36255,-1.32292 1.43531,-1.32292 0.0728,0 -0.45408,0.59531 -1.17073,1.32292 -0.71665,0.7276 -1.36255,1.32291 -1.43531,1.32291 -0.0728,0 0.45408,-0.59531 1.17073,-1.32291 z m 11.72435,0.61301 c 0.191,-0.0764 0.4192,-0.067 0.50713,0.0209 0.0879,0.0879 -0.0684,0.15047 -0.34727,0.13899 -0.30824,-0.0127 -0.37092,-0.0754 -0.15986,-0.15986 z M -20.3357,158.5863 c -0.09269,-0.14999 0.01352,-0.19436 0.248968,-0.104 0.458369,0.17589 0.542234,0.36554 0.16165,0.36554 -0.136933,0 -0.321713,-0.11768 -0.410618,-0.26154 z m -7.170762,-2.71502 -0.504028,-0.59531 0.595312,0.50403 c 0.327422,0.27721 0.595313,0.5451 0.595313,0.59531 0,0.21172 -0.212934,0.0554 -0.686597,-0.50403 z M 513.8562,155.40826 c 0.26339,-0.29104 0.53842,-0.52917 0.61118,-0.52917 0.0728,0 -0.0832,0.23813 -0.3466,0.52917 -0.26339,0.29104 -0.53843,0.52917 -0.61119,0.52917 -0.0728,0 0.0832,-0.23813 0.34661,-0.52917 z m -545.331412,-3.77031 -0.504028,-0.59531 0.595312,0.50403 c 0.327422,0.2772 0.595313,0.54509 0.595313,0.59531 0,0.21172 -0.212934,0.0554 -0.686597,-0.50403 z m 78.93712,-5.92992 c 0.181901,-0.0734 0.479558,-0.0734 0.661459,0 0.181901,0.0734 0.03307,0.13345 -0.330729,0.13345 -0.363803,0 -0.512631,-0.0601 -0.33073,-0.13345 z m -82.376703,-0.68466 -0.504029,-0.59532 0.595313,0.50403 c 0.327422,0.27721 0.595312,0.5451 0.595312,0.59532 0,0.21172 -0.212934,0.0554 -0.686596,-0.50403 z m 550.871015,-2.91042 -0.77711,-0.8599 0.8599,0.77711 c 0.47294,0.42741 0.85989,0.81436 0.85989,0.8599 0,0.20441 -0.2183,0.0243 -0.94268,-0.77711 z m -553.379445,-0.66146 -0.641432,-0.7276 0.727604,0.64143 c 0.680056,0.59952 0.848939,0.81378 0.641432,0.81378 -0.04739,0 -0.374814,-0.32743 -0.727604,-0.72761 z m 4.916691,-4.29644 c -0.09269,-0.14999 0.01352,-0.19436 0.248968,-0.104 0.458369,0.17589 0.542234,0.36555 0.16165,0.36555 -0.136933,0 -0.321712,-0.11769 -0.410618,-0.26155 z m -6.7267,-9.63567 c 0.209565,-0.2046 2.06689,-0.27287 2.256816,-0.0829 0.10482,0.10483 -0.384889,0.19058 -1.088239,0.19058 -0.70335,0 -1.229209,-0.0484 -1.168577,-0.10763 z m -3.31233,-4.31274 c -0.143584,-0.37708 -0.113194,-0.40745 0.148114,-0.14811 0.180821,0.17949 0.262115,0.39299 0.180652,0.47445 -0.08146,0.0814 -0.229407,-0.0654 -0.328766,-0.32634 z m 0.644448,-4.41078 c 0,-0.0549 0.20836,-0.26329 0.463021,-0.46303 0.419645,-0.32908 0.429004,-0.31974 0.0999,0.0999 -0.345643,0.44072 -0.562917,0.58089 -0.562917,0.36312 z m 11.840105,-2.98575 c 0.181901,-0.0734 0.479557,-0.0734 0.661458,0 0.181901,0.0734 0.03307,0.13346 -0.330729,0.13346 -0.363802,0 -0.51263,-0.0601 -0.330729,-0.13346 z"
         id="path288" />
      <path
         style="fill:#9a9a9a;stroke-width:0.264583"
         d="m 216.06764,234.13408 c -0.3638,-0.21471 -0.81777,-0.39463 -1.00883,-0.39979 -0.36957,-0.01 -1.43107,-0.48299 -5.87033,-2.61604 -2.59795,-1.24827 -3.75838,-2.10066 -6.5491,-4.81039 -0.53742,-0.52186 -1.39412,-0.97493 -2.28158,-1.20668 -4.00646,-1.04622 -5.66582,-2.61639 -5.49617,-5.20073 l 0.0478,-0.72761 h -2.47827 c -3.12353,0 -4.11529,-0.31585 -4.32778,-1.37829 -0.19226,-0.96131 -1.52534,-1.98109 -5.30029,-4.05471 -1.48787,-0.8173 -2.99104,-1.82568 -3.34038,-2.24084 -0.80014,-0.95091 -0.65799,-1.93627 0.39121,-2.712 0.41778,-0.30888 0.7596,-0.65482 0.7596,-0.7688 0,-0.58505 -5.68385,-1.75244 -13.89063,-2.85295 -9.92263,-1.33059 -14.14838,-2.65401 -23.78022,-7.44744 l -5.29172,-2.6335 -2.39736,0.15422 c -1.31855,0.0848 -2.64541,0.20373 -2.94858,0.26427 -0.45978,0.0918 -0.55122,-0.0206 -0.55122,-0.67765 0,-0.43326 0.01,-0.79352 0.022,-0.80058 0.0121,-0.007 1.20419,-0.10806 2.64904,-0.22445 3.27116,-0.2635 3.50454,-0.1955 9.31362,2.71315 2.49276,1.24812 5.17166,2.52317 5.95313,2.83342 2.56049,1.01653 8.16068,2.85911 9.16691,3.01612 0.54185,0.0846 1.16378,0.20632 1.38206,0.27056 0.21828,0.0643 3.42804,0.54605 7.1328,1.07061 3.70476,0.52459 6.80039,0.99338 6.87917,1.04174 0.0788,0.0484 0.79112,0.17005 1.58298,0.27036 1.71026,0.21664 4.51778,1.05214 5.90244,1.75654 1.55766,0.7924 1.31612,2.10592 -0.52916,2.87771 -1.23256,0.51554 -0.64625,1.28559 1.97867,2.59882 3.47499,1.7385 6.00144,3.62098 6.26409,4.66746 0.18846,0.75091 0.16716,0.74737 4.07561,0.6749 3.10657,-0.0576 3.2504,0.0474 3.04701,2.22538 -0.15343,1.64322 -0.14702,1.66349 0.73965,2.33969 0.49196,0.37515 1.7445,0.9176 2.78344,1.20547 2.24451,0.6219 2.80548,0.89934 3.44829,1.70561 0.26596,0.33356 0.75488,0.79441 1.08651,1.02412 0.3316,0.22968 1.13152,0.91305 1.77755,1.51855 1.10559,1.03626 3.42821,2.41043 4.07405,2.41043 0.16079,0 0.29232,0.11906 0.29232,0.26458 0,0.14553 0.21172,0.26459 0.47048,0.26459 0.25876,0 1.32834,0.41111 2.37686,0.9136 2.25221,1.07935 4.6519,1.57131 6.52057,1.33679 2.0079,-0.25199 7.47268,-1.37835 10.40686,-2.14498 11.16957,-2.91836 17.35524,-4.32549 26.52731,-6.03449 4.29287,-0.79986 8.34099,-1.52889 8.99583,-1.62009 0.65485,-0.0912 1.78594,-0.27938 2.51355,-0.4182 0.7276,-0.13883 1.73963,-0.31552 2.24895,-0.3927 0.77624,-0.11758 5.49725,-0.93789 11.2448,-1.95384 1.39858,-0.24723 5.02033,-1.07434 7.67291,-1.75231 3.56328,-0.91075 9.29992,-2.23816 10.68922,-2.4734 0.81489,-0.13798 2.91037,-0.54539 4.65662,-0.90538 1.74625,-0.35997 3.71078,-0.73708 4.36562,-0.83802 0.65485,-0.10096 1.42875,-0.2283 1.71979,-0.28305 0.29105,-0.0547 2.13652,-0.22079 4.10105,-0.36906 5.56641,-0.42014 9.43462,-0.80135 12.17083,-1.19949 3.49702,-0.50885 7.22297,-0.69898 15.21354,-0.77632 6.20943,-0.0601 8.96202,-0.17774 12.56771,-0.53718 0.65485,-0.0653 2.14313,-0.18177 3.30729,-0.2589 14.5814,-0.96578 18.60733,-1.37072 22.80905,-2.29425 1.22629,-0.26953 1.5609,-0.23709 3.0427,0.29514 0.91573,0.32888 1.77803,0.70387 1.91627,0.83331 0.13825,0.12943 0.44157,0.23532 0.67406,0.23532 0.23249,0 1.60766,0.57957 3.05593,1.28791 1.44828,0.70837 3.22856,1.55041 3.95616,1.87121 0.72761,0.32081 1.68011,0.74388 2.11667,0.94017 1.86669,0.83931 8.22671,3.19649 10.05416,3.72629 2.24089,0.64968 2.34763,0.67469 3.54738,0.83148 l 1.16615,0.1524 -0.15632,-1.86452 c -0.1942,-2.31648 -1.15667,-4.46574 -3.68403,-8.22661 -1.83602,-2.73217 -2.24017,-3.60519 -1.79602,-3.87969 0.12941,-0.08 1.99732,-0.19963 4.15095,-0.26588 2.1536,-0.0663 4.27283,-0.18492 4.70939,-0.26363 1.41695,-0.25551 3.66565,-0.69604 5.42396,-1.06257 0.94589,-0.19717 2.01745,-0.4127 2.38125,-0.47895 2.03222,-0.37007 7.56976,-1.61742 11.37709,-2.56272 2.40109,-0.59616 6.0325,-1.43884 8.06979,-1.87257 2.03729,-0.43375 4.65667,-1.01621 5.82083,-1.29434 1.16417,-0.27816 2.44409,-0.5711 2.84427,-0.65101 0.40019,-0.0799 1.05503,-0.21222 1.45521,-0.29397 1.21759,-0.24879 10.51227,-2.67156 15.1474,-3.94836 2.40109,-0.6614 4.84187,-1.3113 5.42396,-1.4442 0.58208,-0.13292 2.75124,-0.66291 4.82034,-1.17776 2.06909,-0.51486 7.06392,-1.60629 11.09958,-2.42539 7.77693,-1.57845 10.5333,-2.30785 15.4332,-4.08408 2.73762,-0.99237 6.04835,-2.10738 6.74688,-2.27224 1.43105,-0.33774 6.545,-2.62609 8.73125,-3.907 0.7276,-0.42629 1.8587,-1.07309 2.51354,-1.43732 1.19825,-0.66648 3.83821,-2.39876 5.55625,-3.64588 2.21096,-1.60493 3.96555,-3.66524 3.96777,-4.65912 0.003,-1.20404 -3.40754,-3.6398 -6.07388,-4.33822 -2.00835,-0.5261 -5.14988,-0.47228 -7.88472,0.13507 -1.27177,0.28244 -2.60995,0.57518 -2.97375,0.65053 -2.16808,0.44908 -4.41915,1.09149 -6.74622,1.92522 -1.45558,0.52149 -3.08083,0.96559 -3.61169,0.98689 -0.84394,0.0338 -1.37438,0.42013 -4.22191,3.07451 -1.7912,1.66968 -3.7856,3.60135 -4.43203,4.29258 -1.22198,1.3067 -1.8601,1.53379 -2.41864,0.86082 -0.38026,-0.45818 0.22344,-1.20973 3.31245,-4.12377 1.0154,-0.95784 2.38575,-2.26753 3.04528,-2.91042 0.6595,-0.64285 2.37535,-2.24038 3.81296,-3.55007 4.91795,-4.48027 10.5396,-9.97233 11.86553,-11.59198 1.12276,-1.37144 2.17504,-3.43741 2.41028,-4.7321 0.27255,-1.50011 -0.97409,-4.07432 -1.81658,-3.75102 -0.18608,0.0714 -1.03161,-0.54163 -1.87894,-1.36231 -1.45729,-1.41145 -4.42261,-3.26983 -6.46424,-4.05115 -1.61092,-0.6165 -6.81281,-1.86272 -12.8323,-3.07422 -5.23605,-1.05383 -11.19452,-2.54267 -14.81666,-3.70223 -0.72761,-0.23291 -2.03729,-0.58994 -2.91042,-0.79338 -2.79956,-0.65228 -6.28433,-1.6568 -8.73125,-2.51688 -2.37501,-0.83478 -6.33579,-2.05517 -10.84792,-3.34248 -2.44499,-0.69755 -4.54353,-1.31839 -9.39271,-2.77876 -1.52796,-0.46016 -2.94526,-0.9703 -3.14952,-1.13363 -0.20425,-0.1633 -0.44238,-0.26789 -0.52916,-0.23238 -0.0868,0.0355 -1.05074,-0.21961 -2.14215,-0.56695 -3.23114,-1.02828 -6.61278,-1.96414 -8.73125,-2.41636 -1.09141,-0.23297 -2.16297,-0.49261 -2.38125,-0.57701 -0.21828,-0.0844 -2.12328,-0.61373 -4.23333,-1.17631 -2.11006,-0.56258 -4.49131,-1.19771 -5.29167,-1.41144 -0.80036,-0.21371 -1.69333,-0.43186 -1.98437,-0.4848 -0.29105,-0.0529 -0.88636,-0.18357 -1.32292,-0.2903 -0.43656,-0.10673 -2.04391,-0.49459 -3.57188,-0.86191 -1.52797,-0.36732 -3.01625,-0.76782 -3.30729,-0.88998 -0.29104,-0.12218 -1.60073,-0.54483 -2.91042,-0.93924 -1.30968,-0.39442 -2.73843,-0.86593 -3.175,-1.0478 -1.47269,-0.61352 -11.09289,-3.55767 -11.62494,-3.55767 -0.19405,0 -0.93205,-0.17452 -1.63999,-0.3878 -2.80956,-0.84651 -10.45031,-3.04454 -13.32569,-3.83342 -1.67349,-0.45915 -3.87615,-1.06373 -4.89479,-1.34355 -5.11935,-1.406182 -11.2258,-2.912799 -14.48748,-3.574363 -2.95624,-0.599652 -3.75099,-0.679503 -4.23333,-0.425371 -0.68524,0.361051 -1.83187,0.07535 -7.47294,-1.862005 -1.89177,-0.649711 -4.4735,-1.464283 -5.73718,-1.810147 -1.26367,-0.34589 -2.2389,-0.72382 -2.1672,-0.839867 0.26718,-0.432276 2.19139,-0.179202 7.35754,0.96774 2.92012,0.648282 6.73809,1.424385 8.48434,1.724634 3.8876,0.66847 8.59237,1.659519 11.24479,2.368656 1.0914,0.291782 3.53219,0.94017 5.42396,1.440841 4.07709,1.079052 8.02891,2.177842 15.74271,4.377212 3.12869,0.89207 6.34338,1.79867 7.14375,2.01467 3.54478,0.95666 6.32012,1.80531 11.50937,3.51933 5.72852,1.89212 6.73381,2.17498 16.13959,4.5412 12.8606,3.23538 17.65212,4.52964 20.90208,5.64605 1.89177,0.64985 4.33255,1.44045 5.42396,1.75689 1.0914,0.31644 2.28203,0.68466 2.64583,0.81828 0.3638,0.13361 1.97115,0.59293 3.57188,1.02068 3.0889,0.82542 10.42061,3.09869 14.81666,4.59406 1.45521,0.49501 3.30068,1.05278 4.10105,1.23952 1.40946,0.32886 4.06217,1.04693 11.24479,3.04388 3.45853,0.96155 7.29509,1.83636 9.26041,2.11153 1.20127,0.1682 2.82427,0.52517 8.43939,1.85626 4.02683,0.9546 7.21665,2.23645 9.53582,3.8321 0.64358,0.44278 1.4295,0.80507 1.74647,0.80507 0.62137,0 2.35283,1.69974 3.77327,3.70417 0.7543,1.06439 0.84392,1.38697 0.84524,3.04271 0.003,3.771 -1.62822,5.87838 -12.56623,16.23414 -1.00364,0.95025 -1.24994,1.29469 -0.79375,1.11003 1.50829,-0.61047 7.31123,-2.18455 10.87052,-2.9487 3.28972,-0.70628 4.17748,-0.80039 6.45969,-0.68492 3.07798,0.15576 4.55089,0.66989 7.43956,2.59688 1.48254,0.98901 1.97628,1.48876 2.32031,2.34863 0.79063,1.97596 -0.16338,3.87143 -3.14528,6.24919 -0.87313,0.69623 -1.64704,1.3321 -1.7198,1.41304 -0.61838,0.68799 -5.50222,3.60227 -9.34003,5.57339 -3.22011,1.65388 -4.14454,2.02719 -10.23913,4.13475 -8.67543,3.00006 -11.39786,3.78111 -17.4625,5.00997 -10.17143,2.06097 -18.26022,3.96748 -24.07709,5.67488 -3.70692,1.0881 -9.34207,2.5808 -10.98021,2.90857 -0.7276,0.14557 -1.97776,0.43392 -2.77812,0.64074 -2.75304,0.71147 -8.34044,1.97035 -11.77396,2.65277 -1.89177,0.376 -4.57068,0.983 -5.95313,1.34892 -8.84716,2.34167 -20.73915,4.56957 -24.70808,4.62894 -1.86606,0.0279 -2.544,0.128 -2.544,0.37555 0,0.1856 0.5356,1.09495 1.1902,2.02075 0.65463,0.92583 1.69394,2.69534 2.30958,3.93227 0.98583,1.9807 1.13098,2.50566 1.21692,4.40081 0.15174,3.34709 -0.4736,3.99376 -3.25641,3.36738 -4.25323,-0.95737 -11.48924,-3.74306 -18.65821,-7.18296 -3.59111,-1.72315 -6.65072,-2.95688 -7.34578,-2.96204 -0.32938,-0.003 -0.80563,0.10158 -1.05834,0.23117 -0.55396,0.28406 -6.60659,1.11871 -9.19067,1.26738 -1.01865,0.0586 -4.1738,0.27644 -7.01146,0.48406 -2.83765,0.20761 -6.35,0.44592 -7.80521,0.52959 -1.45521,0.0837 -3.00302,0.20306 -3.43958,0.26537 -1.72151,0.24572 -6.15812,0.42066 -13.36146,0.52687 -8.11128,0.11956 -9.87145,0.22029 -13.75833,0.78742 -2.23467,0.32605 -5.28588,0.61836 -11.2448,1.07733 -3.13041,0.24112 -4.41105,0.39521 -6.74687,0.81183 -5.13575,0.91601 -12.96784,2.55968 -16.99578,3.56676 -5.93016,1.48273 -8.30598,2.00925 -11.8438,2.62483 -1.67349,0.29117 -3.57849,0.64323 -4.23334,0.78232 -0.65484,0.13909 -1.60734,0.31112 -2.11666,0.38224 -2.23685,0.31245 -12.39005,2.05775 -13.22917,2.27407 -0.84109,0.2168 -4.28276,0.84955 -6.61459,1.21608 -1.33527,0.20989 -4.35737,0.81648 -6.35,1.27455 -0.94588,0.21743 -2.79135,0.63106 -4.10104,0.91916 -1.30969,0.28811 -5.72137,1.35832 -9.80379,2.37826 -11.10393,2.77418 -16.48071,3.62323 -17.84517,2.81792 z M -43.552409,204.2318 c -3.620626,-0.73443 -3.822834,-3.24864 -0.429715,-5.34297 l 1.627827,-1.00476 -0.856257,-0.17512 c -1.435119,-0.29353 -1.457355,-0.51607 -0.296781,-2.97048 0.592378,-1.25278 1.077053,-2.44891 1.077053,-2.65809 0,-0.20917 0.235968,-0.93083 0.524375,-1.60366 0.368062,-0.85863 0.764521,-1.32429 1.32997,-1.56202 0.765802,-0.322 0.782159,-0.35994 0.331142,-0.76811 -0.40183,-0.36365 -0.464087,-0.80468 -0.406754,-2.8815 0.08225,-2.97921 0.238754,-3.18558 2.991895,-3.9456 2.255996,-0.62275 2.91732,-1.04436 1.559838,-0.99444 -1.267402,0.0466 -2.097747,-0.26725 -2.093672,-0.79139 0.0019,-0.24485 0.60203,-1.33816 1.333616,-2.42957 0.731587,-1.0914 1.507268,-2.59185 1.72374,-3.33433 0.393898,-1.35104 1.064826,-1.95477 2.177153,-1.95908 0.653407,-0.003 1.885474,-0.88101 2.461964,-1.75543 0.678603,-1.02931 0.616667,-2.3957 -0.166212,-3.66678 -1.216554,-1.97519 -0.715594,-2.71777 2.107899,-3.12454 1.100024,-0.15846 2.000046,-0.38349 2.000046,-0.50001 0,-0.11655 -0.119062,-0.21191 -0.264583,-0.21191 -0.145521,0 -0.264583,-0.17058 -0.264583,-0.37904 0,-0.20847 -0.227127,-0.45114 -0.504725,-0.53925 -0.669213,-0.21241 -0.836438,-0.71821 -0.423942,-1.28233 0.349414,-0.47786 3.178054,-1.09122 6.484917,-1.4062 0.945885,-0.0901 1.755883,-0.19487 1.799995,-0.23284 0.07284,-0.0627 -0.828715,-0.34454 -5.239579,-1.63819 -1.890763,-0.55454 -2.551059,-1.16999 -2.761607,-2.574 -0.155919,-1.03976 -0.254532,-1.15647 -1.221928,-1.44632 -1.929331,-0.57803 -3.967313,-2.96344 -3.522398,-4.12287 0.199126,-0.51893 1.141529,-1.00176 2.869364,-1.47016 l 1.316556,-0.35689 -2.840905,-0.71271 c -1.562497,-0.39198 -3.037441,-0.875 -3.277651,-1.07334 -0.240212,-0.19835 -0.936238,-1.13456 -1.546727,-2.08044 -0.610487,-0.94589 -1.365105,-1.94659 -1.676924,-2.22382 -0.556461,-0.4947 -0.747922,-1.61986 -0.364459,-2.14181 0.484196,-0.65905 1.189324,-0.97329 2.492373,-1.11077 0.773401,-0.0816 1.941962,-0.22778 2.596806,-0.32488 l 1.190625,-0.17653 -3.042708,-1.0119 c -4.972736,-1.65375 -4.971527,-1.6528 -5.538145,-4.38737 -0.135686,-0.65485 -0.390578,-1.70546 -0.566425,-2.33466 -0.463484,-1.65844 -0.01939,-2.02848 2.330286,-1.94173 1.056954,0.039 1.679053,-0.03 1.523552,-0.16909 -0.452027,-0.40428 -4.370877,-2.69827 -4.609512,-2.69827 -0.254572,0 -0.659776,-0.80394 -0.580811,-1.15234 0.02821,-0.12446 -0.08829,-0.39445 -0.258876,-0.6 -0.451086,-0.54353 -0.107847,-2.87136 0.562112,-3.81225 1.675157,-2.35254 7.526068,-3.7797 12.980343,-3.16619 3.261095,0.36679 8.268822,2.08092 15.456435,5.29066 0.291041,0.12997 2.434166,1.09117 4.7624999,2.13601 5.9300376,2.66107 8.79389568,3.85993 16.6687506,6.97775 6.8120185,2.697 10.8115235,4.34872 13.6260425,5.62726 0.800364,0.3636 2.348177,1.0077 3.439583,1.43132 1.091406,0.42365 2.283368,0.93681 2.648805,1.14041 0.365437,0.20357 1.615593,0.74099 2.778125,1.19425 1.162531,0.45323 2.35182,0.93758 2.642862,1.07632 0.291042,0.13875 2.136511,0.85858 4.101042,1.59965 1.964531,0.74107 4.464844,1.78218 5.55625,2.31362 1.802887,0.87786 2.190062,0.96679 4.233334,0.97208 5.466066,0.014 13.337733,-1.77149 15.512084,-3.51885 1.199862,-0.96422 10.272269,-4.70297 12.054671,-4.96774 0.627296,-0.0932 1.2596,-0.30832 1.405121,-0.4781 0.14552,-0.16979 1.871927,-0.87953 3.836458,-1.57724 1.964531,-0.69768 6.072188,-2.20337 9.128125,-3.346 3.055938,-1.1426 6.211094,-2.27737 7.011459,-2.52169 2.345986,-0.71612 11.725574,-3.8328 12.303124,-4.0881 0.29104,-0.12867 1.77932,-0.65093 3.30729,-1.1606 2.74534,-0.91575 10.2842,-3.53253 13.36146,-4.63782 2.53412,-0.91022 7.26666,-2.07944 9.68109,-2.39178 4.50353,-0.58264 4.41443,-0.57643 3.68037,-0.25697 -0.3638,0.1583 -0.84005,0.32864 -1.05833,0.37854 -0.21828,0.0499 -1.28985,0.3995 -2.38125,0.77695 -1.09141,0.37745 -2.93688,0.97779 -4.10104,1.33414 -1.16417,0.35634 -4.20027,1.37953 -6.74688,2.2738 -2.54661,0.89424 -5.64224,1.96194 -6.87917,2.37268 -1.23692,0.41071 -3.97536,1.35712 -6.08541,2.10314 -2.11006,0.74602 -6.81302,2.34664 -10.45105,3.55693 -3.638017,1.21031 -8.10286,2.76085 -9.921871,3.44567 -1.81901,0.68482 -3.843073,1.41943 -4.497917,1.6325 -0.654844,0.21307 -1.42875,0.48816 -1.719791,0.61132 -0.291042,0.12319 -1.481667,0.54414 -2.645834,0.93546 -1.164167,0.39135 -2.354792,0.8164 -2.645833,0.94457 -0.291042,0.12819 -2.136511,0.75816 -4.101042,1.39991 -5.313077,1.73566 -7.871318,2.80241 -8.012137,3.34089 -0.07455,0.28509 -0.488447,0.53403 -1.068983,0.64294 -0.521028,0.0977 -1.875848,0.64275 -3.010707,1.21113 -2.141593,1.07257 -6.667159,2.49658 -9.047062,2.84676 -0.754052,0.11093 -1.33667,0.27852 -1.294704,0.37237 0.04197,0.0939 -0.158761,0.4304 -0.446056,0.74787 -0.477517,0.52763 -0.693274,0.5634 -2.513542,0.41677 -1.095152,-0.0882 -2.467435,-0.27307 -3.049518,-0.41082 -0.582084,-0.13771 -1.951303,-0.26207 -3.042709,-0.27633 -1.091406,-0.0143 -2.520156,-0.11083 -3.175,-0.2146 -1.096605,-0.17378 -1.133771,-0.20381 -0.470657,-0.38039 0.395981,-0.10544 0.85565,-0.44522 1.021482,-0.7551 0.263221,-0.49183 0.180629,-0.67413 -0.650266,-1.43533 -0.907254,-0.83114 -1.878621,-1.12173 -3.780634,-1.13097 -0.923285,-0.004 -6.261764,-2.02869 -10.407426,-3.94623 -0.945885,-0.43751 -2.969948,-1.30043 -4.497916,-1.91759 -1.527969,-0.61717 -3.552032,-1.47696 -4.497917,-1.91064 -0.945886,-0.43368 -2.315104,-1.01703 -3.042709,-1.29635 -0.727604,-0.2793 -1.561041,-0.61675 -1.852083,-0.74988 -0.291042,-0.13314 -2.255573,-0.91004 -4.3656252,-1.72644 -6.485369,-2.50931 -13.301618,-5.38162 -17.5947923,-7.41431 -1.4296705,-0.67691 -5.6364325,-2.48417 -9.6572925,-4.14885 -1.382447,-0.57235 -3.763698,-1.46611 -5.291666,-1.98615 -2.67965,-0.91199 -2.918804,-0.94631 -6.746876,-0.968 -3.449441,-0.0196 -4.227962,0.058 -5.949754,0.59272 -2.484485,0.77157 -3.350768,1.38337 -3.724378,2.63038 -0.436671,1.45748 -0.03707,2.66956 1.086839,3.29668 6.622781,3.69528 6.73521,3.76925 6.73521,4.43251 v 0.65331 l -3.099044,-0.0576 -3.09904,-0.0576 0.261948,0.68897 c 0.144073,0.37894 0.328369,1.11922 0.409546,1.64508 0.315573,2.04417 0.41266,2.1137 5.200097,3.72435 4.497583,1.51315 5.423024,2.0129 5.131954,2.77143 -0.246867,0.64331 -1.224426,0.90554 -4.612096,1.2372 -1.707081,0.16711 -3.210779,0.40121 -3.341552,0.52019 -0.135054,0.1229 0.129775,0.63498 0.613023,1.18536 0.46794,0.53295 1.095854,1.47341 1.395365,2.08989 0.44572,0.91742 0.766684,1.19899 1.768227,1.5512 1.657342,0.58283 3.4583,0.9607 5.986156,1.25598 3.863525,0.45133 4.227846,0.5833 4.057136,1.46971 -0.104984,0.54514 -0.600387,0.7217 -3.263386,1.16308 -2.772074,0.45945 -4.894792,1.08347 -4.894792,1.43894 0,0.56165 1.153927,1.41448 2.687875,1.98646 1.634927,0.60965 2.139794,1.045 2.063462,1.77932 -0.130371,1.25413 0.03345,1.69138 0.738767,1.97184 1.167696,0.46431 5.021046,1.54757 7.710271,2.16749 2.734506,0.63037 3.469328,1.17507 2.536492,1.88018 -0.28783,0.21757 -0.880513,0.40021 -1.317075,0.4059 -0.436563,0.006 -2.562871,0.24757 -4.725128,0.53758 -2.162257,0.28998 -4.037491,0.52726 -4.167187,0.52726 -0.617408,0 -0.127691,0.52295 0.756377,0.80772 1.272456,0.40984 1.653646,0.72216 1.653646,1.35485 0,0.697 -1.27594,1.18822 -3.709014,1.42788 -1.088742,0.10726 -2.248294,0.26686 -2.576785,0.35467 l -0.597257,0.15965 0.663403,0.97629 c 0.898064,1.32162 0.897908,3.02353 -5.29e-4,4.55639 -0.896679,1.53008 -1.469708,2.00168 -3.104743,2.55519 -1.184627,0.40103 -1.412674,0.58803 -1.552829,1.27333 -0.09035,0.44178 -0.646115,1.5717 -1.235022,2.51098 -0.588905,0.93924 -1.013786,1.76466 -0.944179,1.83427 0.06961,0.0696 1.048287,0.0789 2.174846,0.0206 2.342999,-0.12105 3.13323,0.20661 2.8268,1.17208 -0.122174,0.38494 -0.397589,0.57515 -0.832778,0.57515 -0.35763,0 -1.450933,0.40267 -2.429566,0.89485 -0.978633,0.49215 -2.518259,1.10169 -3.421391,1.35453 l -1.642057,0.45969 0.05456,1.96799 0.05456,1.96803 1.719792,-0.0353 c 2.754606,-0.0566 2.690593,-0.0735 2.597261,0.68717 -0.09164,0.74695 -1.146908,1.30625 -3.945718,2.09127 -1.477312,0.41434 -1.48186,0.41883 -1.959269,1.92968 -0.479742,1.51826 -1.03397,2.92844 -1.521163,3.87046 -0.246269,0.47617 -0.173787,0.49491 1.313841,0.33941 3.00623,-0.31422 2.982193,1.23563 -0.04322,2.78649 -1.747787,0.89606 -3.849957,2.37934 -3.849957,2.71666 0,1.20139 3.372157,1.71217 8.008382,1.21298 3.930256,-0.42315 7.054543,-1.24098 14.745785,-3.8599 1.964531,-0.66892 3.750469,-1.26331 3.96875,-1.32083 0.218281,-0.0575 1.944688,-0.62793 3.836459,-1.26759 6.0383683,-2.04168 13.031494,-4.12311 15.21354188,-4.52816 0.36380212,-0.0675 2.55072632,-0.67146 4.85982982,-1.34204 2.3091035,-0.67062 5.4642603,-1.5199 7.0114583,-1.88736 1.547199,-0.36745 3.988803,-1.02629 5.42579,-1.46415 1.436986,-0.43783 2.806205,-0.83791 3.042708,-0.88908 1.560936,-0.33766 6.217688,-2.1641 9.465493,-3.7125 1.359525,-0.64815 2.543135,-1.17845 2.630242,-1.17845 0.08711,0 1.427017,-0.63082 2.977576,-1.40184 4.706411,-2.34027 7.123067,-3.052 7.860136,-2.31492 0.159583,0.15957 0.979376,0.14951 2.235729,-0.0274 4.320926,-0.60857 11.265612,0.86172 13.970958,2.9578 0.392033,0.30377 1.229881,0.91138 1.861878,1.35027 0.632,0.4389 1.093346,0.85374 1.025216,0.92187 -0.141862,0.14187 -2.092264,-0.54912 -3.152018,-1.11668 -1.374545,-0.73612 -4.224637,-1.70034 -6.570846,-2.22295 -2.763591,-0.61558 -6.478818,-0.67331 -9.649357,-0.14996 -2.000536,0.33022 -2.157881,0.32027 -2.867858,-0.18111 -0.948894,-0.67016 -1.761845,-0.45757 -5.401842,1.41256 -2.406886,1.23661 -3.246478,1.91209 -2.858652,2.29991 0.19957,0.19958 -2.005973,1.32152 -5.408107,2.75106 -3.890989,1.63494 -7.47581,2.74632 -15.213542,4.71654 -2.764896,0.70403 -5.5628648,1.45693 -6.2177086,1.67312 -0.6548438,0.21622 -2.6789064,0.76994 -4.4979168,1.23053 -6.09078,1.54217 -12.1336336,3.41122 -21.4312506,6.62863 -4.866667,1.68407 -9.784999,3.15217 -13.338184,3.98129 -2.790952,0.65127 -8,0.84683 -10.273527,0.38566 z m 130.647032,-6.17017 c -0.323644,-0.32363 0.881766,-0.8324 1.973016,-0.83274 1.02194,0 1.116611,0.0425 0.668205,0.30255 -0.616402,0.35742 -2.446602,0.72482 -2.641221,0.53019 z m -7.21622,-0.23881 c 0.257432,-0.0671 0.614619,-0.0627 0.79375,0.01 0.179131,0.0725 -0.03149,0.12735 -0.468056,0.12197 -0.436562,-0.005 -0.583126,-0.0647 -0.325694,-0.13178 z M 77.46218,197.2918 c -0.830516,-0.29353 -1.053224,-0.47212 -0.79375,-0.6365 0.644956,-0.40863 1.40883,-0.23398 1.894372,0.43314 0.544102,0.74758 0.475194,0.76031 -1.100622,0.20336 z m 36.86595,-1.67857 c -0.12926,-0.20912 1.9385,-0.65876 2.13338,-0.46389 0.0584,0.0584 -0.36912,0.23299 -0.94997,0.38801 -0.58085,0.15505 -1.11339,0.1892 -1.18341,0.0759 z m 10.59055,-1.04473 c 0.50549,-0.21905 2.4564,-0.36925 2.22691,-0.17148 -0.0606,0.0523 -0.70555,0.16383 -1.43316,0.24792 -0.8511,0.0983 -1.13419,0.0711 -0.79375,-0.0764 z m -51.990625,-2.26547 c -1.967219,-1.21473 -2.38125,-1.52138 -2.38125,-1.76361 0,-0.41529 1.101447,-0.19012 1.877814,0.38386 0.647721,0.4789 2.329712,2.37636 2.038255,2.29936 -0.04379,-0.0116 -0.734454,-0.42537 -1.534819,-0.91961 z m -4.497917,-4.80946 c -1.496409,-0.49234 -3.394914,-1.37189 -3.568935,-1.65346 -0.07276,-0.11774 0.363812,-0.26136 0.970153,-0.31917 0.959895,-0.0915 1.276146,0.0296 2.445922,0.93655 2.211501,1.71473 2.211292,1.71331 0.15286,1.03608 z m 74.433022,-73.03011 c -0.0446,-0.68678 0.0728,-0.76568 2.11667,-1.4233 1.94285,-0.62513 2.21034,-0.65542 2.619,-0.29683 0.40593,0.35618 0.54898,0.35573 1.32292,-0.004 0.47727,-0.22196 2.07141,-0.71114 3.54253,-1.08709 1.47112,-0.37597 4.38815,-1.26989 6.48229,-1.98652 6.85266,-2.34503 8.04386,-2.65835 18.35961,-4.82944 3.18582,-0.67051 5.797,-1.10273 9.92188,-1.6424 0.50932,-0.0666 1.46182,-0.20135 2.11667,-0.29935 1.67387,-0.25056 15.37999,-2.88983 20.76979,-3.999494 8.83325,-1.818587 12.55456,-2.544974 23.01875,-4.49326 0.58208,-0.108373 1.1774,-0.227515 1.32292,-0.264715 0.14552,-0.03723 1.39567,-0.256143 2.77812,-0.486463 1.38245,-0.230346 3.28745,-0.578194 4.23333,-0.773033 1.08368,-0.223203 2.06233,-0.274558 2.64584,-0.138827 0.50932,0.11848 1.43206,0.218255 2.05052,0.221721 1.65235,0.0093 1.3693,0.413173 -0.52917,0.755094 -0.9095,0.163804 -2.54661,0.480007 -3.63802,0.702681 -1.09141,0.222673 -4.24656,0.820816 -7.01146,1.32924 -2.76489,0.508423 -5.32474,0.982054 -5.68854,1.052486 -0.3638,0.07046 -1.25677,0.243866 -1.98437,0.385392 -0.72761,0.141499 -1.76597,0.320569 -2.30749,0.397933 -0.54149,0.07739 -2.08931,0.376529 -3.43958,0.664792 -1.35025,0.288237 -2.81221,0.586899 -3.24877,0.663681 -0.43656,0.07676 -1.92484,0.381476 -3.30729,0.677122 -3.38063,0.72295 -8.94173,1.85497 -9.92188,2.0197 -0.43656,0.0734 -1.62718,0.30874 -2.64583,0.52302 -5.85017,1.23069 -11.55707,2.23777 -16.96949,2.99453 -2.20269,0.30798 -5.6555,0.90535 -7.67291,1.32747 -7.36954,1.54204 -14.7969,3.19072 -15.44198,3.4277 -0.3638,0.13367 -2.50692,0.68279 -4.7625,1.22026 -2.25557,0.53748 -5.64885,1.44841 -7.54062,2.02428 -1.89177,0.57586 -3.61818,1.08865 -3.83646,1.1395 -0.21828,0.0509 -0.91786,0.28014 -1.55462,0.50946 -1.56503,0.56367 -1.7451,0.53255 -1.79986,-0.31115 z M 342.48887,95.960858 c 0.191,-0.07644 0.41921,-0.06705 0.50713,0.0209 0.0879,0.08792 -0.0684,0.150469 -0.34727,0.138986 -0.30824,-0.0127 -0.37092,-0.07541 -0.15986,-0.159861 z m -2.59622,-0.2463 c -0.21828,-0.05559 -2.00422,-0.277098 -3.96875,-0.492258 -1.96453,-0.215159 -5.29828,-0.631772 -7.40834,-0.92583 -8.92249,-1.243356 -13.473,-1.840759 -15.21354,-1.997286 -1.01864,-0.0916 -2.20927,-0.211296 -2.64583,-0.265986 -0.43656,-0.05469 -1.98438,-0.168354 -3.43958,-0.252545 -1.45521,-0.08422 -3.65787,-0.263948 -4.8948,-0.399415 -1.23692,-0.135493 -3.26099,-0.334036 -4.49791,-0.441245 -2.78395,-0.241327 -27.45111,-0.230849 -32.14688,0.01376 -3.84104,0.199972 -8.76416,0.639419 -9.43443,0.842142 -0.29623,0.08959 -0.56761,-0.125888 -0.8359,-0.66368 l -0.39727,-0.796343 0.90204,-0.13978 c 2.22525,-0.344831 2.79601,-0.412776 5.66452,-0.674343 4.98046,-0.454184 33.02127,-0.545809 37.57083,-0.122793 2.11006,0.196215 5.68193,0.490643 7.9375,0.654288 5.5421,0.402087 16.4963,1.736116 25.00313,3.044931 2.93391,0.451405 10.66718,2.770584 9.12812,2.737485 -0.50932,-0.01085 -1.10463,-0.06538 -1.32291,-0.120968 z M 251.4839,91.058394 c 0.99306,-0.180631 1.50389,-0.171239 1.70656,0.03143 0.20931,0.209312 -0.18254,0.280591 -1.41729,0.257837 l -1.70657,-0.03143 z"
         id="path286" />
    </g>
  </g>
</svg>
