<?xml version="1.0" encoding="UTF-8" standalone="no"?>
<svg
   xmlns:dc="http://purl.org/dc/elements/1.1/"
   xmlns:cc="http://creativecommons.org/ns#"
   xmlns:rdf="http://www.w3.org/1999/02/22-rdf-syntax-ns#"
   xmlns:svg="http://www.w3.org/2000/svg"
   xmlns="http://www.w3.org/2000/svg"
   xmlns:sodipodi="http://sodipodi.sourceforge.net/DTD/sodipodi-0.dtd"
   xmlns:inkscape="http://www.inkscape.org/namespaces/inkscape"
   width="579.27039mm"
   height="150.72241mm"
   viewBox="0 0 579.27039 150.72241"
   version="1.1"
   id="svg8"
   inkscape:version="1.0.1 (3bc2e813f5, 2020-09-07)"
   sodipodi:docname="lieu-icone.svg">
  <defs
     id="defs2" />
  <sodipodi:namedview
     id="base"
     pagecolor="#ffffff"
     bordercolor="#666666"
     borderopacity="1.0"
     inkscape:pageopacity="0.0"
     inkscape:pageshadow="2"
     inkscape:zoom="0.175"
     inkscape:cx="577.00756"
     inkscape:cy="463.60319"
     inkscape:document-units="mm"
     inkscape:current-layer="layer1"
     inkscape:document-rotation="0"
     showgrid="false"
     inkscape:window-width="1425"
     inkscape:window-height="1080"
     inkscape:window-x="2315"
     inkscape:window-y="102"
     inkscape:window-maximized="0" />
  <metadata
     id="metadata5">
    <rdf:RDF>
      <cc:Work
         rdf:about="">
        <dc:format>image/svg+xml</dc:format>
        <dc:type
           rdf:resource="http://purl.org/dc/dcmitype/StillImage" />
        <dc:title></dc:title>
      </cc:Work>
    </rdf:RDF>
  </metadata>
  <g
     inkscape:label="Calque 1"
     inkscape:groupmode="layer"
     id="layer1"
     transform="translate(-72.071935,-15.290692)">
    <g
       id="g276"
       transform="translate(-8.8856169e-8,13.607147)">
      <path
         style="fill:#cececd;stroke-width:0.264583"
         d="m 321.52074,144.59599 c -0.32909,-0.41966 -0.31975,-0.429 0.0999,-0.0999 0.44072,0.34565 0.58089,0.56293 0.36311,0.56293 -0.0549,0 -0.26328,-0.20836 -0.46302,-0.46302 z m -8.11675,-6.81302 c 0.005,-0.43657 0.0647,-0.58312 0.13179,-0.32571 0.0671,0.25744 0.0627,0.61463 -0.01,0.79375 -0.0725,0.17915 -0.12735,-0.0315 -0.12198,-0.46804 z m 218.03183,-2.38125 c 0.003,-0.58209 0.0571,-0.78907 0.12041,-0.45993 0.0633,0.32912 0.0609,0.80537 -0.005,1.05833 -0.0662,0.25295 -0.118,-0.0164 -0.11507,-0.5984 z m -224.94168,-0.022 c 0.0127,-0.30824 0.0754,-0.37092 0.15985,-0.15987 0.0764,0.19101 0.067,0.41921 -0.0209,0.50713 -0.0879,0.0879 -0.15046,-0.0684 -0.13897,-0.34726 z m -8.99583,-7.40834 c 0.0127,-0.30824 0.0754,-0.37092 0.15985,-0.15986 0.0764,0.191 0.067,0.41921 -0.0209,0.50713 -0.0879,0.0879 -0.15045,-0.0684 -0.13896,-0.34727 z m 229.3023,-3.84725 c 0.1795,-0.18082 0.39299,-0.26212 0.47445,-0.18066 0.0814,0.0815 -0.0654,0.22942 -0.32633,0.32877 -0.37709,0.14359 -0.40746,0.11319 -0.14812,-0.14811 z M 73.076995,121.31265 c -0.329107,-0.41965 -0.319749,-0.42899 0.0999,-0.0999 0.440729,0.34565 0.580887,0.56292 0.363126,0.56292 -0.05494,0 -0.263302,-0.20835 -0.463021,-0.46302 z m -1.003696,-1.54339 c 0.01269,-0.30824 0.07539,-0.37092 0.159852,-0.15986 0.07643,0.191 0.06703,0.4192 -0.02089,0.50713 -0.08792,0.0879 -0.150453,-0.0684 -0.138965,-0.34727 z m 171.312081,-7.22932 c -0.0815,-0.13194 0.09,-0.17761 0.38126,-0.10144 0.61779,0.16156 0.69589,0.34134 0.14827,0.34134 -0.2097,0 -0.44798,-0.10795 -0.52953,-0.2399 z M 77.924825,101.53505 c 0.0054,-0.43656 0.06469,-0.58312 0.131773,-0.3257 0.06708,0.25744 0.06267,0.61462 -0.0098,0.79375 -0.07248,0.17915 -0.127362,-0.0315 -0.12197,-0.46805 z m 5.769253,-11.344698 c 0,-0.05493 0.208359,-0.263287 0.463021,-0.463021 0.419645,-0.329089 0.429003,-0.319749 0.0999,0.09991 -0.345644,0.440717 -0.562917,0.580893 -0.562917,0.363115 z M 626.75139,79.442342 c 0.26339,-0.291042 0.53843,-0.529167 0.61119,-0.529167 0.0728,0 -0.0832,0.238125 -0.34661,0.529167 -0.26339,0.291041 -0.53842,0.529166 -0.61119,0.529166 -0.0728,0 0.0832,-0.238125 0.34661,-0.529166 z M 96.394078,76.430484 c 0,-0.0558 0.294053,-0.157665 0.653452,-0.226378 0.359397,-0.06869 0.590498,-0.02302 0.513551,0.101468 -0.135487,0.219207 -1.167003,0.329618 -1.167003,0.12491 z M 166.97477,63.115619 c 0.32912,-0.06329 0.80537,-0.06088 1.05833,0.0053 0.25297,0.06622 -0.0163,0.118004 -0.59839,0.115068 -0.58209,-0.0029 -0.78906,-0.05712 -0.45994,-0.120412 z m 467.0189,-4.773798 c -0.32909,-0.419656 -0.31975,-0.428996 0.0999,-0.09991 0.25466,0.199734 0.46302,0.408094 0.46302,0.463021 0,0.217779 -0.21728,0.0776 -0.56293,-0.363114 z M 84.752411,54.996694 c 0,-0.0572 0.178594,-0.172509 0.396875,-0.256276 0.218282,-0.08377 0.396875,-0.03699 0.396875,0.103982 0,0.140943 -0.178593,0.256275 -0.396875,0.256275 -0.218281,0 -0.396875,-0.0468 -0.396875,-0.103981 z M 79.130015,44.859792 c 0.327422,-0.06308 0.863203,-0.06308 1.190625,0 0.327422,0.06305 0.05953,0.114644 -0.595312,0.114644 -0.654844,0 -0.922735,-0.05159 -0.595313,-0.114644 z M 214.07061,40.096869 c 0.32911,-0.06329 0.80536,-0.06088 1.05833,0.0053 0.25296,0.06623 -0.0163,0.118004 -0.5984,0.115068 -0.58208,-0.0029 -0.78905,-0.05712 -0.45993,-0.120412 z m 4.75941,-0.252677 c 0.1819,-0.0734 0.47956,-0.0734 0.66146,0 0.1819,0.07339 0.0331,0.133455 -0.33073,0.133455 -0.3638,0 -0.51263,-0.06006 -0.33073,-0.133455 z M 86.41404,33.210029 c 0.695616,-0.05466 1.767178,-0.05403 2.38125,0.0026 0.614074,0.05548 0.04493,0.100224 -1.264754,0.0994 -1.309687,0 -1.81211,-0.0462 -1.116496,-0.100886 z m 166.56377,-0.515091 c 0.19099,-0.07644 0.4192,-0.06705 0.50712,0.0209 0.0879,0.08792 -0.0684,0.150469 -0.34727,0.138986 -0.30823,-0.0127 -0.37092,-0.07541 -0.15985,-0.159861 z m 2.38125,-0.264583 c 0.19099,-0.07644 0.4192,-0.06705 0.50712,0.0209 0.0879,0.08792 -0.0684,0.150469 -0.34727,0.138986 -0.30823,-0.0127 -0.37092,-0.07541 -0.15985,-0.159862 z m 109.5375,-23.8125 c 0.191,-0.076438 0.41921,-0.067045 0.50713,0.020902 0.0879,0.087921 -0.0684,0.1504685 -0.34727,0.1389856 -0.30824,-0.0127 -0.37092,-0.075406 -0.15986,-0.1598612 z M 313.10871,8.1150938 c 0.0127,-0.3082396 0.0754,-0.3709194 0.15986,-0.1598613 0.0764,0.1910027 0.067,0.4192059 -0.0209,0.5071269 -0.0879,0.087921 -0.15047,-0.068368 -0.13898,-0.3472656 z m 49.67119,0.2381779 c 0.191,-0.076438 0.4192,-0.067045 0.50712,0.020902 0.0879,0.087921 -0.0684,0.1504685 -0.34726,0.1389856 -0.30824,-0.0127 -0.37092,-0.075406 -0.15986,-0.1598613 z m 8.51627,-0.1837531 c 0,-0.054927 0.20836,-0.2632869 0.46302,-0.4630209 0.41966,-0.3290887 0.429,-0.3197489 0.0999,0.099907 -0.34565,0.4407165 -0.56293,0.5808927 -0.56293,0.3631142 z M 354.84239,7.2949384 c 0.19101,-0.076438 0.41921,-0.067046 0.50713,0.020902 0.0879,0.087921 -0.0684,0.1504686 -0.34726,0.1389857 -0.30824,-0.0127 -0.37092,-0.075406 -0.15987,-0.1598613 z m -7.9375,-1.3229167 c 0.19101,-0.076438 0.41921,-0.067045 0.50713,0.020902 0.0879,0.087921 -0.0684,0.1504685 -0.34726,0.1389856 -0.30824,-0.0127 -0.37092,-0.075406 -0.15987,-0.1598612 z m -3.19153,-0.25908 c 0.1819,-0.073395 0.47956,-0.073395 0.66146,0 0.1819,0.073395 0.0331,0.1334558 -0.33073,0.1334558 -0.3638,0 -0.51263,-0.06006 -0.33073,-0.1334558 z M 338.15711,5.429864 c 0.61846,-0.055695 1.63049,-0.055695 2.24896,0 0.61846,0.055695 0.11244,0.1012825 -1.12448,0.1012825 -1.23693,0 -1.74295,-0.045588 -1.12448,-0.1012825 z m -4.88977,-0.2542117 c 0.25744,-0.067072 0.61463,-0.06268 0.79375,0.00979 0.17915,0.072469 -0.0315,0.127344 -0.46804,0.1219729 -0.43657,-0.00529 -0.58312,-0.064691 -0.32571,-0.1317889 z M 314.09656,4.9136884 c 0.191,-0.076438 0.41921,-0.067045 0.50713,0.020902 0.0879,0.087921 -0.0684,0.1504685 -0.34727,0.1389856 -0.30824,-0.0127 -0.37092,-0.075406 -0.15986,-0.1598613 z m 15.59698,-0.00635 c 0.32911,-0.063288 0.80536,-0.060881 1.05833,0.00529 0.25294,0.066225 -0.0164,0.1180042 -0.59841,0.1150673 -0.58208,-0.00291 -0.78907,-0.057123 -0.45992,-0.1204118 z M 317.78419,4.6384952 c 0.47294,-0.058685 1.24685,-0.058685 1.71979,0 0.47294,0.058685 0.086,0.1067065 -0.85989,0.1067065 -0.94589,0 -1.33284,-0.048022 -0.8599,-0.1067065 z m 8.06979,0.009 c 0.25466,-0.066569 0.67138,-0.066569 0.92604,0 0.25467,0.066543 0.0463,0.1209939 -0.46302,0.1209939 -0.50932,0 -0.71768,-0.054451 -0.46302,-0.1209939 z M 433.14253,4.3900515 c 0.1819,-0.073395 0.47956,-0.073395 0.66146,0 0.1819,0.073395 0.0331,0.1334558 -0.33073,0.1334558 -0.36381,0 -0.51263,-0.06006 -0.33073,-0.1334558 z m -2.6293,-0.2700867 c 0.191,-0.076438 0.41921,-0.067045 0.50713,0.020902 0.0879,0.087921 -0.0684,0.1504686 -0.34727,0.1389856 -0.30824,-0.0127 -0.37092,-0.075406 -0.15986,-0.1598612 z m -2.38125,-0.2645833 c 0.191,-0.076438 0.41921,-0.067045 0.50713,0.020902 0.0879,0.087921 -0.0684,0.1504685 -0.34727,0.1389856 -0.30824,-0.0127 -0.37092,-0.075406 -0.15986,-0.1598612 z m -4.23333,-0.5291667 c 0.191,-0.076438 0.4192,-0.067045 0.50712,0.020902 0.0879,0.087921 -0.0684,0.1504686 -0.34726,0.1389856 -0.30824,-0.0127 -0.37092,-0.075406 -0.15986,-0.1598612 z M 421.5174,3.0616315 c 0.191,-0.076438 0.4192,-0.067045 0.50712,0.020902 0.0879,0.087921 -0.0684,0.1504685 -0.34726,0.1389856 -0.30824,-0.0127 -0.37092,-0.075406 -0.15986,-0.1598612 z M 375.74448,2.7970482 c 0.191,-0.076438 0.4192,-0.067045 0.50713,0.020902 0.0879,0.087921 -0.0684,0.1504685 -0.34727,0.1389856 -0.30824,-0.0127 -0.37092,-0.075406 -0.15986,-0.1598613 z m 43.11055,0.00556 c 0.1819,-0.073395 0.47955,-0.073395 0.66146,0 0.1819,0.073395 0.0331,0.1334559 -0.33073,0.1334559 -0.36381,0 -0.51263,-0.06006 -0.33073,-0.1334559 z m -40.60852,-0.272706 c 0.25744,-0.067072 0.61463,-0.06268 0.79375,0.00979 0.17915,0.072469 -0.0315,0.1273439 -0.46805,0.1219729 -0.43656,-0.00529 -0.58311,-0.064691 -0.3257,-0.131789 z m 37.43661,-0.0037 c 0.32912,-0.063288 0.80537,-0.060881 1.05834,0.00529 0.25294,0.066225 -0.0164,0.1180041 -0.59841,0.1150673 -0.58209,-0.00291 -0.78907,-0.057124 -0.45993,-0.1204119 z M 382.86579,2.2578009 c 0.46969,-0.058447 1.30313,-0.059425 1.85209,-0.00265 0.54895,0.057282 0.16465,0.1050925 -0.854,0.1062832 -1.01865,0 -1.46778,-0.045694 -0.99809,-0.10414 z m 28.18765,0 c 0.4022,-0.060801 0.99751,-0.059187 1.32292,0.0037 0.32544,0.062786 -0.004,0.1125538 -0.73123,0.1105694 -0.7276,-0.00265 -0.99385,-0.053366 -0.59169,-0.1141941 z M 389.48937,1.9959428 c 0.32912,-0.063288 0.80537,-0.060881 1.05834,0.00529 0.25294,0.066225 -0.0164,0.1180042 -0.59841,0.1150673 -0.58209,-0.00291 -0.78907,-0.057124 -0.45993,-0.1204119 z m 13.49952,-0.0082 c 0.76888,-0.053605 1.9595,-0.053049 2.64583,0 0.68636,0.054319 0.0573,0.098187 -1.39792,0.097499 -1.45521,0 -2.01676,-0.045138 -1.24791,-0.098742 z m -8.60782,-0.2587361 c 0.40018,-0.060616 1.05502,-0.060616 1.45521,0 0.40018,0.060643 0.0728,0.1102254 -0.72761,0.1102254 -0.80036,0 -1.12778,-0.049583 -0.7276,-0.1102254 z"
         id="path290" />
      <path
         style="fill:#b1b1b0;stroke-width:0.264583"
         d="m 336.96648,152.28496 c 0.25466,-0.0666 0.67138,-0.0666 0.92604,0 0.25467,0.0665 0.0463,0.121 -0.46302,0.121 -0.50932,0 -0.71768,-0.0545 -0.46302,-0.121 z m 192.23634,-14.02127 c 0.191,-0.0764 0.4192,-0.067 0.50712,0.0209 0.0879,0.0879 -0.0684,0.15047 -0.34726,0.13899 -0.30824,-0.0127 -0.37092,-0.0754 -0.15986,-0.15987 z m -218.95925,-1.05998 c 0.25466,-0.0666 0.67138,-0.0666 0.92604,0 0.25466,0.0666 0.0463,0.121 -0.46302,0.121 -0.50933,0 -0.71769,-0.0545 -0.46302,-0.121 z m 121.57604,-3.9616 c 0.1819,-0.0734 0.47956,-0.0734 0.66146,0 0.1819,0.0734 0.0331,0.13345 -0.33073,0.13345 -0.3638,0 -0.51263,-0.0601 -0.33073,-0.13345 z m 2.38125,-0.26459 c 0.1819,-0.0734 0.47956,-0.0734 0.66146,0 0.1819,0.0734 0.0331,0.13346 -0.33073,0.13346 -0.3638,0 -0.51263,-0.0601 -0.33073,-0.13346 z m 4.23333,-0.27606 c 0.32743,-0.0631 0.86321,-0.0631 1.19063,0 0.32742,0.0631 0.0595,0.11464 -0.59531,0.11464 -0.65485,0 -0.92274,-0.0516 -0.59532,-0.11464 z m 3.45612,-0.25861 c 0.19101,-0.0764 0.41921,-0.067 0.50713,0.0209 0.0879,0.0879 -0.0684,0.15047 -0.34726,0.13898 -0.30824,-0.0127 -0.37092,-0.0754 -0.15987,-0.15986 z m 8.98404,-1.06934 c 0.47556,-0.0589 1.18993,-0.0577 1.5875,0.003 0.39759,0.0603 0.008,0.10853 -0.86463,0.10705 -0.87313,-0.003 -1.19841,-0.0509 -0.72287,-0.10975 z m 4.62547,-0.25521 c 0.25466,-0.0666 0.67138,-0.0666 0.92604,0 0.25466,0.0665 0.0463,0.12099 -0.46302,0.12099 -0.50932,0 -0.71768,-0.0545 -0.46302,-0.12099 z m 6.36101,-0.014 c 0.98832,-0.051 2.53613,-0.0507 3.43958,0 0.90345,0.0515 0.0948,0.0933 -1.79694,0.0928 -1.89177,0 -2.63097,-0.0426 -1.64264,-0.0937 z m 7.93152,-0.25148 c 0.25744,-0.0671 0.61463,-0.0627 0.79375,0.01 0.17915,0.0725 -0.0315,0.12734 -0.46805,0.12197 -0.43656,-0.005 -0.58312,-0.0647 -0.3257,-0.13179 z m 3.30536,-0.26837 c 0.32911,-0.0633 0.80536,-0.0609 1.05833,0.005 0.25294,0.0662 -0.0164,0.11801 -0.59841,0.11507 -0.58208,-0.003 -0.78906,-0.0571 -0.45992,-0.12041 z m 3.56878,-0.25982 c 0.25466,-0.0666 0.67138,-0.0666 0.92604,0 0.25466,0.0665 0.0463,0.12099 -0.46302,0.12099 -0.50932,0 -0.71768,-0.0545 -0.46302,-0.12099 z m 3.83955,-0.26935 c 0.32912,-0.0633 0.80537,-0.0609 1.05834,0.005 0.25294,0.0662 -0.0164,0.118 -0.59841,0.11506 -0.58209,-0.003 -0.78907,-0.0571 -0.45993,-0.12041 z m 3.83839,-0.2608 c 0.25744,-0.0671 0.61463,-0.0627 0.79375,0.01 0.17915,0.0725 -0.0315,0.12735 -0.46805,0.12198 -0.43656,-0.005 -0.58311,-0.0647 -0.3257,-0.13179 z m 3.16997,-0.27074 c 0.40019,-0.0606 1.05503,-0.0606 1.45521,0 0.40019,0.0606 0.0728,0.11022 -0.7276,0.11022 -0.80037,0 -1.12779,-0.0496 -0.72761,-0.11022 z m 4.49792,-0.25744 c 0.25466,-0.0666 0.67138,-0.0666 0.92604,0 0.25466,0.0665 0.0463,0.12099 -0.46302,0.12099 -0.50932,0 -0.71768,-0.0545 -0.46302,-0.12099 z m 9.12371,-1.43796 c 0.17949,-0.18082 0.39298,-0.26212 0.47445,-0.18066 0.0814,0.0815 -0.0654,0.22942 -0.32634,0.32877 -0.37708,0.14359 -0.40746,0.11319 -0.14811,-0.14811 z m 30.30424,-4.11927 c 0.25744,-0.0671 0.61462,-0.0627 0.79375,0.01 0.17915,0.0725 -0.0315,0.12734 -0.46805,0.12197 -0.43656,-0.005 -0.58312,-0.0647 -0.3257,-0.13179 z M 288.16739,123.4471 c 0.191,-0.0764 0.4192,-0.067 0.50712,0.0209 0.0879,0.0879 -0.0684,0.15046 -0.34726,0.13898 -0.30823,-0.0127 -0.37092,-0.0754 -0.15986,-0.15986 z m -1.85208,-0.26458 c 0.19099,-0.0764 0.4192,-0.067 0.50712,0.0209 0.0879,0.0879 -0.0684,0.15047 -0.34727,0.13899 -0.30822,-0.0127 -0.37092,-0.0754 -0.15985,-0.15986 z M 77.815967,122.37411 c 0.768864,-0.0536 1.959489,-0.053 2.645834,0 0.686345,0.0543 0.05728,0.0982 -1.397932,0.0975 -1.455208,0 -2.016765,-0.0451 -1.247902,-0.0987 z m 5.563918,-0.24995 c 0.190995,-0.0764 0.419198,-0.0671 0.507119,0.0209 0.08792,0.0879 -0.06835,0.15047 -0.347265,0.13899 -0.308227,-0.0127 -0.37092,-0.0754 -0.159854,-0.15987 z M 250.9769,113.39121 c 0.25466,-0.0666 0.67138,-0.0666 0.92604,0 0.25466,0.0665 0.0463,0.121 -0.46302,0.121 -0.50933,0 -0.71769,-0.0545 -0.46302,-0.121 z m 3.57496,-0.26934 c 0.32911,-0.0633 0.80536,-0.0609 1.05833,0.005 0.25297,0.0662 -0.0163,0.118 -0.5984,0.11507 -0.58208,-0.003 -0.78905,-0.0571 -0.45993,-0.12041 z m -58.72405,-1.31652 c 0.19099,-0.0764 0.4192,-0.067 0.50711,0.0209 0.0879,0.0879 -0.0684,0.15047 -0.34726,0.13898 -0.30823,-0.0127 -0.37092,-0.0754 -0.15985,-0.15986 z m 43.6428,-0.53556 c 0.32911,-0.0633 0.80536,-0.0609 1.05833,0.005 0.25296,0.0662 -0.0163,0.118 -0.5984,0.11506 -0.58208,-0.003 -0.78905,-0.0571 -0.45993,-0.12041 z m -56.2932,-8.01495 c 0,-0.14552 0.12609,-0.26458 0.2802,-0.26458 0.15411,0 0.20662,0.11906 0.11668,0.26458 -0.0899,0.14552 -0.21603,0.26458 -0.2802,0.26458 -0.0642,0 -0.11668,-0.11906 -0.11668,-0.26458 z M 82.056968,98.311605 c 0.190995,-0.07644 0.419198,-0.06705 0.507119,0.0209 0.08792,0.08792 -0.06835,0.150468 -0.347265,0.138985 -0.308227,-0.0127 -0.37092,-0.07541 -0.159854,-0.159861 z M 162.4903,97.253271 c 0.191,-0.07644 0.41921,-0.06704 0.50712,0.0209 0.0879,0.08792 -0.0684,0.150469 -0.34726,0.138986 -0.30823,-0.0127 -0.37092,-0.07541 -0.15986,-0.159861 z m 4.48139,-0.523663 c 0.1819,-0.0734 0.47955,-0.0734 0.66145,0 0.1819,0.0734 0.0331,0.133456 -0.33073,0.133456 -0.3638,0 -0.51263,-0.06006 -0.33072,-0.133456 z m 1.32291,0 c 0.1819,-0.0734 0.47956,-0.0734 0.66146,0 0.1819,0.0734 0.0331,0.133456 -0.33073,0.133456 -0.3638,0 -0.51263,-0.06006 -0.33073,-0.133456 z M 86.096217,67.117177 c 0.0127,-0.30824 0.07539,-0.370919 0.159851,-0.159861 0.07643,0.191002 0.06703,0.419205 -0.02088,0.507127 -0.08792,0.08792 -0.150453,-0.06837 -0.138965,-0.347266 z M 237.88002,37.727525 c 0.1819,-0.07339 0.47956,-0.07339 0.66146,0 0.1819,0.07339 0.0331,0.133456 -0.33073,0.133456 -0.3638,0 -0.51263,-0.06006 -0.33073,-0.133456 z M 401.14448,2.0032717 c 0.191,-0.076438 0.41921,-0.067045 0.50713,0.020902 0.0879,0.087921 -0.0684,0.1504685 -0.34727,0.1389856 -0.30824,-0.0127 -0.37092,-0.075406 -0.15986,-0.1598612 z"
         id="path288" />
      <path
         style="fill:#8f8f8e;stroke-width:0.264583"
         d="m 323.65114,146.18349 -0.64143,-0.72761 0.72761,0.64143 c 0.40018,0.3528 0.7276,0.68022 0.7276,0.72761 0,0.20751 -0.21426,0.0386 -0.81378,-0.64143 z m -25.41372,-16.66875 c -0.32911,-0.41966 -0.31975,-0.429 0.0999,-0.0999 0.44073,0.34565 0.58089,0.56293 0.36313,0.56293 -0.0549,0 -0.2633,-0.20836 -0.46302,-0.46302 z m 230.14921,-5.81335 c 0.46969,-0.0584 1.30313,-0.0594 1.85208,-0.003 0.54896,0.0573 0.16465,0.10509 -0.85399,0.10628 -1.01865,0 -1.46778,-0.0457 -0.99809,-0.10414 z m 95.85122,-41.977705 c 0,-0.05493 0.20836,-0.263287 0.46302,-0.463021 0.41965,-0.329089 0.42899,-0.319749 0.0999,0.09991 -0.34565,0.440716 -0.56292,0.580893 -0.56292,0.363114 z m 10.82789,-22.058947 -0.64143,-0.727605 0.7276,0.64143 c 0.68006,0.599519 0.84894,0.813779 0.64143,0.813779 -0.0474,0 -0.37481,-0.327422 -0.7276,-0.727604 z M 196.8696,49.898358 c 0.1819,-0.0734 0.47956,-0.0734 0.66146,0 0.1819,0.0734 0.0331,0.133456 -0.33073,0.133456 -0.3638,0 -0.51263,-0.06006 -0.33073,-0.133456 z m 1.38907,-1.512173 c 0,-0.05493 0.20835,-0.263287 0.46302,-0.463021 0.41964,-0.329088 0.429,-0.319749 0.0999,0.09991 -0.34564,0.440716 -0.56291,0.580893 -0.56291,0.363114 z m 38.84414,-10.664163 c 0.19099,-0.07644 0.4192,-0.06705 0.50712,0.0209 0.0879,0.08792 -0.0684,0.150468 -0.34727,0.138985 -0.30823,-0.0127 -0.37092,-0.07541 -0.15985,-0.159861 z m 1.37252,-1.508205 c 0,-0.05577 0.23829,-0.16375 0.52954,-0.239897 0.29124,-0.07617 0.4628,-0.03051 0.38125,0.101441 -0.14241,0.230425 -0.91079,0.347239 -0.91079,0.138456 z M 372.1108,6.7921771 c 0.0127,-0.3082396 0.0754,-0.3709194 0.15986,-0.1598612 0.0764,0.1910027 0.067,0.4192058 -0.0209,0.5071268 -0.0879,0.087921 -0.15047,-0.068368 -0.13899,-0.3472656 z m 0,-1.5875 c 0.0127,-0.3082396 0.0754,-0.3709194 0.15986,-0.1598612 0.0764,0.1910027 0.067,0.4192058 -0.0209,0.5071268 -0.0879,0.087921 -0.15047,-0.068368 -0.13899,-0.3472656 z"
         id="path286" />
      <path
         style="fill:#5f5e5c;stroke-width:0.264583"
         d="m 320.72699,143.53765 c -0.32909,-0.41965 -0.31975,-0.42899 0.0999,-0.0999 0.44072,0.34565 0.58089,0.56292 0.36311,0.56292 -0.0549,0 -0.26328,-0.20835 -0.46302,-0.46302 z m -6.35,-2.91041 c -0.32909,-0.41966 -0.31975,-0.429 0.0999,-0.0999 0.44072,0.34565 0.58089,0.56293 0.36311,0.56293 -0.0549,0 -0.26328,-0.20836 -0.46302,-0.46302 z m 122.48624,-7.9198 c 0.191,-0.0764 0.41921,-0.067 0.50713,0.0209 0.0879,0.0879 -0.0684,0.15047 -0.34727,0.13899 -0.30824,-0.0127 -0.37092,-0.0754 -0.15986,-0.15987 z m 62.70625,-4.49792 c 0.19101,-0.0764 0.41921,-0.067 0.50713,0.0209 0.0879,0.0879 -0.0684,0.15047 -0.34727,0.13899 -0.30823,-0.0127 -0.37091,-0.0754 -0.15986,-0.15986 z M 194.25616,111.52307 c -0.33589,-0.42831 -0.32343,-0.43392 0.16605,-0.0749 0.29104,0.2135 0.57877,0.42186 0.63941,0.46302 0.0606,0.0412 -0.0141,0.0749 -0.16604,0.0749 -0.15196,0 -0.43969,-0.20836 -0.63942,-0.46302 z m -3.72002,-3.68647 c 0.19099,-0.0764 0.4192,-0.067 0.50712,0.0209 0.0879,0.0879 -0.0684,0.15047 -0.34727,0.13898 -0.30822,-0.0127 -0.37092,-0.0754 -0.15985,-0.15986 z M 78.287129,105.97822 c -0.143584,-0.37708 -0.113194,-0.40745 0.148114,-0.14811 0.180822,0.17949 0.262115,0.39299 0.180652,0.47445 -0.08146,0.0814 -0.229407,-0.0654 -0.328766,-0.32634 z m -0.107526,-2.72338 c 0,-0.3638 0.06006,-0.51263 0.133453,-0.33073 0.0734,0.1819 0.0734,0.47956 0,0.66146 -0.0734,0.1819 -0.133453,0.0331 -0.133453,-0.33073 z M 625.42847,80.500675 c 0.26339,-0.291042 0.53843,-0.529167 0.61119,-0.529167 0.0728,0 -0.0832,0.238125 -0.3466,0.529167 -0.2634,0.291042 -0.53843,0.529167 -0.61119,0.529167 -0.0728,0 0.0832,-0.238125 0.3466,-0.529167 z m 3.96875,-3.704167 c 0.2634,-0.291041 0.53843,-0.529166 0.61119,-0.529166 0.0728,0 -0.0832,0.238125 -0.3466,0.529166 -0.2634,0.291042 -0.53843,0.529167 -0.61119,0.529167 -0.0728,0 0.0832,-0.238125 0.3466,-0.529167 z m 2.51354,-2.464038 c 0,-0.04554 0.38696,-0.432488 0.8599,-0.859896 l 0.8599,-0.777107 -0.77711,0.859895 c -0.72438,0.801556 -0.94269,0.981525 -0.94269,0.777108 z M 90.858717,71.615094 c 0.0127,-0.30824 0.07539,-0.37092 0.159851,-0.159862 0.07643,0.191003 0.06703,0.419206 -0.02088,0.507127 -0.08792,0.08792 -0.150453,-0.06837 -0.138964,-0.347265 z M 81.808244,59.664738 c -0.329107,-0.419656 -0.319749,-0.428996 0.0999,-0.09991 0.44073,0.345652 0.580888,0.562927 0.363125,0.562927 -0.05494,0 -0.2633,-0.208359 -0.463021,-0.46302 z M 199.26739,47.511605 c 0.19099,-0.07644 0.4192,-0.06705 0.50712,0.0209 0.0879,0.08792 -0.0683,0.150469 -0.34727,0.138986 -0.30822,-0.0127 -0.37092,-0.07541 -0.15985,-0.159862 z m 1.37253,-1.431528 c 0,-0.131895 0.23812,-0.239819 0.52916,-0.239819 0.29104,0 0.52917,0.04564 0.52917,0.101442 0,0.05577 -0.23813,0.163697 -0.52917,0.239792 -0.29104,0.07612 -0.52916,0.03048 -0.52916,-0.101415 z m 2.71561,-1.7526 c 0.40219,-0.0608 0.9975,-0.05919 1.32292,0.0037 0.32542,0.06279 -0.004,0.112554 -0.73124,0.110569 -0.72761,-0.0026 -0.99386,-0.05337 -0.59168,-0.114194 z m 22.08907,-3.954119 c 0.1819,-0.0734 0.47956,-0.0734 0.66146,0 0.1819,0.0734 0.0331,0.133456 -0.33073,0.133456 -0.3638,0 -0.51263,-0.06006 -0.33073,-0.133456 z m -8.99583,-0.264583 c 0.1819,-0.0734 0.47956,-0.0734 0.66146,0 0.1819,0.07339 0.0331,0.133456 -0.33073,0.133456 -0.3638,0 -0.51263,-0.06006 -0.33073,-0.133456 z m 6.61458,0 c 0.1819,-0.0734 0.47956,-0.0734 0.66146,0 0.1819,0.07339 0.0331,0.133456 -0.33073,0.133456 -0.3638,0 -0.51263,-0.06006 -0.33073,-0.133456 z m -2.10013,-0.270087 c 0.191,-0.07644 0.4192,-0.06705 0.50712,0.0209 0.0879,0.08792 -0.0683,0.150469 -0.34726,0.138986 -0.30823,-0.0127 -0.37092,-0.07541 -0.15986,-0.159861 z m 14.53864,-2.123069 c 0.32911,-0.06329 0.80536,-0.06088 1.05833,0.0053 0.25296,0.06623 -0.0163,0.118004 -0.5984,0.115068 -0.58208,-0.0029 -0.78905,-0.05712 -0.45993,-0.120412 z m 3.96566,0.01191 c 0.1819,-0.07339 0.47956,-0.07339 0.66146,0 0.1819,0.07339 0.0331,0.133456 -0.33073,0.133456 -0.3638,0 -0.51263,-0.06006 -0.33073,-0.133456 z m -6.59805,-0.270087 c 0.191,-0.07644 0.4192,-0.06705 0.50712,0.0209 0.0879,0.08792 -0.0683,0.150469 -0.34726,0.138986 -0.30823,-0.0127 -0.37092,-0.07541 -0.15986,-0.159861 z m 7.72253,-1.686957 c 0,-0.154119 0.11906,-0.206613 0.26458,-0.116681 0.14552,0.08993 0.26459,0.216032 0.26459,0.280194 0,0.06419 -0.11907,0.116681 -0.26459,0.116681 -0.14552,0 -0.26458,-0.1261 -0.26458,-0.280194 z m 50.48581,-14.717209 c 0.19099,-0.07644 0.4192,-0.06705 0.50712,0.0209 0.0879,0.08792 -0.0684,0.150468 -0.34727,0.138985 -0.30822,-0.0127 -0.37092,-0.07541 -0.15985,-0.159861 z m 10.84792,-5.820834 c 0.19099,-0.07644 0.4192,-0.06705 0.50712,0.0209 0.0879,0.08792 -0.0684,0.150469 -0.34727,0.138986 -0.30823,-0.0127 -0.37092,-0.07541 -0.15985,-0.159861 z m 33.60208,-9.789583 c 0.191,-0.076438 0.41921,-0.067045 0.50713,0.020902 0.0879,0.087921 -0.0684,0.1504686 -0.34727,0.1389856 -0.30824,-0.0127 -0.37092,-0.075406 -0.15986,-0.1598612 z m -14.02292,-0.79375 c 0.19101,-0.076438 0.41921,-0.067045 0.50713,0.020902 0.0879,0.087921 -0.0684,0.1504686 -0.34727,0.1389856 -0.30823,-0.0127 -0.37091,-0.075406 -0.15986,-0.1598612 z m 2.23745,-0.00265 c 0.25744,-0.067072 0.61463,-0.06268 0.79375,0.00979 0.17915,0.072469 -0.0315,0.1273439 -0.46805,0.1219729 -0.43656,-0.00529 -0.58311,-0.064691 -0.3257,-0.131789 z m 63.11464,-2.3786306 c 0.191,-0.076438 0.41921,-0.067045 0.50713,0.020902 0.0879,0.087921 -0.0684,0.1504685 -0.34727,0.1389856 -0.30824,-0.0127 -0.37092,-0.075406 -0.15986,-0.1598613 z m 12.68346,-0.25908 c 0.1819,-0.073395 0.47956,-0.073395 0.66146,0 0.1819,0.073395 0.0331,0.1334558 -0.33073,0.1334558 -0.3638,0 -0.51263,-0.06006 -0.33073,-0.1334558 z"
         id="path284" />
      <path
         style="fill:#2f2f2d;stroke-width:0.264583"
         d="m 321.52074,144.3314 c -0.32909,-0.41965 -0.31975,-0.42899 0.0999,-0.0999 0.44072,0.34565 0.58089,0.56292 0.36311,0.56292 -0.0549,0 -0.26328,-0.20835 -0.46302,-0.46302 z m -9.27626,-7.39063 c 0.19099,-0.0764 0.4192,-0.067 0.50712,0.0209 0.0879,0.0879 -0.0684,0.15047 -0.34727,0.13899 -0.30823,-0.0127 -0.37092,-0.0754 -0.15985,-0.15986 z m 123.54388,-4.22783 c 0.1819,-0.0734 0.47956,-0.0734 0.66146,0 0.1819,0.0734 0.0331,0.13346 -0.33073,0.13346 -0.3638,0 -0.51263,-0.0601 -0.33073,-0.13346 z m 17.74362,-1.593 c 0.191,-0.0764 0.41921,-0.0671 0.50713,0.0209 0.0879,0.0879 -0.0684,0.15047 -0.34727,0.13899 -0.30824,-0.0127 -0.37092,-0.0754 -0.15986,-0.15987 z m 4.35272,-0.27371 c 0.40219,-0.0608 0.9975,-0.0592 1.32291,0.004 0.32544,0.0628 -0.004,0.11255 -0.73123,0.11057 -0.7276,-0.003 -0.99385,-0.0534 -0.59168,-0.11419 z m 9.5264,0.007 c 0.25744,-0.0671 0.61462,-0.0627 0.79375,0.01 0.17915,0.0725 -0.0315,0.12734 -0.46805,0.12197 -0.43656,-0.005 -0.58312,-0.0647 -0.3257,-0.13179 z m 7.55213,-0.52655 c 0.19101,-0.0764 0.41921,-0.067 0.50713,0.0209 0.0879,0.0879 -0.0684,0.15046 -0.34727,0.13898 -0.30824,-0.0127 -0.37092,-0.0754 -0.15986,-0.15986 z m 3.42305,-0.25908 c 0.1819,-0.0734 0.47956,-0.0734 0.66146,0 0.1819,0.0734 0.0331,0.13346 -0.33073,0.13346 -0.3638,0 -0.51263,-0.0601 -0.33073,-0.13346 z m 11.6582,-0.79925 c 0.19101,-0.0764 0.41921,-0.067 0.50713,0.0209 0.0879,0.0879 -0.0684,0.15047 -0.34727,0.13899 -0.30824,-0.0127 -0.37092,-0.0754 -0.15986,-0.15986 z M 82.056968,122.12421 c 0.190995,-0.0764 0.419198,-0.067 0.507119,0.0209 0.08792,0.0879 -0.06835,0.15047 -0.347265,0.13899 -0.308227,-0.0127 -0.37092,-0.0754 -0.159854,-0.15986 z m 123.215822,-6.43816 c 0.0914,-0.1479 0.27702,-0.20039 0.41249,-0.11668 0.36699,0.2268 0.29856,0.38558 -0.16619,0.38558 -0.22687,0 -0.3377,-0.121 -0.2463,-0.2689 z m -5.21165,-0.17642 c 0.19099,-0.0764 0.4192,-0.067 0.50712,0.0209 0.0879,0.0879 -0.0684,0.15047 -0.34727,0.13898 -0.30822,-0.0127 -0.37092,-0.0754 -0.15985,-0.15986 z m 5.87044,-0.18386 c 0,-0.0549 0.20836,-0.26329 0.46302,-0.46302 0.41965,-0.32909 0.42901,-0.31975 0.0999,0.0999 -0.34564,0.44072 -0.56292,0.5809 -0.56292,0.36312 z m 6.68577,-1.93553 c 0.25743,-0.0671 0.61462,-0.0627 0.79375,0.01 0.17913,0.0725 -0.0315,0.12735 -0.46806,0.12198 -0.43656,-0.005 -0.58312,-0.0647 -0.32569,-0.13179 z m 40.09587,-0.26197 c 0.191,-0.0764 0.41921,-0.067 0.50712,0.0209 0.0879,0.0879 -0.0683,0.15047 -0.34726,0.13899 -0.30823,-0.0127 -0.37092,-0.0754 -0.15986,-0.15986 z m -21.11705,-0.33282 c 0,-0.13692 0.13746,-0.33393 0.30546,-0.43775 0.18055,-0.11158 0.23397,-0.0731 0.13064,0.0941 -0.0962,0.15558 -0.0252,0.34317 0.15756,0.41686 0.20052,0.0808 0.14869,0.14229 -0.13064,0.15491 -0.25466,0.0114 -0.46302,-0.0911 -0.46302,-0.2281 z m -12.14879,-0.0905 c 0.0606,-0.0412 0.34837,-0.24952 0.63941,-0.46302 0.48948,-0.35904 0.50193,-0.35343 0.16604,0.0749 -0.19972,0.25466 -0.48745,0.46302 -0.63941,0.46302 -0.15195,0 -0.22667,-0.0337 -0.16604,-0.0749 z m 2.57418,-0.10586 c 0.19099,-0.0764 0.4192,-0.067 0.50712,0.0209 0.0879,0.0879 -0.0684,0.15047 -0.34727,0.13898 -0.30823,-0.0127 -0.37092,-0.0754 -0.15985,-0.15986 z m -15.08125,-1.05833 c 0.19099,-0.0764 0.4192,-0.067 0.50712,0.0209 0.0879,0.0879 -0.0684,0.15047 -0.34727,0.13899 -0.30823,-0.0127 -0.37092,-0.0754 -0.15985,-0.15986 z m 25.20591,-0.23818 c 0.0127,-0.30824 0.0754,-0.37092 0.15985,-0.15986 0.0764,0.191 0.067,0.41921 -0.0209,0.50713 -0.0879,0.0879 -0.15046,-0.0684 -0.13897,-0.34727 z m 4.692,-0.0264 c 0.191,-0.0764 0.4192,-0.067 0.50712,0.0209 0.0879,0.0879 -0.0683,0.15047 -0.34726,0.13898 -0.30823,-0.0127 -0.37092,-0.0754 -0.15986,-0.15986 z m -7.67291,-0.26459 c 0.19099,-0.0764 0.4192,-0.067 0.50712,0.0209 0.0879,0.0879 -0.0684,0.15047 -0.34727,0.13899 -0.30823,-0.0127 -0.37092,-0.0754 -0.15985,-0.15986 z m -37.57084,-5.29166 c 0.191,-0.0764 0.4192,-0.0671 0.50712,0.0209 0.0879,0.0879 -0.0683,0.15047 -0.34726,0.13898 -0.30823,-0.0127 -0.37092,-0.0754 -0.15986,-0.15986 z m -6.01492,-3.41318 c 0.0127,-0.30824 0.0754,-0.37092 0.15985,-0.15986 0.0764,0.191 0.067,0.4192 -0.0209,0.50712 -0.0879,0.0879 -0.15045,-0.0684 -0.13897,-0.34726 z M 80.539967,97.015041 c 0.0127,-0.30824 0.07539,-0.37092 0.15985,-0.159862 0.07643,0.191003 0.06703,0.419206 -0.02087,0.507127 -0.08792,0.08792 -0.150453,-0.06837 -0.138965,-0.347265 z M 649.50556,88.438175 c 0.26339,-0.291042 0.53842,-0.529167 0.61118,-0.529167 0.0728,0 -0.0832,0.238125 -0.3466,0.529167 -0.26339,0.291042 -0.53843,0.529167 -0.61119,0.529167 -0.0728,0 0.0832,-0.238125 0.34661,-0.529167 z M 87.419134,82.46301 c 0.0127,-0.308239 0.07539,-0.370919 0.15985,-0.159861 0.07643,0.191003 0.06703,0.419206 -0.02088,0.507127 -0.08792,0.08792 -0.150453,-0.06837 -0.138965,-0.347266 z m 3.947861,-1.801733 c 0,-0.0572 0.184777,-0.17489 0.410617,-0.261567 0.235458,-0.09036 0.341662,-0.04599 0.248968,0.104008 -0.155379,0.251407 -0.659585,0.371845 -0.659585,0.157559 z M 626.48681,79.442342 c 0.26339,-0.291042 0.53842,-0.529167 0.61118,-0.529167 0.0728,0 -0.0832,0.238125 -0.3466,0.529167 -0.26339,0.291041 -0.53843,0.529166 -0.61119,0.529166 -0.0728,0 0.0832,-0.238125 0.34661,-0.529166 z m 12.78268,-1.239071 c 0.191,-0.07644 0.4192,-0.06705 0.50713,0.0209 0.0879,0.08792 -0.0684,0.150468 -0.34727,0.138985 -0.30824,-0.0127 -0.37092,-0.07541 -0.15986,-0.159861 z m 1.83555,0.0056 c 0.1819,-0.0734 0.47955,-0.0734 0.66145,0 0.1819,0.0734 0.0331,0.133456 -0.33073,0.133456 -0.3638,0 -0.51263,-0.06006 -0.33072,-0.133456 z M 86.339911,66.377852 c 0,-0.05493 0.20836,-0.263287 0.463021,-0.463021 0.419645,-0.329089 0.429004,-0.319749 0.0999,0.09991 -0.345643,0.440716 -0.562917,0.580892 -0.562917,0.363114 z M 637.5284,64.890258 c 0,-0.509323 0.0544,-0.717682 0.12099,-0.46302 0.0666,0.254661 0.0666,0.67138 0,0.926041 -0.0665,0.254662 -0.12099,0.0463 -0.12099,-0.463021 z M 165.40072,63.386605 c 0.191,-0.07644 0.4192,-0.06705 0.50712,0.0209 0.0879,0.08792 -0.0683,0.150468 -0.34727,0.138986 -0.30822,-0.0127 -0.37091,-0.07541 -0.15985,-0.159862 z m 15.39544,-3.09417 c 0,-0.05493 0.20836,-0.263287 0.46303,-0.463021 0.41964,-0.329089 0.429,-0.319749 0.0999,0.09991 -0.34564,0.440716 -0.56292,0.580893 -0.56292,0.363114 z M 77.62955,46.215094 c 0.0127,-0.30824 0.07539,-0.37092 0.159851,-0.159862 0.07643,0.191003 0.06703,0.419206 -0.02088,0.507127 -0.08792,0.08792 -0.150453,-0.06837 -0.138965,-0.347265 z m 127.92217,-3.207703 c -0.14359,-0.377084 -0.1132,-0.407458 0.14811,-0.148114 0.18082,0.179494 0.26212,0.392986 0.18065,0.474451 -0.0815,0.08144 -0.2294,-0.0654 -0.32876,-0.326337 z M 76.072742,39.62255 c 0.0054,-0.436562 0.06469,-0.583115 0.131773,-0.325702 0.06708,0.25744 0.06267,0.614627 -0.0098,0.79375 -0.07248,0.179149 -0.127362,-0.03148 -0.12197,-0.468048 z M 217.5071,40.108775 c 0.1819,-0.0734 0.47956,-0.0734 0.66146,0 0.1819,0.07339 0.0331,0.133456 -0.33073,0.133456 -0.3638,0 -0.51263,-0.06006 -0.33073,-0.133456 z M 345.05281,5.9720217 c 0.191,-0.076438 0.41921,-0.067045 0.50713,0.020902 0.0879,0.087921 -0.0684,0.1504685 -0.34727,0.1389856 -0.30824,-0.0127 -0.37092,-0.075406 -0.15986,-0.1598612 z m -3.175,-0.2645833 c 0.191,-0.076438 0.41921,-0.067045 0.50713,0.020902 0.0879,0.087921 -0.0684,0.1504686 -0.34727,0.1389857 -0.30824,-0.0127 -0.37092,-0.075406 -0.15986,-0.1598613 z M 334.73406,5.442855 c 0.191,-0.076438 0.41921,-0.067045 0.50713,0.020902 0.0879,0.087921 -0.0684,0.1504686 -0.34727,0.1389856 -0.30824,-0.0127 -0.37092,-0.075406 -0.15986,-0.1598612 z M 316.21323,4.9136884 c 0.191,-0.076438 0.4192,-0.067045 0.50712,0.020902 0.0879,0.087921 -0.0684,0.1504685 -0.34726,0.1389856 -0.30824,-0.0127 -0.37092,-0.075406 -0.15986,-0.1598613 z m 11.37708,0 c 0.191,-0.076438 0.41921,-0.067045 0.50713,0.020902 0.0879,0.087921 -0.0684,0.1504685 -0.34727,0.1389856 -0.30824,-0.0127 -0.37092,-0.075406 -0.15986,-0.1598613 z m -5.17088,-0.2672027 c 0.25744,-0.067072 0.61462,-0.06268 0.79375,0.00979 0.17915,0.072469 -0.0315,0.127344 -0.46805,0.121973 -0.43656,-0.00529 -0.58312,-0.064691 -0.3257,-0.131789 z m 48.03338,-0.261964 c 0.191,-0.076438 0.41921,-0.067045 0.50713,0.020902 0.0879,0.087921 -0.0684,0.1504685 -0.34727,0.1389856 -0.30824,-0.0127 -0.37092,-0.075406 -0.15986,-0.1598612 z m 46.83125,-1.5875 c 0.19101,-0.076438 0.41921,-0.067045 0.50713,0.020902 0.0879,0.087921 -0.0684,0.1504685 -0.34726,0.1389856 -0.30824,-0.0127 -0.37092,-0.075406 -0.15987,-0.1598612 z m -36.52903,-0.25908 c 0.1819,-0.073395 0.47955,-0.073395 0.66145,0 0.18191,0.073395 0.0331,0.1334558 -0.33072,0.1334558 -0.36381,0 -0.51264,-0.06006 -0.33073,-0.1334558 z m 32.54375,0 c 0.1819,-0.073395 0.47955,-0.073395 0.66146,0 0.1819,0.073395 0.0331,0.1334558 -0.33073,0.1334558 -0.36381,0 -0.51263,-0.06006 -0.33073,-0.1334558 z M 387.63419,2.2733584 c 0.1819,-0.073395 0.47956,-0.073395 0.66146,0 0.1819,0.073395 0.0331,0.1334558 -0.33073,0.1334558 -0.3638,0 -0.51263,-0.06006 -0.33073,-0.1334558 z m 19.97605,-0.00714 c 0.25466,-0.066569 0.67138,-0.066569 0.92604,0 0.25466,0.066543 0.0463,0.120994 -0.46302,0.120994 -0.50933,0 -0.71769,-0.054451 -0.46302,-0.120994 z M 392.39669,2.008775 c 0.1819,-0.073395 0.47956,-0.073395 0.66146,0 0.1819,0.073396 0.0331,0.1334559 -0.33073,0.1334559 -0.3638,0 -0.51263,-0.06006 -0.33073,-0.1334559 z m 5.29167,-0.011377 c 0.32742,-0.063077 0.8632,-0.063077 1.19062,0 0.32743,0.06305 0.0595,0.1146439 -0.59531,0.1146439 -0.65484,0 -0.92273,-0.051594 -0.59531,-0.1146439 z"
         id="path282" />
      <path
         style="fill:#090805;stroke-width:0.264583"
         d="m 337.62794,152.02752 c 0.1819,-0.0734 0.47956,-0.0734 0.66146,0 0.1819,0.0734 0.0331,0.13346 -0.33073,0.13346 -0.3638,0 -0.51263,-0.0601 -0.33073,-0.13346 z m -0.99219,-1.66147 c -0.21828,-0.14952 -0.68005,-0.27369 -1.02618,-0.27591 -0.64657,-0.004 -4.44426,-1.52895 -7.36955,-2.95892 -0.98211,-0.48006 -2.76437,-1.80133 -4.40743,-3.26736 -2.49933,-2.23009 -2.9038,-2.49137 -4.30427,-2.7804 -1.68843,-0.34848 -3.23844,-1.0428 -3.77721,-1.69199 -0.24927,-0.30035 -0.29404,-0.88127 -0.16256,-2.10915 0.13641,-1.2737 0.0948,-1.74897 -0.16743,-1.91346 -0.19191,-0.12036 -1.75041,-0.18344 -3.46333,-0.14015 l -3.11442,0.0787 -0.38447,-0.92017 c -0.41511,-0.99351 -2.33519,-2.40853 -5.9544,-4.38811 -1.0914,-0.59698 -2.2225,-1.27045 -2.51354,-1.49659 -0.52412,-0.40728 -0.52286,-0.41611 0.13229,-0.92858 2.12418,-1.66151 2.18143,-1.78885 1.23128,-2.739 -0.63053,-0.63053 -3.80601,-1.72667 -6.52294,-2.25165 -1.5959,-0.30838 -8.48587,-1.30678 -12.03855,-1.74448 -1.92029,-0.23657 -6.98743,-1.37872 -8.9194,-2.01044 -3.35957,-1.0985 -6.53686,-2.43393 -11.18893,-4.7027 -6.53958,-3.18929 -5.89574,-3.00374 -9.38296,-2.7041 -1.64399,0.14126 -3.1449,0.19706 -3.33535,0.12399 -0.19045,-0.0731 -1.03815,0.0138 -1.88377,0.1932 -0.84563,0.17933 -2.05428,0.30231 -2.6859,0.27326 -0.63162,-0.029 -1.08684,0.0468 -1.01161,0.16851 0.0752,0.12171 -0.0926,0.2213 -0.37296,0.2213 -0.28036,0 -0.50974,-0.1483 -0.50974,-0.32954 0,-0.59283 -1.93066,-0.93562 -4.73255,-0.84024 -2.71773,0.0925 -3.14131,0.24874 -3.52614,1.30048 -0.0416,0.1138 -0.49241,0.25829 -1.00173,0.32115 -0.50932,0.0628 -0.89856,0.24368 -0.86497,0.40185 0.034,0.15986 -0.27495,0.0947 -0.69551,-0.14663 -0.67865,-0.38949 -0.72978,-0.51115 -0.49629,-1.18094 0.44084,-1.26458 -0.4601,-1.90024 -1.73002,-1.2206 -0.31735,0.16983 -0.89833,0.33409 -1.29106,0.36499 -0.39274,0.0309 -1.51345,0.65482 -2.49047,1.3865 -1.75967,1.31781 -2.15805,1.41147 -3.01501,0.70892 -0.21829,-0.17896 -0.69454,-0.41307 -1.05834,-0.52025 -0.3638,-0.10718 -0.86676,-0.37507 -1.1177,-0.59534 -0.40856,-0.35859 -0.5284,-0.35316 -1.14685,0.0521 -0.62055,0.40659 -0.73589,0.41151 -1.13699,0.0485 -0.40326,-0.36494 -0.67583,-0.31729 -2.82189,0.49336 -1.34674,0.50872 -2.62542,0.83611 -2.95255,0.756 -0.67587,-0.16555 -3.52402,0.6051 -3.52402,0.95353 0,0.13097 -0.68461,0.32094 -1.52135,0.42212 -0.83675,0.1012 -1.67107,0.30366 -1.85405,0.44995 -0.23698,0.18944 -0.22546,0.0593 0.04,-0.45247 0.205,-0.39515 0.6226,-0.89344 0.928,-1.10736 0.96897,-0.67871 0.63739,-2.21102 -0.47845,-2.21102 -0.10818,0 -0.90211,0.54838 -1.7643,1.21862 -2.26404,1.76004 -3.99039,2.59758 -5.66864,2.75013 -1.36488,0.12409 -1.4837,0.0871 -1.91434,-0.59531 -0.25252,-0.40018 -0.63947,-0.7276 -0.85989,-0.7276 -0.31675,0 -0.29114,-0.10962 0.12218,-0.52295 0.39135,-0.39135 0.46733,-0.67429 0.30196,-1.12448 -0.17617,-0.47953 -0.45663,-0.61852 -1.38284,-0.68527 -0.6909,-0.0498 -1.38431,-0.2921 -1.71066,-0.59775 -0.30183,-0.28268 -0.64834,-0.4236 -0.77002,-0.31311 -0.12167,0.11047 -0.1441,0.0658 -0.0498,-0.0992 0.0947,-0.16579 -0.37105,-0.8001 -1.04061,-1.41729 -1.24185,-1.1447 -1.26316,-1.47852 -0.10427,-1.63365 0.46124,-0.0617 0.68826,-0.278 0.75,-0.71437 0.13065,-0.9234 -0.28378,-1.17115 -2.0856,-1.2468 -1.45296,-0.061 -1.74931,-0.17579 -2.85481,-1.10556 -1.49348,-1.25608 -2.27981,-1.69643 -2.5791,-1.44428 -0.12348,0.10401 -0.0698,-0.0135 0.11936,-0.2612 0.59863,-0.78396 0.14056,-1.4071 -1.3071,-1.77813 -0.73613,-0.18867 -1.6142,-0.59788 -1.95126,-0.90937 -1.39086,-1.285322 -4.48401,-3.16942 -6.16007,-3.752218 -3.39164,-1.179301 -8.59874,-1.745747 -11.38795,-1.238779 -0.76068,0.138245 -1.38306,0.15658 -1.38306,0.04075 0,-0.474107 -1.15171,-0.521282 -2.58124,-0.105754 -0.83589,0.242993 -2.94855,1.131173 -4.6948,1.973792 -1.74625,0.842592 -3.9489,1.855073 -4.89479,2.24999 -0.94589,0.39489 -1.83943,0.814989 -1.98565,0.933529 -1.13481,0.91993 -12.209,4.6718 -16.79977,5.69163 -1.0914,0.24247 -3.59172,0.89781 -5.55625,1.45632 -1.96453,0.55851 -5.17922,1.44495 -7.14375,1.96983 -1.96453,0.5249 -4.64344,1.24224 -5.95312,1.59408 -1.30969,0.35185 -3.45282,1.00833 -4.7625,1.45884 -1.30969,0.45053 -3.09563,1.03896 -3.96875,1.30762 -0.87313,0.26866 -3.31391,1.10956 -5.423962,1.8687 -2.110052,0.75912 -4.848489,1.67103 -6.085416,2.02647 -4.562735,1.31109 -9.157457,2.4838 -10.186459,2.5999 -4.414716,0.49805 -8.011049,0.30089 -8.794071,-0.48215 -0.398245,-0.39822 -0.393969,-0.47186 0.05631,-0.96941 0.268004,-0.29614 1.450673,-1.0891 2.628148,-1.76212 2.648847,-1.51403 3.066907,-1.87306 3.066907,-2.63387 0,-0.76021 -0.733141,-1.01172 -2.275088,-0.7805 -1.259904,0.18894 -1.410587,0.008 -0.833766,-0.99965 0.181901,-0.31787 0.628409,-1.45902 0.992243,-2.53592 l 0.661512,-1.958 2.381197,-0.782 c 2.657906,-0.87286 3.334546,-1.32668 3.205263,-2.14974 -0.08283,-0.52729 -0.21603,-0.55494 -2.242003,-0.4653 l -2.153941,0.0953 -0.03147,-1.28595 c -0.0173,-0.70726 -0.04707,-1.5774 -0.06615,-1.9336 -0.02999,-0.5601 0.144208,-0.69834 1.28824,-1.0223 1.888768,-0.53488 3.300767,-1.125455 4.360897,-1.824008 0.506725,-0.333877 1.246677,-0.60706 1.644338,-0.60706 0.819915,0 1.369266,-0.735515 0.998014,-1.336199 -0.22452,-0.363272 -0.694942,-0.419311 -4.135483,-0.492468 l -1.100987,-0.02355 1.167133,-1.740509 c 0.641921,-0.957262 1.16713,-1.959557 1.16713,-2.227315 0,-0.822643 0.29899,-1.323843 0.789744,-1.323843 0.87136,0 2.318137,-0.769885 3.024656,-1.60954 1.667293,-1.981464 1.994638,-3.657044 1.058434,-5.41782 -0.338688,-0.636984 -0.509439,-1.223883 -0.37945,-1.30421 0.12999,-0.08035 0.749737,-0.211614 1.37721,-0.291756 4.435956,-0.566394 4.977323,-0.766684 4.977323,-1.841633 0,-0.493606 -0.263496,-0.708845 -1.375545,-1.123685 -1.081865,-0.403569 -1.264367,-0.548402 -0.8548,-0.678392 0.556869,-0.176741 5.64379,-0.899504 8.051182,-1.143926 1.84105,-0.186928 2.43649,-0.492945 2.33116,-1.198086 -0.0706,-0.472281 -0.62623,-0.691753 -3.91866,-1.547654 -2.110056,-0.54856 -4.576951,-1.210125 -5.481993,-1.470157 l -1.645531,-0.472811 -0.153742,-1.202769 c -0.215101,-1.682829 -0.343929,-1.840918 -1.93997,-2.380641 -1.581203,-0.534723 -2.778199,-1.325669 -2.893838,-1.912197 -0.05692,-0.288687 0.553255,-0.532527 2.38125,-0.951574 1.351778,-0.30988 2.99356,-0.637857 3.648404,-0.728848 1.389205,-0.19304 2.382946,-0.623146 2.377199,-1.028911 -0.01077,-0.760836 -0.597921,-1.007005 -3.224911,-1.352021 -3.025349,-0.397351 -6.265344,-1.052036 -7.434464,-1.502278 -0.425424,-0.163856 -0.953095,-0.700246 -1.237782,-1.258279 -0.272928,-0.534987 -0.925401,-1.486376 -1.44994,-2.114232 -0.524539,-0.62783 -0.906439,-1.188773 -0.848665,-1.246558 0.05777,-0.05776 1.525268,-0.271489 3.261096,-0.474927 4.198967,-0.492125 4.559776,-0.596953 4.756857,-1.382184 0.272388,-1.085294 0.417036,-1.011634 -6.427031,-3.272155 -3.503552,-1.157181 -3.368781,-1.032351 -3.912786,-3.624527 l -0.347041,-1.653646 h 2.979542 c 2.615523,0 2.994213,-0.05657 3.099628,-0.46302 0.209707,-0.808567 -0.06875,-1.122283 -1.736997,-1.956965 C 83.236351,44.030297 81.470842,43.05327 80.208764,42.30733 77.697,40.822753 77.41007,40.363833 77.895152,38.607026 c 0.625142,-2.264066 4.378746,-3.535018 10.176251,-3.445615 2.652562,0.0409 4.518388,0.450611 8.454967,1.856687 2.622452,0.936678 3.465857,1.284763 6.69919,2.764922 0.91966,0.420978 1.76477,0.765439 1.87801,0.765439 0.11325,0 2.15877,0.900166 4.54561,2.000356 2.38683,1.100164 5.23266,2.35847 6.32407,2.796223 1.0914,0.437726 2.18536,0.903181 2.43102,1.034362 0.24565,0.13118 2.44831,1.02272 4.89479,1.9812 2.44648,0.958453 5.34111,2.107644 6.43252,2.553732 1.09141,0.446061 2.57969,1.045157 3.30729,1.331304 0.72761,0.286147 1.95153,0.807429 2.71982,1.158425 0.7683,0.35097 1.45275,0.638148 1.52099,0.638148 0.0682,0 1.16605,0.462519 2.43956,1.027801 10.08308,4.475771 14.42665,6.132512 16.47067,6.282319 0.94589,0.06932 1.95792,0.30234 2.24896,0.51779 0.29104,0.21545 0.93373,0.685456 1.42819,1.044416 0.51693,0.375285 0.72575,0.652674 0.49133,0.652674 -0.22423,0 -0.47623,0.178594 -0.55999,0.396875 -0.0838,0.218282 -0.45369,0.396875 -0.82206,0.396875 -0.36837,0 -0.66976,0.105172 -0.66976,0.233733 0,0.382164 1.05398,0.552583 3.44133,0.556393 1.23789,0.0026 2.66664,0.124989 3.175,0.273341 1.00309,0.292735 2.91496,0.522737 4.69325,0.56462 1.1592,0.02733 1.91959,-0.366421 1.91959,-0.993986 0,-0.197697 0.26789,-0.40894 0.59531,-0.46945 3.67689,-0.679397 7.61062,-1.876637 10.09442,-3.072236 1.17841,-0.56724 2.48255,-1.103022 2.89809,-1.190599 0.41553,-0.08758 0.81,-0.362188 0.87658,-0.610208 0.12952,-0.482494 3.86731,-2.015861 8.81893,-3.617807 3.11102,-1.006448 7.01389,-2.3563 10.18646,-3.523033 6.80472,-2.502482 10.48426,-3.794019 16.40417,-5.757862 3.63802,-1.206871 8.22193,-2.756879 10.18646,-3.444478 8.92078,-3.122295 15.17806,-5.262536 17.85937,-6.108621 1.60073,-0.50509 3.50573,-1.141518 4.23334,-1.414277 0.7276,-0.272759 2.1834,-0.764223 3.2351,-1.092121 1.05171,-0.327898 1.87803,-0.630343 1.83626,-0.672121 -0.12226,-0.122264 -6.25884,0.672386 -7.84949,1.01645 -0.80036,0.173143 -1.60404,0.287814 -1.78594,0.254846 -0.1819,-0.03297 -0.33073,0.06059 -0.33073,0.207937 0,0.14732 -0.18662,0.196267 -0.41472,0.108717 -0.2281,-0.08752 -0.67458,-0.02783 -0.99219,0.132635 -0.50184,0.253551 -4.79352,1.784747 -10.49934,3.745918 -0.94588,0.32512 -4.27963,1.473835 -7.40833,2.552674 -3.1287,1.078865 -8.6651,2.963307 -12.30313,4.187666 -3.63802,1.224359 -8.9363,3.076522 -11.77395,4.115938 -2.83766,1.039442 -6.17141,2.24999 -7.40834,2.690177 -1.23693,0.440161 -2.54661,0.994595 -2.91041,1.232085 -0.87823,0.5733 -1.54508,0.604203 -1.47035,0.06813 0.0335,-0.240163 0.53027,-0.577612 1.14048,-0.7747 1.31533,-0.424815 1.56025,-0.933953 0.81013,-1.684073 l -0.56607,-0.566076 0.71911,-0.618543 c 0.44165,-0.379915 1.05824,-0.61857 1.59801,-0.61857 0.97066,0 1.55379,-0.505142 1.43261,-1.241001 -0.11426,-0.69387 0.2494,-1.140249 0.92898,-1.140249 0.71545,0 1.22793,-0.463788 1.22793,-1.11125 0,-0.323215 0.19937,-0.47625 0.62045,-0.47625 0.70667,0 1.63574,-0.883099 1.37423,-1.306247 -0.11364,-0.183886 0.27128,-0.281253 1.11179,-0.281253 1.34908,0 1.92061,-0.326046 1.92061,-1.095639 0,-0.545941 -0.32848,-0.779145 -1.43211,-1.016767 -0.71012,-0.152877 -0.49897,-0.251646 1.61598,-0.755941 5.32544,-1.269789 13.00499,-1.855629 17.69926,-1.350222 3.40738,0.366871 4.07729,0.243655 4.07729,-0.749829 0,-0.685298 0.12021,-0.756841 2.19626,-1.306804 1.98118,-0.524827 2.60157,-0.56597 6.33477,-0.420185 3.60438,0.140785 4.22583,0.104405 4.81519,-0.281754 0.77707,-0.509165 0.84276,-0.86749 0.27421,-1.495716 -0.37132,-0.410316 -0.23306,-0.488897 1.78594,-1.015101 3.75946,-0.979778 8.31574,-1.872324 11.66631,-2.285312 1.77246,-0.218493 4.00204,-0.62013 4.95463,-0.892545 l 1.73198,-0.4953 0.0568,0.744855 c 0.0363,0.476567 -0.11113,0.842618 -0.40933,1.016264 -0.71523,0.416481 -0.23236,0.338588 1.30992,-0.211296 3.22913,-1.151308 9.44055,-2.97471 13.17294,-3.866991 1.83667,-0.439076 6.92426,-1.711669 7.27605,-1.81999 0.5401,-0.166317 3.72558,-0.878337 6.74687,-1.508072 0.65485,-0.136498 2.55985,-0.539035 4.23334,-0.894529 5.52947,-1.174618 8.30865,-1.70188 10.45104,-1.982788 3.45741,-0.453284 5.78455,-0.785045 6.38262,-0.909928 0.30898,-0.06451 1.02335,-0.187881 1.5875,-0.274162 0.56415,-0.08628 1.91868,-0.337291 3.01009,-0.557821 1.90013,-0.38391 3.87638,-0.765995 5.29166,-1.023064 0.36381,-0.06609 1.55443,-0.300778 2.64584,-0.521547 1.0914,-0.220768 3.05593,-0.600842 4.36562,-0.844656 1.30969,-0.243813 3.81,-0.776314 5.55625,-1.183375 1.74625,-0.407062 4.54422,-0.989409 6.21771,-1.294051 1.67349,-0.304667 3.93568,-0.726837 5.02708,-0.938106 1.09141,-0.211297 2.4011,-0.457968 2.91042,-0.548138 0.94811,-0.167851 1.80218,-0.324617 8.46667,-1.55403 2.11005,-0.389255 4.61036,-0.875638 5.55625,-1.080823 0.94588,-0.205211 2.67229,-0.577956 3.83646,-0.828304 l 2.11666,-0.455189 -2.64583,-0.3243 c -1.45521,-0.178356 -2.94349,-0.283157 -3.30729,-0.232887 -0.7669,0.105966 -9.6887,1.75514 -13.75834,2.543202 -1.52796,0.295883 -3.67109,0.695563 -4.7625,0.888206 -2.72976,0.481806 -8.04407,1.556015 -13.09687,2.647368 -9.52357,2.056977 -22.73387,4.471432 -26.06146,4.763267 -1.41216,0.123878 -8.58696,1.445393 -10.05417,1.851898 -1.25736,0.348351 -8.1455,1.766941 -8.53853,1.758474 -0.25781,-0.0056 -0.39469,0.109723 -0.30418,0.25617 0.0905,0.146447 0.004,0.239527 -0.19272,0.206851 -0.1965,-0.0327 -0.53587,0.0029 -0.75415,0.079 -5.63115,1.96416 -14.65741,4.743688 -16.7349,5.153289 -0.53631,0.105754 -0.7276,0.03823 -0.7276,-0.256778 0,-0.258075 0.58737,-0.58838 1.65364,-0.929878 2.19897,-0.704321 5.01286,-1.772338 5.6433,-2.141908 0.27954,-0.163883 3.07389,-1.183508 6.20965,-2.265812 3.13576,-1.082331 6.69082,-2.38514 7.90014,-2.895177 1.46798,-0.619098 2.43708,-0.879634 2.91585,-0.783881 0.71783,0.143563 2.24245,-0.402511 5.74762,-2.058617 1.17316,-0.554302 1.70799,-0.972238 1.87138,-1.462431 0.15188,-0.455639 0.53607,-0.785628 1.14308,-0.981816 0.50286,-0.162534 1.02995,-0.559065 1.17132,-0.881169 0.19382,-0.441642 0.40651,-0.548137 0.86503,-0.433043 0.65323,0.163962 2.18524,-0.35007 2.18524,-0.733187 0,-0.127873 0.2792,-0.232489 0.62045,-0.232489 0.34125,0 0.82297,-0.223785 1.0705,-0.497285 0.24752,-0.273526 0.91237,-0.571235 1.47744,-0.66159 0.56507,-0.09036 1.21444,-0.351341 1.44304,-0.579941 0.52681,-0.526811 0.5371,-1.406181 0.0188,-1.605094 -0.67694,-0.259768 -0.43781,-0.835687 0.46302,-1.1151927 0.47294,-0.1467114 1.49793,-0.3475037 2.27774,-0.4461669 1.29772,-0.1642004 2.41861,-0.8103129 2.41861,-1.3941689 0,-0.5389563 -0.77089,-1.1031273 -1.97666,-1.4466358 l -1.31521,-0.3746765 1.35957,-0.4515644 c 2.77831,-0.9228137 10.88874,-1.2351808 17.67501,-0.6807729 1.74625,0.1426633 5.73485,0.378116 8.86354,0.5231871 6.66311,0.3090069 9.13498,0.551815 13.09688,1.2864042 4.83738,0.896911 13.08595,1.9535774 15.51535,1.9875764 1.25741,0.017462 2.15038,0.1194329 1.98438,0.226351 -0.39963,0.2573867 2.72518,0.2232025 3.39061,-0.037095 0.50715,-0.1983582 0.50739,-0.2080155 0.0124,-0.4849548 -0.39341,-0.2201598 -0.43788,-0.3633788 -0.20143,-0.6483086 0.39283,-0.4732866 0.37423,-3.1982039 -0.0235,-3.4517541 -0.16772,-0.1069181 -0.60262,-0.2046023 -0.96642,-0.2170642 -0.55105,-0.01905 -0.488,-0.086254 0.37761,-0.4033308 1.74781,-0.6402123 6.55976,-1.1329723 13.90989,-1.4244373 3.8563,-0.1529027 7.34343,-0.334645 7.74914,-0.40386 0.98425,-0.1679046 17.30905,0.3226858 22.14878,0.6655858 2.11005,0.1495161 6.21771,0.5582444 9.12812,0.9083146 2.91042,0.3500438 6.12511,0.7112794 7.14375,0.8027194 4.41942,0.3967956 13.55384,1.7945629 15.59746,2.3867798 1.22414,0.3547533 3.91789,1.3133122 5.98614,2.1301604 2.20477,0.8707702 4.01497,1.4365032 4.37571,1.3675522 0.33843,-0.06469 0.5615,-0.03059 0.49575,0.07583 -0.0658,0.106389 1.21777,0.581183 2.85226,1.055079 1.63451,0.473921 4.28154,1.327626 5.88227,1.897115 4.58941,1.63285 6.37529,2.063194 6.79992,1.638565 0.29507,-0.29509 0.70308,-0.28538 2.46539,0.05874 4.35076,0.849498 8.26349,1.74199 10.31386,2.352543 1.16416,0.346683 3.96213,1.106461 6.2177,1.688385 2.25558,0.581952 4.93448,1.31109 5.95313,1.620335 1.01864,0.309245 2.14974,0.618067 2.51354,0.686277 0.3638,0.06818 0.95912,0.2345 1.32292,0.369596 0.3638,0.13507 2.20927,0.674793 4.10104,1.199383 1.89177,0.524563 4.21349,1.178136 5.15937,1.452377 0.94589,0.274241 3.4462,0.984991 5.55625,1.579457 2.11006,0.594465 4.07459,1.18954 4.36563,1.322387 2.38789,1.089872 9.7745,3.277447 15.74271,4.662223 2.11005,0.489611 5.38427,1.314159 7.27604,1.832372 1.89177,0.518213 5.52318,1.468914 8.06979,2.112698 2.54662,0.643758 6.05896,1.653646 7.80521,2.244143 3.50168,1.184169 9.87166,3.129835 13.36146,4.081198 2.17943,0.594148 8.05405,2.398871 9.12813,2.804239 1.60297,0.604943 8.08484,2.577359 11.33308,3.448606 2.0615,0.552926 4.87926,1.319979 6.26171,1.704551 1.38245,0.384599 2.8112,0.754354 3.175,0.821664 0.3638,0.06734 0.95911,0.233653 1.32291,0.36957 0.90173,0.33692 3.62223,1.009835 4.90302,1.212797 0.57756,0.09152 1.82402,0.323374 2.7699,0.515223 0.94589,0.191849 2.91042,0.58584 4.36563,0.875559 8.10254,1.613085 12.17726,3.318193 15.44227,6.461998 0.71789,0.691224 1.553,1.256771 1.85579,1.256771 0.72138,0 1.61965,1.738154 1.61965,3.134095 0,2.902242 -3.16185,6.740182 -12.56732,15.254447 -6.87654,6.224984 -12.03894,11.307074 -12.03894,11.851666 0,0.458047 0.6689,1.069393 1.02796,0.939483 0.13859,-0.05014 1.42254,-1.213644 2.85316,-2.585562 6.90661,-6.623155 6.33384,-6.15143 7.55746,-6.224137 0.62103,-0.03691 2.32021,-0.490802 3.77597,-1.008671 2.62377,-0.933371 6.72764,-2.004695 10.60937,-2.769579 2.03526,-0.401029 5.96707,-0.231299 7.38129,0.318637 3.78288,1.471031 5.70924,3.27578 5.13972,4.815285 -0.54991,1.486561 -4.70228,4.820258 -9.44504,7.582826 -5.69995,3.32015 -7.69385,4.129484 -21.35677,8.669047 -3.17125,1.05365 -7.48671,2.09894 -12.96707,3.14087 -4.76195,0.90535 -16.02394,3.58992 -20.6375,4.91945 -4.32674,1.24688 -13.26272,3.52613 -17.64597,4.50086 -2.37294,0.52768 -6.39805,1.41819 -8.94466,1.97887 -2.54662,0.5607 -6.53521,1.49524 -8.86354,2.07676 -4.31274,1.07715 -13.31627,2.97808 -16.32696,3.44718 -0.9156,0.14264 -3.21252,0.28326 -5.10429,0.3125 -3.50073,0.0541 -4.36563,0.22995 -4.36563,0.88762 0,0.32063 1.14829,2.23317 2.62676,4.37502 2.10759,3.05329 3.40045,6.5682 3.0412,8.26823 -0.16629,0.78693 -0.5152,0.87837 -1.81271,0.47503 -0.44691,-0.1389 -1.8841,-0.5715 -3.19379,-0.96131 -2.16842,-0.64537 -5.934,-2.02062 -7.9375,-2.8989 -0.43656,-0.19138 -1.69095,-0.71398 -2.78752,-1.16137 -1.09656,-0.44735 -2.94203,-1.29971 -4.10104,-1.89409 -1.15901,-0.59439 -3.35743,-1.55396 -4.8854,-2.13236 -2.99241,-1.13274 -2.70039,-1.1175 -7.14375,-0.37304 -3.85858,0.64646 -5.31934,0.80833 -9.65729,1.07011 -2.47476,0.14933 -7.50803,0.51573 -14.55209,1.05931 -2.76489,0.21336 -7.94411,0.40799 -11.50937,0.43249 -7.67297,0.0528 -11.68913,0.28848 -17.06563,1.00166 -2.18281,0.28956 -5.09984,0.59658 -6.48229,0.68231 -8.67955,0.53813 -16.66253,1.89269 -27.78125,4.71397 -7.14187,1.81219 -14.26533,3.18551 -26.99483,5.20433 -1.67754,0.26604 -4.23738,0.72988 -5.68854,1.03071 -3.16011,0.65514 -3.89784,0.79357 -5.28434,0.9915 -0.58208,0.0831 -2.66568,0.50551 -4.63021,0.93872 -1.96453,0.4332 -3.92906,0.84976 -4.36562,0.92564 -0.43657,0.0759 -4.72282,1.12705 -9.525,2.3359 -12.47114,3.13934 -16.6996,3.93848 -17.5948,3.32528 z M 462.02622,13.724181 c -0.0606,-0.05583 -1.83666,-0.61296 -3.94671,-1.238091 -2.11005,-0.625131 -3.89599,-1.204542 -3.96875,-1.287569 -0.0728,-0.08303 -0.37042,-0.174069 -0.66146,-0.2023 -0.29104,-0.02823 -1.3626,-0.170312 -2.38125,-0.315727 -1.01865,-0.145415 -2.80458,-0.388144 -3.96875,-0.53938 -1.77898,-0.2311134 -8.42873,-1.1414123 -10.71563,-1.4668763 -0.3638,-0.051779 -1.43536,-0.170815 -2.38125,-0.2644775 -0.94588,-0.093689 -2.07698,-0.2177785 -2.51354,-0.2757487 -0.43656,-0.05797 -2.0439,-0.1775354 -3.57187,-0.2657211 -1.52797,-0.088186 -4.38547,-0.3501231 -6.35,-0.5821097 -6.64972,-0.7852305 -37.51731,-0.6492875 -44.79452,0.1972468 -2.44943,0.2849563 -2.83289,0.3932767 -2.68197,0.7576873 0.0969,0.2338388 0.236,0.6335448 0.30924,0.8882063 0.15155,0.5271293 0.52872,0.5624248 2.3504,0.2199745 1.2586,-0.2365904 4.25868,-0.4691327 8.83351,-0.6847152 3.23019,-0.1522148 29.80235,-0.1413404 31.22084,0.0127 0.65484,0.071146 2.20265,0.2410355 3.43958,0.3775075 1.23693,0.1364721 3.32052,0.3184525 4.63021,0.4043892 5.32035,0.3490913 9.89168,0.8067939 13.22917,1.3245569 1.30968,0.203174 2.97656,0.439023 3.70416,0.524113 0.72761,0.08506 2.09683,0.268949 3.04271,0.408623 2.08222,0.307472 4.91099,0.666538 11.37708,1.444175 5.51548,0.66331 5.95347,0.705882 5.7988,0.563457 z M 323.791,146.0512 l -1.04587,-1.12448 1.12448,1.04587 c 1.04576,0.97266 1.24605,1.20308 1.04587,1.20308 -0.0432,0 -0.54922,-0.50601 -1.12448,-1.12447 z m 49.57223,-1.7021 c 0.191,-0.0764 0.4192,-0.067 0.50713,0.0209 0.0879,0.0879 -0.0684,0.15047 -0.34727,0.13898 -0.30824,-0.0127 -0.37092,-0.0754 -0.15986,-0.15986 z m -58.70792,-3.72186 -0.64143,-0.72761 0.7276,0.64143 c 0.40018,0.3528 0.72761,0.68022 0.72761,0.72761 0,0.20751 -0.21426,0.0386 -0.81378,-0.64143 z m 78.0225,0.28228 c 0.19101,-0.0764 0.41921,-0.067 0.50713,0.0209 0.0879,0.0879 -0.0684,0.15047 -0.34727,0.13899 -0.30824,-0.0127 -0.37092,-0.0754 -0.15986,-0.15986 z m 3.175,-0.52917 c 0.19101,-0.0764 0.41921,-0.067 0.50713,0.0209 0.0879,0.0879 -0.0684,0.15047 -0.34727,0.13898 -0.30824,-0.0127 -0.37092,-0.0754 -0.15986,-0.15986 z m -82.19403,-2.72968 c 0,-0.3638 0.0601,-0.51263 0.13346,-0.33072 0.0734,0.1819 0.0734,0.47955 0,0.66145 -0.0734,0.1819 -0.13346,0.0331 -0.13346,-0.33073 z m 215.40024,0.34582 c 0.25744,-0.0671 0.61462,-0.0627 0.79375,0.01 0.17915,0.0725 -0.0315,0.12735 -0.46805,0.12198 -0.43656,-0.005 -0.58312,-0.0647 -0.3257,-0.13179 z M 310.2472,136.93164 c 0.40219,-0.0608 0.9975,-0.0592 1.32292,0.004 0.32542,0.0628 -0.004,0.11255 -0.73124,0.11057 -0.72761,-0.003 -0.99386,-0.0534 -0.59168,-0.1142 z m 220.92938,-1.66222 c 0,-0.65484 0.0516,-0.92273 0.11465,-0.59531 0.0631,0.32742 0.0631,0.86321 0,1.19063 -0.0631,0.32742 -0.11465,0.0595 -0.11465,-0.59532 z m -224.41786,0.0209 c -0.0115,-0.20683 -0.22482,-0.62355 -0.47408,-0.92604 -0.42732,-0.51859 -0.41798,-0.51756 0.16352,0.0177 0.3392,0.31226 0.55254,0.72898 0.47409,0.92604 -0.11556,0.2903 -0.1466,0.28692 -0.16353,-0.0177 z m 123.22534,-2.05365 c 0.19101,-0.0764 0.41921,-0.067 0.50713,0.0209 0.0879,0.0879 -0.0684,0.15046 -0.34726,0.13898 -0.30824,-0.0127 -0.37092,-0.0754 -0.15987,-0.15986 z m 2.10013,-0.25908 c 0.18191,-0.0734 0.47956,-0.0734 0.66146,0 0.1819,0.0734 0.0331,0.13346 -0.33073,0.13346 -0.3638,0 -0.51263,-0.0601 -0.33073,-0.13346 z m 2.64584,-0.26458 c 0.1819,-0.0734 0.47956,-0.0734 0.66146,0 0.1819,0.0734 0.0331,0.13346 -0.33073,0.13346 -0.36381,0 -0.51263,-0.0601 -0.33073,-0.13346 z m 4.36562,-0.27173 c 0.25466,-0.0666 0.67138,-0.0666 0.92604,0 0.25467,0.0665 0.0463,0.121 -0.46302,0.121 -0.50932,0 -0.71768,-0.0545 -0.46302,-0.121 z m 3.05925,-0.26294 c 0.191,-0.0764 0.4192,-0.067 0.50712,0.0209 0.0879,0.0879 -0.0684,0.15047 -0.34726,0.13899 -0.30824,-0.0127 -0.37092,-0.0754 -0.15986,-0.15986 z m 3.96875,-0.52917 c 0.191,-0.0764 0.4192,-0.067 0.50713,0.0209 0.0879,0.0879 -0.0684,0.15046 -0.34727,0.13898 -0.30824,-0.0127 -0.37092,-0.0754 -0.15986,-0.15986 z m 2.11666,-0.26458 c 0.19101,-0.0764 0.41921,-0.067 0.50713,0.0209 0.0879,0.0879 -0.0684,0.15047 -0.34726,0.13899 -0.30824,-0.0127 -0.37092,-0.0754 -0.15987,-0.15986 z m 3.02618,-0.27337 c 0.40018,-0.0606 1.05502,-0.0606 1.45521,0 0.40018,0.0606 0.0728,0.11023 -0.72761,0.11023 -0.80036,0 -1.12779,-0.0496 -0.7276,-0.11023 z m 4.7625,-0.25744 c 0.25466,-0.0666 0.67138,-0.0666 0.92604,0 0.25466,0.0666 0.0463,0.121 -0.46302,0.121 -0.50933,0 -0.71768,-0.0545 -0.46302,-0.121 z m 5.42396,-0.014 c 1.05502,-0.0502 2.78143,-0.0502 3.83645,0 1.05503,0.0502 0.19183,0.0913 -1.91823,0.0913 -2.11005,0 -2.97325,-0.0411 -1.91822,-0.0913 z m 8.86856,-0.25149 c 0.25744,-0.0671 0.61463,-0.0627 0.79375,0.01 0.17915,0.0725 -0.0315,0.12735 -0.46804,0.12198 -0.43657,-0.005 -0.58312,-0.0647 -0.32571,-0.13179 z m 3.16998,-0.2636 c 0.25466,-0.0666 0.67138,-0.0666 0.92604,0 0.25466,0.0665 0.0463,0.12099 -0.46302,0.12099 -0.50932,0 -0.71768,-0.0545 -0.46302,-0.12099 z m -174.97576,-0.80994 -0.64144,-0.72761 0.72761,0.64143 c 0.40018,0.3528 0.7276,0.68022 0.7276,0.72761 0,0.20751 -0.21426,0.0386 -0.81377,-0.64143 z m 178.68495,0.54425 c 0.25744,-0.0671 0.61463,-0.0627 0.79375,0.01 0.17915,0.0725 -0.0315,0.12735 -0.46805,0.12198 -0.43656,-0.005 -0.58311,-0.0647 -0.3257,-0.13179 z m 3.96372,-0.26361 c 0.25467,-0.0666 0.67138,-0.0666 0.92605,0 0.25466,0.0665 0.0463,0.12099 -0.46302,0.12099 -0.50933,0 -0.71769,-0.0545 -0.46303,-0.12099 z m 3.57188,-0.25744 c 0.1819,-0.0734 0.47956,-0.0734 0.66146,0 0.1819,0.0734 0.0331,0.13346 -0.33073,0.13346 -0.3638,0 -0.51263,-0.0601 -0.33073,-0.13346 z m 3.43958,-0.27606 c 0.32743,-0.0631 0.86321,-0.0631 1.19063,0 0.32742,0.0631 0.0595,0.11464 -0.59531,0.11464 -0.65485,0 -0.92274,-0.0516 -0.59532,-0.11464 z m 4.51446,-0.25861 c 0.191,-0.0764 0.4192,-0.067 0.50712,0.0209 0.0879,0.0879 -0.0684,0.15047 -0.34726,0.13899 -0.30824,-0.0127 -0.37092,-0.0754 -0.15986,-0.15986 z m -194.90654,-0.8776 c 0,-0.3638 0.0601,-0.51263 0.13345,-0.33072 0.0734,0.1819 0.0734,0.47955 0,0.66145 -0.0734,0.18191 -0.13345,0.0331 -0.13345,-0.33073 z m 0.22281,-1.15824 c 0,-0.0549 0.20835,-0.26328 0.46302,-0.46302 0.41964,-0.32908 0.429,-0.31974 0.0999,0.0999 -0.34564,0.44072 -0.56291,0.58089 -0.56291,0.36311 z m 1.20763,-1.03597 c 0.0994,-0.26093 0.2473,-0.40778 0.32877,-0.32634 0.0815,0.0815 1.7e-4,0.29496 -0.18066,0.47445 -0.2613,0.25935 -0.29169,0.22897 -0.14811,-0.14811 z m -4.69683,-1.69069 c 0.191,-0.0764 0.4192,-0.067 0.50712,0.0209 0.0879,0.0879 -0.0684,0.15047 -0.34726,0.13899 -0.30823,-0.0127 -0.37092,-0.0754 -0.15986,-0.15986 z M 526.41318,123.709 c 0.25744,-0.0671 0.61463,-0.0627 0.79375,0.01 0.17915,0.0725 -0.0315,0.12735 -0.46804,0.12198 -0.43657,-0.005 -0.58312,-0.0647 -0.32571,-0.13179 z m 5.70005,-0.26197 c 0.19101,-0.0764 0.41921,-0.067 0.50713,0.0209 0.0879,0.0879 -0.0684,0.15047 -0.34726,0.13899 -0.30824,-0.0127 -0.37092,-0.0754 -0.15987,-0.15986 z m -244.21042,-0.26458 c 0.19099,-0.0764 0.4192,-0.067 0.50712,0.0209 0.0879,0.0879 -0.0683,0.15047 -0.34727,0.13899 -0.30822,-0.0127 -0.37092,-0.0754 -0.15985,-0.15987 z m -1.85208,-0.26459 c 0.19099,-0.0764 0.4192,-0.067 0.50711,0.0209 0.0879,0.0879 -0.0684,0.15047 -0.34726,0.13898 -0.30823,-0.0127 -0.37092,-0.0754 -0.15985,-0.15986 z M 76.75185,122.1177 c 0.329118,-0.0633 0.805368,-0.0609 1.058334,0.005 0.252965,0.0662 -0.01633,0.11801 -0.598398,0.11507 -0.582083,-0.003 -0.789054,-0.0571 -0.459936,-0.12041 z m 3.833374,0.005 c 0.254661,-0.0666 0.67138,-0.0666 0.926041,0 0.254662,0.0665 0.0463,0.121 -0.46302,0.121 -0.509323,0 -0.717683,-0.0545 -0.463021,-0.121 z m -8.247342,-2.3532 c 0.0127,-0.30824 0.07539,-0.37092 0.159853,-0.15986 0.07643,0.191 0.06703,0.4192 -0.02089,0.50713 -0.08792,0.0879 -0.150453,-0.0684 -0.138965,-0.34727 z m 0.243696,-1.15297 c 0,-0.13693 0.117698,-0.32171 0.261552,-0.41061 0.149982,-0.0927 0.194339,0.0135 0.103985,0.24897 -0.175893,0.45837 -0.365537,0.54221 -0.365537,0.16164 z m 135.995842,-3.2946 c 0,-0.0572 0.18477,-0.17489 0.41061,-0.26156 0.23546,-0.0904 0.34166,-0.046 0.24897,0.104 -0.15538,0.25141 -0.65958,0.37185 -0.65958,0.15756 z m 42.93368,-2.19604 c 0.25743,-0.0671 0.61462,-0.0627 0.79375,0.01 0.17913,0.0725 -0.0315,0.12735 -0.46806,0.12197 -0.43656,-0.005 -0.58312,-0.0647 -0.32569,-0.13178 z m 3.83451,-0.26836 c 0.32911,-0.0633 0.80536,-0.0609 1.05833,0.005 0.25297,0.0662 -0.0163,0.118 -0.5984,0.11506 -0.58208,-0.003 -0.78905,-0.0571 -0.45993,-0.12041 z m -65.32278,-3.98005 c -0.32911,-0.41966 -0.31975,-0.429 0.0999,-0.0999 0.44073,0.34565 0.58088,0.56293 0.36312,0.56293 -0.0549,0 -0.2633,-0.20836 -0.46302,-0.46302 z m -111.513265,-3.04271 -0.504029,-0.59531 0.595313,0.50403 c 0.559445,0.47365 0.715761,0.68659 0.504028,0.68659 -0.05021,0 -0.318098,-0.26789 -0.595312,-0.59531 z m -0.310354,-4.16719 c 0,-0.50932 0.05445,-0.71768 0.121002,-0.46302 0.06655,0.25466 0.06655,0.67138 0,0.92604 -0.06655,0.25466 -0.121002,0.0463 -0.121002,-0.46302 z m 74.046419,-0.77861 c -0.77545,-0.47927 -0.11308,-1.225792 2.09455,-2.360696 1.23563,-0.635212 2.81611,-1.380358 3.51216,-1.655895 1.15931,-0.45892 1.33143,-0.46691 2.05052,-0.09504 0.80071,0.414046 1.08491,0.755385 0.41486,0.498263 -0.20356,-0.0781 -0.44052,-0.0281 -0.52657,0.111152 -0.0861,0.139223 -1.43755,0.878813 -3.00333,1.643538 -1.56578,0.764725 -3.15156,1.543188 -3.52397,1.729928 -0.37304,0.18709 -0.83029,0.24487 -1.01822,0.12875 z m -73.843219,-0.64421 c 0,-0.0549 0.208359,-0.263289 0.463021,-0.463023 0.419645,-0.329088 0.429003,-0.319749 0.0999,0.09991 -0.345644,0.440713 -0.562917,0.580893 -0.562917,0.363113 z m 3.96875,-2.016762 -0.926041,-0.194918 1.140094,-0.03485 c 0.700432,-0.02143 1.077035,0.0672 0.976572,0.229764 -0.08994,0.145521 -0.186261,0.24892 -0.214053,0.229764 -0.02779,-0.01915 -0.467249,-0.122555 -0.976572,-0.229764 z m 80.648309,-1.23907 c 0.191,-0.07644 0.4192,-0.06704 0.50712,0.0209 0.0879,0.08792 -0.0684,0.150469 -0.34727,0.138986 -0.30822,-0.0127 -0.37091,-0.07541 -0.15985,-0.159862 z M 81.577411,95.217435 c 0,-0.05493 0.20836,-0.263287 0.463021,-0.463021 0.419645,-0.329089 0.429003,-0.319749 0.0999,0.09991 -0.345644,0.440716 -0.562917,0.580892 -0.562917,0.363114 z M 645.6691,91.513268 c 0,-0.05493 0.20836,-0.263287 0.46302,-0.463021 0.41965,-0.329088 0.42899,-0.319749 0.0999,0.09991 -0.34566,0.440717 -0.56293,0.580893 -0.56293,0.363114 z m 1.32291,-1.058333 c 0,-0.05493 0.20836,-0.263287 0.46303,-0.463021 0.41965,-0.329089 0.42899,-0.319749 0.0999,0.09991 -0.34565,0.440716 -0.56293,0.580892 -0.56293,0.363114 z m 1.32292,-1.058333 c 0,-0.05493 0.20836,-0.263287 0.46302,-0.463021 0.41966,-0.329089 0.429,-0.319749 0.0999,0.09991 -0.34565,0.440717 -0.56293,0.580893 -0.56293,0.363115 z m 1.70315,-7.374573 -0.77711,-0.859896 0.8599,0.777108 c 0.47294,0.427408 0.85989,0.814361 0.85989,0.859896 0,0.204417 -0.2183,0.02434 -0.94268,-0.777108 z m -25.52671,-0.807058 c 0.64876,-0.683895 1.23767,-1.243463 1.30868,-1.243463 0.071,0 -0.25355,0.394785 -0.7212,0.877279 -0.46768,0.482521 -0.75893,0.988537 -0.64722,1.124479 0.11171,0.13597 0.095,0.158936 -0.0371,0.05107 -0.13213,-0.107897 -0.42979,-0.05434 -0.66146,0.118983 -0.23167,0.173329 0.10959,-0.244422 0.75835,-0.928343 z M 87.662828,81.988268 c 0,-0.05493 0.208359,-0.263287 0.463021,-0.463021 0.419645,-0.329088 0.429003,-0.319748 0.0999,0.09991 -0.345644,0.440717 -0.562917,0.580893 -0.562917,0.363114 z m 4.321527,-1.608243 c 0,-0.211878 0.09922,-0.323929 0.220488,-0.248973 0.121266,0.07496 0.220485,0.248312 0.220485,0.385233 0,0.136949 -0.09922,0.248973 -0.220485,0.248973 -0.121269,0 -0.220488,-0.173355 -0.220488,-0.385233 z m -1.180277,-1.400704 c -0.329107,-0.419656 -0.319749,-0.428996 0.0999,-0.09991 0.254661,0.199734 0.463021,0.408093 0.463021,0.463021 0,0.217779 -0.217273,0.0776 -0.562917,-0.363114 z M 628.33889,77.590258 c 0.71665,-0.727604 1.36255,-1.322916 1.43531,-1.322916 0.0728,0 -0.45408,0.595312 -1.17073,1.322916 -0.71665,0.727604 -1.36255,1.322917 -1.43531,1.322917 -0.0728,0 0.45408,-0.595313 1.17073,-1.322917 z M 90.573245,78.284102 c 0,-0.05493 0.208359,-0.263287 0.463021,-0.463021 0.419645,-0.329089 0.429003,-0.319749 0.0999,0.09991 -0.345644,0.440717 -0.562917,0.580893 -0.562917,0.363115 z M 640.0467,78.208775 c 0.1819,-0.0734 0.47956,-0.0734 0.66146,0 0.1819,0.07339 0.0331,0.133456 -0.33073,0.133456 -0.3638,0 -0.51263,-0.06006 -0.33073,-0.133456 z M 96.609052,76.615771 c 0.190995,-0.07644 0.419198,-0.06704 0.507119,0.0209 0.08792,0.08792 -0.06835,0.150468 -0.347265,0.138985 -0.308227,-0.0127 -0.37092,-0.07541 -0.159854,-0.159861 z m 1.769401,-0.348429 c -0.206951,-0.334857 0.143307,-0.334857 0.661459,0 0.342024,0.221033 0.335039,0.257042 -0.05053,0.260535 -0.246073,0.0026 -0.520991,-0.115015 -0.610929,-0.260535 z m -6.904305,-2.71198 -0.504028,-0.595312 0.595312,0.504031 c 0.327422,0.277204 0.595313,0.545095 0.595313,0.595313 0,0.211719 -0.212934,0.0554 -0.686597,-0.504032 z M 633.23368,72.695467 c 0.49366,-0.509323 0.95708,-0.926042 1.02984,-0.926042 0.0728,0 -0.2716,0.416719 -0.76526,0.926042 -0.49366,0.509323 -0.95707,0.926041 -1.02983,0.926041 -0.0728,0 0.27159,-0.416718 0.76525,-0.926041 z m 1.32292,-1.555115 c 0,-0.05493 0.20836,-0.263287 0.46302,-0.463021 0.41965,-0.329089 0.42899,-0.319749 0.0999,0.09991 -0.34566,0.440716 -0.56293,0.580892 -0.56293,0.363114 z M 87.505398,69.322029 87.00137,68.726717 l 0.595312,0.504031 c 0.327422,0.277204 0.595313,0.545095 0.595313,0.595312 0,0.21172 -0.212934,0.0554 -0.686597,-0.504031 z m 77.101572,-5.935424 c 0.191,-0.07644 0.4192,-0.06705 0.50712,0.0209 0.0879,0.08792 -0.0684,0.150468 -0.34727,0.138986 -0.30822,-0.0127 -0.37091,-0.07541 -0.15985,-0.159862 z m 1.83555,-0.0061 c 0.32742,-0.06308 0.8632,-0.06308 1.19062,0 0.32743,0.06305 0.0595,0.114644 -0.59531,0.114644 -0.65484,0 -0.92273,-0.05159 -0.59531,-0.114644 z m -82.376705,-0.673073 -0.504029,-0.595313 0.595313,0.504032 c 0.327422,0.277204 0.595312,0.545094 0.595312,0.595312 0,0.21172 -0.212934,0.0554 -0.686596,-0.504031 z m 85.832825,0.414575 c 0.19099,-0.07644 0.4192,-0.06704 0.50712,0.0209 0.0879,0.08792 -0.0684,0.150468 -0.34727,0.138985 -0.30822,-0.0127 -0.37092,-0.07541 -0.15985,-0.159861 z m 465.03819,-3.324992 -0.77711,-0.859896 0.8599,0.777108 c 0.47294,0.427408 0.85989,0.814361 0.85989,0.859896 0,0.204417 -0.2183,0.02434 -0.94268,-0.777108 z m -553.379445,-0.661458 -0.641432,-0.727604 0.727604,0.641429 c 0.680056,0.599519 0.848939,0.813779 0.641432,0.813779 -0.04739,0 -0.374814,-0.327422 -0.727604,-0.727604 z m 1.02875,-3.686466 c 0.190995,-0.07644 0.419198,-0.06705 0.507119,0.0209 0.08792,0.08792 -0.06835,0.150468 -0.347266,0.138986 -0.308226,-0.0127 -0.370919,-0.07541 -0.159853,-0.159862 z m 2.116667,-0.264583 c 0.190995,-0.07644 0.419198,-0.06705 0.507119,0.0209 0.08792,0.08792 -0.06835,0.150468 -0.347266,0.138985 -0.308226,-0.0127 -0.370919,-0.07541 -0.159853,-0.159861 z m 1.637109,-0.34843 c -0.218281,-0.141076 -0.277812,-0.256487 -0.132291,-0.256487 0.145521,0 0.443177,0.115411 0.661458,0.256487 0.218281,0.141076 0.277813,0.256487 0.132292,0.256487 -0.145521,0 -0.443177,-0.115411 -0.661459,-0.256487 z M 613.07574,51.480355 c 0.191,-0.07644 0.4192,-0.06705 0.50712,0.0209 0.0879,0.08792 -0.0684,0.150468 -0.34726,0.138986 -0.30824,-0.0127 -0.37092,-0.07541 -0.15986,-0.159862 z M 78.689042,45.200972 c 0.195035,-0.194786 3.138657,-0.256963 3.325395,-0.07022 0.09918,0.09919 -0.633259,0.18034 -1.627651,0.18034 -0.994391,0 -1.758376,-0.04956 -1.697744,-0.11012 z m -1.907881,-3.263318 c -0.329108,-0.419655 -0.319749,-0.428995 0.0999,-0.09991 0.44073,0.345651 0.580887,0.562927 0.363125,0.562927 -0.05494,0 -0.2633,-0.208359 -0.463021,-0.463021 z m -0.346115,-1.04693 c -0.143584,-0.377084 -0.113194,-0.407458 0.148114,-0.148113 0.180821,0.179493 0.262115,0.392985 0.180652,0.474451 -0.08146,0.08144 -0.229407,-0.0654 -0.328766,-0.326338 z m 0.644448,-4.410789 c 0,-0.05493 0.20836,-0.263287 0.463021,-0.463021 0.419645,-0.329088 0.429004,-0.319749 0.0999,0.09991 -0.345643,0.440716 -0.562917,0.580893 -0.562917,0.363114 z m 8.400521,-2.985743 c 0.181902,-0.0734 0.479558,-0.0734 0.661459,0 0.181901,0.0734 0.03307,0.133455 -0.330729,0.133455 -0.363802,0 -0.512631,-0.06006 -0.33073,-0.133455 z m 3.576911,-0.0082 c 0.257431,-0.06707 0.614619,-0.06268 0.79375,0.0098 0.179131,0.07247 -0.03149,0.127344 -0.468056,0.121973 -0.436563,-0.0053 -0.583126,-0.06469 -0.325694,-0.131789 z"
         id="path280" />
      <path
         style="fill:#070603;stroke-width:0.264583"
         d="m 335.44513,151.98064 c -0.14552,-0.14184 -0.6813,-0.37838 -1.19063,-0.52565 -1.00065,-0.28935 -5.50561,-2.24443 -7.36049,-3.19434 -1.0758,-0.55094 -3.3196,-2.36842 -5.28699,-4.28249 -0.58134,-0.56557 -1.4369,-1.00608 -2.5577,-1.31686 -3.67583,-1.01928 -4.92442,-2.0801 -5.11209,-4.34332 l -0.12118,-1.46106 h -2.44129 c -3.08696,0 -4.07888,-0.31861 -4.29081,-1.37829 -0.18989,-0.94943 -1.52679,-1.98027 -5.10861,-3.93909 -3.1903,-1.74471 -3.96875,-2.44843 -3.96875,-3.58775 0,-0.65831 0.19216,-1.01068 0.79375,-1.45545 0.43656,-0.32276 0.79375,-0.68008 0.79375,-0.79406 0,-0.6041 -5.16811,-1.64531 -14.94896,-3.01173 -8.85979,-1.23775 -13.52891,-2.73439 -22.59184,-7.2417 l -5.39391,-2.68258 -2.41129,0.15528 c -1.32622,0.0854 -2.662,0.20548 -2.96841,0.26681 -0.47246,0.0946 -0.55286,-0.0101 -0.52916,-0.68853 0.0323,-0.92591 0.0772,-0.94157 3.34666,-1.16898 2.63446,-0.18325 2.37102,-0.2699 8.85211,2.91113 4.39353,2.15641 7.56588,3.48827 10.92435,4.58642 1.93197,0.63172 6.99911,1.77387 8.9194,2.01044 3.55268,0.4377 10.44265,1.4361 12.03855,1.74448 2.71693,0.52498 5.89241,1.62112 6.52294,2.25165 0.95015,0.95015 0.8929,1.07749 -1.23128,2.739 -0.65515,0.51247 -0.65641,0.5213 -0.13229,0.92858 0.29104,0.22614 1.42214,0.89961 2.51354,1.49659 3.61921,1.97958 5.53929,3.3946 5.9544,4.38811 l 0.38447,0.92017 3.11442,-0.0787 c 1.71292,-0.0433 3.27142,0.0198 3.46333,0.14015 0.26225,0.16449 0.30384,0.63976 0.16743,1.91346 -0.13148,1.22788 -0.0867,1.8088 0.16256,2.10915 0.53877,0.64919 2.08878,1.34351 3.77721,1.69199 1.40047,0.28903 1.80494,0.55031 4.30427,2.7804 2.76545,2.4675 3.76986,3.07655 8.293,5.02851 5.27722,2.2774 5.91431,2.22404 22.10496,-1.85161 4.80218,-1.20885 9.08843,-2.26001 9.525,-2.3359 0.43656,-0.0759 2.40109,-0.49244 4.36562,-0.92564 1.96453,-0.4332 4.04813,-0.85564 4.63021,-0.93872 1.3865,-0.19793 2.12423,-0.33636 5.28434,-0.9915 1.45116,-0.30083 4.011,-0.76467 5.68854,-1.03071 12.7295,-2.01882 19.85296,-3.39214 26.99483,-5.20432 11.11872,-2.82128 19.1017,-4.17584 27.78125,-4.71398 1.38245,-0.0857 4.29948,-0.39275 6.48229,-0.68231 5.37649,-0.71318 9.39266,-0.9489 17.06563,-1.00166 3.56526,-0.0246 8.74448,-0.21913 11.50937,-0.43249 7.04406,-0.54358 12.07733,-0.90998 14.55209,-1.05931 4.33795,-0.26178 5.79871,-0.42365 9.65729,-1.0701 4.44336,-0.74446 4.15134,-0.7597 7.14375,0.37303 1.52797,0.57841 3.72639,1.53797 4.8854,2.13236 1.15901,0.59438 3.00447,1.44674 4.10104,1.8941 1.09657,0.44738 2.35096,0.96999 2.78752,1.16136 2.0035,0.87828 5.76908,2.25353 7.9375,2.89891 1.30969,0.38981 2.74688,0.8224 3.19378,0.96131 1.29752,0.40333 1.64643,0.31189 1.81272,-0.47504 0.44905,-2.12505 -1.25548,-5.91944 -5.16554,-11.49866 -1.16872,-1.66761 -0.60693,-1.96315 3.86321,-2.03221 1.89177,-0.0292 4.18869,-0.16986 5.10428,-0.3125 3.0107,-0.4691 12.01423,-2.37003 16.32697,-3.44717 2.32833,-0.58153 6.31692,-1.51607 8.86354,-2.07677 2.54661,-0.56068 6.57172,-1.45119 8.94466,-1.97887 4.38325,-0.97473 13.31923,-3.25398 17.64596,-4.50086 4.61357,-1.32953 15.87556,-4.0141 20.6375,-4.91945 5.48037,-1.04193 9.79583,-2.08722 12.96708,-3.14087 13.66292,-4.539558 15.65682,-5.348892 21.35677,-8.669042 4.74276,-2.762567 8.89513,-6.096265 9.44504,-7.582826 0.56952,-1.539505 -1.35684,-3.344254 -5.13972,-4.815284 -1.41422,-0.549937 -5.34604,-0.719667 -7.38129,-0.318638 -3.88173,0.764884 -7.9856,1.836208 -10.60937,2.769579 -1.45576,0.517869 -3.15494,0.971762 -3.77597,1.008671 -1.22362,0.07271 -0.65085,-0.399018 -7.55746,6.224138 -1.43063,1.371917 -2.71457,2.535422 -2.85316,2.585561 -0.35906,0.12991 -1.02796,-0.481436 -1.02796,-0.939483 0,-0.544591 5.16239,-5.626682 12.03894,-11.851666 9.40546,-8.514265 12.56731,-12.352205 12.56731,-15.254446 0,-1.395942 -0.89826,-3.134096 -1.61964,-3.134096 -0.30279,0 -1.1379,-0.565547 -1.85579,-1.25677 -3.26501,-3.143806 -7.33973,-4.848913 -15.44227,-6.461999 -1.45521,-0.289718 -3.41974,-0.683709 -4.36563,-0.875559 -0.94589,-0.191849 -2.19234,-0.423703 -2.7699,-0.515223 -1.28079,-0.202962 -4.00129,-0.875877 -4.90302,-1.212797 -0.3638,-0.135916 -0.95911,-0.302233 -1.32291,-0.36957 -0.36381,-0.06731 -1.79256,-0.437065 -3.175,-0.821663 -1.38245,-0.384572 -4.20021,-1.151626 -6.26171,-1.704552 -3.24824,-0.871247 -9.73011,-2.843662 -11.33309,-3.448606 -1.07407,-0.405368 -6.9487,-2.210091 -9.12812,-2.804239 -3.4898,-0.951362 -9.85978,-2.897029 -13.36146,-4.081198 -1.74625,-0.590497 -5.25859,-1.600385 -7.80521,-2.244143 -2.54661,-0.643784 -6.17802,-1.594485 -8.06979,-2.112698 -1.89177,-0.518213 -5.16599,-1.34276 -7.27604,-1.832372 -5.96821,-1.384776 -13.35482,-3.572351 -15.74271,-4.662223 -0.29104,-0.132847 -2.25557,-0.727921 -4.36563,-1.322387 -2.11005,-0.594466 -4.61036,-1.305216 -5.55625,-1.579457 -0.94588,-0.27424 -3.2676,-0.927814 -5.15937,-1.452377 -1.89177,-0.524589 -3.73724,-1.064313 -4.10104,-1.199383 -0.36381,-0.135096 -0.95912,-0.301413 -1.32292,-0.369596 -0.3638,-0.06821 -1.4949,-0.377031 -2.51354,-0.686276 -1.01865,-0.309245 -3.69755,-1.038384 -5.95313,-1.620335 -2.25557,-0.581925 -5.05354,-1.341702 -6.21771,-1.688386 -2.05036,-0.610552 -5.9631,-1.503045 -10.31385,-2.352543 -1.76231,-0.344117 -2.17033,-0.353827 -2.46539,-0.05874 -0.42463,0.42463 -2.21051,-0.0058 -6.79992,-1.638565 -1.60073,-0.569489 -4.24776,-1.423193 -5.88227,-1.897115 -1.63449,-0.473895 -2.9074,-0.965888 -2.82864,-1.093311 0.27152,-0.4393409 2.14345,-0.228865 6.21475,0.698764 2.24602,0.511757 5.691,1.231186 7.65553,1.598772 1.96453,0.367585 5.11969,0.971179 7.01146,1.341305 3.39408,0.664051 15.93691,3.93065 22.88646,5.960427 1.96453,0.573802 6.36984,1.816576 9.78958,2.761721 3.41974,0.945145 9.25381,2.717668 12.96459,3.938931 3.71078,1.221264 8.35422,2.597098 10.31875,3.057446 1.96453,0.460349 6.6675,1.651079 10.45104,2.646098 3.78354,0.995019 8.14459,2.116667 9.69121,2.492587 1.54665,0.37592 4.8804,1.3834 7.40833,2.238851 2.52797,0.855477 6.38223,2.05658 8.56504,2.669143 4.40839,1.237112 13.73415,4.103608 16.80105,5.16419 1.0914,0.377429 4.1275,1.259311 6.74687,1.959743 2.61938,0.700431 6.72703,1.815571 9.12813,2.478061 2.40109,0.662516 5.67531,1.458859 7.27604,1.769665 12.37326,2.402523 16.61959,3.688133 20.10725,6.087719 0.67558,0.464793 1.524,0.87757 1.88539,0.917231 0.82653,0.09073 3.01779,2.449565 3.92824,4.228677 2.07854,4.061618 -0.12501,7.473844 -12.03026,18.629021 l -1.4552,1.36353 1.18901,-0.409046 c 5.22184,-1.796468 13.12852,-3.562006 15.95191,-3.562006 3.39926,0 6.79088,1.270926 9.31069,3.488928 1.89132,1.664812 2.06973,3.252709 0.60926,5.422001 -0.81431,1.20949 -5.45423,4.819994 -8.46773,6.589024 -6.1954,3.636989 -8.21801,4.502891 -18.99002,8.130012 -6.33759,2.13397 -8.51149,2.73431 -13.62604,3.76285 -11.06011,2.22422 -17.11751,3.66504 -26.06146,6.19909 -5.21213,1.47671 -16.88912,4.27698 -23.8125,5.7105 -1.81901,0.37663 -4.88133,1.08892 -6.80516,1.58287 -9.31982,2.39281 -20.10408,4.35848 -23.91204,4.35848 h -2.63893 l 0.31036,0.59531 c 0.17071,0.32742 0.94657,1.55774 1.72415,2.73405 2.15837,3.26503 2.80398,4.89434 2.95138,7.44852 0.10215,1.76953 0.0397,2.31037 -0.33256,2.87843 -0.42788,0.65304 -0.55753,0.69027 -1.95122,0.56028 -2.61665,-0.24408 -9.96598,-2.85041 -16.93931,-6.00729 -1.65606,-0.74972 -3.27168,-1.53389 -3.59027,-1.74262 -0.71289,-0.46712 -4.99721,-2.20205 -6.14439,-2.4882 -0.53869,-0.13435 -0.94631,-0.10249 -1.13765,0.0889 -0.50703,0.50713 -7.06343,1.26354 -16.41145,1.89344 -3.41974,0.23042 -8.44235,0.59086 -11.16137,0.80094 -2.71901,0.21011 -7.42198,0.38307 -10.45104,0.38436 -6.4593,0.003 -13.14257,0.37105 -16.87428,0.92985 -1.46082,0.21876 -4.38242,0.52414 -6.49248,0.67863 -9.47581,0.69385 -17.21514,1.99949 -28.75338,4.85072 -7.42587,1.83501 -9.26949,2.2062 -19.79766,3.98594 -4.80219,0.8118 -10.21953,1.76496 -12.03854,2.11815 -1.81901,0.35322 -4.73604,0.89564 -6.48229,1.20539 -3.8463,0.68226 -10.86734,2.28441 -20.1603,4.60039 -9.37072,2.33537 -16.2161,3.48607 -16.88137,2.83771 z M 77.344078,122.12924 c -2.541368,-0.24948 -3.227422,-0.43183 -3.967493,-1.05458 -1.483974,-1.24867 -0.864974,-2.96677 1.621901,-4.50175 l 1.627827,-1.00476 -0.865944,-0.17711 c -1.26559,-0.25884 -1.379403,-0.67395 -0.60239,-2.19707 0.376026,-0.73708 1.051494,-2.41173 1.501037,-3.72142 0.70336,-2.04915 0.935109,-2.44009 1.661676,-2.80315 0.783241,-0.39138 0.812866,-0.45334 0.409519,-0.8567 -0.577924,-0.57793 -0.496435,-5.09849 0.103971,-5.7677 0.213027,-0.237441 1.125762,-0.638788 2.028296,-0.891862 0.902536,-0.2531 1.938631,-0.588724 2.302433,-0.74586 0.615368,-0.265774 0.571151,-0.295804 -0.634598,-0.431033 -2.02751,-0.227409 -2.09002,-0.646033 -0.462187,-3.095334 0.75927,-1.142418 1.558115,-2.684594 1.775214,-3.427068 0.394986,-1.350883 1.066464,-1.954768 2.178291,-1.959081 0.653407,-0.0026 1.885474,-0.88101 2.461964,-1.755431 0.678603,-1.029309 0.616667,-2.395696 -0.166212,-3.666781 -0.358513,-0.582083 -0.652454,-1.258041 -0.6532,-1.502145 -0.0024,-0.802376 1.244102,-1.49016 3.051667,-1.683729 0.940213,-0.100674 1.709478,-0.274664 1.709478,-0.386662 0,-0.111972 -0.420494,-0.612008 -0.934434,-1.111198 -0.907087,-0.881036 -0.919861,-0.920802 -0.436473,-1.358265 0.542769,-0.491199 3.274701,-1.083627 6.395559,-1.386945 2.266299,-0.22024 2.299256,-0.196348 -2.134708,-1.548501 -1.684751,-0.513768 -3.249367,-1.144799 -3.476925,-1.402291 -0.22756,-0.257493 -0.493905,-0.95766 -0.591883,-1.555883 -0.161264,-0.984673 -0.277201,-1.117388 -1.223817,-1.400995 -1.923235,-0.57621 -3.959905,-2.963439 -3.515752,-4.120885 0.199126,-0.518928 1.141529,-1.001766 2.869364,-1.470158 l 1.316556,-0.356896 -2.840905,-0.712708 c -1.562497,-0.39198 -3.037859,-0.875004 -3.278585,-1.073335 -0.240723,-0.198359 -0.853442,-1.015498 -1.361601,-1.815862 -0.508159,-0.800365 -1.262354,-1.846316 -1.675993,-2.324312 -1.458177,-1.685078 -0.69569,-3.07131 1.861635,-3.384523 0.818036,-0.100198 2.023118,-0.261224 2.677962,-0.357876 l 1.190625,-0.175683 -3.042708,-1.011899 c -4.91008,-1.632929 -5.038231,-1.728047 -5.432661,-4.03307 -0.0956,-0.558668 -0.360879,-1.634596 -0.589513,-2.390934 -0.568174,-1.879547 -0.309494,-2.151698 2.140194,-2.251737 L 82.23379,45.1788 80.251954,44.017994 c -2.633231,-1.542362 -3.746031,-2.389743 -3.551512,-2.704492 0.08801,-0.142399 0.01437,-0.434419 -0.163635,-0.648917 -0.464431,-0.559594 -0.133217,-2.870941 0.548619,-3.828494 1.669542,-2.344658 7.502946,-3.772165 12.945651,-3.167989 4.022177,0.446485 7.265887,1.680263 25.016123,9.515105 2.0373,0.899239 7.39511,3.103827 11.90625,4.899078 4.51115,1.79525 9.21412,3.706468 10.45105,4.247118 2.67367,1.168664 8.6602,3.722264 12.17083,5.191575 1.38245,0.57859 4.23995,1.707567 6.35,2.508805 2.11005,0.801238 4.72943,1.895184 5.82083,2.431018 1.91564,0.940488 2.08062,0.97364 4.7625,0.956654 5.14344,-0.03257 12.92336,-1.851951 14.97729,-3.502554 1.29841,-1.043411 11.12168,-5.06685 12.67167,-5.190067 0.14552,-0.01164 0.56224,-0.216376 0.92605,-0.455109 0.3638,-0.23876 1.67348,-0.794227 2.91041,-1.234387 1.23693,-0.440188 4.57068,-1.650127 7.40834,-2.688776 4.36925,-1.599247 10.23019,-3.618812 23.01875,-7.931785 1.23692,-0.417168 4.86833,-1.673304 8.06979,-2.79146 6.75342,-2.358681 9.84354,-3.379681 11.50937,-3.802803 0.65485,-0.166343 1.84547,-0.476118 2.64584,-0.688419 1.39037,-0.368803 7.95737,-1.266402 8.11464,-1.109134 0.0414,0.04143 -0.78512,0.343641 -1.83683,0.671539 -1.0517,0.327898 -2.5075,0.819362 -3.2351,1.092121 -0.72761,0.272759 -2.63261,0.909188 -4.23334,1.414277 -2.68131,0.846085 -8.93859,2.986326 -17.85937,6.108621 -1.96453,0.687599 -6.54844,2.237608 -10.18646,3.444478 -5.91991,1.963843 -9.59945,3.25538 -16.40417,5.757862 -3.17257,1.166734 -7.07544,2.516585 -10.18646,3.523033 -4.95162,1.601947 -8.68941,3.135313 -8.81893,3.617807 -0.0666,0.24802 -0.46105,0.522631 -0.87658,0.610209 -0.41554,0.08758 -1.71968,0.623358 -2.89809,1.190598 -2.4838,1.195599 -6.41753,2.392839 -10.09442,3.072236 -0.32742,0.06051 -0.59531,0.271753 -0.59531,0.46945 0,0.627565 -0.76039,1.021318 -1.91959,0.993987 -1.77829,-0.04188 -3.69016,-0.271886 -4.69325,-0.564621 -0.50836,-0.148352 -1.93711,-0.27133 -3.175,-0.273341 -2.38735,-0.0037 -3.44133,-0.174228 -3.44133,-0.556392 0,-0.128561 0.30139,-0.233733 0.66976,-0.233733 0.36837,0 0.7383,-0.178594 0.82206,-0.396875 0.0838,-0.218282 0.33576,-0.396875 0.55999,-0.396875 0.23442,0 0.0256,-0.277389 -0.49133,-0.652674 -0.49446,-0.358961 -1.13715,-0.828967 -1.42819,-1.044417 -0.29104,-0.21545 -1.30307,-0.448468 -2.24896,-0.517789 -2.04402,-0.149807 -6.38759,-1.806549 -16.47067,-6.28232 -1.27351,-0.565282 -2.37131,-1.0278 -2.43956,-1.0278 -0.0682,0 -0.75269,-0.287179 -1.52099,-0.638149 -0.76829,-0.350996 -1.99221,-0.872278 -2.71982,-1.158425 -0.7276,-0.286147 -2.21588,-0.885243 -3.30729,-1.331304 -1.09141,-0.446087 -3.98604,-1.595279 -6.43252,-2.553732 -2.44648,-0.958479 -4.64914,-1.850019 -4.89479,-1.9812 -0.24566,-0.13118 -1.33962,-0.596635 -2.43102,-1.034362 -1.09141,-0.437753 -3.93724,-1.696058 -6.32407,-2.796222 -2.38684,-1.100191 -4.43236,-2.000356 -4.54561,-2.000356 -0.11324,0 -0.95835,-0.344461 -1.87801,-0.76544 -3.233333,-1.480158 -4.076738,-1.828244 -6.69919,-2.764922 -3.936579,-1.406075 -5.802405,-1.815783 -8.454967,-1.856687 -3.078615,-0.04749 -5.37041,0.243999 -7.147997,0.909055 -1.890128,0.707205 -2.713596,1.396947 -3.028254,2.536561 -0.485082,1.756807 -0.198152,2.215726 2.313612,3.700303 1.262078,0.74594 3.027587,1.722967 3.923353,2.171145 1.668251,0.834681 1.946704,1.148397 1.736997,1.956964 -0.105415,0.406453 -0.484105,0.463021 -3.099628,0.463021 h -2.979542 l 0.347041,1.653646 c 0.544005,2.592175 0.409234,2.467345 3.912786,3.624527 6.844067,2.26052 6.699419,2.18686 6.427031,3.272155 -0.197081,0.78523 -0.55789,0.890058 -4.756857,1.382183 -1.735828,0.203438 -3.203321,0.417169 -3.261096,0.474927 -0.05777,0.05779 0.324126,0.618728 0.848665,1.246558 0.524539,0.627856 1.177012,1.579245 1.44994,2.114232 0.284687,0.558033 0.812358,1.094423 1.237782,1.258279 1.16912,0.450242 4.409115,1.104927 7.434464,1.502278 2.62699,0.345017 3.214132,0.591185 3.224911,1.352021 0.0057,0.405765 -0.987994,0.835872 -2.377199,1.028912 -0.654844,0.09099 -2.296626,0.418967 -3.648404,0.728847 -1.827995,0.419047 -2.438169,0.662887 -2.38125,0.951574 0.115639,0.586529 1.312635,1.377474 2.893838,1.912197 1.596041,0.539723 1.724869,0.697812 1.93997,2.380641 l 0.153742,1.20277 1.645531,0.47281 c 0.905042,0.260033 3.371937,0.921597 5.481991,1.470157 3.29243,0.855901 3.84811,1.075373 3.91866,1.547654 0.10533,0.705141 -0.49011,1.011158 -2.33116,1.198086 -2.40739,0.244423 -7.494311,0.967185 -8.05118,1.143926 -0.409567,0.12999 -0.227065,0.274823 0.8548,0.678392 1.112049,0.41484 1.375545,0.630079 1.375545,1.123686 0,1.074949 -0.541367,1.275238 -4.977323,1.841632 -0.627473,0.08014 -1.24722,0.211402 -1.37721,0.291756 -0.129989,0.08033 0.04076,0.667226 0.37945,1.304211 0.936204,1.760775 0.608859,3.436355 -1.058434,5.417819 -0.706519,0.839656 -2.153296,1.60954 -3.024656,1.60954 -0.490754,0 -0.789744,0.5012 -0.789744,1.323843 0,0.267758 -0.525209,1.270053 -1.16713,2.227315 l -1.167133,1.740509 1.100987,0.02355 c 3.440541,0.07316 3.910963,0.129196 4.135483,0.492469 0.371252,0.600683 -0.178099,1.336199 -0.998014,1.336199 -0.397661,0 -1.137613,0.273182 -1.644338,0.60706 -1.06013,0.698552 -2.472129,1.289127 -4.360897,1.824007 -1.144032,0.32396 -1.318228,0.4622 -1.28824,1.0223 0.01908,0.35621 0.04884,1.22634 0.06615,1.9336 l 0.03147,1.28595 2.153941,-0.0953 c 2.025973,-0.0897 2.159175,-0.062 2.242003,0.46529 0.129283,0.82307 -0.547357,1.27688 -3.205263,2.14974 l -2.381197,0.782 -0.661512,1.958 c -0.363834,1.07691 -0.810342,2.21805 -0.992243,2.53592 -0.576821,1.00794 -0.426138,1.18859 0.833766,0.99965 1.541947,-0.23122 2.275088,0.0204 2.275088,0.7805 0,0.76081 -0.41806,1.11985 -3.066907,2.63387 -1.177475,0.67302 -2.360144,1.46598 -2.628148,1.76213 -0.450276,0.49755 -0.454552,0.57118 -0.05631,0.9694 0.783022,0.78304 4.379355,0.98021 8.794071,0.48215 1.029002,-0.11609 5.623724,-1.28881 10.186459,-2.5999 1.236927,-0.35544 3.975364,-1.26735 6.085416,-2.02647 2.11005,-0.75914 4.55083,-1.60004 5.42396,-1.8687 0.87312,-0.26865 2.65906,-0.85709 3.96875,-1.30762 1.30968,-0.45051 3.45281,-1.10699 4.7625,-1.45883 1.30968,-0.35185 3.98859,-1.06918 5.95312,-1.59409 1.96453,-0.52488 5.17922,-1.41132 7.14375,-1.96982 1.96453,-0.55851 4.46485,-1.21386 5.55625,-1.45632 4.59077,-1.01984 15.66496,-4.77171 16.79977,-5.69164 0.14622,-0.11853 1.03976,-0.538638 1.98565,-0.933529 0.94589,-0.394917 3.14854,-1.407398 4.89479,-2.24999 1.74625,-0.842619 3.85891,-1.730798 4.6948,-1.973792 1.43023,-0.41574 2.58124,-0.368326 2.58124,0.106336 0,0.116179 0.50602,0.113348 1.12448,-0.0063 1.54077,-0.298079 5.61605,-0.29456 6.78233,0.0058 0.5262,0.13552 1.67111,0.386927 2.54424,0.558668 0.87312,0.171714 2.24234,0.577294 3.0427,0.90125 1.60645,0.650266 6.02886,3.648257 5.59497,3.792907 -0.1504,0.0501 -1.70274,-0.51409 -3.44966,-1.253807 -1.74692,-0.739695 -4.10512,-1.591521 -5.24045,-1.892908 -2.77929,-0.737817 -7.42847,-0.927629 -10.51412,-0.429287 -2.2311,0.360363 -2.41233,0.353642 -3.21309,-0.118798 -0.83327,-0.491648 -0.87185,-0.491516 -2.13345,0.0077 -2.86217,1.132311 -5.78152,2.809664 -5.86128,3.36765 -0.18852,1.31884 -9.96905,5.05293 -19.36833,7.39457 -2.11006,0.52567 -5.68193,1.47439 -7.9375,2.10825 -2.25558,0.63387 -5.94651,1.64439 -8.20209,2.2456 -2.25557,0.60121 -8.70453,2.63176 -14.33102,4.51231 -11.936043,3.98942 -16.358871,5.20928 -20.114816,5.54789 -2.750839,0.24799 -3.031059,0.25323 -4.712494,0.0882 z m 128.723132,-6.43358 c -0.19087,-0.30883 0.9567,-0.75142 2.37791,-0.91708 l 1.32292,-0.1542 -0.79375,0.44625 c -0.9148,0.5143 -2.73381,0.90538 -2.90708,0.62503 z m -7.47782,-0.18778 c 0.25467,-0.0666 0.67138,-0.0666 0.92605,0 0.25466,0.0665 0.0463,0.12099 -0.46302,0.12099 -0.50933,0 -0.71769,-0.0545 -0.46303,-0.12099 z m -2.15427,-0.53456 c -0.94721,-0.33465 -1.08034,-0.4563 -0.71999,-0.65797 0.66747,-0.37354 1.51014,-0.151 1.95017,0.51501 0.4542,0.68747 0.34641,0.69998 -1.23018,0.14296 z m 36.88237,-1.66182 c -0.19879,-0.32166 0.0979,-0.42852 1.32138,-0.47594 0.58209,-0.0225 0.87974,0.0246 0.66146,0.10467 -1.27714,0.46882 -1.8556,0.57714 -1.98284,0.37127 z m 10.72784,-1.07493 c 0.3536,-0.2237 2.32906,-0.37047 2.08087,-0.15459 -0.0606,0.0527 -0.63983,0.16364 -1.28712,0.24643 -0.76136,0.0974 -1.0416,0.065 -0.79375,-0.0918 z m -51.6075,-1.99048 c -1.72753,-0.97981 -2.90653,-1.8028 -2.90861,-2.03031 -0.001,-0.10914 0.32562,-0.19376 0.7258,-0.18804 0.51905,0.007 1.14471,0.42386 2.18281,1.45285 0.80037,0.79336 1.39568,1.44209 1.32292,1.44164 -0.0728,0 -0.66807,-0.30472 -1.32292,-0.67614 z m -5.02708,-5.06844 c -1.49641,-0.49234 -3.39492,-1.37189 -3.56894,-1.65346 -0.0728,-0.11774 0.35391,-0.26041 0.94815,-0.31708 1.15235,-0.10991 1.75494,0.17465 3.41454,1.61248 1.02616,0.889 0.93923,0.92821 -0.79375,0.35806 z m 73.90093,-72.067554 c 0.30592,-0.177959 0.44936,-0.517208 0.39688,-0.938662 -0.0765,-0.614522 0.0813,-0.712629 2.2895,-1.4233 1.63357,-0.525753 2.42766,-0.672729 2.55154,-0.472281 0.0989,0.160073 0.46042,0.222144 0.80332,0.137954 2.26684,-0.556578 7.78075,-2.204879 11.5415,-3.450167 6.63418,-2.19673 7.57818,-2.467954 11.17467,-3.210798 1.81901,-0.375708 3.48588,-0.733161 3.70416,-0.794332 1.4282,-0.400288 8.63574,-1.728761 10.05417,-1.853168 3.32759,-0.291836 16.53789,-2.706291 26.06146,-4.763268 5.0528,-1.091353 10.36711,-2.165561 13.09687,-2.647368 1.09141,-0.192643 3.23454,-0.592322 4.7625,-0.888206 4.06964,-0.788061 12.99144,-2.437236 13.75834,-2.543201 0.3638,-0.05027 1.85208,0.05453 3.30729,0.232886 l 2.64583,0.3243 -2.11666,0.455189 c -1.16417,0.250349 -2.89058,0.623094 -3.83646,0.828305 -0.94589,0.205184 -3.4462,0.691567 -5.55625,1.080822 -6.66449,1.229413 -7.51856,1.386179 -8.46667,1.554031 -0.50932,0.09017 -1.81901,0.336841 -2.91042,0.548137 -1.0914,0.21127 -3.35359,0.633439 -5.02708,0.938107 -1.67349,0.304641 -4.47146,0.886989 -6.21771,1.29405 -1.74625,0.407062 -4.24656,0.939562 -5.55625,1.183376 -1.30969,0.243813 -3.27422,0.623887 -4.36562,0.844655 -1.09141,0.220769 -2.28203,0.455454 -2.64584,0.521547 -1.41528,0.257069 -3.39153,0.639154 -5.29166,1.023065 -1.09141,0.22053 -2.44594,0.47154 -3.01009,0.557821 -0.56415,0.08628 -1.27852,0.209655 -1.5875,0.274161 -0.59807,0.124883 -2.92521,0.456644 -6.38262,0.909928 -2.14239,0.280908 -4.92157,0.80817 -10.45104,1.982788 -1.67349,0.355494 -3.57849,0.758031 -4.23334,0.89453 -3.02129,0.629734 -6.20677,1.341755 -6.74687,1.508072 -0.35179,0.10832 -5.43938,1.380913 -7.27605,1.819989 -3.73239,0.892281 -9.94381,2.715683 -13.17294,3.866991 -1.55093,0.552953 -2.02504,0.627566 -1.29696,0.204047 z M 456.22742,13.160724 c -6.46609,-0.777636 -9.29486,-1.136703 -11.37708,-1.444175 -0.94588,-0.139673 -2.3151,-0.323559 -3.04271,-0.408622 -0.7276,-0.08509 -2.39448,-0.32094 -3.70416,-0.524113 -3.33749,-0.517764 -7.90882,-0.9754663 -13.22917,-1.3245575 -1.30969,-0.085937 -3.39328,-0.2679171 -4.63021,-0.4043892 -1.23693,-0.1364721 -2.78474,-0.306361 -3.43958,-0.3775075 -1.41849,-0.1541198 -27.99065,-0.1649942 -31.22084,-0.0127 -4.57483,0.2155825 -7.57491,0.4481248 -8.83351,0.6847152 -1.82168,0.3424502 -2.19885,0.3071548 -2.3504,-0.2199746 -0.0732,-0.2546614 -0.21238,-0.6543675 -0.30924,-0.8882062 -0.42074,-1.0158942 10.36981,-1.5228358 30.54315,-1.4349413 10.25404,0.044688 14.19215,0.1563159 16.93334,0.4800071 1.96453,0.2319867 4.82203,0.4939242 6.35,0.5821098 1.52797,0.088186 3.13531,0.2067983 3.57187,0.2635779 0.43656,0.056753 1.50813,0.1774296 2.38125,0.2681288 2.1658,0.2249752 2.8914,0.318135 7.01146,0.9001919 1.96453,0.2775479 4.70297,0.6485995 6.08542,0.8245736 4.8659,0.619416 6.78384,1.015418 10.65461,2.199878 2.14926,0.657675 4.05426,1.255051 4.23333,1.327521 0.53417,0.216138 -0.48191,0.127397 -5.62753,-0.491437 z m -87.3125,-4.0760646 c 0.59502,-0.3403335 3.10356,-0.6260306 3.47597,-0.3958696 0.52472,0.3242998 -0.50613,0.6004983 -2.28534,0.6123252 -1.01047,0.00661 -1.44325,-0.071967 -1.19063,-0.2164556 z"
         id="path278" />
    </g>
  </g>
</svg>
