<?xml version="1.0" encoding="UTF-8" standalone="no"?>
<svg
   xmlns:dc="http://purl.org/dc/elements/1.1/"
   xmlns:cc="http://creativecommons.org/ns#"
   xmlns:rdf="http://www.w3.org/1999/02/22-rdf-syntax-ns#"
   xmlns:svg="http://www.w3.org/2000/svg"
   xmlns="http://www.w3.org/2000/svg"
   xmlns:sodipodi="http://sodipodi.sourceforge.net/DTD/sodipodi-0.dtd"
   xmlns:inkscape="http://www.inkscape.org/namespaces/inkscape"
   width="34.131248mm"
   height="38.893749mm"
   viewBox="0 0 34.131248 38.893749"
   version="1.1"
   id="svg8"
   inkscape:version="1.0.1 (3bc2e813f5, 2020-09-07)"
   sodipodi:docname="logo.svg">
  <defs
     id="defs2" />
  <sodipodi:namedview
     id="base"
     pagecolor="#ffffff"
     bordercolor="#666666"
     borderopacity="1.0"
     inkscape:pageopacity="0.0"
     inkscape:pageshadow="2"
     inkscape:zoom="1.4"
     inkscape:cx="139.63778"
     inkscape:cy="69.913038"
     inkscape:document-units="mm"
     inkscape:current-layer="layer1"
     inkscape:document-rotation="0"
     showgrid="false"
     fit-margin-top="0"
     fit-margin-left="0"
     fit-margin-right="0"
     fit-margin-bottom="0"
     inkscape:window-width="1425"
     inkscape:window-height="1080"
     inkscape:window-x="2102"
     inkscape:window-y="182"
     inkscape:window-maximized="0" />
  <metadata
     id="metadata5">
    <rdf:RDF>
      <cc:Work
         rdf:about="">
        <dc:format>image/svg+xml</dc:format>
        <dc:type
           rdf:resource="http://purl.org/dc/dcmitype/StillImage" />
        <dc:title></dc:title>
      </cc:Work>
    </rdf:RDF>
  </metadata>
  <g
     inkscape:label="Calque 1"
     inkscape:groupmode="layer"
     id="layer1"
     transform="translate(-64.577232,-116.62456)">
    <g
       id="g24"
       transform="translate(0.94303158,-0.41989855)"
       inkscape:export-xdpi="96"
       inkscape:export-ydpi="96">
      <path
         style="fill:#f1a25d;stroke-width:0.264583"
         d="m 76.465835,154.25936 c -0.578095,-0.40525 -1.147995,-2.94183 -0.907231,-4.03802 0.262637,-1.19578 0.612659,-0.94252 0.468236,0.33879 -0.147635,1.30982 0.331358,3.35494 0.797569,3.40532 1.395294,0.15078 13.869349,-0.13637 14.065634,-0.3238 0.15263,-0.14574 -0.119888,-0.24001 -0.693831,-0.24001 -0.519853,0 -1.883118,-0.30854 -3.029479,-0.68565 -1.550483,-0.51004 -2.406167,-0.64876 -3.341065,-0.54163 -1.381815,0.15835 -1.541763,-0.0206 -0.699111,-0.78223 0.731736,-0.66137 3.431165,-0.6774 4.654722,-0.0276 1.21598,0.64572 3.154171,0.60193 3.518868,-0.0795 0.323104,-0.60373 0.228971,-0.62657 -1.0816,-0.26252 -0.762477,0.21181 -1.25716,0.15644 -2.513541,-0.28134 -2.483042,-0.86521 -3.22213,-1.00188 -4.211476,-0.77874 -1.009886,0.22776 -1.422893,-0.0614 -0.932179,-0.65269 0.508005,-0.6121 2.187417,-0.73722 3.908706,-0.29119 1.560081,0.40426 2.844984,0.34665 3.859751,-0.17304 0.422084,-0.21617 0.433995,-0.28843 0.09198,-0.55805 -0.346679,-0.2733 -0.341469,-0.51925 0.0443,-2.09135 0.24045,-0.9799 0.565565,-1.83152 0.722477,-1.89249 0.190706,-0.0741 0.168775,0.33833 -0.06615,1.24397 -0.448596,1.72938 -0.441805,2.03327 0.04543,2.03327 0.654601,0 0.450059,0.70196 -0.417175,1.43169 -0.755125,0.63539 -1.741156,0.84933 -3.220845,0.69881 -1.009948,-0.10273 -0.38552,0.48115 0.825171,0.77159 1.267884,0.30416 1.714956,0.21231 3.540454,-0.72737 0.434697,-0.22377 0.164364,1.23682 -0.349933,1.89064 -0.715519,0.90963 -1.935652,0.91959 -4.37258,0.0357 -1.898012,-0.68844 -2.489181,-0.7986 -2.484781,-0.46302 0.0037,0.28504 2.512871,1.13264 4.306562,1.45478 1.102064,0.19794 1.713656,0.19177 2.182811,-0.022 0.539475,-0.24581 0.651775,-0.22657 0.651775,0.11163 0,0.80134 -0.548622,1.41148 -1.392278,1.54839 -0.471174,0.0765 -3.700593,0.17088 -7.176486,0.20982 -4.746242,0.0532 -6.438053,-0.0121 -6.794715,-0.26211 z m 10.264738,-4.72174 c -0.08792,-0.0879 -0.316122,-0.0973 -0.507118,-0.0209 -0.211067,0.0845 -0.148372,0.14715 0.159852,0.15985 0.278915,0.0115 0.435184,-0.0511 0.347266,-0.13897 z m -13.025217,-0.63389 c -0.302244,-0.33398 -0.359196,-0.52917 -0.1544,-0.52917 0.329356,0 1.080442,0.63062 1.080442,0.90714 0,0.31951 -0.467518,0.12869 -0.926042,-0.37797 z m 14.089062,-0.71868 c -0.400182,-0.0606 -0.727604,-0.23626 -0.727604,-0.3903 0,-0.16928 0.309964,-0.21809 0.783491,-0.12339 0.8212,0.16424 1.381941,-0.26254 0.809659,-0.61622 -0.19714,-0.12185 -0.224609,-0.26505 -0.06926,-0.36106 0.377878,-0.23354 1.212428,0.79846 1.030043,1.27375 -0.154316,0.40214 -0.407134,0.43221 -1.826329,0.21722 z"
         id="path38" />
      <path
         id="path36"
         style="fill:#fb861d;stroke-width:0.264583"
         sodipodi:type="inkscape:offset"
         inkscape:radius="0.74704283"
         inkscape:original="M 82.505859 121.76367 C 82.416952 121.67478 81.449145 121.68658 80.355469 121.78906 C 78.418747 121.97055 78.348896 122.00161 77.693359 122.99219 C 77.323174 123.55158 76.911521 124.49159 76.779297 125.08008 C 76.647073 125.66856 76.603188 126.15039 76.679688 126.15039 C 76.756183 126.15039 77.188839 125.92275 77.642578 125.64453 C 78.69934 124.99655 81.49687 124.44857 82.728516 124.64844 C 83.77703 124.81859 83.763778 124.89416 83.03125 122.91406 C 82.830375 122.37108 82.594769 121.85257 82.505859 121.76367 z M 87.146484 128.16016 L 85.744141 128.23438 C 84.972892 128.27532 84.090608 128.40391 83.785156 128.51953 C 83.479705 128.63516 82.397551 128.81096 81.378906 128.91016 C 80.36026 129.00939 79.168984 129.19582 78.732422 129.32422 C 78.295859 129.45262 77.353649 129.65374 76.638672 129.77148 C 75.802442 129.90919 75.31887 130.12751 75.28125 130.38281 C 75.010605 132.21964 74.138457 134.61619 73.740234 134.61719 C 73.552693 134.61773 73.418266 135.31212 73.378906 136.48438 C 73.320881 138.21255 73.347308 138.31871 73.748047 137.91797 C 73.986112 137.67992 74.39164 137.54032 74.648438 137.60742 C 74.944281 137.68479 75.160584 137.55459 75.240234 137.25 C 75.397018 136.65046 79.573821 135.28231 80.630859 135.48438 C 81.021283 135.559 81.54561 135.49164 81.794922 135.33594 C 82.348208 134.99041 86.349547 135.43 88.076172 136.02539 C 89.005444 136.34585 89.243263 136.35449 89.351562 136.07227 C 89.527587 135.61355 88.700579 132.26487 88.224609 131.50977 C 88.018811 131.18328 87.691909 130.29657 87.498047 129.53906 L 87.146484 128.16016 z M 89.580078 138.5332 L 87.777344 138.70898 C 86.786142 138.8058 85.130377 139.06006 84.097656 139.27539 C 83.064936 139.49069 82.045746 139.60153 81.832031 139.51953 C 81.618315 139.43752 81.270492 139.51359 81.058594 139.68945 C 80.828749 139.88021 79.77686 140.01639 78.451172 140.02539 C 76.9866 140.03563 76.186689 140.14719 76.105469 140.35547 C 76.037689 140.52927 75.236722 140.75636 74.326172 140.85938 C 72.994268 141.01007 72.789622 141.09033 73.279297 141.27148 C 73.878345 141.49308 73.885612 141.5401 73.701172 144.24609 C 73.570608 146.16163 73.611203 147.2917 73.835938 147.97266 L 74.158203 148.95117 L 74.640625 148.16016 C 74.905128 147.72523 75.656995 146.99983 76.3125 146.54883 C 78.903981 144.76584 79.750355 145.77713 77.548828 148.02539 C 76.775752 148.81487 76.146164 149.72814 76.052734 150.19531 C 75.842414 151.24691 76.156014 153.30055 76.59375 153.73828 C 76.863286 154.00785 78.415708 154.06057 83.789062 153.98047 C 87.556851 153.92428 90.75238 153.77169 90.890625 153.64062 C 91.042287 153.49681 90.765618 153.40234 90.195312 153.40234 C 89.675459 153.40234 88.312377 153.09391 87.166016 152.7168 C 85.615533 152.20677 84.76107 152.0667 83.826172 152.17383 C 82.444357 152.33218 82.284301 152.15419 83.126953 151.39258 C 83.858689 150.73125 86.557693 150.71547 87.78125 151.36523 C 88.99723 152.01096 90.936084 151.9666 91.300781 151.28516 C 91.623885 150.68143 91.52932 150.65743 90.21875 151.02148 C 89.456272 151.23329 88.96146 151.17801 87.705078 150.74023 C 85.222037 149.87499 84.483487 149.73975 83.494141 149.96289 C 82.484252 150.19065 82.069832 149.90183 82.560547 149.31055 C 83.068552 148.69845 84.749414 148.57155 86.470703 149.01758 C 88.030784 149.42184 89.315312 149.36539 90.330078 148.8457 C 90.763463 148.62375 90.771579 148.56395 90.402344 148.28711 C 90.028062 148.00646 90.02693 147.84538 90.404297 146.57031 C 90.870363 144.99554 90.787692 143.51695 90.134766 141.79883 C 89.894036 141.16537 89.670602 140.1713 89.638672 139.58984 L 89.580078 138.5332 z M 82.251953 144.83398 C 82.757332 144.52164 85.672314 144.91909 87.199219 145.50781 C 88.606757 146.05051 89.863282 147.33796 89.615234 147.98438 C 89.532896 148.19893 89.253369 148.3596 88.994141 148.3418 C 87.645426 148.24947 85.332049 147.81578 84.275391 147.45703 C 83.617966 147.23383 82.901357 147.05078 82.683594 147.05078 C 82.465831 147.05078 82.220089 146.8735 82.136719 146.65625 C 82.038318 146.39968 81.777795 146.3125 81.396484 146.4082 C 80.703186 146.5822 80.050094 145.9372 80.289062 145.31445 C 80.393894 145.04131 80.706198 144.921 81.179688 144.9707 C 81.580302 145.01272 82.062375 144.95115 82.251953 144.83398 z "
         d="m 81.798828,120.95703 c -0.418419,0.005 -0.949107,0.035 -1.513672,0.0879 -0.971472,0.091 -1.515844,0.12055 -2.048828,0.36133 -0.532984,0.24078 -0.833491,0.67135 -1.166016,1.17383 -0.442081,0.66803 -0.851907,1.58989 -1.019531,2.33594 -0.0718,0.31954 -0.120121,0.60865 -0.142578,0.85156 -0.01123,0.12145 -0.01931,0.22479 -0.0078,0.36133 0.0057,0.0683 0.0067,0.1421 0.06445,0.2832 0.02888,0.0705 0.07234,0.16541 0.185547,0.27344 0.113202,0.10803 0.328465,0.21093 0.529297,0.21093 0.194821,0 0.230352,-0.031 0.283203,-0.0488 0.05285,-0.0179 0.09452,-0.0342 0.136718,-0.0527 0.0844,-0.0371 0.170464,-0.0818 0.267579,-0.13281 0.194229,-0.10209 0.426343,-0.2339 0.666015,-0.38086 0.357951,-0.21949 1.297702,-0.53606 2.230469,-0.71875 0.932767,-0.18269 1.92471,-0.2441 2.345703,-0.17578 0.253252,0.0411 0.441211,0.0877 0.710937,0.0879 0.134864,7e-5 0.316492,-0.005 0.53711,-0.13477 0.220618,-0.12969 0.389733,-0.41648 0.425781,-0.62304 0.0721,-0.41313 -0.03541,-0.60645 -0.132812,-0.9043 -0.0974,-0.29785 -0.235628,-0.66532 -0.417969,-1.1582 -0.106566,-0.28806 -0.221301,-0.56494 -0.326172,-0.79492 -0.05244,-0.115 -0.101986,-0.21766 -0.152344,-0.31055 -0.05036,-0.0929 -0.05837,-0.15019 -0.220703,-0.3125 -0.25365,-0.2536 -0.353682,-0.21313 -0.443359,-0.23242 -0.08968,-0.0193 -0.162252,-0.0267 -0.242188,-0.0332 -0.159871,-0.013 -0.339618,-0.0162 -0.548828,-0.0137 z m 5.308594,6.45703 -1.402344,0.0742 c -0.41191,0.0219 -0.843292,0.0658 -1.222656,0.1211 -0.379364,0.0552 -0.671251,0.10128 -0.960938,0.21093 0.0032,-0.001 -0.373121,0.0962 -0.791015,0.16407 -0.417895,0.0679 -0.931477,0.13369 -1.423828,0.18164 -1.052574,0.10253 -2.183453,0.26443 -2.785157,0.4414 -0.360009,0.10589 -1.319684,0.31506 -2.003906,0.42774 -0.457788,0.0754 -0.836053,0.16858 -1.164062,0.3164 -0.32801,0.14782 -0.728915,0.3679 -0.810547,0.92188 -0.125284,0.85028 -0.401949,1.88088 -0.685547,2.66015 -0.141799,0.38964 -0.289458,0.71949 -0.398438,0.91407 -0.05449,0.0973 -0.102865,0.16138 -0.103515,0.16211 -6.51e-4,7.2e-4 0.05829,-0.13786 0.382812,-0.13868 -0.253811,7.3e-4 -0.473933,0.13218 -0.589843,0.2461 -0.115911,0.11392 -0.169165,0.21442 -0.212891,0.30664 -0.08745,0.18443 -0.126402,0.35033 -0.164063,0.54492 -0.07532,0.38918 -0.1182,0.88054 -0.138672,1.49023 -0.02916,0.8684 -0.09022,1.23855 0.03516,1.72657 0.03134,0.122 0.07122,0.29585 0.289062,0.48047 0.217842,0.18461 0.60718,0.21065 0.792969,0.14843 0.371579,-0.12444 0.410642,-0.25439 0.525391,-0.36914 0.02069,-0.0207 0.09733,-0.0682 0.160156,-0.0898 0.06282,-0.0217 0.110699,-0.003 0.02344,-0.0254 0.290276,0.0759 0.653898,0.0614 0.953125,-0.11914 0.299228,-0.18056 0.475673,-0.48426 0.550782,-0.77149 -0.07431,0.28415 -0.12778,0.21412 -0.05273,0.16016 0.07505,-0.054 0.224727,-0.14124 0.416016,-0.23438 0.382578,-0.18626 0.930435,-0.40005 1.503906,-0.58789 0.573471,-0.18783 1.177711,-0.35366 1.681641,-0.45507 0.503929,-0.10142 0.956082,-0.10781 0.978515,-0.10352 0.592982,0.11333 1.134827,0.10369 1.701172,-0.25 -0.132586,0.0828 -0.06742,0.0298 0.05078,0.0156 0.1182,-0.0142 0.301625,-0.0243 0.521484,-0.0234 0.439717,0.002 1.027045,0.0409 1.65039,0.10937 1.246692,0.13689 2.669221,0.40392 3.417969,0.66211 0.481248,0.16596 0.784898,0.27522 1.16211,0.28906 0.188606,0.007 0.432203,-0.024 0.65039,-0.16601 0.218188,-0.14199 0.344001,-0.3585 0.404297,-0.51563 0.111509,-0.29059 0.07902,-0.42351 0.07031,-0.60156 -0.0087,-0.17805 -0.03179,-0.3684 -0.06445,-0.58008 -0.06533,-0.42336 -0.170636,-0.92443 -0.296876,-1.43554 -0.126239,-0.51112 -0.272041,-1.0287 -0.421874,-1.48047 -0.149834,-0.45177 -0.278742,-0.81393 -0.478516,-1.13086 -0.07066,-0.11211 -0.455968,-1.05831 -0.634766,-1.75586 v -0.002 l -0.351562,-1.37696 a 0.74711754,0.74711754 0 0 0 -0.763672,-0.5625 z m 2.441406,10.37305 a 0.74711754,0.74711754 0 0 0 -0.04102,0.002 l -1.802734,0.17578 c -1.037034,0.1013 -2.685883,0.35617 -3.759766,0.58008 -0.493367,0.10286 -0.987695,0.17969 -1.367187,0.2207 -0.189746,0.0205 -0.352636,0.0315 -0.458984,0.0332 -0.106349,0.002 -0.204061,-0.0474 -0.01953,0.0234 -0.611089,-0.2345 -1.077999,-0.0719 -1.517578,0.29296 0.124407,-0.10325 0.07354,-0.045 -0.03125,-0.0176 -0.104792,0.0275 -0.273214,0.0611 -0.480469,0.0879 -0.414509,0.0535 -0.986392,0.0894 -1.625,0.0937 -0.750301,0.005 -1.335548,0.034 -1.789062,0.0976 -0.226757,0.0318 -0.418151,0.0681 -0.611328,0.13867 -0.193177,0.0705 -0.471866,0.15063 -0.634766,0.56836 0.144006,-0.36925 0.230408,-0.28336 0.19336,-0.26562 -0.03705,0.0177 -0.140731,0.0595 -0.275391,0.0977 -0.26932,0.0763 -0.667278,0.1538 -1.085937,0.20117 -0.676427,0.0765 -1.000469,0.0864 -1.396485,0.24219 -0.099,0.0389 -0.235436,0.0624 -0.410156,0.30859 -0.08736,0.12311 -0.162131,0.33519 -0.142578,0.53125 0.01955,0.19606 0.107442,0.33968 0.177734,0.42578 0.28117,0.34438 0.393693,0.29027 0.548828,0.34766 0.03688,0.0136 0.0033,-0.005 0.02344,0.004 0.02524,0.2123 0.0024,0.89355 -0.08789,2.21875 -0.132634,1.94591 -0.121557,3.1226 0.171875,4.01172 l 0.322266,0.97852 a 0.74711754,0.74711754 0 0 0 1.347656,0.15429 l 0.482422,-0.79101 c 0.129545,-0.21302 0.889933,-0.99459 1.457031,-1.38477 0.404941,-0.2786 0.649683,-0.36651 0.925781,-0.49218 -0.171523,0.25115 -0.301686,0.47796 -0.646484,0.83007 -0.416359,0.4252 -0.789846,0.87806 -1.083984,1.30469 -0.294138,0.42663 -0.519691,0.78398 -0.611329,1.24219 -0.137503,0.68752 -0.09508,1.49837 0.02148,2.26172 0.05828,0.38167 0.137321,0.74478 0.242187,1.06836 0.104867,0.32357 0.198001,0.6023 0.482422,0.88671 0.312297,0.31234 0.571638,0.32282 0.894532,0.37305 0.322893,0.0502 0.729455,0.0787 1.291015,0.0977 1.12312,0.0379 2.858637,0.0303 5.548828,-0.01 1.890828,-0.0282 3.636435,-0.0805 4.935547,-0.14258 0.649556,-0.0311 1.185851,-0.0644 1.582031,-0.0996 0.198091,-0.0176 0.358838,-0.0353 0.496094,-0.0566 0.06863,-0.0107 0.130167,-0.02 0.203125,-0.0391 0.07296,-0.019 0.130515,0.0378 0.386719,-0.20508 0.07492,-0.071 0.165097,-0.17157 0.226562,-0.34375 0.06147,-0.17217 0.05787,-0.42806 -0.02734,-0.61132 -0.170429,-0.36654 -0.401303,-0.41697 -0.546875,-0.4668 -0.291144,-0.0997 -0.534927,-0.10547 -0.861329,-0.10547 -0.112185,0 -0.590944,-0.065 -1.115234,-0.18359 -0.462708,-0.10471 -0.988408,-0.25452 -1.482422,-0.41016 0.722561,0.34539 1.528897,0.52492 2.279297,0.50781 0.402533,-0.009 0.786618,-0.0644 1.142578,-0.1914 0.355961,-0.12696 0.719931,-0.33201 0.939453,-0.74219 0.0889,-0.16612 0.173963,-0.28844 0.226563,-0.55469 0.0263,-0.13312 0.0483,-0.34608 -0.07813,-0.58789 -0.126421,-0.24181 -0.387261,-0.38827 -0.556641,-0.42969 -0.338759,-0.0828 -0.496129,-0.0175 -0.71875,0.0293 -0.222621,0.0468 -0.480585,0.11483 -0.8125,0.20703 -0.649872,0.18053 -0.851076,0.15853 -2.068359,-0.26562 -0.241245,-0.0841 -0.323321,-0.0868 -0.535156,-0.15821 1.201977,0.15282 2.324137,0.10898 3.253906,-0.36718 0.119618,-0.0613 0.224837,-0.11331 0.349609,-0.20508 0.124772,-0.0918 0.342315,-0.26447 0.388672,-0.6211 0.04636,-0.35663 -0.141997,-0.61156 -0.251953,-0.73047 -0.09602,-0.10383 -0.179182,-0.16413 -0.267578,-0.23046 0.0099,-0.0787 0.06084,-0.3597 0.232422,-0.93946 0.509,-1.71983 0.408936,-3.41841 -0.28711,-5.25 -0.203065,-0.53434 -0.425194,-1.54688 -0.449218,-1.98437 l -0.05859,-1.05664 a 0.74711754,0.74711754 0 0 0 -0.777344,-0.70508 z m -6.904297,7.68164 c -0.207126,0.12801 0.05303,0.002 0.373047,0.004 0.320016,0.002 0.756692,0.0359 1.22461,0.0996 0.935834,0.12751 2.020283,0.37555 2.6875,0.63281 0.588376,0.22686 1.188546,0.63817 1.564453,1.02344 0.116668,0.11957 0.162591,0.2075 0.230468,0.30664 -1.294563,-0.12503 -3.357881,-0.4962 -4.208984,-0.78516 -0.348087,-0.11818 -0.705298,-0.22351 -1.015625,-0.30273 -0.281349,-0.0718 -0.471906,-0.11855 -0.740234,-0.12891 -0.1363,-0.27061 -0.36763,-0.53224 -0.650391,-0.62695 -0.06254,-0.0209 -0.11645,0.009 -0.177734,-0.002 0.234597,-0.0301 0.443281,-0.0541 0.71289,-0.2207 z" />
      <path
         style="fill:#da742b;stroke-width:0.264583"
         d="m 77.373317,147.85673 c 0.674757,-0.72137 1.226831,-1.43575 1.226831,-1.5875 0,-0.95497 -3.09192,0.70295 -3.823066,2.04997 -0.213994,0.39425 -0.393848,0.54955 -0.399674,0.34512 -0.01466,-0.51436 1.820409,-2.21058 2.99404,-2.7675 1.870578,-0.88765 2.029702,0.20739 0.293438,2.01934 -0.659915,0.68868 -1.27152,1.25215 -1.359123,1.25215 -0.0876,0 0.392797,-0.59021 1.067554,-1.31158 z m -3.940328,-0.31136 c -0.100167,-0.45606 -0.09738,-1.95951 0.0062,-3.341 0.148162,-1.97621 0.111991,-2.56534 -0.169631,-2.76283 -0.288751,-0.20249 -0.281226,-0.22992 0.03893,-0.14187 0.327146,0.09 0.396875,0.72094 0.396875,3.59128 0,1.91519 -0.02031,3.48248 -0.04512,3.48288 -0.02482,5.3e-4 -0.127078,-0.37241 -0.227244,-0.82846 z m 12.099044,0.30361 c -0.480327,-0.11376 -0.947895,-0.2814 -1.03904,-0.37255 -0.19664,-0.19664 1.418951,0.0944 2.176946,0.39214 0.674502,0.26495 0.01568,0.25361 -1.137906,-0.0196 z m -1.954411,-0.71349 c 0.190996,-0.0764 0.419199,-0.067 0.507118,0.0209 0.08792,0.0879 -0.06835,0.15045 -0.347266,0.13897 -0.308224,-0.0127 -0.370919,-0.0754 -0.159852,-0.15985 z m -1.441488,-0.47884 c -0.0984,-0.25643 -0.357622,-0.34328 -0.738933,-0.24757 -0.697941,0.17517 -1.345901,-0.47257 -1.103814,-1.10344 0.117747,-0.30685 0.39451,-0.39614 0.967291,-0.31207 0.441293,0.0648 0.863667,0.0186 0.938609,-0.10271 0.07494,-0.12126 0.575715,-0.20357 1.11283,-0.18292 l 0.976572,0.0375 -1.058333,0.1609 c -1.285611,0.19544 -1.589219,1.04232 -0.617641,1.72284 0.499428,0.34981 0.523328,0.42242 0.139042,0.42242 -0.255228,0 -0.532258,-0.17774 -0.615623,-0.39499 z m -0.62557,-1.07583 c 0,-0.20969 -0.238125,-0.38126 -0.529166,-0.38126 -0.577513,0 -0.732194,0.67682 -0.198438,0.86829 0.447605,0.16056 0.727604,-0.0269 0.727604,-0.48703 z m 6.217708,0.39454 c -0.889874,-0.57 -0.76778,-0.66887 0.252134,-0.20416 0.370649,0.16888 0.673908,0.407 0.673908,0.52916 0,0.27647 0.02865,0.28653 -0.926042,-0.325 z m -2.513541,-0.7758 c -0.904243,-0.19033 -0.907357,-0.19531 -0.132292,-0.21116 0.436563,-0.009 1.031875,0.0861 1.322917,0.21116 0.636237,0.2734 0.108247,0.2734 -1.190625,0 z m 5.598026,-1.32292 c 0,-0.3638 0.06005,-0.51263 0.133452,-0.33073 0.0734,0.1819 0.0734,0.47956 0,0.66146 -0.0734,0.1819 -0.133452,0.0331 -0.133452,-0.33073 z m -0.670548,-1.73002 c -0.09074,-0.23646 -0.157432,-0.56901 -0.148208,-0.73901 0.0092,-0.17 0.130845,-0.0239 0.270268,0.32463 0.139423,0.34855 0.206116,0.68111 0.148207,0.73902 -0.05791,0.0579 -0.17953,-0.0882 -0.270267,-0.32464 z m -17.491083,-1.18703 c 0.062,-0.10033 0.732172,-0.25577 1.489263,-0.34544 1.832502,-0.21703 2.056017,-0.48017 1.416526,-1.66763 -0.621018,-1.15316 -1.05694,-1.35782 -1.683809,-0.79051 -0.69911,0.63269 -0.833788,0.53629 -0.786865,-0.56322 0.04181,-0.97969 0.04369,-0.98133 0.149204,-0.13031 0.09522,0.76803 0.150295,0.81845 0.505722,0.46302 0.720683,-0.72068 1.229521,-0.50822 2.213148,0.92406 0.349779,0.50932 0.760762,1.0244 0.913294,1.14462 0.171412,0.1351 0.125755,0.17676 -0.119544,0.10907 -0.218282,-0.0602 -0.515938,0.041 -0.661459,0.22484 -0.270865,0.34228 -3.639422,0.96148 -3.43548,0.6315 z m 17.103298,-0.52253 c 0,-0.3638 0.06005,-0.51263 0.133452,-0.33073 0.0734,0.1819 0.0734,0.47956 0,0.66146 -0.0734,0.1819 -0.133452,0.0331 -0.133452,-0.33073 z m -10.228235,-0.61563 1.5875,-0.32569 v -1.84444 -1.84445 l -0.926041,-0.18174 c -0.919244,-0.18041 -0.918273,-0.18121 0.132291,-0.10888 0.582084,0.0401 1.246969,-0.0433 1.477523,-0.18526 0.273957,-0.16869 1.144803,-0.16132 2.513542,0.0213 l 2.094352,0.27939 -2.138108,-0.0879 c -1.175959,-0.0484 -2.283459,0.002 -2.461112,0.1117 -0.214268,0.13242 -0.29612,0.76679 -0.243143,1.88439 0.07272,1.534 0.139051,1.70317 0.741321,1.89055 0.567947,0.1767 0.545348,0.18963 -0.159852,0.0914 -0.451721,-0.0629 -0.927971,-0.009 -1.058333,0.11955 -0.130363,0.12867 -0.891867,0.29511 -1.692231,0.36987 l -1.455208,0.13593 z m 10.004941,-0.64114 c 0.117066,-0.52806 0.02268,-0.5998 -0.835441,-0.63505 -0.936509,-0.0385 -0.929378,-0.045 0.223208,-0.20414 0.654844,-0.0904 1.22252,-0.14979 1.261503,-0.13192 0.03898,0.0179 -0.12085,0.37762 -0.355185,0.79945 -0.33844,0.60924 -0.398921,0.64454 -0.294085,0.17166 z m -5.903899,-0.0662 c 0.363802,-0.11651 0.959114,-0.21183 1.322916,-0.21183 h 0.661459 l -0.661459,0.21183 c -0.363802,0.11651 -0.959114,0.21184 -1.322916,0.21184 h -0.661458 z m 2.711979,-0.44696 c 0.254661,-0.0666 0.67138,-0.0666 0.926042,0 0.254661,0.0666 0.0463,0.121 -0.463021,0.121 -0.509323,0 -0.717683,-0.0545 -0.463021,-0.121 z m -11.178645,-1.37691 c 0,-0.33498 1.043411,-0.92508 1.257382,-0.71111 0.08455,0.0846 0.02333,0.15373 -0.136053,0.15373 -0.15938,0 -0.47688,0.1871 -0.705555,0.41578 -0.228676,0.22867 -0.415774,0.29239 -0.415774,0.1416 z m -1.852084,-1.32017 c 0,-0.32252 -0.196992,-0.96744 -0.43776,-1.43316 -0.399678,-0.77309 -0.400287,-0.81567 -0.007,-0.48944 0.452183,0.37509 0.890485,2.06328 0.608814,2.34495 -0.09023,0.0902 -0.164053,-0.0998 -0.164054,-0.42235 z m 14.155208,0.0914 c -1.047899,-0.36254 -1.049203,-0.36465 -0.132292,-0.21388 0.509323,0.0837 1.104636,0.25404 1.322917,0.37844 0.582538,0.33197 0.01974,0.25419 -1.190625,-0.16456 z m 1.888695,0.01 c 0.08376,-0.21828 0.199088,-0.39687 0.256279,-0.39687 0.05719,0 0.103984,0.17859 0.103984,0.39687 0,0.21829 -0.115326,0.39688 -0.256279,0.39688 -0.140954,0 -0.187747,-0.17859 -0.103984,-0.39688 z M 77.93869,135.93914 c 0.291041,-0.12506 0.70776,-0.22739 0.926041,-0.22739 0.250158,0 0.201253,0.0841 -0.132291,0.22739 -0.291042,0.12507 -0.707761,0.22739 -0.926042,0.22739 -0.250158,0 -0.201252,-0.0841 0.132292,-0.22739 z m 11.286567,-1.32291 c 0,-0.36381 0.06005,-0.51263 0.133452,-0.33073 0.0734,0.1819 0.0734,0.47955 0,0.66146 -0.0734,0.1819 -0.133452,0.0331 -0.133452,-0.33073 z m -15.100378,-0.66146 c 0.02755,-0.50118 0.468514,-1.3451 0.483871,-0.92604 0.008,0.21828 -0.100871,0.57546 -0.241935,0.79375 -0.141064,0.21828 -0.249935,0.27781 -0.241936,0.13229 z m 14.680626,-0.81265 c -0.09732,-0.38775 -0.125918,-0.75603 -0.06355,-0.81839 0.06237,-0.0624 0.193018,0.20385 0.290337,0.5916 0.09732,0.38775 0.125917,0.75603 0.06355,0.8184 -0.06237,0.0624 -0.193017,-0.20386 -0.290337,-0.59161 z m -13.841137,-2.16365 c 0.08059,-0.32728 0.03669,-0.66293 -0.09754,-0.74589 -0.462274,-0.2857 0.06212,-0.64338 0.904666,-0.61706 0.757825,0.0237 0.779154,0.0446 0.208285,0.20435 -0.401077,0.11224 -0.672043,0.41419 -0.733587,0.81746 -0.05367,0.35171 -0.172009,0.70623 -0.262965,0.78783 -0.09096,0.0816 -0.09944,-0.11941 -0.01886,-0.44669 z m 13.072585,0.28637 c -0.09701,-0.097 -0.176389,-0.29942 -0.176389,-0.44979 0,-0.16579 0.123235,-0.15017 0.31309,0.0397 0.1722,0.1722 0.251575,0.37461 0.176389,0.44979 -0.07519,0.0752 -0.216076,0.0573 -0.31309,-0.0397 z m -11.26684,-1.77159 c 0.06063,-0.0527 0.639836,-0.16363 1.287117,-0.24643 0.761362,-0.0974 1.041607,-0.065 0.79375,0.0918 -0.353593,0.2237 -2.329051,0.37046 -2.080867,0.15459 z m 10.546945,-0.56557 c -0.107163,-0.72114 -0.202663,-0.78894 -1.043994,-0.74119 l -0.926042,0.0525 0.926042,-0.23338 c 1.107628,-0.27915 1.398276,-0.0592 1.263116,0.95594 l -0.10117,0.75983 z m -6.773182,-0.16636 c 0.284149,-0.16597 0.58669,-0.18718 0.72318,-0.0507 0.136489,0.13649 -0.06788,0.25587 -0.488521,0.28535 -0.634567,0.0445 -0.66332,0.0157 -0.234659,-0.23466 z m 1.25332,-0.0614 c 0.06063,-0.0525 0.646025,-0.16632 1.300868,-0.2529 0.795017,-0.10512 1.0148,-0.0796 0.661459,0.0769 -0.505318,0.22374 -2.192152,0.37505 -1.962327,0.17602 z m -5.503723,-2.83207 c 0.16848,-1.25611 1.419264,-3.85907 1.95275,-4.06379 0.202398,-0.0777 1.31733,-0.22038 2.477627,-0.31715 1.564672,-0.13048 2.109631,-0.0937 2.109631,0.14231 0,0.17503 -0.123463,0.24193 -0.274361,0.14867 -0.150899,-0.0933 -1.155931,-0.087 -2.233406,0.014 -1.903403,0.17837 -1.978161,0.21247 -2.632107,1.20065 -0.370185,0.55939 -0.783184,1.50718 -0.917777,2.1062 -0.213254,0.94913 -0.190158,1.06821 0.179656,0.9263 0.344592,-0.13223 0.332406,-0.0612 -0.06482,0.37771 -0.685017,0.75693 -0.761297,0.68861 -0.597188,-0.53491 z m 1.629641,-0.36515 c 0.282474,-0.22631 0.699193,-0.40207 0.926041,-0.39059 0.356287,0.0181 0.358408,0.0409 0.01558,0.16805 -0.218281,0.0809 -0.635,0.2567 -0.926041,0.39058 -0.5207,0.23953 -0.520949,0.23684 -0.01558,-0.16804 z m 2.396825,-0.73047 c 0.582084,-0.13585 1.564349,-0.1938 2.182813,-0.12879 1.229967,0.12929 1.347653,-0.055 0.727604,-1.13971 -0.207968,-0.36381 -0.376963,-0.78052 -0.375544,-0.92605 0.0028,-0.28228 1.26945,1.98491 1.28963,2.30824 0.0066,0.10537 -1.089373,0.17846 -2.43544,0.16243 -2.131706,-0.0254 -2.310881,-0.061 -1.389063,-0.27612 z"
         id="path34" />
      <path
         id="path32"
         style="fill:#ae5c3a;stroke-width:0.264583"
         sodipodi:type="inkscape:offset"
         inkscape:radius="0.0016196476"
         inkscape:original="M 81.892578 121.08203 C 81.072675 121.03187 80.346537 121.08031 80.279297 121.18945 C 80.212054 121.29854 79.716803 121.38863 79.179688 121.39062 C 78.642572 121.39286 78.08254 121.48293 77.935547 121.58984 C 77.44584 121.94602 76.22901 124.67754 75.992188 125.95117 C 75.863657 126.6424 75.857991 127.20898 75.980469 127.20898 C 76.102948 127.20898 76.741097 126.82857 77.398438 126.36523 C 78.200427 125.79994 78.947212 125.5057 79.667969 125.4707 C 80.959928 125.40805 81.422972 125.0918 80.222656 125.0918 C 79.171806 125.0918 77.620708 125.72432 76.78125 126.49414 L 76.146484 127.07617 L 76.291016 125.93359 C 76.457542 124.63048 77.696075 122.01576 78.246094 121.80469 C 78.448492 121.72703 79.564312 121.58313 80.724609 121.48633 C 82.592359 121.33057 82.833984 121.36302 82.833984 121.75586 C 82.833984 121.9999 83.130339 122.78598 83.494141 123.50391 C 84.298913 125.09199 84.298937 125.08738 83.560547 125.11328 C 83.028369 125.13196 83.043761 125.16181 83.708984 125.4043 C 84.118261 125.55349 84.508912 125.62003 84.576172 125.55273 C 84.643429 125.48547 84.339402 124.67242 83.900391 123.74414 C 83.46138 122.81585 83.165138 121.85799 83.242188 121.61523 C 83.359594 121.24532 83.141956 121.15843 81.892578 121.08203 z M 81.990234 125.17578 C 81.779167 125.26023 81.842167 125.32324 82.150391 125.33594 C 82.429307 125.34743 82.585967 125.28517 82.498047 125.19727 C 82.410128 125.10937 82.18123 125.09938 81.990234 125.17578 z M 80.908203 127.57617 C 80.845928 127.58801 80.766525 127.73757 80.617188 128.03711 C 80.445149 128.38219 79.955048 128.74547 79.519531 128.84961 C 78.83936 129.01231 78.857473 129.01944 79.658203 128.91211 C 80.167526 128.84384 81.175279 128.72498 81.898438 128.64648 C 82.621597 128.56798 83.278269 128.43276 83.355469 128.34766 C 83.432675 128.26256 82.994132 128.25774 82.380859 128.33594 C 81.427429 128.45758 81.240091 128.40023 81.095703 127.94531 C 81.014548 127.6896 80.970478 127.56433 80.908203 127.57617 z M 87.580078 127.73828 C 87.425971 127.73828 87.372951 127.85643 87.462891 128.00195 C 87.552828 128.14747 87.679971 128.26562 87.744141 128.26562 C 87.808318 128.26562 87.861328 128.14747 87.861328 128.00195 C 87.861328 127.85643 87.734187 127.73828 87.580078 127.73828 z M 85.347656 127.91992 C 84.474532 128.00111 83.709068 128.11347 83.648438 128.16797 C 83.451576 128.34505 85.324491 128.20983 86.140625 127.98828 C 86.662573 127.84658 86.391551 127.82282 85.347656 127.91992 z M 78.265625 129.12305 C 77.734798 129.00665 74.381032 129.48616 74.15625 129.71094 C 74.07504 129.79215 74.23716 130.03394 74.517578 130.24609 C 75.168295 130.73835 75.308829 130.7487 74.916016 130.27539 C 74.499289 129.77326 74.719187 129.67785 76.880859 129.43359 C 77.899505 129.31848 78.522327 129.17935 78.265625 129.12305 z M 87.689453 129.40625 C 87.629446 129.46626 87.699712 129.83085 87.845703 130.21484 C 88.216259 131.18947 88.424141 131.09245 88.080078 130.10547 C 87.925302 129.66148 87.749463 129.34625 87.689453 129.40625 z M 69.898438 129.67773 C 69.887418 129.7904 69.972488 130.05653 70.171875 130.49414 C 70.338675 130.86022 70.584775 131.09257 70.71875 131.00977 C 70.852728 130.92697 70.929925 131.02029 70.890625 131.2168 C 70.851327 131.4133 71.034333 131.97853 71.296875 132.47266 C 71.674176 133.18279 71.829371 133.29381 72.037109 133.00195 C 72.238499 132.719 72.26353 132.74734 72.140625 133.125 C 72.048292 133.40872 72.209645 133.98958 72.521484 134.49414 C 72.984584 135.24346 73.037127 135.62224 72.884766 137.10938 C 72.691319 138.99753 72.919652 139.28329 73.908203 138.38867 C 74.395752 137.94744 74.443009 137.95913 75.052734 138.66797 C 75.805463 139.54307 75.865387 140.08696 75.226562 140.25391 C 74.792619 140.3673 74.792653 140.37745 75.234375 140.40625 C 75.9752 140.45449 76.058573 139.74217 75.429688 138.72461 C 74.806692 137.71659 74.35571 137.56357 73.837891 138.1875 C 73.182167 138.9776 72.972344 138.61606 73.154297 137.00781 C 73.292599 135.78538 73.231626 135.23472 72.886719 134.56055 C 72.450842 133.70855 72.452442 133.70028 72.947266 134.14062 C 73.225159 134.38791 73.580955 134.50608 73.736328 134.4043 C 74.057878 134.19367 74.902379 131.82444 74.880859 131.19531 C 74.873033 130.96657 74.644547 131.47985 74.371094 132.33594 C 74.097642 133.19202 73.764921 134.0007 73.632812 134.13281 C 73.48894 134.27668 72.861149 133.54643 72.066406 132.31055 C 70.82671 130.38272 69.931497 129.33973 69.898438 129.67773 z M 88.582031 131.30859 C 88.397948 131.12887 88.377704 131.21476 88.515625 131.57422 C 88.996984 132.82877 89.451571 134.4863 89.488281 135.12109 C 89.527769 135.80393 89.528051 135.80365 89.638672 135.07031 C 89.755708 134.29444 89.043094 131.75874 88.582031 131.30859 z M 83.751953 135.63672 C 83.877917 135.51076 82.384741 135.51263 81.708984 135.63867 C 81.463607 135.68443 81.443914 138.95953 81.6875 139.20312 C 81.913721 139.42931 82.782353 139.38566 83.626953 139.10742 C 84.151821 138.9345 84.042419 138.89915 83.097656 138.93555 L 81.908203 138.98242 L 81.908203 137.39453 L 81.908203 135.80664 L 82.753906 135.79883 C 83.219729 135.79382 83.668693 135.71992 83.751953 135.63672 z M 80.203125 135.70117 C 79.72913 135.67825 79.1665 135.75085 78.732422 135.92969 C 78.365671 136.08083 78.608515 136.13587 79.525391 136.10938 L 80.849609 136.07227 L 80.966797 137.13086 L 81.085938 138.18945 L 81.185547 137.30273 C 81.239747 136.81593 81.219075 136.25131 81.140625 136.04688 C 81.06249 135.84325 80.67712 135.7241 80.203125 135.70117 z M 85.478516 135.73047 L 84.552734 135.75 L 85.611328 135.93945 C 87.107674 136.20737 87.55707 136.20737 86.933594 135.93945 C 86.642553 135.81441 85.987839 135.72007 85.478516 135.73047 z M 77.724609 136.29883 C 77.520307 136.09452 75.471976 137.02321 75.333984 137.38281 C 75.203575 137.72265 76.30489 139.59204 76.859375 139.9707 C 77.201976 140.20466 77.675791 140.18376 78.732422 139.88867 C 79.344627 139.71767 79.24125 139.69659 78.28125 139.80078 C 77.066836 139.93259 77.016463 139.90926 76.230469 138.82422 C 75.312514 137.55702 75.426589 137.21354 76.919922 136.7207 C 77.427355 136.55323 77.788959 136.36313 77.724609 136.29883 z M 88.917969 136.32422 C 88.336347 136.31712 87.861328 136.34351 87.861328 136.38281 C 87.861328 136.42212 88.24776 136.56461 88.720703 136.70117 C 89.907265 137.04379 89.977514 137.04335 89.976562 136.66797 C 89.976036 136.46085 89.58023 136.33222 88.917969 136.32422 z M 89.183594 138.07031 L 87.992188 138.28906 L 89.117188 138.23047 C 90.195742 138.1758 90.538032 138.36979 89.976562 138.7168 C 89.83104 138.80673 89.727261 139.1421 89.744141 139.46094 C 89.772217 139.9912 89.785074 139.99561 89.90625 139.51758 C 89.979108 139.23017 90.233019 138.85151 90.470703 138.67578 C 91.189063 138.1447 90.514231 137.82695 89.183594 138.07031 z M 87.837891 138.41602 C 88.067379 138.21823 86.116819 138.36885 85.611328 138.58789 C 85.270889 138.73539 85.555152 138.76246 86.40625 138.66406 C 87.133854 138.57998 87.777261 138.46832 87.837891 138.41602 z M 81.068359 139.01758 C 80.948139 139.18265 80.611355 139.38279 80.320312 139.46289 C 79.903064 139.57769 79.926421 139.59905 80.431641 139.56055 C 80.784045 139.53368 81.120828 139.33351 81.179688 139.11523 C 81.250394 138.85305 81.212782 138.81928 81.068359 139.01758 z M 89.992188 140.45703 C 89.984361 140.68577 90.169649 141.43634 90.404297 142.125 C 91.018434 143.92739 91.10867 143.49291 90.509766 141.61719 C 90.232846 140.7499 89.999988 140.22829 89.992188 140.45703 z M 74.140625 140.51172 C 72.720954 140.24206 71.45729 141.22655 72.779297 141.57227 C 73.211583 141.68531 73.308594 141.9329 73.308594 142.92578 C 73.308594 143.59425 73.368646 144.14062 73.441406 144.14062 C 73.514168 144.14063 73.572266 143.55374 73.572266 142.83594 C 73.572266 141.76009 73.480403 141.50079 73.041016 141.36133 C 72.244789 141.10862 72.675739 140.70702 73.787109 140.66602 C 74.453653 140.64143 74.565314 140.59242 74.140625 140.51172 z M 84.552734 144.99219 L 83.363281 145.0293 C 82.372396 145.06077 82.15942 145.15947 82.09375 145.61914 C 81.983757 146.38898 82.549284 146.77435 84.617188 147.33203 C 86.721116 147.89941 87.417786 147.97756 86.802734 147.58008 C 86.584452 147.43901 86.175241 147.32231 85.894531 147.32031 C 85.402176 147.3164 84.159223 146.97268 82.880859 146.48633 C 81.903056 146.11432 82.25356 145.36263 83.498047 145.16211 L 84.552734 144.99219 z M 80.980469 145.19922 C 80.402956 145.19922 80.249447 145.87689 80.783203 146.06836 C 81.230808 146.22892 81.509766 146.04025 81.509766 145.58008 C 81.509766 145.37039 81.27151 145.19922 80.980469 145.19922 z M 73.234375 145.26953 C 73.17356 144.86735 73.121141 145.13372 73.119141 145.86133 C 73.117154 146.58857 73.167669 146.91722 73.230469 146.5918 C 73.293259 146.26638 73.295195 145.67172 73.234375 145.26953 z M 85.533203 145.32227 C 85.473951 145.38152 85.888237 145.55298 86.453125 145.70508 C 87.018014 145.85719 87.715407 146.16032 88.001953 146.37695 C 88.762223 146.95172 88.892163 146.85777 88.169922 146.25586 C 87.566747 145.75318 85.746594 145.10888 85.533203 145.32227 z M 80.964844 145.46484 C 81.118953 145.46484 81.246094 145.583 81.246094 145.72852 C 81.246094 145.87404 81.193076 145.99414 81.128906 145.99414 C 81.064734 145.99414 80.939549 145.87404 80.849609 145.72852 C 80.759672 145.583 80.810735 145.46484 80.964844 145.46484 z M 77.898438 146.03711 C 77.476054 146.13829 76.909869 146.402 76.335938 146.79688 C 75.168824 147.59987 74.623048 148.29674 74.642578 148.95312 C 74.648274 149.1446 74.808413 148.94166 75 148.50195 C 75.325036 147.75596 77.194587 146.25781 77.800781 146.25781 C 78.375798 146.25781 78.020504 146.95342 76.824219 148.16797 C 76.138465 148.8642 75.691981 149.42401 75.832031 149.41211 C 76.159428 149.38429 78.599609 146.5994 78.599609 146.25391 C 78.599609 145.99652 78.320821 145.93593 77.898438 146.03711 z M 73.488281 147.79492 C 73.403819 147.58386 73.342768 147.64685 73.330078 147.95508 C 73.318589 148.23404 73.38083 148.39063 73.46875 148.30273 C 73.55667 148.21481 73.564711 147.98592 73.488281 147.79492 z "
         d="m 81.892578,121.08203 c -0.819903,-0.0502 -1.546041,-0.002 -1.613281,0.10742 -0.06724,0.10909 -0.562494,0.19918 -1.099609,0.20117 -0.537116,0.002 -1.097148,0.0923 -1.244141,0.19922 -0.489707,0.35618 -1.706537,3.0877 -1.943359,4.36133 -0.128531,0.69123 -0.134197,1.25781 -0.01172,1.25781 0.122479,0 0.760628,-0.38041 1.417969,-0.84375 0.801989,-0.56529 1.548774,-0.85953 2.269531,-0.89453 1.291959,-0.0626 1.755003,-0.3789 0.554687,-0.3789 -1.05085,0 -2.601948,0.63252 -3.441406,1.40234 l -0.634766,0.58203 0.144532,-1.14258 c 0.166526,-1.30311 1.405059,-3.91783 1.955078,-4.1289 0.202398,-0.0777 1.318218,-0.22156 2.478515,-0.31836 1.86775,-0.15576 2.109375,-0.12331 2.109375,0.26953 0,0.24404 0.296355,1.03012 0.660157,1.74805 0.804772,1.58808 0.804796,1.58347 0.06641,1.60937 -0.532178,0.0187 -0.516786,0.0485 0.148437,0.29102 0.409277,0.14919 0.799928,0.21573 0.867188,0.14843 0.06726,-0.0673 -0.23677,-0.88031 -0.675781,-1.80859 -0.439011,-0.92829 -0.735253,-1.88615 -0.658203,-2.12891 0.117406,-0.36991 -0.100232,-0.4568 -1.34961,-0.5332 z m 0.09766,4.09375 c -0.211067,0.0845 -0.148067,0.14746 0.160157,0.16016 0.278916,0.0115 0.435576,-0.0508 0.347656,-0.13867 -0.08792,-0.0879 -0.316817,-0.0979 -0.507813,-0.0215 z m -1.082031,2.40039 c -0.06227,0.0118 -0.141678,0.1614 -0.291015,0.46094 -0.172039,0.34508 -0.66214,0.70836 -1.097657,0.8125 -0.680171,0.1627 -0.662058,0.16983 0.138672,0.0625 0.509323,-0.0683 1.517076,-0.18713 2.240235,-0.26563 0.723159,-0.0785 1.379831,-0.21372 1.457031,-0.29882 0.07721,-0.0851 -0.361337,-0.0899 -0.97461,-0.0117 -0.95343,0.12164 -1.140768,0.0643 -1.285156,-0.39063 -0.08115,-0.25571 -0.125225,-0.38098 -0.1875,-0.36914 z m 6.671875,0.16211 c -0.154107,0 -0.207127,0.11815 -0.117187,0.26367 0.08994,0.14552 0.21708,0.26367 0.28125,0.26367 0.06418,0 0.117187,-0.11815 0.117187,-0.26367 0,-0.14552 -0.127141,-0.26367 -0.28125,-0.26367 z m -2.232422,0.18164 c -0.873124,0.0812 -1.638588,0.19355 -1.699218,0.24805 -0.196862,0.17708 1.676053,0.0419 2.492187,-0.17969 0.521948,-0.1417 0.250926,-0.16546 -0.792969,-0.0684 z m -7.082031,1.20313 c -0.530827,-0.1164 -3.884593,0.36311 -4.109375,0.58789 -0.08121,0.0812 0.08091,0.323 0.361328,0.53515 0.650717,0.49226 0.791251,0.50261 0.398438,0.0293 -0.416727,-0.50213 -0.196829,-0.59754 1.964843,-0.8418 1.018646,-0.11511 1.641468,-0.25424 1.384766,-0.31054 z m 9.423828,0.2832 c -0.06001,0.06 0.01026,0.4246 0.15625,0.80859 0.370556,0.97463 0.578438,0.87761 0.234375,-0.10937 -0.154776,-0.44399 -0.330615,-0.75922 -0.390625,-0.69922 z m -17.791015,0.27148 c -0.01102,0.11267 0.07405,0.3788 0.273437,0.81641 0.1668,0.36608 0.4129,0.59843 0.546875,0.51563 0.133978,-0.0828 0.211175,0.0105 0.171875,0.20703 -0.0393,0.1965 0.143708,0.76173 0.40625,1.25586 0.377301,0.71013 0.532496,0.82115 0.740234,0.52929 0.20139,-0.28295 0.226421,-0.25461 0.103516,0.12305 -0.09233,0.28372 0.06902,0.86458 0.380859,1.36914 0.4631,0.74932 0.515643,1.1281 0.363282,2.61524 -0.193447,1.88815 0.03489,2.17391 1.023437,1.27929 0.487549,-0.44123 0.534806,-0.42954 1.144531,0.2793 0.752729,0.8751 0.812653,1.41899 0.173828,1.58594 -0.433943,0.11339 -0.433909,0.12354 0.0078,0.15234 0.740825,0.0482 0.824198,-0.66408 0.195313,-1.68164 -0.622996,-1.00802 -1.073978,-1.16104 -1.591797,-0.53711 -0.655724,0.7901 -0.865547,0.42856 -0.683594,-1.17969 0.138302,-1.22243 0.07733,-1.77309 -0.267578,-2.44726 -0.435877,-0.852 -0.434277,-0.86027 0.06055,-0.41993 0.277893,0.24729 0.633689,0.36546 0.789062,0.26368 0.32155,-0.21063 1.166051,-2.57986 1.144531,-3.20899 -0.0078,-0.22874 -0.236312,0.28454 -0.509765,1.14063 -0.273452,0.85608 -0.606173,1.66476 -0.738282,1.79687 -0.143872,0.14387 -0.771663,-0.58638 -1.566406,-1.82226 -1.239696,-1.92783 -2.134909,-2.97082 -2.167968,-2.63282 z m 18.683593,1.63086 c -0.184083,-0.17972 -0.204327,-0.0938 -0.06641,0.26563 0.481359,1.25455 0.935946,2.91208 0.972656,3.54687 0.03949,0.68284 0.03977,0.68256 0.150391,-0.0508 0.117036,-0.77587 -0.595578,-3.31157 -1.056641,-3.76172 z m -4.830078,4.32813 c 0.125964,-0.12596 -1.367212,-0.12409 -2.042969,0.002 -0.245377,0.0458 -0.26507,3.32086 -0.02148,3.56445 0.226221,0.22619 1.094853,0.18254 1.939453,-0.0957 0.524868,-0.17292 0.415466,-0.20827 -0.529297,-0.17187 l -1.189453,0.0469 v -1.58789 -1.58789 l 0.845703,-0.008 c 0.465823,-0.005 0.914787,-0.0789 0.998047,-0.16211 z m -3.548828,0.0644 c -0.473995,-0.0229 -1.036625,0.0497 -1.470703,0.22852 -0.366751,0.15114 -0.123907,0.20618 0.792969,0.17969 l 1.324218,-0.0371 0.117188,1.05859 0.119141,1.05859 0.09961,-0.88672 c 0.0542,-0.4868 0.03353,-1.05142 -0.04492,-1.25585 -0.07814,-0.20363 -0.463505,-0.32278 -0.9375,-0.34571 z m 5.275391,0.0293 -0.925782,0.0195 1.058594,0.18945 c 1.496346,0.26792 1.945742,0.26792 1.322266,0 -0.291041,-0.12504 -0.945755,-0.21938 -1.455078,-0.20898 z m -7.753907,0.56836 c -0.204302,-0.20431 -2.252633,0.72438 -2.390625,1.08398 -0.130409,0.33984 0.970906,2.20923 1.525391,2.58789 0.342601,0.23396 0.816416,0.21306 1.873047,-0.082 0.612205,-0.171 0.508828,-0.19208 -0.451172,-0.0879 -1.214414,0.13181 -1.264787,0.10848 -2.050781,-0.97656 -0.917955,-1.2672 -0.80388,-1.61068 0.689453,-2.10352 0.507433,-0.16747 0.869037,-0.35757 0.804687,-0.42187 z m 11.19336,0.0254 c -0.581622,-0.007 -1.056641,0.0193 -1.056641,0.0586 0,0.0393 0.386432,0.1818 0.859375,0.31836 1.186562,0.34262 1.256811,0.34218 1.255859,-0.0332 -5.26e-4,-0.20712 -0.396332,-0.33575 -1.058593,-0.34375 z m 0.265625,1.74609 -1.191406,0.21875 1.125,-0.0586 c 1.078554,-0.0547 1.420844,0.13932 0.859374,0.48633 -0.145522,0.0899 -0.249301,0.4253 -0.232421,0.74414 0.02808,0.53026 0.04093,0.53467 0.162109,0.0566 0.07286,-0.28741 0.326769,-0.66607 0.564453,-0.8418 0.71836,-0.53108 0.04353,-0.84883 -1.287109,-0.60547 z m -1.345703,0.34571 c 0.229488,-0.19779 -1.721072,-0.0472 -2.226563,0.17187 -0.340439,0.1475 -0.05618,0.17457 0.794922,0.0762 0.727604,-0.0841 1.371011,-0.19574 1.431641,-0.24804 z m -6.769532,0.60156 c -0.12022,0.16507 -0.457004,0.36521 -0.748047,0.44531 -0.417248,0.1148 -0.393891,0.13616 0.111329,0.0977 0.352404,-0.0269 0.689187,-0.22704 0.748047,-0.44532 0.07071,-0.26218 0.03309,-0.29595 -0.111329,-0.0976 z m 8.923829,1.43945 c -0.0078,0.22874 0.177461,0.97931 0.412109,1.66797 0.614137,1.80239 0.704373,1.36791 0.105469,-0.50781 -0.27692,-0.86729 -0.509778,-1.3889 -0.517578,-1.16016 z m -15.851563,0.0547 c -1.419671,-0.26966 -2.683335,0.71483 -1.361328,1.06055 0.432286,0.11304 0.529297,0.36063 0.529297,1.35351 0,0.66847 0.06005,1.21484 0.132812,1.21484 0.07276,10e-6 0.13086,-0.58688 0.13086,-1.30468 0,-1.07585 -0.09186,-1.33515 -0.53125,-1.47461 -0.796227,-0.25271 -0.365277,-0.65431 0.746093,-0.69531 0.666544,-0.0246 0.778205,-0.0736 0.353516,-0.1543 z m 10.412109,4.48047 -1.189453,0.0371 c -0.990885,0.0315 -1.203861,0.13017 -1.269531,0.58984 -0.109993,0.76984 0.455534,1.15521 2.523438,1.71289 2.103928,0.56738 2.800598,0.64553 2.185546,0.24805 -0.218282,-0.14107 -0.627493,-0.25777 -0.908203,-0.25977 -0.492355,-0.004 -1.735308,-0.34763 -3.013672,-0.83398 -0.977803,-0.37201 -0.627299,-1.1237 0.617188,-1.32422 z m -3.572265,0.20703 c -0.577513,0 -0.731022,0.67767 -0.197266,0.86914 0.447605,0.16056 0.726563,-0.0281 0.726563,-0.48828 0,-0.20969 -0.238256,-0.38086 -0.529297,-0.38086 z m -7.746094,0.0703 c -0.06082,-0.40218 -0.113234,-0.13581 -0.115234,0.5918 -0.002,0.72724 0.04853,1.05589 0.111328,0.73047 0.06279,-0.32542 0.06473,-0.92008 0.0039,-1.32227 z m 12.298828,0.0527 c -0.05925,0.0592 0.355034,0.23071 0.919922,0.38281 0.564889,0.15211 1.262282,0.45524 1.548828,0.67187 0.76027,0.57477 0.89021,0.48082 0.167969,-0.12109 -0.603175,-0.50268 -2.423328,-1.14698 -2.636719,-0.93359 z m -4.568359,0.14257 c 0.154109,0 0.28125,0.11816 0.28125,0.26368 0,0.14552 -0.05302,0.26562 -0.117188,0.26562 -0.06417,0 -0.189357,-0.1201 -0.279297,-0.26562 -0.08994,-0.14552 -0.03887,-0.26368 0.115235,-0.26368 z m -3.066406,0.57227 c -0.422384,0.10118 -0.988569,0.36489 -1.5625,0.75977 -1.167114,0.80299 -1.71289,1.49986 -1.69336,2.15624 0.0057,0.19148 0.165835,-0.0115 0.357422,-0.45117 0.325036,-0.74599 2.194587,-2.24414 2.800781,-2.24414 0.575017,0 0.219723,0.69561 -0.976562,1.91016 -0.685754,0.69623 -1.132238,1.25604 -0.992188,1.24414 0.327397,-0.0278 2.767578,-2.81271 2.767578,-3.1582 0,-0.25739 -0.278788,-0.31798 -0.701171,-0.2168 z m -4.410157,1.75781 c -0.08446,-0.21106 -0.145513,-0.14807 -0.158203,0.16016 -0.01149,0.27896 0.05075,0.43555 0.138672,0.34765 0.08792,-0.0879 0.09596,-0.31681 0.01953,-0.50781 z" />
      <path
         style="fill:#575197;stroke-width:0.264583"
         d="m 75.028273,149.16831 c -0.08994,-0.14552 0.0221,-0.26458 0.248968,-0.26458 0.22687,0 0.41249,0.11906 0.41249,0.26458 0,0.14552 -0.112035,0.26458 -0.248968,0.26458 -0.136933,0 -0.322553,-0.11906 -0.41249,-0.26458 z m -3.321637,-1.55033 c -2.873018,-1.84791 -4.736763,-4.43819 -6.023457,-8.37155 -0.614727,-1.87919 -0.579721,-7.11587 0.0619,-9.26041 1.219678,-4.0766 3.869072,-8.05273 6.911637,-10.37278 l 1.837543,-1.40118 h 8.293551 8.293552 l 1.676334,1.6097 c 3.766317,3.6166 5.290108,9.69753 3.824525,15.26235 -0.914961,3.47411 -3.758832,8.60258 -4.994965,9.00763 -0.205894,0.0675 0.210825,-0.63664 0.926041,-1.56468 1.337064,-1.73494 2.617647,-4.15957 3.415406,-6.46667 0.595185,-1.72127 0.823574,-6.39088 0.424624,-8.68181 -0.4495,-2.58122 -2.139405,-5.68645 -4.064682,-7.46892 l -1.547831,-1.43302 h -7.924709 -7.92471 l -1.067384,0.77321 c -3.913076,2.83462 -6.732357,6.97332 -7.781163,11.42274 -0.835026,3.54249 -0.398369,8.06269 1.087611,11.25878 0.749739,1.61256 4.473403,5.64944 5.211105,5.64944 0.205124,0 0.521173,0.17859 0.70233,0.39687 0.514743,0.62023 -0.04984,0.46837 -1.337262,-0.3597 z m 15.86068,-0.58175 c 0.348037,-0.28985 0.705038,-0.45474 0.793334,-0.36644 0.187905,0.1879 -0.735764,0.9151 -1.145968,0.90222 -0.154088,-0.005 0.0046,-0.24595 0.352634,-0.53578 z"
         id="path30" />
      <path
         id="path28"
         style="fill:#592d54;stroke-width:0.264583"
         sodipodi:type="inkscape:offset"
         inkscape:radius="0.39547393"
         inkscape:original="M 80.195312 118.47656 C 79.839838 118.47656 79.723653 118.60275 79.828125 118.875 C 80.060684 119.48104 79.243979 120.52425 78.066406 121.125 C 77.486451 121.42087 77.011719 121.83852 77.011719 122.05273 C 77.011719 122.26694 76.458799 123.48339 75.78125 124.75781 C 75.103702 126.03223 74.745343 126.9126 74.986328 126.71289 C 75.367367 126.39709 75.426187 126.41486 75.429688 126.8457 C 75.431916 127.11818 75.544915 127.51814 75.681641 127.73438 C 75.887577 128.06009 76.076651 127.97659 76.783203 127.25391 C 77.609423 126.40883 79.076152 125.62109 79.822266 125.62109 C 80.086939 125.62109 80.1875 126.01183 80.1875 127.04883 L 80.1875 128.34375 C 80.313319 128.23593 80.548168 128.17557 80.621094 128.0293 C 80.922272 127.42521 80.930245 127.42311 81.101562 127.96289 C 81.23624 128.38723 81.437248 128.48282 81.988281 128.38672 C 84.131503 128.01298 86.242997 127.74223 87.005859 127.74023 C 87.784677 127.73843 87.854977 127.79911 87.712891 128.36523 C 87.610577 128.77288 87.828393 129.58821 88.333984 130.68164 C 89.309202 132.79073 89.626048 133.8483 89.808594 135.61133 L 89.953125 137.00195 L 89.238281 136.86133 C 88.54858 136.72658 88.543238 136.73383 89.117188 137.0332 C 89.444609 137.20398 89.712891 137.42675 89.712891 137.5293 C 89.712891 137.83893 86.418973 138.09481 86.318359 137.79297 C 86.269076 137.64512 85.923764 137.76283 85.552734 138.05469 C 84.711635 138.71631 83.626953 138.76395 83.626953 138.13867 C 83.626953 137.7492 83.577957 137.75612 83.248047 138.20312 C 82.762635 138.86081 82.406781 138.5205 82.15625 137.1582 C 81.971082 136.15132 81.981981 136.13156 82.648438 136.29883 C 83.023422 136.39295 83.403541 136.34972 83.494141 136.20312 C 83.706955 135.85879 84.994737 136.15732 85.382812 136.64062 C 85.639946 136.96068 85.702665 136.95975 85.828125 136.63281 C 85.94277 136.33405 86.190131 136.30244 86.982422 136.48633 C 88.254795 136.78165 88.633291 136.78125 88.125 136.48633 C 87.625063 136.19626 84.065121 135.71132 82.833984 135.76562 C 81.920051 135.80597 81.907072 135.82326 81.826172 137.0957 C 81.781086 137.80481 81.807769 138.55403 81.886719 138.75977 C 82.037739 139.15332 83.913458 139.06212 85.611328 138.57812 C 86.274231 138.38917 89.45692 137.95724 90.375 137.93164 C 90.520526 137.92758 90.621773 138.13206 90.601562 138.38672 C 90.581352 138.64138 90.671429 138.84961 90.800781 138.84961 C 91.242291 138.84961 91.036676 137.74291 90.572266 137.61914 C 90.204753 137.5212 90.096136 137.15737 90.041016 135.85742 C 89.962909 134.01537 89.731999 133.16788 88.591797 130.53125 C 87.932489 129.00665 87.851122 128.6065 88.115234 128.18359 C 88.633551 127.35361 88.114788 127.13439 86.390625 127.45312 C 83.385033 128.00875 82.568359 127.73506 82.568359 126.16797 C 82.568359 125.51467 83.032554 125.47608 84.337891 126.02148 C 84.864884 126.24169 85.344354 126.37441 85.402344 126.31641 C 85.460333 126.25843 85.056785 125.37125 84.505859 124.3457 C 83.369537 122.23043 82.96917 121.95224 84.005859 123.99805 C 84.851366 125.66658 84.84911 125.72065 83.957031 125.48438 C 82.998674 125.23055 81.173875 125.11211 80.886719 125.28516 C 80.761628 125.36054 80.194845 125.44516 79.626953 125.47266 C 78.951829 125.5054 78.179901 125.81441 77.398438 126.36523 C 76.741097 126.82857 76.102948 127.20898 75.980469 127.20898 C 75.351474 127.20898 77.09338 122.20237 77.935547 121.58984 C 78.08254 121.4829 78.642572 121.39262 79.179688 121.39062 C 79.716802 121.38839 80.212057 121.29859 80.279297 121.18945 C 80.346539 121.08022 81.072675 121.03183 81.892578 121.08203 C 83.27801 121.16679 83.370714 121.21222 83.212891 121.74219 L 83.042969 122.3125 L 83.630859 121.74414 C 84.461101 120.94251 84.124626 120.64936 82.548828 120.80078 C 81.010811 120.94856 80.727203 120.72036 80.720703 119.33594 C 80.71751 118.65837 80.605733 118.47656 80.195312 118.47656 z M 80.1875 128.34375 C 80.125738 128.39668 80.055194 128.4526 79.974609 128.49805 L 80.1875 128.47656 L 80.1875 128.34375 z M 79.974609 128.49805 L 78.3125 128.66602 C 77.280778 128.76963 76.119527 128.95526 75.732422 129.08008 C 75.274035 129.22788 75.641308 129.25515 76.787109 129.15625 C 78.666903 128.99399 79.460689 128.78788 79.974609 128.49805 z M 79.689453 120.59375 C 79.834975 120.59375 79.880956 120.7119 79.791016 120.85742 C 79.701079 121.00294 79.508802 121.12305 79.363281 121.12305 C 79.217759 121.12305 79.171779 121.00294 79.261719 120.85742 C 79.351656 120.7119 79.543932 120.59375 79.689453 120.59375 z M 81.503906 125.76953 C 81.648905 125.82587 81.825483 126.25868 81.951172 127.0332 C 82.078418 127.81733 82.026777 128.00195 81.677734 128.00195 C 81.34 128.00195 81.246094 127.73113 81.246094 126.75781 C 81.246094 126.03212 81.358908 125.71319 81.503906 125.76953 z M 73.511719 129.17578 C 73.170036 129.6695 73.293609 130.07725 73.837891 130.25 C 74.156192 130.35103 74.365681 130.64872 74.363281 130.99609 C 74.357774 131.79438 73.709147 133.58267 73.416016 133.60938 C 73.024157 133.64502 72.512534 132.41064 72.681641 131.83789 C 72.803899 131.42381 72.767979 131.3758 72.511719 131.61914 C 72.256542 131.86146 72.00161 131.65916 71.357422 130.69727 C 70.467652 129.36869 69.603516 128.92468 69.603516 129.79688 C 69.603516 130.07829 69.876517 130.71183 70.208984 131.20508 C 70.541451 131.69833 71.262414 132.921 71.810547 133.92188 C 72.836602 135.79542 72.909579 136.63553 72.15625 137.8418 C 71.941122 138.18627 71.951364 138.39082 72.191406 138.63086 C 72.632824 139.07228 72.598868 140.12573 72.128906 140.5957 C 71.645902 141.0787 71.851292 141.66353 72.570312 141.85156 C 73.088416 141.98704 73.109014 142.11726 72.941406 144.19336 C 72.843846 145.40213 72.8424 146.77706 72.9375 147.25 C 73.032597 147.72294 73.124388 148.10963 73.142578 148.10938 C 73.160758 148.10911 73.201342 146.6692 73.232422 144.9082 C 73.285102 141.92358 73.253822 141.69695 72.769531 141.57031 C 71.616303 141.26873 72.361463 140.44059 73.792969 140.43359 C 74.892657 140.42796 75.689453 140.14491 75.689453 139.75977 C 75.689453 139.56657 75.402764 139.07491 75.052734 138.66797 C 74.443009 137.95913 74.395752 137.94744 73.908203 138.38867 C 72.922395 139.28081 72.691449 138.99673 72.882812 137.12891 L 73.058594 135.41016 L 71.462891 132.71289 C 70.585699 131.22923 69.869141 129.90428 69.869141 129.76953 C 69.869141 129.26045 70.78557 130.31831 72.056641 132.29492 C 72.78103 133.4214 73.473893 134.27963 73.597656 134.20312 C 73.72142 134.12663 74.070308 133.26875 74.371094 132.29492 C 74.85941 130.71394 74.873549 130.49256 74.509766 130.22656 C 73.972778 129.8339 73.992946 129.59094 74.564453 129.58594 C 74.905891 129.58307 74.854957 129.4913 74.367188 129.23828 C 73.909486 129.0008 73.646225 128.98142 73.511719 129.17578 z M 72.960938 130.59766 C 72.876475 130.38659 72.813481 130.44958 72.800781 130.75781 C 72.789293 131.03668 72.851533 131.19337 72.939453 131.10547 C 73.027373 131.01755 73.037368 130.78865 72.960938 130.59766 z M 80.837891 136.07227 L 79.507812 136.125 C 78.205619 136.17679 75.902814 136.96943 75.591797 137.47266 C 75.505652 137.61205 75.799094 138.22744 76.244141 138.8418 C 76.9667 139.83928 77.142802 139.94378 77.892578 139.81836 C 78.354389 139.74111 79.233312 139.60191 79.845703 139.50781 C 81.124382 139.31124 81.28504 139.00214 81.019531 137.26172 L 80.837891 136.07227 z M 80.103516 136.20312 C 80.668802 136.20312 80.716797 136.31521 80.716797 137.62305 L 80.716797 139.04297 L 79.527344 139.20508 C 78.872601 139.29483 78.054171 139.43879 77.708984 139.52539 C 77.192247 139.65509 76.973018 139.51077 76.472656 138.70117 C 75.879693 137.74173 75.878405 137.70844 76.369141 137.34961 C 76.979742 136.90313 79.258211 136.20312 80.103516 136.20312 z M 74.607422 138.30078 L 75.007812 139.07422 C 75.403321 139.83905 75.399546 139.84783 74.589844 140.00977 C 74.14023 140.09967 73.608294 140.17188 73.408203 140.17188 C 72.778536 140.17188 73.012103 139.43709 73.826172 138.85742 L 74.607422 138.30078 z M 90.160156 139.18555 C 90.093073 138.92812 90.034697 139.07516 90.029297 139.51172 C 90.023905 139.94827 90.077911 140.15766 90.150391 139.97852 C 90.222861 139.79939 90.227236 139.44298 90.160156 139.18555 z M 90.345703 140.56055 C 90.29531 140.66202 90.396494 141.2543 90.691406 142.25781 C 90.953023 143.14804 91.269819 143.87675 91.394531 143.87695 C 91.519246 143.87716 91.56713 143.72878 91.5 143.54688 C 91.432864 143.36497 91.168367 142.582 90.914062 141.80859 C 90.598061 140.84754 90.396097 140.45908 90.345703 140.56055 z M 83.882812 145.20312 C 83.098453 145.18145 82.507088 145.31487 82.392578 145.61328 C 82.113337 146.34097 82.570739 146.57315 85.744141 147.30664 C 87.052248 147.60898 87.018874 147.60821 87.199219 147.31641 C 87.296258 147.15939 86.989329 147.05078 86.443359 147.05078 C 85.240319 147.05078 84.685547 146.82454 84.685547 146.33008 C 84.685547 146.0002 84.614195 145.98735 84.28125 146.26367 C 83.767113 146.69036 82.311191 146.14584 82.761719 145.69531 C 83.192563 145.26447 85.442727 145.71503 86.068359 146.35742 C 86.369496 146.66666 86.535983 146.77927 86.439453 146.60742 C 86.139715 146.07385 86.792012 145.92579 87.474609 146.37305 C 87.832012 146.60724 88.125 146.67818 88.125 146.5293 C 88.125 146.38043 88.093118 146.25781 88.054688 146.25781 C 88.016253 146.25781 87.333365 146.01956 86.537109 145.72852 C 85.644581 145.40229 84.667172 145.2248 83.882812 145.20312 z M 80.964844 145.46484 C 80.810737 145.46484 80.759669 145.583 80.849609 145.72852 C 80.939546 145.87404 81.064736 145.99414 81.128906 145.99414 C 81.193083 145.99414 81.246094 145.87404 81.246094 145.72852 C 81.246094 145.583 81.118953 145.46484 80.964844 145.46484 z M 77.787109 146.25781 C 77.503732 146.25781 75.160156 147.78423 75.160156 147.96875 C 75.160156 148.02262 75.078157 148.28408 74.976562 148.54883 C 74.874969 148.81358 75.167777 148.61492 75.628906 148.10742 C 76.403981 147.25439 76.469363 147.22896 76.476562 147.7793 C 76.480828 148.10672 76.377999 148.375 76.248047 148.375 C 76.118096 148.375 75.932507 148.58323 75.835938 148.83789 C 75.739366 149.09255 76.202148 148.76986 76.865234 148.12109 C 78.023872 146.98748 78.384429 146.25781 77.787109 146.25781 z M 77.738281 146.61719 C 77.752814 146.65156 77.686679 146.74561 77.546875 146.91406 C 77.165842 147.37318 77.011719 147.42032 77.011719 147.08008 C 77.011719 146.95013 77.208401 146.76943 77.447266 146.67773 C 77.62883 146.60806 77.723749 146.58281 77.738281 146.61719 z "
         d="m 80.195312,118.08203 c -0.224533,0 -0.455153,0.0169 -0.646484,0.22461 -0.09566,0.10383 -0.147942,0.25127 -0.152344,0.37695 -0.0044,0.12569 0.02394,0.23349 0.0625,0.33399 0.03361,0.0876 -0.01589,0.38385 -0.294922,0.74023 -0.279029,0.35638 -0.738134,0.74054 -1.277343,1.01563 -0.318167,0.16231 -0.603727,0.35315 -0.826172,0.54883 -0.111223,0.0978 -0.206382,0.19601 -0.285156,0.30468 -0.07877,0.10868 -0.158203,0.22616 -0.158203,0.42578 0,-0.11658 -0.01466,0.0419 -0.07227,0.19336 -0.05761,0.15143 -0.144698,0.35752 -0.253906,0.59766 -0.218418,0.48028 -0.524152,1.09799 -0.859375,1.72852 -0.342927,0.64502 -0.604065,1.1884 -0.757813,1.5664 -0.07687,0.189 -0.130018,0.31725 -0.152344,0.47852 -0.0056,0.0403 -0.01031,0.0827 0,0.15429 0.01031,0.0716 0.04554,0.21053 0.19336,0.30274 0.147818,0.0922 0.307282,0.0609 0.380859,0.0312 0.005,-0.002 0.0051,-0.004 0.0098,-0.006 0.03893,0.29547 0.08635,0.59923 0.242187,0.8457 0.07017,0.11099 0.159241,0.23444 0.328125,0.3125 0.168884,0.0781 0.38148,0.0559 0.527344,-0.008 0.291728,-0.12748 0.503,-0.35025 0.863281,-0.71875 0.374273,-0.38282 0.921985,-0.77717 1.453125,-1.0625 0.489754,-0.2631 0.943648,-0.39423 1.201172,-0.41797 0.03997,0.15863 0.07227,0.49527 0.07227,0.99805 v 1.07031 l -1.519531,0.1543 c -1.049095,0.10535 -2.164142,0.26912 -2.66211,0.42968 -0.06633,0.0214 -0.122809,0.0419 -0.179687,0.0684 -0.05688,0.0265 -0.123614,0.006 -0.234375,0.20508 -0.05538,0.0995 -0.05535,0.3293 0.02734,0.44141 0.08269,0.1121 0.154479,0.1313 0.201172,0.14844 0.09339,0.0343 0.141977,0.0346 0.203125,0.0391 0.244592,0.0178 0.611796,-0.005 1.191406,-0.0547 1.793794,-0.15484 2.624778,-0.35785 3.216797,-0.66211 l 0.189453,-0.0195 a 0.39551347,0.39551347 0 0 0 0.34375,-0.29687 c 0.02252,-0.0128 0.01918,-0.0118 0.04688,-0.0274 0.06418,-0.036 0.146738,-0.13497 0.226562,-0.21484 0.08762,0.163 0.198852,0.31237 0.375,0.39648 0.264074,0.12611 0.532493,0.10209 0.837891,0.0488 2.130933,-0.3716 4.27713,-0.63866 4.949218,-0.64062 0.160679,-3.8e-4 0.265067,0.007 0.347657,0.0137 -0.0076,0.0421 -0.0071,0.0559 -0.02344,0.12109 -0.08244,0.32848 -0.0295,0.67596 0.08398,1.09961 0.113486,0.42365 0.301116,0.91745 0.560547,1.47852 0.967777,2.09299 1.26202,3.07217 1.441407,4.80468 l 0.08984,0.85743 -0.191406,-0.0371 c -0.173174,-0.0338 -0.30362,-0.0585 -0.40625,-0.0742 -0.05132,-0.008 -0.09457,-0.0136 -0.148437,-0.0156 -0.02693,-0.001 -0.0559,-0.003 -0.107422,0.006 -0.0074,0.001 -0.02072,0.008 -0.0293,0.01 -0.0361,-0.0412 -0.0741,-0.10317 -0.107422,-0.12891 -0.0581,-0.0449 -0.118639,-0.0828 -0.191406,-0.125 -0.259832,-0.15076 -0.550788,-0.20118 -0.986328,-0.28906 -0.435541,-0.0879 -0.971633,-0.17377 -1.53125,-0.25 -1.119235,-0.15246 -2.306129,-0.26455 -2.990235,-0.23438 -0.229685,0.0101 -0.411601,0.0149 -0.59375,0.0527 -0.182149,0.0378 -0.389423,0.13491 -0.519531,0.30664 -0.260216,0.34346 -0.230957,0.7024 -0.271484,1.33984 -0.0063,0.0983 -2.61e-4,0.18517 -0.0039,0.28321 -0.0085,-0.0573 -0.0084,-0.0923 -0.01758,-0.15235 l -0.18164,-1.18945 a 0.39551347,0.39551347 0 0 0 -0.40625,-0.33399 l -1.330078,0.0527 c -0.721899,0.0287 -1.6376,0.24808 -2.44336,0.52539 -0.40288,0.13866 -0.774811,0.2921 -1.080078,0.45117 -0.305267,0.15907 -0.544803,0.28663 -0.712891,0.55859 -0.142737,0.23097 -0.0775,0.36553 -0.04492,0.49219 0.03258,0.12666 0.08418,0.2517 0.15039,0.39063 0.132421,0.27786 0.327399,0.60124 0.5625,0.92578 0.366385,0.50579 0.600719,0.82034 0.933594,1.01758 0.332874,0.19723 0.702124,0.18367 1.099609,0.11718 0.457526,-0.0765 1.338551,-0.21671 1.949219,-0.31054 0.333825,-0.0513 0.611799,-0.108 0.859375,-0.2168 0.247576,-0.1088 0.468191,-0.291 0.595703,-0.53516 0.08541,-0.16354 0.09323,-0.35997 0.115234,-0.55078 0.01388,0.0952 0.0046,0.21171 0.04102,0.30664 0.06884,0.17941 0.20714,0.27598 0.328125,0.33594 0.120985,0.06 0.243127,0.0934 0.378906,0.11719 0.27156,0.0476 0.594055,0.0551 0.962891,0.0371 0.737672,-0.0359 1.653642,-0.18287 2.533203,-0.4336 0.247394,-0.0705 1.243565,-0.23911 2.230469,-0.37304 0.913295,-0.12395 1.79135,-0.21603 2.253906,-0.24024 -1.51e-4,0.005 0.0024,0.004 0.002,0.01 -0.0099,0.12477 0.02357,0.23848 0.05078,0.35351 -0.02071,-0.01 -0.02474,-0.024 -0.05078,-0.0312 -0.09683,-0.0268 -0.226464,-0.009 -0.30664,0.0352 -0.160353,0.0878 -0.174275,0.17591 -0.195313,0.22852 -0.08415,0.21043 -0.0674,0.3291 -0.07031,0.56445 -0.0029,0.23536 -6.56e-4,0.39989 0.04297,0.56836 0.01091,0.0421 0.02239,0.0877 0.06055,0.15234 0.02935,0.0497 0.13724,0.11653 0.253907,0.16211 -0.100116,0.20462 -0.05768,0.26317 -0.04883,0.3711 0.0089,0.10904 0.02691,0.23441 0.05664,0.38671 0.05946,0.30462 0.162559,0.71245 0.3125,1.22266 0.134753,0.45854 0.283032,0.87433 0.419922,1.18945 0.06844,0.15756 0.131843,0.28929 0.201172,0.40039 0.03466,0.0556 0.06934,0.105 0.123047,0.16016 0.0537,0.0552 0.129869,0.15201 0.33789,0.15234 0.219281,3.7e-4 0.44462,-0.19221 0.501953,-0.37109 0.05733,-0.17887 0.03084,-0.33786 -0.02539,-0.49023 -0.05633,-0.15263 -0.328404,-0.95326 -0.582032,-1.72461 -0.16087,-0.48926 -0.290926,-0.83581 -0.40039,-1.06836 -0.05473,-0.11628 -0.09544,-0.19886 -0.173828,-0.29297 -0.03581,-0.043 -0.08982,-0.1049 -0.22461,-0.14844 0.0069,-0.0149 0.02161,-0.0347 0.02734,-0.0488 0.130458,-0.32246 0.100575,-0.65145 0.02344,-0.97851 0.07555,0.0478 0.153385,0.0957 0.259765,0.0957 0.137798,0 0.288049,-0.0514 0.392578,-0.14062 0.10453,-0.0893 0.162817,-0.20034 0.197266,-0.30274 0.0689,-0.2048 0.06131,-0.39839 0.02539,-0.5918 -0.03593,-0.1934 -0.105237,-0.3846 -0.216797,-0.55859 -0.111561,-0.17399 -0.274597,-0.34722 -0.525391,-0.41406 -0.07538,-0.0201 -0.04759,0.0301 -0.105469,-0.16211 -0.05788,-0.19227 -0.105652,-0.59383 -0.132812,-1.23438 -0.07929,-1.86988 -0.335733,-2.81773 -1.480469,-5.46484 -0.327003,-0.75617 -0.503636,-1.22948 -0.560547,-1.50977 -0.05691,-0.28028 -0.03607,-0.3242 0.05664,-0.47265 0.149421,-0.23927 0.257397,-0.45844 0.251953,-0.72656 -0.0054,-0.26813 -0.218591,-0.54247 -0.455078,-0.64258 -0.472974,-0.20023 -1.044697,-0.12259 -1.929688,0.041 -1.485086,0.27454 -2.411622,0.31187 -2.839843,0.16797 -0.214111,-0.072 -0.305943,-0.15518 -0.384766,-0.30664 -0.07882,-0.15145 -0.130859,-0.40039 -0.130859,-0.75781 0,-0.11649 0.02685,-0.15325 0.01758,-0.14063 -0.0093,0.0126 -0.04765,0.017 0.01563,0.0117 0.126541,-0.0105 0.555233,0.0827 1.189453,0.34766 0.276786,0.11566 0.538249,0.20784 0.753906,0.26758 0.107829,0.0299 0.203108,0.0526 0.296875,0.0644 0.04688,0.006 0.09183,0.0106 0.154297,0.006 0.06246,-0.005 0.160777,0.001 0.291016,-0.12891 0.133321,-0.1333 0.120551,-0.24035 0.121093,-0.29687 5.42e-4,-0.0565 -0.0051,-0.0888 -0.01172,-0.1211 -0.01331,-0.0645 -0.03214,-0.11841 -0.05469,-0.18164 -0.0451,-0.12644 -0.109436,-0.2823 -0.193359,-0.46679 -0.167846,-0.36898 -0.410542,-0.8519 -0.689453,-1.3711 -0.286952,-0.53416 -0.527136,-0.9537 -0.714844,-1.25586 -0.09385,-0.15108 -0.174557,-0.27135 -0.244141,-0.36718 -0.06958,-0.0958 -0.09295,-0.15382 -0.228515,-0.24805 -0.0034,-0.002 -0.01395,-0.005 -0.01758,-0.008 l 0.257812,-0.25 c 0.225828,-0.21805 0.39061,-0.40615 0.490234,-0.63282 0.04981,-0.11333 0.08339,-0.24481 0.06445,-0.39257 -0.01893,-0.14777 -0.103945,-0.29516 -0.208985,-0.38672 -0.21008,-0.18313 -0.444705,-0.21858 -0.722656,-0.24024 -0.277951,-0.0217 -0.610201,-0.01 -1.017578,0.0293 -0.747414,0.0718 -1.102818,0.008 -1.203125,-0.0723 -0.05015,-0.0402 -0.09218,-0.0974 -0.13086,-0.25781 -0.03867,-0.16043 -0.06094,-0.40953 -0.0625,-0.74219 -0.0017,-0.36036 -0.0093,-0.62937 -0.167968,-0.88867 -0.07934,-0.12965 -0.211763,-0.24106 -0.34961,-0.29687 -0.137847,-0.0558 -0.27054,-0.0664 -0.402344,-0.0664 z m -0.736328,2.71875 c 0.07608,-0.004 0.172306,0.15339 0.134766,0.11524 -0.05418,-0.0287 -0.108621,-0.0339 -0.134766,-0.10157 -0.0037,-0.01 0.0026,-0.005 0,-0.0137 z m 1.15625,0.5957 c -0.07147,0.1161 -0.120648,0.11569 -0.128906,0.11914 -0.0083,0.003 0.0092,-0.003 0.03906,-0.01 0.05963,-0.0126 0.170204,-0.0262 0.304687,-0.0352 0.268967,-0.0179 0.643956,-0.0183 1.039063,0.006 0.618387,0.0378 0.894626,0.0938 0.974609,0.11133 -0.0053,0.0234 -6.92e-4,0.0105 -0.0098,0.041 l -0.169922,0.57031 a 0.39551347,0.39551347 0 0 0 0.353516,0.50586 c 2.36e-4,0.002 -2.37e-4,0.004 0,0.006 0.01836,0.11859 0.05184,0.20059 0.101563,0.32617 0.09944,0.25115 0.271025,0.62324 0.533203,1.14062 0.207993,0.41046 0.36276,0.71543 0.460937,0.93555 -0.02722,-0.007 -0.02533,-0.004 -0.05469,-0.0117 -0.524515,-0.13892 -1.230877,-0.23044 -1.863282,-0.27148 -0.316202,-0.0205 -0.611835,-0.0277 -0.859374,-0.0176 -0.24754,0.0101 -0.406831,-0.0144 -0.654297,0.13477 0.05379,-0.0324 0.0065,-0.005 -0.05664,0.01 -0.06315,0.0151 -0.153557,0.033 -0.259766,0.0488 -0.212417,0.0316 -0.487091,0.0592 -0.757812,0.0723 -0.780807,0.0379 -1.612726,0.38155 -2.4375,0.9629 -0.321071,0.22631 -0.637584,0.43407 -0.882813,0.58007 -0.0041,0.002 -0.0057,0.003 -0.0098,0.006 0.0073,-0.0562 0.0017,-0.0735 0.01367,-0.13867 0.0816,-0.44408 0.261794,-1.07755 0.488281,-1.72851 0.226486,-0.65096 0.499475,-1.32361 0.761719,-1.85938 0.262244,-0.53577 0.571218,-0.9497 0.626953,-0.99023 -0.0769,0.0559 0.104686,-0.036 0.30664,-0.0684 0.201955,-0.0324 0.460119,-0.0557 0.707032,-0.0566 0.290091,-0.001 0.565245,-0.0245 0.794921,-0.0664 0.114839,-0.0209 0.216531,-0.0458 0.314454,-0.082 0.09792,-0.0363 0.206391,-0.049 0.324218,-0.24024 z m -6.767578,7.25391 c -0.23527,-0.0172 -0.520697,0.0993 -0.660156,0.30078 -0.212528,0.3071 -0.325394,0.65756 -0.222656,0.9961 0.02846,0.0938 0.100442,0.15949 0.15625,0.23632 -0.04573,-0.0389 -0.08577,-0.0847 -0.185547,-0.0996 -0.136198,-0.0203 -0.292626,0.0505 -0.361328,0.11914 -0.137404,0.1374 -0.127414,0.21565 -0.142578,0.29297 -0.01516,0.0773 -0.02169,0.15616 -0.02539,0.2461 -0.0062,0.1505 0.0063,0.27429 0.05078,0.41406 -3.72e-4,2.3e-4 -0.0016,-2.3e-4 -0.002,0 -0.05995,0.0372 -0.102221,0.0792 -0.148437,0.12109 -0.100938,-0.0858 -0.314513,-0.343 -0.621094,-0.80078 -0.466489,-0.69655 -0.906543,-1.17472 -1.357422,-1.40625 -0.225439,-0.11576 -0.522582,-0.18945 -0.787109,-0.0215 -0.264527,0.16796 -0.332032,0.46469 -0.332032,0.74805 0,0.26859 0.08878,0.50187 0.208985,0.78124 0.120201,0.27938 0.280837,0.57757 0.46289,0.84766 0.311276,0.46181 1.038898,1.6938 1.582032,2.68555 0.502962,0.91839 0.74892,1.55389 0.792968,2.05469 0.04405,0.50079 -0.08377,0.90351 -0.435547,1.46679 -0.127687,0.20446 -0.224124,0.4143 -0.21289,0.66016 0.01123,0.24586 0.146939,0.45944 0.304687,0.61719 0.105897,0.10589 0.204832,0.38181 0.195313,0.67968 -0.0095,0.29788 -0.123934,0.59269 -0.257813,0.72657 -0.317754,0.31775 -0.460253,0.7613 -0.324218,1.14843 0.136034,0.38714 0.497625,0.65246 0.945312,0.76954 0.115145,0.0301 0.148616,0.0537 0.138672,0.0449 -0.0099,-0.009 -0.0027,-0.0254 0.01367,0.0781 0.03279,0.20694 0.0075,0.7686 -0.07617,1.80469 -0.04973,0.61621 -0.07354,1.27058 -0.07422,1.83594 -6.83e-4,0.56535 0.01394,1.02061 0.07617,1.33007 0.04829,0.24016 0.096,0.45836 0.134766,0.6211 0.01938,0.0814 0.03674,0.148 0.05273,0.20312 0.008,0.0276 0.01499,0.0501 0.02734,0.082 0.0062,0.016 0.01067,0.0327 0.03125,0.0684 0.01029,0.0178 0.05984,0.0793 0.06055,0.0801 3.55e-4,3.7e-4 0.08952,0.0682 0.08984,0.0684 1.6e-4,9e-5 0.08383,0.0371 0.08398,0.0371 1.51e-4,5e-5 0.118998,0.0156 0.119141,0.0156 7.1e-5,0 0.205006,-0.0585 0.205078,-0.0586 7.1e-5,-4e-5 0.09563,-0.0858 0.0957,-0.0859 1.45e-4,-1.8e-4 0.05845,-0.0973 0.05859,-0.0977 2.95e-4,-7e-4 0.02043,-0.0585 0.02344,-0.0723 0.006,-0.0275 0.0064,-0.0388 0.0078,-0.0508 0.0028,-0.024 0.0042,-0.0436 0.0059,-0.0684 0.0034,-0.0495 0.0063,-0.11425 0.0098,-0.19726 0.007,-0.16603 0.01526,-0.40226 0.02344,-0.69336 0.01636,-0.58221 0.03327,-1.38204 0.04883,-2.26367 0.02637,-1.49387 0.03787,-2.29009 -0.0332,-2.80274 -0.03554,-0.25632 -0.09218,-0.46513 -0.234375,-0.63867 -0.142196,-0.17354 -0.342239,-0.24841 -0.490234,-0.28711 -0.146686,-0.0384 -0.141128,-0.05 -0.177735,-0.0742 0.145559,-0.10358 0.53492,-0.28237 1.103516,-0.28516 0.583284,-0.003 1.090491,-0.0748 1.490234,-0.21679 0.199872,-0.071 0.375501,-0.15704 0.523438,-0.28711 0.147937,-0.13007 0.27539,-0.33181 0.27539,-0.56445 0,-0.29222 -0.110701,-0.44194 -0.240234,-0.66407 -0.129533,-0.22212 -0.298681,-0.46285 -0.490234,-0.68554 -0.307456,-0.35744 -0.448042,-0.60542 -0.824219,-0.69727 -0.188089,-0.0459 -0.394835,0.0156 -0.527344,0.0957 -0.132509,0.0801 -0.234487,0.17409 -0.359375,0.28711 -0.187522,0.16971 -0.305165,0.24376 -0.40039,0.30078 -0.01349,-0.0531 -0.01865,-0.042 -0.02344,-0.17187 -0.0089,-0.24191 0.0097,-0.59677 0.05664,-1.05469 l 0.175781,-1.71875 a 0.39551347,0.39551347 0 0 0 -0.05273,-0.24219 l -1.207032,-2.03906 c 0.188549,0.26793 0.394212,0.58298 0.552735,0.7793 0.146336,0.18122 0.273899,0.32495 0.392578,0.43555 0.05934,0.0553 0.113697,0.10305 0.193359,0.14843 0.03983,0.0227 0.08638,0.0477 0.16211,0.0625 0.07573,0.0148 0.199349,0.0133 0.3125,-0.0566 0.12074,-0.0746 0.142274,-0.12694 0.177734,-0.17968 0.03546,-0.0527 0.06576,-0.10607 0.09766,-0.16797 0.06378,-0.12381 0.132055,-0.27706 0.205078,-0.45703 0.146047,-0.35995 0.309438,-0.82545 0.462891,-1.32227 0.245376,-0.79444 0.381314,-1.24355 0.40625,-1.61719 0.01247,-0.18682 -0.0096,-0.37377 -0.0918,-0.53515 -0.07213,-0.14163 -0.1784,-0.2301 -0.279297,-0.3086 0.03322,-0.006 0.05606,0.001 0.09766,-0.0137 0.06653,-0.0242 0.176835,-0.0685 0.251953,-0.21484 0.07512,-0.1464 0.03451,-0.33027 -0.01172,-0.41211 -0.09246,-0.1637 -0.166803,-0.18752 -0.253906,-0.24414 -0.0871,-0.0566 -0.190241,-0.11323 -0.31836,-0.17969 -0.252461,-0.13099 -0.465902,-0.21911 -0.701172,-0.23633 z m -0.550781,1.75 c 0.123788,0.0963 0.26544,0.17691 0.421875,0.22656 0.152479,0.0484 0.251291,0.18037 0.25,0.36719 -0.002,0.29408 -0.154502,0.94093 -0.34375,1.46289 -0.08927,0.24621 -0.184757,0.46081 -0.267578,0.61524 -0.05138,-0.0774 -0.106153,-0.15534 -0.154297,-0.27149 -0.132443,-0.31951 -0.174612,-0.74307 -0.142578,-0.85156 0.03264,-0.11056 0.05726,-0.19905 0.07227,-0.28906 0.0075,-0.045 0.0138,-0.0893 0.01172,-0.15039 -7.71e-4,-0.0226 -0.03021,-0.0691 -0.03516,-0.0996 0.03001,-0.0184 0.09103,-0.007 0.109375,-0.0254 0.160003,-0.16001 0.180991,-0.3262 0.1875,-0.47852 0.0065,-0.15232 -0.01745,-0.30347 -0.07813,-0.45508 -0.0066,-0.0165 -0.02474,-0.0349 -0.03125,-0.0508 z m 10.533203,6.00977 c -0.05401,0.0874 -0.06941,0.0509 0.02734,0.043 0.09675,-0.008 0.25745,0.004 0.425781,0.043 0.336662,0.078 0.7058,0.28646 0.791016,0.39258 0.06926,0.0862 0.1279,0.15655 0.203125,0.22461 0.07522,0.0681 0.184616,0.16555 0.384765,0.16211 0.20015,-0.003 0.346843,-0.14679 0.408203,-0.23828 0.06136,-0.0915 0.09166,-0.16975 0.126954,-0.26172 0.02491,-0.0649 -0.06686,0.005 0.0039,-0.004 0.07077,-0.009 0.308951,0.0109 0.691406,0.0996 0.644638,0.14963 1.035603,0.2325 1.328125,0.23243 0.05515,-2e-5 0.125756,-0.0157 0.203125,-0.0391 0.01584,0.0157 0.03679,0.0449 0.04883,0.0547 0.04857,0.0395 0.08265,0.0592 0.125,0.084 0.08276,0.0485 0.188738,0.10502 0.328125,0.17774 -0.266243,0.0452 -0.568073,0.0893 -0.902343,0.11523 -0.405933,0.0315 -0.817623,0.0438 -1.115235,0.0312 -0.148806,-0.006 -0.271112,-0.0202 -0.332031,-0.0332 -0.03046,-0.006 -0.04533,-0.0147 -0.02734,-0.006 0.01798,0.009 0.09832,0.041 0.144531,0.17969 -0.06111,-0.18334 -0.276501,-0.31378 -0.417968,-0.33008 -0.141468,-0.0163 -0.245056,0.0118 -0.347657,0.0469 -0.205201,0.0701 -0.407073,0.19255 -0.61914,0.35937 -0.359246,0.28259 -0.783644,0.42777 -1.050782,0.43945 -0.133568,0.006 -0.219451,-0.0244 -0.236328,-0.0352 -0.01688,-0.0108 0,0.0322 0,-0.01 0,-0.10566 0.0032,-0.18696 -0.01953,-0.29687 -0.01136,-0.055 -0.02264,-0.12523 -0.09961,-0.22071 -0.07697,-0.0955 -0.277361,-0.17579 -0.40625,-0.15429 -0.257778,0.043 -0.27787,0.1443 -0.345703,0.2207 -0.06783,0.0764 -0.135738,0.16613 -0.220703,0.28125 -0.04637,0.0628 -0.0464,0.053 -0.07617,0.0801 -0.05163,-0.0855 -0.199972,-0.37224 -0.308594,-0.96289 -0.03517,-0.19122 -0.05213,-0.30688 -0.06836,-0.41992 0.03392,0.008 0.03635,0.006 0.07617,0.0156 0.231963,0.0582 0.459101,0.0766 0.669922,0.0527 0.210821,-0.0239 0.441231,-0.0553 0.607422,-0.32422 z m -3.726562,0.1875 c 0.102889,0 0.137045,0.008 0.158203,0.0117 0.01862,0.0569 0.06055,0.38282 0.06055,1.01367 v 1.07422 l -0.847657,0.11523 c -0.667184,0.0915 -1.473371,0.23275 -1.861328,0.33008 -0.211966,0.0532 -0.225964,0.0491 -0.308593,-0.006 -0.08263,-0.055 -0.253968,-0.25081 -0.496094,-0.64258 -0.280173,-0.45333 -0.369716,-0.68085 -0.378906,-0.6875 0.02884,-0.0266 0.07465,-0.0661 0.173828,-0.13867 0.195599,-0.14303 0.928413,-0.45693 1.660156,-0.68164 0.731743,-0.22471 1.526357,-0.38867 1.839844,-0.38867 z m -5.638672,2.28906 0.191406,0.36914 c 0.07306,0.14127 0.109922,0.22082 0.146484,0.30078 -0.0791,0.0196 -0.150588,0.0364 -0.291015,0.0645 -0.381201,0.0762 -0.796385,0.12536 -0.976563,0.13868 0.07197,-0.1402 0.211027,-0.36041 0.519532,-0.58008 z m 9.429687,5.92187 c -0.41732,-0.0115 -0.790433,0.0149 -1.107422,0.0977 -0.316988,0.0828 -0.6319,0.22106 -0.763671,0.56445 -0.08527,0.22221 -0.143367,0.49007 -0.03906,0.75586 0.104304,0.26579 0.330474,0.44201 0.611328,0.58399 0.561709,0.28396 1.467034,0.51299 3.058594,0.88086 0.653406,0.15102 0.951718,0.23646 1.238281,0.23828 0.143282,9e-4 0.325254,-0.0477 0.44336,-0.14844 0.118105,-0.1007 0.157041,-0.18957 0.199218,-0.25781 0.08399,-0.13591 0.08647,-0.40695 -0.01758,-0.54883 -0.104044,-0.14188 -0.217882,-0.18521 -0.324219,-0.22266 -0.09526,-0.0335 -0.227168,-0.028 -0.335937,-0.043 0.001,-0.0155 0.0044,-0.036 0.0039,-0.0488 -0.0016,-0.0464 -0.0103,-0.0706 -0.01758,-0.0957 0.108112,0.0145 0.217566,0.01 0.414062,0.13867 0.204827,0.13422 0.38979,0.22863 0.583985,0.2754 0.0971,0.0234 0.199372,0.0476 0.353515,-0.002 0.154144,-0.0496 0.324219,-0.28033 0.324219,-0.44726 0,-0.10267 -0.0083,-0.19501 -0.0332,-0.29102 -0.01245,-0.048 -0.02514,-0.0961 -0.06641,-0.16406 -0.04126,-0.068 -0.145318,-0.21094 -0.365234,-0.21094 -0.0012,0 0.05937,0.004 0.06836,0.006 0.009,0.002 0.01056,0.002 0.01172,0.002 0.0023,5.8e-4 -0.0031,-0.001 -0.01172,-0.004 -0.01726,-0.005 -0.04706,-0.0146 -0.08594,-0.0273 -0.07775,-0.0255 -0.189989,-0.0638 -0.326171,-0.11132 -0.272365,-0.095 -0.640539,-0.22615 -1.03711,-0.3711 -0.936525,-0.34231 -1.944415,-0.52575 -2.779297,-0.54883 z m -2.929687,0.26172 c -0.178129,0 -0.419686,0.10314 -0.511719,0.31446 -0.09203,0.21131 -0.02719,0.40882 0.06055,0.55078 0.06253,0.10117 0.132449,0.18891 0.21289,0.26562 0.08044,0.0767 0.123537,0.1875 0.402344,0.1875 0.139392,0 0.254992,-0.0677 0.320313,-0.13086 0.06532,-0.0632 0.09954,-0.12393 0.125,-0.18164 0.05093,-0.11542 0.06641,-0.22687 0.06641,-0.34765 0,-0.37588 -0.319524,-0.65821 -0.675781,-0.65821 z m -3.177735,0.79297 c -0.212941,0 -0.252249,0.0521 -0.359375,0.10156 -0.107125,0.0494 -0.229783,0.11327 -0.365234,0.18946 -0.270902,0.15236 -0.593739,0.3525 -0.910156,0.55859 -0.316418,0.20609 -0.623549,0.41784 -0.859375,0.5957 -0.117913,0.0889 -0.217288,0.16726 -0.298828,0.24219 -0.04077,0.0375 -0.07727,0.0722 -0.115235,0.11914 -0.03796,0.047 -0.113281,0.078 -0.113281,0.29883 0,-0.0869 0.0026,-0.0468 -0.0039,-0.0215 -0.0065,0.0253 -0.01811,0.0654 -0.0332,0.11328 -0.03019,0.0957 -0.07315,0.22075 -0.121094,0.3457 -0.02112,0.055 -0.04281,0.10885 -0.04687,0.20313 -0.002,0.0471 2.18e-4,0.10951 0.03125,0.1875 0.03103,0.078 0.105645,0.16979 0.195312,0.21679 0.179336,0.094 0.300745,0.0414 0.369141,0.0156 0.0684,-0.0257 0.111229,-0.0535 0.15625,-0.084 0.04376,-0.0296 0.103205,-0.1014 0.148438,-0.13867 -0.01883,0.0575 -0.05292,0.0996 -0.01172,0.22461 0.03063,0.0929 0.121795,0.20183 0.220703,0.24805 0.09891,0.0462 0.181864,0.0455 0.238281,0.0391 0.225671,-0.0257 0.271295,-0.0981 0.382813,-0.17578 0.223034,-0.15538 0.510574,-0.40466 0.851562,-0.73828 0.59498,-0.58213 0.993671,-1.0532 1.197266,-1.46485 0.101797,-0.20582 0.188007,-0.41883 0.08789,-0.6875 -0.05006,-0.13433 -0.166062,-0.25488 -0.287109,-0.31445 -0.121047,-0.0596 -0.238592,-0.0742 -0.353516,-0.0742 z m 5.597657,0.0586 c 0.15189,-0.004 0.362793,0.031 0.560546,0.0566 -0.0473,0.0191 -0.08634,0.044 -0.185546,0.0449 -0.144011,0.001 -0.320041,-0.0332 -0.460938,-0.0859 -0.0022,-8.1e-4 -0.0018,-0.001 -0.0039,-0.002 0.04767,-0.009 0.0276,-0.0118 0.08984,-0.0137 z m 1.720703,0.43359 c 0.164274,0.0731 0.378584,0.12719 0.474609,0.19336 -0.08232,-0.0185 -0.262799,-0.0171 -0.316406,-0.0391 -0.171949,-0.0704 -0.158513,-0.09 -0.158203,-0.1543 z" />
      <path
         id="path26"
         style="fill:#0e036c;stroke-width:0.264583"
         sodipodi:type="inkscape:offset"
         inkscape:radius="0.20890474"
         inkscape:original="M 77.283203 118.47656 C 75.059605 118.47656 74.816522 118.53118 73.824219 119.25 C 68.586985 123.04384 65.642578 128.61964 65.642578 134.74805 C 65.642578 139.36807 66.832778 142.44659 69.755859 145.39453 C 70.799804 146.44735 71.937148 147.42205 72.283203 147.56055 C 72.629258 147.69905 72.912109 147.81913 72.912109 147.82812 C 72.912109 147.83686 72.938283 146.5231 72.970703 144.9082 C 73.024723 142.21703 72.987017 141.96056 72.525391 141.83984 C 71.8466 141.66233 71.657213 141.06739 72.128906 140.5957 C 72.598868 140.12573 72.632824 139.07228 72.191406 138.63086 C 71.951368 138.39082 71.941126 138.18627 72.15625 137.8418 C 72.909579 136.63553 72.836602 135.79541 71.810547 133.92188 C 71.262414 132.921 70.541451 131.69833 70.208984 131.20508 C 69.876517 130.71183 69.603516 130.07828 69.603516 129.79688 C 69.603516 128.92467 70.467652 129.36869 71.357422 130.69727 C 72.00161 131.65915 72.256542 131.86146 72.511719 131.61914 C 72.767976 131.3758 72.803899 131.42381 72.681641 131.83789 C 72.512534 132.41064 73.024157 133.64507 73.416016 133.60938 C 73.709147 133.5827 74.357781 131.79438 74.363281 130.99609 C 74.365677 130.64872 74.156192 130.35103 73.837891 130.25 C 73.275474 130.0715 73.209571 129.88753 73.470703 129.20703 C 73.596807 128.87841 73.7179 128.84986 74 129.08398 C 74.265394 129.3042 74.672099 129.31164 75.490234 129.11133 C 76.109199 128.95979 77.420079 128.75343 78.402344 128.65234 L 80.1875 128.46875 L 80.1875 127.04492 C 80.1875 126.0113 80.086815 125.62109 79.822266 125.62109 C 79.076152 125.62109 77.609423 126.40883 76.783203 127.25391 C 76.076651 127.97659 75.887577 128.05813 75.681641 127.73242 C 75.544915 127.51618 75.431888 127.11818 75.429688 126.8457 C 75.426163 126.41486 75.367369 126.39709 74.986328 126.71289 C 74.745343 126.9126 75.103702 126.03223 75.78125 124.75781 C 76.458799 123.48339 77.011719 122.26694 77.011719 122.05273 C 77.011719 121.83852 77.486451 121.42087 78.066406 121.125 C 79.243979 120.52425 80.060684 119.48104 79.828125 118.875 C 79.707327 118.56018 79.170655 118.47656 77.283203 118.47656 z M 80.716797 118.47656 L 80.720703 119.33594 C 80.727226 120.72034 81.010811 120.94856 82.548828 120.80078 C 84.064231 120.65517 84.42999 120.91175 83.759766 121.65234 C 83.333612 122.12324 83.365924 122.25263 84.410156 124.17773 C 85.015434 125.2936 85.463427 126.25535 85.404297 126.31445 C 85.345165 126.37358 84.864884 126.24167 84.337891 126.02148 C 83.032554 125.47608 82.568359 125.51272 82.568359 126.16602 C 82.568359 127.73311 83.385033 128.00875 86.390625 127.45312 C 88.114788 127.1344 88.633551 127.35363 88.115234 128.18359 C 87.851122 128.6065 87.932489 129.00665 88.591797 130.53125 C 89.731999 133.16788 89.962906 134.01537 90.041016 135.85742 C 90.096136 137.15737 90.204753 137.52124 90.572266 137.61914 C 91.139203 137.77023 91.19749 138.84961 90.638672 138.84961 C 90.088213 138.84961 90.136866 139.75835 90.78125 141.49609 C 91.078038 142.29646 91.379462 143.11994 91.451172 143.32617 C 91.593759 143.73624 91.565644 143.76151 92.908203 142.02539 C 93.903979 140.73772 95.198161 138.18432 95.925781 136.07227 C 96.52306 134.33857 96.753048 129.67319 96.353516 127.37891 C 95.904016 124.79769 94.214339 121.69263 92.289062 119.91016 L 90.740234 118.47656 L 85.728516 118.47656 L 80.716797 118.47656 z M 79.689453 120.59375 C 79.543932 120.59375 79.351659 120.7119 79.261719 120.85742 C 79.171782 121.00294 79.21776 121.12305 79.363281 121.12305 C 79.508802 121.12305 79.701076 121.00294 79.791016 120.85742 C 79.880953 120.7119 79.834974 120.59375 79.689453 120.59375 z M 81.503906 125.76953 C 81.358908 125.71319 81.246094 126.03212 81.246094 126.75781 C 81.246094 127.73113 81.340003 128.00195 81.677734 128.00195 C 82.026773 128.00195 82.078418 127.81733 81.951172 127.0332 C 81.825483 126.25868 81.648905 125.82587 81.503906 125.76953 z M 72.960938 130.59766 C 73.037368 130.78865 73.027373 131.01757 72.939453 131.10547 C 72.851539 131.19338 72.789291 131.03672 72.800781 130.75781 C 72.813477 130.44958 72.876477 130.38659 72.960938 130.59766 z M 84.373047 136.11133 C 83.976424 136.0196 83.600548 136.03096 83.494141 136.20312 C 83.403544 136.34973 83.023422 136.39293 82.648438 136.29883 C 81.981712 136.1315 81.971559 136.15094 82.160156 137.15625 C 82.266229 137.72167 82.408423 138.27452 82.476562 138.38477 C 82.685142 138.72226 83.058239 138.60792 83.341797 138.12109 C 83.598637 137.68011 83.611441 137.68011 83.619141 138.12109 C 83.630261 138.76101 84.700871 138.72476 85.552734 138.05469 C 85.923764 137.76286 86.269079 137.64512 86.318359 137.79297 C 86.420701 138.1 89.712891 137.83669 89.712891 137.52148 C 89.712891 137.26707 88.548096 136.8076 87.115234 136.49805 C 86.20118 136.30058 85.944979 136.3283 85.828125 136.63281 C 85.702742 136.96 85.639961 136.96087 85.382812 136.64062 C 85.188775 136.39899 84.76967 136.20306 84.373047 136.11133 z M 80.103516 136.20312 C 79.258211 136.20312 76.979742 136.90313 76.369141 137.34961 C 75.878405 137.70844 75.879693 137.74173 76.472656 138.70117 C 76.973018 139.51076 77.192247 139.65509 77.708984 139.52539 C 78.054171 139.43876 78.872601 139.29488 79.527344 139.20508 L 80.716797 139.04297 L 80.716797 137.62305 C 80.716797 136.31521 80.668802 136.20312 80.103516 136.20312 z M 74.607422 138.30078 L 73.826172 138.85742 C 73.396086 139.16367 73.042969 139.5846 73.042969 139.79297 C 73.042969 140.20987 73.361452 140.25545 74.589844 140.00977 C 75.399546 139.84783 75.403321 139.83905 75.007812 139.07422 L 74.607422 138.30078 z M 84.341797 145.62305 C 83.647198 145.48397 82.977141 145.47989 82.761719 145.69531 C 82.311191 146.14584 83.767113 146.69036 84.28125 146.26367 C 84.61466 145.98692 84.685547 146.00046 84.685547 146.33594 C 84.685547 146.55991 84.833724 146.80355 85.015625 146.87695 C 85.604492 147.11455 87.560829 147.05947 87.720703 146.80078 C 87.914673 146.48693 86.885847 145.90929 86.527344 146.13086 C 86.382454 146.2204 86.342913 146.43558 86.439453 146.60742 C 86.535988 146.77927 86.369498 146.66663 86.068359 146.35742 C 85.755543 146.03622 85.036395 145.76213 84.341797 145.62305 z M 77.738281 146.61719 C 77.723749 146.58281 77.628832 146.60806 77.447266 146.67773 C 77.208401 146.76939 77.011719 146.95013 77.011719 147.08008 C 77.011719 147.42032 77.165842 147.37318 77.546875 146.91406 C 77.686681 146.74561 77.752814 146.65156 77.738281 146.61719 z M 76.365234 147.41602 C 76.270924 147.43876 76.106481 147.5787 75.822266 147.8457 C 75.458464 148.18748 75.160156 148.5654 75.160156 148.68555 C 75.160156 148.80572 75.287444 148.9043 75.443359 148.9043 C 75.88169 148.9043 76.484375 148.19912 76.484375 147.68555 C 76.484375 147.48708 76.459545 147.39327 76.365234 147.41602 z "
         d="m 77.283203,118.26758 c -1.113509,0 -1.738808,0.0118 -2.236328,0.12304 -0.49752,0.11129 -0.845024,0.32677 -1.345703,0.68946 -5.285861,3.82906 -8.267578,9.47264 -8.267578,15.66797 0,4.6559 1.21951,7.81352 4.173828,10.79297 0.525985,0.53045 1.073763,1.0404 1.537109,1.4375 0.231674,0.19854 0.443614,0.37028 0.621094,0.50195 0.17748,0.13167 0.311113,0.22207 0.439453,0.27344 0.17192,0.0688 0.329535,0.13407 0.441406,0.18164 0.05594,0.0238 0.100444,0.0435 0.128907,0.0566 0.01006,0.005 0.0148,0.005 0.01953,0.008 -0.0041,-0.003 -0.02398,-0.0181 -0.02344,-0.0176 2.73e-4,2.5e-4 -0.02943,-0.0353 -0.0293,-0.0351 6.8e-5,9e-5 -0.02347,-0.0392 -0.02344,-0.0391 3.4e-5,9e-5 -0.01563,-0.0802 -0.01563,-0.0801 0,4e-5 0.416016,0.0273 0.416016,0.0273 0,0 0.002,-0.0195 0.002,-0.0195 6.3e-5,-0.002 -1.3e-5,-0.003 0,-0.004 0,0 0,-0.002 0,-0.002 5.4e-5,-0.002 -1.01e-4,-0.007 0,-0.0117 2.01e-4,-0.01 0.0016,-0.0238 0.002,-0.043 7.8e-4,-0.0383 4.73e-4,-0.0944 0.002,-0.16797 0.003,-0.14718 0.0084,-0.36234 0.01367,-0.62695 0.0106,-0.52921 0.02481,-1.26092 0.04102,-2.06836 0.02703,-1.34669 0.03437,-2.07955 -0.03125,-2.53125 -0.03281,-0.22585 -0.08528,-0.39348 -0.189454,-0.52148 -0.104176,-0.12801 -0.248609,-0.18612 -0.380859,-0.22071 -0.288729,-0.0755 -0.435152,-0.22466 -0.482422,-0.37305 -0.04727,-0.14838 -0.01327,-0.32657 0.181641,-0.52148 0.288387,-0.28839 0.420196,-0.71553 0.433594,-1.13476 0.0134,-0.41924 -0.08974,-0.8456 -0.371094,-1.12696 -0.10009,-0.10009 -0.126168,-0.15686 -0.128906,-0.2168 -0.0027,-0.0599 0.02611,-0.15728 0.123046,-0.3125 0.389812,-0.62418 0.582103,-1.19507 0.525391,-1.83984 -0.05671,-0.64477 -0.34689,-1.34454 -0.865234,-2.29101 -0.550774,-1.00571 -1.267668,-2.22452 -1.611329,-2.73438 -0.157876,-0.23423 -0.305837,-0.50559 -0.410156,-0.74805 -0.104319,-0.24246 -0.160156,-0.46982 -0.160156,-0.54296 0,-0.18356 0.04742,-0.23491 0.05273,-0.23829 0.0053,-0.003 0.05457,-0.0184 0.185547,0.0488 0.261953,0.13452 0.699339,0.55978 1.132813,1.20703 0.325415,0.4859 0.547269,0.7848 0.765625,0.95899 0.109177,0.0871 0.230151,0.14859 0.365234,0.14844 0.06485,-8e-5 0.108387,-0.0468 0.164063,-0.0723 -0.08269,0.36756 0.0075,0.79929 0.166015,1.18164 0.08403,0.20272 0.187835,0.38737 0.308594,0.53125 0.120759,0.14388 0.272037,0.27502 0.482422,0.25586 0.138078,-0.0126 0.202595,-0.0895 0.263672,-0.16016 0.06108,-0.0707 0.114556,-0.15421 0.169922,-0.2539 0.110731,-0.1994 0.22177,-0.45768 0.324218,-0.74024 0.204896,-0.56512 0.375774,-1.21137 0.378907,-1.66601 0.003,-0.43218 -0.26598,-0.81844 -0.671875,-0.94727 -0.131864,-0.0419 -0.224846,-0.0836 -0.279297,-0.11914 -0.05445,-0.0355 -0.06787,-0.0549 -0.07813,-0.084 -0.02052,-0.0581 -0.0032,-0.23753 0.123047,-0.56641 0.02632,-0.0686 0.04923,-0.11086 0.06445,-0.13281 0.02733,0.0134 0.07505,0.0445 0.136719,0.0957 0.172163,0.14286 0.397295,0.21578 0.666015,0.2207 0.26872,0.005 0.588445,-0.0482 1.005859,-0.15039 0.59534,-0.14575 1.912473,-0.35501 2.884766,-0.45507 l 1.785156,-0.1836 a 0.20892563,0.20892563 0 0 0 0.1875,-0.20703 v -1.42383 c 0,-0.52359 -0.02211,-0.88861 -0.08984,-1.15234 -0.03387,-0.13187 -0.07982,-0.2412 -0.160157,-0.33203 -0.08034,-0.0908 -0.206725,-0.14844 -0.324218,-0.14844 -0.446577,0 -1.007719,0.21372 -1.587891,0.52539 -0.580172,0.31167 -1.165984,0.7264 -1.599609,1.16992 -0.34951,0.35749 -0.581738,0.54793 -0.673828,0.58789 -0.04605,0.02 -0.03196,0.0114 -0.03125,0.0117 7.1e-4,3.3e-4 -0.0306,-0.02 -0.07227,-0.0859 -0.10264,-0.16233 -0.217003,-0.56098 -0.21875,-0.77734 -9.2e-4,-0.11245 -0.0035,-0.20072 -0.02148,-0.28711 -0.009,-0.0432 -0.02067,-0.0885 -0.05078,-0.13672 -0.03011,-0.0482 -0.08816,-0.10067 -0.15625,-0.12109 -0.07205,-0.0216 -0.109294,0.0163 -0.160156,0.0332 0.141217,-0.34279 0.386138,-0.85829 0.714844,-1.47656 0.34065,-0.64074 0.649696,-1.26629 0.875,-1.76172 0.112652,-0.24771 0.204564,-0.46205 0.269531,-0.63281 0.06497,-0.17077 0.111328,-0.26478 0.111328,-0.40821 0,0.0236 0.0027,-0.0148 0.04297,-0.0703 0.04025,-0.0555 0.107982,-0.13021 0.195312,-0.20703 0.174661,-0.15364 0.428039,-0.3245 0.703125,-0.46484 0.614975,-0.31374 1.133354,-0.73884 1.478516,-1.17969 0.345162,-0.44085 0.54276,-0.91326 0.382813,-1.33008 -0.04763,-0.12412 -0.149108,-0.23459 -0.279297,-0.30469 -0.13019,-0.0701 -0.288658,-0.11238 -0.494141,-0.14453 -0.410966,-0.0643 -1.019986,-0.084 -1.966797,-0.084 z m 3.433594,0 a 0.20892563,0.20892563 0 0 0 -0.208985,0.20898 l 0.0039,0.85938 a 0.20892563,0.20892563 0 0 0 0,0.002 c 0.0017,0.35321 0.0198,0.63892 0.07813,0.88086 0.05833,0.24194 0.164637,0.44742 0.339844,0.58789 0.350413,0.28094 0.858255,0.27616 1.638671,0.20117 0.37224,-0.0358 0.671755,-0.0452 0.890625,-0.0312 0.218871,0.014 0.354575,0.0598 0.394532,0.0879 0.01998,0.014 0.01719,0.0164 0.01758,0.0176 3.87e-4,0.001 0.0041,0.0125 -0.0059,0.0469 -0.01983,0.0688 -0.102579,0.20912 -0.259765,0.38281 -0.110614,0.12223 -0.208531,0.23808 -0.265625,0.39062 -0.05709,0.15255 -0.0572,0.32749 -0.0078,0.51954 0.09878,0.38409 0.371911,0.89198 0.894531,1.85546 0.300945,0.55482 0.562658,1.0716 0.740235,1.45313 0.06703,0.14401 0.108413,0.24525 0.148437,0.34375 -0.0058,-0.002 -0.0077,-0.002 -0.01367,-0.004 -0.181161,-0.0498 -0.427234,-0.13507 -0.683593,-0.24219 -0.662332,-0.27673 -1.110945,-0.42175 -1.470703,-0.39257 -0.17988,0.0146 -0.352362,0.0929 -0.455078,0.23242 -0.102717,0.13947 -0.132813,0.30998 -0.132813,0.49805 0,0.40991 0.05016,0.75424 0.197266,1.0371 0.147101,0.28287 0.398527,0.48845 0.728515,0.59961 0.659977,0.22233 1.630384,0.13503 3.142578,-0.14453 0.84998,-0.15712 1.405275,-0.15378 1.583985,-0.0781 0.08935,0.0378 0.08471,0.0391 0.08594,0.0996 0.0012,0.0605 -0.04106,0.20187 -0.160156,0.39258 -0.152842,0.24473 -0.211284,0.5372 -0.134766,0.91406 0.07652,0.37685 0.266602,0.86141 0.597657,1.62695 1.137807,2.63109 1.354154,3.42656 1.43164,5.25391 0.02777,0.65495 0.06654,1.07832 0.158203,1.38281 0.09166,0.30449 0.286327,0.50611 0.527344,0.57031 0.16558,0.0441 0.288817,0.26078 0.300781,0.48242 0.006,0.11082 -0.01882,0.21098 -0.05273,0.26563 -0.03391,0.0546 -0.0545,0.0723 -0.126953,0.0723 -0.195094,0 -0.388109,0.10662 -0.482422,0.2754 -0.09431,0.16878 -0.116623,0.3735 -0.103516,0.61718 0.02621,0.48736 0.20748,1.15677 0.533204,2.03516 0.296578,0.79981 0.599243,1.62853 0.667968,1.82617 0.03473,0.0999 0.03117,0.19413 0.160156,0.30469 0.06449,0.0553 0.189929,0.0776 0.269532,0.0527 0.0796,-0.0248 0.130017,-0.0657 0.185547,-0.11523 0.222118,-0.19827 0.53393,-0.61649 1.205078,-1.48438 1.023947,-1.3241 2.313249,-3.87656 3.048828,-6.01172 0.314746,-0.9136 0.51687,-2.51482 0.599609,-4.19531 0.08274,-1.68048 0.04097,-3.42417 -0.164062,-4.60156 -0.459823,-2.6405 -2.15764,-5.7627 -4.126953,-7.58594 l -1.548829,-1.43359 a 0.20892563,0.20892563 0 0 0 -0.142578,-0.0566 h -5.011718 z m -1.027344,2.11719 c -0.258595,0 -0.472112,0.14751 -0.605469,0.36328 -0.06685,0.10816 -0.105886,0.23723 -0.05469,0.37109 0.0512,0.13386 0.203749,0.21289 0.333984,0.21289 0.260472,0 0.472553,-0.15018 0.605469,-0.36523 0.06663,-0.10781 0.106497,-0.23702 0.05469,-0.3711 -0.05181,-0.13407 -0.204687,-0.21093 -0.333985,-0.21093 z m 1.890625,5.18945 c -0.106793,-0.0415 -0.260132,0.007 -0.330078,0.082 -0.06995,0.0752 -0.102763,0.15872 -0.130859,0.25781 -0.05619,0.1982 -0.08203,0.47008 -0.08203,0.84375 0,0.49338 0.01771,0.81296 0.101563,1.05469 0.04193,0.12086 0.10721,0.2288 0.207031,0.30078 0.09982,0.072 0.219679,0.0977 0.332031,0.0977 0.105676,0 0.210121,-0.0112 0.310547,-0.0684 0.100427,-0.0572 0.17418,-0.16382 0.205078,-0.27344 0.0618,-0.21925 0.0296,-0.47011 -0.03516,-0.86914 -0.06434,-0.39646 -0.141509,-0.70816 -0.226562,-0.93945 -0.04253,-0.11565 -0.08739,-0.21115 -0.138672,-0.29102 -0.05128,-0.0799 -0.105818,-0.15371 -0.212891,-0.19531 z m 2.228516,10.27539 c -0.188464,0.0155 -0.382227,0.0662 -0.492188,0.24414 0.01856,-0.03 -0.0393,0.0251 -0.162109,0.0391 -0.122807,0.0139 -0.29107,0.004 -0.455078,-0.0371 -0.167729,-0.0421 -0.297021,-0.0758 -0.421875,-0.084 -0.06243,-0.004 -0.127244,-0.002 -0.197266,0.0234 -0.07002,0.025 -0.139588,0.0813 -0.177734,0.14843 -0.07629,0.13422 -0.06353,0.25958 -0.04687,0.41407 0.01665,0.15448 0.05237,0.34587 0.09961,0.59765 0.05388,0.28721 0.117008,0.57053 0.175781,0.79883 0.02939,0.11415 0.05746,0.21269 0.08398,0.29492 0.02653,0.0822 0.04298,0.13874 0.08398,0.20508 0.139123,0.22511 0.408929,0.3389 0.642578,0.26758 0.205663,-0.0628 0.371741,-0.23118 0.517578,-0.45313 0.04462,0.13873 0.116849,0.26351 0.232422,0.33985 0.165895,0.10957 0.368528,0.1461 0.585938,0.13867 0.434818,-0.0149 0.946378,-0.20816 1.404297,-0.56836 0.171492,-0.13489 0.337574,-0.22625 0.441406,-0.26172 0.04478,-0.0153 0.0677,-0.0168 0.07227,-0.0176 0.03034,0.03 0.05469,0.0772 0.08398,0.0918 0.055,0.0275 0.109634,0.0417 0.169922,0.0547 0.120575,0.026 0.265268,0.0398 0.433593,0.0469 0.336651,0.0141 0.763078,7.4e-4 1.1875,-0.0332 0.424423,-0.034 0.84383,-0.0872 1.167969,-0.1543 0.16207,-0.0335 0.300279,-0.0697 0.41211,-0.11523 0.05591,-0.0228 0.106384,-0.0463 0.15625,-0.0859 0.04987,-0.0396 0.115234,-0.11204 0.115234,-0.22266 0,-0.1115 -0.05357,-0.18778 -0.107422,-0.24609 -0.05385,-0.0583 -0.117989,-0.10636 -0.193359,-0.1543 -0.15074,-0.0959 -0.351002,-0.18948 -0.59375,-0.28515 -0.485496,-0.19135 -1.141324,-0.38616 -1.867188,-0.54297 -0.462937,-0.10001 -0.764846,-0.14883 -1.009765,-0.12305 -0.12246,0.0129 -0.236248,0.05 -0.328125,0.1211 -0.09188,0.0711 -0.151472,0.1686 -0.189454,0.26757 -0.0069,0.0179 -0.0093,0.0181 -0.01562,0.0332 -0.02396,-0.0268 -0.04,-0.0419 -0.07227,-0.082 -0.25147,-0.31315 -0.696228,-0.5024 -1.125,-0.60157 -0.214271,-0.0495 -0.422864,-0.0741 -0.611328,-0.0586 z m -3.705078,0.14453 c -0.480319,0 -1.253528,0.18198 -2.015625,0.41602 -0.762098,0.23403 -1.478549,0.50587 -1.841797,0.77148 -0.123962,0.0906 -0.224972,0.16164 -0.308594,0.25781 -0.08362,0.0962 -0.141327,0.23864 -0.130859,0.37696 0.02093,0.27662 0.191267,0.51356 0.488281,0.99414 0.254436,0.41168 0.439422,0.67214 0.673828,0.82812 0.234406,0.15598 0.508135,0.16085 0.791016,0.0899 0.322199,-0.0809 1.147032,-0.22748 1.794922,-0.31641 L 80.744141,139.25 a 0.20892563,0.20892563 0 0 0 0.18164,-0.20703 v -1.41992 c 0,-0.65648 0.0056,-1.01222 -0.111328,-1.28321 -0.05848,-0.13549 -0.175284,-0.24725 -0.304687,-0.29492 -0.129403,-0.0477 -0.258025,-0.0508 -0.40625,-0.0508 z m -5.498047,2.09766 a 0.20892563,0.20892563 0 0 0 -0.119141,0.0391 l -0.78125,0.55664 c -0.229876,0.16369 -0.436271,0.35536 -0.591797,0.54102 -0.155526,0.18565 -0.279297,0.34226 -0.279297,0.56445 0,0.13082 0.02589,0.26703 0.117188,0.37695 0.0913,0.10993 0.228133,0.16684 0.375,0.1875 0.293733,0.0413 0.684651,-0.0186 1.304687,-0.14258 0.202751,-0.0405 0.357169,-0.0708 0.486329,-0.11328 0.129159,-0.0425 0.260895,-0.10626 0.324218,-0.24804 0.06332,-0.14179 0.02648,-0.27829 -0.02344,-0.40821 -0.04992,-0.12992 -0.125595,-0.27532 -0.22461,-0.46679 l -0.40039,-0.77344 a 0.20892563,0.20892563 0 0 0 -0.1875,-0.11328 z m 8.759765,7.22656 c -0.304075,0.009 -0.567197,0.0438 -0.751953,0.22852 -0.08365,0.0836 -0.13986,0.19456 -0.144531,0.31054 -0.0047,0.11598 0.04044,0.22161 0.101562,0.30274 0.122238,0.16224 0.305853,0.26529 0.515626,0.34375 0.209772,0.0785 0.447431,0.12525 0.679687,0.12304 0.232256,-0.002 0.465815,-0.0516 0.648437,-0.20312 0.03224,-0.0268 0.04631,-0.0347 0.07227,-0.0547 0.01207,0.30276 0.168134,0.58696 0.451172,0.70117 0.374071,0.15094 0.999809,0.1809 1.597656,0.16407 0.298924,-0.008 0.583794,-0.0337 0.814453,-0.0742 0.11533,-0.0203 0.215949,-0.0434 0.304688,-0.0762 0.08874,-0.0327 0.174944,-0.0619 0.244141,-0.17382 0.05349,-0.0865 0.06481,-0.19526 0.04492,-0.28321 -0.01989,-0.0879 -0.06273,-0.1605 -0.113281,-0.22461 -0.101098,-0.1282 -0.24003,-0.23247 -0.396484,-0.32031 -0.156455,-0.0878 -0.329762,-0.15605 -0.501953,-0.18945 -0.172191,-0.0334 -0.351504,-0.0397 -0.513672,0.0605 -0.102187,0.0631 -0.146411,0.16804 -0.183594,0.27149 -0.0072,-0.007 -0.0082,-0.006 -0.01563,-0.0137 -0.383025,-0.39329 -1.116749,-0.64897 -1.835938,-0.79297 -0.359594,-0.072 -0.713502,-0.10882 -1.017578,-0.0996 z m -5.632812,1.07617 c -0.126667,-0.008 -0.475042,0.12925 -0.359375,0.0879 -0.144406,0.0554 -0.273345,0.13476 -0.375,0.22852 -0.101656,0.0937 -0.195313,0.19877 -0.195313,0.36914 0,0.10083 0.001,0.18632 0.05664,0.28515 0.02781,0.0494 0.07971,0.10365 0.148437,0.12891 0.06873,0.0253 0.137895,0.0179 0.189454,0.002 0.103116,-0.0319 0.169531,-0.0886 0.248046,-0.16211 0.07852,-0.0735 0.163163,-0.16835 0.261719,-0.2871 0.07177,-0.0865 0.126755,-0.15424 0.167969,-0.2168 0.02061,-0.0313 0.03921,-0.0599 0.05469,-0.0996 0.01548,-0.0397 0.04103,-0.1029 0.002,-0.19531 -0.03896,-0.0922 -0.145593,-0.13526 -0.199219,-0.14063 z m -1.416016,0.81836 c -0.115186,0.0278 -0.186279,0.086 -0.283203,0.16406 -0.09692,0.0781 -0.210029,0.18161 -0.353515,0.31641 -0.189139,0.17769 -0.359977,0.3627 -0.488282,0.52539 -0.06415,0.0813 -0.118982,0.15796 -0.160156,0.22852 -0.04117,0.0705 -0.08008,0.12179 -0.08008,0.23828 0,0.13384 0.07231,0.24938 0.164062,0.32031 0.09175,0.0709 0.20614,0.10742 0.328125,0.10742 0.331193,0 0.614447,-0.22184 0.84375,-0.49023 0.229303,-0.2684 0.40625,-0.599 0.40625,-0.9375 0,-0.10795 0.0011,-0.19346 -0.03906,-0.29493 -0.0201,-0.0507 -0.05898,-0.11333 -0.128906,-0.15234 -0.06993,-0.039 -0.15156,-0.0392 -0.208985,-0.0254 z" />
    </g>
  </g>
</svg>
