<?xml version="1.0" encoding="UTF-8" standalone="no"?>
<svg
   xmlns:dc="http://purl.org/dc/elements/1.1/"
   xmlns:cc="http://creativecommons.org/ns#"
   xmlns:rdf="http://www.w3.org/1999/02/22-rdf-syntax-ns#"
   xmlns:svg="http://www.w3.org/2000/svg"
   xmlns="http://www.w3.org/2000/svg"
   xmlns:sodipodi="http://sodipodi.sourceforge.net/DTD/sodipodi-0.dtd"
   xmlns:inkscape="http://www.inkscape.org/namespaces/inkscape"
   width="271.05673mm"
   height="429.0184mm"
   viewBox="0 0 271.05673 429.0184"
   version="1.1"
   id="svg8"
   inkscape:version="1.0.1 (3bc2e813f5, 2020-09-07)"
   sodipodi:docname="poisson-icone.svg">
  <defs
     id="defs2" />
  <sodipodi:namedview
     id="base"
     pagecolor="#000000"
     bordercolor="#666666"
     borderopacity="1.0"
     inkscape:pageopacity="0"
     inkscape:pageshadow="2"
     inkscape:zoom="0.175"
     inkscape:cx="250.16627"
     inkscape:cy="495.4805"
     inkscape:document-units="mm"
     inkscape:current-layer="layer1"
     inkscape:document-rotation="0"
     showgrid="false"
     inkscape:window-width="1425"
     inkscape:window-height="1080"
     inkscape:window-x="2180"
     inkscape:window-y="203"
     inkscape:window-maximized="0" />
  <metadata
     id="metadata5">
    <rdf:RDF>
      <cc:Work
         rdf:about="">
        <dc:format>image/svg+xml</dc:format>
        <dc:type
           rdf:resource="http://purl.org/dc/dcmitype/StillImage" />
        <dc:title></dc:title>
      </cc:Work>
    </rdf:RDF>
  </metadata>
  <g
     inkscape:label="Calque 1"
     inkscape:groupmode="layer"
     id="layer1"
     transform="translate(-27.816522,-60.353622)">
    <path
       style="fill:#fefefe;stroke-width:0.264583"
       d="m 254.09449,489.03348 c -0.58208,-0.1841 -1.41552,-0.52281 -1.85208,-0.75274 -1.2322,-0.64891 -4.44397,-3.10787 -6.00361,-4.59642 -4.64921,-4.43722 -16.96464,-11.74459 -23.49744,-13.94224 -2.24729,-0.756 -7.15796,-1.88738 -9.92187,-2.28595 -1.01865,-0.1469 -5.72162,-0.27601 -10.45104,-0.28697 -13.15295,-0.0304 -20.09828,-0.35409 -24.34167,-1.13435 -10.71526,-1.97024 -19.64965,-5.277 -26.66738,-9.87007 -2.29386,-1.50132 -8.08861,-5.84165 -9.83639,-7.36758 -2.37675,-2.07508 -6.5867,-6.48759 -9.85184,-10.32587 -1.11411,-1.30969 -2.34627,-2.73844 -2.73815,-3.175 -1.73161,-1.92908 -4.37226,-6.45258 -6.4423,-11.03585 -1.04598,-2.31587 -2.76306,-4.70686 -3.38024,-4.70686 -0.31503,0 -0.9873,-0.58489 -5.62609,-4.89479 -2.18151,-2.02684 -10.68324,-10.51708 -13.662988,-13.64451 -2.75762,-2.89428 -9.27683,-10.26988 -11.22379,-12.6982 -0.50932,-0.63527 -1.28917,-1.57599 -1.73299,-2.09053 -0.44383,-0.51453 -1.55869,-1.88801 -2.47748,-3.05218 -0.91879,-1.16416 -2.04394,-2.57696 -2.50034,-3.13957 -0.4564,-0.56258 -2.40533,-3.18196 -4.33097,-5.82083 -1.92563,-2.63885 -3.60329,-4.92141 -3.72813,-5.07236 -0.81611,-0.9866 -8.62507,-13.02205 -10.80883,-16.6589 -8.4276,-14.03543 -15.66747,-29.146 -21.2599,-44.37227 -18.00162,-49.01218 -18.58609,-98.67543 -1.66755,-141.69387 4.34092,-11.0376 10.76711,-23.18057 16.87614,-31.88933 1.54008,-2.19549 4.95245,-6.88396 5.28536,-7.26192 0.3235,-0.36726 0.47,-0.55213 1.73698,-2.19199 0.50594,-0.65484 1.04067,-1.31987 1.18828,-1.4778 0.14761,-0.15796 0.68511,-0.80373 1.19443,-1.43505 3.90995,-4.84648 11.56845,-12.62676 17.44719,-17.72465 1.5799,-1.37004 2.01565,-1.74606 3.33066,-2.87419 3.02977,-2.599187 9.58599,-7.378437 15.073188,-10.987827 4.9001,-3.2232 5.57217,-3.62241 12.43542,-7.38663 3.18694,-1.74791 9.70755,-4.92405 12.83229,-6.2505 1.09141,-0.4633 2.2225,-0.95153 2.51354,-1.08495 1.37644,-0.631 5.66947,-2.284 9.26042,-3.56567 34.475,-12.30463 72.51682,-15.11402 112.74991,-8.32658 7.91769,1.33574 18.87702,3.74826 25.2303,5.55404 12.3185,3.50128 17.45501,5.50867 20.05918,7.83929 2.17786,1.94911 2.12711,3.79677 -0.39868,14.51531 -0.94811,4.02339 -3.07761,10.447387 -4.52181,13.640747 -0.29247,0.64675 -0.85084,1.93802 -1.24081,2.86949 -0.84363,2.01509 -4.17502,8.76438 -5.43269,11.00643 -0.48977,0.87312 -1.06744,1.94469 -1.28371,2.38125 -0.21627,0.43656 -0.82719,1.50812 -1.35766,2.38125 -0.53043,0.87312 -1.42388,2.36141 -1.98546,3.30729 -1.07336,1.808 -6.47821,10.09145 -6.73287,10.31875 -0.0815,0.0728 -0.67202,0.89588 -1.31228,1.82917 -0.64024,0.93327 -1.32067,1.88577 -1.5121,2.11667 -0.1914,0.23087 -1.09511,1.43182 -2.00821,2.66874 -1.74779,2.36758 -1.7848,2.41568 -3.17069,4.12057 -0.48189,0.5928 -1.29289,1.60033 -1.80221,2.23896 -6.84808,8.58644 -19.82859,21.87337 -26.35589,26.97797 -0.27911,0.21829 -1.10095,0.88649 -1.82631,1.4849 -0.72535,0.59843 -2.44994,1.93762 -3.83238,2.97598 -1.38245,1.03836 -2.63261,1.98366 -2.77813,2.10068 -0.59812,0.48088 -6.49049,4.28961 -8.33437,5.38716 -3.05001,1.81549 -6.70597,3.63204 -10.03599,4.9866 l -3.02456,1.23031 -0.49128,1.43439 c -0.92107,2.68909 -1.53913,5.39951 -1.9499,8.55099 -0.83338,6.39392 -2.22448,10.1056 -5.44901,14.53893 -1.51162,2.07831 -1.40103,1.93588 -2.79781,3.60344 -2.36636,2.82515 -7.33653,7.13727 -11.54552,10.01692 -1.25452,0.85831 -2.07881,1.5267 -4.88418,3.96041 -3.80051,3.29705 -8.5365,6.38895 -12.2613,8.00479 -1.06278,0.46103 -2.76577,1.28709 -3.78441,1.83565 -3.00353,1.61745 -7.5373,2.30841 -10.31875,1.5726 -2.69944,-0.71413 -4.64368,-1.63226 -5.40031,-2.55016 -1.34765,-1.63494 -1.68632,-4.29159 -0.94692,-7.42786 0.48811,-2.07023 1.12932,-3.32885 2.38842,-4.68802 1.64193,-1.77241 3.29997,-4.26537 3.90951,-5.87814 0.51832,-1.37136 0.57222,-1.96752 0.51925,-5.74331 -0.0325,-2.31722 -0.16084,-4.31485 -0.28517,-4.43918 -0.66373,-0.66373 -9.43192,4.46752 -14.64053,8.56787 -3.3536,2.64001 -4.77563,3.90594 -9.35676,8.32959 -0.80385,0.77623 -3.09093,3.22638 -5.02972,5.3884 -10.39164,11.58793 -19.66922,27.92629 -22.89927,40.32694 -1.27917,4.91093 -1.61409,7.62598 -1.3284,10.7687 0.34055,3.74618 1.36369,6.05494 4.5126,10.18281 0.6514,0.85391 1.6039,2.15807 2.11667,2.89814 0.84508,1.2197 4.16003,5.54736 5.2527,6.85739 3.92532,4.7062 7.64233,11.14756 8.7467,15.15753 0.83284,3.02403 1.17847,6.88086 1.00081,11.16764 -0.1819,4.38893 -0.74957,7.50242 -2.25037,12.34252 -1.98818,6.41189 -1.97811,6.36146 -1.95747,9.80525 0.0178,2.96198 -0.0228,3.24342 -0.48859,3.39127 -0.85418,0.27109 -1.3943,-0.0954 -2.36003,-1.60139 -0.50932,-0.79426 -1.51608,-1.95102 -2.23725,-2.57056 -3.43557,-2.95151 -4.98703,-4.95361 -6.66936,-8.60658 -2.12336,-4.6106 -2.74433,-5.79533 -3.5334,-6.74124 -0.45523,-0.5457 -0.93465,-0.99219 -1.06539,-0.99219 -0.13073,0 -0.50902,0.8632 -0.84063,1.91823 -0.54175,1.72358 -0.60271,2.44179 -0.60077,7.0776 0.002,5.70209 0.18322,7.08623 1.71098,13.09688 1.59723,6.28391 4.23569,12.91593 7.36827,18.52083 1.02759,1.83859 3.89797,6.30039 4.5843,7.126 0.1291,0.15528 0.47874,0.57999 0.77697,0.94379 1.80487,2.20171 5.85438,5.97244 8.1792,7.61617 0.65484,0.46302 2.26219,1.21235 3.57187,1.66518 2.11307,0.73065 2.81334,0.83854 6.21771,0.95803 2.96915,0.10422 4.24323,0.0388 5.63586,-0.28916 4.30337,-1.01362 7.59053,-3.50777 13.32633,-10.11137 0.26656,-0.30689 1.37765,-1.54102 2.46906,-2.74246 1.8696,-2.05812 5.45605,-6.83538 8.73125,-11.63034 2.9205,-4.27564 4.32385,-6.01023 6.7173,-8.30271 6.46109,-6.18858 12.91386,-9.79604 19.32836,-10.80566 3.57855,-0.56325 12.86349,0.0673 20.12413,1.36665 5.51083,0.98621 10.01578,1.33617 20.37292,1.58261 11.06295,0.26326 15.18994,0.63023 19.57917,1.74095 5.70354,1.44331 8.31845,2.72743 10.98915,5.39647 2.54294,2.54135 2.90243,3.30219 2.89806,6.13312 -0.005,3.25769 -1.27063,6.93174 -2.80302,8.1371 -0.62492,0.49157 -1.05807,0.55417 -3.83445,0.55417 -7.70289,0 -17.51571,3.48764 -23.54453,8.36811 -1.76821,1.43143 -4.97245,4.6745 -6.50949,6.58842 -1.44701,1.80179 -2.30389,2.81821 -3.08062,3.65421 -0.41225,0.44368 -1.47897,1.64674 -2.37056,2.67349 -3.38204,3.89482 -5.44815,5.72111 -7.63556,6.74928 l -2.06949,0.97277 1.78233,0.82716 c 0.98029,0.45495 3.15156,1.74686 4.82505,2.87092 7.54806,5.06986 9.34646,7.0113 13.20864,14.25919 2.13148,4.00005 4.1716,6.2467 10.0916,11.11316 0.35452,0.29141 1.29651,1.06532 2.09336,1.71979 0.79687,0.65447 1.58094,1.30903 1.74241,1.45455 0.16148,0.14552 0.78367,0.66235 1.38266,1.1485 1.2073,0.97983 1.91643,1.58541 3.09904,2.64631 0.43656,0.39164 2.10344,1.7109 3.70417,2.93171 4.85891,3.70568 6.90846,5.9032 8.5807,9.20033 3.04337,6.00054 4.16817,14.09383 2.6955,19.39502 -0.34362,1.23693 -0.92766,2.78474 -1.29786,3.43958 -0.88861,1.57179 -4.46085,5.26286 -5.53808,5.72231 -1.04288,0.44479 -3.02159,0.44167 -4.44026,-0.007 z"
       id="path38"
       inkscape:export-xdpi="96"
       inkscape:export-ydpi="96" />
  </g>
</svg>
