<?xml version="1.0" encoding="UTF-8" standalone="no"?>
<svg
   xmlns:dc="http://purl.org/dc/elements/1.1/"
   xmlns:cc="http://creativecommons.org/ns#"
   xmlns:rdf="http://www.w3.org/1999/02/22-rdf-syntax-ns#"
   xmlns:svg="http://www.w3.org/2000/svg"
   xmlns="http://www.w3.org/2000/svg"
   xmlns:sodipodi="http://sodipodi.sourceforge.net/DTD/sodipodi-0.dtd"
   xmlns:inkscape="http://www.inkscape.org/namespaces/inkscape"
   width="577.02631mm"
   height="498.68994mm"
   viewBox="0 0 577.02631 498.68994"
   version="1.1"
   id="svg8"
   inkscape:version="1.0.1 (3bc2e813f5, 2020-09-07)"
   sodipodi:docname="raie-icone.svg">
  <defs
     id="defs2" />
  <sodipodi:namedview
     id="base"
     pagecolor="#ffffff"
     bordercolor="#666666"
     borderopacity="1.0"
     inkscape:pageopacity="0.0"
     inkscape:pageshadow="2"
     inkscape:zoom="0.175"
     inkscape:cx="1643.9978"
     inkscape:cy="388.53082"
     inkscape:document-units="mm"
     inkscape:current-layer="layer1"
     inkscape:document-rotation="0"
     showgrid="false"
     inkscape:window-width="1425"
     inkscape:window-height="1080"
     inkscape:window-x="2024"
     inkscape:window-y="104"
     inkscape:window-maximized="0" />
  <metadata
     id="metadata5">
    <rdf:RDF>
      <cc:Work
         rdf:about="">
        <dc:format>image/svg+xml</dc:format>
        <dc:type
           rdf:resource="http://purl.org/dc/dcmitype/StillImage" />
        <dc:title></dc:title>
      </cc:Work>
    </rdf:RDF>
  </metadata>
  <g
     inkscape:label="Calque 1"
     inkscape:groupmode="layer"
     id="layer1"
     transform="translate(223.84305,-21.546449)">
    <g
       id="g54"
       transform="translate(1.6212568,117.93802)"
       inkscape:export-xdpi="96"
       inkscape:export-ydpi="96">
      <path
         style="fill:#d0d0cf;stroke-width:0.264583"
         d="m -187.95812,402.12646 c 0.47294,-0.0587 1.24685,-0.0587 1.71979,0 0.47294,0.0587 0.086,0.10671 -0.85989,0.10671 -0.94589,0 -1.33284,-0.048 -0.8599,-0.10671 z m 5.55625,0.005 c 0.32742,-0.0631 0.8632,-0.0631 1.19063,0 0.32742,0.0631 0.0595,0.11465 -0.59532,0.11465 -0.65484,0 -0.92273,-0.0516 -0.59531,-0.11465 z m -11.1125,-0.26458 c 0.32742,-0.0631 0.8632,-0.0631 1.19062,0 0.32743,0.063 0.0595,0.11464 -0.59531,0.11464 -0.65484,0 -0.92273,-0.0516 -0.59531,-0.11464 z m 14.55208,0.0114 c 0.1819,-0.0734 0.47956,-0.0734 0.66146,0 0.1819,0.0734 0.0331,0.13345 -0.33073,0.13345 -0.3638,0 -0.51263,-0.0601 -0.33073,-0.13345 z m -16.91679,-0.27009 c 0.19099,-0.0764 0.41919,-0.067 0.50711,0.0209 0.0879,0.0879 -0.0684,0.15047 -0.34726,0.13899 -0.30823,-0.0127 -0.37092,-0.0754 -0.15985,-0.15986 z m 18.9062,-0.003 c 0.25744,-0.0671 0.61462,-0.0627 0.79375,0.01 0.17913,0.0725 -0.0315,0.12735 -0.46805,0.12198 -0.43656,-0.005 -0.58313,-0.0647 -0.3257,-0.13179 z m 1.7313,-0.26196 c 0.19099,-0.0764 0.4192,-0.067 0.50712,0.0209 0.0879,0.0879 -0.0684,0.15047 -0.34727,0.13899 -0.30823,-0.0127 -0.37092,-0.0754 -0.15985,-0.15986 z m 3.70416,-0.79375 c 0.191,-0.0764 0.4192,-0.067 0.50712,0.0209 0.0879,0.0879 -0.0683,0.15047 -0.34726,0.13899 -0.30823,-0.0127 -0.37092,-0.0754 -0.15986,-0.15986 z m 2.91042,-0.79375 c 0.191,-0.0764 0.4192,-0.067 0.50712,0.0209 0.0879,0.0879 -0.0684,0.15047 -0.34727,0.13899 -0.30822,-0.0127 -0.37092,-0.0754 -0.15985,-0.15986 z m -39.70404,-1.05278 c 0.1819,-0.0734 0.47956,-0.0734 0.66146,0 0.1819,0.0734 0.0331,0.13346 -0.33073,0.13346 -0.3638,0 -0.51263,-0.0601 -0.33073,-0.13346 z m -2.24392,-0.2727 c 0.25743,-0.0671 0.61462,-0.0627 0.79375,0.01 0.17913,0.0725 -0.0315,0.12734 -0.46806,0.12197 -0.43656,-0.005 -0.58312,-0.0647 -0.32569,-0.13179 z m 3.82552,-1.5951 c 0.4697,-0.0584 1.30314,-0.0594 1.85209,-0.003 0.54894,0.0573 0.16465,0.10509 -0.854,0.10628 -1.01865,0 -1.46779,-0.0457 -0.99809,-0.10414 z m 47.16788,-0.73316 c 0,-0.17922 2.1491,-1.24833 2.2688,-1.12863 0.0555,0.0555 -0.43233,0.35989 -1.08398,0.67649 -0.65165,0.3166 -1.18482,0.52006 -1.18482,0.45214 z m 2.64584,-1.3141 c 0,-0.0728 0.47625,-0.37523 1.05833,-0.6722 0.58208,-0.29697 1.05833,-0.48038 1.05833,-0.40762 0,0.0728 -0.47625,0.37523 -1.05833,0.6722 -0.58208,0.29697 -1.05833,0.48038 -1.05833,0.40762 z m -68.29626,-0.60606 c -0.3291,-0.41965 -0.31974,-0.42899 0.0999,-0.0999 0.44073,0.34565 0.58089,0.56292 0.36312,0.56292 -0.0549,0 -0.2633,-0.20836 -0.46302,-0.46302 z m 71.75789,-1.22092 c 0.0606,-0.053 0.4079,-0.23823 0.7717,-0.41148 0.62369,-0.29704 0.63214,-0.29151 0.14787,0.0964 -0.42148,0.33769 -1.28267,0.6327 -0.91957,0.31504 z m 5.19906,-2.84681 c 0.17948,-0.18081 0.39297,-0.26212 0.47443,-0.18065 0.0815,0.0815 -0.0654,0.22942 -0.32632,0.32877 -0.37708,0.14359 -0.40747,0.11319 -0.14811,-0.14812 z m -30.88569,-4.56499 c 0,-0.0549 0.20836,-0.26328 0.46302,-0.46302 0.41964,-0.32909 0.429,-0.31975 0.0999,0.0999 -0.34564,0.44072 -0.56291,0.58089 -0.56291,0.36311 z m 3.83645,-4.13342 c 0.56839,-0.58209 1.09297,-1.05834 1.16573,-1.05834 0.0728,0 -0.33275,0.47625 -0.90114,1.05834 -0.56839,0.58208 -1.09297,1.05833 -1.16573,1.05833 -0.0728,0 0.33276,-0.47625 0.90114,-1.05833 z m 45.30549,-1.88492 c 0.17948,-0.18082 0.39297,-0.26212 0.47443,-0.18066 0.0815,0.0815 -0.0654,0.22942 -0.32631,0.32877 -0.37709,0.14359 -0.40748,0.11319 -0.14812,-0.14811 z m -40.80757,-2.87758 c 0.56839,-0.58209 1.09297,-1.05834 1.16573,-1.05834 0.0728,0 -0.33276,0.47625 -0.90115,1.05834 -0.56838,0.58208 -1.09296,1.05833 -1.16572,1.05833 -0.0728,0 0.33275,-0.47625 0.90114,-1.05833 z m 51.46146,-2.48523 c 0,-0.0572 0.18478,-0.17489 0.41062,-0.26157 0.23546,-0.0904 0.34166,-0.046 0.24897,0.10401 -0.15538,0.2514 -0.65959,0.37184 -0.65959,0.15756 z m 2.38125,-1.06802 c 0,-0.0728 0.23813,-0.25974 0.52917,-0.4155 0.29104,-0.15576 0.52916,-0.22368 0.52916,-0.15092 0,0.0728 -0.23812,0.25974 -0.52916,0.4155 -0.29104,0.15576 -0.52917,0.22368 -0.52917,0.15092 z m 11.90625,-6.86541 c 0,-0.0549 0.20836,-0.26329 0.46302,-0.46302 0.41965,-0.32909 0.42901,-0.31975 0.0999,0.0999 -0.34564,0.44071 -0.56292,0.58089 -0.56292,0.36311 z m 4.49792,-2.91042 c 0,-0.0549 0.20836,-0.26328 0.46302,-0.46302 0.419645,-0.32909 0.429003,-0.31975 0.0999,0.0999 -0.34565,0.44072 -0.56292,0.58089 -0.56292,0.36311 z m 16.139583,-9.80836 c 0,-0.0728 0.357187,-0.31703 0.79375,-0.54277 0.436562,-0.22574 0.79375,-0.35094 0.79375,-0.27818 0,0.0728 -0.357188,0.31702 -0.79375,0.54276 -0.436563,0.22575 -0.79375,0.35095 -0.79375,0.27819 z m -53.230863,-0.32663 c 0.191,-0.0764 0.4192,-0.067 0.50712,0.0209 0.0879,0.0879 -0.0683,0.15047 -0.34727,0.13899 -0.30822,-0.0127 -0.37091,-0.0754 -0.15985,-0.15987 z m 2.76159,-0.26623 c 0.25466,-0.0666 0.67138,-0.0666 0.92604,0 0.25466,0.0666 0.0463,0.121 -0.46302,0.121 -0.50932,0 -0.71768,-0.0544 -0.46302,-0.121 z m 5.29167,0 c 0.25466,-0.0666 0.67138,-0.0666 0.92604,0 0.25466,0.0666 0.0463,0.121 -0.46302,0.121 -0.50933,0 -0.71768,-0.0544 -0.46302,-0.121 z m 77.721354,-16.60003 c 0,-0.0728 0.238125,-0.25975 0.529167,-0.41551 0.291041,-0.15576 0.529166,-0.22367 0.529166,-0.15091 0,0.0728 -0.238125,0.25974 -0.529166,0.4155 -0.291042,0.15576 -0.529167,0.22368 -0.529167,0.15092 z m 14.816667,-8.45291 c 0,-0.0549 0.208359,-0.26329 0.463021,-0.46302 0.419645,-0.32909 0.429003,-0.31975 0.0999,0.0999 -0.345644,0.44072 -0.562917,0.5809 -0.562917,0.36312 z m 2.38125,-1.5875 c 0,-0.0549 0.208359,-0.26329 0.463021,-0.46302 0.419645,-0.32909 0.429003,-0.31975 0.0999,0.0999 -0.345644,0.44072 -0.562917,0.5809 -0.562917,0.36312 z m 3.704167,-2.64584 c 0,-0.0549 0.208359,-0.26328 0.463021,-0.46302 0.419645,-0.32909 0.429003,-0.31975 0.0999,0.0999 -0.345644,0.44072 -0.562917,0.58089 -0.562917,0.36311 z m 5.55625,-4.23333 c 0,-0.0549 0.208359,-0.26329 0.463021,-0.46302 0.419645,-0.32909 0.429003,-0.31975 0.0999,0.0999 -0.345644,0.44071 -0.562917,0.58089 -0.562917,0.36311 z m 4.7625,-3.70417 c 0,-0.0549 0.20836,-0.26328 0.463021,-0.46302 0.419645,-0.32909 0.429003,-0.31975 0.0999,0.0999 -0.345644,0.44072 -0.562917,0.58089 -0.562917,0.36311 z m 4.233334,-3.175 c 0,-0.0549 0.208359,-0.26328 0.463021,-0.46302 0.419645,-0.32909 0.429003,-0.31975 0.0999,0.0999 -0.345644,0.44072 -0.562917,0.58089 -0.562917,0.36311 z m 21.6958339,-14.0269 c 0,-0.0572 0.184777,-0.17489 0.4106174,-0.26156 0.235458,-0.0904 0.3416618,-0.046 0.2489677,0.104 -0.1553792,0.25141 -0.6595851,0.37185 -0.6595851,0.15756 z M 146.54137,276.02882 c 0,-0.0455 0.38695,-0.43248 0.8599,-0.85989 l 0.85989,-0.77711 -0.77711,0.8599 c -0.72437,0.80155 -0.94268,0.98152 -0.94268,0.7771 z m 21.92666,-33.45315 c -0.32909,-0.41965 -0.31975,-0.42899 0.0999,-0.0999 0.25467,0.19973 0.46303,0.40809 0.46303,0.46302 0,0.21778 -0.21728,0.0776 -0.56293,-0.36312 z m 22.52334,-22.39105 c 0,-0.0549 0.20836,-0.26329 0.46302,-0.46302 0.41966,-0.32909 0.429,-0.31975 0.0999,0.0999 -0.34565,0.44071 -0.56293,0.58089 -0.56293,0.36311 z m -9.55876,-4.59645 c -0.32909,-0.41965 -0.31975,-0.42899 0.0999,-0.0999 0.25466,0.19973 0.46302,0.40809 0.46302,0.46302 0,0.21778 -0.21728,0.0776 -0.56293,-0.36312 z m 26.44249,0.0177 c 0.191,-0.0764 0.4192,-0.067 0.50712,0.0209 0.0879,0.0879 -0.0684,0.15047 -0.34726,0.13899 -0.30824,-0.0127 -0.37092,-0.0754 -0.15986,-0.15986 z m 10.36836,-0.21616 c 0,-0.21828 0.0468,-0.39688 0.10398,-0.39688 0.0572,0 0.17251,0.1786 0.25627,0.39688 0.0838,0.21828 0.037,0.39687 -0.10398,0.39687 -0.14094,0 -0.25627,-0.17859 -0.25627,-0.39687 z m -13.03073,-0.0429 c 0.1819,-0.0734 0.47955,-0.0734 0.66146,0 0.1819,0.0734 0.0331,0.13346 -0.33073,0.13346 -0.36381,0 -0.51263,-0.0601 -0.33073,-0.13346 z m -7.14375,-1.32291 c 0.1819,-0.0734 0.47955,-0.0734 0.66146,0 0.1819,0.0734 0.0331,0.13345 -0.33073,0.13345 -0.36381,0 -0.51263,-0.0601 -0.33073,-0.13345 z m 22.06834,-9.61435 c 0,-0.3638 0.0601,-0.51263 0.13345,-0.33073 0.0734,0.1819 0.0734,0.47956 0,0.66146 -0.0734,0.1819 -0.13345,0.0331 -0.13345,-0.33073 z m 26.15197,0.42926 c 0,-0.0549 0.20836,-0.26329 0.46302,-0.46302 0.41966,-0.32909 0.429,-0.31975 0.0999,0.0999 -0.34565,0.44072 -0.56293,0.5809 -0.56293,0.36312 z m -26.15197,-3.33968 c 0,-0.3638 0.0601,-0.51263 0.13345,-0.33073 0.0734,0.1819 0.0734,0.47956 0,0.66146 -0.0734,0.1819 -0.13345,0.0331 -0.13345,-0.33073 z m -0.26459,-3.96875 c 0,-0.3638 0.0601,-0.51263 0.13346,-0.33073 0.0734,0.1819 0.0734,0.47956 0,0.66146 -0.0734,0.1819 -0.13346,0.0331 -0.13346,-0.33073 z m 37.79364,0.16468 c 0,-0.0549 0.20836,-0.26329 0.46303,-0.46302 0.41965,-0.32909 0.42899,-0.31975 0.0999,0.0999 -0.34565,0.44072 -0.56293,0.5809 -0.56293,0.36312 z m 1.5875,-1.32292 c 0,-0.0549 0.20836,-0.26329 0.46303,-0.46302 0.41965,-0.32909 0.42899,-0.31975 0.0999,0.0999 -0.34565,0.44071 -0.56293,0.58089 -0.56293,0.36311 z m 2.38125,-2.14905 c 0.49366,-0.50932 0.95708,-0.92604 1.02984,-0.92604 0.0728,0 -0.27159,0.41672 -0.76525,0.92604 -0.49366,0.50932 -0.95708,0.92604 -1.02984,0.92604 -0.0728,0 0.2716,-0.41672 0.76525,-0.92604 z m -6.04363,-0.66146 c 0,-0.3638 0.0601,-0.51263 0.13345,-0.33073 0.0734,0.1819 0.0734,0.47956 0,0.66146 -0.0734,0.1819 -0.13345,0.0331 -0.13345,-0.33073 z m 10.27697,-3.27491 c 0,-0.0549 0.20836,-0.26328 0.46302,-0.46302 0.41965,-0.32908 0.42899,-0.31974 0.0999,0.0999 -0.34566,0.44072 -0.56293,0.58089 -0.56293,0.36311 z m 3.57187,-3.33967 c 0.2634,-0.29104 0.53843,-0.52917 0.61119,-0.52917 0.0728,0 -0.0832,0.23813 -0.3466,0.52917 -0.2634,0.29104 -0.53843,0.52916 -0.61119,0.52916 -0.0728,0 0.0832,-0.23812 0.3466,-0.52916 z m -13.79992,-2.24896 c 0,-1.16417 0.0475,-1.6075 0.10337,-0.9852 0.0559,0.62232 0.0551,1.57482 -0.003,2.11666 -0.0568,0.54187 -0.10257,0.0327 -0.10162,-1.13146 z m 17.63638,-1.02595 c 0,-0.0549 0.20836,-0.26329 0.46302,-0.46302 0.41966,-0.32909 0.429,-0.31975 0.0999,0.0999 -0.34565,0.44071 -0.56293,0.58089 -0.56293,0.36311 z m -250.717851,-0.75999 -0.504031,-0.59531 0.595313,0.50403 c 0.327422,0.27721 0.595312,0.5451 0.595312,0.59531 0,0.21172 -0.212937,0.0554 -0.686594,-0.50403 z m -2.645833,-2.38125 -0.504031,-0.59531 0.595312,0.50403 c 0.559435,0.47366 0.715751,0.68659 0.504031,0.68659 -0.05022,0 -0.318108,-0.26789 -0.595312,-0.59531 z m 12.878303,-0.0882 c 0.0127,-0.30824 0.07541,-0.37092 0.159861,-0.15986 0.07644,0.191 0.06705,0.4192 -0.0209,0.50712 -0.08792,0.0879 -0.150468,-0.0684 -0.138985,-0.34726 z m -15.122155,-2.16078 -0.641429,-0.7276 0.727604,0.64143 c 0.400182,0.35279 0.727604,0.68022 0.727604,0.7276 0,0.20752 -0.21426,0.0386 -0.813779,-0.64143 z m -3.561794,-3.57187 -1.312969,-1.38906 1.389063,1.31296 c 1.290743,1.22005 1.5104,1.46516 1.312968,1.46516 -0.04186,0 -0.666935,-0.62508 -1.389062,-1.38906 z m 267.90058,1.02457 c 0,-0.0549 0.20836,-0.26329 0.46302,-0.46302 0.41966,-0.32909 0.429,-0.31975 0.0999,0.0999 -0.34565,0.44071 -0.56293,0.58089 -0.56293,0.36311 z m 13.55514,-14.71676 c 0,-0.50932 0.0545,-0.71768 0.12099,-0.46302 0.0666,0.25466 0.0666,0.67138 0,0.92604 -0.0665,0.25466 -0.12099,0.0463 -0.12099,-0.46302 z m 11.3157,0.69384 c 0,-0.0549 0.20836,-0.26328 0.46302,-0.46302 0.41965,-0.32908 0.42899,-0.31974 0.0999,0.0999 -0.34565,0.44072 -0.56292,0.58089 -0.56292,0.36311 z M 9.5289744,160.22411 c 0,-0.3638 0.060055,-0.51263 0.1334532,-0.33073 0.073398,0.1819 0.073398,0.47956 0,0.66146 -0.073398,0.1819 -0.1334532,0.0331 -0.1334532,-0.33073 z M 310.18617,158.90119 c 0.26339,-0.29104 0.53843,-0.52916 0.61119,-0.52916 0.0728,0 -0.0832,0.23812 -0.34661,0.52916 -0.26339,0.29105 -0.53843,0.52917 -0.61119,0.52917 -0.0728,0 0.0832,-0.23812 0.34661,-0.52917 z M 10.037255,154.24895 c 0.0127,-0.30824 0.07539,-0.37092 0.159851,-0.15986 0.07643,0.191 0.06703,0.4192 -0.02088,0.50712 -0.08792,0.0879 -0.150453,-0.0684 -0.138965,-0.34726 z m 306.102035,-0.21016 c 0,-0.0549 0.20836,-0.26329 0.46302,-0.46302 0.41966,-0.32909 0.429,-0.31975 0.0999,0.0999 -0.34565,0.44072 -0.56293,0.5809 -0.56293,0.36312 z m -20.08745,-1.11276 c 0.0127,-0.30824 0.0754,-0.37092 0.15986,-0.15986 0.0764,0.191 0.067,0.4192 -0.0209,0.50713 -0.0879,0.0879 -0.15046,-0.0684 -0.13898,-0.34727 z m 21.93954,-0.45762 c 0,-0.0455 0.38695,-0.43249 0.85989,-0.8599 l 0.8599,-0.77711 -0.77711,0.8599 c -0.72438,0.80155 -0.94268,0.98152 -0.94268,0.77711 z m 3.57187,-3.62138 c 0.26339,-0.29104 0.53843,-0.52917 0.61119,-0.52917 0.0728,0 -0.0832,0.23813 -0.3466,0.52917 -0.2634,0.29104 -0.53843,0.52916 -0.61119,0.52916 -0.0728,0 0.0832,-0.23812 0.3466,-0.52916 z M 7.6560048,148.6927 c 0.0127,-0.30824 0.07539,-0.37092 0.1598507,-0.15986 0.07643,0.191 0.067032,0.4192 -0.020876,0.50712 -0.087918,0.0879 -0.1504526,-0.0684 -0.1389644,-0.34726 z m 0.295275,-2.09463 c 0.0054,-0.43656 0.064691,-0.58312 0.1317731,-0.3257 0.067082,0.25744 0.062672,0.61462 -0.00982,0.79375 -0.072477,0.17915 -0.1273625,-0.0315 -0.1219703,-0.46805 z M -18.273163,112.97395 c 0.0127,-0.30824 0.07539,-0.37092 0.159851,-0.15986 0.07643,0.191 0.06703,0.4192 -0.02088,0.50712 -0.08792,0.0879 -0.150452,-0.0684 -0.138964,-0.34726 z m -10.973843,-8.26823 c -0.07495,-0.12129 0.03185,-0.22051 0.237329,-0.22051 0.205478,0 0.312277,0.0992 0.237329,0.22051 -0.07495,0.12126 -0.181745,0.22048 -0.237329,0.22048 -0.05558,0 -0.162383,-0.0992 -0.237329,-0.22048 z m 8.32801,-1.25677 c 0.0127,-0.30824 0.07539,-0.37092 0.15985,-0.15986 0.07643,0.191 0.06703,0.4192 -0.02088,0.50712 -0.08792,0.0879 -0.150453,-0.0684 -0.138965,-0.34726 z m -0.233892,-1.83005 c 0.0054,-0.43656 0.06469,-0.58311 0.131773,-0.3257 0.06708,0.25744 0.06267,0.61463 -0.0098,0.79375 -0.07248,0.17915 -0.127362,-0.0315 -0.12197,-0.46805 z M 351.39561,94.21057 c 0.003,-0.582083 0.0571,-0.789067 0.12041,-0.459925 0.0633,0.329115 0.0609,0.805365 -0.005,1.058333 -0.0662,0.252942 -0.11801,-0.0164 -0.11507,-0.598408 z m -0.25564,-3.175 c 0.003,-0.727604 0.0534,-0.993854 0.11419,-0.591688 0.0608,0.402194 0.0592,0.997506 -0.004,1.322917 -0.0628,0.325438 -0.11256,-0.0037 -0.11057,-0.731229 z M -21.132406,86.934529 c 0,-0.654844 0.0516,-0.922735 0.114662,-0.595313 0.06307,0.327422 0.06307,0.863203 0,1.190625 -0.06306,0.327422 -0.114662,0.05953 -0.114662,-0.595312 z m -1.37409,-2.800165 c 0.0127,-0.30824 0.07539,-0.37092 0.15985,-0.159862 0.07643,0.191003 0.06703,0.419206 -0.02088,0.507127 -0.08792,0.08792 -0.150453,-0.06837 -0.138965,-0.347265 z m 1.5875,-0.529167 c 0.0127,-0.30824 0.07539,-0.370919 0.15985,-0.159861 0.07643,0.191003 0.06703,0.419206 -0.02088,0.507127 -0.08792,0.08792 -0.150453,-0.06837 -0.138965,-0.347266 z m 366.546866,-2.293064 -1.04587,-1.124479 1.12448,1.045871 c 1.04577,0.972661 1.24606,1.203087 1.04587,1.203087 -0.0432,0 -0.54922,-0.506016 -1.12448,-1.124479 z m -14.1765,-9.921875 c -0.32909,-0.419656 -0.31975,-0.428996 0.0999,-0.09991 0.25466,0.199734 0.46302,0.408093 0.46302,0.463021 0,0.217778 -0.21727,0.0776 -0.56292,-0.363114 z m -12.7,-8.466667 c -0.32909,-0.419656 -0.31975,-0.428995 0.0999,-0.09991 0.44072,0.345652 0.5809,0.562928 0.36312,0.562928 -0.0549,0 -0.26329,-0.208359 -0.46302,-0.463021 z m -2.91042,-2.38125 c -0.32909,-0.419656 -0.31975,-0.428995 0.0999,-0.09991 0.44071,0.345652 0.58089,0.562928 0.36311,0.562928 -0.0549,0 -0.26329,-0.208359 -0.46302,-0.463021 z M -44.20233,54.765614 c 0.0127,-0.30824 0.07539,-0.37092 0.15985,-0.159861 0.07643,0.191002 0.06703,0.419205 -0.02088,0.507126 -0.08792,0.08792 -0.150453,-0.06837 -0.138965,-0.347265 z m 350.78286,-1.367023 c -0.32909,-0.419655 -0.31975,-0.428995 0.0999,-0.09991 0.25466,0.199734 0.46302,0.408094 0.46302,0.463021 0,0.217779 -0.21728,0.0776 -0.56293,-0.363114 z m -1.85208,-1.5875 c -0.32909,-0.419655 -0.31975,-0.428995 0.0999,-0.09991 0.44071,0.345652 0.58089,0.562928 0.36311,0.562928 -0.0549,0 -0.26329,-0.208359 -0.46302,-0.463021 z m -6.61458,-5.55625 c -0.32909,-0.419655 -0.31975,-0.428995 0.0999,-0.09991 0.25466,0.199733 0.46302,0.408093 0.46302,0.46302 0,0.217779 -0.21727,0.0776 -0.56292,-0.363114 z M -40.519052,45.79182 c 0.341775,-0.363802 0.680939,-0.661458 0.7537,-0.661458 0.07276,0 -0.147342,0.297656 -0.489117,0.661458 -0.341776,0.363802 -0.68094,0.661459 -0.7537,0.661459 -0.07276,0 0.147341,-0.297657 0.489117,-0.661459 z m 335.598832,-2.05052 -0.50403,-0.595313 0.59531,0.504031 c 0.55944,0.473657 0.71575,0.686594 0.50403,0.686594 -0.0502,0 -0.3181,-0.267891 -0.59531,-0.595312 z m -2.4884,-2.182813 c -0.64268,-0.654844 -1.10898,-1.190625 -1.03622,-1.190625 0.0728,0 0.65813,0.535781 1.3008,1.190625 0.64267,0.654844 1.10897,1.190625 1.03621,1.190625 -0.0728,0 -0.65812,-0.535781 -1.30079,-1.190625 z M -33.110719,38.680455 c 0,-0.05493 0.20836,-0.263287 0.463021,-0.46302 0.419645,-0.329089 0.429003,-0.319749 0.0999,0.09991 -0.345644,0.440717 -0.562917,0.580893 -0.562917,0.363114 z m 320.782169,-1.553739 -0.50403,-0.595312 0.59531,0.504031 c 0.32742,0.277204 0.59531,0.545095 0.59531,0.595312 0,0.21172 -0.21293,0.0554 -0.68659,-0.504031 z M -30.200302,36.299205 c 0,-0.05493 0.208359,-0.263287 0.463021,-0.46302 0.419645,-0.329089 0.429003,-0.319749 0.0999,0.09991 -0.345644,0.440717 -0.562917,0.580893 -0.562917,0.363114 z m 315.225922,-1.553739 -0.50404,-0.595312 0.59532,0.504031 c 0.55943,0.473657 0.71575,0.686594 0.50403,0.686594 -0.0502,0 -0.31811,-0.267891 -0.59531,-0.595313 z m -7.92901,-7.672916 -0.77711,-0.859896 0.8599,0.777107 c 0.47294,0.427408 0.85989,0.814361 0.85989,0.859896 0,0.204417 -0.21831,0.02434 -0.94268,-0.777107 z m -2.90087,-2.910417 -1.84499,-1.918229 1.91823,1.844992 c 1.05503,1.01473 1.91823,1.877933 1.91823,1.918229 0,0.194072 -0.27784,-0.06334 -1.99147,-1.844992 z m -6.63263,-6.614583 -0.50403,-0.595313 0.59532,0.504031 c 0.55943,0.473657 0.71575,0.686594 0.50403,0.686594 -0.0502,0 -0.31811,-0.267891 -0.59532,-0.595312 z m -2.78675,-3.042709 c -0.32908,-0.419655 -0.31974,-0.428995 0.0999,-0.09991 0.44072,0.345651 0.58089,0.562927 0.36312,0.562927 -0.0549,0 -0.26329,-0.208359 -0.46303,-0.463021 z m -1.57376,-1.852083 -0.64143,-0.727604 0.7276,0.641429 c 0.40018,0.352796 0.72761,0.680217 0.72761,0.727604 0,0.207513 -0.21426,0.03863 -0.81378,-0.641429 z m -13.2429,-17.4625 c -0.32909,-0.4196556 -0.31975,-0.4289954 0.0999,-0.099907 0.25467,0.1997339 0.46302,0.4080933 0.46302,0.4630208 0,0.2177785 -0.21727,0.077602 -0.56292,-0.3631138 z M 67.166368,-27.465378 c 0,-0.05493 0.208359,-0.263287 0.463021,-0.463021 0.419656,-0.329088 0.428995,-0.319749 0.09991,0.09991 -0.345652,0.440717 -0.562928,0.580893 -0.562928,0.363114 z m 5.291667,-4.233333 c 0,-0.05493 0.208359,-0.263287 0.463021,-0.463021 0.419655,-0.329089 0.428995,-0.319749 0.09991,0.09991 -0.345651,0.440716 -0.562927,0.580892 -0.562927,0.363114 z m 6.614583,-5.324052 c 0.341763,-0.363802 0.680932,-0.661458 0.753693,-0.661458 0.07276,0 -0.147347,0.297656 -0.489109,0.661458 -0.341762,0.363802 -0.680932,0.661459 -0.753692,0.661459 -0.07276,0 0.147346,-0.297657 0.489108,-0.661459 z m 10.715626,-10.715625 c 0.864023,-0.873125 1.630468,-1.5875 1.703229,-1.5875 0.07276,0 -0.574622,0.714375 -1.438646,1.5875 -0.864023,0.873125 -1.630468,1.5875 -1.703229,1.5875 -0.07276,0 0.574623,-0.714375 1.438646,-1.5875 z m 130.802706,0.595313 c -0.32909,-0.419656 -0.31975,-0.428996 0.0999,-0.09991 0.44072,0.345652 0.5809,0.562928 0.36312,0.562928 -0.0549,0 -0.26329,-0.20836 -0.46302,-0.463021 z m -1.83836,-2.116667 -0.64142,-0.727604 0.7276,0.641429 c 0.68006,0.59952 0.84894,0.813779 0.64143,0.813779 -0.0474,0 -0.37481,-0.327422 -0.72761,-0.727604 z M 92.819893,-50.71495 c 1.096433,-1.168188 1.333976,-1.378241 1.333976,-1.179566 0,0.04247 -0.565547,0.608013 -1.256771,1.256771 l -1.256771,1.179566 z m 123.273137,-1.455208 c -0.32909,-0.419656 -0.31975,-0.428996 0.0999,-0.09991 0.44071,0.345652 0.58089,0.562927 0.36311,0.562927 -0.0549,0 -0.26329,-0.208359 -0.46302,-0.46302 z m -1.96726,-2.248959 -0.77711,-0.859896 0.8599,0.777108 c 0.80156,0.724376 0.98153,0.942684 0.77711,0.942684 -0.0455,0 -0.43249,-0.386953 -0.8599,-0.859896 z M 98.254911,-56.205054 c 0.263393,-0.291042 0.538427,-0.529167 0.611187,-0.529167 0.07276,0 -0.08321,0.238125 -0.346604,0.529167 -0.263393,0.291041 -0.538427,0.529166 -0.611187,0.529166 -0.07276,0 0.08321,-0.238125 0.346604,-0.529166 z m 2.645829,-2.38125 c 0.2634,-0.291042 0.53843,-0.529167 0.61119,-0.529167 0.0728,0 -0.0832,0.238125 -0.3466,0.529167 -0.2634,0.291041 -0.53843,0.529166 -0.61119,0.529166 -0.0728,0 0.0832,-0.238125 0.3466,-0.529166 z m 108.72712,-0.859896 -0.77711,-0.859896 0.85989,0.777108 c 0.80156,0.724376 0.98153,0.942684 0.77711,0.942684 -0.0455,0 -0.43249,-0.386953 -0.85989,-0.859896 z m -2.26608,-2.248958 c -0.32909,-0.419645 -0.31975,-0.429004 0.0999,-0.0999 0.25466,0.199721 0.46302,0.408081 0.46302,0.463021 0,0.217763 -0.21728,0.0776 -0.56293,-0.363124 z m -2.49642,-2.248959 -0.77711,-0.859896 0.85989,0.777105 c 0.80156,0.724371 0.98153,0.942687 0.77711,0.942687 -0.0455,0 -0.43249,-0.386953 -0.85989,-0.859896 z m -2.25235,-2.513541 -0.64143,-0.727605 0.72761,0.641432 c 0.68005,0.599517 0.84894,0.813777 0.64142,0.813777 -0.0474,0 -0.3748,-0.327422 -0.7276,-0.727604 z m -2.24557,-2.513542 -0.77711,-0.859896 0.8599,0.777105 c 0.80155,0.724371 0.98152,0.942687 0.7771,0.942687 -0.0455,0 -0.43248,-0.386953 -0.85989,-0.859896 z m -1.98197,-1.984375 -0.91181,-0.992188 0.99219,0.9118 c 0.9235,0.84868 1.11384,1.072575 0.91181,1.072575 -0.0442,0 -0.4907,-0.446484 -0.99219,-0.992187 z m -2.77635,-2.513542 -1.04587,-1.124479 1.12448,1.045885 c 1.04576,0.972661 1.24605,1.203073 1.04587,1.203073 -0.0432,0 -0.54922,-0.506015 -1.12448,-1.124479 z m -7.56193,-6.482291 c -0.32908,-0.419645 -0.31974,-0.429004 0.0999,-0.0999 0.25466,0.19972 0.46302,0.40808 0.46302,0.46302 0,0.217763 -0.21727,0.07761 -0.56293,-0.363124 z m -2.89668,-2.645834 -0.64143,-0.727604 0.7276,0.641432 c 0.40019,0.35279 0.72761,0.680212 0.72761,0.727604 0,0.207508 -0.21426,0.03862 -0.81378,-0.641432 z m -5.83457,-8.466666 c -0.32908,-0.419645 -0.31974,-0.429004 0.0999,-0.0999 0.25466,0.19972 0.46302,0.40808 0.46302,0.46302 0,0.217763 -0.21727,0.07761 -0.56293,-0.363124 z"
         id="path68" />
      <path
         style="fill:#b1b2b1;stroke-width:0.264583"
         d="m -185.29575,402.13712 c 0.19099,-0.0764 0.4192,-0.067 0.50712,0.0209 0.0879,0.0879 -0.0683,0.15046 -0.34727,0.13898 -0.30822,-0.0127 -0.37092,-0.0754 -0.15985,-0.15986 z m 1.85208,0 c 0.191,-0.0764 0.4192,-0.067 0.50712,0.0209 0.0879,0.0879 -0.0683,0.15046 -0.34726,0.13898 -0.30823,-0.0127 -0.37092,-0.0754 -0.15986,-0.15986 z m -7.95095,-0.27098 c 0.32912,-0.0633 0.80537,-0.0609 1.05833,0.005 0.25297,0.0662 -0.0163,0.118 -0.59839,0.11507 -0.58209,-0.003 -0.78906,-0.0571 -0.45994,-0.12042 z m -15.86155,-3.1686 c 0.191,-0.0764 0.4192,-0.067 0.50712,0.0209 0.0879,0.0879 -0.0683,0.15047 -0.34726,0.13899 -0.30823,-0.0127 -0.37092,-0.0754 -0.15986,-0.15986 z M 46.33043,291.26123 c 0.982265,-0.0509 2.589609,-0.0509 3.571875,0 0.982266,0.0509 0.178594,0.0926 -1.785938,0.0926 -1.964531,0 -2.768203,-0.0417 -1.785937,-0.0926 z m -5.420863,-0.25551 c 0.329115,-0.0633 0.805365,-0.0609 1.058333,0.005 0.252942,0.0662 -0.0164,0.11801 -0.598408,0.11507 -0.582083,-0.003 -0.789067,-0.0571 -0.459925,-0.12041 z m 14.019821,0 c 0.327422,-0.0631 0.863204,-0.0631 1.190626,0 0.327421,0.063 0.05953,0.11465 -0.595313,0.11465 -0.654844,0 -0.922734,-0.0516 -0.595313,-0.11465 z m -17.991667,-0.26458 c 0.327422,-0.0631 0.863203,-0.0631 1.190625,0 0.327422,0.0631 0.05953,0.11464 -0.595312,0.11464 -0.654844,0 -0.922735,-0.0516 -0.595313,-0.11464 z m 21.447787,0.006 c 0.191003,-0.0764 0.419206,-0.067 0.507127,0.0209 0.08792,0.0879 -0.06837,0.15046 -0.347265,0.13898 -0.30824,-0.0127 -0.37092,-0.0754 -0.159862,-0.15986 z M 19.342929,290.481 c 0.254661,-0.0666 0.67138,-0.0666 0.926042,0 0.254661,0.0665 0.0463,0.12099 -0.463021,0.12099 -0.509323,0 -0.717683,-0.0544 -0.463021,-0.12099 z m 5.423958,-0.0151 c 1.491589,-0.0471 3.93237,-0.0471 5.423959,0 1.491589,0.0472 0.271198,0.0858 -2.711979,0.0858 -2.983178,0 -4.203568,-0.0386 -2.71198,-0.0858 z m 35.735288,0.0167 c 0.191003,-0.0764 0.419206,-0.067 0.507127,0.0209 0.08792,0.0879 -0.06837,0.15047 -0.347266,0.13898 -0.308239,-0.0127 -0.370919,-0.0754 -0.159861,-0.15986 z m 5.820834,-0.79375 c 0.191002,-0.0764 0.419206,-0.0671 0.507127,0.0209 0.08792,0.0879 -0.06837,0.15047 -0.347266,0.13898 -0.30824,-0.0127 -0.370919,-0.0754 -0.159861,-0.15986 z M 195.70426,213.75342 c 0.19101,-0.0764 0.41921,-0.067 0.50713,0.0209 0.0879,0.0879 -0.0684,0.15047 -0.34727,0.13899 -0.30824,-0.0127 -0.37091,-0.0754 -0.15986,-0.15986 z m 49.79128,-8.12088 c 0,-0.0549 0.20836,-0.26329 0.46302,-0.46302 0.41966,-0.32909 0.429,-0.31975 0.0999,0.0999 -0.34565,0.44072 -0.56293,0.5809 -0.56293,0.36312 z M 14.315845,201.039 c 0.836745,-0.0525 2.205964,-0.0525 3.042709,0 0.836745,0.0525 0.152135,0.0955 -1.521354,0.0955 -1.67349,0 -2.358099,-0.0429 -1.521355,-0.0955 z m -3.555338,-0.24979 c 0.190994,-0.0764 0.4192,-0.067 0.507119,0.0209 0.08793,0.0879 -0.06835,0.15047 -0.347266,0.13899 -0.308226,-0.0127 -0.370919,-0.0754 -0.159853,-0.15987 z m 9.773047,0.006 c 0.181901,-0.0734 0.479557,-0.0734 0.661458,0 0.181901,0.0734 0.03307,0.13346 -0.330729,0.13346 -0.363802,0 -0.51263,-0.0601 -0.330729,-0.13346 z m 2.397786,-0.27008 c 0.191003,-0.0764 0.419206,-0.067 0.507127,0.0209 0.08792,0.0879 -0.06837,0.15047 -0.347265,0.13899 -0.30824,-0.0127 -0.37092,-0.0754 -0.159862,-0.15987 z M 3.0875897,197.61426 c 0.1909948,-0.0764 0.4192006,-0.067 0.507119,0.0209 0.087918,0.0879 -0.068353,0.15047 -0.3472656,0.13899 -0.3082264,-0.0127 -0.3709194,-0.0754 -0.1598534,-0.15986 z M 219.88252,196.33979 c 0.005,-0.43656 0.0647,-0.58312 0.13179,-0.3257 0.0671,0.25744 0.0627,0.61462 -0.01,0.79375 -0.0725,0.17915 -0.12734,-0.0315 -0.12197,-0.46805 z m 42.81094,-3.14267 c 0,-0.0549 0.20836,-0.26329 0.46302,-0.46302 0.41965,-0.32909 0.42899,-0.31975 0.0999,0.0999 -0.34566,0.44071 -0.56293,0.58089 -0.56293,0.36311 z m 3.96875,-3.70417 c 0,-0.0549 0.20836,-0.26328 0.46302,-0.46302 0.41965,-0.32908 0.42899,-0.31974 0.0999,0.0999 -0.34566,0.44072 -0.56293,0.58089 -0.56293,0.36311 z m 3.83646,-3.60426 c 0.26339,-0.29104 0.53842,-0.52916 0.61118,-0.52916 0.0728,0 -0.0832,0.23812 -0.3466,0.52916 -0.26339,0.29105 -0.53843,0.52917 -0.61119,0.52917 -0.0728,0 0.0832,-0.23812 0.34661,-0.52917 z M 28.339345,184.69807 c 0.0029,-0.58208 0.05712,-0.78907 0.120411,-0.45993 0.06329,0.32912 0.06088,0.80537 -0.0053,1.05834 -0.06622,0.25294 -0.118004,-0.0164 -0.115067,-0.59841 z m -9.484572,-5.22552 -0.504032,-0.59531 0.595313,0.50403 c 0.559435,0.47365 0.715751,0.68659 0.504031,0.68659 -0.05022,0 -0.318108,-0.26789 -0.595312,-0.59531 z m -2.637341,-2.64583 -0.777107,-0.8599 0.859895,0.77711 c 0.801556,0.72437 0.981525,0.94268 0.777108,0.94268 -0.04554,0 -0.432488,-0.38695 -0.859896,-0.85989 z m 264.996858,-0.33073 c 0.34176,-0.36381 0.68093,-0.66146 0.75369,-0.66146 0.0728,0 -0.14734,0.29765 -0.4891,0.66146 -0.34177,0.3638 -0.68094,0.66145 -0.7537,0.66145 -0.0728,0 0.14735,-0.29765 0.48911,-0.66145 z m 1.98438,-1.98438 c 0.26339,-0.29104 0.53842,-0.52917 0.61118,-0.52917 0.0728,0 -0.0832,0.23813 -0.3466,0.52917 -0.26339,0.29104 -0.53843,0.52917 -0.61119,0.52917 -0.0728,0 0.0832,-0.23813 0.34661,-0.52917 z M 9.5387799,164.06057 c 0.0054,-0.43656 0.064691,-0.58312 0.1317731,-0.3257 0.067082,0.25744 0.062672,0.61462 -0.00982,0.79375 -0.072477,0.17915 -0.1273625,-0.0315 -0.1219703,-0.46805 z M 295.56318,162.60536 c 0,-0.50932 0.0545,-0.71768 0.12099,-0.46302 0.0666,0.25466 0.0666,0.67138 0,0.92604 -0.0665,0.25466 -0.12099,0.0463 -0.12099,-0.46302 z M 9.5485827,161.54703 c 0,-0.50932 0.054451,-0.71768 0.1210019,-0.46302 0.066548,0.25466 0.066548,0.67138 0,0.92604 -0.066551,0.25466 -0.1210019,0.0463 -0.1210019,-0.46302 z m 0.244975,-3.43959 c 0,-0.3638 0.060055,-0.51263 0.1334532,-0.33072 0.073398,0.1819 0.073398,0.47955 0,0.66145 -0.073398,0.18191 -0.1334532,0.0331 -0.1334532,-0.33073 z m 284.6916823,-6.35 c 0,-0.3638 0.0601,-0.51263 0.13345,-0.33072 0.0734,0.1819 0.0734,0.47955 0,0.66145 -0.0734,0.18191 -0.13345,0.0331 -0.13345,-0.33073 z m 26.01968,-1.85208 c 0.26339,-0.29104 0.53843,-0.52917 0.61119,-0.52917 0.0728,0 -0.0832,0.23813 -0.34661,0.52917 -0.26339,0.29104 -0.53843,0.52917 -0.61119,0.52917 -0.0728,0 0.0832,-0.23813 0.34661,-0.52917 z M 7.9205881,145.5177 c 0.0127,-0.30824 0.07539,-0.37092 0.1598507,-0.15986 0.07643,0.191 0.067032,0.4192 -0.020876,0.50712 -0.087918,0.0879 -0.1504527,-0.0684 -0.1389645,-0.34726 z m 0.7232518,-1.61391 c 0.1909948,-0.0764 0.4192006,-0.067 0.507119,0.0209 0.087918,0.0879 -0.068352,0.15047 -0.3472656,0.13899 -0.3082264,-0.0127 -0.3709194,-0.0754 -0.1598534,-0.15986 z M -21.18358,100.53853 c 0.0127,-0.30824 0.07539,-0.37092 0.159851,-0.15986 0.07643,0.191 0.06703,0.4192 -0.02088,0.50713 -0.08792,0.0879 -0.150452,-0.0684 -0.138964,-0.34727 z m 0,-12.170833 c 0.0127,-0.30824 0.07539,-0.370919 0.159851,-0.159861 0.07643,0.191003 0.06703,0.419206 -0.02088,0.507127 -0.08792,0.08792 -0.150452,-0.06837 -0.138964,-0.347266 z m 0.295275,-3.682127 c 0.0054,-0.436562 0.06469,-0.583115 0.131774,-0.325702 0.06708,0.25744 0.06267,0.614627 -0.0098,0.79375 -0.07248,0.179149 -0.127362,-0.03148 -0.12197,-0.468048 z M -38.931552,44.20432 c 0.493654,-0.509323 0.957085,-0.926041 1.029845,-0.926041 0.07276,0 -0.271608,0.416718 -0.765262,0.926041 -0.493654,0.509323 -0.957085,0.926042 -1.029846,0.926042 -0.07276,0 0.271608,-0.416719 0.765263,-0.926042 z m 1.852083,-1.819698 c 0,-0.05493 0.208359,-0.263287 0.463021,-0.463021 0.419645,-0.329089 0.429003,-0.319749 0.0999,0.09991 -0.345644,0.440716 -0.562917,0.580893 -0.562917,0.363114 z m 1.322917,-1.322917 c 0,-0.05493 0.208359,-0.263287 0.463021,-0.46302 0.419645,-0.329089 0.429003,-0.319749 0.0999,0.09991 -0.345644,0.440717 -0.562917,0.580893 -0.562917,0.363114 z M 288.58887,38.052758 c -0.32909,-0.419656 -0.31975,-0.428996 0.0999,-0.09991 0.25466,0.199734 0.46302,0.408094 0.46302,0.463021 0,0.217779 -0.21727,0.0776 -0.56292,-0.363114 z m -2.36752,-2.116667 -0.64143,-0.727604 0.7276,0.641429 c 0.68006,0.59952 0.84894,0.813779 0.64143,0.813779 -0.0474,0 -0.37481,-0.327422 -0.7276,-0.727604 z m -3.82471,-3.571875 -1.57922,-1.653646 1.65364,1.579219 c 1.53609,1.466956 1.77472,1.728073 1.57922,1.728073 -0.0409,0 -0.78507,-0.744141 -1.65364,-1.653646 z m -3.17667,-3.175 -1.31297,-1.389062 1.38906,1.312968 c 0.76399,0.722127 1.38907,1.347205 1.38907,1.389063 0,0.197432 -0.24511,-0.02223 -1.46516,-1.312969 z M 266.62845,16.621508 c -0.32909,-0.419656 -0.31975,-0.428995 0.0999,-0.09991 0.44072,0.345652 0.5809,0.562928 0.36312,0.562928 -0.0549,0 -0.26329,-0.20836 -0.46302,-0.463021 z M 81.453869,-39.139429 c 0.493659,-0.509323 0.957077,-0.926042 1.029837,-0.926042 0.07276,0 -0.271594,0.416719 -0.765254,0.926042 -0.49366,0.509323 -0.957077,0.926041 -1.029838,0.926041 -0.07276,0 0.271595,-0.416718 0.765255,-0.926041 z m 1.5875,-1.537997 c 0,-0.04554 0.386953,-0.432488 0.859895,-0.859896 l 0.859896,-0.777107 -0.777107,0.859895 c -0.724377,0.801556 -0.942684,0.981525 -0.942684,0.777108 z m 3.439583,-3.489087 c 0.790416,-0.800364 1.496669,-1.455208 1.569429,-1.455208 0.07276,0 -0.514429,0.654844 -1.304846,1.455208 -0.790416,0.800365 -1.496668,1.455209 -1.569429,1.455209 -0.07276,0 0.51443,-0.654844 1.304846,-1.455209 z m 130.948728,-6.416145 -0.64143,-0.727605 0.7276,0.64143 c 0.40018,0.352795 0.72761,0.680217 0.72761,0.727604 0,0.207513 -0.21426,0.03863 -0.81378,-0.641429 z M 95.079911,-53.030054 c 0.568378,-0.582084 1.092967,-1.058334 1.165727,-1.058334 0.07276,0 -0.332766,0.47625 -0.901144,1.058334 -0.568378,0.582083 -1.092967,1.058333 -1.165728,1.058333 -0.07276,0 0.332767,-0.47625 0.901145,-1.058333 z m 1.984375,-1.95199 c 0,-0.05493 0.208359,-0.263287 0.463021,-0.463021 0.419655,-0.329089 0.428995,-0.319749 0.09991,0.09991 -0.345651,0.440716 -0.562927,0.580892 -0.562927,0.363114 z m 115.853744,-0.627698 c -0.32909,-0.419655 -0.31975,-0.428995 0.0999,-0.09991 0.25466,0.199733 0.46302,0.408093 0.46302,0.46302 0,0.217779 -0.21728,0.0776 -0.56293,-0.363114 z M 99.842411,-57.527971 c 0.263389,-0.291042 0.538429,-0.529167 0.611189,-0.529167 0.0728,0 -0.0832,0.238125 -0.34661,0.529167 -0.263388,0.291042 -0.538423,0.529167 -0.611183,0.529167 -0.07276,0 0.08321,-0.238125 0.346604,-0.529167 z m 91.793779,-19.380729 -0.77711,-0.859896 0.8599,0.777105 c 0.80155,0.724371 0.98152,0.942687 0.7771,0.942687 -0.0455,0 -0.43248,-0.386953 -0.85989,-0.859896 z m -11.5265,-13.361458 c -0.32908,-0.419645 -0.31974,-0.429004 0.0999,-0.0999 0.25466,0.19972 0.46302,0.40808 0.46302,0.46302 0,0.217763 -0.21727,0.0776 -0.56293,-0.363124 z m -22.19124,-3.870209 c 0,-0.05494 0.20836,-0.2633 0.46303,-0.463021 0.41965,-0.329107 0.42899,-0.319749 0.0999,0.0999 -0.34565,0.44073 -0.56293,0.580888 -0.56293,0.363125 z"
         id="path66" />
      <path
         style="fill:#8f908e;stroke-width:0.264583"
         d="m -189.54254,401.86614 c 0.32912,-0.0633 0.80537,-0.0609 1.05834,0.005 0.25296,0.0662 -0.0163,0.118 -0.5984,0.11507 -0.58208,-0.003 -0.78905,-0.0571 -0.45994,-0.12042 z m 8.99275,0.0119 c 0.1819,-0.0734 0.47956,-0.0734 0.66146,0 0.1819,0.0734 0.0331,0.13346 -0.33073,0.13346 -0.3638,0 -0.51263,-0.0601 -0.33073,-0.13346 z m -13.89062,-0.27172 c 0.25466,-0.0666 0.67138,-0.0666 0.92604,0 0.25466,0.0665 0.0463,0.12099 -0.46302,0.12099 -0.50932,0 -0.71768,-0.0544 -0.46302,-0.12099 z m 17.87591,-0.26295 c 0.19099,-0.0764 0.4192,-0.067 0.50712,0.0209 0.0879,0.0879 -0.0684,0.15046 -0.34727,0.13898 -0.30822,-0.0127 -0.37092,-0.0754 -0.15985,-0.15986 z m -4.44831,-13.70988 c 0.49366,-0.50933 0.95709,-0.92605 1.02985,-0.92605 0.0728,0 -0.27161,0.41672 -0.76526,0.92605 -0.49366,0.50932 -0.95709,0.92604 -1.02985,0.92604 -0.0728,0 0.27161,-0.41672 0.76526,-0.92604 z m 31.22084,-29.33637 c 0,-0.0549 0.20836,-0.26329 0.46302,-0.46302 0.41964,-0.32909 0.429,-0.31975 0.0999,0.0999 -0.34564,0.44071 -0.56291,0.58089 -0.56291,0.36311 z m 16.88372,-5.3725 c 0.191,-0.0764 0.4192,-0.067 0.50712,0.0209 0.0879,0.0879 -0.0684,0.15046 -0.34727,0.13898 -0.30822,-0.0127 -0.37091,-0.0754 -0.15985,-0.15986 z m 1.85208,0 c 0.191,-0.0764 0.41921,-0.067 0.50712,0.0209 0.0879,0.0879 -0.0684,0.15046 -0.34726,0.13898 -0.30823,-0.0127 -0.37092,-0.0754 -0.15986,-0.15986 z M 18.025039,290.48034 c 0.25744,-0.0671 0.614627,-0.0627 0.79375,0.01 0.17915,0.0725 -0.03148,0.12734 -0.468048,0.12197 -0.436562,-0.005 -0.583115,-0.0647 -0.325702,-0.13179 z m 3.583385,0.003 c 0.191002,-0.0764 0.419206,-0.067 0.507127,0.0209 0.08792,0.0879 -0.06837,0.15046 -0.347266,0.13898 -0.30824,-0.0127 -0.370919,-0.0754 -0.159861,-0.15986 z m 11.360547,0.006 c 0.181901,-0.0734 0.479557,-0.0734 0.661458,0 0.181901,0.0734 0.03307,0.13346 -0.330729,0.13346 -0.363802,0 -0.51263,-0.0601 -0.330729,-0.13346 z M 169.79094,243.89859 c -0.32908,-0.41966 -0.31974,-0.42899 0.0999,-0.0999 0.44072,0.34566 0.58089,0.56293 0.36312,0.56293 -0.0549,0 -0.26329,-0.20836 -0.46303,-0.46302 z m 21.33272,-24.14323 c 0.2634,-0.29104 0.53843,-0.52917 0.61119,-0.52917 0.0728,0 -0.0832,0.23813 -0.3466,0.52917 -0.2634,0.29104 -0.53843,0.52917 -0.61119,0.52917 -0.0728,0 0.0832,-0.23813 0.3466,-0.52917 z m -8.63272,-3.10885 c -0.32908,-0.41966 -0.31974,-0.429 0.0999,-0.0999 0.25466,0.19973 0.46302,0.40809 0.46302,0.46302 0,0.21778 -0.21727,0.0776 -0.56293,-0.36311 z m 16.91749,-2.62814 c 0.191,-0.0764 0.41921,-0.067 0.50713,0.0209 0.0879,0.0879 -0.0684,0.15047 -0.34727,0.13898 -0.30824,-0.0127 -0.37092,-0.0754 -0.15986,-0.15986 z m -2.91042,-0.26458 c 0.19101,-0.0764 0.41921,-0.067 0.50713,0.0209 0.0879,0.0879 -0.0684,0.15047 -0.34727,0.13899 -0.30824,-0.0127 -0.37091,-0.0754 -0.15986,-0.15986 z m 59.07257,-19.02359 c 0.0127,-0.30824 0.0754,-0.37092 0.15986,-0.15986 0.0764,0.191 0.0671,0.4192 -0.0209,0.50712 -0.0879,0.0879 -0.15047,-0.0684 -0.13898,-0.34726 z m 8.84267,-3.28526 c 0.56838,-0.58208 1.09297,-1.05833 1.16573,-1.05833 0.0728,0 -0.33277,0.47625 -0.90115,1.05833 -0.56837,0.58209 -1.09296,1.05834 -1.16572,1.05834 -0.0728,0 0.33276,-0.47625 0.90114,-1.05834 z m 3.04271,-2.74574 c 0,-0.0549 0.20836,-0.26328 0.46302,-0.46302 0.41966,-0.32908 0.42899,-0.31974 0.0999,0.0999 -0.34566,0.44072 -0.56293,0.58089 -0.56293,0.36311 z m -246.484521,-7.37457 -0.504031,-0.59531 0.595313,0.50403 c 0.327421,0.27721 0.595312,0.5451 0.595312,0.59531 0,0.21172 -0.212937,0.0554 -0.686594,-0.50403 z m 262.888691,-7.44209 c 0,-0.0549 0.20836,-0.26329 0.46302,-0.46302 0.41965,-0.32909 0.42899,-0.31975 0.0999,0.0999 -0.34565,0.44072 -0.56292,0.5809 -0.56292,0.36312 z m 11.70839,-9.55739 c 0.003,-0.58208 0.0571,-0.78906 0.12041,-0.45992 0.0633,0.32911 0.0609,0.80536 -0.005,1.05833 -0.0662,0.25294 -0.118,-0.0164 -0.11507,-0.59841 z M 9.5289744,162.86994 c 0,-0.3638 0.060055,-0.51263 0.1334532,-0.33072 0.073398,0.1819 0.073398,0.47955 0,0.66145 -0.073398,0.18191 -0.1334532,0.0331 -0.1334532,-0.33073 z m 0.2436971,-3.85849 c 0.0127,-0.30824 0.07539,-0.37092 0.1598507,-0.15986 0.07643,0.191 0.067032,0.4192 -0.020876,0.50712 -0.087918,0.0879 -0.1504527,-0.0684 -0.1389645,-0.34726 z m 0.2952755,-3.15296 c 0.0054,-0.43657 0.06469,-0.58312 0.131773,-0.32571 0.06708,0.25744 0.06267,0.61463 -0.0098,0.79375 -0.07248,0.17915 -0.127363,-0.0315 -0.121971,-0.46804 z m 0.285064,-5.42396 c 0,-0.65485 0.0516,-0.92274 0.114663,-0.59531 0.06307,0.32742 0.06307,0.8632 0,1.19062 -0.06306,0.32742 -0.114663,0.0595 -0.114663,-0.59531 z M -21.18358,99.74478 c 0.0127,-0.308239 0.07539,-0.370919 0.159851,-0.159861 0.07643,0.191003 0.06703,0.419201 -0.02088,0.507131 -0.08792,0.0879 -0.150452,-0.0684 -0.138964,-0.34727 z M 346.7972,82.767341 c -0.32909,-0.419656 -0.31975,-0.428995 0.0999,-0.09991 0.44071,0.345652 0.58089,0.562928 0.36311,0.562928 -0.0549,0 -0.26329,-0.20836 -0.46302,-0.463021 z M -44.466914,57.676031 c 0.0127,-0.30824 0.07539,-0.37092 0.159851,-0.159862 0.07643,0.191003 0.06703,0.419206 -0.02088,0.507127 -0.08792,0.08792 -0.150452,-0.06837 -0.138964,-0.347265 z m 316.271854,-35.630565 -0.77711,-0.859896 0.8599,0.777108 c 0.47294,0.427408 0.8599,0.814361 0.8599,0.859896 0,0.204417 -0.21831,0.02434 -0.94269,-0.777108 z m -2.50595,-2.513541 -1.44616,-1.521355 1.52136,1.44616 c 1.41338,1.343554 1.64256,1.596549 1.44616,1.596549 -0.0413,0 -0.72594,-0.68461 -1.52136,-1.521354 z m -3.71514,-3.96875 -0.64143,-0.727605 0.7276,0.64143 c 0.68006,0.599519 0.84894,0.813779 0.64143,0.813779 -0.0474,0 -0.37481,-0.327422 -0.7276,-0.727604 z M 79.866369,-37.519544 c 0,-0.05493 0.208359,-0.263287 0.46302,-0.463021 0.419656,-0.329089 0.428996,-0.319749 0.09991,0.09991 -0.345652,0.440717 -0.562927,0.580893 -0.562927,0.363115 z M 212.12428,-56.403492 c -0.32909,-0.419655 -0.31975,-0.428995 0.0999,-0.09991 0.25466,0.199733 0.46302,0.408093 0.46302,0.46302 0,0.217779 -0.21728,0.0776 -0.56293,-0.363114 z m -5.55625,-5.820833 c -0.32909,-0.419645 -0.31975,-0.429003 0.0999,-0.0999 0.25466,0.199721 0.46302,0.40808 0.46302,0.463021 0,0.217762 -0.21728,0.0776 -0.56293,-0.363125 z m -5.29167,-5.55625 c -0.32909,-0.419645 -0.31975,-0.429003 0.0999,-0.0999 0.25466,0.199721 0.46302,0.40808 0.46302,0.463021 0,0.217762 -0.21728,0.07761 -0.56293,-0.363125 z m -3.96875,-3.96875 c -0.32909,-0.419645 -0.31975,-0.429003 0.0999,-0.0999 0.25466,0.199721 0.46302,0.40808 0.46302,0.463021 0,0.217762 -0.21728,0.07761 -0.56293,-0.363125 z"
         id="path64" />
      <path
         style="fill:#6f6f6d;stroke-width:0.264583"
         d="m -187.82079,401.86992 c 0.25743,-0.0671 0.61462,-0.0627 0.79375,0.01 0.17913,0.0725 -0.0315,0.12734 -0.46806,0.12197 -0.43656,-0.005 -0.58313,-0.0647 -0.32569,-0.13179 z m 6.08541,0 c 0.25744,-0.0671 0.61462,-0.0627 0.79375,0.01 0.17913,0.0725 -0.0315,0.12734 -0.46805,0.12197 -0.43656,-0.005 -0.58313,-0.0647 -0.3257,-0.13179 z m -11.23329,-0.26196 c 0.191,-0.0764 0.4192,-0.067 0.50712,0.0209 0.0879,0.0879 -0.0684,0.15047 -0.34726,0.13898 -0.30823,-0.0127 -0.37092,-0.0754 -0.15986,-0.15986 z m -15.61041,-3.175 c 0.19099,-0.0764 0.41919,-0.067 0.50711,0.0209 0.0879,0.0879 -0.0684,0.15047 -0.34726,0.13898 -0.30823,-0.0127 -0.37092,-0.0754 -0.15985,-0.15986 z m -16.40417,-4.7625 c 0.19099,-0.0764 0.4192,-0.067 0.50712,0.0209 0.0879,0.0879 -0.0684,0.15047 -0.34727,0.13898 -0.30822,-0.0127 -0.37092,-0.0754 -0.15985,-0.15986 z m 92.85222,-40.74033 c 0.1819,-0.0734 0.47955,-0.0734 0.66145,0 0.1819,0.0734 0.0331,0.13345 -0.33073,0.13345 -0.3638,0 -0.51263,-0.0601 -0.33072,-0.13345 z M 34.043841,290.48296 c 0.191003,-0.0764 0.419206,-0.067 0.507127,0.0209 0.08792,0.0879 -0.06837,0.15047 -0.347266,0.13899 -0.308239,-0.0127 -0.370919,-0.0754 -0.159861,-0.15987 z M 140.21225,278.60311 c 0.0127,-0.30824 0.0754,-0.37092 0.15986,-0.15986 0.0764,0.191 0.067,0.41921 -0.0209,0.50713 -0.0879,0.0879 -0.15047,-0.0684 -0.13899,-0.34727 z m 57.07951,-64.84932 c 0.19101,-0.0764 0.41921,-0.067 0.50713,0.0209 0.0879,0.0879 -0.0684,0.15047 -0.34727,0.13899 -0.30824,-0.0127 -0.37091,-0.0754 -0.15986,-0.15986 z M 13.422189,173.78401 c -0.329089,-0.41966 -0.319749,-0.429 0.09991,-0.0999 0.440717,0.34565 0.580893,0.56293 0.363114,0.56293 -0.05493,0 -0.263286,-0.20836 -0.46302,-0.46302 z m 271.231691,-0.6781 c 0,-0.0455 0.38695,-0.43249 0.85989,-0.8599 l 0.8599,-0.77711 -0.77711,0.8599 c -0.72438,0.80155 -0.94268,0.98152 -0.94268,0.77711 z m 1.85208,-1.85209 c 0,-0.0455 0.38695,-0.43248 0.8599,-0.85989 l 0.85989,-0.77711 -0.77711,0.8599 c -0.72437,0.80155 -0.94268,0.98152 -0.94268,0.7771 z m 61.86289,-88.204195 c 0.191,-0.07644 0.41921,-0.06705 0.50713,0.0209 0.0879,0.08792 -0.0684,0.150469 -0.34727,0.138986 -0.30824,-0.0127 -0.37092,-0.07541 -0.15986,-0.159862 z m -2.3654,-1.076034 c -0.32909,-0.419656 -0.31975,-0.428995 0.0999,-0.09991 0.44071,0.345652 0.58089,0.562928 0.36311,0.562928 -0.0549,0 -0.26329,-0.20836 -0.46302,-0.463021 z M -44.181444,60.740779 c 0,-0.363802 0.06005,-0.512631 0.133453,-0.33073 0.0734,0.181901 0.0734,0.479558 0,0.661459 -0.0734,0.181901 -0.133453,0.03307 -0.133453,-0.330729 z m -0.264584,-2.116667 c 0,-0.363802 0.06006,-0.51263 0.133454,-0.330729 0.0734,0.181901 0.0734,0.479557 0,0.661458 -0.0734,0.181901 -0.133454,0.03307 -0.133454,-0.330729 z M 273.66121,23.89755 l -1.04588,-1.12448 1.12448,1.045872 c 1.04577,0.972661 1.24606,1.203087 1.04587,1.203087 -0.0432,0 -0.54922,-0.506016 -1.12447,-1.124479 z M 88.597619,-46.250794 c 0,-0.05493 0.208359,-0.263287 0.463021,-0.463021 0.419655,-0.329089 0.428995,-0.319749 0.09991,0.09991 -0.345651,0.440716 -0.562927,0.580892 -0.562927,0.363114 z m 130.141241,-2.744364 c -0.32909,-0.419656 -0.31975,-0.428996 0.0999,-0.09991 0.25466,0.199734 0.46302,0.408093 0.46302,0.463021 0,0.217778 -0.21728,0.0776 -0.56293,-0.363114 z m -9.50547,-10.583334 -0.91181,-0.992187 0.99219,0.911799 c 0.5457,0.501499 0.99219,0.947983 0.99219,0.992195 0,0.202036 -0.22389,0.01164 -1.07257,-0.911807 z m -1.73069,-1.719791 -0.50404,-0.595313 0.59532,0.504029 c 0.55943,0.473662 0.71575,0.686596 0.50403,0.686596 -0.0502,0 -0.31811,-0.267891 -0.59531,-0.595312 z m -7.14375,-7.408334 -0.50404,-0.595312 0.59532,0.504028 c 0.55943,0.473663 0.71575,0.686597 0.50403,0.686597 -0.0502,0 -0.31811,-0.267891 -0.59531,-0.595313 z m -2.25759,-2.248958 c -0.32909,-0.419645 -0.31975,-0.429003 0.0999,-0.0999 0.25466,0.199721 0.46302,0.40808 0.46302,0.463021 0,0.217762 -0.21728,0.07761 -0.56293,-0.363125 z m -12.7,-11.1125 c -0.32909,-0.419645 -0.31975,-0.429003 0.0999,-0.0999 0.25466,0.199721 0.46302,0.40808 0.46302,0.463021 0,0.217762 -0.21728,0.0776 -0.56293,-0.363125 z"
         id="path62" />
      <path
         style="fill:#50504e;stroke-width:0.264583"
         d="m -185.84145,401.85955 c 0.61846,-0.0557 1.63049,-0.0557 2.24895,0 0.61847,0.0557 0.11245,0.10128 -1.12447,0.10128 -1.23693,0 -1.74295,-0.0456 -1.12448,-0.10128 z m -6.08234,-0.258 c 0.32912,-0.0633 0.80537,-0.0609 1.05834,0.005 0.25296,0.0662 -0.0163,0.118 -0.5984,0.11506 -0.58208,-0.003 -0.78905,-0.0571 -0.45994,-0.12041 z m 12.16775,0.0119 c 0.1819,-0.0734 0.47956,-0.0734 0.66146,0 0.1819,0.0734 0.0331,0.13346 -0.33073,0.13346 -0.3638,0 -0.51263,-0.0601 -0.33073,-0.13346 z m -15.85846,-0.27009 c 0.19099,-0.0764 0.4192,-0.067 0.50712,0.0209 0.0879,0.0879 -0.0683,0.15046 -0.34727,0.13898 -0.30822,-0.0127 -0.37092,-0.0754 -0.15985,-0.15986 z m 17.99167,0 c 0.19099,-0.0764 0.4192,-0.067 0.50712,0.0209 0.0879,0.0879 -0.0684,0.15046 -0.34727,0.13898 -0.30823,-0.0127 -0.37092,-0.0754 -0.15985,-0.15986 z m 1.5875,-0.26458 c 0.19099,-0.0764 0.4192,-0.067 0.50712,0.0209 0.0879,0.0879 -0.0684,0.15047 -0.34727,0.13899 -0.30823,-0.0127 -0.37092,-0.0754 -0.15985,-0.15986 z m -31.75,-2.64583 c 0.19099,-0.0764 0.41919,-0.067 0.50711,0.0209 0.0879,0.0879 -0.0684,0.15047 -0.34726,0.13898 -0.30823,-0.0127 -0.37092,-0.0754 -0.15985,-0.15986 z m -1.60404,-1.582 c 0.1819,-0.0734 0.47956,-0.0734 0.66146,0 0.1819,0.0734 0.0331,0.13346 -0.33073,0.13346 -0.3638,0 -0.51263,-0.0601 -0.33073,-0.13346 z m 6.8957,-0.006 c 0.191,-0.0764 0.4192,-0.067 0.50712,0.0209 0.0879,0.0879 -0.0684,0.15046 -0.34726,0.13898 -0.30823,-0.0127 -0.37092,-0.0754 -0.15986,-0.15986 z m -9.54153,-0.25908 c 0.1819,-0.0734 0.47955,-0.0734 0.66145,0 0.18191,0.0734 0.0331,0.13346 -0.33073,0.13346 -0.3638,0 -0.51263,-0.0601 -0.33072,-0.13346 z m 34.99114,-13.15378 c 0,-0.0549 0.20836,-0.26329 0.46302,-0.46302 0.41965,-0.32909 0.42901,-0.31975 0.0999,0.0999 -0.34564,0.44072 -0.56292,0.5809 -0.56292,0.36312 z m 4.49792,-4.7625 c 0,-0.0549 0.20836,-0.26329 0.46302,-0.46302 0.41965,-0.32909 0.429,-0.31975 0.0999,0.0999 -0.34565,0.44072 -0.56292,0.5809 -0.56292,0.36312 z m 317.23543,-100.8058 c 0,-0.0549 0.20836,-0.26329 0.46302,-0.46302 0.41965,-0.32909 0.42899,-0.31975 0.0999,0.0999 -0.34566,0.44072 -0.56293,0.5809 -0.56293,0.36312 z m 3.89818,-21.89335 c 0.1795,-0.18081 0.39299,-0.26212 0.47445,-0.18065 0.0814,0.0815 -0.0654,0.22942 -0.32633,0.32877 -0.37709,0.14359 -0.40746,0.11319 -0.14812,-0.14812 z M 24.853909,221.45311 c 0.0127,-0.30824 0.07541,-0.37092 0.159861,-0.15986 0.07644,0.191 0.06705,0.41921 -0.0209,0.50713 -0.08792,0.0879 -0.150469,-0.0684 -0.138986,-0.34727 z M 220.11642,206.37186 c 0.0127,-0.30824 0.0754,-0.37092 0.15986,-0.15986 0.0764,0.191 0.067,0.41921 -0.0209,0.50713 -0.0879,0.0879 -0.15046,-0.0684 -0.13898,-0.34727 z m 25.6437,-1.26849 c 0,-0.0549 0.20836,-0.26329 0.46303,-0.46302 0.41965,-0.32909 0.42899,-0.31975 0.0999,0.0999 -0.34565,0.44071 -0.56293,0.58089 -0.56293,0.36311 z M 3.6167564,199.73087 c 0.1909948,-0.0764 0.4192006,-0.067 0.507119,0.0209 0.087918,0.0879 -0.068353,0.15047 -0.3472657,0.13898 -0.3082263,-0.0127 -0.3709193,-0.0754 -0.1598533,-0.15986 z M 220.15692,199.11786 c 0,-0.50932 0.0544,-0.71768 0.121,-0.46302 0.0666,0.25466 0.0666,0.67138 0,0.92604 -0.0666,0.25466 -0.121,0.0463 -0.121,-0.46302 z m 46.10841,-9.525 c 0.2634,-0.29104 0.53843,-0.52917 0.61119,-0.52917 0.0728,0 -0.0832,0.23813 -0.3466,0.52917 -0.2634,0.29104 -0.53843,0.52917 -0.61119,0.52917 -0.0728,0 0.0832,-0.23813 0.3466,-0.52917 z m 3.04271,-2.77812 c 0.49366,-0.50933 0.95708,-0.92605 1.02984,-0.92605 0.0728,0 -0.2716,0.41672 -0.76525,0.92605 -0.49366,0.50932 -0.95708,0.92604 -1.02984,0.92604 -0.0728,0 0.27159,-0.41672 0.76525,-0.92604 z m -250.051286,-7.2099 -0.641429,-0.7276 0.727604,0.64143 c 0.400182,0.35279 0.727604,0.68021 0.727604,0.7276 0,0.20751 -0.21426,0.0386 -0.813779,-0.64143 z m 13.82993,-0.99219 c 0.0053,-0.43656 0.06469,-0.58311 0.131789,-0.3257 0.06707,0.25744 0.06268,0.61463 -0.0098,0.79375 -0.07247,0.17915 -0.127344,-0.0315 -0.121973,-0.46805 z m -17.142328,-2.3151 -0.504031,-0.59531 0.595312,0.50403 c 0.327422,0.2772 0.595313,0.54509 0.595313,0.59531 0,0.21172 -0.212937,0.0554 -0.686594,-0.50403 z m 266.328274,-1.12448 c 0.34176,-0.3638 0.68093,-0.66146 0.75369,-0.66146 0.0728,0 -0.14735,0.29766 -0.48911,0.66146 -0.34176,0.3638 -0.68093,0.66146 -0.75369,0.66146 -0.0728,0 0.14734,-0.29766 0.48911,-0.66146 z m -267.915774,-0.46302 -0.504032,-0.59531 0.595313,0.50403 c 0.327422,0.2772 0.595313,0.54509 0.595313,0.59531 0,0.21172 -0.212937,0.0554 -0.686594,-0.50403 z m 281.488814,-7.60677 c 0,-0.80037 0.0496,-1.12779 0.11023,-0.72761 0.0606,0.40019 0.0606,1.05503 0,1.45521 -0.0607,0.40018 -0.11023,0.0728 -0.11023,-0.7276 z m 12.62071,-6.97908 c 0,-0.0549 0.20836,-0.26328 0.46302,-0.46302 0.41965,-0.32908 0.42899,-0.31974 0.0999,0.0999 -0.34565,0.44072 -0.56292,0.58089 -0.56292,0.36311 z m -12.63328,-2.41363 c 0.003,-0.58208 0.0571,-0.78907 0.12042,-0.45993 0.0633,0.32912 0.0609,0.80537 -0.005,1.05834 -0.0662,0.25294 -0.118,-0.0164 -0.11506,-0.59841 z m 0.21874,-3.19704 c 0.0127,-0.30824 0.0754,-0.37092 0.15986,-0.15986 0.0764,0.191 0.067,0.4192 -0.0209,0.50713 -0.0879,0.0879 -0.15046,-0.0684 -0.13898,-0.34727 z M 10.356623,153.21265 c 0.0021,-0.7276 0.05337,-0.99385 0.114186,-0.59168 0.06082,0.40219 0.05919,0.9975 -0.0036,1.32291 -0.0628,0.32544 -0.112559,-0.004 -0.110575,-0.73123 z m 308.296217,-1.71979 c 0.26339,-0.29104 0.53842,-0.52917 0.61118,-0.52917 0.0728,0 -0.0832,0.23813 -0.3466,0.52917 -0.26339,0.29104 -0.53843,0.52917 -0.61119,0.52917 -0.0728,0 0.0832,-0.23813 0.34661,-0.52917 z m 2.38125,-2.38125 c 0.26339,-0.29104 0.53842,-0.52917 0.61118,-0.52917 0.0728,0 -0.0832,0.23813 -0.3466,0.52917 -0.26339,0.29104 -0.53843,0.52917 -0.61119,0.52917 -0.0728,0 0.0832,-0.23813 0.34661,-0.52917 z M 10.33253,148.18557 c 0.0054,-0.43656 0.06469,-0.58312 0.131773,-0.3257 0.06708,0.25744 0.06267,0.61462 -0.0098,0.79375 -0.07248,0.17915 -0.127363,-0.0315 -0.12197,-0.46805 z M 351.08517,95.246864 c 0.0127,-0.30824 0.0754,-0.37092 0.15986,-0.159862 0.0764,0.191003 0.067,0.419206 -0.0209,0.507127 -0.0879,0.08792 -0.15047,-0.06837 -0.13899,-0.347265 z m -5.99914,-14.199315 -0.50403,-0.595312 0.59532,0.504031 c 0.55943,0.473657 0.71575,0.686594 0.50403,0.686594 -0.0502,0 -0.31811,-0.267891 -0.59532,-0.595313 z M -44.20233,56.353114 c 0.0127,-0.30824 0.07539,-0.37092 0.15985,-0.159861 0.07643,0.191002 0.06703,0.419205 -0.02088,0.507126 -0.08792,0.08792 -0.150453,-0.06837 -0.138965,-0.347265 z m 0.264583,-1.852083 c 0.0127,-0.30824 0.07539,-0.37092 0.159851,-0.159862 0.07643,0.191003 0.06703,0.419206 -0.02088,0.507127 -0.08792,0.08792 -0.150453,-0.06837 -0.138964,-0.347265 z M 304.72845,52.075674 c -0.32909,-0.419655 -0.31975,-0.428995 0.0999,-0.09991 0.44071,0.345651 0.58089,0.562927 0.36311,0.562927 -0.0549,0 -0.26329,-0.208359 -0.46302,-0.463021 z M -34.830511,40.367862 c 0.263391,-0.291042 0.538422,-0.529167 0.611183,-0.529167 0.07276,0 -0.08321,0.238125 -0.346599,0.529167 -0.26339,0.291042 -0.538422,0.529167 -0.611182,0.529167 -0.07276,0 0.08321,-0.238125 0.346598,-0.529167 z M 290.17637,39.640258 c -0.32909,-0.419656 -0.31975,-0.428996 0.0999,-0.09991 0.44072,0.345652 0.58089,0.562928 0.36312,0.562928 -0.0549,0 -0.26329,-0.20836 -0.46302,-0.463021 z m -8.32575,-7.540625 -0.50404,-0.595313 0.59532,0.504032 c 0.55943,0.473657 0.71575,0.686593 0.50403,0.686593 -0.0502,0 -0.31811,-0.26789 -0.59531,-0.595312 z m -6.20681,-6.217708 -0.91181,-0.992188 0.99219,0.911807 c 0.9235,0.848678 1.11384,1.072568 0.91181,1.072568 -0.0442,0 -0.4907,-0.446484 -0.99219,-0.992187 z m -8.75078,-8.73125 c -0.32909,-0.419656 -0.31975,-0.428996 0.0999,-0.09991 0.25466,0.199734 0.46302,0.408093 0.46302,0.463021 0,0.217778 -0.21728,0.0776 -0.56293,-0.363114 z M 89.788244,-47.473804 c 0.263393,-0.291042 0.538427,-0.529167 0.611187,-0.529167 0.07276,0 -0.08321,0.238125 -0.346604,0.529167 -0.263393,0.291041 -0.538427,0.529166 -0.611187,0.529166 -0.07276,0 0.08321,-0.238125 0.346604,-0.529166 z m 2.645833,-2.645834 c 0.716651,-0.727604 1.362552,-1.322916 1.435312,-1.322916 0.07276,0 -0.454078,0.595312 -1.170728,1.322916 -0.716651,0.727605 -1.362552,1.322917 -1.435312,1.322917 -0.07276,0 0.454078,-0.595312 1.170728,-1.322917 z m 5.159375,-5.12699 c 0,-0.05493 0.20836,-0.263287 0.463021,-0.46302 0.419656,-0.329089 0.428996,-0.319749 0.09991,0.09991 -0.345652,0.440717 -0.562928,0.580893 -0.562928,0.363114 z m 106.469658,-9.226655 -0.50403,-0.595313 0.59531,0.504029 c 0.55944,0.473662 0.71575,0.686596 0.50404,0.686596 -0.0502,0 -0.31811,-0.267891 -0.59532,-0.595312 z m -4.88968,-5.423959 -0.64143,-0.727604 0.7276,0.641432 c 0.40018,0.35279 0.72761,0.680212 0.72761,0.727604 0,0.207508 -0.21426,0.03862 -0.81378,-0.641432 z m -5.83457,-5.291666 c -0.32909,-0.419645 -0.31975,-0.429004 0.0999,-0.0999 0.25466,0.19972 0.46302,0.40808 0.46302,0.46302 0,0.217763 -0.21728,0.07761 -0.56293,-0.363124 z m -14.81667,-16.404167 c -0.32908,-0.419645 -0.31974,-0.429003 0.0999,-0.0999 0.25466,0.199721 0.46302,0.40808 0.46302,0.463021 0,0.217762 -0.21727,0.07761 -0.56293,-0.363125 z m -12.59646,-4.753922 c 0.40219,-0.06082 0.9975,-0.05919 1.32291,0.0036 0.32544,0.0628 -0.004,0.112559 -0.73123,0.110575 -0.7276,-0.0021 -0.99385,-0.05337 -0.59168,-0.114186 z"
         id="path60" />
      <path
         style="fill:#2f2f2d;stroke-width:0.264583"
         d="m -189.8102,401.59729 c 0.47294,-0.0587 1.24685,-0.0587 1.71979,0 0.47294,0.0587 0.086,0.10671 -0.8599,0.10671 -0.94588,0 -1.33284,-0.048 -0.85989,-0.10671 z m 8.20208,0.005 c 0.32742,-0.0631 0.8632,-0.0631 1.19063,0 0.32742,0.0631 0.0595,0.11464 -0.59532,0.11464 -0.65484,0 -0.92273,-0.0516 -0.59531,-0.11464 z m -12.7,-0.26927 c 0.47294,-0.0587 1.24685,-0.0587 1.71979,0 0.47294,0.0587 0.086,0.10671 -0.85989,0.10671 -0.94589,0 -1.33284,-0.048 -0.8599,-0.10671 z m 15.61042,0.0161 c 0.1819,-0.0734 0.47955,-0.0734 0.66146,0 0.1819,0.0734 0.0331,0.13346 -0.33073,0.13346 -0.36381,0 -0.51263,-0.0601 -0.33073,-0.13346 z m -17.97513,-0.27009 c 0.19099,-0.0764 0.41919,-0.067 0.50711,0.0209 0.0879,0.0879 -0.0684,0.15046 -0.34726,0.13898 -0.30823,-0.0127 -0.37092,-0.0754 -0.15985,-0.15986 z m 19.84375,0 c 0.19099,-0.0764 0.4192,-0.067 0.50712,0.0209 0.0879,0.0879 -0.0684,0.15046 -0.34727,0.13898 -0.30823,-0.0127 -0.37092,-0.0754 -0.15985,-0.15986 z m 1.32291,-0.26458 c 0.191,-0.0764 0.4192,-0.067 0.50712,0.0209 0.0879,0.0879 -0.0683,0.15047 -0.34726,0.13899 -0.30823,-0.0127 -0.37092,-0.0754 -0.15986,-0.15986 z m 2.96003,-0.61307 c 0.3638,-0.11652 0.89958,-0.21182 1.19062,-0.21182 0.41902,0 0.39148,0.0441 -0.13229,0.21182 -0.3638,0.11653 -0.89958,0.21183 -1.19062,0.21183 -0.41901,0 -0.39147,-0.0441 0.13229,-0.21183 z m 3.30729,-0.79375 c 0.29104,-0.12506 0.70776,-0.22738 0.92604,-0.22738 0.25016,0 0.20126,0.0841 -0.13229,0.22738 -0.29104,0.12507 -0.70776,0.22739 -0.92604,0.22739 -0.25016,0 -0.20125,-0.0841 0.13229,-0.22739 z m -37.75273,-0.97448 c 0.19099,-0.0764 0.41919,-0.067 0.50711,0.0209 0.0879,0.0879 -0.0684,0.15047 -0.34726,0.13898 -0.30823,-0.0127 -0.37092,-0.0754 -0.15985,-0.15986 z m -2.39779,-0.25908 c 0.1819,-0.0734 0.47956,-0.0734 0.66146,0 0.1819,0.0734 0.0331,0.13345 -0.33073,0.13345 -0.3638,0 -0.51263,-0.0601 -0.33073,-0.13345 z m -2.89388,-0.53467 c 0.19099,-0.0764 0.4192,-0.067 0.50712,0.0209 0.0879,0.0879 -0.0684,0.15047 -0.34727,0.13898 -0.30822,-0.0127 -0.37092,-0.0754 -0.15985,-0.15986 z m -2.11667,-0.52917 c 0.191,-0.0764 0.4192,-0.067 0.50712,0.0209 0.0879,0.0879 -0.0684,0.15047 -0.34726,0.13899 -0.30823,-0.0127 -0.37092,-0.0754 -0.15986,-0.15986 z m 8.7178,-0.006 c 0.32912,-0.0633 0.80537,-0.0609 1.05833,0.005 0.25297,0.0662 -0.0163,0.11801 -0.59839,0.11507 -0.58209,-0.003 -0.78906,-0.0571 -0.45994,-0.12041 z m 3.9822,-0.25818 c 0.191,-0.0764 0.4192,-0.067 0.50712,0.0209 0.0879,0.0879 -0.0683,0.15047 -0.34726,0.13899 -0.30823,-0.0127 -0.37092,-0.0754 -0.15986,-0.15986 z m 40.0017,-0.20259 c 0,-0.0728 0.35718,-0.31703 0.79375,-0.54277 0.43656,-0.22574 0.79375,-0.35094 0.79375,-0.27818 0,0.0728 -0.35719,0.31702 -0.79375,0.54277 -0.43657,0.22574 -0.79375,0.35094 -0.79375,0.27818 z m 2.64583,-1.32292 c 0,-0.0728 0.35719,-0.31702 0.79375,-0.54276 0.43656,-0.22575 0.79375,-0.35095 0.79375,-0.27819 0,0.0728 -0.35719,0.31703 -0.79375,0.54277 -0.43656,0.22574 -0.79375,0.35094 -0.79375,0.27818 z m 3.46163,-1.82983 c 0.0606,-0.053 0.4079,-0.23823 0.7717,-0.41148 0.6237,-0.29705 0.63214,-0.29152 0.14787,0.0964 -0.42148,0.33769 -1.28266,0.6327 -0.91957,0.31504 z m 2.09462,-1.08527 c 0,-0.0728 0.59531,-0.43397 1.32292,-0.80266 0.7276,-0.3687 1.32291,-0.61085 1.32291,-0.53809 0,0.0728 -0.59531,0.43397 -1.32291,0.80267 -0.72761,0.3687 -1.32292,0.61084 -1.32292,0.53808 z m 6.54403,-3.61362 c 0.17947,-0.18082 0.39297,-0.26213 0.47443,-0.18066 0.0815,0.0815 -0.0654,0.22942 -0.32632,0.32877 -0.37708,0.14359 -0.40747,0.11319 -0.14811,-0.14811 z m 4.30389,-2.1975 c 0,-0.0728 0.23812,-0.25974 0.52916,-0.4155 0.29105,-0.15576 0.52917,-0.22368 0.52917,-0.15092 0,0.0728 -0.23812,0.25974 -0.52917,0.4155 -0.29104,0.15576 -0.52916,0.22368 -0.52916,0.15092 z m -35.98334,-1.34154 c 0.34178,-0.36381 0.68094,-0.66146 0.7537,-0.66146 0.0728,0 -0.14734,0.29765 -0.48911,0.66146 -0.34178,0.3638 -0.68094,0.66145 -0.7537,0.66145 -0.0728,0 0.14734,-0.29765 0.48911,-0.66145 z m 37.30625,0.54276 c 0,-0.0728 0.35719,-0.31702 0.79375,-0.54276 0.43657,-0.22575 0.79375,-0.35095 0.79375,-0.27819 0,0.0728 -0.35718,0.31703 -0.79375,0.54277 -0.43656,0.22574 -0.79375,0.35094 -0.79375,0.27818 z m -33.87772,-4.18079 c 1.09642,-1.16818 1.33397,-1.37824 1.33397,-1.17956 0,0.0425 -0.56554,0.60801 -1.25677,1.25677 l -1.25677,1.17957 z m 4.37668,-4.69635 c 0.56839,-0.58208 1.09297,-1.05833 1.16573,-1.05833 0.0728,0 -0.33276,0.47625 -0.90115,1.05833 -0.56838,0.58208 -1.09296,1.05833 -1.16572,1.05833 -0.0728,0 0.33275,-0.47625 0.90114,-1.05833 z m 50.66771,-2.77561 c 0,-0.18106 1.62002,-0.98422 1.74106,-0.8632 0.0574,0.0574 -0.31084,0.30239 -0.81834,0.5444 -0.50749,0.24202 -0.92272,0.38547 -0.92272,0.3188 z m 4.49792,-2.35545 c 0,-0.0572 0.18478,-0.17489 0.41062,-0.26157 0.23545,-0.0904 0.34166,-0.046 0.24896,0.10401 -0.15538,0.2514 -0.65958,0.37184 -0.65958,0.15756 z m 2.31069,-1.25177 c 0.17948,-0.18082 0.39297,-0.26213 0.47443,-0.18066 0.0815,0.0815 -0.0654,0.22942 -0.32631,0.32877 -0.37709,0.14359 -0.40748,0.11319 -0.14812,-0.14811 z m 8.80181,-5.09416 c 0,-0.0549 0.20836,-0.26329 0.46302,-0.46302 0.41964,-0.32909 0.429,-0.31975 0.0999,0.0999 -0.34565,0.44071 -0.56292,0.58089 -0.56292,0.36311 z m 4.49792,-2.91042 c 0,-0.0549 0.208355,-0.26328 0.463016,-0.46302 0.419645,-0.32909 0.429004,-0.31975 0.0999,0.0999 -0.345643,0.44072 -0.562916,0.58089 -0.562916,0.36311 z m 4.497912,-2.91041 c 0,-0.0549 0.20836,-0.26329 0.463021,-0.46302 0.419645,-0.32909 0.429003,-0.31975 0.0999,0.0999 -0.345644,0.44072 -0.562917,0.5809 -0.562917,0.36312 z m 6.879167,-4.25212 c 0,-0.0728 0.357188,-0.31702 0.79375,-0.54277 0.436563,-0.22574 0.79375,-0.35094 0.79375,-0.27818 0,0.0728 -0.357187,0.31702 -0.79375,0.54277 -0.436562,0.22574 -0.79375,0.35094 -0.79375,0.27818 z m 3.175,-1.83737 c 0,-0.0572 0.184777,-0.17489 0.410618,-0.26157 0.235458,-0.0904 0.341662,-0.046 0.248967,0.10401 -0.155379,0.2514 -0.659585,0.37184 -0.659585,0.15756 z m 1.968799,-1.07204 c 0.282475,-0.22633 0.62974,-0.41148 0.771703,-0.41148 0.336163,0 0.186063,0.12221 -0.623835,0.50792 -0.623694,0.29705 -0.632137,0.29152 -0.147868,-0.0964 z m 9.408285,-5.02306 c 0,-0.0728 0.238125,-0.25975 0.529167,-0.41551 0.291041,-0.15576 0.529166,-0.22367 0.529166,-0.15091 0,0.0728 -0.238125,0.25974 -0.529166,0.4155 -0.291042,0.15576 -0.529167,0.22368 -0.529167,0.15092 z m 6.085417,-3.175 c 0,-0.0728 0.238125,-0.25975 0.529167,-0.41551 0.291041,-0.15576 0.529166,-0.22367 0.529166,-0.15091 0,0.0728 -0.238125,0.25974 -0.529166,0.4155 -0.291042,0.15576 -0.529167,0.22368 -0.529167,0.15092 z m 3.704167,-1.85209 c 0,-0.0728 0.238125,-0.25974 0.529166,-0.4155 0.291042,-0.15576 0.529167,-0.22368 0.529167,-0.15092 0,0.0728 -0.238125,0.25974 -0.529167,0.4155 -0.291041,0.15576 -0.529166,0.22368 -0.529166,0.15092 z m 2.575277,-1.50667 c 0.179477,-0.18081 0.392969,-0.26212 0.474432,-0.18065 0.08146,0.0815 -0.06538,0.22942 -0.326319,0.32877 -0.377084,0.14359 -0.407474,0.11319 -0.148113,-0.14812 z m 10.918473,-5.63708 c 0,-0.0728 0.238125,-0.25974 0.529167,-0.4155 0.291042,-0.15576 0.529167,-0.22368 0.529167,-0.15092 0,0.0728 -0.238125,0.25974 -0.529167,0.4155 -0.291042,0.15576 -0.529167,0.22368 -0.529167,0.15092 z m 3.439584,-1.8424 c 0,-0.0572 0.184777,-0.17489 0.410617,-0.26156 0.235458,-0.0904 0.341662,-0.046 0.248968,0.104 -0.155379,0.25141 -0.659585,0.37185 -0.659585,0.15756 z m 8.995833,-5.30135 c 0,-0.0728 0.238125,-0.25974 0.529167,-0.4155 0.291042,-0.15576 0.529167,-0.22368 0.529167,-0.15092 0,0.0728 -0.238125,0.25974 -0.529167,0.4155 -0.291042,0.15576 -0.529167,0.22368 -0.529167,0.15092 z m 1.852084,-1.04457 c 0,-0.0549 0.208359,-0.26329 0.463021,-0.46302 0.419645,-0.32909 0.429003,-0.31975 0.0999,0.0999 -0.345644,0.44072 -0.562917,0.5809 -0.562917,0.36312 z m 2.645833,-1.85209 c 0,-0.0549 0.20836,-0.26328 0.463021,-0.46302 0.419645,-0.32909 0.429003,-0.31975 0.0999,0.0999 -0.345644,0.44072 -0.562917,0.58089 -0.562917,0.36311 z m 2.910417,-2.11666 c 0,-0.0549 0.208359,-0.26329 0.463021,-0.46302 0.419645,-0.32909 0.429003,-0.31975 0.0999,0.0999 -0.345644,0.44072 -0.562917,0.5809 -0.562917,0.36312 z m 1.058333,-0.79375 c 0,-0.0549 0.20836,-0.26329 0.463021,-0.46302 0.419645,-0.32909 0.429003,-0.31975 0.0999,0.0999 -0.345644,0.44072 -0.562917,0.5809 -0.562917,0.36312 z m 3.439584,-2.64584 c 0,-0.0549 0.208359,-0.26328 0.463021,-0.46302 0.419645,-0.32909 0.429003,-0.31975 0.0999,0.0999 -0.345644,0.44072 -0.562917,0.58089 -0.562917,0.36311 z m 2.116666,-1.5875 c 0,-0.0549 0.20836,-0.26328 0.463021,-0.46302 0.419645,-0.32909 0.429004,-0.31975 0.0999,0.0999 -0.345643,0.44072 -0.562917,0.58089 -0.562917,0.36311 z m 2.645834,-2.11666 c 0,-0.0549 0.208359,-0.26329 0.463021,-0.46302 0.419645,-0.32909 0.429003,-0.31975 0.0999,0.0999 -0.345644,0.44072 -0.562917,0.5809 -0.562917,0.36312 z m 1.058333,-0.79375 c 0,-0.0549 0.20836,-0.26329 0.463021,-0.46302 0.419645,-0.32909 0.429003,-0.31975 0.0999,0.0999 -0.345644,0.44072 -0.562917,0.5809 -0.562917,0.36312 z m 1.058334,-0.79375 c 0,-0.0549 0.208359,-0.26329 0.46302,-0.46302 0.419646,-0.32909 0.429004,-0.31975 0.0999,0.0999 -0.345644,0.44072 -0.562917,0.5809 -0.562917,0.36312 z m 1.058333,-0.79375 c 0,-0.0549 0.208359,-0.26329 0.463021,-0.46302 0.419645,-0.32909 0.429003,-0.31975 0.0999,0.0999 -0.345644,0.44072 -0.562917,0.5809 -0.562917,0.36312 z m 3.175,-2.38125 c 0,-0.0549 0.20836,-0.26329 0.463021,-0.46302 0.419645,-0.32909 0.429003,-0.31975 0.0999,0.0999 -0.345644,0.44072 -0.562917,0.5809 -0.562917,0.36312 z m 3.704167,-2.64584 c 0,-0.0549 0.208359,-0.26328 0.463021,-0.46302 0.419645,-0.32909 0.429003,-0.31975 0.0999,0.0999 -0.345644,0.44072 -0.562917,0.58089 -0.562917,0.36311 z M 4.9892825,298.21792 c 0,-0.0728 0.3571875,-0.31702 0.79375,-0.54277 0.4365626,-0.22574 0.7937501,-0.35094 0.7937501,-0.27818 0,0.0728 -0.3571875,0.31702 -0.7937501,0.54277 -0.4365625,0.22574 -0.79375,0.35094 -0.79375,0.27818 z m 8.7910995,-5.06151 c 0.251195,-0.26225 0.513662,-0.41989 0.583274,-0.35028 0.06961,0.0696 -0.135917,0.28419 -0.456724,0.47683 -0.557292,0.33468 -0.562928,0.32904 -0.12655,-0.12655 z m -32.6036,-0.47596 c 0,-0.0549 0.208359,-0.26328 0.463021,-0.46302 0.419645,-0.32909 0.429003,-0.31975 0.0999,0.0999 -0.345644,0.44072 -0.562917,0.58089 -0.562917,0.36311 z m 62.375523,-1.66282 c 0.181901,-0.0734 0.479557,-0.0734 0.661458,0 0.181901,0.0734 0.03307,0.13345 -0.330729,0.13345 -0.363802,0 -0.51263,-0.0601 -0.330729,-0.13345 z m 8.603985,-0.008 c 0.25744,-0.0671 0.614628,-0.0627 0.79375,0.01 0.17915,0.0725 -0.03149,0.12734 -0.468047,0.12197 -0.436563,-0.005 -0.583116,-0.0647 -0.325703,-0.13179 z m -16.806069,-0.52105 c 0.181901,-0.0734 0.479557,-0.0734 0.661458,0 0.181902,0.0734 0.03307,0.13346 -0.330729,0.13346 -0.363802,0 -0.51263,-0.0601 -0.330729,-0.13346 z M 23.7747,285.79721 c 0,-0.0572 0.184785,-0.17489 0.410607,-0.26156 0.235479,-0.0904 0.341683,-0.046 0.248973,0.104 -0.155364,0.25141 -0.65958,0.37185 -0.65958,0.15756 z m -20.616612,-7.1941 c 0.0127,-0.30824 0.07539,-0.37092 0.1598506,-0.15986 0.07643,0.191 0.067032,0.41921 -0.020876,0.50713 -0.087918,0.0879 -0.1504527,-0.0684 -0.1389644,-0.34727 z m 144.309322,-3.81442 c 0.2634,-0.29104 0.53843,-0.52916 0.61119,-0.52916 0.0728,0 -0.0832,0.23812 -0.3466,0.52916 -0.2634,0.29105 -0.53843,0.52917 -0.61119,0.52917 -0.0728,0 0.0832,-0.23812 0.3466,-0.52917 z m 21.94378,-31.55156 -0.77711,-0.85989 0.8599,0.7771 c 0.80155,0.72438 0.98152,0.94269 0.7771,0.94269 -0.0455,0 -0.43248,-0.38696 -0.85989,-0.8599 z m 21.05102,-23.03539 c 0,-0.0455 0.38695,-0.43249 0.85989,-0.8599 l 0.8599,-0.7771 -0.77711,0.85989 c -0.72438,0.80156 -0.94268,0.98153 -0.94268,0.77711 z m -7.68716,-3.55523 -0.9118,-0.99219 0.99218,0.91181 c 0.92351,0.84867 1.11385,1.07256 0.91181,1.07256 -0.0442,0 -0.49069,-0.44648 -0.99219,-0.99218 z M 75.713945,215.39093 c 0.737684,-0.6585 1.422479,-0.90414 1.109715,-0.39807 -0.08993,0.14552 -0.335095,0.26458 -0.544777,0.26458 -0.209709,0 -0.381265,0.10634 -0.381265,0.23628 0,0.12996 -0.208359,0.30908 -0.46302,0.39806 -0.276093,0.0965 -0.163328,-0.10572 0.279347,-0.50085 z m 132.144615,-0.0441 c 0.1819,-0.0734 0.47956,-0.0734 0.66146,0 0.1819,0.0734 0.0331,0.13346 -0.33073,0.13346 -0.3638,0 -0.51263,-0.0601 -0.33073,-0.13346 z m -2.89388,-0.27008 c 0.191,-0.0764 0.41921,-0.067 0.50713,0.0209 0.0879,0.0879 -0.0684,0.15047 -0.34727,0.13899 -0.30824,-0.0127 -0.37092,-0.0754 -0.15986,-0.15987 z m -6.61458,-1.32292 c 0.191,-0.0764 0.4192,-0.067 0.50712,0.0209 0.0879,0.0879 -0.0684,0.15047 -0.34726,0.13899 -0.30824,-0.0127 -0.37092,-0.0754 -0.15986,-0.15986 z m 21.23715,-2.35484 c 0.0127,-0.30824 0.0754,-0.37092 0.15986,-0.15986 0.0764,0.191 0.067,0.4192 -0.0209,0.50712 -0.0879,0.0879 -0.15047,-0.0684 -0.13899,-0.34726 z m 0.28548,-1.96234 c 0,-0.3638 0.0601,-0.51263 0.13346,-0.33073 0.0734,0.1819 0.0734,0.47956 0,0.66146 -0.0734,0.1819 -0.13346,0.0331 -0.13346,-0.33073 z m 25.09364,-3.53949 c 0,-0.0549 0.20836,-0.26329 0.46303,-0.46302 0.41965,-0.32909 0.42899,-0.31975 0.0999,0.0999 -0.34565,0.44071 -0.56293,0.58089 -0.56293,0.36311 z m 11.90625,-7.9375 c 0,-0.0549 0.20836,-0.26329 0.46303,-0.46302 0.41965,-0.32909 0.42899,-0.31975 0.0999,0.0999 -0.34565,0.44071 -0.56293,0.58089 -0.56293,0.36311 z m 3.43959,-2.9428 c 0.34176,-0.3638 0.68093,-0.66146 0.75369,-0.66146 0.0728,0 -0.14735,0.29766 -0.48911,0.66146 -0.34176,0.3638 -0.68093,0.66146 -0.75369,0.66146 -0.0728,0 0.14735,-0.29766 0.48911,-0.66146 z m -4.38351,-6.48229 c 0,-3.56526 0.0375,-5.02378 0.0832,-3.24115 0.0458,1.78263 0.0458,4.69966 0,6.48229 -0.0458,1.78263 -0.0832,0.32412 -0.0832,-3.24114 z m 7.29393,3.83646 c 0.79041,-0.80037 1.49666,-1.45521 1.56942,-1.45521 0.0728,0 -0.51443,0.65484 -1.30484,1.45521 -0.79042,0.80036 -1.49667,1.4552 -1.56943,1.4552 -0.0728,0 0.51443,-0.65484 1.30485,-1.4552 z m 4.10104,-3.83646 c 0.26339,-0.29104 0.53842,-0.52917 0.61118,-0.52917 0.0728,0 -0.0832,0.23813 -0.3466,0.52917 -0.26339,0.29104 -0.53843,0.52916 -0.61119,0.52916 -0.0728,0 0.0832,-0.23812 0.34661,-0.52916 z m 3.04271,-2.74574 c 0,-0.0549 0.20835,-0.26329 0.46302,-0.46302 0.41965,-0.32909 0.42899,-0.31975 0.0999,0.0999 -0.34565,0.44072 -0.56292,0.5809 -0.56292,0.36312 z M 28.074761,184.69807 c 0.0029,-0.58208 0.05712,-0.78907 0.120412,-0.45993 0.06329,0.32912 0.06088,0.80537 -0.0053,1.05834 -0.06622,0.25294 -0.118004,-0.0164 -0.115067,-0.59841 z m 244.805159,-1.19063 c 0.26339,-0.29104 0.53842,-0.52916 0.61118,-0.52916 0.0728,0 -0.0832,0.23812 -0.3466,0.52916 -0.26339,0.29105 -0.53843,0.52917 -0.61119,0.52917 -0.0728,0 0.0832,-0.23812 0.34661,-0.52917 z M 33.055992,179.64895 c 0.0127,-0.30824 0.07541,-0.37092 0.159862,-0.15986 0.07644,0.191 0.06705,0.4192 -0.0209,0.50712 -0.08792,0.0879 -0.150469,-0.0684 -0.138986,-0.34726 z m -15.511463,-1.7639 -1.045871,-1.12448 1.124479,1.04587 c 1.045766,0.97266 1.246055,1.20309 1.045872,1.20309 -0.04321,0 -0.549222,-0.50602 -1.12448,-1.12448 z m 261.288511,1.02457 c 0,-0.0549 0.20836,-0.26329 0.46302,-0.46302 0.41966,-0.32909 0.429,-0.31975 0.0999,0.0999 -0.34565,0.44071 -0.56293,0.58089 -0.56293,0.36311 z m 1.32292,-1.57038 c 0,-0.0455 0.38695,-0.43249 0.85989,-0.8599 l 0.8599,-0.7771 -0.77711,0.85989 c -0.72437,0.80156 -0.94268,0.98153 -0.94268,0.77711 z m 2.91042,-2.91042 c 0,-0.0455 0.38695,-0.43248 0.85989,-0.85989 l 0.8599,-0.77711 -0.77711,0.8599 c -0.72438,0.80155 -0.94268,0.98152 -0.94268,0.7771 z m -270.288531,-1.57085 -0.777108,-0.8599 0.859896,0.77711 c 0.801555,0.72437 0.981525,0.94268 0.777108,0.94268 -0.04554,0 -0.432488,-0.38695 -0.859896,-0.85989 z m -2.9744858,-8.53282 c 0.0054,-0.43656 0.064691,-0.58311 0.1317731,-0.3257 0.067083,0.25744 0.062672,0.61463 -0.00982,0.79375 -0.072477,0.17915 -0.1273625,-0.0315 -0.1219703,-0.46805 z m 0.00982,-3.04271 c 0,-0.50932 0.054451,-0.71768 0.1210019,-0.46302 0.066548,0.25467 0.066548,0.67138 0,0.92605 -0.066551,0.25466 -0.1210019,0.0463 -0.1210019,-0.46303 z m 0.2449748,-3.175 c 0,-0.3638 0.06006,-0.51263 0.133454,-0.33072 0.0734,0.1819 0.0734,0.47955 0,0.66145 -0.0734,0.18191 -0.133454,0.0331 -0.133454,-0.33073 z M 312.17054,156.9492 c 0,-0.0549 0.20836,-0.26328 0.46302,-0.46302 0.41966,-0.32908 0.429,-0.31974 0.0999,0.0999 -0.34565,0.44072 -0.56293,0.58089 -0.56293,0.36311 z M 10.347672,155.32932 c 0.0029,-0.58208 0.05712,-0.78907 0.120407,-0.45993 0.06329,0.32912 0.06088,0.80537 -0.0053,1.05834 -0.06622,0.25294 -0.118004,-0.0164 -0.115067,-0.59841 z m 283.343818,-0.39688 c 0,-0.3638 0.0601,-0.51263 0.13345,-0.33072 0.0734,0.1819 0.0734,0.47955 0,0.66145 -0.0734,0.18191 -0.13345,0.0331 -0.13345,-0.33073 z m 0.24368,-1.47724 c 0.0127,-0.30824 0.0754,-0.37092 0.15986,-0.15986 0.0764,0.191 0.067,0.4192 -0.0209,0.50712 -0.0879,0.0879 -0.15047,-0.0684 -0.13899,-0.34726 z m 23.13017,-0.63942 c 0.26339,-0.29104 0.53842,-0.52917 0.61118,-0.52917 0.0728,0 -0.0832,0.23813 -0.3466,0.52917 -0.26339,0.29104 -0.53843,0.52916 -0.61119,0.52916 -0.0728,0 0.0832,-0.23812 0.34661,-0.52916 z m -22.84469,-1.05834 c 0,-0.3638 0.0601,-0.51263 0.13346,-0.33072 0.0734,0.1819 0.0734,0.47955 0,0.66145 -0.0734,0.18191 -0.13346,0.0331 -0.13346,-0.33073 z m 2.14162,-0.39687 c 0.003,-0.58208 0.0571,-0.78907 0.12041,-0.45993 0.0633,0.32912 0.0609,0.80537 -0.005,1.05834 -0.0662,0.25294 -0.118,-0.0164 -0.11507,-0.59841 z m 23.48119,-1.05833 c 0.34176,-0.36381 0.68093,-0.66146 0.75369,-0.66146 0.0728,0 -0.14734,0.29765 -0.48911,0.66146 -0.34176,0.3638 -0.68093,0.66145 -0.75369,0.66145 -0.0728,0 0.14735,-0.29765 0.48911,-0.66145 z M 10.301838,147.1052 c 0.0127,-0.30824 0.07539,-0.37092 0.159851,-0.15986 0.07643,0.191 0.06703,0.4192 -0.02088,0.50712 -0.08792,0.0879 -0.150452,-0.0684 -0.138964,-0.34726 z m -2.6458332,-0.52917 c 0.0127,-0.30824 0.07539,-0.37092 0.1598507,-0.15986 0.07643,0.191 0.067032,0.4192 -0.020876,0.50713 -0.087918,0.0879 -0.1504526,-0.0684 -0.1389644,-0.34727 z m 0.9878351,-2.93682 c 0.1909948,-0.0764 0.4192006,-0.067 0.507119,0.0209 0.087918,0.0879 -0.068352,0.15047 -0.3472656,0.13899 -0.3082264,-0.0127 -0.3709194,-0.0754 -0.1598534,-0.15987 z M -13.510663,132.28853 c 0.0127,-0.30824 0.07539,-0.37092 0.159851,-0.15986 0.07643,0.191 0.06703,0.4192 -0.02088,0.50713 -0.08792,0.0879 -0.150452,-0.0684 -0.138964,-0.34727 z m -7.14375,-29.10417 c 0.0127,-0.30824 0.07539,-0.37092 0.159851,-0.15986 0.07643,0.19101 0.06703,0.41921 -0.02088,0.50713 -0.08792,0.0879 -0.150453,-0.0684 -0.138964,-0.34727 z m -0.243697,-1.69775 c 0,-0.3638 0.06005,-0.51263 0.133453,-0.33073 0.0734,0.1819 0.0734,0.47956 0,0.66146 -0.0734,0.1819 -0.133453,0.0331 -0.133453,-0.33073 z m -0.199258,-7.27604 c 2.65e-4,-2.328333 0.04081,-3.245405 0.08995,-2.037953 0.04914,1.207453 0.04886,3.112453 -5.29e-4,4.233333 -0.04947,1.120881 -0.08967,0.132953 -0.08934,-2.19538 z m 371.938858,2.778125 c 0,-0.363802 0.0601,-0.51263 0.13346,-0.330729 0.0734,0.181901 0.0734,0.479557 0,0.661458 -0.0734,0.181901 -0.13346,0.03307 -0.13346,-0.330729 z m 0.28419,-2.910417 c 0,-0.509322 0.0545,-0.717682 0.12099,-0.46302 0.0666,0.254661 0.0666,0.67138 0,0.926041 -0.0665,0.254662 -0.12099,0.0463 -0.12099,-0.463021 z m -0.24397,-3.042708 c 0.003,-0.873125 0.0509,-1.198404 0.10975,-0.722868 0.0589,0.475562 0.0577,1.189937 -0.003,1.5875 -0.0604,0.397589 -0.10853,0.0085 -0.10705,-0.864632 z M -20.878502,87.199112 c 0,-0.509323 0.05445,-0.717682 0.121002,-0.463021 0.06655,0.254661 0.06655,0.67138 0,0.926042 -0.06655,0.254661 -0.121002,0.0463 -0.121002,-0.463021 z m 0.254781,-3.571875 c 0.0054,-0.436563 0.06469,-0.583115 0.131773,-0.325702 0.06708,0.257439 0.06267,0.614627 -0.0098,0.79375 -0.07248,0.179149 -0.127363,-0.03149 -0.12197,-0.468048 z m 367.826421,-0.198438 -0.50403,-0.595312 0.59531,0.504031 c 0.55944,0.473657 0.71575,0.686594 0.50403,0.686594 -0.0502,0 -0.31811,-0.267891 -0.59531,-0.595313 z m -3.31592,-3.307291 c -0.32909,-0.419656 -0.31975,-0.428996 0.0999,-0.09991 0.44072,0.345652 0.58089,0.562928 0.36311,0.562928 -0.0549,0 -0.26328,-0.20836 -0.46302,-0.463021 z M -44.20233,57.146864 c 0.0127,-0.30824 0.07539,-0.37092 0.15985,-0.159861 0.07643,0.191002 0.06703,0.419205 -0.02088,0.507126 -0.08792,0.08792 -0.150453,-0.06837 -0.138965,-0.347265 z m 0.264583,-1.852083 c 0.0127,-0.30824 0.07539,-0.37092 0.159851,-0.159862 0.07643,0.191003 0.06703,0.419206 -0.02088,0.507127 -0.08792,0.08792 -0.150453,-0.06837 -0.138964,-0.347265 z m 0.28547,-2.226919 c 0,-0.363802 0.06005,-0.51263 0.133453,-0.330729 0.0734,0.181901 0.0734,0.479557 0,0.661458 -0.0734,0.181901 -0.133453,0.03307 -0.133453,-0.330729 z m 349.315397,-0.06615 -0.50404,-0.595312 0.59532,0.504031 c 0.55943,0.473657 0.71575,0.686594 0.50403,0.686594 -0.0502,0 -0.31811,-0.267891 -0.59531,-0.595313 z m -3.84509,-3.307292 c -0.32909,-0.419655 -0.31975,-0.428995 0.0999,-0.09991 0.44072,0.345651 0.58089,0.562927 0.36311,0.562927 -0.0549,0 -0.26328,-0.208359 -0.46302,-0.463021 z m -4.49791,-3.704166 c -0.32909,-0.419656 -0.31975,-0.428996 0.0999,-0.09991 0.44072,0.345652 0.58089,0.562928 0.36312,0.562928 -0.0549,0 -0.26329,-0.20836 -0.46302,-0.463021 z M -38.799261,44.336612 c 0.864016,-0.873125 1.630466,-1.5875 1.703226,-1.5875 0.07276,0 -0.574627,0.714375 -1.438642,1.5875 -0.864016,0.873125 -1.630466,1.5875 -1.703227,1.5875 -0.07276,0 0.574628,-0.714375 1.438643,-1.5875 z m 332.568801,-1.389062 -1.04587,-1.12448 1.12448,1.045872 c 1.04576,0.972661 1.24605,1.203087 1.04587,1.203087 -0.0432,0 -0.54922,-0.506016 -1.12448,-1.124479 z M -36.021136,41.558487 c 0.341776,-0.363802 0.68094,-0.661458 0.7537,-0.661458 0.07276,0 -0.147341,0.297656 -0.489116,0.661458 -0.341776,0.363802 -0.68094,0.661458 -0.7537,0.661458 -0.07276,0 0.147341,-0.297656 0.489116,-0.661458 z M 291.11103,40.5663 290.607,39.970987 l 0.59531,0.504031 c 0.55944,0.473657 0.71575,0.686594 0.50403,0.686594 -0.0502,0 -0.3181,-0.267891 -0.59531,-0.595312 z m -2.38125,-2.116667 -0.50403,-0.595313 0.59531,0.504032 c 0.55944,0.473657 0.71575,0.686593 0.50403,0.686593 -0.0502,0 -0.3181,-0.26789 -0.59531,-0.595312 z m -321.046749,-0.03376 c 0,-0.05493 0.20836,-0.263287 0.463021,-0.463021 0.419645,-0.329089 0.429003,-0.319749 0.0999,0.09991 -0.345644,0.440716 -0.562917,0.580893 -0.562917,0.363114 z m 3.175,-2.645833 c 0,-0.05493 0.20836,-0.263287 0.463021,-0.463021 0.419645,-0.329089 0.429004,-0.319749 0.0999,0.09991 -0.345644,0.440716 -0.562917,0.580892 -0.562917,0.363114 z m 312.188319,-2.479781 -0.64143,-0.727604 0.7276,0.641429 c 0.40018,0.352796 0.72761,0.680217 0.72761,0.727604 0,0.207513 -0.21426,0.03863 -0.81378,-0.641429 z m -4.08652,-4.101042 -2.37575,-2.447396 2.4474,2.375747 c 1.34607,1.306645 2.4474,2.407973 2.4474,2.447396 0,0.192087 -0.31253,-0.102658 -2.51905,-2.375747 z m -6.36963,-6.085416 -0.50403,-0.595313 0.59531,0.504031 c 0.32742,0.277204 0.59531,0.545095 0.59531,0.595313 0,0.211719 -0.21293,0.0554 -0.68659,-0.504031 z m -3.03181,-3.042709 -0.91181,-0.992187 0.99219,0.911807 c 0.9235,0.848677 1.11384,1.072568 0.91181,1.072568 -0.0442,0 -0.4907,-0.446485 -0.99219,-0.992188 z m -3.45911,-3.704166 c -0.32909,-0.419656 -0.31975,-0.428996 0.0999,-0.09991 0.25466,0.199734 0.46302,0.408093 0.46302,0.463021 0,0.217778 -0.21728,0.0776 -0.56293,-0.363114 z M 248.90136,-5.603492 c -0.32909,-0.4196556 -0.31975,-0.4289954 0.0999,-0.099907 0.25466,0.1997339 0.46302,0.4080933 0.46302,0.4630208 0,0.2177785 -0.21727,0.077602 -0.56293,-0.3631142 z M 70.605952,-29.846628 c 0,-0.05493 0.208359,-0.263287 0.46302,-0.463021 0.419656,-0.329088 0.428996,-0.319749 0.09991,0.09991 -0.345652,0.440717 -0.562927,0.580893 -0.562927,0.363114 z m 12.038542,-10.218843 c 1.595755,-1.600729 2.960925,-2.910417 3.033686,-2.910417 0.07276,0 -1.173348,1.309688 -2.769103,2.910417 -1.595755,1.600729 -2.960926,2.910417 -3.033686,2.910417 -0.07276,0 1.173348,-1.309688 2.769103,-2.910417 z m 3.571875,-3.522371 c 0,-0.04554 0.386953,-0.432488 0.859896,-0.859896 l 0.859895,-0.777108 -0.777107,0.859896 c -0.724377,0.801555 -0.942684,0.981525 -0.942684,0.777108 z m 4.233333,-4.515036 c 0,-0.05493 0.20836,-0.263287 0.463021,-0.46302 0.419656,-0.329089 0.428996,-0.319749 0.09991,0.09991 -0.345652,0.440717 -0.562928,0.580893 -0.562928,0.363114 z m 126.966248,-2.215197 c -0.32909,-0.419656 -0.31975,-0.428996 0.0999,-0.09991 0.25466,0.199734 0.46302,0.408094 0.46302,0.463021 0,0.217779 -0.21727,0.0776 -0.56292,-0.363114 z M 95.609077,-53.294638 c 1.010841,-1.018645 1.897433,-1.852083 1.970194,-1.852083 0.07276,0 -0.69477,0.833438 -1.70561,1.852083 -1.010841,1.018646 -1.897433,1.852084 -1.970194,1.852084 -0.07276,0 0.69477,-0.833438 1.70561,-1.852084 z m 119.425623,0.33073 c -0.32909,-0.419656 -0.31975,-0.428996 0.0999,-0.09991 0.25466,0.199734 0.46302,0.408093 0.46302,0.463021 0,0.217778 -0.21727,0.0776 -0.56292,-0.363114 z m -2.22766,-2.513542 -1.04588,-1.124479 1.12448,1.045871 c 1.04577,0.972661 1.24606,1.203087 1.04588,1.203087 -0.0432,0 -0.54923,-0.506016 -1.12448,-1.124479 z M 99.710119,-57.098711 c 0,-0.05493 0.20836,-0.263287 0.463021,-0.463021 0.41966,-0.329089 0.429,-0.319749 0.0999,0.09991 -0.345655,0.440716 -0.562931,0.580893 -0.562931,0.363114 z m 110.702991,-1.024572 -0.50403,-0.595313 0.59531,0.504031 c 0.55944,0.473657 0.71575,0.686594 0.50404,0.686594 -0.0502,0 -0.31811,-0.267891 -0.59532,-0.595312 z m -108.58632,-0.827511 c 0,-0.05493 0.20836,-0.263287 0.46302,-0.463021 0.41965,-0.329097 0.42899,-0.319738 0.0999,0.09991 -0.34565,0.440716 -0.56292,0.580892 -0.56292,0.363114 z m 104.10359,-3.670406 -1.31297,-1.389063 1.38907,1.312971 c 0.76398,0.722133 1.38906,1.347211 1.38906,1.389063 0,0.197429 -0.24511,-0.02223 -1.46516,-1.312971 z m -2.80193,-2.778125 c -0.32909,-0.419645 -0.31975,-0.429003 0.0999,-0.0999 0.25466,0.199721 0.46302,0.40808 0.46302,0.463021 0,0.217762 -0.21727,0.0776 -0.56292,-0.363125 z m -1.81833,-2.050521 c -0.64267,-0.654844 -1.10897,-1.190625 -1.03621,-1.190625 0.0728,0 0.65812,0.535781 1.3008,1.190625 0.64267,0.654844 1.10897,1.190625 1.03621,1.190625 -0.0728,0 -0.65812,-0.535781 -1.3008,-1.190625 z m -4.64267,-4.696354 -1.04587,-1.124479 1.12448,1.045884 c 1.04577,0.972662 1.24606,1.203074 1.04587,1.203074 -0.0432,0 -0.54922,-0.506016 -1.12448,-1.124479 z m -2.39392,-2.116667 -0.50403,-0.595312 0.59531,0.504028 c 0.55944,0.473663 0.71575,0.686597 0.50403,0.686597 -0.0502,0 -0.31811,-0.267891 -0.59531,-0.595313 z m -2.64583,-2.38125 -0.50404,-0.595312 0.59532,0.504028 c 0.55943,0.473663 0.71575,0.686597 0.50403,0.686597 -0.0502,0 -0.31811,-0.267891 -0.59531,-0.595313 z m -4.37426,-3.571875 c -0.32908,-0.419645 -0.31974,-0.429003 0.0999,-0.0999 0.25466,0.199721 0.46302,0.40808 0.46302,0.463021 0,0.217763 -0.21727,0.07761 -0.56293,-0.363125 z m -34.22978,-9.061979 c 0.2634,-0.291042 0.53843,-0.529167 0.61119,-0.529167 0.0728,0 -0.0832,0.238125 -0.3466,0.529167 -0.2634,0.291042 -0.53843,0.529167 -0.61119,0.529167 -0.0728,0 0.0832,-0.238125 0.3466,-0.529167 z m 26.4332,-1.389062 -0.50403,-0.595313 0.59531,0.504029 c 0.55944,0.473662 0.71575,0.686596 0.50403,0.686596 -0.0502,0 -0.3181,-0.26789 -0.59531,-0.595312 z m -21.27382,-3.505729 c 0.34176,-0.363803 0.68093,-0.661459 0.75369,-0.661459 0.0728,0 -0.14735,0.297656 -0.48911,0.661459 -0.34176,0.363802 -0.68093,0.661458 -0.75369,0.661458 -0.0728,0 0.14735,-0.297656 0.48911,-0.661458 z"
         id="path58" />
      <path
         style="fill:#090805;stroke-width:0.264583"
         d="m -192.12531,401.37028 c -4.13349,-0.28067 -5.32688,-0.4631 -7.67291,-1.17305 -4.0874,-1.23691 -5.37717,-1.53226 -8.59896,-1.96906 -3.52211,-0.47752 -14.13171,-3.12722 -15.54046,-3.88117 -1.21764,-0.65167 0.0587,-0.44035 4.8608,0.80478 5.83862,1.51387 11.59041,2.27108 15.17757,1.99808 6.89176,-0.52451 14.95883,-3.25083 19.91232,-6.72952 1.18477,-0.83203 4.07734,-3.65741 8.11263,-7.92414 6.63204,-7.01243 10.03327,-9.93716 13.70261,-11.78295 l 1.77546,-0.8931 2.56709,0.77073 c 1.4119,0.42392 2.59858,0.77073 2.63708,0.77073 0.21692,0 1.74562,-4.49397 2.3153,-6.80641 0.75765,-3.07541 1.84123,-4.96665 3.84029,-6.70271 1.26922,-1.10223 4.66295,-2.87568 6.52056,-3.40738 4.26688,-1.22132 11.56454,-1.66722 15.824,-0.96687 l 2.59482,0.42667 2.82913,-1.55848 c 4.5815,-2.52378 12.97974,-6.9011 19.31508,-10.06734 6.849351,-3.42318 8.466072,-4.3184 21.614054,-11.96827 5.384272,-3.13272 12.170834,-7.04321 15.081251,-8.68998 2.910417,-1.64676 8.149167,-4.74138 11.641667,-6.87697 3.4925,-2.13558 7.421563,-4.51789 8.73125,-5.29399 13.825292,-8.1929 24.387457,-15.01315 26.460517,-17.08621 0.470853,-0.47085 2.630861,-1.80499 4.800019,-2.96474 4.2812703,-2.28901 5.477232,-2.99556 11.8665493,-7.01048 4.9804136,-3.12959 5.1593752,-3.26961 5.1593752,-4.03627 0,-0.61605 2.2712945,-7.46461 2.6288815,-7.92676 0.1135962,-0.14681 0.3981927,-0.84248 0.6324362,-1.54596 0.5768605,-1.73238 3.6502628,-6.66805 6.1176328,-9.8245 1.111673,-1.42211 2.316004,-3.16736 2.67626,-3.87832 1.905873,-3.76108 4.608143,-12.49085 6.610615,-21.35584 0.668576,-2.95979 1.623827,-6.87099 2.122805,-8.69157 0.498951,-1.82057 0.907204,-3.77031 0.907204,-4.33276 0,-1.25061 0.63066,-3.17455 1.483439,-4.52541 0.95377,-1.51087 6.630511,-17.32952 6.327643,-17.63241 -0.07567,-0.0757 -1.298575,0.11803 -2.717562,0.43042 -9.344369,2.05719 -14.477895,2.30923 -22.6883127,1.11395 -5.1574094,-0.75081 -5.2916669,-0.79142 -5.2916669,-1.6007 0,-0.61291 0.1106911,-0.66572 1.7197917,-0.82034 4.1154246,-0.39542 19.1300899,-6.63715 24.1509029,-10.03972 4.08559,-2.76879 5.735849,-6.45425 4.957207,-11.07062 -0.173805,-1.03047 -0.40685,-1.92971 -0.517869,-1.99832 -0.454528,-0.28091 -1.076695,0.68117 -2.389399,3.69475 -1.801019,4.13467 -2.189877,5.51323 -1.996387,7.0776 0.08549,0.69123 0.08276,1.25677 -0.0061,1.25677 -0.2032,0 -2.927667,-2.06398 -5.016103,-3.80005 -2.014061,-1.67425 -7.348988,-6.89271 -9.450573,-9.24427 -1.210866,-1.35488 -1.533155,-1.87466 -1.304369,-2.10344 0.489743,-0.48975 0.354303,-1.29276 -0.244475,-1.44934 -1.452947,-0.37996 -2.5082849,-5.27118 -2.070585,-9.59665 0.451784,-4.46468 0.596842,-12.68986 0.253003,-14.34613 -0.3789841,-1.82554 -1.0170268,-2.72481 -1.7649086,-2.48742 -0.4482492,0.14226 -0.5699602,0.54874 -0.8221134,2.74558 -0.3854609,3.35827 -1.774542,7.518 -3.5817838,10.72594 l -1.4228392,2.52561 -1.6703729,-2.51238 c -2.4369872,-3.66546 -7.2208234,-11.59835 -11.8209511,-19.60234 -0.815901,-1.41963 -1.645799,-2.76646 -1.844212,-2.99294 -0.198414,-0.22649 -0.537729,-1.29805 -0.754036,-2.38125 -0.699114,-3.50097 -3.05048,-13.57601 -3.454514,-14.80175 -0.215853,-0.65484 -0.615969,-2.20265 -0.889149,-3.43958 -0.273179,-1.23693 -0.93191,-3.73724 -1.463847,-5.55625 -1.658569,-5.67166 -1.824352,-7.287 -1.642848,-16.007293 0.08784,-4.220104 0.230005,-8.040661 0.315929,-8.490135 0.109111,-0.570786 0.02368,-0.949802 -0.283322,-1.256771 -0.877712,-0.877729 -1.426191,-0.372798 -2.006745,1.847347 -1.055804,4.037648 -2.183874,7.806955 -3.274767,10.942267 -0.632904,1.819011 -1.550043,4.539033 -2.038085,6.044485 l -0.887354,2.73717 -0.88472,-1.94342 c -1.096372,-2.408369 -2.347476,-5.748363 -4.147232,-11.071568 -1.787451,-5.286798 -3.536405,-10.141003 -5.147755,-14.2875 -2.343989,-6.031812 -4.189227,-12.501721 -4.77316,-16.736007 -0.19222,-1.393852 -0.132519,-2.606093 0.271335,-5.509445 0.648229,-4.660186 1.444437,-6.336454 4.624219,-9.73537 6.884299,-7.358724 14.205868,-12.867323 29.6364799,-22.297946 1.3096875,-0.800418 3.8100001,-2.334101 5.5562502,-3.408151 6.1544758,-3.78542 7.5482214,-4.636426 9.9540037,-6.077664 1.3359951,-0.800365 3.5378762,-2.169584 4.8930672,-3.042709 1.355193,-0.8731245 3.50525,-2.2423433 4.777896,-3.0427079 1.272646,-0.8003645 3.092662,-1.9817027 4.044474,-2.6251958 6.773201,-4.57919663 10.804022,-7.1893641 14.827435,-9.6015439 9.84348,-5.9015574 12.558899,-7.6014524 17.594793,-11.0147364 6.622759,-4.488841 14.046306,-10.000668 19.810519,-14.708902 1.436925,-1.173692 2.925207,-2.364872 3.307292,-2.647077 3.337507,-2.464911 6.66496,-5.571278 13.916157,-12.991465 10.335605,-10.57648 16.001713,-15.621672 23.374963,-20.813395 0.97248,-0.684762 2.83972,-2.034185 4.14941,-2.998718 6.71653,-4.946447 12.63396,-8.134927 21.82812,-11.761613 9.64518,-3.804584 12.50345,-5.219586 14.87948,-7.366196 0.74317,-0.671401 1.14747,-0.857054 1.61237,-0.74037 0.83196,0.208806 1.32493,-0.248452 1.86979,-1.734278 0.2559,-0.697815 0.8858,-1.629412 1.44065,-2.130713 0.87419,-0.789755 1.35134,-0.96112 4.20789,-1.511242 3.81873,-0.735423 5.86713,-0.652748 8.8792,0.35837 5.19552,1.744075 8.03722,3.862131 9.97379,7.43395 2.21742,4.089808 4.20166,6.467198 7.40767,8.875369 1.73723,1.304909 11.37708,10.043882 11.37708,10.313853 0,0.12624 2.23242,2.479786 4.96094,5.230098 5.10392,5.144693 12.74511,13.44581 16.24632,17.64943 4.64158,5.572787 13.15842,18.374651 17.95425,26.9875 1.79732,3.227811 5.31567,8.122629 8.72178,12.1339771 3.03654,3.5761083 6.3214,7.8586806 10.68274,13.9274814 3.45554,4.8083785 8.00849,10.0606755 12.5834,14.5163115 1.24986,1.217269 4.77581,4.670081 7.83547,7.672917 3.05967,3.002862 7.10552,6.828948 8.99078,8.502438 1.88527,1.67349 4.21236,3.757083 5.17131,4.630208 0.95896,0.873125 2.62811,2.307114 3.70922,3.186668 1.08112,0.879555 3.36807,2.784555 5.08212,4.233334 2.99463,2.531189 7.03466,5.753311 10.86535,8.665686 0.99603,0.757237 2.62208,2.043165 3.61344,2.857579 2.78678,2.289413 4.09594,3.201459 8.39968,5.85179 2.19443,1.351359 5.66216,3.707183 7.70612,5.235152 2.04393,1.527968 4.68368,3.313906 5.86613,3.96875 3.09409,1.713547 5.14842,3.247072 7.30544,5.45338 1.35138,1.382262 1.93601,1.825704 2.04221,1.54895 0.18161,-0.473313 0.93938,-0.513662 1.0713,-0.05702 0.0526,0.181901 0.47884,1.558502 0.94731,3.059113 0.80455,2.577147 0.85315,2.965741 0.87699,7.011458 0.0297,5.045286 -0.18693,6.1146 -2.26698,11.18878 -1.24105,3.02747 -4.99398,9.5999 -7.6741,13.43949 -0.29409,0.42132 -1.36613,2.20726 -2.38231,3.96875 -1.01616,1.76149 -2.30132,3.9883 -2.85589,4.94842 -0.55454,0.96014 -1.80843,3.04374 -2.78638,4.63021 -0.97795,1.58649 -2.28232,3.72827 -2.89856,4.75951 -2.23181,3.73483 -6.33828,9.5182 -8.48111,11.94448 -2.10246,2.38056 -7.75994,7.29469 -15.40595,13.38172 -3.22234,2.56532 -9.68275,6.51129 -10.05345,6.14059 -0.30515,-0.30512 -0.17085,-10.97563 0.17885,-14.21265 0.24472,-2.26529 0.25662,-3.24128 0.0443,-3.63802 -0.32443,-0.60622 -1.12127,-0.71568 -1.53918,-0.21143 -0.15079,0.1819 -0.59338,2.23004 -0.98359,4.55141 -0.98944,5.88635 -2.55601,10.61495 -4.40899,13.30815 -1.22174,1.77572 -10.61138,11.04339 -13.45645,13.28163 -2.84794,2.24049 -2.79921,2.19745 -10.84069,9.57543 -7.06855,6.48528 -9.61924,8.58711 -9.74169,8.02725 -0.0471,-0.21508 0.10178,-1.2968 0.33073,-2.40382 0.60372,-2.91936 0.60409,-13.9014 0,-14.50502 -0.45974,-0.45974 -0.86699,-0.51712 -1.37623,-0.19391 -0.18524,0.11756 -0.50539,1.33612 -0.71144,2.70793 -0.81349,5.41592 -2.60993,11.52755 -4.63593,15.77187 -1.78945,3.74883 -3.33994,5.50735 -6.64109,7.53221 -4.34732,2.66655 -7.48223,3.97304 -10.69351,4.45659 -1.16416,0.17528 -4.14073,0.89344 -6.61458,1.59591 -2.47385,0.70244 -4.90276,1.35877 -5.39753,1.45849 -0.8034,0.16193 -0.87921,0.12859 -0.70871,-0.31147 1.06958,-2.76071 1.59377,-8.24735 1.39689,-14.62098 -0.16081,-5.20573 -0.32774,-5.82565 -1.47095,-5.46282 -0.38888,0.12342 -0.70395,0.6564 -1.07185,1.81313 -2.28264,7.17667 -4.36954,12.13723 -7.28424,17.31468 -0.34809,0.61833 -0.67263,1.23706 -0.72118,1.37496 -0.13613,0.38658 -5.61025,-0.19206 -7.89347,-0.83442 -1.32721,-0.37338 -2.80903,-0.56623 -4.47453,-0.58237 l -2.49015,-0.0241 -0.99981,1.85209 c -0.54988,1.01864 -1.61848,2.5455 -2.37466,3.39304 -1.60491,1.79882 -1.57925,1.79792 -4.90633,0.17611 -1.63319,-0.79611 -2.53357,-1.45886 -3.75333,-2.76278 l -1.60469,-1.71543 -0.26213,1.38057 c -1.46185,7.69953 -3.05739,14.08766 -4.9707,19.9014 -0.83452,2.53582 -2.25774,5.46055 -3.30165,6.78495 -0.41797,0.53028 -0.75994,1.08125 -0.75994,1.22439 0,0.14314 -0.1833,0.41238 -0.40733,0.5983 -0.34668,0.28771 -0.606,0.11517 -1.74096,-1.15821 -1.39591,-1.56618 -1.81845,-1.8056 -1.82348,-1.03328 -0.007,1.14123 -2.77357,8.60025 -4.03376,10.87734 -2.43861,4.40642 -13.08666,18.11163 -17.9492,23.10265 -2.24626,2.30558 -2.9347,2.85845 -3.74277,3.00561 -2.52412,0.45974 -2.37876,-0.67011 0.92941,-7.22408 1.39067,-2.75516 2.92438,-6.24956 3.45294,-7.86725 1.08799,-3.32983 2.56098,-8.29368 2.56098,-8.63029 0,-0.12488 -0.8432,0.42442 -1.87378,1.22066 -2.2747,1.75755 -12.58914,7.14169 -16.41692,8.56969 -1.50902,0.56296 -3.81524,1.44643 -5.12492,1.96327 -1.30969,0.51683 -4.10766,1.5926 -6.21771,2.39059 -2.11005,0.79798 -6.51537,2.54637 -9.78959,3.88532 -22.917257,9.37162 -33.89953,13.58279 -39.026044,14.9646 -3.30708,0.89138 -13.86795,2.16998 -19.579167,2.3704 -3.269589,0.11475 -6.628633,0.0358 -10.715625,-0.25196 -3.547481,-0.24974 -9.388767,-0.41945 -14.455088,-0.41995 -7.873709,0 -8.511143,0.0333 -8.626449,0.46215 -0.06845,0.25466 -0.88601,0.85799 -1.816788,1.34075 -0.930751,0.48276 -1.870895,0.98533 -2.089176,1.11686 -1.688201,1.01719 -6.394379,3.71237 -7.1437505,4.09112 -0.5093229,0.25744 -1.5213542,0.84767 -2.2489584,1.31162 -1.6438907,1.04822 -7.4672775,4.37663 -7.6573594,4.37663 -0.1506723,0 -2.753667,1.56477 -3.1905576,1.91799 -0.1455209,0.11763 -1.0980209,0.78346 -2.1166668,1.47955 -1.7042153,1.16462 -6.5256303,4.62259 -7.1437503,5.12358 -0.145521,0.11795 -1.812396,1.37033 -3.704167,2.78302 -1.891771,1.41271 -3.499114,2.63472 -3.571875,2.71555 -0.07276,0.0808 -0.965729,0.79383 -1.984375,1.5844 -1.018646,0.79058 -1.971146,1.53416 -2.116667,1.65243 -0.145521,0.11824 -1.098021,0.83325 -2.116666,1.58888 -1.018646,0.75565 -1.971146,1.46645 -2.116667,1.57956 -1.249622,0.97136 -3.642027,2.6026 -6.746875,4.60031 -2.925752,1.88246 -7.639696,4.58181 -11.546547,6.61188 -2.45341,1.27484 -5.294183,2.77635 -6.312829,3.33666 -1.018646,0.56031 -2.685521,1.44325 -3.704167,1.9621 -1.935025,0.9856 -4.722913,2.42509 -13.392608,6.91507 -2.854788,1.47849 -5.810877,3.05393 -6.569086,3.50097 -0.758208,0.44706 -2.292003,1.30344 -3.408434,1.90309 -1.11643,0.59963 -2.089404,1.17147 -2.162164,1.27074 -0.07276,0.0993 -0.370417,0.26723 -0.661459,0.37322 -0.852133,0.31033 -5.998321,3.30005 -7.456826,4.33211 -0.463233,0.32779 -0.914538,0.59597 -1.002901,0.59597 -0.08836,0 -0.483259,0.22601 -0.877549,0.50223 -0.39429,0.27623 -1.788453,1.1929 -3.098141,2.03708 -1.309687,0.84418 -2.420937,1.63021 -2.469437,1.74673 -0.0485,0.11652 -0.21109,0.21188 -0.3613,0.21188 -0.32852,0 -4.0111,2.40543 -4.13662,2.70203 -0.0485,0.11462 -0.18826,0.20838 -0.31055,0.20838 -0.1223,0 -1.2467,0.62508 -2.49868,1.38907 -2.98377,1.82078 -5.07331,2.99085 -6.29685,3.52605 -0.5457,0.2387 -0.99218,0.54014 -0.99218,0.66987 0,0.12972 -0.11996,0.23585 -0.26656,0.23585 -0.14661,0 -1.60512,0.64174 -3.24115,1.4261 -1.63602,0.78436 -4.10568,1.95406 -5.48813,2.59935 -2.15534,1.00602 -7.80297,4.23378 -8.20208,4.68765 -0.16518,0.18785 -1.06469,0.75636 -1.57214,0.99367 -0.5125,0.23966 -5.93191,3.32438 -7.4237,4.22558 -0.65484,0.39558 -2.32171,1.30413 -3.70416,2.01895 -1.38245,0.71485 -2.63261,1.39227 -2.77813,1.50535 -0.14552,0.11311 -2.40771,1.30926 -5.02708,2.65816 -5.17377,2.66433 -8.69212,4.49257 -9.525,4.94954 -1.61507,0.88606 -5.14637,2.00477 -9.12813,2.89176 -6.95871,1.55011 -11.56818,1.8387 -20.10833,1.25881 z M 25.075577,285.47146 c 0.343138,-0.30948 -0.210767,-0.26244 -0.772107,0.0655 l -0.661062,0.38626 0.661459,-0.17619 c 0.363802,-0.0969 0.711067,-0.22095 0.77171,-0.27561 z m 51.4835,-70.3185 c 0.291041,-0.22431 0.386979,-0.41164 0.213201,-0.41627 -0.173805,-0.005 -0.650055,0.29644 -1.058333,0.669 -0.778457,0.71035 -0.167323,0.52761 0.845132,-0.25273 z"
         id="path56" />
    </g>
  </g>
</svg>
