<?xml version="1.0" encoding="UTF-8" standalone="no"?>
<svg
   xmlns:dc="http://purl.org/dc/elements/1.1/"
   xmlns:cc="http://creativecommons.org/ns#"
   xmlns:rdf="http://www.w3.org/1999/02/22-rdf-syntax-ns#"
   xmlns:svg="http://www.w3.org/2000/svg"
   xmlns="http://www.w3.org/2000/svg"
   xmlns:sodipodi="http://sodipodi.sourceforge.net/DTD/sodipodi-0.dtd"
   xmlns:inkscape="http://www.inkscape.org/namespaces/inkscape"
   width="163.13022mm"
   height="20.088205mm"
   viewBox="0 0 163.13022 20.088205"
   version="1.1"
   id="svg8"
   inkscape:export-filename="C:\Users\Eric\Desktop\Wireframe\titre.png"
   inkscape:export-xdpi="96"
   inkscape:export-ydpi="96"
   inkscape:version="1.0.1 (3bc2e813f5, 2020-09-07)"
   sodipodi:docname="Titre.svg">
  <defs
     id="defs2" />
  <sodipodi:namedview
     id="base"
     pagecolor="#000000"
     bordercolor="#666666"
     borderopacity="1.0"
     inkscape:pageopacity="0"
     inkscape:pageshadow="2"
     inkscape:zoom="0.35"
     inkscape:cx="266.01507"
     inkscape:cy="-110.91403"
     inkscape:document-units="mm"
     inkscape:current-layer="layer1"
     inkscape:document-rotation="0"
     showgrid="false"
     inkscape:window-width="1425"
     inkscape:window-height="1080"
     inkscape:window-x="2258"
     inkscape:window-y="203"
     inkscape:window-maximized="0" />
  <metadata
     id="metadata5">
    <rdf:RDF>
      <cc:Work
         rdf:about="">
        <dc:format>image/svg+xml</dc:format>
        <dc:type
           rdf:resource="http://purl.org/dc/dcmitype/StillImage" />
        <dc:title></dc:title>
      </cc:Work>
    </rdf:RDF>
  </metadata>
  <g
     inkscape:label="Calque 1"
     inkscape:groupmode="layer"
     id="layer1"
     transform="translate(-35.450178,-177.51267)">
    <path
       style="fill:#fefefe;stroke-width:0.264583"
       d="m 135.12649,197.25965 c 0,-0.19047 0.14883,-0.54821 0.33073,-0.79498 0.29287,-0.3973 0.50017,-0.41298 1.81077,-0.13691 2.85519,0.60143 5.38466,-0.83018 6.93352,-3.92418 1.10179,-2.20091 3.3604,-9.70312 3.3604,-11.1619 0,-0.31471 0.24407,-0.61927 0.59531,-0.74284 1.32569,-0.46639 -5.69353,-0.80562 -7.58629,-0.36664 -1.5076,0.34965 -2.40173,1.10323 -2.40173,2.02418 0,0.61795 0.18594,0.85611 0.96624,1.23761 0.53143,0.25983 1.57322,0.5443 2.3151,0.63217 1.48555,0.17594 1.59641,0.30917 0.83247,1.00053 -0.46083,0.41704 -0.66387,0.43196 -1.88675,0.13859 -2.88123,-0.6912 -3.95241,-2.95637 -2.24219,-4.74145 1.37473,-1.43491 2.67718,-1.73944 7.29117,-1.70477 3.6892,0.0277 7.24494,0.37905 7.61864,0.75276 0.0771,0.0771 0.0109,0.42406 -0.14715,0.77097 -0.26434,0.58017 -0.37915,0.613 -1.43204,0.40951 -2.04994,-0.39618 -1.9341,-0.51204 -2.7317,2.7323 -2.21788,9.0216 -4.75311,12.77843 -9.35415,13.86139 -1.98489,0.46718 -4.27235,0.4745 -4.27235,0.0137 z m -98.627142,-0.35602 c -1.444673,-0.71212 -1.385247,-2.44862 0.10316,-3.01451 0.828164,-0.31487 3.865082,-0.31702 5.215188,-0.004 0.984397,0.22844 1.026409,0.20867 1.386168,-0.65235 0.204052,-0.48837 0.838691,-3.02341 1.41031,-5.63343 1.080711,-4.93456 1.588171,-6.27842 2.961393,-7.84244 2.399335,-2.73269 5.434574,-1.17513 4.748512,2.43674 -0.383059,2.01668 -0.703871,2.62903 -1.479307,2.82366 -0.391586,0.0983 -0.757258,0.1334 -0.812607,0.0781 -0.05535,-0.0554 0.196827,-0.83269 0.560388,-1.72741 1.042294,-2.56511 0.832252,-4.28313 -0.52365,-4.28313 -1.654477,0 -2.409923,1.58879 -3.783677,7.95751 -0.583078,2.70314 -1.311546,5.43515 -1.618821,6.07114 -0.307275,0.63598 -0.468912,1.24434 -0.359195,1.3519 0.395165,0.3874 4.184982,1.2882 5.41969,1.2882 1.409864,0 1.38339,-0.0266 0.941279,0.94379 -0.301628,0.66199 -0.400156,0.6947 -1.64773,0.54694 -0.729806,-0.0864 -2.435376,-0.47162 -3.790154,-0.85597 -2.263818,-0.64224 -2.500979,-0.66466 -2.929468,-0.27688 -1.263413,1.14337 -4.258921,1.55225 -5.801479,0.79188 z m 4.220259,-0.78637 c 1.177145,-0.59556 1.086672,-0.83891 -0.428855,-1.15353 -1.949984,-0.40482 -3.589712,-0.26349 -3.959192,0.34125 -0.234884,0.38444 -0.188709,0.53867 0.237637,0.79375 1.24921,0.74739 2.697009,0.75386 4.15041,0.0186 z m 11.761865,0.35939 c -1.490573,-1.49057 -1.013413,-4.39078 1.064225,-6.46842 1.048401,-1.0484 1.270725,-1.15519 2.252856,-1.08221 1.271394,0.0945 1.699786,0.60067 1.427268,1.68648 -0.239406,0.95386 -2.042726,2.64471 -3.243162,3.04089 -0.757513,0.25 -0.893821,0.41095 -0.825971,0.97534 0.04469,0.37176 0.41166,0.92154 0.815483,1.22172 0.730075,0.5427 0.739592,0.5429 1.684266,0.0342 0.522523,-0.2814 1.008531,-0.66406 1.080021,-0.85035 0.141097,-0.3677 0.867114,-0.47323 0.867114,-0.12605 0,0.11698 -0.409985,0.61006 -0.911079,1.09574 -0.718387,0.69629 -1.189871,0.90984 -2.229221,1.00971 -1.146754,0.11019 -1.404427,0.0404 -1.9818,-0.53701 z m 2.853062,-4.82382 c 0.87193,-1.14321 1.080979,-1.94924 0.557636,-2.15006 -0.74473,-0.28578 -2.034611,1.32454 -2.648061,3.30591 l -0.194027,0.62668 0.839526,-0.49439 c 0.46174,-0.27192 1.111959,-0.85158 1.444926,-1.28814 z m 7.825288,5.24053 c 0,-0.27719 3.431101,-17.83636 3.58825,-18.3634 0.126929,-0.42569 1.403257,-1.15611 1.627799,-0.93157 0.09357,0.0936 -2.578031,12.01564 -3.26802,14.5836 -0.0782,0.29105 0.279292,-0.0828 0.794425,-0.83081 1.213673,-1.7623 2.144424,-2.47648 3.227454,-2.47648 1.600782,0 2.227328,1.25398 1.70806,3.41853 -0.405485,1.69025 -1.612517,3.58387 -2.711559,4.25396 -0.93667,0.57109 -2.576333,0.69454 -3.396303,0.2557 -0.355295,-0.19015 -0.673568,-0.1873 -1.040939,0.009 -0.291042,0.15576 -0.529167,0.19228 -0.529167,0.0812 z m 4.342733,-1.00916 c 1.032322,-0.95672 1.817095,-2.91624 1.848303,-4.61508 0.03214,-1.74971 -0.398378,-1.98806 -1.665325,-0.922 -0.843637,0.70988 -2.928231,4.15973 -2.934713,4.85675 -0.0055,0.58799 0.812342,1.34375 1.454081,1.34375 0.32,0 0.903944,-0.29854 1.297654,-0.66342 z m 4.936887,0.49544 c -0.656529,-0.83464 -0.680619,-1.40731 -0.136303,-3.24022 0.285782,-0.96234 0.792562,-1.78163 1.653646,-2.67339 1.351653,-1.39981 2.397932,-1.82015 3.497517,-1.4051 0.52606,0.19857 0.893143,0.1697 1.431938,-0.1126 0.398492,-0.20879 0.791104,-0.31305 0.872474,-0.23168 0.08137,0.0814 -0.167283,1.32098 -0.552558,2.75469 -1.019075,3.79226 -0.896097,5.02044 0.386474,3.85973 0.25695,-0.23253 0.604094,-0.33817 0.77143,-0.23475 0.402701,0.24888 -1.262208,1.98046 -1.904207,1.98046 -0.735507,0 -1.371401,-1.18221 -1.172043,-2.17899 l 0.169979,-0.8499 -0.827855,1.12571 c -1.433756,1.9496 -3.204691,2.45929 -4.190492,1.20604 z m 3.436885,-1.40495 c 0.900583,-0.94671 2.100162,-3.4457 2.100162,-4.37512 0,-0.5351 -1.00315,-1.16059 -1.607754,-1.00248 -0.693164,0.18126 -1.795987,1.53137 -2.3979,2.93558 -0.485127,1.13175 -0.66012,2.96515 -0.315873,3.30939 0.434678,0.43468 1.306637,0.0942 2.221365,-0.86737 z m 6.220103,1.68632 c -0.51697,-0.51697 -0.523645,-2.05201 -0.0189,-4.34672 0.513713,-2.33548 0.498195,-2.64584 -0.132291,-2.64584 -0.293982,0 -0.529167,-0.17639 -0.529167,-0.39687 0,-0.24529 0.248751,-0.39688 0.651261,-0.39688 0.668028,0 0.820243,-0.3227 1.324367,-2.80772 0.108114,-0.53293 0.407821,-0.93306 0.849683,-1.13438 0.375459,-0.17108 0.729432,-0.26427 0.786606,-0.20709 0.05717,0.0572 -0.07551,0.8653 -0.294862,1.79584 -0.55794,2.36694 -0.56183,2.35335 0.673743,2.35335 1.447742,0 1.253551,0.63255 -0.227844,0.74217 -1.226113,0.0907 -1.130913,-0.0756 -1.865042,3.25835 -0.504119,2.28938 -0.416325,3.14323 0.323186,3.14323 0.188497,0 0.55822,-0.23812 0.82161,-0.52917 0.491612,-0.54322 1.190625,-0.71465 1.190625,-0.29199 0,0.13045 -0.420862,0.6067 -0.935249,1.05834 -1.026221,0.90103 -1.975128,1.04798 -2.617726,0.40538 z m 5.045458,-0.18436 c -1.490572,-1.49057 -1.013412,-4.39078 1.064226,-6.46842 1.048401,-1.0484 1.270725,-1.15519 2.252855,-1.08221 1.271395,0.0945 1.699787,0.60067 1.427269,1.68648 -0.239406,0.95386 -2.042726,2.64471 -3.243162,3.04089 -0.757513,0.25 -0.893821,0.41095 -0.825971,0.97534 0.04469,0.37176 0.41166,0.92154 0.815483,1.22172 0.730075,0.5427 0.739592,0.5429 1.684266,0.0342 0.522523,-0.2814 1.008531,-0.66406 1.080021,-0.85035 0.141097,-0.3677 0.867114,-0.47323 0.867114,-0.12605 0,0.11698 -0.409985,0.61006 -0.91108,1.09574 -0.718386,0.69629 -1.189871,0.90984 -2.22922,1.00971 -1.146755,0.11019 -1.404427,0.0404 -1.981801,-0.53701 z m 2.853063,-4.82382 c 0.871929,-1.14321 1.080979,-1.94924 0.557636,-2.15006 -0.744731,-0.28578 -2.034612,1.32454 -2.648061,3.30591 l -0.194027,0.62668 0.839525,-0.49439 c 0.461741,-0.27192 1.11196,-0.85158 1.444927,-1.28814 z m 3.346574,4.72681 c -0.656529,-0.83464 -0.680619,-1.40731 -0.136302,-3.24022 0.285781,-0.96234 0.792562,-1.78163 1.653646,-2.67339 1.351653,-1.39981 2.397932,-1.82015 3.497516,-1.4051 0.52606,0.19857 0.893143,0.1697 1.431938,-0.1126 0.398497,-0.20879 0.791107,-0.31305 0.872477,-0.23168 0.0814,0.0814 -0.16728,1.32098 -0.55256,2.75469 -1.019076,3.79226 -0.896097,5.02044 0.38647,3.85973 0.25695,-0.23253 0.6041,-0.33817 0.77143,-0.23475 0.4027,0.24888 -1.2622,1.98046 -1.904203,1.98046 -0.735508,0 -1.371402,-1.18221 -1.172044,-2.17899 l 0.169979,-0.8499 -0.827855,1.12571 c -1.433755,1.9496 -3.204691,2.45929 -4.190492,1.20604 z m 3.436885,-1.40495 c 0.900583,-0.94671 2.100162,-3.4457 2.100162,-4.37512 0,-0.5351 -1.003149,-1.16059 -1.607754,-1.00248 -0.693163,0.18126 -1.795986,1.53137 -2.3979,2.93558 -0.485127,1.13175 -0.66012,2.96515 -0.315873,3.30939 0.434679,0.43468 1.306637,0.0942 2.221365,-0.86737 z m 6.26735,1.81632 c -0.59717,-0.34782 -0.60259,-1.68049 -0.0201,-4.94153 0.39978,-2.23815 0.51444,-2.51662 1.17749,-2.85949 0.40402,-0.20893 0.7843,-0.37987 0.84506,-0.37987 0.0608,0 -0.25789,1.49185 -0.70811,3.31521 -0.62179,2.51816 -0.74969,3.42463 -0.532,3.77032 0.47008,0.74648 1.07162,0.67175 2.08762,-0.25935 0.84659,-0.77583 1.00553,-1.13023 1.34243,-2.99321 0.57912,-3.20236 0.5748,-3.19085 1.32558,-3.53293 0.3861,-0.17592 0.74145,-0.2804 0.78966,-0.23218 0.0482,0.0482 -0.28347,1.4804 -0.73709,3.18262 -0.5938,2.22823 -0.75595,3.2492 -0.579,3.64574 l 0.24576,0.55079 0.69731,-0.54851 c 1.26123,-0.99208 1.40011,-0.56359 0.23189,0.71545 -0.9352,1.02391 -1.76452,1.10253 -2.173,0.20601 l -0.29466,-0.64671 -0.95171,0.64671 c -1.00331,0.68176 -1.9767,0.80965 -2.74711,0.36093 z m 12.75828,-0.44183 c -0.47341,-0.59859 -0.5492,-0.95213 -0.42742,-1.99388 0.19886,-1.70112 1.39056,-3.81289 2.68425,-4.75665 0.89709,-0.65444 1.24528,-0.7546 2.28544,-0.65741 l 1.2271,0.11467 0.84531,-4.25779 c 1.42686,-7.18701 1.27321,-6.68333 2.14943,-7.04627 0.43215,-0.179 0.82156,-0.27967 0.86535,-0.2237 0.0438,0.056 -0.78853,3.85223 -1.84961,8.43614 -1.06108,4.5839 -1.93417,8.66179 -1.94019,9.06197 -0.0122,0.80764 0.51376,0.97371 1.04738,0.33073 0.34849,-0.4199 1.05833,-0.54344 1.05833,-0.18419 0,0.36922 -1.72702,1.90398 -2.14249,1.90398 -0.67491,0 -1.03232,-0.5882 -1.03697,-1.70656 l -0.004,-1.07156 -0.54495,0.85083 c -0.65913,1.02906 -2.04047,1.92729 -2.96391,1.92729 -0.42284,0 -0.89329,-0.27326 -1.25261,-0.7276 z m 3.53051,-1.40326 c 0.55072,-0.64339 1.15923,-1.82261 1.52084,-2.9472 0.58504,-1.81948 0.58829,-1.88527 0.11033,-2.23476 -0.27085,-0.19805 -0.63915,-0.36009 -0.81845,-0.36009 -0.66876,0 -2.05403,1.483 -2.65533,2.84264 -0.59162,1.33776 -0.82431,3.21655 -0.44531,3.59555 0.47756,0.47756 1.43212,0.10367 2.28792,-0.89614 z m 5.64276,1.53073 c -1.49057,-1.49057 -1.01341,-4.39078 1.06422,-6.46842 1.0484,-1.0484 1.27073,-1.15519 2.25286,-1.08221 1.27139,0.0945 1.69979,0.60067 1.42727,1.68648 -0.23941,0.95386 -2.04273,2.64471 -3.24316,3.04089 -0.75752,0.25 -0.89383,0.41095 -0.82598,0.97534 0.0447,0.37176 0.41166,0.92154 0.81549,1.22172 0.73007,0.5427 0.73959,0.5429 1.68426,0.0342 0.52253,-0.2814 1.00853,-0.66406 1.08002,-0.85035 0.1411,-0.3677 0.86712,-0.47323 0.86712,-0.12605 0,0.11698 -0.40999,0.61006 -0.91108,1.09574 -0.71839,0.69629 -1.18987,0.90984 -2.22922,1.00971 -1.14676,0.11019 -1.40443,0.0404 -1.9818,-0.53701 z m 2.85306,-4.82382 c 0.87193,-1.14321 1.08098,-1.94924 0.55764,-2.15006 -0.74473,-0.28578 -2.03461,1.32454 -2.64806,3.30591 l -0.19403,0.62668 0.83952,-0.49439 c 0.46174,-0.27192 1.11196,-0.85158 1.44493,-1.28814 z m 22.65798,5.09323 c 0.009,-0.18191 0.81755,-4.42212 1.79719,-9.42271 1.75019,-8.93383 1.79404,-9.09871 2.52091,-9.47956 0.40686,-0.21317 0.79078,-0.33655 0.85316,-0.27417 0.0624,0.0624 -0.603,3.25549 -1.4786,7.09579 -0.87561,3.84031 -1.59202,7.0835 -1.59202,7.20709 0,0.1236 0.47531,-0.37659 1.05624,-1.11153 1.15932,-1.46664 1.76217,-1.88627 2.70991,-1.88627 1.39818,0 1.53354,0.78435 0.70527,4.08675 -0.67638,2.69678 -0.49136,3.40822 0.65236,2.50857 0.94903,-0.74651 1.1677,-0.4841 0.44377,0.53257 -0.7333,1.02982 -1.80791,1.34069 -2.30142,0.66577 -0.45561,-0.62308 -0.44787,-1.35847 0.0412,-3.91433 0.21826,-1.14059 0.39683,-2.24191 0.39683,-2.4474 0,-0.69918 -1.00092,-0.37655 -1.85714,0.59863 -0.92139,1.0494 -2.64078,4.41071 -2.64078,5.16256 0,0.25365 -0.2303,0.58443 -0.51177,0.73507 -0.66525,0.35603 -0.81461,0.34536 -0.79512,-0.0568 z m 9.56189,0.0132 c -0.43145,-0.43144 -0.39891,-1.86203 0.11236,-4.94056 0.40611,-2.44529 0.4719,-2.60419 1.19063,-2.87548 0.95493,-0.36045 0.95671,-0.30895 0.1,2.88893 -0.93819,3.50194 -0.83692,4.87353 0.26956,3.65088 0.47397,-0.52373 1.18498,-0.70989 1.18498,-0.31025 0,0.36922 -1.72702,1.90398 -2.14249,1.90398 -0.21863,0 -0.54038,-0.14287 -0.71501,-0.3175 z m 3.12209,0.13408 c 0,-0.27719 3.4311,-17.83636 3.58825,-18.3634 0.12692,-0.42569 1.40325,-1.15611 1.62779,-0.93157 0.0936,0.0936 -2.57803,12.01564 -3.26802,14.5836 -0.0782,0.29105 0.2793,-0.0828 0.79443,-0.83081 1.21367,-1.7623 2.14442,-2.47648 3.22745,-2.47648 1.60078,0 2.22733,1.25398 1.70806,3.41853 -0.40548,1.69025 -1.61251,3.58387 -2.71156,4.25396 -0.93667,0.57109 -2.57633,0.69454 -3.3963,0.2557 -0.35529,-0.19015 -0.67357,-0.1873 -1.04094,0.009 -0.29104,0.15576 -0.52916,0.19228 -0.52916,0.0812 z m 4.34273,-1.00916 c 1.03232,-0.95672 1.81709,-2.91624 1.8483,-4.61508 0.0321,-1.74971 -0.39838,-1.98806 -1.66532,-0.922 -0.84364,0.70988 -2.92823,4.15973 -2.93472,4.85675 -0.005,0.58799 0.81235,1.34375 1.45408,1.34375 0.32,0 0.90395,-0.29854 1.29766,-0.66342 z m 4.93689,0.49544 c -0.65653,-0.83464 -0.68062,-1.40731 -0.13631,-3.24022 0.28578,-0.96234 0.79256,-1.78163 1.65365,-2.67339 1.35165,-1.39981 2.39793,-1.82015 3.49751,-1.4051 0.52607,0.19857 0.89315,0.1697 1.43194,-0.1126 0.39849,-0.20879 0.79111,-0.31305 0.87248,-0.23168 0.0814,0.0814 -0.16729,1.32098 -0.55256,2.75469 -1.01908,3.79226 -0.8961,5.02044 0.38647,3.85973 0.25695,-0.23253 0.6041,-0.33817 0.77143,-0.23475 0.4027,0.24888 -1.26221,1.98046 -1.9042,1.98046 -0.73551,0 -1.37141,-1.18221 -1.17205,-2.17899 l 0.16998,-0.8499 -0.82785,1.12571 c -1.43376,1.9496 -3.20469,2.45929 -4.19049,1.20604 z m 3.43688,-1.40495 c 0.90058,-0.94671 2.10016,-3.4457 2.10016,-4.37512 0,-0.5351 -1.00315,-1.16059 -1.60775,-1.00248 -0.69317,0.18126 -1.79599,1.53137 -2.3979,2.93558 -0.48513,1.13175 -0.66012,2.96515 -0.31588,3.30939 0.43468,0.43468 1.30664,0.0942 2.22137,-0.86737 z m 6.00277,1.81632 c -0.59717,-0.34782 -0.6026,-1.68049 -0.0201,-4.94153 0.39977,-2.23815 0.51444,-2.51662 1.17748,-2.85949 0.40402,-0.20893 0.7843,-0.37987 0.84507,-0.37987 0.0608,0 -0.25789,1.49185 -0.70812,3.31521 -0.62178,2.51816 -0.74969,3.42463 -0.532,3.77032 0.47009,0.74648 1.07162,0.67175 2.08763,-0.25935 0.84658,-0.77583 1.00552,-1.13023 1.34242,-2.99321 0.57912,-3.20236 0.5748,-3.19085 1.32559,-3.53293 0.38609,-0.17592 0.74144,-0.2804 0.78966,-0.23218 0.0482,0.0482 -0.28348,1.4804 -0.7371,3.18262 -0.5938,2.22823 -0.75594,3.2492 -0.579,3.64574 l 0.24577,0.55079 0.6973,-0.54851 c 1.26123,-0.99208 1.40011,-0.56359 0.23189,0.71545 -0.9352,1.02391 -1.76452,1.10253 -2.173,0.20601 l -0.29466,-0.64671 -0.95171,0.64671 c -1.00331,0.68176 -1.97669,0.80965 -2.74711,0.36093 z m 8.34169,-0.045 c -0.14075,-0.18191 -0.32496,-0.5255 -0.40937,-0.76354 -0.12969,-0.36576 3.06544,-17.62483 3.29857,-17.8178 0.38225,-0.3164 1.34799,-0.67797 1.47407,-0.5519 0.0869,0.087 -0.70019,3.93636 -1.74918,8.55425 -1.04899,4.6179 -1.90422,8.65704 -1.90053,8.97587 0.009,0.81658 0.38428,0.95242 0.93841,0.34011 0.47397,-0.52373 1.18498,-0.70989 1.18498,-0.31025 0,0.37902 -1.73242,1.90398 -2.16301,1.90398 -0.22991,0 -0.53319,-0.14882 -0.67394,-0.33072 z m 4.04648,-0.085 c -0.51697,-0.51697 -0.52365,-2.05201 -0.0189,-4.34672 0.51371,-2.33548 0.49819,-2.64584 -0.1323,-2.64584 -0.29398,0 -0.52916,-0.17639 -0.52916,-0.39687 0,-0.24529 0.24875,-0.39688 0.65126,-0.39688 0.66803,0 0.82024,-0.3227 1.32437,-2.80772 0.10811,-0.53293 0.40782,-0.93306 0.84968,-1.13438 0.37546,-0.17108 0.72943,-0.26427 0.78661,-0.20709 0.0572,0.0572 -0.0755,0.8653 -0.29487,1.79584 -0.55794,2.36694 -0.56183,2.35335 0.67375,2.35335 1.44774,0 1.25355,0.63255 -0.22785,0.74217 -1.22611,0.0907 -1.13091,-0.0756 -1.86504,3.25835 -0.50412,2.28938 -0.41632,3.14323 0.32319,3.14323 0.18849,0 0.55822,-0.23812 0.82161,-0.52917 0.49161,-0.54322 1.19062,-0.71465 1.19062,-0.29199 0,0.13045 -0.42086,0.6067 -0.93525,1.05834 -1.02622,0.90103 -1.97513,1.04798 -2.61772,0.40538 z m -32.59333,-11.8719 c -0.25683,-0.66927 0.0187,-1.33586 0.5857,-1.41728 0.70874,-0.10176 1.25679,0.56279 1.03651,1.25684 -0.20181,0.63583 -1.39452,0.7538 -1.62221,0.16044 z"
       id="path24" />
  </g>
</svg>
